%TF.GenerationSoftware,KiCad,Pcbnew,8.0.6-8.0.6-0~ubuntu24.04.1*%
%TF.CreationDate,2024-10-28T17:30:22+01:00*%
%TF.ProjectId,diplexer,6469706c-6578-4657-922e-6b696361645f,rev?*%
%TF.SameCoordinates,Original*%
%TF.FileFunction,Legend,Top*%
%TF.FilePolarity,Positive*%
%FSLAX46Y46*%
G04 Gerber Fmt 4.6, Leading zero omitted, Abs format (unit mm)*
G04 Created by KiCad (PCBNEW 8.0.6-8.0.6-0~ubuntu24.04.1) date 2024-10-28 17:30:22*
%MOMM*%
%LPD*%
G01*
G04 APERTURE LIST*
%ADD10C,0.100000*%
%ADD11C,0.150000*%
%ADD12C,0.098425*%
%ADD13C,0.127000*%
%ADD14C,0.120000*%
G04 APERTURE END LIST*
D10*
X48500000Y-77500000D02*
X187500000Y-77500000D01*
X187500000Y-81500000D01*
X48500000Y-81500000D01*
X48500000Y-77500000D01*
X75441979Y-41550038D02*
X75441979Y-39550038D01*
X75441979Y-40502419D02*
X76584836Y-40502419D01*
X76584836Y-41550038D02*
X76584836Y-39550038D01*
X78203884Y-40502419D02*
X77537217Y-40502419D01*
X77537217Y-41550038D02*
X77537217Y-39550038D01*
X77537217Y-39550038D02*
X78489598Y-39550038D01*
X79251503Y-40788133D02*
X80775313Y-40788133D01*
X80013408Y-41550038D02*
X80013408Y-40026228D01*
X82584836Y-39550038D02*
X82203883Y-39550038D01*
X82203883Y-39550038D02*
X82013407Y-39645276D01*
X82013407Y-39645276D02*
X81918169Y-39740514D01*
X81918169Y-39740514D02*
X81727693Y-40026228D01*
X81727693Y-40026228D02*
X81632455Y-40407180D01*
X81632455Y-40407180D02*
X81632455Y-41169085D01*
X81632455Y-41169085D02*
X81727693Y-41359561D01*
X81727693Y-41359561D02*
X81822931Y-41454800D01*
X81822931Y-41454800D02*
X82013407Y-41550038D01*
X82013407Y-41550038D02*
X82394360Y-41550038D01*
X82394360Y-41550038D02*
X82584836Y-41454800D01*
X82584836Y-41454800D02*
X82680074Y-41359561D01*
X82680074Y-41359561D02*
X82775312Y-41169085D01*
X82775312Y-41169085D02*
X82775312Y-40692895D01*
X82775312Y-40692895D02*
X82680074Y-40502419D01*
X82680074Y-40502419D02*
X82584836Y-40407180D01*
X82584836Y-40407180D02*
X82394360Y-40311942D01*
X82394360Y-40311942D02*
X82013407Y-40311942D01*
X82013407Y-40311942D02*
X81822931Y-40407180D01*
X81822931Y-40407180D02*
X81727693Y-40502419D01*
X81727693Y-40502419D02*
X81632455Y-40692895D01*
X83632455Y-41550038D02*
X83632455Y-39550038D01*
X83632455Y-39550038D02*
X84299122Y-40978609D01*
X84299122Y-40978609D02*
X84965788Y-39550038D01*
X84965788Y-39550038D02*
X84965788Y-41550038D01*
X87727693Y-41550038D02*
X87537217Y-41454800D01*
X87537217Y-41454800D02*
X87441979Y-41264323D01*
X87441979Y-41264323D02*
X87441979Y-39550038D01*
X88775312Y-41550038D02*
X88584836Y-41454800D01*
X88584836Y-41454800D02*
X88489598Y-41359561D01*
X88489598Y-41359561D02*
X88394360Y-41169085D01*
X88394360Y-41169085D02*
X88394360Y-40597657D01*
X88394360Y-40597657D02*
X88489598Y-40407180D01*
X88489598Y-40407180D02*
X88584836Y-40311942D01*
X88584836Y-40311942D02*
X88775312Y-40216704D01*
X88775312Y-40216704D02*
X89061027Y-40216704D01*
X89061027Y-40216704D02*
X89251503Y-40311942D01*
X89251503Y-40311942D02*
X89346741Y-40407180D01*
X89346741Y-40407180D02*
X89441979Y-40597657D01*
X89441979Y-40597657D02*
X89441979Y-41169085D01*
X89441979Y-41169085D02*
X89346741Y-41359561D01*
X89346741Y-41359561D02*
X89251503Y-41454800D01*
X89251503Y-41454800D02*
X89061027Y-41550038D01*
X89061027Y-41550038D02*
X88775312Y-41550038D01*
X90108646Y-40216704D02*
X90489598Y-41550038D01*
X90489598Y-41550038D02*
X90870551Y-40597657D01*
X90870551Y-40597657D02*
X91251503Y-41550038D01*
X91251503Y-41550038D02*
X91632455Y-40216704D01*
X92394360Y-40216704D02*
X92394360Y-42216704D01*
X92394360Y-40311942D02*
X92584836Y-40216704D01*
X92584836Y-40216704D02*
X92965789Y-40216704D01*
X92965789Y-40216704D02*
X93156265Y-40311942D01*
X93156265Y-40311942D02*
X93251503Y-40407180D01*
X93251503Y-40407180D02*
X93346741Y-40597657D01*
X93346741Y-40597657D02*
X93346741Y-41169085D01*
X93346741Y-41169085D02*
X93251503Y-41359561D01*
X93251503Y-41359561D02*
X93156265Y-41454800D01*
X93156265Y-41454800D02*
X92965789Y-41550038D01*
X92965789Y-41550038D02*
X92584836Y-41550038D01*
X92584836Y-41550038D02*
X92394360Y-41454800D01*
X95061027Y-41550038D02*
X95061027Y-40502419D01*
X95061027Y-40502419D02*
X94965789Y-40311942D01*
X94965789Y-40311942D02*
X94775313Y-40216704D01*
X94775313Y-40216704D02*
X94394360Y-40216704D01*
X94394360Y-40216704D02*
X94203884Y-40311942D01*
X95061027Y-41454800D02*
X94870551Y-41550038D01*
X94870551Y-41550038D02*
X94394360Y-41550038D01*
X94394360Y-41550038D02*
X94203884Y-41454800D01*
X94203884Y-41454800D02*
X94108646Y-41264323D01*
X94108646Y-41264323D02*
X94108646Y-41073847D01*
X94108646Y-41073847D02*
X94203884Y-40883371D01*
X94203884Y-40883371D02*
X94394360Y-40788133D01*
X94394360Y-40788133D02*
X94870551Y-40788133D01*
X94870551Y-40788133D02*
X95061027Y-40692895D01*
X95918170Y-41454800D02*
X96108646Y-41550038D01*
X96108646Y-41550038D02*
X96489598Y-41550038D01*
X96489598Y-41550038D02*
X96680075Y-41454800D01*
X96680075Y-41454800D02*
X96775313Y-41264323D01*
X96775313Y-41264323D02*
X96775313Y-41169085D01*
X96775313Y-41169085D02*
X96680075Y-40978609D01*
X96680075Y-40978609D02*
X96489598Y-40883371D01*
X96489598Y-40883371D02*
X96203884Y-40883371D01*
X96203884Y-40883371D02*
X96013408Y-40788133D01*
X96013408Y-40788133D02*
X95918170Y-40597657D01*
X95918170Y-40597657D02*
X95918170Y-40502419D01*
X95918170Y-40502419D02*
X96013408Y-40311942D01*
X96013408Y-40311942D02*
X96203884Y-40216704D01*
X96203884Y-40216704D02*
X96489598Y-40216704D01*
X96489598Y-40216704D02*
X96680075Y-40311942D01*
X97537218Y-41454800D02*
X97727694Y-41550038D01*
X97727694Y-41550038D02*
X98108646Y-41550038D01*
X98108646Y-41550038D02*
X98299123Y-41454800D01*
X98299123Y-41454800D02*
X98394361Y-41264323D01*
X98394361Y-41264323D02*
X98394361Y-41169085D01*
X98394361Y-41169085D02*
X98299123Y-40978609D01*
X98299123Y-40978609D02*
X98108646Y-40883371D01*
X98108646Y-40883371D02*
X97822932Y-40883371D01*
X97822932Y-40883371D02*
X97632456Y-40788133D01*
X97632456Y-40788133D02*
X97537218Y-40597657D01*
X97537218Y-40597657D02*
X97537218Y-40502419D01*
X97537218Y-40502419D02*
X97632456Y-40311942D01*
X97632456Y-40311942D02*
X97822932Y-40216704D01*
X97822932Y-40216704D02*
X98108646Y-40216704D01*
X98108646Y-40216704D02*
X98299123Y-40311942D01*
X101632457Y-41550038D02*
X101632457Y-40502419D01*
X101632457Y-40502419D02*
X101537219Y-40311942D01*
X101537219Y-40311942D02*
X101346743Y-40216704D01*
X101346743Y-40216704D02*
X100965790Y-40216704D01*
X100965790Y-40216704D02*
X100775314Y-40311942D01*
X101632457Y-41454800D02*
X101441981Y-41550038D01*
X101441981Y-41550038D02*
X100965790Y-41550038D01*
X100965790Y-41550038D02*
X100775314Y-41454800D01*
X100775314Y-41454800D02*
X100680076Y-41264323D01*
X100680076Y-41264323D02*
X100680076Y-41073847D01*
X100680076Y-41073847D02*
X100775314Y-40883371D01*
X100775314Y-40883371D02*
X100965790Y-40788133D01*
X100965790Y-40788133D02*
X101441981Y-40788133D01*
X101441981Y-40788133D02*
X101632457Y-40692895D01*
X102584838Y-40216704D02*
X102584838Y-41550038D01*
X102584838Y-40407180D02*
X102680076Y-40311942D01*
X102680076Y-40311942D02*
X102870552Y-40216704D01*
X102870552Y-40216704D02*
X103156267Y-40216704D01*
X103156267Y-40216704D02*
X103346743Y-40311942D01*
X103346743Y-40311942D02*
X103441981Y-40502419D01*
X103441981Y-40502419D02*
X103441981Y-41550038D01*
X105251505Y-41550038D02*
X105251505Y-39550038D01*
X105251505Y-41454800D02*
X105061029Y-41550038D01*
X105061029Y-41550038D02*
X104680076Y-41550038D01*
X104680076Y-41550038D02*
X104489600Y-41454800D01*
X104489600Y-41454800D02*
X104394362Y-41359561D01*
X104394362Y-41359561D02*
X104299124Y-41169085D01*
X104299124Y-41169085D02*
X104299124Y-40597657D01*
X104299124Y-40597657D02*
X104394362Y-40407180D01*
X104394362Y-40407180D02*
X104489600Y-40311942D01*
X104489600Y-40311942D02*
X104680076Y-40216704D01*
X104680076Y-40216704D02*
X105061029Y-40216704D01*
X105061029Y-40216704D02*
X105251505Y-40311942D01*
X108584839Y-40216704D02*
X108584839Y-41550038D01*
X108108648Y-39454800D02*
X107632458Y-40883371D01*
X107632458Y-40883371D02*
X108870553Y-40883371D01*
X109632458Y-41550038D02*
X109632458Y-39550038D01*
X109632458Y-39550038D02*
X110299125Y-40978609D01*
X110299125Y-40978609D02*
X110965791Y-39550038D01*
X110965791Y-39550038D02*
X110965791Y-41550038D01*
X113441982Y-41550038D02*
X113441982Y-39550038D01*
X114299125Y-41550038D02*
X114299125Y-40502419D01*
X114299125Y-40502419D02*
X114203887Y-40311942D01*
X114203887Y-40311942D02*
X114013411Y-40216704D01*
X114013411Y-40216704D02*
X113727696Y-40216704D01*
X113727696Y-40216704D02*
X113537220Y-40311942D01*
X113537220Y-40311942D02*
X113441982Y-40407180D01*
X115251506Y-41550038D02*
X115251506Y-40216704D01*
X115251506Y-39550038D02*
X115156268Y-39645276D01*
X115156268Y-39645276D02*
X115251506Y-39740514D01*
X115251506Y-39740514D02*
X115346744Y-39645276D01*
X115346744Y-39645276D02*
X115251506Y-39550038D01*
X115251506Y-39550038D02*
X115251506Y-39740514D01*
X117061030Y-40216704D02*
X117061030Y-41835752D01*
X117061030Y-41835752D02*
X116965792Y-42026228D01*
X116965792Y-42026228D02*
X116870554Y-42121466D01*
X116870554Y-42121466D02*
X116680077Y-42216704D01*
X116680077Y-42216704D02*
X116394363Y-42216704D01*
X116394363Y-42216704D02*
X116203887Y-42121466D01*
X117061030Y-41454800D02*
X116870554Y-41550038D01*
X116870554Y-41550038D02*
X116489601Y-41550038D01*
X116489601Y-41550038D02*
X116299125Y-41454800D01*
X116299125Y-41454800D02*
X116203887Y-41359561D01*
X116203887Y-41359561D02*
X116108649Y-41169085D01*
X116108649Y-41169085D02*
X116108649Y-40597657D01*
X116108649Y-40597657D02*
X116203887Y-40407180D01*
X116203887Y-40407180D02*
X116299125Y-40311942D01*
X116299125Y-40311942D02*
X116489601Y-40216704D01*
X116489601Y-40216704D02*
X116870554Y-40216704D01*
X116870554Y-40216704D02*
X117061030Y-40311942D01*
X118013411Y-41550038D02*
X118013411Y-39550038D01*
X118870554Y-41550038D02*
X118870554Y-40502419D01*
X118870554Y-40502419D02*
X118775316Y-40311942D01*
X118775316Y-40311942D02*
X118584840Y-40216704D01*
X118584840Y-40216704D02*
X118299125Y-40216704D01*
X118299125Y-40216704D02*
X118108649Y-40311942D01*
X118108649Y-40311942D02*
X118013411Y-40407180D01*
X119822935Y-40216704D02*
X119822935Y-42216704D01*
X119822935Y-40311942D02*
X120013411Y-40216704D01*
X120013411Y-40216704D02*
X120394364Y-40216704D01*
X120394364Y-40216704D02*
X120584840Y-40311942D01*
X120584840Y-40311942D02*
X120680078Y-40407180D01*
X120680078Y-40407180D02*
X120775316Y-40597657D01*
X120775316Y-40597657D02*
X120775316Y-41169085D01*
X120775316Y-41169085D02*
X120680078Y-41359561D01*
X120680078Y-41359561D02*
X120584840Y-41454800D01*
X120584840Y-41454800D02*
X120394364Y-41550038D01*
X120394364Y-41550038D02*
X120013411Y-41550038D01*
X120013411Y-41550038D02*
X119822935Y-41454800D01*
X122489602Y-41550038D02*
X122489602Y-40502419D01*
X122489602Y-40502419D02*
X122394364Y-40311942D01*
X122394364Y-40311942D02*
X122203888Y-40216704D01*
X122203888Y-40216704D02*
X121822935Y-40216704D01*
X121822935Y-40216704D02*
X121632459Y-40311942D01*
X122489602Y-41454800D02*
X122299126Y-41550038D01*
X122299126Y-41550038D02*
X121822935Y-41550038D01*
X121822935Y-41550038D02*
X121632459Y-41454800D01*
X121632459Y-41454800D02*
X121537221Y-41264323D01*
X121537221Y-41264323D02*
X121537221Y-41073847D01*
X121537221Y-41073847D02*
X121632459Y-40883371D01*
X121632459Y-40883371D02*
X121822935Y-40788133D01*
X121822935Y-40788133D02*
X122299126Y-40788133D01*
X122299126Y-40788133D02*
X122489602Y-40692895D01*
X123346745Y-41454800D02*
X123537221Y-41550038D01*
X123537221Y-41550038D02*
X123918173Y-41550038D01*
X123918173Y-41550038D02*
X124108650Y-41454800D01*
X124108650Y-41454800D02*
X124203888Y-41264323D01*
X124203888Y-41264323D02*
X124203888Y-41169085D01*
X124203888Y-41169085D02*
X124108650Y-40978609D01*
X124108650Y-40978609D02*
X123918173Y-40883371D01*
X123918173Y-40883371D02*
X123632459Y-40883371D01*
X123632459Y-40883371D02*
X123441983Y-40788133D01*
X123441983Y-40788133D02*
X123346745Y-40597657D01*
X123346745Y-40597657D02*
X123346745Y-40502419D01*
X123346745Y-40502419D02*
X123441983Y-40311942D01*
X123441983Y-40311942D02*
X123632459Y-40216704D01*
X123632459Y-40216704D02*
X123918173Y-40216704D01*
X123918173Y-40216704D02*
X124108650Y-40311942D01*
X124965793Y-41454800D02*
X125156269Y-41550038D01*
X125156269Y-41550038D02*
X125537221Y-41550038D01*
X125537221Y-41550038D02*
X125727698Y-41454800D01*
X125727698Y-41454800D02*
X125822936Y-41264323D01*
X125822936Y-41264323D02*
X125822936Y-41169085D01*
X125822936Y-41169085D02*
X125727698Y-40978609D01*
X125727698Y-40978609D02*
X125537221Y-40883371D01*
X125537221Y-40883371D02*
X125251507Y-40883371D01*
X125251507Y-40883371D02*
X125061031Y-40788133D01*
X125061031Y-40788133D02*
X124965793Y-40597657D01*
X124965793Y-40597657D02*
X124965793Y-40502419D01*
X124965793Y-40502419D02*
X125061031Y-40311942D01*
X125061031Y-40311942D02*
X125251507Y-40216704D01*
X125251507Y-40216704D02*
X125537221Y-40216704D01*
X125537221Y-40216704D02*
X125727698Y-40311942D01*
X127918175Y-40216704D02*
X128680079Y-40216704D01*
X128203889Y-41550038D02*
X128203889Y-39835752D01*
X128203889Y-39835752D02*
X128299127Y-39645276D01*
X128299127Y-39645276D02*
X128489603Y-39550038D01*
X128489603Y-39550038D02*
X128680079Y-39550038D01*
X129346746Y-41550038D02*
X129346746Y-40216704D01*
X129346746Y-39550038D02*
X129251508Y-39645276D01*
X129251508Y-39645276D02*
X129346746Y-39740514D01*
X129346746Y-39740514D02*
X129441984Y-39645276D01*
X129441984Y-39645276D02*
X129346746Y-39550038D01*
X129346746Y-39550038D02*
X129346746Y-39740514D01*
X130584841Y-41550038D02*
X130394365Y-41454800D01*
X130394365Y-41454800D02*
X130299127Y-41264323D01*
X130299127Y-41264323D02*
X130299127Y-39550038D01*
X131061032Y-40216704D02*
X131822936Y-40216704D01*
X131346746Y-39550038D02*
X131346746Y-41264323D01*
X131346746Y-41264323D02*
X131441984Y-41454800D01*
X131441984Y-41454800D02*
X131632460Y-41550038D01*
X131632460Y-41550038D02*
X131822936Y-41550038D01*
X133251508Y-41454800D02*
X133061032Y-41550038D01*
X133061032Y-41550038D02*
X132680079Y-41550038D01*
X132680079Y-41550038D02*
X132489603Y-41454800D01*
X132489603Y-41454800D02*
X132394365Y-41264323D01*
X132394365Y-41264323D02*
X132394365Y-40502419D01*
X132394365Y-40502419D02*
X132489603Y-40311942D01*
X132489603Y-40311942D02*
X132680079Y-40216704D01*
X132680079Y-40216704D02*
X133061032Y-40216704D01*
X133061032Y-40216704D02*
X133251508Y-40311942D01*
X133251508Y-40311942D02*
X133346746Y-40502419D01*
X133346746Y-40502419D02*
X133346746Y-40692895D01*
X133346746Y-40692895D02*
X132394365Y-40883371D01*
X134203889Y-41550038D02*
X134203889Y-40216704D01*
X134203889Y-40597657D02*
X134299127Y-40407180D01*
X134299127Y-40407180D02*
X134394365Y-40311942D01*
X134394365Y-40311942D02*
X134584841Y-40216704D01*
X134584841Y-40216704D02*
X134775318Y-40216704D01*
X135441984Y-41359561D02*
X135537222Y-41454800D01*
X135537222Y-41454800D02*
X135441984Y-41550038D01*
X135441984Y-41550038D02*
X135346746Y-41454800D01*
X135346746Y-41454800D02*
X135441984Y-41359561D01*
X135441984Y-41359561D02*
X135441984Y-41550038D01*
X106989598Y-84350038D02*
X105846741Y-84350038D01*
X106418169Y-84350038D02*
X106418169Y-82350038D01*
X106418169Y-82350038D02*
X106227693Y-82635752D01*
X106227693Y-82635752D02*
X106037217Y-82826228D01*
X106037217Y-82826228D02*
X105846741Y-82921466D01*
X108799122Y-82350038D02*
X107846741Y-82350038D01*
X107846741Y-82350038D02*
X107751503Y-83302419D01*
X107751503Y-83302419D02*
X107846741Y-83207180D01*
X107846741Y-83207180D02*
X108037217Y-83111942D01*
X108037217Y-83111942D02*
X108513408Y-83111942D01*
X108513408Y-83111942D02*
X108703884Y-83207180D01*
X108703884Y-83207180D02*
X108799122Y-83302419D01*
X108799122Y-83302419D02*
X108894360Y-83492895D01*
X108894360Y-83492895D02*
X108894360Y-83969085D01*
X108894360Y-83969085D02*
X108799122Y-84159561D01*
X108799122Y-84159561D02*
X108703884Y-84254800D01*
X108703884Y-84254800D02*
X108513408Y-84350038D01*
X108513408Y-84350038D02*
X108037217Y-84350038D01*
X108037217Y-84350038D02*
X107846741Y-84254800D01*
X107846741Y-84254800D02*
X107751503Y-84159561D01*
X109751503Y-84350038D02*
X109751503Y-82350038D01*
X109751503Y-82350038D02*
X110418170Y-83778609D01*
X110418170Y-83778609D02*
X111084836Y-82350038D01*
X111084836Y-82350038D02*
X111084836Y-84350038D01*
X112037217Y-84350038D02*
X112037217Y-82350038D01*
X112037217Y-82350038D02*
X112703884Y-83778609D01*
X112703884Y-83778609D02*
X113370550Y-82350038D01*
X113370550Y-82350038D02*
X113370550Y-84350038D01*
X115561027Y-82350038D02*
X116703884Y-82350038D01*
X116132455Y-84350038D02*
X116132455Y-82350038D01*
X117275313Y-83778609D02*
X118227694Y-83778609D01*
X117084837Y-84350038D02*
X117751503Y-82350038D01*
X117751503Y-82350038D02*
X118418170Y-84350038D01*
X120037218Y-84350038D02*
X119084837Y-84350038D01*
X119084837Y-84350038D02*
X119084837Y-82350038D01*
X121656266Y-84350038D02*
X120703885Y-84350038D01*
X120703885Y-84350038D02*
X120703885Y-82350038D01*
X99989598Y-44550038D02*
X98846741Y-44550038D01*
X99418169Y-44550038D02*
X99418169Y-42550038D01*
X99418169Y-42550038D02*
X99227693Y-42835752D01*
X99227693Y-42835752D02*
X99037217Y-43026228D01*
X99037217Y-43026228D02*
X98846741Y-43121466D01*
X101227693Y-42550038D02*
X101418170Y-42550038D01*
X101418170Y-42550038D02*
X101608646Y-42645276D01*
X101608646Y-42645276D02*
X101703884Y-42740514D01*
X101703884Y-42740514D02*
X101799122Y-42930990D01*
X101799122Y-42930990D02*
X101894360Y-43311942D01*
X101894360Y-43311942D02*
X101894360Y-43788133D01*
X101894360Y-43788133D02*
X101799122Y-44169085D01*
X101799122Y-44169085D02*
X101703884Y-44359561D01*
X101703884Y-44359561D02*
X101608646Y-44454800D01*
X101608646Y-44454800D02*
X101418170Y-44550038D01*
X101418170Y-44550038D02*
X101227693Y-44550038D01*
X101227693Y-44550038D02*
X101037217Y-44454800D01*
X101037217Y-44454800D02*
X100941979Y-44359561D01*
X100941979Y-44359561D02*
X100846741Y-44169085D01*
X100846741Y-44169085D02*
X100751503Y-43788133D01*
X100751503Y-43788133D02*
X100751503Y-43311942D01*
X100751503Y-43311942D02*
X100846741Y-42930990D01*
X100846741Y-42930990D02*
X100941979Y-42740514D01*
X100941979Y-42740514D02*
X101037217Y-42645276D01*
X101037217Y-42645276D02*
X101227693Y-42550038D01*
X103132455Y-42550038D02*
X103322932Y-42550038D01*
X103322932Y-42550038D02*
X103513408Y-42645276D01*
X103513408Y-42645276D02*
X103608646Y-42740514D01*
X103608646Y-42740514D02*
X103703884Y-42930990D01*
X103703884Y-42930990D02*
X103799122Y-43311942D01*
X103799122Y-43311942D02*
X103799122Y-43788133D01*
X103799122Y-43788133D02*
X103703884Y-44169085D01*
X103703884Y-44169085D02*
X103608646Y-44359561D01*
X103608646Y-44359561D02*
X103513408Y-44454800D01*
X103513408Y-44454800D02*
X103322932Y-44550038D01*
X103322932Y-44550038D02*
X103132455Y-44550038D01*
X103132455Y-44550038D02*
X102941979Y-44454800D01*
X102941979Y-44454800D02*
X102846741Y-44359561D01*
X102846741Y-44359561D02*
X102751503Y-44169085D01*
X102751503Y-44169085D02*
X102656265Y-43788133D01*
X102656265Y-43788133D02*
X102656265Y-43311942D01*
X102656265Y-43311942D02*
X102751503Y-42930990D01*
X102751503Y-42930990D02*
X102846741Y-42740514D01*
X102846741Y-42740514D02*
X102941979Y-42645276D01*
X102941979Y-42645276D02*
X103132455Y-42550038D01*
X104465789Y-42550038D02*
X104941979Y-44550038D01*
X104941979Y-44550038D02*
X105322932Y-43121466D01*
X105322932Y-43121466D02*
X105703884Y-44550038D01*
X105703884Y-44550038D02*
X106180075Y-42550038D01*
X108465789Y-44550038D02*
X108465789Y-42550038D01*
X108465789Y-42550038D02*
X109132456Y-43978609D01*
X109132456Y-43978609D02*
X109799122Y-42550038D01*
X109799122Y-42550038D02*
X109799122Y-44550038D01*
X110656265Y-43978609D02*
X111608646Y-43978609D01*
X110465789Y-44550038D02*
X111132455Y-42550038D01*
X111132455Y-42550038D02*
X111799122Y-44550038D01*
X112275313Y-42550038D02*
X113608646Y-44550038D01*
X113608646Y-42550038D02*
X112275313Y-44550038D01*
X114370551Y-44359561D02*
X114465789Y-44454800D01*
X114465789Y-44454800D02*
X114370551Y-44550038D01*
X114370551Y-44550038D02*
X114275313Y-44454800D01*
X114275313Y-44454800D02*
X114370551Y-44359561D01*
X114370551Y-44359561D02*
X114370551Y-44550038D01*
X114370551Y-43788133D02*
X114275313Y-42645276D01*
X114275313Y-42645276D02*
X114370551Y-42550038D01*
X114370551Y-42550038D02*
X114465789Y-42645276D01*
X114465789Y-42645276D02*
X114370551Y-43788133D01*
X114370551Y-43788133D02*
X114370551Y-42550038D01*
X149989598Y-84350038D02*
X148846741Y-84350038D01*
X149418169Y-84350038D02*
X149418169Y-82350038D01*
X149418169Y-82350038D02*
X149227693Y-82635752D01*
X149227693Y-82635752D02*
X149037217Y-82826228D01*
X149037217Y-82826228D02*
X148846741Y-82921466D01*
X150846741Y-84159561D02*
X150941979Y-84254800D01*
X150941979Y-84254800D02*
X150846741Y-84350038D01*
X150846741Y-84350038D02*
X150751503Y-84254800D01*
X150751503Y-84254800D02*
X150846741Y-84159561D01*
X150846741Y-84159561D02*
X150846741Y-84350038D01*
X152751503Y-82350038D02*
X151799122Y-82350038D01*
X151799122Y-82350038D02*
X151703884Y-83302419D01*
X151703884Y-83302419D02*
X151799122Y-83207180D01*
X151799122Y-83207180D02*
X151989598Y-83111942D01*
X151989598Y-83111942D02*
X152465789Y-83111942D01*
X152465789Y-83111942D02*
X152656265Y-83207180D01*
X152656265Y-83207180D02*
X152751503Y-83302419D01*
X152751503Y-83302419D02*
X152846741Y-83492895D01*
X152846741Y-83492895D02*
X152846741Y-83969085D01*
X152846741Y-83969085D02*
X152751503Y-84159561D01*
X152751503Y-84159561D02*
X152656265Y-84254800D01*
X152656265Y-84254800D02*
X152465789Y-84350038D01*
X152465789Y-84350038D02*
X151989598Y-84350038D01*
X151989598Y-84350038D02*
X151799122Y-84254800D01*
X151799122Y-84254800D02*
X151703884Y-84159561D01*
X153703884Y-84350038D02*
X153703884Y-82350038D01*
X153703884Y-82350038D02*
X154370551Y-83778609D01*
X154370551Y-83778609D02*
X155037217Y-82350038D01*
X155037217Y-82350038D02*
X155037217Y-84350038D01*
X155989598Y-84350038D02*
X155989598Y-82350038D01*
X155989598Y-82350038D02*
X156656265Y-83778609D01*
X156656265Y-83778609D02*
X157322931Y-82350038D01*
X157322931Y-82350038D02*
X157322931Y-84350038D01*
X159513408Y-82350038D02*
X160656265Y-82350038D01*
X160084836Y-84350038D02*
X160084836Y-82350038D01*
X161322932Y-84350038D02*
X161322932Y-82350038D01*
X161322932Y-83302419D02*
X162465789Y-83302419D01*
X162465789Y-84350038D02*
X162465789Y-82350038D01*
X163418170Y-84350038D02*
X163418170Y-82350038D01*
X165513408Y-84159561D02*
X165418170Y-84254800D01*
X165418170Y-84254800D02*
X165132456Y-84350038D01*
X165132456Y-84350038D02*
X164941980Y-84350038D01*
X164941980Y-84350038D02*
X164656265Y-84254800D01*
X164656265Y-84254800D02*
X164465789Y-84064323D01*
X164465789Y-84064323D02*
X164370551Y-83873847D01*
X164370551Y-83873847D02*
X164275313Y-83492895D01*
X164275313Y-83492895D02*
X164275313Y-83207180D01*
X164275313Y-83207180D02*
X164370551Y-82826228D01*
X164370551Y-82826228D02*
X164465789Y-82635752D01*
X164465789Y-82635752D02*
X164656265Y-82445276D01*
X164656265Y-82445276D02*
X164941980Y-82350038D01*
X164941980Y-82350038D02*
X165132456Y-82350038D01*
X165132456Y-82350038D02*
X165418170Y-82445276D01*
X165418170Y-82445276D02*
X165513408Y-82540514D01*
X166370551Y-84350038D02*
X166370551Y-82350038D01*
X167513408Y-84350038D02*
X166656265Y-83207180D01*
X167513408Y-82350038D02*
X166370551Y-83492895D01*
X54084836Y-84159561D02*
X53989598Y-84254800D01*
X53989598Y-84254800D02*
X53703884Y-84350038D01*
X53703884Y-84350038D02*
X53513408Y-84350038D01*
X53513408Y-84350038D02*
X53227693Y-84254800D01*
X53227693Y-84254800D02*
X53037217Y-84064323D01*
X53037217Y-84064323D02*
X52941979Y-83873847D01*
X52941979Y-83873847D02*
X52846741Y-83492895D01*
X52846741Y-83492895D02*
X52846741Y-83207180D01*
X52846741Y-83207180D02*
X52941979Y-82826228D01*
X52941979Y-82826228D02*
X53037217Y-82635752D01*
X53037217Y-82635752D02*
X53227693Y-82445276D01*
X53227693Y-82445276D02*
X53513408Y-82350038D01*
X53513408Y-82350038D02*
X53703884Y-82350038D01*
X53703884Y-82350038D02*
X53989598Y-82445276D01*
X53989598Y-82445276D02*
X54084836Y-82540514D01*
X55322931Y-82350038D02*
X55703884Y-82350038D01*
X55703884Y-82350038D02*
X55894360Y-82445276D01*
X55894360Y-82445276D02*
X56084836Y-82635752D01*
X56084836Y-82635752D02*
X56180074Y-83016704D01*
X56180074Y-83016704D02*
X56180074Y-83683371D01*
X56180074Y-83683371D02*
X56084836Y-84064323D01*
X56084836Y-84064323D02*
X55894360Y-84254800D01*
X55894360Y-84254800D02*
X55703884Y-84350038D01*
X55703884Y-84350038D02*
X55322931Y-84350038D01*
X55322931Y-84350038D02*
X55132455Y-84254800D01*
X55132455Y-84254800D02*
X54941979Y-84064323D01*
X54941979Y-84064323D02*
X54846741Y-83683371D01*
X54846741Y-83683371D02*
X54846741Y-83016704D01*
X54846741Y-83016704D02*
X54941979Y-82635752D01*
X54941979Y-82635752D02*
X55132455Y-82445276D01*
X55132455Y-82445276D02*
X55322931Y-82350038D01*
X57037217Y-84350038D02*
X57037217Y-82350038D01*
X57037217Y-82350038D02*
X57799122Y-82350038D01*
X57799122Y-82350038D02*
X57989598Y-82445276D01*
X57989598Y-82445276D02*
X58084836Y-82540514D01*
X58084836Y-82540514D02*
X58180074Y-82730990D01*
X58180074Y-82730990D02*
X58180074Y-83016704D01*
X58180074Y-83016704D02*
X58084836Y-83207180D01*
X58084836Y-83207180D02*
X57989598Y-83302419D01*
X57989598Y-83302419D02*
X57799122Y-83397657D01*
X57799122Y-83397657D02*
X57037217Y-83397657D01*
X59037217Y-84350038D02*
X59037217Y-82350038D01*
X59037217Y-82350038D02*
X59799122Y-82350038D01*
X59799122Y-82350038D02*
X59989598Y-82445276D01*
X59989598Y-82445276D02*
X60084836Y-82540514D01*
X60084836Y-82540514D02*
X60180074Y-82730990D01*
X60180074Y-82730990D02*
X60180074Y-83016704D01*
X60180074Y-83016704D02*
X60084836Y-83207180D01*
X60084836Y-83207180D02*
X59989598Y-83302419D01*
X59989598Y-83302419D02*
X59799122Y-83397657D01*
X59799122Y-83397657D02*
X59037217Y-83397657D01*
X61037217Y-83302419D02*
X61703884Y-83302419D01*
X61989598Y-84350038D02*
X61037217Y-84350038D01*
X61037217Y-84350038D02*
X61037217Y-82350038D01*
X61037217Y-82350038D02*
X61989598Y-82350038D01*
X63989598Y-84350038D02*
X63322931Y-83397657D01*
X62846741Y-84350038D02*
X62846741Y-82350038D01*
X62846741Y-82350038D02*
X63608646Y-82350038D01*
X63608646Y-82350038D02*
X63799122Y-82445276D01*
X63799122Y-82445276D02*
X63894360Y-82540514D01*
X63894360Y-82540514D02*
X63989598Y-82730990D01*
X63989598Y-82730990D02*
X63989598Y-83016704D01*
X63989598Y-83016704D02*
X63894360Y-83207180D01*
X63894360Y-83207180D02*
X63799122Y-83302419D01*
X63799122Y-83302419D02*
X63608646Y-83397657D01*
X63608646Y-83397657D02*
X62846741Y-83397657D01*
X66275313Y-84254800D02*
X66561027Y-84350038D01*
X66561027Y-84350038D02*
X67037218Y-84350038D01*
X67037218Y-84350038D02*
X67227694Y-84254800D01*
X67227694Y-84254800D02*
X67322932Y-84159561D01*
X67322932Y-84159561D02*
X67418170Y-83969085D01*
X67418170Y-83969085D02*
X67418170Y-83778609D01*
X67418170Y-83778609D02*
X67322932Y-83588133D01*
X67322932Y-83588133D02*
X67227694Y-83492895D01*
X67227694Y-83492895D02*
X67037218Y-83397657D01*
X67037218Y-83397657D02*
X66656265Y-83302419D01*
X66656265Y-83302419D02*
X66465789Y-83207180D01*
X66465789Y-83207180D02*
X66370551Y-83111942D01*
X66370551Y-83111942D02*
X66275313Y-82921466D01*
X66275313Y-82921466D02*
X66275313Y-82730990D01*
X66275313Y-82730990D02*
X66370551Y-82540514D01*
X66370551Y-82540514D02*
X66465789Y-82445276D01*
X66465789Y-82445276D02*
X66656265Y-82350038D01*
X66656265Y-82350038D02*
X67132456Y-82350038D01*
X67132456Y-82350038D02*
X67418170Y-82445276D01*
X68275313Y-84350038D02*
X68275313Y-82350038D01*
X68275313Y-83302419D02*
X69418170Y-83302419D01*
X69418170Y-84350038D02*
X69418170Y-82350038D01*
X70370551Y-83302419D02*
X71037218Y-83302419D01*
X71322932Y-84350038D02*
X70370551Y-84350038D01*
X70370551Y-84350038D02*
X70370551Y-82350038D01*
X70370551Y-82350038D02*
X71322932Y-82350038D01*
X72084837Y-83778609D02*
X73037218Y-83778609D01*
X71894361Y-84350038D02*
X72561027Y-82350038D01*
X72561027Y-82350038D02*
X73227694Y-84350038D01*
X73608647Y-82350038D02*
X74751504Y-82350038D01*
X74180075Y-84350038D02*
X74180075Y-82350038D01*
X76846743Y-83778609D02*
X77799124Y-83778609D01*
X76656267Y-84350038D02*
X77322933Y-82350038D01*
X77322933Y-82350038D02*
X77989600Y-84350038D01*
X78561029Y-84254800D02*
X78846743Y-84350038D01*
X78846743Y-84350038D02*
X79322934Y-84350038D01*
X79322934Y-84350038D02*
X79513410Y-84254800D01*
X79513410Y-84254800D02*
X79608648Y-84159561D01*
X79608648Y-84159561D02*
X79703886Y-83969085D01*
X79703886Y-83969085D02*
X79703886Y-83778609D01*
X79703886Y-83778609D02*
X79608648Y-83588133D01*
X79608648Y-83588133D02*
X79513410Y-83492895D01*
X79513410Y-83492895D02*
X79322934Y-83397657D01*
X79322934Y-83397657D02*
X78941981Y-83302419D01*
X78941981Y-83302419D02*
X78751505Y-83207180D01*
X78751505Y-83207180D02*
X78656267Y-83111942D01*
X78656267Y-83111942D02*
X78561029Y-82921466D01*
X78561029Y-82921466D02*
X78561029Y-82730990D01*
X78561029Y-82730990D02*
X78656267Y-82540514D01*
X78656267Y-82540514D02*
X78751505Y-82445276D01*
X78751505Y-82445276D02*
X78941981Y-82350038D01*
X78941981Y-82350038D02*
X79418172Y-82350038D01*
X79418172Y-82350038D02*
X79703886Y-82445276D01*
X81989601Y-84254800D02*
X82275315Y-84350038D01*
X82275315Y-84350038D02*
X82751506Y-84350038D01*
X82751506Y-84350038D02*
X82941982Y-84254800D01*
X82941982Y-84254800D02*
X83037220Y-84159561D01*
X83037220Y-84159561D02*
X83132458Y-83969085D01*
X83132458Y-83969085D02*
X83132458Y-83778609D01*
X83132458Y-83778609D02*
X83037220Y-83588133D01*
X83037220Y-83588133D02*
X82941982Y-83492895D01*
X82941982Y-83492895D02*
X82751506Y-83397657D01*
X82751506Y-83397657D02*
X82370553Y-83302419D01*
X82370553Y-83302419D02*
X82180077Y-83207180D01*
X82180077Y-83207180D02*
X82084839Y-83111942D01*
X82084839Y-83111942D02*
X81989601Y-82921466D01*
X81989601Y-82921466D02*
X81989601Y-82730990D01*
X81989601Y-82730990D02*
X82084839Y-82540514D01*
X82084839Y-82540514D02*
X82180077Y-82445276D01*
X82180077Y-82445276D02*
X82370553Y-82350038D01*
X82370553Y-82350038D02*
X82846744Y-82350038D01*
X82846744Y-82350038D02*
X83132458Y-82445276D01*
X83989601Y-84350038D02*
X83989601Y-82350038D01*
X83989601Y-83302419D02*
X85132458Y-83302419D01*
X85132458Y-84350038D02*
X85132458Y-82350038D01*
X86084839Y-84350038D02*
X86084839Y-82350038D01*
X87037220Y-83302419D02*
X87703887Y-83302419D01*
X87989601Y-84350038D02*
X87037220Y-84350038D01*
X87037220Y-84350038D02*
X87037220Y-82350038D01*
X87037220Y-82350038D02*
X87989601Y-82350038D01*
X89799125Y-84350038D02*
X88846744Y-84350038D01*
X88846744Y-84350038D02*
X88846744Y-82350038D01*
X90465792Y-84350038D02*
X90465792Y-82350038D01*
X90465792Y-82350038D02*
X90941982Y-82350038D01*
X90941982Y-82350038D02*
X91227697Y-82445276D01*
X91227697Y-82445276D02*
X91418173Y-82635752D01*
X91418173Y-82635752D02*
X91513411Y-82826228D01*
X91513411Y-82826228D02*
X91608649Y-83207180D01*
X91608649Y-83207180D02*
X91608649Y-83492895D01*
X91608649Y-83492895D02*
X91513411Y-83873847D01*
X91513411Y-83873847D02*
X91418173Y-84064323D01*
X91418173Y-84064323D02*
X91227697Y-84254800D01*
X91227697Y-84254800D02*
X90941982Y-84350038D01*
X90941982Y-84350038D02*
X90465792Y-84350038D01*
D11*
X33689160Y-64847438D02*
X34832017Y-64847438D01*
X34260588Y-66847438D02*
X34260588Y-64847438D01*
X35879636Y-64847438D02*
X36260589Y-64847438D01*
X36260589Y-64847438D02*
X36451065Y-64942676D01*
X36451065Y-64942676D02*
X36641541Y-65133152D01*
X36641541Y-65133152D02*
X36736779Y-65514104D01*
X36736779Y-65514104D02*
X36736779Y-66180771D01*
X36736779Y-66180771D02*
X36641541Y-66561723D01*
X36641541Y-66561723D02*
X36451065Y-66752200D01*
X36451065Y-66752200D02*
X36260589Y-66847438D01*
X36260589Y-66847438D02*
X35879636Y-66847438D01*
X35879636Y-66847438D02*
X35689160Y-66752200D01*
X35689160Y-66752200D02*
X35498684Y-66561723D01*
X35498684Y-66561723D02*
X35403446Y-66180771D01*
X35403446Y-66180771D02*
X35403446Y-65514104D01*
X35403446Y-65514104D02*
X35498684Y-65133152D01*
X35498684Y-65133152D02*
X35689160Y-64942676D01*
X35689160Y-64942676D02*
X35879636Y-64847438D01*
X40260589Y-66847438D02*
X39593922Y-65895057D01*
X39117732Y-66847438D02*
X39117732Y-64847438D01*
X39117732Y-64847438D02*
X39879637Y-64847438D01*
X39879637Y-64847438D02*
X40070113Y-64942676D01*
X40070113Y-64942676D02*
X40165351Y-65037914D01*
X40165351Y-65037914D02*
X40260589Y-65228390D01*
X40260589Y-65228390D02*
X40260589Y-65514104D01*
X40260589Y-65514104D02*
X40165351Y-65704580D01*
X40165351Y-65704580D02*
X40070113Y-65799819D01*
X40070113Y-65799819D02*
X39879637Y-65895057D01*
X39879637Y-65895057D02*
X39117732Y-65895057D01*
X41117732Y-66847438D02*
X41117732Y-64847438D01*
X43117732Y-64942676D02*
X42927256Y-64847438D01*
X42927256Y-64847438D02*
X42641542Y-64847438D01*
X42641542Y-64847438D02*
X42355827Y-64942676D01*
X42355827Y-64942676D02*
X42165351Y-65133152D01*
X42165351Y-65133152D02*
X42070113Y-65323628D01*
X42070113Y-65323628D02*
X41974875Y-65704580D01*
X41974875Y-65704580D02*
X41974875Y-65990295D01*
X41974875Y-65990295D02*
X42070113Y-66371247D01*
X42070113Y-66371247D02*
X42165351Y-66561723D01*
X42165351Y-66561723D02*
X42355827Y-66752200D01*
X42355827Y-66752200D02*
X42641542Y-66847438D01*
X42641542Y-66847438D02*
X42832018Y-66847438D01*
X42832018Y-66847438D02*
X43117732Y-66752200D01*
X43117732Y-66752200D02*
X43212970Y-66656961D01*
X43212970Y-66656961D02*
X43212970Y-65990295D01*
X43212970Y-65990295D02*
X42832018Y-65990295D01*
D10*
X166041979Y-88750038D02*
X166041979Y-86750038D01*
X166041979Y-87702419D02*
X167184836Y-87702419D01*
X167184836Y-88750038D02*
X167184836Y-86750038D01*
X168803884Y-87702419D02*
X168137217Y-87702419D01*
X168137217Y-88750038D02*
X168137217Y-86750038D01*
X168137217Y-86750038D02*
X169089598Y-86750038D01*
X169851503Y-87988133D02*
X171375313Y-87988133D01*
X170613408Y-88750038D02*
X170613408Y-87226228D01*
X173184836Y-86750038D02*
X172803883Y-86750038D01*
X172803883Y-86750038D02*
X172613407Y-86845276D01*
X172613407Y-86845276D02*
X172518169Y-86940514D01*
X172518169Y-86940514D02*
X172327693Y-87226228D01*
X172327693Y-87226228D02*
X172232455Y-87607180D01*
X172232455Y-87607180D02*
X172232455Y-88369085D01*
X172232455Y-88369085D02*
X172327693Y-88559561D01*
X172327693Y-88559561D02*
X172422931Y-88654800D01*
X172422931Y-88654800D02*
X172613407Y-88750038D01*
X172613407Y-88750038D02*
X172994360Y-88750038D01*
X172994360Y-88750038D02*
X173184836Y-88654800D01*
X173184836Y-88654800D02*
X173280074Y-88559561D01*
X173280074Y-88559561D02*
X173375312Y-88369085D01*
X173375312Y-88369085D02*
X173375312Y-87892895D01*
X173375312Y-87892895D02*
X173280074Y-87702419D01*
X173280074Y-87702419D02*
X173184836Y-87607180D01*
X173184836Y-87607180D02*
X172994360Y-87511942D01*
X172994360Y-87511942D02*
X172613407Y-87511942D01*
X172613407Y-87511942D02*
X172422931Y-87607180D01*
X172422931Y-87607180D02*
X172327693Y-87702419D01*
X172327693Y-87702419D02*
X172232455Y-87892895D01*
X174232455Y-88750038D02*
X174232455Y-86750038D01*
X174232455Y-86750038D02*
X174899122Y-88178609D01*
X174899122Y-88178609D02*
X175565788Y-86750038D01*
X175565788Y-86750038D02*
X175565788Y-88750038D01*
X170399122Y-57416704D02*
X170399122Y-58750038D01*
X169922931Y-56654800D02*
X169446741Y-58083371D01*
X169446741Y-58083371D02*
X170684836Y-58083371D01*
X171446741Y-58750038D02*
X171446741Y-56750038D01*
X171446741Y-56750038D02*
X172113408Y-58178609D01*
X172113408Y-58178609D02*
X172780074Y-56750038D01*
X172780074Y-56750038D02*
X172780074Y-58750038D01*
D12*
X92729519Y-99342092D02*
X92748267Y-99360840D01*
X92748267Y-99360840D02*
X92767014Y-99417083D01*
X92767014Y-99417083D02*
X92767014Y-99454578D01*
X92767014Y-99454578D02*
X92748267Y-99510821D01*
X92748267Y-99510821D02*
X92710771Y-99548317D01*
X92710771Y-99548317D02*
X92673276Y-99567064D01*
X92673276Y-99567064D02*
X92598285Y-99585812D01*
X92598285Y-99585812D02*
X92542042Y-99585812D01*
X92542042Y-99585812D02*
X92467052Y-99567064D01*
X92467052Y-99567064D02*
X92429556Y-99548317D01*
X92429556Y-99548317D02*
X92392061Y-99510821D01*
X92392061Y-99510821D02*
X92373313Y-99454578D01*
X92373313Y-99454578D02*
X92373313Y-99417083D01*
X92373313Y-99417083D02*
X92392061Y-99360840D01*
X92392061Y-99360840D02*
X92410809Y-99342092D01*
X92767014Y-98967139D02*
X92767014Y-99192111D01*
X92767014Y-99079625D02*
X92373313Y-99079625D01*
X92373313Y-99079625D02*
X92429556Y-99117120D01*
X92429556Y-99117120D02*
X92467052Y-99154616D01*
X92467052Y-99154616D02*
X92485799Y-99192111D01*
X92373313Y-98835906D02*
X92373313Y-98573438D01*
X92373313Y-98573438D02*
X92767014Y-98742167D01*
D11*
X51444642Y-98454819D02*
X50968452Y-98454819D01*
X50968452Y-98454819D02*
X50968452Y-97454819D01*
X52301785Y-98454819D02*
X51730357Y-98454819D01*
X52016071Y-98454819D02*
X52016071Y-97454819D01*
X52016071Y-97454819D02*
X51920833Y-97597676D01*
X51920833Y-97597676D02*
X51825595Y-97692914D01*
X51825595Y-97692914D02*
X51730357Y-97740533D01*
X52920833Y-97454819D02*
X53016071Y-97454819D01*
X53016071Y-97454819D02*
X53111309Y-97502438D01*
X53111309Y-97502438D02*
X53158928Y-97550057D01*
X53158928Y-97550057D02*
X53206547Y-97645295D01*
X53206547Y-97645295D02*
X53254166Y-97835771D01*
X53254166Y-97835771D02*
X53254166Y-98073866D01*
X53254166Y-98073866D02*
X53206547Y-98264342D01*
X53206547Y-98264342D02*
X53158928Y-98359580D01*
X53158928Y-98359580D02*
X53111309Y-98407200D01*
X53111309Y-98407200D02*
X53016071Y-98454819D01*
X53016071Y-98454819D02*
X52920833Y-98454819D01*
X52920833Y-98454819D02*
X52825595Y-98407200D01*
X52825595Y-98407200D02*
X52777976Y-98359580D01*
X52777976Y-98359580D02*
X52730357Y-98264342D01*
X52730357Y-98264342D02*
X52682738Y-98073866D01*
X52682738Y-98073866D02*
X52682738Y-97835771D01*
X52682738Y-97835771D02*
X52730357Y-97645295D01*
X52730357Y-97645295D02*
X52777976Y-97550057D01*
X52777976Y-97550057D02*
X52825595Y-97502438D01*
X52825595Y-97502438D02*
X52920833Y-97454819D01*
D12*
X62649519Y-101954616D02*
X62668267Y-101973364D01*
X62668267Y-101973364D02*
X62687014Y-102029607D01*
X62687014Y-102029607D02*
X62687014Y-102067102D01*
X62687014Y-102067102D02*
X62668267Y-102123345D01*
X62668267Y-102123345D02*
X62630771Y-102160841D01*
X62630771Y-102160841D02*
X62593276Y-102179588D01*
X62593276Y-102179588D02*
X62518285Y-102198336D01*
X62518285Y-102198336D02*
X62462042Y-102198336D01*
X62462042Y-102198336D02*
X62387052Y-102179588D01*
X62387052Y-102179588D02*
X62349556Y-102160841D01*
X62349556Y-102160841D02*
X62312061Y-102123345D01*
X62312061Y-102123345D02*
X62293313Y-102067102D01*
X62293313Y-102067102D02*
X62293313Y-102029607D01*
X62293313Y-102029607D02*
X62312061Y-101973364D01*
X62312061Y-101973364D02*
X62330809Y-101954616D01*
X62293313Y-101617158D02*
X62293313Y-101692149D01*
X62293313Y-101692149D02*
X62312061Y-101729644D01*
X62312061Y-101729644D02*
X62330809Y-101748392D01*
X62330809Y-101748392D02*
X62387052Y-101785887D01*
X62387052Y-101785887D02*
X62462042Y-101804635D01*
X62462042Y-101804635D02*
X62612024Y-101804635D01*
X62612024Y-101804635D02*
X62649519Y-101785887D01*
X62649519Y-101785887D02*
X62668267Y-101767140D01*
X62668267Y-101767140D02*
X62687014Y-101729644D01*
X62687014Y-101729644D02*
X62687014Y-101654654D01*
X62687014Y-101654654D02*
X62668267Y-101617158D01*
X62668267Y-101617158D02*
X62649519Y-101598411D01*
X62649519Y-101598411D02*
X62612024Y-101579663D01*
X62612024Y-101579663D02*
X62518285Y-101579663D01*
X62518285Y-101579663D02*
X62480790Y-101598411D01*
X62480790Y-101598411D02*
X62462042Y-101617158D01*
X62462042Y-101617158D02*
X62443295Y-101654654D01*
X62443295Y-101654654D02*
X62443295Y-101729644D01*
X62443295Y-101729644D02*
X62462042Y-101767140D01*
X62462042Y-101767140D02*
X62480790Y-101785887D01*
X62480790Y-101785887D02*
X62518285Y-101804635D01*
X127254519Y-67253092D02*
X127273267Y-67271840D01*
X127273267Y-67271840D02*
X127292014Y-67328083D01*
X127292014Y-67328083D02*
X127292014Y-67365578D01*
X127292014Y-67365578D02*
X127273267Y-67421821D01*
X127273267Y-67421821D02*
X127235771Y-67459317D01*
X127235771Y-67459317D02*
X127198276Y-67478064D01*
X127198276Y-67478064D02*
X127123285Y-67496812D01*
X127123285Y-67496812D02*
X127067042Y-67496812D01*
X127067042Y-67496812D02*
X126992052Y-67478064D01*
X126992052Y-67478064D02*
X126954556Y-67459317D01*
X126954556Y-67459317D02*
X126917061Y-67421821D01*
X126917061Y-67421821D02*
X126898313Y-67365578D01*
X126898313Y-67365578D02*
X126898313Y-67328083D01*
X126898313Y-67328083D02*
X126917061Y-67271840D01*
X126917061Y-67271840D02*
X126935809Y-67253092D01*
X127292014Y-66878139D02*
X127292014Y-67103111D01*
X127292014Y-66990625D02*
X126898313Y-66990625D01*
X126898313Y-66990625D02*
X126954556Y-67028120D01*
X126954556Y-67028120D02*
X126992052Y-67065616D01*
X126992052Y-67065616D02*
X127010799Y-67103111D01*
X127029547Y-66540681D02*
X127292014Y-66540681D01*
X126879566Y-66634420D02*
X127160781Y-66728158D01*
X127160781Y-66728158D02*
X127160781Y-66484438D01*
X122829519Y-67005616D02*
X122848267Y-67024364D01*
X122848267Y-67024364D02*
X122867014Y-67080607D01*
X122867014Y-67080607D02*
X122867014Y-67118102D01*
X122867014Y-67118102D02*
X122848267Y-67174345D01*
X122848267Y-67174345D02*
X122810771Y-67211841D01*
X122810771Y-67211841D02*
X122773276Y-67230588D01*
X122773276Y-67230588D02*
X122698285Y-67249336D01*
X122698285Y-67249336D02*
X122642042Y-67249336D01*
X122642042Y-67249336D02*
X122567052Y-67230588D01*
X122567052Y-67230588D02*
X122529556Y-67211841D01*
X122529556Y-67211841D02*
X122492061Y-67174345D01*
X122492061Y-67174345D02*
X122473313Y-67118102D01*
X122473313Y-67118102D02*
X122473313Y-67080607D01*
X122473313Y-67080607D02*
X122492061Y-67024364D01*
X122492061Y-67024364D02*
X122510809Y-67005616D01*
X122604547Y-66668158D02*
X122867014Y-66668158D01*
X122454566Y-66761897D02*
X122735781Y-66855635D01*
X122735781Y-66855635D02*
X122735781Y-66611915D01*
D11*
X36166666Y-43154819D02*
X36166666Y-43869104D01*
X36166666Y-43869104D02*
X36119047Y-44011961D01*
X36119047Y-44011961D02*
X36023809Y-44107200D01*
X36023809Y-44107200D02*
X35880952Y-44154819D01*
X35880952Y-44154819D02*
X35785714Y-44154819D01*
X37119047Y-43154819D02*
X36642857Y-43154819D01*
X36642857Y-43154819D02*
X36595238Y-43631009D01*
X36595238Y-43631009D02*
X36642857Y-43583390D01*
X36642857Y-43583390D02*
X36738095Y-43535771D01*
X36738095Y-43535771D02*
X36976190Y-43535771D01*
X36976190Y-43535771D02*
X37071428Y-43583390D01*
X37071428Y-43583390D02*
X37119047Y-43631009D01*
X37119047Y-43631009D02*
X37166666Y-43726247D01*
X37166666Y-43726247D02*
X37166666Y-43964342D01*
X37166666Y-43964342D02*
X37119047Y-44059580D01*
X37119047Y-44059580D02*
X37071428Y-44107200D01*
X37071428Y-44107200D02*
X36976190Y-44154819D01*
X36976190Y-44154819D02*
X36738095Y-44154819D01*
X36738095Y-44154819D02*
X36642857Y-44107200D01*
X36642857Y-44107200D02*
X36595238Y-44059580D01*
D12*
X142504519Y-97342092D02*
X142523267Y-97360840D01*
X142523267Y-97360840D02*
X142542014Y-97417083D01*
X142542014Y-97417083D02*
X142542014Y-97454578D01*
X142542014Y-97454578D02*
X142523267Y-97510821D01*
X142523267Y-97510821D02*
X142485771Y-97548317D01*
X142485771Y-97548317D02*
X142448276Y-97567064D01*
X142448276Y-97567064D02*
X142373285Y-97585812D01*
X142373285Y-97585812D02*
X142317042Y-97585812D01*
X142317042Y-97585812D02*
X142242052Y-97567064D01*
X142242052Y-97567064D02*
X142204556Y-97548317D01*
X142204556Y-97548317D02*
X142167061Y-97510821D01*
X142167061Y-97510821D02*
X142148313Y-97454578D01*
X142148313Y-97454578D02*
X142148313Y-97417083D01*
X142148313Y-97417083D02*
X142167061Y-97360840D01*
X142167061Y-97360840D02*
X142185809Y-97342092D01*
X142542014Y-96967139D02*
X142542014Y-97192111D01*
X142542014Y-97079625D02*
X142148313Y-97079625D01*
X142148313Y-97079625D02*
X142204556Y-97117120D01*
X142204556Y-97117120D02*
X142242052Y-97154616D01*
X142242052Y-97154616D02*
X142260799Y-97192111D01*
X142542014Y-96779663D02*
X142542014Y-96704672D01*
X142542014Y-96704672D02*
X142523267Y-96667177D01*
X142523267Y-96667177D02*
X142504519Y-96648429D01*
X142504519Y-96648429D02*
X142448276Y-96610934D01*
X142448276Y-96610934D02*
X142373285Y-96592186D01*
X142373285Y-96592186D02*
X142223304Y-96592186D01*
X142223304Y-96592186D02*
X142185809Y-96610934D01*
X142185809Y-96610934D02*
X142167061Y-96629681D01*
X142167061Y-96629681D02*
X142148313Y-96667177D01*
X142148313Y-96667177D02*
X142148313Y-96742167D01*
X142148313Y-96742167D02*
X142167061Y-96779663D01*
X142167061Y-96779663D02*
X142185809Y-96798410D01*
X142185809Y-96798410D02*
X142223304Y-96817158D01*
X142223304Y-96817158D02*
X142317042Y-96817158D01*
X142317042Y-96817158D02*
X142354538Y-96798410D01*
X142354538Y-96798410D02*
X142373285Y-96779663D01*
X142373285Y-96779663D02*
X142392033Y-96742167D01*
X142392033Y-96742167D02*
X142392033Y-96667177D01*
X142392033Y-96667177D02*
X142373285Y-96629681D01*
X142373285Y-96629681D02*
X142354538Y-96610934D01*
X142354538Y-96610934D02*
X142317042Y-96592186D01*
D11*
X84333333Y-57954819D02*
X83857143Y-57954819D01*
X83857143Y-57954819D02*
X83857143Y-56954819D01*
X84619048Y-57050057D02*
X84666667Y-57002438D01*
X84666667Y-57002438D02*
X84761905Y-56954819D01*
X84761905Y-56954819D02*
X85000000Y-56954819D01*
X85000000Y-56954819D02*
X85095238Y-57002438D01*
X85095238Y-57002438D02*
X85142857Y-57050057D01*
X85142857Y-57050057D02*
X85190476Y-57145295D01*
X85190476Y-57145295D02*
X85190476Y-57240533D01*
X85190476Y-57240533D02*
X85142857Y-57383390D01*
X85142857Y-57383390D02*
X84571429Y-57954819D01*
X84571429Y-57954819D02*
X85190476Y-57954819D01*
X177954819Y-95183333D02*
X178669104Y-95183333D01*
X178669104Y-95183333D02*
X178811961Y-95230952D01*
X178811961Y-95230952D02*
X178907200Y-95326190D01*
X178907200Y-95326190D02*
X178954819Y-95469047D01*
X178954819Y-95469047D02*
X178954819Y-95564285D01*
X177954819Y-94802380D02*
X177954819Y-94183333D01*
X177954819Y-94183333D02*
X178335771Y-94516666D01*
X178335771Y-94516666D02*
X178335771Y-94373809D01*
X178335771Y-94373809D02*
X178383390Y-94278571D01*
X178383390Y-94278571D02*
X178431009Y-94230952D01*
X178431009Y-94230952D02*
X178526247Y-94183333D01*
X178526247Y-94183333D02*
X178764342Y-94183333D01*
X178764342Y-94183333D02*
X178859580Y-94230952D01*
X178859580Y-94230952D02*
X178907200Y-94278571D01*
X178907200Y-94278571D02*
X178954819Y-94373809D01*
X178954819Y-94373809D02*
X178954819Y-94659523D01*
X178954819Y-94659523D02*
X178907200Y-94754761D01*
X178907200Y-94754761D02*
X178859580Y-94802380D01*
X133333333Y-57954819D02*
X132857143Y-57954819D01*
X132857143Y-57954819D02*
X132857143Y-56954819D01*
X134095238Y-57288152D02*
X134095238Y-57954819D01*
X133857143Y-56907200D02*
X133619048Y-57621485D01*
X133619048Y-57621485D02*
X134238095Y-57621485D01*
X185166666Y-53494819D02*
X185166666Y-54209104D01*
X185166666Y-54209104D02*
X185119047Y-54351961D01*
X185119047Y-54351961D02*
X185023809Y-54447200D01*
X185023809Y-54447200D02*
X184880952Y-54494819D01*
X184880952Y-54494819D02*
X184785714Y-54494819D01*
X185595238Y-53590057D02*
X185642857Y-53542438D01*
X185642857Y-53542438D02*
X185738095Y-53494819D01*
X185738095Y-53494819D02*
X185976190Y-53494819D01*
X185976190Y-53494819D02*
X186071428Y-53542438D01*
X186071428Y-53542438D02*
X186119047Y-53590057D01*
X186119047Y-53590057D02*
X186166666Y-53685295D01*
X186166666Y-53685295D02*
X186166666Y-53780533D01*
X186166666Y-53780533D02*
X186119047Y-53923390D01*
X186119047Y-53923390D02*
X185547619Y-54494819D01*
X185547619Y-54494819D02*
X186166666Y-54494819D01*
D12*
X97504519Y-67178092D02*
X97523267Y-67196840D01*
X97523267Y-67196840D02*
X97542014Y-67253083D01*
X97542014Y-67253083D02*
X97542014Y-67290578D01*
X97542014Y-67290578D02*
X97523267Y-67346821D01*
X97523267Y-67346821D02*
X97485771Y-67384317D01*
X97485771Y-67384317D02*
X97448276Y-67403064D01*
X97448276Y-67403064D02*
X97373285Y-67421812D01*
X97373285Y-67421812D02*
X97317042Y-67421812D01*
X97317042Y-67421812D02*
X97242052Y-67403064D01*
X97242052Y-67403064D02*
X97204556Y-67384317D01*
X97204556Y-67384317D02*
X97167061Y-67346821D01*
X97167061Y-67346821D02*
X97148313Y-67290578D01*
X97148313Y-67290578D02*
X97148313Y-67253083D01*
X97148313Y-67253083D02*
X97167061Y-67196840D01*
X97167061Y-67196840D02*
X97185809Y-67178092D01*
X97542014Y-66803139D02*
X97542014Y-67028111D01*
X97542014Y-66915625D02*
X97148313Y-66915625D01*
X97148313Y-66915625D02*
X97204556Y-66953120D01*
X97204556Y-66953120D02*
X97242052Y-66990616D01*
X97242052Y-66990616D02*
X97260799Y-67028111D01*
X97148313Y-66671906D02*
X97148313Y-66428186D01*
X97148313Y-66428186D02*
X97298295Y-66559420D01*
X97298295Y-66559420D02*
X97298295Y-66503177D01*
X97298295Y-66503177D02*
X97317042Y-66465681D01*
X97317042Y-66465681D02*
X97335790Y-66446934D01*
X97335790Y-66446934D02*
X97373285Y-66428186D01*
X97373285Y-66428186D02*
X97467024Y-66428186D01*
X97467024Y-66428186D02*
X97504519Y-66446934D01*
X97504519Y-66446934D02*
X97523267Y-66465681D01*
X97523267Y-66465681D02*
X97542014Y-66503177D01*
X97542014Y-66503177D02*
X97542014Y-66615663D01*
X97542014Y-66615663D02*
X97523267Y-66653158D01*
X97523267Y-66653158D02*
X97504519Y-66671906D01*
D11*
X151333333Y-94954819D02*
X150857143Y-94954819D01*
X150857143Y-94954819D02*
X150857143Y-93954819D01*
X152095238Y-93954819D02*
X151904762Y-93954819D01*
X151904762Y-93954819D02*
X151809524Y-94002438D01*
X151809524Y-94002438D02*
X151761905Y-94050057D01*
X151761905Y-94050057D02*
X151666667Y-94192914D01*
X151666667Y-94192914D02*
X151619048Y-94383390D01*
X151619048Y-94383390D02*
X151619048Y-94764342D01*
X151619048Y-94764342D02*
X151666667Y-94859580D01*
X151666667Y-94859580D02*
X151714286Y-94907200D01*
X151714286Y-94907200D02*
X151809524Y-94954819D01*
X151809524Y-94954819D02*
X152000000Y-94954819D01*
X152000000Y-94954819D02*
X152095238Y-94907200D01*
X152095238Y-94907200D02*
X152142857Y-94859580D01*
X152142857Y-94859580D02*
X152190476Y-94764342D01*
X152190476Y-94764342D02*
X152190476Y-94526247D01*
X152190476Y-94526247D02*
X152142857Y-94431009D01*
X152142857Y-94431009D02*
X152095238Y-94383390D01*
X152095238Y-94383390D02*
X152000000Y-94335771D01*
X152000000Y-94335771D02*
X151809524Y-94335771D01*
X151809524Y-94335771D02*
X151714286Y-94383390D01*
X151714286Y-94383390D02*
X151666667Y-94431009D01*
X151666667Y-94431009D02*
X151619048Y-94526247D01*
X185166666Y-43154819D02*
X185166666Y-43869104D01*
X185166666Y-43869104D02*
X185119047Y-44011961D01*
X185119047Y-44011961D02*
X185023809Y-44107200D01*
X185023809Y-44107200D02*
X184880952Y-44154819D01*
X184880952Y-44154819D02*
X184785714Y-44154819D01*
X185547619Y-43154819D02*
X186214285Y-43154819D01*
X186214285Y-43154819D02*
X185785714Y-44154819D01*
X128454819Y-98666666D02*
X128454819Y-99142856D01*
X128454819Y-99142856D02*
X127454819Y-99142856D01*
X127454819Y-98428570D02*
X127454819Y-97761904D01*
X127454819Y-97761904D02*
X128454819Y-98190475D01*
D12*
X54704519Y-67026616D02*
X54723267Y-67045364D01*
X54723267Y-67045364D02*
X54742014Y-67101607D01*
X54742014Y-67101607D02*
X54742014Y-67139102D01*
X54742014Y-67139102D02*
X54723267Y-67195345D01*
X54723267Y-67195345D02*
X54685771Y-67232841D01*
X54685771Y-67232841D02*
X54648276Y-67251588D01*
X54648276Y-67251588D02*
X54573285Y-67270336D01*
X54573285Y-67270336D02*
X54517042Y-67270336D01*
X54517042Y-67270336D02*
X54442052Y-67251588D01*
X54442052Y-67251588D02*
X54404556Y-67232841D01*
X54404556Y-67232841D02*
X54367061Y-67195345D01*
X54367061Y-67195345D02*
X54348313Y-67139102D01*
X54348313Y-67139102D02*
X54348313Y-67101607D01*
X54348313Y-67101607D02*
X54367061Y-67045364D01*
X54367061Y-67045364D02*
X54385809Y-67026616D01*
X54742014Y-66651663D02*
X54742014Y-66876635D01*
X54742014Y-66764149D02*
X54348313Y-66764149D01*
X54348313Y-66764149D02*
X54404556Y-66801644D01*
X54404556Y-66801644D02*
X54442052Y-66839140D01*
X54442052Y-66839140D02*
X54460799Y-66876635D01*
X83549519Y-101054616D02*
X83568267Y-101073364D01*
X83568267Y-101073364D02*
X83587014Y-101129607D01*
X83587014Y-101129607D02*
X83587014Y-101167102D01*
X83587014Y-101167102D02*
X83568267Y-101223345D01*
X83568267Y-101223345D02*
X83530771Y-101260841D01*
X83530771Y-101260841D02*
X83493276Y-101279588D01*
X83493276Y-101279588D02*
X83418285Y-101298336D01*
X83418285Y-101298336D02*
X83362042Y-101298336D01*
X83362042Y-101298336D02*
X83287052Y-101279588D01*
X83287052Y-101279588D02*
X83249556Y-101260841D01*
X83249556Y-101260841D02*
X83212061Y-101223345D01*
X83212061Y-101223345D02*
X83193313Y-101167102D01*
X83193313Y-101167102D02*
X83193313Y-101129607D01*
X83193313Y-101129607D02*
X83212061Y-101073364D01*
X83212061Y-101073364D02*
X83230809Y-101054616D01*
X83193313Y-100923383D02*
X83193313Y-100660915D01*
X83193313Y-100660915D02*
X83587014Y-100829644D01*
D11*
X77954819Y-98666666D02*
X77954819Y-99142856D01*
X77954819Y-99142856D02*
X76954819Y-99142856D01*
X77954819Y-98285713D02*
X77954819Y-98095237D01*
X77954819Y-98095237D02*
X77907200Y-97999999D01*
X77907200Y-97999999D02*
X77859580Y-97952380D01*
X77859580Y-97952380D02*
X77716723Y-97857142D01*
X77716723Y-97857142D02*
X77526247Y-97809523D01*
X77526247Y-97809523D02*
X77145295Y-97809523D01*
X77145295Y-97809523D02*
X77050057Y-97857142D01*
X77050057Y-97857142D02*
X77002438Y-97904761D01*
X77002438Y-97904761D02*
X76954819Y-97999999D01*
X76954819Y-97999999D02*
X76954819Y-98190475D01*
X76954819Y-98190475D02*
X77002438Y-98285713D01*
X77002438Y-98285713D02*
X77050057Y-98333332D01*
X77050057Y-98333332D02*
X77145295Y-98380951D01*
X77145295Y-98380951D02*
X77383390Y-98380951D01*
X77383390Y-98380951D02*
X77478628Y-98333332D01*
X77478628Y-98333332D02*
X77526247Y-98285713D01*
X77526247Y-98285713D02*
X77573866Y-98190475D01*
X77573866Y-98190475D02*
X77573866Y-97999999D01*
X77573866Y-97999999D02*
X77526247Y-97904761D01*
X77526247Y-97904761D02*
X77478628Y-97857142D01*
X77478628Y-97857142D02*
X77383390Y-97809523D01*
X184690476Y-75154819D02*
X184690476Y-75869104D01*
X184690476Y-75869104D02*
X184642857Y-76011961D01*
X184642857Y-76011961D02*
X184547619Y-76107200D01*
X184547619Y-76107200D02*
X184404762Y-76154819D01*
X184404762Y-76154819D02*
X184309524Y-76154819D01*
X185690476Y-76154819D02*
X185119048Y-76154819D01*
X185404762Y-76154819D02*
X185404762Y-75154819D01*
X185404762Y-75154819D02*
X185309524Y-75297676D01*
X185309524Y-75297676D02*
X185214286Y-75392914D01*
X185214286Y-75392914D02*
X185119048Y-75440533D01*
X186642857Y-76154819D02*
X186071429Y-76154819D01*
X186357143Y-76154819D02*
X186357143Y-75154819D01*
X186357143Y-75154819D02*
X186261905Y-75297676D01*
X186261905Y-75297676D02*
X186166667Y-75392914D01*
X186166667Y-75392914D02*
X186071429Y-75440533D01*
X133690476Y-75154819D02*
X133690476Y-75869104D01*
X133690476Y-75869104D02*
X133642857Y-76011961D01*
X133642857Y-76011961D02*
X133547619Y-76107200D01*
X133547619Y-76107200D02*
X133404762Y-76154819D01*
X133404762Y-76154819D02*
X133309524Y-76154819D01*
X134690476Y-76154819D02*
X134119048Y-76154819D01*
X134404762Y-76154819D02*
X134404762Y-75154819D01*
X134404762Y-75154819D02*
X134309524Y-75297676D01*
X134309524Y-75297676D02*
X134214286Y-75392914D01*
X134214286Y-75392914D02*
X134119048Y-75440533D01*
X135309524Y-75154819D02*
X135404762Y-75154819D01*
X135404762Y-75154819D02*
X135500000Y-75202438D01*
X135500000Y-75202438D02*
X135547619Y-75250057D01*
X135547619Y-75250057D02*
X135595238Y-75345295D01*
X135595238Y-75345295D02*
X135642857Y-75535771D01*
X135642857Y-75535771D02*
X135642857Y-75773866D01*
X135642857Y-75773866D02*
X135595238Y-75964342D01*
X135595238Y-75964342D02*
X135547619Y-76059580D01*
X135547619Y-76059580D02*
X135500000Y-76107200D01*
X135500000Y-76107200D02*
X135404762Y-76154819D01*
X135404762Y-76154819D02*
X135309524Y-76154819D01*
X135309524Y-76154819D02*
X135214286Y-76107200D01*
X135214286Y-76107200D02*
X135166667Y-76059580D01*
X135166667Y-76059580D02*
X135119048Y-75964342D01*
X135119048Y-75964342D02*
X135071429Y-75773866D01*
X135071429Y-75773866D02*
X135071429Y-75535771D01*
X135071429Y-75535771D02*
X135119048Y-75345295D01*
X135119048Y-75345295D02*
X135166667Y-75250057D01*
X135166667Y-75250057D02*
X135214286Y-75202438D01*
X135214286Y-75202438D02*
X135309524Y-75154819D01*
X50166666Y-75154819D02*
X50166666Y-75869104D01*
X50166666Y-75869104D02*
X50119047Y-76011961D01*
X50119047Y-76011961D02*
X50023809Y-76107200D01*
X50023809Y-76107200D02*
X49880952Y-76154819D01*
X49880952Y-76154819D02*
X49785714Y-76154819D01*
X50785714Y-75583390D02*
X50690476Y-75535771D01*
X50690476Y-75535771D02*
X50642857Y-75488152D01*
X50642857Y-75488152D02*
X50595238Y-75392914D01*
X50595238Y-75392914D02*
X50595238Y-75345295D01*
X50595238Y-75345295D02*
X50642857Y-75250057D01*
X50642857Y-75250057D02*
X50690476Y-75202438D01*
X50690476Y-75202438D02*
X50785714Y-75154819D01*
X50785714Y-75154819D02*
X50976190Y-75154819D01*
X50976190Y-75154819D02*
X51071428Y-75202438D01*
X51071428Y-75202438D02*
X51119047Y-75250057D01*
X51119047Y-75250057D02*
X51166666Y-75345295D01*
X51166666Y-75345295D02*
X51166666Y-75392914D01*
X51166666Y-75392914D02*
X51119047Y-75488152D01*
X51119047Y-75488152D02*
X51071428Y-75535771D01*
X51071428Y-75535771D02*
X50976190Y-75583390D01*
X50976190Y-75583390D02*
X50785714Y-75583390D01*
X50785714Y-75583390D02*
X50690476Y-75631009D01*
X50690476Y-75631009D02*
X50642857Y-75678628D01*
X50642857Y-75678628D02*
X50595238Y-75773866D01*
X50595238Y-75773866D02*
X50595238Y-75964342D01*
X50595238Y-75964342D02*
X50642857Y-76059580D01*
X50642857Y-76059580D02*
X50690476Y-76107200D01*
X50690476Y-76107200D02*
X50785714Y-76154819D01*
X50785714Y-76154819D02*
X50976190Y-76154819D01*
X50976190Y-76154819D02*
X51071428Y-76107200D01*
X51071428Y-76107200D02*
X51119047Y-76059580D01*
X51119047Y-76059580D02*
X51166666Y-75964342D01*
X51166666Y-75964342D02*
X51166666Y-75773866D01*
X51166666Y-75773866D02*
X51119047Y-75678628D01*
X51119047Y-75678628D02*
X51071428Y-75631009D01*
X51071428Y-75631009D02*
X50976190Y-75583390D01*
X101333333Y-95954819D02*
X100857143Y-95954819D01*
X100857143Y-95954819D02*
X100857143Y-94954819D01*
X101809524Y-95383390D02*
X101714286Y-95335771D01*
X101714286Y-95335771D02*
X101666667Y-95288152D01*
X101666667Y-95288152D02*
X101619048Y-95192914D01*
X101619048Y-95192914D02*
X101619048Y-95145295D01*
X101619048Y-95145295D02*
X101666667Y-95050057D01*
X101666667Y-95050057D02*
X101714286Y-95002438D01*
X101714286Y-95002438D02*
X101809524Y-94954819D01*
X101809524Y-94954819D02*
X102000000Y-94954819D01*
X102000000Y-94954819D02*
X102095238Y-95002438D01*
X102095238Y-95002438D02*
X102142857Y-95050057D01*
X102142857Y-95050057D02*
X102190476Y-95145295D01*
X102190476Y-95145295D02*
X102190476Y-95192914D01*
X102190476Y-95192914D02*
X102142857Y-95288152D01*
X102142857Y-95288152D02*
X102095238Y-95335771D01*
X102095238Y-95335771D02*
X102000000Y-95383390D01*
X102000000Y-95383390D02*
X101809524Y-95383390D01*
X101809524Y-95383390D02*
X101714286Y-95431009D01*
X101714286Y-95431009D02*
X101666667Y-95478628D01*
X101666667Y-95478628D02*
X101619048Y-95573866D01*
X101619048Y-95573866D02*
X101619048Y-95764342D01*
X101619048Y-95764342D02*
X101666667Y-95859580D01*
X101666667Y-95859580D02*
X101714286Y-95907200D01*
X101714286Y-95907200D02*
X101809524Y-95954819D01*
X101809524Y-95954819D02*
X102000000Y-95954819D01*
X102000000Y-95954819D02*
X102095238Y-95907200D01*
X102095238Y-95907200D02*
X102142857Y-95859580D01*
X102142857Y-95859580D02*
X102190476Y-95764342D01*
X102190476Y-95764342D02*
X102190476Y-95573866D01*
X102190476Y-95573866D02*
X102142857Y-95478628D01*
X102142857Y-95478628D02*
X102095238Y-95431009D01*
X102095238Y-95431009D02*
X102000000Y-95383390D01*
D12*
X147229519Y-66039092D02*
X147248267Y-66057840D01*
X147248267Y-66057840D02*
X147267014Y-66114083D01*
X147267014Y-66114083D02*
X147267014Y-66151578D01*
X147267014Y-66151578D02*
X147248267Y-66207821D01*
X147248267Y-66207821D02*
X147210771Y-66245317D01*
X147210771Y-66245317D02*
X147173276Y-66264064D01*
X147173276Y-66264064D02*
X147098285Y-66282812D01*
X147098285Y-66282812D02*
X147042042Y-66282812D01*
X147042042Y-66282812D02*
X146967052Y-66264064D01*
X146967052Y-66264064D02*
X146929556Y-66245317D01*
X146929556Y-66245317D02*
X146892061Y-66207821D01*
X146892061Y-66207821D02*
X146873313Y-66151578D01*
X146873313Y-66151578D02*
X146873313Y-66114083D01*
X146873313Y-66114083D02*
X146892061Y-66057840D01*
X146892061Y-66057840D02*
X146910809Y-66039092D01*
X147267014Y-65664139D02*
X147267014Y-65889111D01*
X147267014Y-65776625D02*
X146873313Y-65776625D01*
X146873313Y-65776625D02*
X146929556Y-65814120D01*
X146929556Y-65814120D02*
X146967052Y-65851616D01*
X146967052Y-65851616D02*
X146985799Y-65889111D01*
X146873313Y-65307934D02*
X146873313Y-65495410D01*
X146873313Y-65495410D02*
X147060790Y-65514158D01*
X147060790Y-65514158D02*
X147042042Y-65495410D01*
X147042042Y-65495410D02*
X147023295Y-65457915D01*
X147023295Y-65457915D02*
X147023295Y-65364177D01*
X147023295Y-65364177D02*
X147042042Y-65326681D01*
X147042042Y-65326681D02*
X147060790Y-65307934D01*
X147060790Y-65307934D02*
X147098285Y-65289186D01*
X147098285Y-65289186D02*
X147192024Y-65289186D01*
X147192024Y-65289186D02*
X147229519Y-65307934D01*
X147229519Y-65307934D02*
X147248267Y-65326681D01*
X147248267Y-65326681D02*
X147267014Y-65364177D01*
X147267014Y-65364177D02*
X147267014Y-65457915D01*
X147267014Y-65457915D02*
X147248267Y-65495410D01*
X147248267Y-65495410D02*
X147229519Y-65514158D01*
X171304519Y-97081092D02*
X171323267Y-97099840D01*
X171323267Y-97099840D02*
X171342014Y-97156083D01*
X171342014Y-97156083D02*
X171342014Y-97193578D01*
X171342014Y-97193578D02*
X171323267Y-97249821D01*
X171323267Y-97249821D02*
X171285771Y-97287317D01*
X171285771Y-97287317D02*
X171248276Y-97306064D01*
X171248276Y-97306064D02*
X171173285Y-97324812D01*
X171173285Y-97324812D02*
X171117042Y-97324812D01*
X171117042Y-97324812D02*
X171042052Y-97306064D01*
X171042052Y-97306064D02*
X171004556Y-97287317D01*
X171004556Y-97287317D02*
X170967061Y-97249821D01*
X170967061Y-97249821D02*
X170948313Y-97193578D01*
X170948313Y-97193578D02*
X170948313Y-97156083D01*
X170948313Y-97156083D02*
X170967061Y-97099840D01*
X170967061Y-97099840D02*
X170985809Y-97081092D01*
X170985809Y-96931111D02*
X170967061Y-96912363D01*
X170967061Y-96912363D02*
X170948313Y-96874868D01*
X170948313Y-96874868D02*
X170948313Y-96781130D01*
X170948313Y-96781130D02*
X170967061Y-96743634D01*
X170967061Y-96743634D02*
X170985809Y-96724887D01*
X170985809Y-96724887D02*
X171023304Y-96706139D01*
X171023304Y-96706139D02*
X171060799Y-96706139D01*
X171060799Y-96706139D02*
X171117042Y-96724887D01*
X171117042Y-96724887D02*
X171342014Y-96949859D01*
X171342014Y-96949859D02*
X171342014Y-96706139D01*
X170948313Y-96462420D02*
X170948313Y-96424924D01*
X170948313Y-96424924D02*
X170967061Y-96387429D01*
X170967061Y-96387429D02*
X170985809Y-96368681D01*
X170985809Y-96368681D02*
X171023304Y-96349934D01*
X171023304Y-96349934D02*
X171098295Y-96331186D01*
X171098295Y-96331186D02*
X171192033Y-96331186D01*
X171192033Y-96331186D02*
X171267024Y-96349934D01*
X171267024Y-96349934D02*
X171304519Y-96368681D01*
X171304519Y-96368681D02*
X171323267Y-96387429D01*
X171323267Y-96387429D02*
X171342014Y-96424924D01*
X171342014Y-96424924D02*
X171342014Y-96462420D01*
X171342014Y-96462420D02*
X171323267Y-96499915D01*
X171323267Y-96499915D02*
X171304519Y-96518663D01*
X171304519Y-96518663D02*
X171267024Y-96537410D01*
X171267024Y-96537410D02*
X171192033Y-96556158D01*
X171192033Y-96556158D02*
X171098295Y-96556158D01*
X171098295Y-96556158D02*
X171023304Y-96537410D01*
X171023304Y-96537410D02*
X170985809Y-96518663D01*
X170985809Y-96518663D02*
X170967061Y-96499915D01*
X170967061Y-96499915D02*
X170948313Y-96462420D01*
X50504519Y-67124092D02*
X50523267Y-67142840D01*
X50523267Y-67142840D02*
X50542014Y-67199083D01*
X50542014Y-67199083D02*
X50542014Y-67236578D01*
X50542014Y-67236578D02*
X50523267Y-67292821D01*
X50523267Y-67292821D02*
X50485771Y-67330317D01*
X50485771Y-67330317D02*
X50448276Y-67349064D01*
X50448276Y-67349064D02*
X50373285Y-67367812D01*
X50373285Y-67367812D02*
X50317042Y-67367812D01*
X50317042Y-67367812D02*
X50242052Y-67349064D01*
X50242052Y-67349064D02*
X50204556Y-67330317D01*
X50204556Y-67330317D02*
X50167061Y-67292821D01*
X50167061Y-67292821D02*
X50148313Y-67236578D01*
X50148313Y-67236578D02*
X50148313Y-67199083D01*
X50148313Y-67199083D02*
X50167061Y-67142840D01*
X50167061Y-67142840D02*
X50185809Y-67124092D01*
X50542014Y-66749139D02*
X50542014Y-66974111D01*
X50542014Y-66861625D02*
X50148313Y-66861625D01*
X50148313Y-66861625D02*
X50204556Y-66899120D01*
X50204556Y-66899120D02*
X50242052Y-66936616D01*
X50242052Y-66936616D02*
X50260799Y-66974111D01*
X50542014Y-66374186D02*
X50542014Y-66599158D01*
X50542014Y-66486672D02*
X50148313Y-66486672D01*
X50148313Y-66486672D02*
X50204556Y-66524167D01*
X50204556Y-66524167D02*
X50242052Y-66561663D01*
X50242052Y-66561663D02*
X50260799Y-66599158D01*
D11*
X60954819Y-60666666D02*
X60954819Y-61142856D01*
X60954819Y-61142856D02*
X59954819Y-61142856D01*
X60954819Y-59809523D02*
X60954819Y-60380951D01*
X60954819Y-60095237D02*
X59954819Y-60095237D01*
X59954819Y-60095237D02*
X60097676Y-60190475D01*
X60097676Y-60190475D02*
X60192914Y-60285713D01*
X60192914Y-60285713D02*
X60240533Y-60380951D01*
X42354819Y-80443333D02*
X43069104Y-80443333D01*
X43069104Y-80443333D02*
X43211961Y-80490952D01*
X43211961Y-80490952D02*
X43307200Y-80586190D01*
X43307200Y-80586190D02*
X43354819Y-80729047D01*
X43354819Y-80729047D02*
X43354819Y-80824285D01*
X43354819Y-79443333D02*
X43354819Y-80014761D01*
X43354819Y-79729047D02*
X42354819Y-79729047D01*
X42354819Y-79729047D02*
X42497676Y-79824285D01*
X42497676Y-79824285D02*
X42592914Y-79919523D01*
X42592914Y-79919523D02*
X42640533Y-80014761D01*
D12*
X151804519Y-65926616D02*
X151823267Y-65945364D01*
X151823267Y-65945364D02*
X151842014Y-66001607D01*
X151842014Y-66001607D02*
X151842014Y-66039102D01*
X151842014Y-66039102D02*
X151823267Y-66095345D01*
X151823267Y-66095345D02*
X151785771Y-66132841D01*
X151785771Y-66132841D02*
X151748276Y-66151588D01*
X151748276Y-66151588D02*
X151673285Y-66170336D01*
X151673285Y-66170336D02*
X151617042Y-66170336D01*
X151617042Y-66170336D02*
X151542052Y-66151588D01*
X151542052Y-66151588D02*
X151504556Y-66132841D01*
X151504556Y-66132841D02*
X151467061Y-66095345D01*
X151467061Y-66095345D02*
X151448313Y-66039102D01*
X151448313Y-66039102D02*
X151448313Y-66001607D01*
X151448313Y-66001607D02*
X151467061Y-65945364D01*
X151467061Y-65945364D02*
X151485809Y-65926616D01*
X151448313Y-65570411D02*
X151448313Y-65757887D01*
X151448313Y-65757887D02*
X151635790Y-65776635D01*
X151635790Y-65776635D02*
X151617042Y-65757887D01*
X151617042Y-65757887D02*
X151598295Y-65720392D01*
X151598295Y-65720392D02*
X151598295Y-65626654D01*
X151598295Y-65626654D02*
X151617042Y-65589158D01*
X151617042Y-65589158D02*
X151635790Y-65570411D01*
X151635790Y-65570411D02*
X151673285Y-65551663D01*
X151673285Y-65551663D02*
X151767024Y-65551663D01*
X151767024Y-65551663D02*
X151804519Y-65570411D01*
X151804519Y-65570411D02*
X151823267Y-65589158D01*
X151823267Y-65589158D02*
X151842014Y-65626654D01*
X151842014Y-65626654D02*
X151842014Y-65720392D01*
X151842014Y-65720392D02*
X151823267Y-65757887D01*
X151823267Y-65757887D02*
X151804519Y-65776635D01*
X162049519Y-99042092D02*
X162068267Y-99060840D01*
X162068267Y-99060840D02*
X162087014Y-99117083D01*
X162087014Y-99117083D02*
X162087014Y-99154578D01*
X162087014Y-99154578D02*
X162068267Y-99210821D01*
X162068267Y-99210821D02*
X162030771Y-99248317D01*
X162030771Y-99248317D02*
X161993276Y-99267064D01*
X161993276Y-99267064D02*
X161918285Y-99285812D01*
X161918285Y-99285812D02*
X161862042Y-99285812D01*
X161862042Y-99285812D02*
X161787052Y-99267064D01*
X161787052Y-99267064D02*
X161749556Y-99248317D01*
X161749556Y-99248317D02*
X161712061Y-99210821D01*
X161712061Y-99210821D02*
X161693313Y-99154578D01*
X161693313Y-99154578D02*
X161693313Y-99117083D01*
X161693313Y-99117083D02*
X161712061Y-99060840D01*
X161712061Y-99060840D02*
X161730809Y-99042092D01*
X162087014Y-98667139D02*
X162087014Y-98892111D01*
X162087014Y-98779625D02*
X161693313Y-98779625D01*
X161693313Y-98779625D02*
X161749556Y-98817120D01*
X161749556Y-98817120D02*
X161787052Y-98854616D01*
X161787052Y-98854616D02*
X161805799Y-98892111D01*
X161693313Y-98423420D02*
X161693313Y-98385924D01*
X161693313Y-98385924D02*
X161712061Y-98348429D01*
X161712061Y-98348429D02*
X161730809Y-98329681D01*
X161730809Y-98329681D02*
X161768304Y-98310934D01*
X161768304Y-98310934D02*
X161843295Y-98292186D01*
X161843295Y-98292186D02*
X161937033Y-98292186D01*
X161937033Y-98292186D02*
X162012024Y-98310934D01*
X162012024Y-98310934D02*
X162049519Y-98329681D01*
X162049519Y-98329681D02*
X162068267Y-98348429D01*
X162068267Y-98348429D02*
X162087014Y-98385924D01*
X162087014Y-98385924D02*
X162087014Y-98423420D01*
X162087014Y-98423420D02*
X162068267Y-98460915D01*
X162068267Y-98460915D02*
X162049519Y-98479663D01*
X162049519Y-98479663D02*
X162012024Y-98498410D01*
X162012024Y-98498410D02*
X161937033Y-98517158D01*
X161937033Y-98517158D02*
X161843295Y-98517158D01*
X161843295Y-98517158D02*
X161768304Y-98498410D01*
X161768304Y-98498410D02*
X161730809Y-98479663D01*
X161730809Y-98479663D02*
X161712061Y-98460915D01*
X161712061Y-98460915D02*
X161693313Y-98423420D01*
D11*
X185166666Y-107154819D02*
X185166666Y-107869104D01*
X185166666Y-107869104D02*
X185119047Y-108011961D01*
X185119047Y-108011961D02*
X185023809Y-108107200D01*
X185023809Y-108107200D02*
X184880952Y-108154819D01*
X184880952Y-108154819D02*
X184785714Y-108154819D01*
X186071428Y-107154819D02*
X185880952Y-107154819D01*
X185880952Y-107154819D02*
X185785714Y-107202438D01*
X185785714Y-107202438D02*
X185738095Y-107250057D01*
X185738095Y-107250057D02*
X185642857Y-107392914D01*
X185642857Y-107392914D02*
X185595238Y-107583390D01*
X185595238Y-107583390D02*
X185595238Y-107964342D01*
X185595238Y-107964342D02*
X185642857Y-108059580D01*
X185642857Y-108059580D02*
X185690476Y-108107200D01*
X185690476Y-108107200D02*
X185785714Y-108154819D01*
X185785714Y-108154819D02*
X185976190Y-108154819D01*
X185976190Y-108154819D02*
X186071428Y-108107200D01*
X186071428Y-108107200D02*
X186119047Y-108059580D01*
X186119047Y-108059580D02*
X186166666Y-107964342D01*
X186166666Y-107964342D02*
X186166666Y-107726247D01*
X186166666Y-107726247D02*
X186119047Y-107631009D01*
X186119047Y-107631009D02*
X186071428Y-107583390D01*
X186071428Y-107583390D02*
X185976190Y-107535771D01*
X185976190Y-107535771D02*
X185785714Y-107535771D01*
X185785714Y-107535771D02*
X185690476Y-107583390D01*
X185690476Y-107583390D02*
X185642857Y-107631009D01*
X185642857Y-107631009D02*
X185595238Y-107726247D01*
D12*
X72829519Y-67005616D02*
X72848267Y-67024364D01*
X72848267Y-67024364D02*
X72867014Y-67080607D01*
X72867014Y-67080607D02*
X72867014Y-67118102D01*
X72867014Y-67118102D02*
X72848267Y-67174345D01*
X72848267Y-67174345D02*
X72810771Y-67211841D01*
X72810771Y-67211841D02*
X72773276Y-67230588D01*
X72773276Y-67230588D02*
X72698285Y-67249336D01*
X72698285Y-67249336D02*
X72642042Y-67249336D01*
X72642042Y-67249336D02*
X72567052Y-67230588D01*
X72567052Y-67230588D02*
X72529556Y-67211841D01*
X72529556Y-67211841D02*
X72492061Y-67174345D01*
X72492061Y-67174345D02*
X72473313Y-67118102D01*
X72473313Y-67118102D02*
X72473313Y-67080607D01*
X72473313Y-67080607D02*
X72492061Y-67024364D01*
X72492061Y-67024364D02*
X72510809Y-67005616D01*
X72510809Y-66855635D02*
X72492061Y-66836887D01*
X72492061Y-66836887D02*
X72473313Y-66799392D01*
X72473313Y-66799392D02*
X72473313Y-66705654D01*
X72473313Y-66705654D02*
X72492061Y-66668158D01*
X72492061Y-66668158D02*
X72510809Y-66649411D01*
X72510809Y-66649411D02*
X72548304Y-66630663D01*
X72548304Y-66630663D02*
X72585799Y-66630663D01*
X72585799Y-66630663D02*
X72642042Y-66649411D01*
X72642042Y-66649411D02*
X72867014Y-66874383D01*
X72867014Y-66874383D02*
X72867014Y-66630663D01*
X121529519Y-98142092D02*
X121548267Y-98160840D01*
X121548267Y-98160840D02*
X121567014Y-98217083D01*
X121567014Y-98217083D02*
X121567014Y-98254578D01*
X121567014Y-98254578D02*
X121548267Y-98310821D01*
X121548267Y-98310821D02*
X121510771Y-98348317D01*
X121510771Y-98348317D02*
X121473276Y-98367064D01*
X121473276Y-98367064D02*
X121398285Y-98385812D01*
X121398285Y-98385812D02*
X121342042Y-98385812D01*
X121342042Y-98385812D02*
X121267052Y-98367064D01*
X121267052Y-98367064D02*
X121229556Y-98348317D01*
X121229556Y-98348317D02*
X121192061Y-98310821D01*
X121192061Y-98310821D02*
X121173313Y-98254578D01*
X121173313Y-98254578D02*
X121173313Y-98217083D01*
X121173313Y-98217083D02*
X121192061Y-98160840D01*
X121192061Y-98160840D02*
X121210809Y-98142092D01*
X121567014Y-97767139D02*
X121567014Y-97992111D01*
X121567014Y-97879625D02*
X121173313Y-97879625D01*
X121173313Y-97879625D02*
X121229556Y-97917120D01*
X121229556Y-97917120D02*
X121267052Y-97954616D01*
X121267052Y-97954616D02*
X121285799Y-97992111D01*
X121342042Y-97542167D02*
X121323295Y-97579663D01*
X121323295Y-97579663D02*
X121304547Y-97598410D01*
X121304547Y-97598410D02*
X121267052Y-97617158D01*
X121267052Y-97617158D02*
X121248304Y-97617158D01*
X121248304Y-97617158D02*
X121210809Y-97598410D01*
X121210809Y-97598410D02*
X121192061Y-97579663D01*
X121192061Y-97579663D02*
X121173313Y-97542167D01*
X121173313Y-97542167D02*
X121173313Y-97467177D01*
X121173313Y-97467177D02*
X121192061Y-97429681D01*
X121192061Y-97429681D02*
X121210809Y-97410934D01*
X121210809Y-97410934D02*
X121248304Y-97392186D01*
X121248304Y-97392186D02*
X121267052Y-97392186D01*
X121267052Y-97392186D02*
X121304547Y-97410934D01*
X121304547Y-97410934D02*
X121323295Y-97429681D01*
X121323295Y-97429681D02*
X121342042Y-97467177D01*
X121342042Y-97467177D02*
X121342042Y-97542167D01*
X121342042Y-97542167D02*
X121360790Y-97579663D01*
X121360790Y-97579663D02*
X121379538Y-97598410D01*
X121379538Y-97598410D02*
X121417033Y-97617158D01*
X121417033Y-97617158D02*
X121492024Y-97617158D01*
X121492024Y-97617158D02*
X121529519Y-97598410D01*
X121529519Y-97598410D02*
X121548267Y-97579663D01*
X121548267Y-97579663D02*
X121567014Y-97542167D01*
X121567014Y-97542167D02*
X121567014Y-97467177D01*
X121567014Y-97467177D02*
X121548267Y-97429681D01*
X121548267Y-97429681D02*
X121529519Y-97410934D01*
X121529519Y-97410934D02*
X121492024Y-97392186D01*
X121492024Y-97392186D02*
X121417033Y-97392186D01*
X121417033Y-97392186D02*
X121379538Y-97410934D01*
X121379538Y-97410934D02*
X121360790Y-97429681D01*
X121360790Y-97429681D02*
X121342042Y-97467177D01*
X112349519Y-99754616D02*
X112368267Y-99773364D01*
X112368267Y-99773364D02*
X112387014Y-99829607D01*
X112387014Y-99829607D02*
X112387014Y-99867102D01*
X112387014Y-99867102D02*
X112368267Y-99923345D01*
X112368267Y-99923345D02*
X112330771Y-99960841D01*
X112330771Y-99960841D02*
X112293276Y-99979588D01*
X112293276Y-99979588D02*
X112218285Y-99998336D01*
X112218285Y-99998336D02*
X112162042Y-99998336D01*
X112162042Y-99998336D02*
X112087052Y-99979588D01*
X112087052Y-99979588D02*
X112049556Y-99960841D01*
X112049556Y-99960841D02*
X112012061Y-99923345D01*
X112012061Y-99923345D02*
X111993313Y-99867102D01*
X111993313Y-99867102D02*
X111993313Y-99829607D01*
X111993313Y-99829607D02*
X112012061Y-99773364D01*
X112012061Y-99773364D02*
X112030809Y-99754616D01*
X112162042Y-99529644D02*
X112143295Y-99567140D01*
X112143295Y-99567140D02*
X112124547Y-99585887D01*
X112124547Y-99585887D02*
X112087052Y-99604635D01*
X112087052Y-99604635D02*
X112068304Y-99604635D01*
X112068304Y-99604635D02*
X112030809Y-99585887D01*
X112030809Y-99585887D02*
X112012061Y-99567140D01*
X112012061Y-99567140D02*
X111993313Y-99529644D01*
X111993313Y-99529644D02*
X111993313Y-99454654D01*
X111993313Y-99454654D02*
X112012061Y-99417158D01*
X112012061Y-99417158D02*
X112030809Y-99398411D01*
X112030809Y-99398411D02*
X112068304Y-99379663D01*
X112068304Y-99379663D02*
X112087052Y-99379663D01*
X112087052Y-99379663D02*
X112124547Y-99398411D01*
X112124547Y-99398411D02*
X112143295Y-99417158D01*
X112143295Y-99417158D02*
X112162042Y-99454654D01*
X112162042Y-99454654D02*
X112162042Y-99529644D01*
X112162042Y-99529644D02*
X112180790Y-99567140D01*
X112180790Y-99567140D02*
X112199538Y-99585887D01*
X112199538Y-99585887D02*
X112237033Y-99604635D01*
X112237033Y-99604635D02*
X112312024Y-99604635D01*
X112312024Y-99604635D02*
X112349519Y-99585887D01*
X112349519Y-99585887D02*
X112368267Y-99567140D01*
X112368267Y-99567140D02*
X112387014Y-99529644D01*
X112387014Y-99529644D02*
X112387014Y-99454654D01*
X112387014Y-99454654D02*
X112368267Y-99417158D01*
X112368267Y-99417158D02*
X112349519Y-99398411D01*
X112349519Y-99398411D02*
X112312024Y-99379663D01*
X112312024Y-99379663D02*
X112237033Y-99379663D01*
X112237033Y-99379663D02*
X112199538Y-99398411D01*
X112199538Y-99398411D02*
X112180790Y-99417158D01*
X112180790Y-99417158D02*
X112162042Y-99454654D01*
X133349519Y-99133616D02*
X133368267Y-99152364D01*
X133368267Y-99152364D02*
X133387014Y-99208607D01*
X133387014Y-99208607D02*
X133387014Y-99246102D01*
X133387014Y-99246102D02*
X133368267Y-99302345D01*
X133368267Y-99302345D02*
X133330771Y-99339841D01*
X133330771Y-99339841D02*
X133293276Y-99358588D01*
X133293276Y-99358588D02*
X133218285Y-99377336D01*
X133218285Y-99377336D02*
X133162042Y-99377336D01*
X133162042Y-99377336D02*
X133087052Y-99358588D01*
X133087052Y-99358588D02*
X133049556Y-99339841D01*
X133049556Y-99339841D02*
X133012061Y-99302345D01*
X133012061Y-99302345D02*
X132993313Y-99246102D01*
X132993313Y-99246102D02*
X132993313Y-99208607D01*
X132993313Y-99208607D02*
X133012061Y-99152364D01*
X133012061Y-99152364D02*
X133030809Y-99133616D01*
X133387014Y-98946140D02*
X133387014Y-98871149D01*
X133387014Y-98871149D02*
X133368267Y-98833654D01*
X133368267Y-98833654D02*
X133349519Y-98814906D01*
X133349519Y-98814906D02*
X133293276Y-98777411D01*
X133293276Y-98777411D02*
X133218285Y-98758663D01*
X133218285Y-98758663D02*
X133068304Y-98758663D01*
X133068304Y-98758663D02*
X133030809Y-98777411D01*
X133030809Y-98777411D02*
X133012061Y-98796158D01*
X133012061Y-98796158D02*
X132993313Y-98833654D01*
X132993313Y-98833654D02*
X132993313Y-98908644D01*
X132993313Y-98908644D02*
X133012061Y-98946140D01*
X133012061Y-98946140D02*
X133030809Y-98964887D01*
X133030809Y-98964887D02*
X133068304Y-98983635D01*
X133068304Y-98983635D02*
X133162042Y-98983635D01*
X133162042Y-98983635D02*
X133199538Y-98964887D01*
X133199538Y-98964887D02*
X133218285Y-98946140D01*
X133218285Y-98946140D02*
X133237033Y-98908644D01*
X133237033Y-98908644D02*
X133237033Y-98833654D01*
X133237033Y-98833654D02*
X133218285Y-98796158D01*
X133218285Y-98796158D02*
X133199538Y-98777411D01*
X133199538Y-98777411D02*
X133162042Y-98758663D01*
X77229519Y-67289092D02*
X77248267Y-67307840D01*
X77248267Y-67307840D02*
X77267014Y-67364083D01*
X77267014Y-67364083D02*
X77267014Y-67401578D01*
X77267014Y-67401578D02*
X77248267Y-67457821D01*
X77248267Y-67457821D02*
X77210771Y-67495317D01*
X77210771Y-67495317D02*
X77173276Y-67514064D01*
X77173276Y-67514064D02*
X77098285Y-67532812D01*
X77098285Y-67532812D02*
X77042042Y-67532812D01*
X77042042Y-67532812D02*
X76967052Y-67514064D01*
X76967052Y-67514064D02*
X76929556Y-67495317D01*
X76929556Y-67495317D02*
X76892061Y-67457821D01*
X76892061Y-67457821D02*
X76873313Y-67401578D01*
X76873313Y-67401578D02*
X76873313Y-67364083D01*
X76873313Y-67364083D02*
X76892061Y-67307840D01*
X76892061Y-67307840D02*
X76910809Y-67289092D01*
X77267014Y-66914139D02*
X77267014Y-67139111D01*
X77267014Y-67026625D02*
X76873313Y-67026625D01*
X76873313Y-67026625D02*
X76929556Y-67064120D01*
X76929556Y-67064120D02*
X76967052Y-67101616D01*
X76967052Y-67101616D02*
X76985799Y-67139111D01*
X76910809Y-66764158D02*
X76892061Y-66745410D01*
X76892061Y-66745410D02*
X76873313Y-66707915D01*
X76873313Y-66707915D02*
X76873313Y-66614177D01*
X76873313Y-66614177D02*
X76892061Y-66576681D01*
X76892061Y-66576681D02*
X76910809Y-66557934D01*
X76910809Y-66557934D02*
X76948304Y-66539186D01*
X76948304Y-66539186D02*
X76985799Y-66539186D01*
X76985799Y-66539186D02*
X77042042Y-66557934D01*
X77042042Y-66557934D02*
X77267014Y-66782906D01*
X77267014Y-66782906D02*
X77267014Y-66539186D01*
D11*
X158954819Y-59666666D02*
X158954819Y-60142856D01*
X158954819Y-60142856D02*
X157954819Y-60142856D01*
X157954819Y-58857142D02*
X157954819Y-59333332D01*
X157954819Y-59333332D02*
X158431009Y-59380951D01*
X158431009Y-59380951D02*
X158383390Y-59333332D01*
X158383390Y-59333332D02*
X158335771Y-59238094D01*
X158335771Y-59238094D02*
X158335771Y-58999999D01*
X158335771Y-58999999D02*
X158383390Y-58904761D01*
X158383390Y-58904761D02*
X158431009Y-58857142D01*
X158431009Y-58857142D02*
X158526247Y-58809523D01*
X158526247Y-58809523D02*
X158764342Y-58809523D01*
X158764342Y-58809523D02*
X158859580Y-58857142D01*
X158859580Y-58857142D02*
X158907200Y-58904761D01*
X158907200Y-58904761D02*
X158954819Y-58999999D01*
X158954819Y-58999999D02*
X158954819Y-59238094D01*
X158954819Y-59238094D02*
X158907200Y-59333332D01*
X158907200Y-59333332D02*
X158859580Y-59380951D01*
D12*
X71729519Y-100542092D02*
X71748267Y-100560840D01*
X71748267Y-100560840D02*
X71767014Y-100617083D01*
X71767014Y-100617083D02*
X71767014Y-100654578D01*
X71767014Y-100654578D02*
X71748267Y-100710821D01*
X71748267Y-100710821D02*
X71710771Y-100748317D01*
X71710771Y-100748317D02*
X71673276Y-100767064D01*
X71673276Y-100767064D02*
X71598285Y-100785812D01*
X71598285Y-100785812D02*
X71542042Y-100785812D01*
X71542042Y-100785812D02*
X71467052Y-100767064D01*
X71467052Y-100767064D02*
X71429556Y-100748317D01*
X71429556Y-100748317D02*
X71392061Y-100710821D01*
X71392061Y-100710821D02*
X71373313Y-100654578D01*
X71373313Y-100654578D02*
X71373313Y-100617083D01*
X71373313Y-100617083D02*
X71392061Y-100560840D01*
X71392061Y-100560840D02*
X71410809Y-100542092D01*
X71767014Y-100167139D02*
X71767014Y-100392111D01*
X71767014Y-100279625D02*
X71373313Y-100279625D01*
X71373313Y-100279625D02*
X71429556Y-100317120D01*
X71429556Y-100317120D02*
X71467052Y-100354616D01*
X71467052Y-100354616D02*
X71485799Y-100392111D01*
X71373313Y-99829681D02*
X71373313Y-99904672D01*
X71373313Y-99904672D02*
X71392061Y-99942167D01*
X71392061Y-99942167D02*
X71410809Y-99960915D01*
X71410809Y-99960915D02*
X71467052Y-99998410D01*
X71467052Y-99998410D02*
X71542042Y-100017158D01*
X71542042Y-100017158D02*
X71692024Y-100017158D01*
X71692024Y-100017158D02*
X71729519Y-99998410D01*
X71729519Y-99998410D02*
X71748267Y-99979663D01*
X71748267Y-99979663D02*
X71767014Y-99942167D01*
X71767014Y-99942167D02*
X71767014Y-99867177D01*
X71767014Y-99867177D02*
X71748267Y-99829681D01*
X71748267Y-99829681D02*
X71729519Y-99810934D01*
X71729519Y-99810934D02*
X71692024Y-99792186D01*
X71692024Y-99792186D02*
X71598285Y-99792186D01*
X71598285Y-99792186D02*
X71560790Y-99810934D01*
X71560790Y-99810934D02*
X71542042Y-99829681D01*
X71542042Y-99829681D02*
X71523295Y-99867177D01*
X71523295Y-99867177D02*
X71523295Y-99942167D01*
X71523295Y-99942167D02*
X71542042Y-99979663D01*
X71542042Y-99979663D02*
X71560790Y-99998410D01*
X71560790Y-99998410D02*
X71598285Y-100017158D01*
D11*
X110954819Y-60666666D02*
X110954819Y-61142856D01*
X110954819Y-61142856D02*
X109954819Y-61142856D01*
X109954819Y-60428570D02*
X109954819Y-59809523D01*
X109954819Y-59809523D02*
X110335771Y-60142856D01*
X110335771Y-60142856D02*
X110335771Y-59999999D01*
X110335771Y-59999999D02*
X110383390Y-59904761D01*
X110383390Y-59904761D02*
X110431009Y-59857142D01*
X110431009Y-59857142D02*
X110526247Y-59809523D01*
X110526247Y-59809523D02*
X110764342Y-59809523D01*
X110764342Y-59809523D02*
X110859580Y-59857142D01*
X110859580Y-59857142D02*
X110907200Y-59904761D01*
X110907200Y-59904761D02*
X110954819Y-59999999D01*
X110954819Y-59999999D02*
X110954819Y-60285713D01*
X110954819Y-60285713D02*
X110907200Y-60380951D01*
X110907200Y-60380951D02*
X110859580Y-60428570D01*
D12*
X101939519Y-67005616D02*
X101958267Y-67024364D01*
X101958267Y-67024364D02*
X101977014Y-67080607D01*
X101977014Y-67080607D02*
X101977014Y-67118102D01*
X101977014Y-67118102D02*
X101958267Y-67174345D01*
X101958267Y-67174345D02*
X101920771Y-67211841D01*
X101920771Y-67211841D02*
X101883276Y-67230588D01*
X101883276Y-67230588D02*
X101808285Y-67249336D01*
X101808285Y-67249336D02*
X101752042Y-67249336D01*
X101752042Y-67249336D02*
X101677052Y-67230588D01*
X101677052Y-67230588D02*
X101639556Y-67211841D01*
X101639556Y-67211841D02*
X101602061Y-67174345D01*
X101602061Y-67174345D02*
X101583313Y-67118102D01*
X101583313Y-67118102D02*
X101583313Y-67080607D01*
X101583313Y-67080607D02*
X101602061Y-67024364D01*
X101602061Y-67024364D02*
X101620809Y-67005616D01*
X101583313Y-66874383D02*
X101583313Y-66630663D01*
X101583313Y-66630663D02*
X101733295Y-66761897D01*
X101733295Y-66761897D02*
X101733295Y-66705654D01*
X101733295Y-66705654D02*
X101752042Y-66668158D01*
X101752042Y-66668158D02*
X101770790Y-66649411D01*
X101770790Y-66649411D02*
X101808285Y-66630663D01*
X101808285Y-66630663D02*
X101902024Y-66630663D01*
X101902024Y-66630663D02*
X101939519Y-66649411D01*
X101939519Y-66649411D02*
X101958267Y-66668158D01*
X101958267Y-66668158D02*
X101977014Y-66705654D01*
X101977014Y-66705654D02*
X101977014Y-66818140D01*
X101977014Y-66818140D02*
X101958267Y-66855635D01*
X101958267Y-66855635D02*
X101939519Y-66874383D01*
D11*
X36166666Y-107154819D02*
X36166666Y-107869104D01*
X36166666Y-107869104D02*
X36119047Y-108011961D01*
X36119047Y-108011961D02*
X36023809Y-108107200D01*
X36023809Y-108107200D02*
X35880952Y-108154819D01*
X35880952Y-108154819D02*
X35785714Y-108154819D01*
X37071428Y-107488152D02*
X37071428Y-108154819D01*
X36833333Y-107107200D02*
X36595238Y-107821485D01*
X36595238Y-107821485D02*
X37214285Y-107821485D01*
X96166666Y-75154819D02*
X96166666Y-75869104D01*
X96166666Y-75869104D02*
X96119047Y-76011961D01*
X96119047Y-76011961D02*
X96023809Y-76107200D01*
X96023809Y-76107200D02*
X95880952Y-76154819D01*
X95880952Y-76154819D02*
X95785714Y-76154819D01*
X96690476Y-76154819D02*
X96880952Y-76154819D01*
X96880952Y-76154819D02*
X96976190Y-76107200D01*
X96976190Y-76107200D02*
X97023809Y-76059580D01*
X97023809Y-76059580D02*
X97119047Y-75916723D01*
X97119047Y-75916723D02*
X97166666Y-75726247D01*
X97166666Y-75726247D02*
X97166666Y-75345295D01*
X97166666Y-75345295D02*
X97119047Y-75250057D01*
X97119047Y-75250057D02*
X97071428Y-75202438D01*
X97071428Y-75202438D02*
X96976190Y-75154819D01*
X96976190Y-75154819D02*
X96785714Y-75154819D01*
X96785714Y-75154819D02*
X96690476Y-75202438D01*
X96690476Y-75202438D02*
X96642857Y-75250057D01*
X96642857Y-75250057D02*
X96595238Y-75345295D01*
X96595238Y-75345295D02*
X96595238Y-75583390D01*
X96595238Y-75583390D02*
X96642857Y-75678628D01*
X96642857Y-75678628D02*
X96690476Y-75726247D01*
X96690476Y-75726247D02*
X96785714Y-75773866D01*
X96785714Y-75773866D02*
X96976190Y-75773866D01*
X96976190Y-75773866D02*
X97071428Y-75726247D01*
X97071428Y-75726247D02*
X97119047Y-75678628D01*
X97119047Y-75678628D02*
X97166666Y-75583390D01*
D13*
%TO.C,C17*%
X88820000Y-99589000D02*
X88820000Y-100589000D01*
X91980000Y-99589000D02*
X91980000Y-100589000D01*
D14*
%TO.C,L10*%
X46727500Y-98000000D02*
X47527500Y-98000000D01*
X47527500Y-93130000D02*
X47527500Y-102870000D01*
X47527500Y-102870000D02*
X56987500Y-102870000D01*
X56987500Y-93130000D02*
X47527500Y-93130000D01*
X56987500Y-102870000D02*
X56987500Y-93130000D01*
X57887500Y-98000000D02*
X57087500Y-98000000D01*
D13*
%TO.C,C6*%
X63120000Y-101389000D02*
X63120000Y-100389000D01*
X66280000Y-101389000D02*
X66280000Y-100389000D01*
%TO.C,C14*%
X123345000Y-67500000D02*
X123345000Y-68500000D01*
X126505000Y-67500000D02*
X126505000Y-68500000D01*
%TO.C,C4*%
X118920000Y-67440000D02*
X118920000Y-68440000D01*
X122080000Y-67440000D02*
X122080000Y-68440000D01*
%TO.C,C19*%
X138595000Y-97589000D02*
X138595000Y-98589000D01*
X141755000Y-97589000D02*
X141755000Y-98589000D01*
D14*
%TO.C,L2*%
X78580000Y-57940000D02*
X79380000Y-57940000D01*
X79380000Y-53070000D02*
X79380000Y-62810000D01*
X79380000Y-62810000D02*
X88840000Y-62810000D01*
X88840000Y-53070000D02*
X79380000Y-53070000D01*
X88840000Y-62810000D02*
X88840000Y-53070000D01*
X89740000Y-57940000D02*
X88940000Y-57940000D01*
%TO.C,J3*%
X176000000Y-82350000D02*
X176000000Y-107350000D01*
X176000000Y-107350000D02*
X189000000Y-107350000D01*
X189000000Y-82350000D02*
X176000000Y-82350000D01*
X189000000Y-107350000D02*
X189000000Y-82350000D01*
%TO.C,L4*%
X128227500Y-57940000D02*
X129027500Y-57940000D01*
X129027500Y-53070000D02*
X129027500Y-62810000D01*
X129027500Y-62810000D02*
X138487500Y-62810000D01*
X138487500Y-53070000D02*
X129027500Y-53070000D01*
X138487500Y-62810000D02*
X138487500Y-53070000D01*
X139387500Y-57940000D02*
X138587500Y-57940000D01*
%TO.C,J2*%
X174500000Y-55040000D02*
X189000000Y-55040000D01*
X174500000Y-72740000D02*
X174500000Y-55040000D01*
X189000000Y-55040000D02*
X189000000Y-72740000D01*
X189000000Y-72740000D02*
X174500000Y-72740000D01*
D13*
%TO.C,C13*%
X93595000Y-67425000D02*
X93595000Y-68425000D01*
X96755000Y-67425000D02*
X96755000Y-68425000D01*
D14*
%TO.C,L6*%
X146227500Y-94500000D02*
X147027500Y-94500000D01*
X147027500Y-89630000D02*
X147027500Y-99370000D01*
X147027500Y-99370000D02*
X156487500Y-99370000D01*
X156487500Y-89630000D02*
X147027500Y-89630000D01*
X156487500Y-99370000D02*
X156487500Y-89630000D01*
X157387500Y-94500000D02*
X156587500Y-94500000D01*
%TO.C,L7*%
X123130000Y-93512500D02*
X123130000Y-102972500D01*
X123130000Y-102972500D02*
X132870000Y-102972500D01*
X128000000Y-92612500D02*
X128000000Y-93412500D01*
X128000000Y-103772500D02*
X128000000Y-102972500D01*
X132870000Y-93512500D02*
X123130000Y-93512500D01*
X132870000Y-102972500D02*
X132870000Y-93512500D01*
D13*
%TO.C,C1*%
X50795000Y-67461000D02*
X50795000Y-68461000D01*
X53955000Y-67461000D02*
X53955000Y-68461000D01*
%TO.C,C7*%
X84020000Y-100489000D02*
X84020000Y-99489000D01*
X87180000Y-100489000D02*
X87180000Y-99489000D01*
D14*
%TO.C,L9*%
X72630000Y-94600000D02*
X72630000Y-104060000D01*
X72630000Y-104060000D02*
X82370000Y-104060000D01*
X77500000Y-93700000D02*
X77500000Y-94500000D01*
X77500000Y-104860000D02*
X77500000Y-104060000D01*
X82370000Y-94600000D02*
X72630000Y-94600000D01*
X82370000Y-104060000D02*
X82370000Y-94600000D01*
%TO.C,L8*%
X96227500Y-95500000D02*
X97027500Y-95500000D01*
X97027500Y-90630000D02*
X97027500Y-100370000D01*
X97027500Y-100370000D02*
X106487500Y-100370000D01*
X106487500Y-90630000D02*
X97027500Y-90630000D01*
X106487500Y-100370000D02*
X106487500Y-90630000D01*
X107387500Y-95500000D02*
X106587500Y-95500000D01*
D13*
%TO.C,C15*%
X143320000Y-66286000D02*
X143320000Y-67286000D01*
X146480000Y-66286000D02*
X146480000Y-67286000D01*
%TO.C,C20*%
X167395000Y-97328000D02*
X167395000Y-98328000D01*
X170555000Y-97328000D02*
X170555000Y-98328000D01*
%TO.C,C11*%
X46595000Y-67371000D02*
X46595000Y-68371000D01*
X49755000Y-67371000D02*
X49755000Y-68371000D01*
D14*
%TO.C,L1*%
X55630000Y-56600000D02*
X55630000Y-66060000D01*
X55630000Y-66060000D02*
X65370000Y-66060000D01*
X60500000Y-55700000D02*
X60500000Y-56500000D01*
X60500000Y-66860000D02*
X60500000Y-66060000D01*
X65370000Y-56600000D02*
X55630000Y-56600000D01*
X65370000Y-66060000D02*
X65370000Y-56600000D01*
%TO.C,J1*%
X32400000Y-67610000D02*
X32400000Y-92610000D01*
X32400000Y-92610000D02*
X45400000Y-92610000D01*
X45400000Y-67610000D02*
X32400000Y-67610000D01*
X45400000Y-92610000D02*
X45400000Y-67610000D01*
D13*
%TO.C,C5*%
X147895000Y-66361000D02*
X147895000Y-67361000D01*
X151055000Y-66361000D02*
X151055000Y-67361000D01*
%TO.C,C10*%
X162520000Y-98289000D02*
X162520000Y-97289000D01*
X165680000Y-98289000D02*
X165680000Y-97289000D01*
%TO.C,C2*%
X68920000Y-67440000D02*
X68920000Y-68440000D01*
X72080000Y-67440000D02*
X72080000Y-68440000D01*
%TO.C,C18*%
X117620000Y-98389000D02*
X117620000Y-99389000D01*
X120780000Y-98389000D02*
X120780000Y-99389000D01*
%TO.C,C8*%
X112820000Y-99189000D02*
X112820000Y-98189000D01*
X115980000Y-99189000D02*
X115980000Y-98189000D01*
%TO.C,C9*%
X133820000Y-98568000D02*
X133820000Y-97568000D01*
X136980000Y-98568000D02*
X136980000Y-97568000D01*
%TO.C,C12*%
X73320000Y-67536000D02*
X73320000Y-68536000D01*
X76480000Y-67536000D02*
X76480000Y-68536000D01*
D14*
%TO.C,L5*%
X153630000Y-55512500D02*
X153630000Y-64972500D01*
X153630000Y-64972500D02*
X163370000Y-64972500D01*
X158500000Y-54612500D02*
X158500000Y-55412500D01*
X158500000Y-65772500D02*
X158500000Y-64972500D01*
X163370000Y-55512500D02*
X153630000Y-55512500D01*
X163370000Y-64972500D02*
X163370000Y-55512500D01*
D13*
%TO.C,C16*%
X67820000Y-100789000D02*
X67820000Y-101789000D01*
X70980000Y-100789000D02*
X70980000Y-101789000D01*
D14*
%TO.C,L3*%
X105630000Y-56600000D02*
X105630000Y-66060000D01*
X105630000Y-66060000D02*
X115370000Y-66060000D01*
X110500000Y-55700000D02*
X110500000Y-56500000D01*
X110500000Y-66860000D02*
X110500000Y-66060000D01*
X115370000Y-56600000D02*
X105630000Y-56600000D01*
X115370000Y-66060000D02*
X115370000Y-56600000D01*
D13*
%TO.C,C3*%
X98030000Y-67440000D02*
X98030000Y-68440000D01*
X101190000Y-67440000D02*
X101190000Y-68440000D01*
%TD*%
M02*
