%TF.GenerationSoftware,KiCad,Pcbnew,8.0.6-8.0.6-0~ubuntu24.04.1*%
%TF.CreationDate,2024-10-28T17:30:21+01:00*%
%TF.ProjectId,diplexer,6469706c-6578-4657-922e-6b696361645f,rev?*%
%TF.SameCoordinates,Original*%
%TF.FileFunction,Copper,L1,Top*%
%TF.FilePolarity,Positive*%
%FSLAX46Y46*%
G04 Gerber Fmt 4.6, Leading zero omitted, Abs format (unit mm)*
G04 Created by KiCad (PCBNEW 8.0.6-8.0.6-0~ubuntu24.04.1) date 2024-10-28 17:30:21*
%MOMM*%
%LPD*%
G01*
G04 APERTURE LIST*
%TA.AperFunction,SMDPad,CuDef*%
%ADD10R,3.180000X1.190000*%
%TD*%
%TA.AperFunction,ComponentPad*%
%ADD11C,3.000000*%
%TD*%
%TA.AperFunction,ComponentPad*%
%ADD12C,5.600000*%
%TD*%
%TA.AperFunction,SMDPad,CuDef*%
%ADD13R,5.000000X5.000000*%
%TD*%
%TA.AperFunction,SMDPad,CuDef*%
%ADD14R,4.000000X4.000000*%
%TD*%
%TA.AperFunction,ViaPad*%
%ADD15C,0.600000*%
%TD*%
%TA.AperFunction,Conductor*%
%ADD16C,1.189800*%
%TD*%
%TA.AperFunction,Conductor*%
%ADD17C,2.390000*%
%TD*%
G04 APERTURE END LIST*
D10*
%TO.P,C17,1*%
%TO.N,Net-(C17-Pad1)*%
X90400000Y-98678000D03*
%TO.P,C17,2*%
%TO.N,GND*%
X90400000Y-101500000D03*
%TD*%
D11*
%TO.P,L10,1,1*%
%TO.N,Net-(J1-In)*%
X45487500Y-98000000D03*
%TO.P,L10,2,2*%
%TO.N,Net-(C16-Pad1)*%
X60087500Y-98000000D03*
%TD*%
D10*
%TO.P,C6,1*%
%TO.N,GND*%
X64700000Y-102300000D03*
%TO.P,C6,2*%
%TO.N,Net-(C16-Pad1)*%
X64700000Y-99478000D03*
%TD*%
%TO.P,C14,1*%
%TO.N,Net-(C13-Pad2)*%
X124925000Y-66589000D03*
%TO.P,C14,2*%
%TO.N,Net-(C14-Pad2)*%
X124925000Y-69411000D03*
%TD*%
%TO.P,C4,1*%
%TO.N,Net-(C13-Pad2)*%
X120500000Y-66529000D03*
%TO.P,C4,2*%
%TO.N,Net-(C14-Pad2)*%
X120500000Y-69351000D03*
%TD*%
D12*
%TO.P,J5,1,Pin_1*%
%TO.N,GND*%
X36500000Y-47500000D03*
%TD*%
D10*
%TO.P,C19,1*%
%TO.N,Net-(C19-Pad1)*%
X140175000Y-96678000D03*
%TO.P,C19,2*%
%TO.N,GND*%
X140175000Y-99500000D03*
%TD*%
D11*
%TO.P,L2,1,1*%
%TO.N,Net-(C12-Pad2)*%
X77340000Y-57940000D03*
%TO.P,L2,2,2*%
%TO.N,GND*%
X91940000Y-57940000D03*
%TD*%
D13*
%TO.P,J3,1,In*%
%TO.N,Net-(J3-In)*%
X184000000Y-94850000D03*
%TO.P,J3,2,Ext*%
%TO.N,GND*%
X184000000Y-103960000D03*
%TO.P,J3,3*%
X184000000Y-85750000D03*
%TD*%
D11*
%TO.P,L4,1,1*%
%TO.N,Net-(C14-Pad2)*%
X126987500Y-57940000D03*
%TO.P,L4,2,2*%
%TO.N,GND*%
X141587500Y-57940000D03*
%TD*%
D14*
%TO.P,J2,1,In*%
%TO.N,Net-(J2-In)*%
X176500000Y-63890000D03*
%TO.P,J2,2,Ext*%
%TO.N,GND*%
X185500000Y-57540000D03*
%TO.P,J2,3*%
X185500000Y-70240000D03*
%TD*%
D10*
%TO.P,C13,1*%
%TO.N,Net-(C12-Pad2)*%
X95175000Y-66514000D03*
%TO.P,C13,2*%
%TO.N,Net-(C13-Pad2)*%
X95175000Y-69336000D03*
%TD*%
D11*
%TO.P,L6,1,1*%
%TO.N,Net-(C19-Pad1)*%
X144987500Y-94500000D03*
%TO.P,L6,2,2*%
%TO.N,Net-(J3-In)*%
X159587500Y-94500000D03*
%TD*%
D12*
%TO.P,J7,1,Pin_1*%
%TO.N,GND*%
X185500000Y-47500000D03*
%TD*%
D11*
%TO.P,L7,1,1*%
%TO.N,Net-(C18-Pad1)*%
X128000000Y-105012500D03*
%TO.P,L7,2,2*%
%TO.N,Net-(C19-Pad1)*%
X128000000Y-90412500D03*
%TD*%
D10*
%TO.P,C1,1*%
%TO.N,Net-(J1-In)*%
X52375000Y-66550000D03*
%TO.P,C1,2*%
%TO.N,Net-(C1-Pad2)*%
X52375000Y-69372000D03*
%TD*%
%TO.P,C7,1*%
%TO.N,GND*%
X85600000Y-101400000D03*
%TO.P,C7,2*%
%TO.N,Net-(C17-Pad1)*%
X85600000Y-98578000D03*
%TD*%
D11*
%TO.P,L9,1,1*%
%TO.N,Net-(C16-Pad1)*%
X77500000Y-106100000D03*
%TO.P,L9,2,2*%
%TO.N,Net-(C17-Pad1)*%
X77500000Y-91500000D03*
%TD*%
D12*
%TO.P,J11,1,Pin_1*%
%TO.N,GND*%
X185500000Y-79500000D03*
%TD*%
%TO.P,J10,1,Pin_1*%
%TO.N,GND*%
X134500000Y-79500000D03*
%TD*%
%TO.P,J8,1,Pin_1*%
%TO.N,GND*%
X50500000Y-79500000D03*
%TD*%
D11*
%TO.P,L8,1,1*%
%TO.N,Net-(C17-Pad1)*%
X94987500Y-95500000D03*
%TO.P,L8,2,2*%
%TO.N,Net-(C18-Pad1)*%
X109587500Y-95500000D03*
%TD*%
D10*
%TO.P,C15,1*%
%TO.N,Net-(C14-Pad2)*%
X144900000Y-65375000D03*
%TO.P,C15,2*%
%TO.N,Net-(J2-In)*%
X144900000Y-68197000D03*
%TD*%
%TO.P,C20,1*%
%TO.N,Net-(J3-In)*%
X168975000Y-96417000D03*
%TO.P,C20,2*%
%TO.N,GND*%
X168975000Y-99239000D03*
%TD*%
%TO.P,C11,1*%
%TO.N,Net-(J1-In)*%
X48175000Y-66460000D03*
%TO.P,C11,2*%
%TO.N,Net-(C1-Pad2)*%
X48175000Y-69282000D03*
%TD*%
D11*
%TO.P,L1,1,1*%
%TO.N,Net-(C1-Pad2)*%
X60500000Y-68100000D03*
%TO.P,L1,2,2*%
%TO.N,GND*%
X60500000Y-53500000D03*
%TD*%
D13*
%TO.P,J1,1,In*%
%TO.N,Net-(J1-In)*%
X37400000Y-80110000D03*
%TO.P,J1,2,Ext*%
%TO.N,GND*%
X37400000Y-71000000D03*
%TO.P,J1,3*%
X37400000Y-89210000D03*
%TD*%
D10*
%TO.P,C5,1*%
%TO.N,Net-(C14-Pad2)*%
X149475000Y-65450000D03*
%TO.P,C5,2*%
%TO.N,Net-(J2-In)*%
X149475000Y-68272000D03*
%TD*%
%TO.P,C10,1*%
%TO.N,GND*%
X164100000Y-99200000D03*
%TO.P,C10,2*%
%TO.N,Net-(J3-In)*%
X164100000Y-96378000D03*
%TD*%
D12*
%TO.P,J6,1,Pin_1*%
%TO.N,GND*%
X185500000Y-111500000D03*
%TD*%
D10*
%TO.P,C2,1*%
%TO.N,Net-(C1-Pad2)*%
X70500000Y-66529000D03*
%TO.P,C2,2*%
%TO.N,Net-(C12-Pad2)*%
X70500000Y-69351000D03*
%TD*%
%TO.P,C18,1*%
%TO.N,Net-(C18-Pad1)*%
X119200000Y-97478000D03*
%TO.P,C18,2*%
%TO.N,GND*%
X119200000Y-100300000D03*
%TD*%
%TO.P,C8,1*%
%TO.N,GND*%
X114400000Y-100100000D03*
%TO.P,C8,2*%
%TO.N,Net-(C18-Pad1)*%
X114400000Y-97278000D03*
%TD*%
%TO.P,C9,1*%
%TO.N,GND*%
X135400000Y-99479000D03*
%TO.P,C9,2*%
%TO.N,Net-(C19-Pad1)*%
X135400000Y-96657000D03*
%TD*%
%TO.P,C12,1*%
%TO.N,Net-(C1-Pad2)*%
X74900000Y-66625000D03*
%TO.P,C12,2*%
%TO.N,Net-(C12-Pad2)*%
X74900000Y-69447000D03*
%TD*%
D11*
%TO.P,L5,1,1*%
%TO.N,Net-(J2-In)*%
X158500000Y-67012500D03*
%TO.P,L5,2,2*%
%TO.N,GND*%
X158500000Y-52412500D03*
%TD*%
D10*
%TO.P,C16,1*%
%TO.N,Net-(C16-Pad1)*%
X69400000Y-99878000D03*
%TO.P,C16,2*%
%TO.N,GND*%
X69400000Y-102700000D03*
%TD*%
D11*
%TO.P,L3,1,1*%
%TO.N,Net-(C13-Pad2)*%
X110500000Y-68100000D03*
%TO.P,L3,2,2*%
%TO.N,GND*%
X110500000Y-53500000D03*
%TD*%
D10*
%TO.P,C3,1*%
%TO.N,Net-(C12-Pad2)*%
X99610000Y-66529000D03*
%TO.P,C3,2*%
%TO.N,Net-(C13-Pad2)*%
X99610000Y-69351000D03*
%TD*%
D12*
%TO.P,J4,1,Pin_1*%
%TO.N,GND*%
X36500000Y-111500000D03*
%TD*%
%TO.P,J9,1,Pin_1*%
%TO.N,GND*%
X96500000Y-79500000D03*
%TD*%
D15*
%TO.N,GND*%
X85000000Y-110000000D03*
X80000000Y-45000000D03*
X80000000Y-85000000D03*
X115000000Y-85000000D03*
X170000000Y-75000000D03*
X60000000Y-110000000D03*
X130000000Y-110000000D03*
X65000000Y-45000000D03*
X95000000Y-75000000D03*
X155000000Y-45000000D03*
X100000000Y-110000000D03*
X75000000Y-85000000D03*
X85000000Y-85000000D03*
X75000000Y-85000000D03*
X90000000Y-85000000D03*
X50000000Y-110000000D03*
X150000000Y-45000000D03*
X125000000Y-75000000D03*
X145000000Y-75000000D03*
X110000000Y-85000000D03*
X90000000Y-110000000D03*
X150000000Y-85000000D03*
X175000000Y-85000000D03*
X135000000Y-45000000D03*
X120000000Y-75000000D03*
X115000000Y-110000000D03*
X70000000Y-75000000D03*
X135000000Y-85000000D03*
X60000000Y-45000000D03*
X120000000Y-45000000D03*
X140000000Y-45000000D03*
X105000000Y-75000000D03*
X75000000Y-110000000D03*
X110000000Y-75000000D03*
X150000000Y-110000000D03*
X100000000Y-85000000D03*
X95000000Y-45000000D03*
X75000000Y-45000000D03*
X175000000Y-75000000D03*
X145000000Y-110000000D03*
X85000000Y-45000000D03*
X120000000Y-110000000D03*
X65000000Y-75000000D03*
X130000000Y-45000000D03*
X145000000Y-85000000D03*
X165000000Y-110000000D03*
X160000000Y-45000000D03*
X55000000Y-45000000D03*
X125000000Y-110000000D03*
X130000000Y-85000000D03*
X65000000Y-85000000D03*
X120000000Y-85000000D03*
X115000000Y-75000000D03*
X140000000Y-110000000D03*
X125000000Y-85000000D03*
X135000000Y-110000000D03*
X50000000Y-45000000D03*
X55000000Y-75000000D03*
X165000000Y-75000000D03*
X70000000Y-110000000D03*
X155000000Y-75000000D03*
X55000000Y-110000000D03*
X145000000Y-45000000D03*
X105000000Y-45000000D03*
X115000000Y-45000000D03*
X60000000Y-75000000D03*
X105000000Y-85000000D03*
X170000000Y-110000000D03*
X50000000Y-75000000D03*
X110000000Y-45000000D03*
X45000000Y-45000000D03*
X95000000Y-110000000D03*
X105000000Y-110000000D03*
X155000000Y-85000000D03*
X90000000Y-75000000D03*
X160000000Y-110000000D03*
X65000000Y-110000000D03*
X140000000Y-75000000D03*
X165000000Y-45000000D03*
X180000000Y-45000000D03*
X140000000Y-85000000D03*
X150000000Y-75000000D03*
X180000000Y-85000000D03*
X50000000Y-85000000D03*
X130000000Y-75000000D03*
X125000000Y-45000000D03*
X100000000Y-75000000D03*
X70000000Y-45000000D03*
X180000000Y-75000000D03*
X95000000Y-85000000D03*
X135000000Y-75000000D03*
X170000000Y-85000000D03*
X60000000Y-85000000D03*
X155000000Y-110000000D03*
X175000000Y-110000000D03*
X170000000Y-45000000D03*
X180000000Y-110000000D03*
X110000000Y-110000000D03*
X160000000Y-85000000D03*
X85000000Y-75000000D03*
X55000000Y-85000000D03*
X175000000Y-45000000D03*
X70000000Y-85000000D03*
X75000000Y-75000000D03*
X80000000Y-110000000D03*
X90000000Y-45000000D03*
X160000000Y-75000000D03*
X165000000Y-85000000D03*
X80000000Y-75000000D03*
X100000000Y-45000000D03*
%TD*%
D16*
%TO.N,Net-(J2-In)*%
X149475000Y-68272000D02*
X144975000Y-68272000D01*
X144975000Y-68272000D02*
X144900000Y-68197000D01*
%TO.N,Net-(C13-Pad2)*%
X120287600Y-66529000D02*
X124865000Y-66529000D01*
X124865000Y-66529000D02*
X124925000Y-66589000D01*
%TO.N,Net-(C12-Pad2)*%
X95175000Y-66514000D02*
X99595000Y-66514000D01*
X99595000Y-66514000D02*
X99610000Y-66529000D01*
%TO.N,Net-(C1-Pad2)*%
X70287600Y-66529000D02*
X74804000Y-66529000D01*
X74804000Y-66529000D02*
X74900000Y-66625000D01*
X60500000Y-66560800D02*
X67088300Y-66560800D01*
X52375000Y-69372000D02*
X51806800Y-69940200D01*
X52375000Y-69372000D02*
X55754900Y-69372000D01*
X60500000Y-69340200D02*
X55786700Y-69340200D01*
X55786700Y-69340200D02*
X55754900Y-69372000D01*
D17*
X60500000Y-69340200D02*
X60500000Y-68100000D01*
X60500000Y-68100000D02*
X60500000Y-66560800D01*
D16*
X70287600Y-66529000D02*
X67120100Y-66529000D01*
X67088300Y-66560800D02*
X67120100Y-66529000D01*
X70500000Y-66529000D02*
X70287600Y-66529000D01*
X51806800Y-69940200D02*
X49364800Y-69940200D01*
%TO.N,Net-(J1-In)*%
X51554900Y-66460000D02*
X51586700Y-66491800D01*
D17*
X45487500Y-98000000D02*
X45487500Y-88197500D01*
X42096700Y-75413300D02*
X42096700Y-66491800D01*
D16*
X48175000Y-66460000D02*
X51554900Y-66460000D01*
X51586700Y-66491800D02*
X52375000Y-66491800D01*
D17*
X52375000Y-66550000D02*
X52375000Y-66491800D01*
D16*
X48175000Y-66460000D02*
X44795100Y-66460000D01*
X42096700Y-66491800D02*
X44763300Y-66491800D01*
D17*
X45487500Y-88197500D02*
X37400000Y-80110000D01*
D16*
X44763300Y-66491800D02*
X44795100Y-66460000D01*
D17*
X37400000Y-80110000D02*
X42096700Y-75413300D01*
%TO.N,Net-(J3-In)*%
X171065000Y-95939000D02*
X173055000Y-95939000D01*
X171065000Y-95939000D02*
X171065000Y-95931800D01*
X184000000Y-94850000D02*
X174144000Y-94850000D01*
D16*
X171065000Y-95931800D02*
X167611700Y-95931800D01*
D17*
X169075000Y-95939000D02*
X171065000Y-95939000D01*
D16*
X167611700Y-95931800D02*
X167579900Y-95900000D01*
D17*
X159587500Y-94500000D02*
X160220000Y-95132500D01*
X164200000Y-95900000D02*
X160220000Y-95900000D01*
X174144000Y-94850000D02*
X173055000Y-95939000D01*
D16*
X164200000Y-95900000D02*
X167579900Y-95900000D01*
D17*
X160220000Y-95132500D02*
X160220000Y-95900000D01*
D16*
%TO.N,Net-(C12-Pad2)*%
X78848100Y-70015200D02*
X78279900Y-69447000D01*
X83153800Y-70015200D02*
X78848100Y-70015200D01*
D17*
X85914000Y-66514000D02*
X85914000Y-67255000D01*
X70500000Y-69351000D02*
X70500000Y-69415200D01*
D16*
X74900000Y-69447000D02*
X78279900Y-69447000D01*
X71488300Y-69415200D02*
X70500000Y-69415200D01*
D17*
X95175000Y-66514000D02*
X85914000Y-66514000D01*
X85914000Y-66514000D02*
X77340000Y-57940000D01*
D16*
X71520100Y-69447000D02*
X71488300Y-69415200D01*
D17*
X85914000Y-67255000D02*
X83153800Y-70015200D01*
D16*
X74900000Y-69447000D02*
X71520100Y-69447000D01*
%TO.N,Net-(C13-Pad2)*%
X98554900Y-69564900D02*
X98554900Y-69336000D01*
D17*
X100084000Y-69351000D02*
X99530800Y-69904200D01*
D16*
X98894200Y-69904200D02*
X98554900Y-69564900D01*
X100084000Y-69351000D02*
X100558000Y-69351000D01*
D17*
X100655000Y-69351000D02*
X100558000Y-69351000D01*
D16*
X100655000Y-69351000D02*
X102989900Y-69351000D01*
D17*
X110500000Y-68100000D02*
X110500000Y-69319200D01*
D16*
X120500000Y-66529000D02*
X120287600Y-66529000D01*
X120287600Y-66529000D02*
X117120100Y-66529000D01*
X95175000Y-69336000D02*
X98554900Y-69336000D01*
X99610000Y-69351000D02*
X100084000Y-69351000D01*
X111934700Y-66529000D02*
X117120100Y-66529000D01*
D17*
X110500000Y-68100000D02*
X111934700Y-66665300D01*
D16*
X103021700Y-69319200D02*
X102989900Y-69351000D01*
D17*
X111934700Y-66665300D02*
X111934700Y-66529000D01*
X99530800Y-69904200D02*
X98894200Y-69904200D01*
D16*
X110500000Y-69319200D02*
X103021700Y-69319200D01*
%TO.N,Net-(C14-Pad2)*%
X121513300Y-69379200D02*
X120500000Y-69379200D01*
X144900000Y-65375000D02*
X148279900Y-65375000D01*
D17*
X149475000Y-65450000D02*
X149475000Y-65406800D01*
D16*
X131705000Y-69379200D02*
X128336700Y-69379200D01*
X121545100Y-69411000D02*
X121513300Y-69379200D01*
X148311700Y-65406800D02*
X149475000Y-65406800D01*
X124925000Y-69411000D02*
X128304900Y-69411000D01*
X148279900Y-65375000D02*
X148311700Y-65406800D01*
X124925000Y-69411000D02*
X121545100Y-69411000D01*
D17*
X126987500Y-57940000D02*
X131705000Y-62657500D01*
D16*
X128336700Y-69379200D02*
X128304900Y-69411000D01*
D17*
X131705000Y-65375000D02*
X144900000Y-65375000D01*
X131705000Y-65375000D02*
X131705000Y-69379200D01*
X131705000Y-62657500D02*
X131705000Y-65375000D01*
%TO.N,Net-(C16-Pad1)*%
X69500000Y-99089000D02*
X73480000Y-99089000D01*
X69161000Y-98750000D02*
X69500000Y-99089000D01*
X64650000Y-98750000D02*
X60670000Y-98750000D01*
X60087500Y-98000000D02*
X60670000Y-98582500D01*
X77500000Y-106100000D02*
X77500000Y-103109000D01*
X64650000Y-98750000D02*
X69161000Y-98750000D01*
X60670000Y-98582500D02*
X60670000Y-98750000D01*
X77500000Y-103109000D02*
X73480000Y-99089000D01*
%TO.N,Net-(C17-Pad1)*%
X80613500Y-91500000D02*
X85600000Y-96486500D01*
X92365000Y-98025000D02*
X92365000Y-98010800D01*
X94987500Y-95500000D02*
X94355000Y-96132500D01*
D16*
X85600000Y-97979000D02*
X88979900Y-97979000D01*
X89011700Y-98010800D02*
X88979900Y-97979000D01*
D17*
X94355000Y-96132500D02*
X94355000Y-98025000D01*
X90375000Y-98025000D02*
X92365000Y-98025000D01*
X85600000Y-97979000D02*
X85600000Y-96486500D01*
X92365000Y-98025000D02*
X94355000Y-98025000D01*
X77500000Y-91500000D02*
X80613500Y-91500000D01*
D16*
X92365000Y-98010800D02*
X89011700Y-98010800D01*
D17*
%TO.N,Net-(C18-Pad1)*%
X109587500Y-95500000D02*
X110420000Y-96332500D01*
X117210000Y-96614000D02*
X114414000Y-96614000D01*
X128000000Y-101434000D02*
X123180000Y-96614000D01*
X114400000Y-96600000D02*
X110420000Y-96600000D01*
X110420000Y-96332500D02*
X110420000Y-96600000D01*
X119200000Y-96614000D02*
X117210000Y-96614000D01*
X119200000Y-96614000D02*
X123180000Y-96614000D01*
X114414000Y-96614000D02*
X114400000Y-96600000D01*
X128000000Y-105012500D02*
X128000000Y-101434000D01*
%TO.N,Net-(C19-Pad1)*%
X135500000Y-95979000D02*
X135500000Y-92994000D01*
X144255000Y-95232500D02*
X144987500Y-94500000D01*
X144255000Y-96000000D02*
X144255000Y-95232500D01*
X139501000Y-96000000D02*
X140275000Y-96000000D01*
X128000000Y-90412500D02*
X132918500Y-90412500D01*
X140275000Y-96000000D02*
X144255000Y-96000000D01*
X132918500Y-90412500D02*
X135500000Y-92994000D01*
X135500000Y-95979000D02*
X139480000Y-95979000D01*
X139480000Y-95979000D02*
X139501000Y-96000000D01*
D16*
%TO.N,Net-(J2-In)*%
X158500000Y-68240200D02*
X152886700Y-68240200D01*
D17*
X168987500Y-67012500D02*
X158500000Y-67012500D01*
D16*
X149687500Y-68272000D02*
X152854900Y-68272000D01*
D17*
X176500000Y-63890000D02*
X172110000Y-63890000D01*
D16*
X149475000Y-68272000D02*
X149687500Y-68272000D01*
D17*
X172110000Y-63890000D02*
X168987500Y-67012500D01*
D16*
X152886700Y-68240200D02*
X152854900Y-68272000D01*
%TD*%
%TA.AperFunction,Conductor*%
%TO.N,GND*%
G36*
X188442539Y-29320185D02*
G01*
X188488294Y-29372989D01*
X188499500Y-29424500D01*
X188499500Y-90513896D01*
X188479815Y-90580935D01*
X188427011Y-90626690D01*
X188357853Y-90636634D01*
X188294297Y-90607609D01*
X188287819Y-90601577D01*
X188156879Y-90470637D01*
X187908277Y-90277802D01*
X187908271Y-90277798D01*
X187908268Y-90277796D01*
X187739345Y-90177894D01*
X187637447Y-90117632D01*
X187348684Y-89992674D01*
X187046551Y-89904895D01*
X187046543Y-89904893D01*
X186735782Y-89855674D01*
X186604844Y-89849500D01*
X186604840Y-89849500D01*
X181395160Y-89849500D01*
X181395156Y-89849500D01*
X181264219Y-89855674D01*
X181264214Y-89855674D01*
X180953456Y-89904893D01*
X180953448Y-89904895D01*
X180651315Y-89992674D01*
X180362552Y-90117632D01*
X180201094Y-90213119D01*
X180091732Y-90277796D01*
X180091728Y-90277798D01*
X180091723Y-90277802D01*
X180091722Y-90277802D01*
X179843120Y-90470637D01*
X179843120Y-90470638D01*
X179620638Y-90693120D01*
X179620637Y-90693120D01*
X179427802Y-90941722D01*
X179427797Y-90941729D01*
X179353196Y-91067872D01*
X179339015Y-91091853D01*
X179337969Y-91093621D01*
X179286900Y-91141305D01*
X179231237Y-91154500D01*
X174325549Y-91154500D01*
X173962452Y-91154500D01*
X173880038Y-91162616D01*
X173601104Y-91190088D01*
X173245004Y-91260920D01*
X173244993Y-91260923D01*
X172897520Y-91366327D01*
X172562062Y-91505279D01*
X172562057Y-91505281D01*
X172241853Y-91676434D01*
X172241825Y-91676451D01*
X171939955Y-91878153D01*
X171939932Y-91878170D01*
X171659261Y-92108512D01*
X171613407Y-92154367D01*
X171560591Y-92207182D01*
X171499271Y-92240666D01*
X171472912Y-92243500D01*
X171325744Y-92243500D01*
X171313591Y-92242903D01*
X171290877Y-92240666D01*
X171246548Y-92236300D01*
X170883452Y-92236300D01*
X170839123Y-92240666D01*
X170816409Y-92242903D01*
X170804256Y-92243500D01*
X168893452Y-92243500D01*
X168811038Y-92251616D01*
X168532104Y-92279088D01*
X168176004Y-92349920D01*
X168175993Y-92349923D01*
X167828520Y-92455327D01*
X167493062Y-92594279D01*
X167493057Y-92594281D01*
X167172841Y-92765441D01*
X167172838Y-92765443D01*
X167145514Y-92783701D01*
X167078837Y-92804580D01*
X167076622Y-92804600D01*
X166256746Y-92804600D01*
X166189707Y-92784915D01*
X166187855Y-92783702D01*
X166102164Y-92726445D01*
X166102163Y-92726444D01*
X166102158Y-92726441D01*
X166102153Y-92726438D01*
X166102146Y-92726434D01*
X165781942Y-92555281D01*
X165781937Y-92555279D01*
X165446479Y-92416327D01*
X165099006Y-92310923D01*
X165098995Y-92310920D01*
X164742895Y-92240088D01*
X164470742Y-92213284D01*
X164381548Y-92204500D01*
X164381545Y-92204500D01*
X162928114Y-92204500D01*
X162861075Y-92184815D01*
X162828516Y-92154367D01*
X162790783Y-92103490D01*
X162683658Y-91959049D01*
X162683653Y-91959043D01*
X162419692Y-91667807D01*
X162128456Y-91403846D01*
X161812736Y-91169692D01*
X161475600Y-90967620D01*
X161120272Y-90799562D01*
X161120270Y-90799561D01*
X160750184Y-90667143D01*
X160368906Y-90571637D01*
X160368901Y-90571636D01*
X160368900Y-90571636D01*
X160224756Y-90550254D01*
X159980099Y-90513963D01*
X159980097Y-90513962D01*
X159980091Y-90513962D01*
X159587500Y-90494675D01*
X159194909Y-90513962D01*
X159194903Y-90513962D01*
X159194900Y-90513963D01*
X158806093Y-90571637D01*
X158424815Y-90667143D01*
X158054729Y-90799561D01*
X158054727Y-90799562D01*
X157699399Y-90967620D01*
X157362263Y-91169692D01*
X157046543Y-91403846D01*
X156755307Y-91667807D01*
X156491346Y-91959043D01*
X156257192Y-92274763D01*
X156055120Y-92611899D01*
X155887062Y-92967227D01*
X155887061Y-92967229D01*
X155754643Y-93337315D01*
X155659137Y-93718593D01*
X155622256Y-93967229D01*
X155601462Y-94107409D01*
X155582175Y-94500000D01*
X155601462Y-94892591D01*
X155601462Y-94892597D01*
X155601463Y-94892599D01*
X155606203Y-94924552D01*
X155647126Y-95200438D01*
X155659137Y-95281406D01*
X155754643Y-95662684D01*
X155887061Y-96032770D01*
X155887062Y-96032772D01*
X156055120Y-96388100D01*
X156257192Y-96725236D01*
X156491346Y-97040956D01*
X156652354Y-97218600D01*
X156755308Y-97332192D01*
X156816993Y-97388100D01*
X156827449Y-97397577D01*
X156858735Y-97442000D01*
X156875273Y-97481925D01*
X156875282Y-97481943D01*
X157046434Y-97802146D01*
X157046445Y-97802164D01*
X157248161Y-98104053D01*
X157248171Y-98104067D01*
X157478517Y-98384744D01*
X157735255Y-98641482D01*
X157735260Y-98641486D01*
X157735261Y-98641487D01*
X158015938Y-98871833D01*
X158317842Y-99073559D01*
X158317851Y-99073564D01*
X158317853Y-99073565D01*
X158638057Y-99244718D01*
X158638059Y-99244718D01*
X158638065Y-99244722D01*
X158973522Y-99383673D01*
X159320984Y-99489074D01*
X159320990Y-99489075D01*
X159320993Y-99489076D01*
X159321004Y-99489079D01*
X159677104Y-99559911D01*
X160038452Y-99595500D01*
X160038455Y-99595500D01*
X164381545Y-99595500D01*
X164381548Y-99595500D01*
X164742896Y-99559911D01*
X164812221Y-99546121D01*
X165098995Y-99489079D01*
X165099003Y-99489076D01*
X165099016Y-99489074D01*
X165132757Y-99478839D01*
X165168751Y-99473500D01*
X165794844Y-99473500D01*
X165869664Y-99469971D01*
X165925783Y-99467325D01*
X165925785Y-99467325D01*
X166236543Y-99418106D01*
X166236547Y-99418105D01*
X166305925Y-99397948D01*
X166440473Y-99358858D01*
X166510342Y-99359057D01*
X166524308Y-99364129D01*
X166536311Y-99369324D01*
X166585697Y-99383672D01*
X166838448Y-99457104D01*
X166838456Y-99457106D01*
X167149217Y-99506325D01*
X167280156Y-99512500D01*
X167280160Y-99512500D01*
X168106249Y-99512500D01*
X168142243Y-99517839D01*
X168175984Y-99528074D01*
X168175993Y-99528075D01*
X168176004Y-99528079D01*
X168482650Y-99589074D01*
X168532104Y-99598911D01*
X168893452Y-99634500D01*
X168893455Y-99634500D01*
X173236545Y-99634500D01*
X173236548Y-99634500D01*
X173597896Y-99598911D01*
X173734001Y-99571838D01*
X173953995Y-99528079D01*
X173954006Y-99528076D01*
X173954006Y-99528075D01*
X173954016Y-99528074D01*
X174301479Y-99422673D01*
X174636936Y-99283722D01*
X174957158Y-99112559D01*
X175259062Y-98910833D01*
X175539739Y-98680487D01*
X175638408Y-98581817D01*
X175699729Y-98548334D01*
X175726088Y-98545500D01*
X179231237Y-98545500D01*
X179298276Y-98565185D01*
X179337969Y-98606379D01*
X179427797Y-98758270D01*
X179427802Y-98758277D01*
X179620637Y-99006879D01*
X179843120Y-99229362D01*
X180091722Y-99422197D01*
X180091726Y-99422199D01*
X180091732Y-99422204D01*
X180362552Y-99582367D01*
X180651311Y-99707324D01*
X180705419Y-99723043D01*
X180953448Y-99795104D01*
X180953456Y-99795106D01*
X181264217Y-99844325D01*
X181395156Y-99850500D01*
X181395160Y-99850500D01*
X186604844Y-99850500D01*
X186679664Y-99846971D01*
X186735783Y-99844325D01*
X186735785Y-99844325D01*
X187046543Y-99795106D01*
X187046551Y-99795104D01*
X187214447Y-99746325D01*
X187348689Y-99707324D01*
X187637448Y-99582367D01*
X187908268Y-99422204D01*
X188008160Y-99344720D01*
X188156879Y-99229362D01*
X188156880Y-99229362D01*
X188287819Y-99098423D01*
X188349142Y-99064938D01*
X188418834Y-99069922D01*
X188474767Y-99111794D01*
X188499184Y-99177258D01*
X188499500Y-99186104D01*
X188499500Y-129175500D01*
X188479815Y-129242539D01*
X188427011Y-129288294D01*
X188375500Y-129299500D01*
X32624500Y-129299500D01*
X32557461Y-129279815D01*
X32511706Y-129227011D01*
X32500500Y-129175500D01*
X32500500Y-83918108D01*
X32520185Y-83851069D01*
X32572989Y-83805314D01*
X32642147Y-83795370D01*
X32705703Y-83824395D01*
X32731230Y-83854985D01*
X32798256Y-83968319D01*
X32827797Y-84018270D01*
X32827802Y-84018277D01*
X33020637Y-84266879D01*
X33243120Y-84489362D01*
X33491722Y-84682197D01*
X33491726Y-84682199D01*
X33491732Y-84682204D01*
X33762552Y-84842367D01*
X34051311Y-84967324D01*
X34105419Y-84983043D01*
X34353448Y-85055104D01*
X34353456Y-85055106D01*
X34664217Y-85104325D01*
X34795156Y-85110500D01*
X34795160Y-85110500D01*
X37122912Y-85110500D01*
X37189951Y-85130185D01*
X37210593Y-85146819D01*
X41755681Y-89691907D01*
X41789166Y-89753230D01*
X41792000Y-89779588D01*
X41792000Y-96431911D01*
X41784752Y-96473685D01*
X41654643Y-96837315D01*
X41559137Y-97218593D01*
X41505240Y-97581942D01*
X41501462Y-97607409D01*
X41482175Y-98000000D01*
X41501462Y-98392591D01*
X41501462Y-98392597D01*
X41501463Y-98392599D01*
X41559137Y-98781406D01*
X41654643Y-99162684D01*
X41787061Y-99532770D01*
X41787062Y-99532772D01*
X41955120Y-99888100D01*
X42157192Y-100225236D01*
X42157194Y-100225239D01*
X42374398Y-100518105D01*
X42391346Y-100540956D01*
X42655307Y-100832192D01*
X42946543Y-101096153D01*
X42946549Y-101096158D01*
X43262261Y-101330306D01*
X43262263Y-101330307D01*
X43599399Y-101532379D01*
X43599402Y-101532380D01*
X43599403Y-101532381D01*
X43954728Y-101700438D01*
X44324816Y-101832857D01*
X44706100Y-101928364D01*
X45094909Y-101986038D01*
X45487500Y-102005325D01*
X45880091Y-101986038D01*
X46268900Y-101928364D01*
X46650184Y-101832857D01*
X47020272Y-101700438D01*
X47375597Y-101532381D01*
X47712739Y-101330306D01*
X48028451Y-101096158D01*
X48319692Y-100832192D01*
X48583658Y-100540951D01*
X48817806Y-100225239D01*
X49019881Y-99888097D01*
X49187938Y-99532772D01*
X49320357Y-99162684D01*
X49415864Y-98781400D01*
X49473538Y-98392591D01*
X49492825Y-98000000D01*
X56082175Y-98000000D01*
X56101462Y-98392591D01*
X56101462Y-98392597D01*
X56101463Y-98392599D01*
X56159137Y-98781406D01*
X56254643Y-99162684D01*
X56387061Y-99532770D01*
X56387062Y-99532772D01*
X56555120Y-99888100D01*
X56757192Y-100225236D01*
X56757194Y-100225239D01*
X56974398Y-100518105D01*
X56991346Y-100540956D01*
X57255307Y-100832192D01*
X57546543Y-101096153D01*
X57546549Y-101096158D01*
X57862261Y-101330306D01*
X58199403Y-101532381D01*
X58199406Y-101532382D01*
X58199410Y-101532385D01*
X58269808Y-101565681D01*
X58295456Y-101581922D01*
X58339544Y-101618104D01*
X58465938Y-101721833D01*
X58767842Y-101923559D01*
X58767851Y-101923564D01*
X58767853Y-101923565D01*
X59088057Y-102094718D01*
X59088059Y-102094718D01*
X59088065Y-102094722D01*
X59423522Y-102233673D01*
X59770984Y-102339074D01*
X59770990Y-102339075D01*
X59770993Y-102339076D01*
X59771004Y-102339079D01*
X60127104Y-102409911D01*
X60488452Y-102445500D01*
X60851548Y-102445500D01*
X62295900Y-102445500D01*
X62330495Y-102450424D01*
X62563448Y-102518104D01*
X62563456Y-102518106D01*
X62874217Y-102567325D01*
X63005156Y-102573500D01*
X63005160Y-102573500D01*
X66394840Y-102573500D01*
X66408489Y-102572856D01*
X66476381Y-102589359D01*
X66477454Y-102589986D01*
X66672546Y-102705364D01*
X66672550Y-102705366D01*
X66672552Y-102705367D01*
X66961311Y-102830324D01*
X67015419Y-102846043D01*
X67263448Y-102918104D01*
X67263456Y-102918106D01*
X67574217Y-102967325D01*
X67705156Y-102973500D01*
X67705160Y-102973500D01*
X71094844Y-102973500D01*
X71169664Y-102969971D01*
X71225783Y-102967325D01*
X71225785Y-102967325D01*
X71536543Y-102918106D01*
X71536551Y-102918104D01*
X71687617Y-102874214D01*
X71838689Y-102830324D01*
X71870519Y-102816549D01*
X71939861Y-102807991D01*
X72002824Y-102838281D01*
X72007445Y-102842671D01*
X73726234Y-104561460D01*
X73759719Y-104622783D01*
X73755305Y-104690914D01*
X73667144Y-104937311D01*
X73571637Y-105318593D01*
X73571636Y-105318600D01*
X73513962Y-105707409D01*
X73494675Y-106100000D01*
X73513962Y-106492591D01*
X73513962Y-106492597D01*
X73513963Y-106492599D01*
X73571637Y-106881406D01*
X73667143Y-107262684D01*
X73799561Y-107632770D01*
X73799562Y-107632772D01*
X73967620Y-107988100D01*
X74039877Y-108108653D01*
X74169694Y-108325239D01*
X74182723Y-108342807D01*
X74403846Y-108640956D01*
X74667807Y-108932192D01*
X74959043Y-109196153D01*
X74959049Y-109196158D01*
X75274761Y-109430306D01*
X75274763Y-109430307D01*
X75611899Y-109632379D01*
X75611902Y-109632380D01*
X75611903Y-109632381D01*
X75967228Y-109800438D01*
X76337316Y-109932857D01*
X76718600Y-110028364D01*
X77107409Y-110086038D01*
X77500000Y-110105325D01*
X77892591Y-110086038D01*
X78281400Y-110028364D01*
X78662684Y-109932857D01*
X79032772Y-109800438D01*
X79388097Y-109632381D01*
X79725239Y-109430306D01*
X80040951Y-109196158D01*
X80332192Y-108932192D01*
X80596158Y-108640951D01*
X80830306Y-108325239D01*
X81032381Y-107988097D01*
X81200438Y-107632772D01*
X81332857Y-107262684D01*
X81428364Y-106881400D01*
X81486038Y-106492591D01*
X81505325Y-106100000D01*
X81486038Y-105707409D01*
X81428364Y-105318600D01*
X81332857Y-104937316D01*
X81202747Y-104573683D01*
X81195500Y-104531911D01*
X81195500Y-102927455D01*
X81194579Y-102918106D01*
X81159911Y-102566104D01*
X81136901Y-102450424D01*
X81089079Y-102210004D01*
X81089076Y-102209993D01*
X81089075Y-102209990D01*
X81089074Y-102209984D01*
X80983673Y-101862522D01*
X80844722Y-101527065D01*
X80834891Y-101508673D01*
X80673565Y-101206853D01*
X80673564Y-101206851D01*
X80673559Y-101206842D01*
X80606312Y-101106200D01*
X80471834Y-100904938D01*
X80241487Y-100624261D01*
X80241486Y-100624260D01*
X80241482Y-100624255D01*
X75964744Y-96347517D01*
X75684067Y-96117171D01*
X75684066Y-96117170D01*
X75684062Y-96117167D01*
X75382158Y-95915441D01*
X75382153Y-95915438D01*
X75382146Y-95915434D01*
X75061943Y-95744281D01*
X75061938Y-95744279D01*
X74726480Y-95605327D01*
X74379006Y-95499923D01*
X74378995Y-95499920D01*
X74022895Y-95429088D01*
X73750742Y-95402284D01*
X73661548Y-95393500D01*
X73661545Y-95393500D01*
X70739166Y-95393500D01*
X70691713Y-95384061D01*
X70407480Y-95266327D01*
X70263111Y-95222533D01*
X70060016Y-95160926D01*
X70060011Y-95160925D01*
X70060008Y-95160924D01*
X70059996Y-95160921D01*
X70054912Y-95159910D01*
X70054911Y-95159910D01*
X69703895Y-95090088D01*
X69431742Y-95063284D01*
X69342548Y-95054500D01*
X69342545Y-95054500D01*
X62842508Y-95054500D01*
X62775469Y-95034815D01*
X62759235Y-95022378D01*
X62628456Y-94903846D01*
X62613291Y-94892599D01*
X62312739Y-94669694D01*
X62286095Y-94653724D01*
X61975600Y-94467620D01*
X61620272Y-94299562D01*
X61620270Y-94299561D01*
X61250184Y-94167143D01*
X60868906Y-94071637D01*
X60868901Y-94071636D01*
X60868900Y-94071636D01*
X60662071Y-94040956D01*
X60480099Y-94013963D01*
X60480097Y-94013962D01*
X60480091Y-94013962D01*
X60087500Y-93994675D01*
X59694909Y-94013962D01*
X59694903Y-94013962D01*
X59694900Y-94013963D01*
X59306093Y-94071637D01*
X58924815Y-94167143D01*
X58554729Y-94299561D01*
X58554727Y-94299562D01*
X58199399Y-94467620D01*
X57862263Y-94669692D01*
X57546543Y-94903846D01*
X57255307Y-95167807D01*
X56991346Y-95459043D01*
X56757192Y-95774763D01*
X56555120Y-96111899D01*
X56387062Y-96467227D01*
X56387061Y-96467229D01*
X56254643Y-96837315D01*
X56159137Y-97218593D01*
X56105240Y-97581942D01*
X56101462Y-97607409D01*
X56082175Y-98000000D01*
X49492825Y-98000000D01*
X49473538Y-97607409D01*
X49415864Y-97218600D01*
X49320357Y-96837316D01*
X49190247Y-96473683D01*
X49183000Y-96431911D01*
X49183000Y-91500000D01*
X73494675Y-91500000D01*
X73513962Y-91892591D01*
X73513962Y-91892597D01*
X73513963Y-91892599D01*
X73571637Y-92281406D01*
X73667143Y-92662684D01*
X73799561Y-93032770D01*
X73799562Y-93032772D01*
X73967620Y-93388100D01*
X74165715Y-93718600D01*
X74169694Y-93725239D01*
X74383826Y-94013963D01*
X74403846Y-94040956D01*
X74667807Y-94332192D01*
X74946012Y-94584342D01*
X74959049Y-94596158D01*
X75274761Y-94830306D01*
X75274763Y-94830307D01*
X75611899Y-95032379D01*
X75611902Y-95032380D01*
X75611903Y-95032381D01*
X75967228Y-95200438D01*
X76337316Y-95332857D01*
X76718600Y-95428364D01*
X77107409Y-95486038D01*
X77500000Y-95505325D01*
X77892591Y-95486038D01*
X78281400Y-95428364D01*
X78662684Y-95332857D01*
X78999304Y-95212412D01*
X79069055Y-95208363D01*
X79128758Y-95241484D01*
X81487244Y-97599970D01*
X81520729Y-97661293D01*
X81522037Y-97707048D01*
X81515674Y-97747224D01*
X81509500Y-97878155D01*
X81509500Y-99277844D01*
X81515674Y-99408780D01*
X81515674Y-99408785D01*
X81564893Y-99719543D01*
X81564895Y-99719551D01*
X81652674Y-100021684D01*
X81777632Y-100310447D01*
X81811270Y-100367325D01*
X81937796Y-100581268D01*
X81937801Y-100581274D01*
X81937802Y-100581276D01*
X81937802Y-100581277D01*
X82130637Y-100829879D01*
X82353120Y-101052362D01*
X82601722Y-101245197D01*
X82601726Y-101245199D01*
X82601732Y-101245204D01*
X82872552Y-101405367D01*
X83161311Y-101530324D01*
X83168405Y-101532385D01*
X83463448Y-101618104D01*
X83463456Y-101618106D01*
X83774217Y-101667325D01*
X83905156Y-101673500D01*
X83905160Y-101673500D01*
X85402208Y-101673500D01*
X85414359Y-101674097D01*
X85418452Y-101674500D01*
X85781548Y-101674500D01*
X85785641Y-101674097D01*
X85797792Y-101673500D01*
X87294844Y-101673500D01*
X87369664Y-101669971D01*
X87425783Y-101667325D01*
X87425785Y-101667325D01*
X87736542Y-101618106D01*
X87736544Y-101618105D01*
X87736546Y-101618105D01*
X87811261Y-101596398D01*
X87881128Y-101596597D01*
X87895096Y-101601670D01*
X87961311Y-101630324D01*
X88015419Y-101646043D01*
X88263448Y-101718104D01*
X88263456Y-101718106D01*
X88574217Y-101767325D01*
X88705156Y-101773500D01*
X88705160Y-101773500D01*
X92094844Y-101773500D01*
X92169664Y-101769971D01*
X92225783Y-101767325D01*
X92225784Y-101767325D01*
X92511784Y-101722027D01*
X92531182Y-101720500D01*
X94536545Y-101720500D01*
X94536548Y-101720500D01*
X94897896Y-101684911D01*
X94967221Y-101671121D01*
X95253995Y-101614079D01*
X95254006Y-101614076D01*
X95254006Y-101614075D01*
X95254016Y-101614074D01*
X95601478Y-101508673D01*
X95936935Y-101369722D01*
X96257158Y-101198559D01*
X96559062Y-100996833D01*
X96839739Y-100766487D01*
X97096487Y-100509739D01*
X97326833Y-100229062D01*
X97528559Y-99927158D01*
X97699722Y-99606935D01*
X97838673Y-99271478D01*
X97944074Y-98924016D01*
X97944076Y-98924006D01*
X97944079Y-98923995D01*
X98009290Y-98596153D01*
X98014911Y-98567896D01*
X98050500Y-98206548D01*
X98050500Y-98125367D01*
X98070185Y-98058328D01*
X98082621Y-98042094D01*
X98083658Y-98040951D01*
X98317806Y-97725239D01*
X98519881Y-97388097D01*
X98687938Y-97032772D01*
X98820357Y-96662684D01*
X98915864Y-96281400D01*
X98973538Y-95892591D01*
X98992825Y-95500000D01*
X105582175Y-95500000D01*
X105601462Y-95892591D01*
X105601462Y-95892597D01*
X105601463Y-95892599D01*
X105659137Y-96281406D01*
X105754643Y-96662684D01*
X105887061Y-97032770D01*
X105887062Y-97032772D01*
X106055120Y-97388100D01*
X106186564Y-97607400D01*
X106257194Y-97725239D01*
X106370604Y-97878155D01*
X106491346Y-98040956D01*
X106755307Y-98332192D01*
X107030728Y-98581819D01*
X107046549Y-98596158D01*
X107362261Y-98830306D01*
X107555268Y-98945990D01*
X107587370Y-98973681D01*
X107678517Y-99084744D01*
X107935255Y-99341482D01*
X107935260Y-99341486D01*
X107935261Y-99341487D01*
X108215938Y-99571833D01*
X108517842Y-99773559D01*
X108517851Y-99773564D01*
X108517853Y-99773565D01*
X108838057Y-99944718D01*
X108838059Y-99944718D01*
X108838065Y-99944722D01*
X109173522Y-100083673D01*
X109520984Y-100189074D01*
X109520990Y-100189075D01*
X109520993Y-100189076D01*
X109521004Y-100189079D01*
X109877104Y-100259911D01*
X110238452Y-100295500D01*
X110601548Y-100295500D01*
X112168000Y-100295500D01*
X112202596Y-100300424D01*
X112263452Y-100318105D01*
X112263456Y-100318106D01*
X112574217Y-100367325D01*
X112705156Y-100373500D01*
X112705160Y-100373500D01*
X116094844Y-100373500D01*
X116199594Y-100368560D01*
X116225783Y-100367325D01*
X116475667Y-100327746D01*
X116544307Y-100336417D01*
X116761311Y-100430324D01*
X116761310Y-100430324D01*
X117063448Y-100518104D01*
X117063456Y-100518106D01*
X117374217Y-100567325D01*
X117505156Y-100573500D01*
X117505160Y-100573500D01*
X120894844Y-100573500D01*
X120969664Y-100569971D01*
X121025783Y-100567325D01*
X121025785Y-100567325D01*
X121336543Y-100518106D01*
X121336551Y-100518104D01*
X121638686Y-100430325D01*
X121638686Y-100430324D01*
X121638689Y-100430324D01*
X121653063Y-100424103D01*
X121722402Y-100415540D01*
X121785367Y-100445825D01*
X121789995Y-100450221D01*
X124268181Y-102928407D01*
X124301666Y-102989730D01*
X124304500Y-103016088D01*
X124304500Y-103444411D01*
X124297252Y-103486185D01*
X124167143Y-103849815D01*
X124071637Y-104231093D01*
X124020819Y-104573685D01*
X124013962Y-104619909D01*
X123994675Y-105012500D01*
X124013962Y-105405091D01*
X124013962Y-105405097D01*
X124013963Y-105405099D01*
X124071637Y-105793906D01*
X124167143Y-106175184D01*
X124299561Y-106545270D01*
X124299562Y-106545272D01*
X124467620Y-106900600D01*
X124669692Y-107237736D01*
X124669694Y-107237739D01*
X124688194Y-107262684D01*
X124903846Y-107553456D01*
X125167807Y-107844692D01*
X125459043Y-108108653D01*
X125459049Y-108108658D01*
X125774761Y-108342806D01*
X125774763Y-108342807D01*
X126111899Y-108544879D01*
X126111902Y-108544880D01*
X126111903Y-108544881D01*
X126467228Y-108712938D01*
X126837316Y-108845357D01*
X127218600Y-108940864D01*
X127607409Y-108998538D01*
X128000000Y-109017825D01*
X128392591Y-108998538D01*
X128781400Y-108940864D01*
X129162684Y-108845357D01*
X129532772Y-108712938D01*
X129888097Y-108544881D01*
X130225239Y-108342806D01*
X130540951Y-108108658D01*
X130832192Y-107844692D01*
X131096158Y-107553451D01*
X131330306Y-107237739D01*
X131532381Y-106900597D01*
X131700438Y-106545272D01*
X131832857Y-106175184D01*
X131928364Y-105793900D01*
X131986038Y-105405091D01*
X132005325Y-105012500D01*
X131986038Y-104619909D01*
X131928364Y-104231100D01*
X131832857Y-103849816D01*
X131702747Y-103486183D01*
X131695500Y-103444411D01*
X131695500Y-101252455D01*
X131690192Y-101198565D01*
X131659911Y-100891104D01*
X131589074Y-100534984D01*
X131573832Y-100484739D01*
X131551297Y-100410448D01*
X131483673Y-100187522D01*
X131386266Y-99952361D01*
X131344722Y-99852064D01*
X131340585Y-99844325D01*
X131173565Y-99531852D01*
X131173564Y-99531850D01*
X131173559Y-99531841D01*
X130971833Y-99229937D01*
X130741487Y-98949260D01*
X130741486Y-98949259D01*
X130741482Y-98949254D01*
X125887272Y-94095045D01*
X125853787Y-94033722D01*
X125858771Y-93964030D01*
X125900643Y-93908097D01*
X125966107Y-93883680D01*
X126034380Y-93898532D01*
X126038702Y-93901006D01*
X126111899Y-93944879D01*
X126111902Y-93944880D01*
X126111903Y-93944881D01*
X126467228Y-94112938D01*
X126837316Y-94245357D01*
X127218600Y-94340864D01*
X127607409Y-94398538D01*
X128000000Y-94417825D01*
X128392591Y-94398538D01*
X128781400Y-94340864D01*
X129162684Y-94245357D01*
X129526316Y-94115247D01*
X129568089Y-94108000D01*
X131336412Y-94108000D01*
X131403451Y-94127685D01*
X131424093Y-94144319D01*
X131745987Y-94466213D01*
X131779472Y-94527536D01*
X131774488Y-94597228D01*
X131756287Y-94629892D01*
X131737801Y-94653724D01*
X131577632Y-94924552D01*
X131452674Y-95213315D01*
X131364895Y-95515448D01*
X131364893Y-95515456D01*
X131315674Y-95826214D01*
X131315674Y-95826219D01*
X131309500Y-95957155D01*
X131309500Y-97356844D01*
X131315674Y-97487780D01*
X131315674Y-97487785D01*
X131364893Y-97798543D01*
X131364895Y-97798551D01*
X131452674Y-98100684D01*
X131577632Y-98389447D01*
X131616648Y-98455418D01*
X131737796Y-98660268D01*
X131737801Y-98660274D01*
X131737802Y-98660276D01*
X131737802Y-98660277D01*
X131930637Y-98908879D01*
X132153120Y-99131362D01*
X132401722Y-99324197D01*
X132401726Y-99324199D01*
X132401732Y-99324204D01*
X132672552Y-99484367D01*
X132961311Y-99609324D01*
X133015419Y-99625043D01*
X133263448Y-99697104D01*
X133263456Y-99697106D01*
X133574217Y-99746325D01*
X133705156Y-99752500D01*
X133705160Y-99752500D01*
X137094844Y-99752500D01*
X137169664Y-99748971D01*
X137225783Y-99746325D01*
X137225785Y-99746325D01*
X137536543Y-99697106D01*
X137536547Y-99697105D01*
X137597404Y-99679424D01*
X137632000Y-99674500D01*
X137870718Y-99674500D01*
X137905312Y-99679423D01*
X137933011Y-99687471D01*
X138038452Y-99718105D01*
X138038456Y-99718106D01*
X138349217Y-99767325D01*
X138480156Y-99773500D01*
X138480160Y-99773500D01*
X141869844Y-99773500D01*
X141944664Y-99769971D01*
X142000783Y-99767325D01*
X142000785Y-99767325D01*
X142311543Y-99718106D01*
X142311547Y-99718105D01*
X142372404Y-99700424D01*
X142407000Y-99695500D01*
X144436545Y-99695500D01*
X144436548Y-99695500D01*
X144797896Y-99659911D01*
X144867221Y-99646121D01*
X145153995Y-99589079D01*
X145154006Y-99589076D01*
X145154006Y-99589075D01*
X145154016Y-99589074D01*
X145501478Y-99483673D01*
X145836935Y-99344722D01*
X146157158Y-99173559D01*
X146459062Y-98971833D01*
X146739739Y-98741487D01*
X146996487Y-98484739D01*
X147226833Y-98204062D01*
X147428559Y-97902158D01*
X147599722Y-97581935D01*
X147622473Y-97527009D01*
X147653761Y-97482583D01*
X147698538Y-97442000D01*
X147819692Y-97332192D01*
X148083658Y-97040951D01*
X148317806Y-96725239D01*
X148519881Y-96388097D01*
X148687938Y-96032772D01*
X148820357Y-95662684D01*
X148915864Y-95281400D01*
X148973538Y-94892591D01*
X148992825Y-94500000D01*
X148973538Y-94107409D01*
X148915864Y-93718600D01*
X148820357Y-93337316D01*
X148687938Y-92967228D01*
X148519881Y-92611903D01*
X148485941Y-92555278D01*
X148362856Y-92349923D01*
X148317806Y-92274761D01*
X148083658Y-91959049D01*
X148083653Y-91959043D01*
X147819692Y-91667807D01*
X147528456Y-91403846D01*
X147212736Y-91169692D01*
X146875600Y-90967620D01*
X146520272Y-90799562D01*
X146520270Y-90799561D01*
X146150184Y-90667143D01*
X145768906Y-90571637D01*
X145768901Y-90571636D01*
X145768900Y-90571636D01*
X145624756Y-90550254D01*
X145380099Y-90513963D01*
X145380097Y-90513962D01*
X145380091Y-90513962D01*
X144987500Y-90494675D01*
X144594909Y-90513962D01*
X144594903Y-90513962D01*
X144594900Y-90513963D01*
X144206093Y-90571637D01*
X143824815Y-90667143D01*
X143454729Y-90799561D01*
X143454727Y-90799562D01*
X143099399Y-90967620D01*
X142762263Y-91169692D01*
X142446543Y-91403846D01*
X142155307Y-91667807D01*
X141891346Y-91959043D01*
X141891342Y-91959049D01*
X141672318Y-92254368D01*
X141616574Y-92296487D01*
X141572722Y-92304500D01*
X139880861Y-92304500D01*
X139868707Y-92303903D01*
X139661548Y-92283500D01*
X139661545Y-92283500D01*
X139228336Y-92283500D01*
X139161297Y-92263815D01*
X139115542Y-92211011D01*
X139106719Y-92183695D01*
X139089074Y-92094984D01*
X138983673Y-91747522D01*
X138869792Y-91472589D01*
X138844722Y-91412064D01*
X138840329Y-91403846D01*
X138673565Y-91091853D01*
X138673564Y-91091851D01*
X138673559Y-91091842D01*
X138471833Y-90789937D01*
X138241487Y-90509260D01*
X138241486Y-90509259D01*
X138241482Y-90509254D01*
X135403244Y-87671017D01*
X135122567Y-87440671D01*
X135122566Y-87440670D01*
X135122562Y-87440667D01*
X134820658Y-87238941D01*
X134820653Y-87238938D01*
X134820646Y-87238934D01*
X134500443Y-87067781D01*
X134500438Y-87067779D01*
X134164980Y-86928827D01*
X133817506Y-86823423D01*
X133817495Y-86823420D01*
X133461395Y-86752588D01*
X133189242Y-86725784D01*
X133100048Y-86717000D01*
X133100045Y-86717000D01*
X129568089Y-86717000D01*
X129526316Y-86709752D01*
X129162684Y-86579643D01*
X128781406Y-86484137D01*
X128781401Y-86484136D01*
X128781400Y-86484136D01*
X128637256Y-86462754D01*
X128392599Y-86426463D01*
X128392597Y-86426462D01*
X128392591Y-86426462D01*
X128000000Y-86407175D01*
X127607409Y-86426462D01*
X127607403Y-86426462D01*
X127607400Y-86426463D01*
X127218593Y-86484137D01*
X126837315Y-86579643D01*
X126467229Y-86712061D01*
X126467227Y-86712062D01*
X126111899Y-86880120D01*
X125774763Y-87082192D01*
X125459043Y-87316346D01*
X125167807Y-87580307D01*
X124903846Y-87871543D01*
X124669692Y-88187263D01*
X124467620Y-88524399D01*
X124299562Y-88879727D01*
X124299561Y-88879729D01*
X124167143Y-89249815D01*
X124071637Y-89631093D01*
X124018002Y-89992676D01*
X124013962Y-90019909D01*
X123994675Y-90412500D01*
X124013962Y-90805091D01*
X124013962Y-90805097D01*
X124013963Y-90805099D01*
X124071637Y-91193906D01*
X124167143Y-91575184D01*
X124299561Y-91945270D01*
X124299562Y-91945272D01*
X124467620Y-92300600D01*
X124669692Y-92637736D01*
X124669694Y-92637739D01*
X124867537Y-92904500D01*
X124903846Y-92953456D01*
X125112507Y-93183677D01*
X125142943Y-93246569D01*
X125134545Y-93315932D01*
X125089979Y-93369744D01*
X125023396Y-93390919D01*
X124962176Y-93376308D01*
X124761943Y-93269281D01*
X124761938Y-93269279D01*
X124426480Y-93130327D01*
X124079006Y-93024923D01*
X124078995Y-93024920D01*
X123722895Y-92954088D01*
X123450742Y-92927284D01*
X123361548Y-92918500D01*
X123361545Y-92918500D01*
X114729787Y-92918500D01*
X114717633Y-92917903D01*
X114581548Y-92904500D01*
X114581545Y-92904500D01*
X112689183Y-92904500D01*
X112622144Y-92884815D01*
X112597305Y-92863773D01*
X112419692Y-92667807D01*
X112128456Y-92403846D01*
X112055753Y-92349926D01*
X111812739Y-92169694D01*
X111812736Y-92169692D01*
X111475600Y-91967620D01*
X111120272Y-91799562D01*
X111120270Y-91799561D01*
X110750184Y-91667143D01*
X110368906Y-91571637D01*
X110368901Y-91571636D01*
X110368900Y-91571636D01*
X110224756Y-91550254D01*
X109980099Y-91513963D01*
X109980097Y-91513962D01*
X109980091Y-91513962D01*
X109587500Y-91494675D01*
X109194909Y-91513962D01*
X109194903Y-91513962D01*
X109194900Y-91513963D01*
X108806093Y-91571637D01*
X108424815Y-91667143D01*
X108054729Y-91799561D01*
X108054727Y-91799562D01*
X107699399Y-91967620D01*
X107362263Y-92169692D01*
X107046543Y-92403846D01*
X106755307Y-92667807D01*
X106491346Y-92959043D01*
X106257192Y-93274763D01*
X106055120Y-93611899D01*
X105887062Y-93967227D01*
X105887061Y-93967229D01*
X105754643Y-94337315D01*
X105659137Y-94718593D01*
X105612592Y-95032379D01*
X105601462Y-95107409D01*
X105582175Y-95500000D01*
X98992825Y-95500000D01*
X98973538Y-95107409D01*
X98915864Y-94718600D01*
X98820357Y-94337316D01*
X98687938Y-93967228D01*
X98519881Y-93611903D01*
X98457998Y-93508658D01*
X98317807Y-93274763D01*
X98317806Y-93274761D01*
X98083658Y-92959049D01*
X98078589Y-92953456D01*
X97819692Y-92667807D01*
X97528456Y-92403846D01*
X97455753Y-92349926D01*
X97212739Y-92169694D01*
X97212736Y-92169692D01*
X96875600Y-91967620D01*
X96520272Y-91799562D01*
X96520270Y-91799561D01*
X96150184Y-91667143D01*
X95768906Y-91571637D01*
X95768901Y-91571636D01*
X95768900Y-91571636D01*
X95624756Y-91550254D01*
X95380099Y-91513963D01*
X95380097Y-91513962D01*
X95380091Y-91513962D01*
X94987500Y-91494675D01*
X94594909Y-91513962D01*
X94594903Y-91513962D01*
X94594900Y-91513963D01*
X94206093Y-91571637D01*
X93824815Y-91667143D01*
X93454729Y-91799561D01*
X93454727Y-91799562D01*
X93099399Y-91967620D01*
X92762263Y-92169692D01*
X92446543Y-92403846D01*
X92155307Y-92667807D01*
X91891346Y-92959043D01*
X91657192Y-93274763D01*
X91455120Y-93611899D01*
X91287060Y-93967232D01*
X91287053Y-93967248D01*
X91211302Y-94178961D01*
X91197655Y-94206075D01*
X91181436Y-94230349D01*
X91163475Y-94263953D01*
X91114513Y-94313797D01*
X91054117Y-94329500D01*
X90193452Y-94329500D01*
X90114093Y-94337316D01*
X89832104Y-94365088D01*
X89476004Y-94435920D01*
X89475993Y-94435923D01*
X89128516Y-94541328D01*
X88922010Y-94626866D01*
X88852541Y-94634335D01*
X88790062Y-94603060D01*
X88771460Y-94581200D01*
X88571833Y-94282438D01*
X88341487Y-94001761D01*
X88341486Y-94001760D01*
X88341482Y-94001755D01*
X83098244Y-88758517D01*
X82817567Y-88528171D01*
X82817566Y-88528170D01*
X82817562Y-88528167D01*
X82515658Y-88326441D01*
X82515653Y-88326438D01*
X82515646Y-88326434D01*
X82195443Y-88155281D01*
X82195438Y-88155279D01*
X81859980Y-88016327D01*
X81512506Y-87910923D01*
X81512495Y-87910920D01*
X81156395Y-87840088D01*
X80884242Y-87813284D01*
X80795048Y-87804500D01*
X80795045Y-87804500D01*
X79068089Y-87804500D01*
X79026316Y-87797252D01*
X78662684Y-87667143D01*
X78612626Y-87654604D01*
X78281406Y-87571637D01*
X78281401Y-87571636D01*
X78281400Y-87571636D01*
X78137256Y-87550254D01*
X77892599Y-87513963D01*
X77892597Y-87513962D01*
X77892591Y-87513962D01*
X77500000Y-87494675D01*
X77107409Y-87513962D01*
X77107403Y-87513962D01*
X77107400Y-87513963D01*
X76718593Y-87571637D01*
X76337315Y-87667143D01*
X75967229Y-87799561D01*
X75967227Y-87799562D01*
X75611899Y-87967620D01*
X75274763Y-88169692D01*
X74959043Y-88403846D01*
X74667807Y-88667807D01*
X74403846Y-88959043D01*
X74169692Y-89274763D01*
X73967620Y-89611899D01*
X73799562Y-89967227D01*
X73799561Y-89967229D01*
X73667143Y-90337315D01*
X73571637Y-90718593D01*
X73534698Y-90967620D01*
X73513962Y-91107409D01*
X73494675Y-91500000D01*
X49183000Y-91500000D01*
X49183000Y-88015955D01*
X49178239Y-87967619D01*
X49147411Y-87654604D01*
X49132633Y-87580308D01*
X49076579Y-87298504D01*
X49076576Y-87298493D01*
X49076575Y-87298490D01*
X49076574Y-87298484D01*
X48971173Y-86951022D01*
X48874238Y-86717000D01*
X48832222Y-86615564D01*
X48761972Y-86484137D01*
X48661065Y-86295353D01*
X48661064Y-86295351D01*
X48661059Y-86295342D01*
X48459333Y-85993437D01*
X48228987Y-85712761D01*
X48228986Y-85712760D01*
X48228982Y-85712755D01*
X42713907Y-80197681D01*
X42680422Y-80136358D01*
X42685406Y-80066666D01*
X42713907Y-80022319D01*
X44838182Y-77898044D01*
X44838187Y-77898039D01*
X45068533Y-77617362D01*
X45270259Y-77315458D01*
X45441422Y-76995236D01*
X45580373Y-76659779D01*
X45685774Y-76312316D01*
X45685776Y-76312306D01*
X45685779Y-76312295D01*
X45756611Y-75956195D01*
X45792200Y-75594844D01*
X45792200Y-72415714D01*
X45811885Y-72348675D01*
X45864689Y-72302920D01*
X45933847Y-72292976D01*
X45950796Y-72296638D01*
X46038452Y-72322105D01*
X46038456Y-72322106D01*
X46349217Y-72371325D01*
X46480156Y-72377500D01*
X46480160Y-72377500D01*
X47413052Y-72377500D01*
X47480091Y-72397185D01*
X47490365Y-72404553D01*
X47570759Y-72468665D01*
X47852480Y-72645682D01*
X47865142Y-72653638D01*
X48178359Y-72804475D01*
X48178368Y-72804478D01*
X48178375Y-72804482D01*
X48178381Y-72804484D01*
X48506521Y-72919306D01*
X48506533Y-72919310D01*
X48845484Y-72996673D01*
X49190961Y-73035599D01*
X49190962Y-73035600D01*
X49190966Y-73035600D01*
X51980638Y-73035600D01*
X51980638Y-73035599D01*
X52326116Y-72996673D01*
X52368352Y-72987033D01*
X52665067Y-72919310D01*
X52993225Y-72804482D01*
X52996567Y-72802873D01*
X53306457Y-72653638D01*
X53306457Y-72653637D01*
X53306463Y-72653635D01*
X53483359Y-72542484D01*
X53572448Y-72486506D01*
X53638420Y-72467500D01*
X54069853Y-72467500D01*
X54071292Y-72467466D01*
X54071292Y-72467484D01*
X54074878Y-72467400D01*
X55928738Y-72467400D01*
X55928738Y-72467399D01*
X56173956Y-72439769D01*
X56204041Y-72436380D01*
X56217925Y-72435600D01*
X58443254Y-72435600D01*
X58510293Y-72455285D01*
X58512145Y-72456498D01*
X58597842Y-72513759D01*
X58597851Y-72513764D01*
X58597853Y-72513765D01*
X58918057Y-72684918D01*
X58918059Y-72684918D01*
X58918065Y-72684922D01*
X59253522Y-72823873D01*
X59600984Y-72929274D01*
X59600990Y-72929275D01*
X59600993Y-72929276D01*
X59601004Y-72929279D01*
X59939815Y-72996672D01*
X59957104Y-73000111D01*
X60318452Y-73035700D01*
X60318455Y-73035700D01*
X60681545Y-73035700D01*
X60681548Y-73035700D01*
X61042896Y-73000111D01*
X61148470Y-72979111D01*
X61398995Y-72929279D01*
X61399006Y-72929276D01*
X61399006Y-72929275D01*
X61399016Y-72929274D01*
X61746478Y-72823873D01*
X62081935Y-72684922D01*
X62402158Y-72513759D01*
X62704062Y-72312033D01*
X62984739Y-72081687D01*
X63241487Y-71824939D01*
X63471833Y-71544262D01*
X63673559Y-71242358D01*
X63844722Y-70922135D01*
X63983673Y-70586678D01*
X64089074Y-70239216D01*
X64089076Y-70239206D01*
X64089079Y-70239195D01*
X64152153Y-69922096D01*
X64159911Y-69883096D01*
X64171242Y-69768047D01*
X64197402Y-69703259D01*
X64254437Y-69662900D01*
X64294645Y-69656200D01*
X66285500Y-69656200D01*
X66352539Y-69675885D01*
X66398294Y-69728689D01*
X66409500Y-69780200D01*
X66409500Y-70050844D01*
X66415674Y-70181780D01*
X66415674Y-70181785D01*
X66464893Y-70492543D01*
X66464895Y-70492551D01*
X66552674Y-70794684D01*
X66677632Y-71083447D01*
X66716592Y-71149324D01*
X66837796Y-71354268D01*
X66837801Y-71354274D01*
X66837802Y-71354276D01*
X66837802Y-71354277D01*
X67030637Y-71602879D01*
X67253120Y-71825362D01*
X67501722Y-72018197D01*
X67501726Y-72018199D01*
X67501732Y-72018204D01*
X67772552Y-72178367D01*
X68061311Y-72303324D01*
X68242205Y-72355878D01*
X68286273Y-72379101D01*
X68295938Y-72387033D01*
X68597842Y-72588759D01*
X68597851Y-72588764D01*
X68597853Y-72588765D01*
X68918057Y-72759918D01*
X68918059Y-72759918D01*
X68918065Y-72759922D01*
X69253522Y-72898873D01*
X69600984Y-73004274D01*
X69600990Y-73004275D01*
X69600993Y-73004276D01*
X69601004Y-73004279D01*
X69939815Y-73071672D01*
X69957104Y-73075111D01*
X70318452Y-73110700D01*
X70318455Y-73110700D01*
X70681545Y-73110700D01*
X70681548Y-73110700D01*
X71042896Y-73075111D01*
X71112221Y-73061321D01*
X71398995Y-73004279D01*
X71399006Y-73004276D01*
X71399006Y-73004275D01*
X71399016Y-73004274D01*
X71746478Y-72898873D01*
X72081935Y-72759922D01*
X72402158Y-72588759D01*
X72440263Y-72563298D01*
X72506941Y-72542420D01*
X72509154Y-72542400D01*
X73200122Y-72542400D01*
X73203707Y-72542484D01*
X73203708Y-72542466D01*
X73205147Y-72542500D01*
X73205160Y-72542500D01*
X76594853Y-72542500D01*
X76596292Y-72542466D01*
X76596292Y-72542484D01*
X76599878Y-72542400D01*
X77016323Y-72542400D01*
X77082292Y-72561405D01*
X77348437Y-72728635D01*
X77348442Y-72728638D01*
X77661659Y-72879475D01*
X77661668Y-72879478D01*
X77661675Y-72879482D01*
X77661681Y-72879484D01*
X77989821Y-72994306D01*
X77989833Y-72994310D01*
X78328784Y-73071673D01*
X78674261Y-73110599D01*
X78674262Y-73110600D01*
X78674266Y-73110600D01*
X81097054Y-73110600D01*
X81164093Y-73130285D01*
X81165945Y-73131498D01*
X81251642Y-73188759D01*
X81251651Y-73188764D01*
X81251653Y-73188765D01*
X81571856Y-73359918D01*
X81571858Y-73359918D01*
X81571864Y-73359922D01*
X81907321Y-73498873D01*
X82254784Y-73604274D01*
X82254790Y-73604275D01*
X82254793Y-73604276D01*
X82254804Y-73604279D01*
X82478106Y-73648695D01*
X82610904Y-73675110D01*
X82972252Y-73710700D01*
X82972255Y-73710700D01*
X83335345Y-73710700D01*
X83335348Y-73710700D01*
X83696696Y-73675110D01*
X83872962Y-73640048D01*
X84052795Y-73604279D01*
X84052806Y-73604276D01*
X84052806Y-73604275D01*
X84052816Y-73604274D01*
X84400279Y-73498873D01*
X84735736Y-73359922D01*
X85055958Y-73188759D01*
X85357862Y-72987033D01*
X85638539Y-72756687D01*
X88149407Y-70245819D01*
X88210730Y-70212334D01*
X88237088Y-70209500D01*
X90991535Y-70209500D01*
X91058574Y-70229185D01*
X91104329Y-70281989D01*
X91114008Y-70314103D01*
X91139893Y-70477541D01*
X91139895Y-70477551D01*
X91227674Y-70779684D01*
X91352632Y-71068447D01*
X91373945Y-71104484D01*
X91512796Y-71339268D01*
X91512801Y-71339274D01*
X91512802Y-71339276D01*
X91512802Y-71339277D01*
X91705637Y-71587879D01*
X91928120Y-71810362D01*
X92176722Y-72003197D01*
X92176726Y-72003199D01*
X92176732Y-72003204D01*
X92447552Y-72163367D01*
X92736311Y-72288324D01*
X92764928Y-72296638D01*
X93038448Y-72376104D01*
X93038456Y-72376106D01*
X93349217Y-72425325D01*
X93480156Y-72431500D01*
X93480160Y-72431500D01*
X96143912Y-72431500D01*
X96210951Y-72451185D01*
X96231593Y-72467819D01*
X96409455Y-72645682D01*
X96409460Y-72645686D01*
X96409461Y-72645687D01*
X96690138Y-72876033D01*
X96992042Y-73077759D01*
X96992051Y-73077764D01*
X96992053Y-73077765D01*
X97312257Y-73248918D01*
X97312259Y-73248918D01*
X97312265Y-73248922D01*
X97647722Y-73387873D01*
X97995184Y-73493274D01*
X97995190Y-73493275D01*
X97995193Y-73493276D01*
X97995204Y-73493279D01*
X98351304Y-73564111D01*
X98712652Y-73599700D01*
X98712655Y-73599700D01*
X99712345Y-73599700D01*
X99712348Y-73599700D01*
X100073696Y-73564111D01*
X100143021Y-73550321D01*
X100429795Y-73493279D01*
X100429806Y-73493276D01*
X100429806Y-73493275D01*
X100429816Y-73493274D01*
X100777279Y-73387873D01*
X101112736Y-73248922D01*
X101432958Y-73077759D01*
X101694404Y-72903064D01*
X101727288Y-72887511D01*
X101901478Y-72834673D01*
X102236935Y-72695722D01*
X102557158Y-72524559D01*
X102642855Y-72467298D01*
X102709533Y-72446420D01*
X102711746Y-72446400D01*
X103163738Y-72446400D01*
X103163738Y-72446399D01*
X103408956Y-72418769D01*
X103439041Y-72415380D01*
X103452925Y-72414600D01*
X108443254Y-72414600D01*
X108510293Y-72434285D01*
X108512145Y-72435498D01*
X108597842Y-72492759D01*
X108597851Y-72492764D01*
X108597853Y-72492765D01*
X108918057Y-72663918D01*
X108918059Y-72663918D01*
X108918065Y-72663922D01*
X109253522Y-72802873D01*
X109600984Y-72908274D01*
X109600990Y-72908275D01*
X109600993Y-72908276D01*
X109601004Y-72908279D01*
X109957104Y-72979111D01*
X110318452Y-73014700D01*
X110318455Y-73014700D01*
X110681545Y-73014700D01*
X110681548Y-73014700D01*
X111042896Y-72979111D01*
X111112221Y-72965321D01*
X111398995Y-72908279D01*
X111399006Y-72908276D01*
X111399006Y-72908275D01*
X111399016Y-72908274D01*
X111746478Y-72802873D01*
X112081935Y-72663922D01*
X112402158Y-72492759D01*
X112704062Y-72291033D01*
X112984739Y-72060687D01*
X113241487Y-71803939D01*
X113471833Y-71523262D01*
X113673559Y-71221358D01*
X113844722Y-70901135D01*
X113983673Y-70565678D01*
X114089074Y-70218216D01*
X114089076Y-70218206D01*
X114089079Y-70218195D01*
X114159911Y-69862095D01*
X114172306Y-69736246D01*
X114198467Y-69671459D01*
X114255501Y-69631100D01*
X114295709Y-69624400D01*
X116285500Y-69624400D01*
X116352539Y-69644085D01*
X116398294Y-69696889D01*
X116409500Y-69748400D01*
X116409500Y-70050844D01*
X116415674Y-70181780D01*
X116415674Y-70181785D01*
X116464893Y-70492543D01*
X116464895Y-70492551D01*
X116552674Y-70794684D01*
X116677632Y-71083447D01*
X116716592Y-71149324D01*
X116837796Y-71354268D01*
X116837801Y-71354274D01*
X116837802Y-71354276D01*
X116837802Y-71354277D01*
X117030637Y-71602879D01*
X117253120Y-71825362D01*
X117501722Y-72018197D01*
X117501726Y-72018199D01*
X117501732Y-72018204D01*
X117772552Y-72178367D01*
X118061311Y-72303324D01*
X118091305Y-72312038D01*
X118363448Y-72391104D01*
X118363456Y-72391106D01*
X118674217Y-72440325D01*
X118805156Y-72446500D01*
X118805160Y-72446500D01*
X120069813Y-72446500D01*
X120083697Y-72447280D01*
X120116071Y-72450927D01*
X120326161Y-72474599D01*
X120326162Y-72474600D01*
X120326166Y-72474600D01*
X121082075Y-72474600D01*
X121095959Y-72475380D01*
X121132769Y-72479527D01*
X121371261Y-72506399D01*
X121371262Y-72506400D01*
X121371266Y-72506400D01*
X123225122Y-72506400D01*
X123228707Y-72506484D01*
X123228708Y-72506466D01*
X123230147Y-72506500D01*
X123230160Y-72506500D01*
X126619853Y-72506500D01*
X126621292Y-72506466D01*
X126621292Y-72506484D01*
X126624878Y-72506400D01*
X128478738Y-72506400D01*
X128478738Y-72506399D01*
X128723956Y-72478769D01*
X128754041Y-72475380D01*
X128767925Y-72474600D01*
X129648254Y-72474600D01*
X129715293Y-72494285D01*
X129717145Y-72495498D01*
X129802842Y-72552759D01*
X129802851Y-72552764D01*
X129802853Y-72552765D01*
X130123057Y-72723918D01*
X130123059Y-72723918D01*
X130123065Y-72723922D01*
X130458522Y-72862873D01*
X130805984Y-72968274D01*
X130805990Y-72968275D01*
X130805993Y-72968276D01*
X130806004Y-72968279D01*
X131144448Y-73035599D01*
X131162104Y-73039111D01*
X131523452Y-73074700D01*
X131523455Y-73074700D01*
X131886545Y-73074700D01*
X131886548Y-73074700D01*
X132247896Y-73039111D01*
X132317221Y-73025321D01*
X132603995Y-72968279D01*
X132604006Y-72968276D01*
X132604006Y-72968275D01*
X132604016Y-72968274D01*
X132951478Y-72862873D01*
X133286935Y-72723922D01*
X133607158Y-72552759D01*
X133909062Y-72351033D01*
X134189739Y-72120687D01*
X134446487Y-71863939D01*
X134676833Y-71583262D01*
X134878559Y-71281358D01*
X135049722Y-70961135D01*
X135188673Y-70625678D01*
X135294074Y-70278216D01*
X135294076Y-70278206D01*
X135294079Y-70278195D01*
X135352532Y-69984328D01*
X135364911Y-69922096D01*
X135400500Y-69560748D01*
X135400500Y-69194500D01*
X135420185Y-69127461D01*
X135472989Y-69081706D01*
X135524500Y-69070500D01*
X140716535Y-69070500D01*
X140783574Y-69090185D01*
X140829329Y-69142989D01*
X140839008Y-69175103D01*
X140864893Y-69338541D01*
X140864895Y-69338551D01*
X140952674Y-69640684D01*
X141077632Y-69929447D01*
X141077633Y-69929448D01*
X141237796Y-70200268D01*
X141237801Y-70200274D01*
X141237802Y-70200276D01*
X141237802Y-70200277D01*
X141430637Y-70448879D01*
X141653120Y-70671362D01*
X141901722Y-70864197D01*
X141901726Y-70864199D01*
X141901732Y-70864204D01*
X142172552Y-71024367D01*
X142461311Y-71149324D01*
X142515419Y-71165043D01*
X142763448Y-71237104D01*
X142763456Y-71237106D01*
X143074217Y-71286325D01*
X143205156Y-71292500D01*
X143205160Y-71292500D01*
X144284105Y-71292500D01*
X144311689Y-71295607D01*
X144354809Y-71305449D01*
X144455684Y-71328473D01*
X144801161Y-71367399D01*
X144801162Y-71367400D01*
X144801166Y-71367400D01*
X145148834Y-71367400D01*
X147775122Y-71367400D01*
X147778707Y-71367484D01*
X147778708Y-71367466D01*
X147780147Y-71367500D01*
X147780160Y-71367500D01*
X151169853Y-71367500D01*
X151171292Y-71367466D01*
X151171292Y-71367484D01*
X151174878Y-71367400D01*
X153028738Y-71367400D01*
X153028738Y-71367399D01*
X153278409Y-71339268D01*
X153304041Y-71336380D01*
X153317925Y-71335600D01*
X158673838Y-71335600D01*
X158673838Y-71335599D01*
X159019316Y-71296673D01*
X159358267Y-71219310D01*
X159686425Y-71104482D01*
X159999663Y-70953635D01*
X160294041Y-70768665D01*
X160336189Y-70735053D01*
X160400876Y-70708644D01*
X160413502Y-70708000D01*
X169169045Y-70708000D01*
X169169048Y-70708000D01*
X169530396Y-70672411D01*
X169886516Y-70601574D01*
X169892612Y-70599724D01*
X169892621Y-70599724D01*
X169892621Y-70599722D01*
X169935618Y-70586679D01*
X170233979Y-70496173D01*
X170569436Y-70357222D01*
X170889658Y-70186059D01*
X171191562Y-69984333D01*
X171472239Y-69753987D01*
X173131984Y-68094240D01*
X173193305Y-68060757D01*
X173262996Y-68065741D01*
X173282772Y-68075185D01*
X173362552Y-68122367D01*
X173651311Y-68247324D01*
X173705419Y-68263043D01*
X173953448Y-68335104D01*
X173953456Y-68335106D01*
X174264217Y-68384325D01*
X174395156Y-68390500D01*
X174395160Y-68390500D01*
X178604844Y-68390500D01*
X178679664Y-68386971D01*
X178735783Y-68384325D01*
X178735785Y-68384325D01*
X179046543Y-68335106D01*
X179046551Y-68335104D01*
X179197617Y-68291214D01*
X179348689Y-68247324D01*
X179637448Y-68122367D01*
X179908268Y-67962204D01*
X180156879Y-67769362D01*
X180156880Y-67769362D01*
X180379362Y-67546880D01*
X180379362Y-67546879D01*
X180572197Y-67298277D01*
X180572204Y-67298268D01*
X180732367Y-67027448D01*
X180857324Y-66738689D01*
X180945105Y-66436546D01*
X180945106Y-66436543D01*
X180994325Y-66125785D01*
X180994325Y-66125780D01*
X181000500Y-65994844D01*
X181000500Y-61785155D01*
X180994325Y-61654219D01*
X180994325Y-61654214D01*
X180945106Y-61343456D01*
X180945104Y-61343448D01*
X180857325Y-61041315D01*
X180857324Y-61041311D01*
X180732367Y-60752552D01*
X180572204Y-60481732D01*
X180572197Y-60481722D01*
X180379362Y-60233120D01*
X180156879Y-60010637D01*
X179908277Y-59817802D01*
X179908271Y-59817798D01*
X179908268Y-59817796D01*
X179739345Y-59717894D01*
X179637447Y-59657632D01*
X179348684Y-59532674D01*
X179046551Y-59444895D01*
X179046543Y-59444893D01*
X178735782Y-59395674D01*
X178604844Y-59389500D01*
X178604840Y-59389500D01*
X174395160Y-59389500D01*
X174395156Y-59389500D01*
X174264219Y-59395674D01*
X174264214Y-59395674D01*
X173953456Y-59444893D01*
X173953448Y-59444895D01*
X173651315Y-59532674D01*
X173362552Y-59657632D01*
X173201094Y-59753119D01*
X173091732Y-59817796D01*
X173091728Y-59817798D01*
X173091723Y-59817802D01*
X173091722Y-59817802D01*
X172843124Y-60010634D01*
X172769351Y-60084407D01*
X172695576Y-60158182D01*
X172634255Y-60191666D01*
X172607897Y-60194500D01*
X172291548Y-60194500D01*
X171928452Y-60194500D01*
X171846038Y-60202616D01*
X171567104Y-60230088D01*
X171211004Y-60300920D01*
X171210993Y-60300923D01*
X170863519Y-60406327D01*
X170528061Y-60545279D01*
X170528056Y-60545281D01*
X170207853Y-60716434D01*
X170207835Y-60716445D01*
X169905946Y-60918161D01*
X169905932Y-60918171D01*
X169625255Y-61148517D01*
X167493093Y-63280681D01*
X167431770Y-63314166D01*
X167405412Y-63317000D01*
X160068089Y-63317000D01*
X160026316Y-63309752D01*
X159662684Y-63179643D01*
X159532678Y-63147078D01*
X159281406Y-63084137D01*
X159281401Y-63084136D01*
X159281400Y-63084136D01*
X159137256Y-63062754D01*
X158892599Y-63026463D01*
X158892597Y-63026462D01*
X158892591Y-63026462D01*
X158500000Y-63007175D01*
X158107409Y-63026462D01*
X158107403Y-63026462D01*
X158107400Y-63026463D01*
X157718593Y-63084137D01*
X157337315Y-63179643D01*
X156967229Y-63312061D01*
X156967227Y-63312062D01*
X156611899Y-63480120D01*
X156274763Y-63682192D01*
X155959043Y-63916346D01*
X155667807Y-64180307D01*
X155403846Y-64471543D01*
X155169692Y-64787263D01*
X155108667Y-64889078D01*
X155039881Y-65003842D01*
X154991507Y-65084549D01*
X154940158Y-65131930D01*
X154885149Y-65144800D01*
X153689500Y-65144800D01*
X153622461Y-65125115D01*
X153576706Y-65072311D01*
X153565500Y-65020800D01*
X153565500Y-64750155D01*
X153559325Y-64619219D01*
X153559325Y-64619214D01*
X153510106Y-64308456D01*
X153510104Y-64308448D01*
X153436364Y-64054637D01*
X153422324Y-64006311D01*
X153297367Y-63717552D01*
X153137204Y-63446732D01*
X153137197Y-63446722D01*
X152944362Y-63198120D01*
X152721879Y-62975637D01*
X152473277Y-62782802D01*
X152473271Y-62782798D01*
X152473268Y-62782796D01*
X152304345Y-62682894D01*
X152202447Y-62622632D01*
X151913684Y-62497674D01*
X151682993Y-62430652D01*
X151648697Y-62414678D01*
X151377164Y-62233245D01*
X151377163Y-62233244D01*
X151377158Y-62233241D01*
X151377153Y-62233238D01*
X151377146Y-62233234D01*
X151056942Y-62062081D01*
X151056937Y-62062079D01*
X150980165Y-62030279D01*
X150958684Y-62021381D01*
X150721479Y-61923127D01*
X150374006Y-61817723D01*
X150373995Y-61817720D01*
X150017895Y-61746888D01*
X149745742Y-61720084D01*
X149656548Y-61711300D01*
X149293452Y-61711300D01*
X149211038Y-61719416D01*
X148932104Y-61746888D01*
X148576004Y-61817720D01*
X148575993Y-61817723D01*
X148228520Y-61923127D01*
X147893062Y-62062079D01*
X147893057Y-62062081D01*
X147572853Y-62233234D01*
X147572835Y-62233245D01*
X147534737Y-62258702D01*
X147468059Y-62279580D01*
X147465846Y-62279600D01*
X146956746Y-62279600D01*
X146889707Y-62259915D01*
X146887855Y-62258702D01*
X146802164Y-62201445D01*
X146802163Y-62201444D01*
X146802158Y-62201441D01*
X146802153Y-62201438D01*
X146802146Y-62201434D01*
X146481942Y-62030281D01*
X146481937Y-62030279D01*
X146146479Y-61891327D01*
X145799006Y-61785923D01*
X145798995Y-61785920D01*
X145442895Y-61715088D01*
X145170742Y-61688284D01*
X145081548Y-61679500D01*
X145081545Y-61679500D01*
X135362079Y-61679500D01*
X135295040Y-61659815D01*
X135249285Y-61607011D01*
X135243418Y-61591495D01*
X135207285Y-61472381D01*
X135188673Y-61411022D01*
X135053221Y-61084013D01*
X135051575Y-61079030D01*
X134878565Y-60755352D01*
X134878564Y-60755350D01*
X134878559Y-60755341D01*
X134676833Y-60453437D01*
X134446487Y-60172760D01*
X134446486Y-60172759D01*
X134446482Y-60172754D01*
X130709419Y-56435692D01*
X130685006Y-56401029D01*
X130519881Y-56051903D01*
X130317806Y-55714761D01*
X130083658Y-55399049D01*
X130083653Y-55399043D01*
X129819692Y-55107807D01*
X129528456Y-54843846D01*
X129212736Y-54609692D01*
X128875600Y-54407620D01*
X128520272Y-54239562D01*
X128520270Y-54239561D01*
X128150184Y-54107143D01*
X127768906Y-54011637D01*
X127768901Y-54011636D01*
X127768900Y-54011636D01*
X127624756Y-53990254D01*
X127380099Y-53953963D01*
X127380097Y-53953962D01*
X127380091Y-53953962D01*
X126987500Y-53934675D01*
X126594909Y-53953962D01*
X126594903Y-53953962D01*
X126594900Y-53953963D01*
X126206093Y-54011637D01*
X125824815Y-54107143D01*
X125454729Y-54239561D01*
X125454727Y-54239562D01*
X125099399Y-54407620D01*
X124762263Y-54609692D01*
X124446543Y-54843846D01*
X124155307Y-55107807D01*
X123891346Y-55399043D01*
X123657192Y-55714763D01*
X123455120Y-56051899D01*
X123287062Y-56407227D01*
X123287061Y-56407229D01*
X123154643Y-56777315D01*
X123059137Y-57158593D01*
X123059136Y-57158600D01*
X123001462Y-57547409D01*
X122982175Y-57940000D01*
X123001462Y-58332591D01*
X123001462Y-58332597D01*
X123001463Y-58332599D01*
X123059137Y-58721406D01*
X123154643Y-59102684D01*
X123287061Y-59472770D01*
X123287062Y-59472772D01*
X123455120Y-59828100D01*
X123657192Y-60165236D01*
X123657194Y-60165239D01*
X123870936Y-60453437D01*
X123891346Y-60480956D01*
X124155307Y-60772192D01*
X124446543Y-61036153D01*
X124446549Y-61036158D01*
X124762261Y-61270306D01*
X124762263Y-61270307D01*
X125099399Y-61472379D01*
X125099402Y-61472380D01*
X125099403Y-61472381D01*
X125448530Y-61637506D01*
X125483192Y-61661919D01*
X126443906Y-62622633D01*
X127158393Y-63337119D01*
X127191878Y-63398442D01*
X127186894Y-63468134D01*
X127145022Y-63524067D01*
X127079558Y-63548484D01*
X127051314Y-63547273D01*
X126750782Y-63499674D01*
X126619844Y-63493500D01*
X126619840Y-63493500D01*
X125490176Y-63493500D01*
X125462584Y-63490391D01*
X125384319Y-63472527D01*
X125384303Y-63472525D01*
X125038838Y-63433600D01*
X125038834Y-63433600D01*
X122199878Y-63433600D01*
X122196292Y-63433515D01*
X122196292Y-63433534D01*
X122194853Y-63433500D01*
X122194840Y-63433500D01*
X118805160Y-63433500D01*
X118805147Y-63433500D01*
X118803708Y-63433534D01*
X118803707Y-63433515D01*
X118800122Y-63433600D01*
X113991446Y-63433600D01*
X113924407Y-63413915D01*
X113922555Y-63412702D01*
X113836864Y-63355445D01*
X113836863Y-63355444D01*
X113836858Y-63355441D01*
X113836853Y-63355438D01*
X113836846Y-63355434D01*
X113516642Y-63184281D01*
X113516637Y-63184279D01*
X113181179Y-63045327D01*
X112833706Y-62939923D01*
X112833695Y-62939920D01*
X112477595Y-62869088D01*
X112205442Y-62842284D01*
X112116248Y-62833500D01*
X111753152Y-62833500D01*
X111670738Y-62841616D01*
X111391804Y-62869088D01*
X111035704Y-62939920D01*
X111035693Y-62939923D01*
X110688220Y-63045327D01*
X110352762Y-63184279D01*
X110352757Y-63184281D01*
X110032553Y-63355434D01*
X110032535Y-63355445D01*
X109730646Y-63557161D01*
X109730632Y-63557171D01*
X109449955Y-63787517D01*
X109193217Y-64044255D01*
X108962871Y-64324932D01*
X108962857Y-64324951D01*
X108907014Y-64408525D01*
X108856931Y-64451727D01*
X108611903Y-64567618D01*
X108274763Y-64769692D01*
X107959043Y-65003846D01*
X107667807Y-65267807D01*
X107403846Y-65559043D01*
X107169692Y-65874763D01*
X106996601Y-66163549D01*
X106945252Y-66210931D01*
X106890243Y-66223800D01*
X103824500Y-66223800D01*
X103757461Y-66204115D01*
X103711706Y-66151311D01*
X103700500Y-66099800D01*
X103700500Y-65829155D01*
X103694325Y-65698219D01*
X103694325Y-65698214D01*
X103645106Y-65387456D01*
X103645104Y-65387448D01*
X103557325Y-65085315D01*
X103557324Y-65085311D01*
X103432367Y-64796552D01*
X103272204Y-64525732D01*
X103272197Y-64525722D01*
X103079362Y-64277120D01*
X102856879Y-64054637D01*
X102608277Y-63861802D01*
X102608271Y-63861798D01*
X102608268Y-63861796D01*
X102372957Y-63722633D01*
X102337447Y-63701632D01*
X102097217Y-63597676D01*
X102048689Y-63576676D01*
X102048687Y-63576675D01*
X102048684Y-63576674D01*
X101746551Y-63488895D01*
X101746543Y-63488893D01*
X101435782Y-63439674D01*
X101304844Y-63433500D01*
X101304840Y-63433500D01*
X99908035Y-63433500D01*
X99894151Y-63432720D01*
X99768838Y-63418600D01*
X99768834Y-63418600D01*
X97231746Y-63418600D01*
X97164707Y-63398915D01*
X97162855Y-63397702D01*
X97077164Y-63340445D01*
X97077163Y-63340444D01*
X97077158Y-63340441D01*
X97077153Y-63340438D01*
X97077146Y-63340434D01*
X96756942Y-63169281D01*
X96756937Y-63169279D01*
X96703339Y-63147078D01*
X96551387Y-63084137D01*
X96421479Y-63030327D01*
X96074006Y-62924923D01*
X96073995Y-62924920D01*
X95717895Y-62854088D01*
X95445742Y-62827284D01*
X95356548Y-62818500D01*
X95356545Y-62818500D01*
X87496088Y-62818500D01*
X87429049Y-62798815D01*
X87408407Y-62782181D01*
X81061919Y-56435693D01*
X81037508Y-56401033D01*
X80872381Y-56051903D01*
X80670306Y-55714761D01*
X80436158Y-55399049D01*
X80436153Y-55399043D01*
X80172192Y-55107807D01*
X79880956Y-54843846D01*
X79565236Y-54609692D01*
X79228100Y-54407620D01*
X78872772Y-54239562D01*
X78872770Y-54239561D01*
X78502684Y-54107143D01*
X78121406Y-54011637D01*
X78121401Y-54011636D01*
X78121400Y-54011636D01*
X77977256Y-53990254D01*
X77732599Y-53953963D01*
X77732597Y-53953962D01*
X77732591Y-53953962D01*
X77340000Y-53934675D01*
X76947409Y-53953962D01*
X76947403Y-53953962D01*
X76947400Y-53953963D01*
X76558593Y-54011637D01*
X76177315Y-54107143D01*
X75807229Y-54239561D01*
X75807227Y-54239562D01*
X75451899Y-54407620D01*
X75114763Y-54609692D01*
X74799043Y-54843846D01*
X74507807Y-55107807D01*
X74243846Y-55399043D01*
X74009692Y-55714763D01*
X73807620Y-56051899D01*
X73639562Y-56407227D01*
X73639561Y-56407229D01*
X73507143Y-56777315D01*
X73411637Y-57158593D01*
X73411636Y-57158600D01*
X73353962Y-57547409D01*
X73334675Y-57940000D01*
X73353962Y-58332591D01*
X73353962Y-58332597D01*
X73353963Y-58332599D01*
X73411637Y-58721406D01*
X73507143Y-59102684D01*
X73639561Y-59472770D01*
X73639562Y-59472772D01*
X73807620Y-59828100D01*
X74009692Y-60165236D01*
X74009694Y-60165239D01*
X74223436Y-60453437D01*
X74243846Y-60480956D01*
X74507807Y-60772192D01*
X74799043Y-61036153D01*
X74799049Y-61036158D01*
X75114761Y-61270306D01*
X75451903Y-61472381D01*
X75801033Y-61637508D01*
X75835693Y-61661919D01*
X77775175Y-63601401D01*
X77808660Y-63662724D01*
X77803676Y-63732416D01*
X77761804Y-63788349D01*
X77696340Y-63812766D01*
X77631320Y-63798621D01*
X77630922Y-63799403D01*
X77627449Y-63797633D01*
X77338684Y-63672674D01*
X77036551Y-63584895D01*
X77036543Y-63584893D01*
X76725782Y-63535674D01*
X76594844Y-63529500D01*
X76594840Y-63529500D01*
X75586903Y-63529500D01*
X75559311Y-63526391D01*
X75323319Y-63472527D01*
X75323303Y-63472525D01*
X74977838Y-63433600D01*
X74977834Y-63433600D01*
X72199878Y-63433600D01*
X72196292Y-63433515D01*
X72196292Y-63433534D01*
X72194853Y-63433500D01*
X72194840Y-63433500D01*
X68805160Y-63433500D01*
X68805147Y-63433500D01*
X68803708Y-63433534D01*
X68803707Y-63433515D01*
X68800122Y-63433600D01*
X66946262Y-63433600D01*
X66670959Y-63464620D01*
X66657075Y-63465400D01*
X62556746Y-63465400D01*
X62489707Y-63445715D01*
X62487855Y-63444502D01*
X62402164Y-63387245D01*
X62402163Y-63387244D01*
X62402158Y-63387241D01*
X62402153Y-63387238D01*
X62402146Y-63387234D01*
X62081942Y-63216081D01*
X62081937Y-63216079D01*
X62038580Y-63198120D01*
X61915357Y-63147079D01*
X61746479Y-63077127D01*
X61399006Y-62971723D01*
X61398995Y-62971720D01*
X61042895Y-62900888D01*
X60770742Y-62874084D01*
X60681548Y-62865300D01*
X60318452Y-62865300D01*
X60236038Y-62873416D01*
X59957104Y-62900888D01*
X59601004Y-62971720D01*
X59600993Y-62971723D01*
X59253520Y-63077127D01*
X58918062Y-63216079D01*
X58918057Y-63216081D01*
X58597853Y-63387234D01*
X58597835Y-63387245D01*
X58295946Y-63588961D01*
X58295932Y-63588971D01*
X58015255Y-63819317D01*
X57758517Y-64076055D01*
X57528171Y-64356732D01*
X57528161Y-64356746D01*
X57326445Y-64658635D01*
X57326434Y-64658653D01*
X57155281Y-64978857D01*
X57155279Y-64978862D01*
X57016327Y-65314320D01*
X56910923Y-65661793D01*
X56910920Y-65661804D01*
X56840088Y-66017904D01*
X56840088Y-66017906D01*
X56828758Y-66132953D01*
X56802598Y-66197741D01*
X56745563Y-66238100D01*
X56705355Y-66244800D01*
X56589500Y-66244800D01*
X56522461Y-66225115D01*
X56476706Y-66172311D01*
X56465500Y-66120800D01*
X56465500Y-65850155D01*
X56459325Y-65719219D01*
X56459325Y-65719214D01*
X56410106Y-65408456D01*
X56410104Y-65408448D01*
X56322325Y-65106315D01*
X56322324Y-65106311D01*
X56197367Y-64817552D01*
X56037204Y-64546732D01*
X56037197Y-64546722D01*
X55844362Y-64298120D01*
X55621879Y-64075637D01*
X55373277Y-63882802D01*
X55373271Y-63882798D01*
X55373268Y-63882796D01*
X55149259Y-63750317D01*
X55102447Y-63722632D01*
X54813684Y-63597674D01*
X54621479Y-63541833D01*
X54582036Y-63521058D01*
X54581602Y-63521644D01*
X54581593Y-63521658D01*
X54581592Y-63521657D01*
X54581503Y-63521778D01*
X54579070Y-63519974D01*
X54579062Y-63519967D01*
X54277158Y-63318241D01*
X54277153Y-63318238D01*
X54277146Y-63318234D01*
X53956942Y-63147081D01*
X53956937Y-63147079D01*
X53621479Y-63008127D01*
X53274006Y-62902723D01*
X53273995Y-62902720D01*
X52917895Y-62831888D01*
X52645742Y-62805084D01*
X52556548Y-62796300D01*
X52193452Y-62796300D01*
X52111038Y-62804416D01*
X51832104Y-62831888D01*
X51476004Y-62902720D01*
X51475993Y-62902723D01*
X51128520Y-63008127D01*
X50793062Y-63147079D01*
X50793057Y-63147081D01*
X50472853Y-63318234D01*
X50472835Y-63318245D01*
X50434737Y-63343702D01*
X50368059Y-63364580D01*
X50365846Y-63364600D01*
X49874878Y-63364600D01*
X49871292Y-63364515D01*
X49871292Y-63364534D01*
X49869853Y-63364500D01*
X49869840Y-63364500D01*
X46480160Y-63364500D01*
X46480147Y-63364500D01*
X46478708Y-63364534D01*
X46478707Y-63364515D01*
X46475122Y-63364600D01*
X44621262Y-63364600D01*
X44345959Y-63395620D01*
X44332075Y-63396400D01*
X44153446Y-63396400D01*
X44086407Y-63376715D01*
X44084555Y-63375502D01*
X43998864Y-63318245D01*
X43998863Y-63318244D01*
X43998858Y-63318241D01*
X43998853Y-63318238D01*
X43998846Y-63318234D01*
X43678642Y-63147081D01*
X43678637Y-63147079D01*
X43343179Y-63008127D01*
X42995706Y-62902723D01*
X42995695Y-62902720D01*
X42639595Y-62831888D01*
X42367442Y-62805084D01*
X42278248Y-62796300D01*
X41915152Y-62796300D01*
X41832738Y-62804416D01*
X41553804Y-62831888D01*
X41197704Y-62902720D01*
X41197693Y-62902723D01*
X40850220Y-63008127D01*
X40514762Y-63147079D01*
X40514757Y-63147081D01*
X40194553Y-63318234D01*
X40194535Y-63318245D01*
X39892646Y-63519961D01*
X39892632Y-63519971D01*
X39611955Y-63750317D01*
X39355217Y-64007055D01*
X39124871Y-64287732D01*
X39124861Y-64287746D01*
X38923145Y-64589635D01*
X38923134Y-64589653D01*
X38751981Y-64909857D01*
X38751979Y-64909862D01*
X38613027Y-65245320D01*
X38507623Y-65592793D01*
X38507620Y-65592804D01*
X38436788Y-65948904D01*
X38401200Y-66310255D01*
X38401200Y-73831212D01*
X38381515Y-73898251D01*
X38364881Y-73918893D01*
X37210593Y-75073181D01*
X37149270Y-75106666D01*
X37122912Y-75109500D01*
X34795156Y-75109500D01*
X34664219Y-75115674D01*
X34664214Y-75115674D01*
X34353456Y-75164893D01*
X34353448Y-75164895D01*
X34051315Y-75252674D01*
X33762552Y-75377632D01*
X33601094Y-75473119D01*
X33491732Y-75537796D01*
X33491728Y-75537798D01*
X33491723Y-75537802D01*
X33491722Y-75537802D01*
X33243120Y-75730637D01*
X33243120Y-75730638D01*
X33020638Y-75953120D01*
X33020637Y-75953120D01*
X32827802Y-76201722D01*
X32827802Y-76201723D01*
X32827798Y-76201728D01*
X32827796Y-76201732D01*
X32762403Y-76312306D01*
X32731232Y-76365013D01*
X32680162Y-76412696D01*
X32611421Y-76425199D01*
X32546831Y-76398553D01*
X32506901Y-76341218D01*
X32500500Y-76301891D01*
X32500500Y-29424500D01*
X32520185Y-29357461D01*
X32572989Y-29311706D01*
X32624500Y-29300500D01*
X188375500Y-29300500D01*
X188442539Y-29320185D01*
G37*
%TD.AperFunction*%
%TD*%
M02*
