%TF.GenerationSoftware,KiCad,Pcbnew,8.0.6-8.0.6-0~ubuntu24.04.1*%
%TF.CreationDate,2024-10-28T17:30:22+01:00*%
%TF.ProjectId,diplexer,6469706c-6578-4657-922e-6b696361645f,rev?*%
%TF.SameCoordinates,Original*%
%TF.FileFunction,Paste,Top*%
%TF.FilePolarity,Positive*%
%FSLAX46Y46*%
G04 Gerber Fmt 4.6, Leading zero omitted, Abs format (unit mm)*
G04 Created by KiCad (PCBNEW 8.0.6-8.0.6-0~ubuntu24.04.1) date 2024-10-28 17:30:22*
%MOMM*%
%LPD*%
G01*
G04 APERTURE LIST*
%ADD10R,3.180000X1.190000*%
%ADD11R,5.000000X5.000000*%
%ADD12R,4.000000X4.000000*%
G04 APERTURE END LIST*
D10*
%TO.C,C17*%
X90400000Y-98678000D03*
X90400000Y-101500000D03*
%TD*%
%TO.C,C6*%
X64700000Y-102300000D03*
X64700000Y-99478000D03*
%TD*%
%TO.C,C14*%
X124925000Y-66589000D03*
X124925000Y-69411000D03*
%TD*%
%TO.C,C4*%
X120500000Y-66529000D03*
X120500000Y-69351000D03*
%TD*%
%TO.C,C19*%
X140175000Y-96678000D03*
X140175000Y-99500000D03*
%TD*%
D11*
%TO.C,J3*%
X184000000Y-94850000D03*
X184000000Y-103960000D03*
X184000000Y-85750000D03*
%TD*%
D12*
%TO.C,J2*%
X176500000Y-63890000D03*
X185500000Y-57540000D03*
X185500000Y-70240000D03*
%TD*%
D10*
%TO.C,C13*%
X95175000Y-66514000D03*
X95175000Y-69336000D03*
%TD*%
%TO.C,C1*%
X52375000Y-66550000D03*
X52375000Y-69372000D03*
%TD*%
%TO.C,C7*%
X85600000Y-101400000D03*
X85600000Y-98578000D03*
%TD*%
%TO.C,C15*%
X144900000Y-65375000D03*
X144900000Y-68197000D03*
%TD*%
%TO.C,C20*%
X168975000Y-96417000D03*
X168975000Y-99239000D03*
%TD*%
%TO.C,C11*%
X48175000Y-66460000D03*
X48175000Y-69282000D03*
%TD*%
D11*
%TO.C,J1*%
X37400000Y-80110000D03*
X37400000Y-71000000D03*
X37400000Y-89210000D03*
%TD*%
D10*
%TO.C,C5*%
X149475000Y-65450000D03*
X149475000Y-68272000D03*
%TD*%
%TO.C,C10*%
X164100000Y-99200000D03*
X164100000Y-96378000D03*
%TD*%
%TO.C,C2*%
X70500000Y-66529000D03*
X70500000Y-69351000D03*
%TD*%
%TO.C,C18*%
X119200000Y-97478000D03*
X119200000Y-100300000D03*
%TD*%
%TO.C,C8*%
X114400000Y-100100000D03*
X114400000Y-97278000D03*
%TD*%
%TO.C,C9*%
X135400000Y-99479000D03*
X135400000Y-96657000D03*
%TD*%
%TO.C,C12*%
X74900000Y-66625000D03*
X74900000Y-69447000D03*
%TD*%
%TO.C,C16*%
X69400000Y-99878000D03*
X69400000Y-102700000D03*
%TD*%
%TO.C,C3*%
X99610000Y-66529000D03*
X99610000Y-69351000D03*
%TD*%
M02*
