M48
; DRILL file {KiCad 8.0.6-8.0.6-0~ubuntu24.04.1} date 2024-10-28T17:30:17+0100
; FORMAT={-:-/ absolute / inch / decimal}
; #@! TF.CreationDate,2024-10-28T17:30:17+01:00
; #@! TF.GenerationSoftware,Kicad,Pcbnew,8.0.6-8.0.6-0~ubuntu24.04.1
; #@! TF.FileFunction,Plated,1,2,PTH
FMAT,2
INCH
; #@! TA.AperFunction,Plated,PTH,ViaDrill
T1C0.0118
; #@! TA.AperFunction,Plated,PTH,ComponentDrill
T2C0.0630
; #@! TA.AperFunction,Plated,PTH,ComponentDrill
T3C0.1260
%
G90
G05
T1
X1.7717Y-1.7717
X1.9685Y-1.7717
X1.9685Y-2.9528
X1.9685Y-3.3465
X1.9685Y-4.3307
X2.1654Y-1.7717
X2.1654Y-2.9528
X2.1654Y-3.3465
X2.1654Y-4.3307
X2.3622Y-1.7717
X2.3622Y-2.9528
X2.3622Y-3.3465
X2.3622Y-4.3307
X2.5591Y-1.7717
X2.5591Y-2.9528
X2.5591Y-3.3465
X2.5591Y-4.3307
X2.7559Y-1.7717
X2.7559Y-2.9528
X2.7559Y-3.3465
X2.7559Y-4.3307
X2.9528Y-1.7717
X2.9528Y-2.9528
X2.9528Y-3.3465
X2.9528Y-3.3465
X2.9528Y-4.3307
X3.1496Y-1.7717
X3.1496Y-2.9528
X3.1496Y-3.3465
X3.1496Y-4.3307
X3.3465Y-1.7717
X3.3465Y-2.9528
X3.3465Y-3.3465
X3.3465Y-4.3307
X3.5433Y-1.7717
X3.5433Y-2.9528
X3.5433Y-3.3465
X3.5433Y-4.3307
X3.7402Y-1.7717
X3.7402Y-2.9528
X3.7402Y-3.3465
X3.7402Y-4.3307
X3.937Y-1.7717
X3.937Y-2.9528
X3.937Y-3.3465
X3.937Y-4.3307
X4.1339Y-1.7717
X4.1339Y-2.9528
X4.1339Y-3.3465
X4.1339Y-4.3307
X4.3307Y-1.7717
X4.3307Y-2.9528
X4.3307Y-3.3465
X4.3307Y-4.3307
X4.5276Y-1.7717
X4.5276Y-2.9528
X4.5276Y-3.3465
X4.5276Y-4.3307
X4.7244Y-1.7717
X4.7244Y-2.9528
X4.7244Y-3.3465
X4.7244Y-4.3307
X4.9213Y-1.7717
X4.9213Y-2.9528
X4.9213Y-3.3465
X4.9213Y-4.3307
X5.1181Y-1.7717
X5.1181Y-2.9528
X5.1181Y-3.3465
X5.1181Y-4.3307
X5.315Y-1.7717
X5.315Y-2.9528
X5.315Y-3.3465
X5.315Y-4.3307
X5.5118Y-1.7717
X5.5118Y-2.9528
X5.5118Y-3.3465
X5.5118Y-4.3307
X5.7087Y-1.7717
X5.7087Y-2.9528
X5.7087Y-3.3465
X5.7087Y-4.3307
X5.9055Y-1.7717
X5.9055Y-2.9528
X5.9055Y-3.3465
X5.9055Y-4.3307
X6.1024Y-1.7717
X6.1024Y-2.9528
X6.1024Y-3.3465
X6.1024Y-4.3307
X6.2992Y-1.7717
X6.2992Y-2.9528
X6.2992Y-3.3465
X6.2992Y-4.3307
X6.4961Y-1.7717
X6.4961Y-2.9528
X6.4961Y-3.3465
X6.4961Y-4.3307
X6.6929Y-1.7717
X6.6929Y-2.9528
X6.6929Y-3.3465
X6.6929Y-4.3307
X6.8898Y-1.7717
X6.8898Y-2.9528
X6.8898Y-3.3465
X6.8898Y-4.3307
X7.0866Y-1.7717
X7.0866Y-2.9528
X7.0866Y-3.3465
X7.0866Y-4.3307
T2
X1.7908Y-3.8583
X2.3656Y-3.8583
X2.3819Y-2.1063
X2.3819Y-2.6811
X3.0449Y-2.2811
X3.0512Y-3.6024
X3.0512Y-4.1772
X3.6197Y-2.2811
X3.7397Y-3.7598
X4.3145Y-3.7598
X4.3504Y-2.1063
X4.3504Y-2.6811
X4.9995Y-2.2811
X5.0394Y-3.5595
X5.0394Y-4.1344
X5.5743Y-2.2811
X5.7082Y-3.7205
X6.2402Y-2.0635
X6.2402Y-2.6383
X6.283Y-3.7205
T3
X1.437Y-1.8701
X1.437Y-4.3898
X1.9882Y-3.1299
X3.7992Y-3.1299
X5.2953Y-3.1299
X7.3031Y-1.8701
X7.3031Y-3.1299
X7.3031Y-4.3898
M30
