%TF.GenerationSoftware,KiCad,Pcbnew,8.0.5-8.0.5-0~ubuntu24.04.1*%
%TF.CreationDate,2024-10-12T14:50:42+02:00*%
%TF.ProjectId,diplexer,6469706c-6578-4657-922e-6b696361645f,rev?*%
%TF.SameCoordinates,Original*%
%TF.FileFunction,Copper,L2,Bot*%
%TF.FilePolarity,Positive*%
%FSLAX46Y46*%
G04 Gerber Fmt 4.6, Leading zero omitted, Abs format (unit mm)*
G04 Created by KiCad (PCBNEW 8.0.5-8.0.5-0~ubuntu24.04.1) date 2024-10-12 14:50:42*
%MOMM*%
%LPD*%
G01*
G04 APERTURE LIST*
%TA.AperFunction,ComponentPad*%
%ADD10C,3.000000*%
%TD*%
%TA.AperFunction,ComponentPad*%
%ADD11C,5.600000*%
%TD*%
G04 APERTURE END LIST*
D10*
%TO.P,L10,1,1*%
%TO.N,Net-(J1-In)*%
X42400000Y-80000000D03*
%TO.P,L10,2,2*%
%TO.N,Net-(C6-Pad2)*%
X57000000Y-80000000D03*
%TD*%
D11*
%TO.P,J5,1,Pin_1*%
%TO.N,GND*%
X36000000Y-33000000D03*
%TD*%
D10*
%TO.P,L2,1,1*%
%TO.N,Net-(C2-Pad2)*%
X76840000Y-43440000D03*
%TO.P,L2,2,2*%
%TO.N,GND*%
X91440000Y-43440000D03*
%TD*%
%TO.P,L4,1,1*%
%TO.N,Net-(C4-Pad2)*%
X126487500Y-43440000D03*
%TO.P,L4,2,2*%
%TO.N,GND*%
X141087500Y-43440000D03*
%TD*%
%TO.P,L6,1,1*%
%TO.N,Net-(C9-Pad2)*%
X144487500Y-80000000D03*
%TO.P,L6,2,2*%
%TO.N,Net-(J3-In)*%
X159087500Y-80000000D03*
%TD*%
D11*
%TO.P,J7,1,Pin_1*%
%TO.N,GND*%
X185000000Y-33000000D03*
%TD*%
D10*
%TO.P,L7,1,1*%
%TO.N,Net-(C8-Pad2)*%
X126000000Y-90512500D03*
%TO.P,L7,2,2*%
%TO.N,Net-(C9-Pad2)*%
X126000000Y-75912500D03*
%TD*%
%TO.P,L9,1,1*%
%TO.N,Net-(C6-Pad2)*%
X77000000Y-91600000D03*
%TO.P,L9,2,2*%
%TO.N,Net-(C7-Pad2)*%
X77000000Y-77000000D03*
%TD*%
D11*
%TO.P,J11,1,Pin_1*%
%TO.N,GND*%
X185000000Y-65000000D03*
%TD*%
%TO.P,J10,1,Pin_1*%
%TO.N,GND*%
X134000000Y-65000000D03*
%TD*%
%TO.P,J8,1,Pin_1*%
%TO.N,GND*%
X50000000Y-65000000D03*
%TD*%
D10*
%TO.P,L8,1,1*%
%TO.N,Net-(C7-Pad2)*%
X94487500Y-81000000D03*
%TO.P,L8,2,2*%
%TO.N,Net-(C8-Pad2)*%
X109087500Y-81000000D03*
%TD*%
%TO.P,L1,1,1*%
%TO.N,Net-(C1-Pad2)*%
X60000000Y-53600000D03*
%TO.P,L1,2,2*%
%TO.N,GND*%
X60000000Y-39000000D03*
%TD*%
D11*
%TO.P,J6,1,Pin_1*%
%TO.N,GND*%
X185000000Y-97000000D03*
%TD*%
D10*
%TO.P,L5,1,1*%
%TO.N,Net-(J2-In)*%
X158000000Y-52512500D03*
%TO.P,L5,2,2*%
%TO.N,GND*%
X158000000Y-37912500D03*
%TD*%
%TO.P,L3,1,1*%
%TO.N,Net-(C3-Pad2)*%
X110000000Y-53600000D03*
%TO.P,L3,2,2*%
%TO.N,GND*%
X110000000Y-39000000D03*
%TD*%
D11*
%TO.P,J4,1,Pin_1*%
%TO.N,GND*%
X36000000Y-97000000D03*
%TD*%
%TO.P,J9,1,Pin_1*%
%TO.N,GND*%
X96000000Y-65000000D03*
%TD*%
%TA.AperFunction,Conductor*%
%TO.N,GND*%
G36*
X188442539Y-29520185D02*
G01*
X188488294Y-29572989D01*
X188499500Y-29624500D01*
X188499500Y-100375500D01*
X188479815Y-100442539D01*
X188427011Y-100488294D01*
X188375500Y-100499500D01*
X32624500Y-100499500D01*
X32557461Y-100479815D01*
X32511706Y-100427011D01*
X32500500Y-100375500D01*
X32500500Y-91600000D01*
X72494693Y-91600000D01*
X72513912Y-92015697D01*
X72513912Y-92015702D01*
X72513913Y-92015707D01*
X72571403Y-92427845D01*
X72571405Y-92427853D01*
X72666679Y-92832933D01*
X72798929Y-93227514D01*
X72967010Y-93608177D01*
X72967020Y-93608198D01*
X73169506Y-93971731D01*
X73169509Y-93971735D01*
X73169511Y-93971739D01*
X73404687Y-94315054D01*
X73404689Y-94315056D01*
X73404696Y-94315066D01*
X73596038Y-94545489D01*
X73670538Y-94635206D01*
X73964794Y-94929462D01*
X73964805Y-94929471D01*
X74284933Y-95195303D01*
X74284939Y-95195307D01*
X74284946Y-95195313D01*
X74628261Y-95430489D01*
X74991812Y-95632985D01*
X75182153Y-95717029D01*
X75372485Y-95801070D01*
X75372488Y-95801071D01*
X75372495Y-95801074D01*
X75767064Y-95933320D01*
X76172152Y-96028596D01*
X76584303Y-96086088D01*
X77000000Y-96105307D01*
X77415697Y-96086088D01*
X77827848Y-96028596D01*
X78232936Y-95933320D01*
X78627505Y-95801074D01*
X79008188Y-95632985D01*
X79371739Y-95430489D01*
X79715054Y-95195313D01*
X80035206Y-94929462D01*
X80329462Y-94635206D01*
X80595313Y-94315054D01*
X80830489Y-93971739D01*
X81032985Y-93608188D01*
X81201074Y-93227505D01*
X81333320Y-92832936D01*
X81428596Y-92427848D01*
X81486088Y-92015697D01*
X81505307Y-91600000D01*
X81486088Y-91184303D01*
X81428596Y-90772152D01*
X81367526Y-90512500D01*
X121494693Y-90512500D01*
X121513912Y-90928197D01*
X121513912Y-90928202D01*
X121513913Y-90928207D01*
X121571403Y-91340345D01*
X121571405Y-91340353D01*
X121666679Y-91745433D01*
X121798929Y-92140014D01*
X121967010Y-92520677D01*
X121967020Y-92520698D01*
X122169506Y-92884231D01*
X122169509Y-92884235D01*
X122169511Y-92884239D01*
X122404687Y-93227554D01*
X122404689Y-93227556D01*
X122404696Y-93227566D01*
X122670528Y-93547694D01*
X122670538Y-93547706D01*
X122964794Y-93841962D01*
X122964805Y-93841971D01*
X123284933Y-94107803D01*
X123284939Y-94107807D01*
X123284946Y-94107813D01*
X123628261Y-94342989D01*
X123991812Y-94545485D01*
X124182153Y-94629529D01*
X124372485Y-94713570D01*
X124372488Y-94713571D01*
X124372495Y-94713574D01*
X124767064Y-94845820D01*
X125172152Y-94941096D01*
X125584303Y-94998588D01*
X126000000Y-95017807D01*
X126415697Y-94998588D01*
X126827848Y-94941096D01*
X127232936Y-94845820D01*
X127627505Y-94713574D01*
X128008188Y-94545485D01*
X128371739Y-94342989D01*
X128715054Y-94107813D01*
X129035206Y-93841962D01*
X129329462Y-93547706D01*
X129595313Y-93227554D01*
X129830489Y-92884239D01*
X130032985Y-92520688D01*
X130201074Y-92140005D01*
X130333320Y-91745436D01*
X130428596Y-91340348D01*
X130486088Y-90928197D01*
X130505307Y-90512500D01*
X130486088Y-90096803D01*
X130428596Y-89684652D01*
X130333320Y-89279564D01*
X130201074Y-88884995D01*
X130201052Y-88884946D01*
X130059695Y-88564805D01*
X130032985Y-88504312D01*
X129830489Y-88140761D01*
X129595313Y-87797446D01*
X129595307Y-87797439D01*
X129595303Y-87797433D01*
X129329471Y-87477305D01*
X129329462Y-87477294D01*
X129035206Y-87183038D01*
X128951961Y-87113912D01*
X128715066Y-86917196D01*
X128715056Y-86917189D01*
X128715054Y-86917187D01*
X128371739Y-86682011D01*
X128371735Y-86682009D01*
X128371731Y-86682006D01*
X128008198Y-86479520D01*
X128008177Y-86479510D01*
X127627514Y-86311429D01*
X127232933Y-86179179D01*
X126827853Y-86083905D01*
X126827845Y-86083903D01*
X126415707Y-86026413D01*
X126415702Y-86026412D01*
X126415697Y-86026412D01*
X126000000Y-86007193D01*
X125584303Y-86026412D01*
X125584297Y-86026412D01*
X125584292Y-86026413D01*
X125172154Y-86083903D01*
X125172146Y-86083905D01*
X124767066Y-86179179D01*
X124372485Y-86311429D01*
X123991822Y-86479510D01*
X123991801Y-86479520D01*
X123628268Y-86682006D01*
X123628262Y-86682010D01*
X123284943Y-86917189D01*
X123284933Y-86917196D01*
X122964805Y-87183028D01*
X122964785Y-87183046D01*
X122670546Y-87477285D01*
X122670528Y-87477305D01*
X122404696Y-87797433D01*
X122404689Y-87797443D01*
X122169510Y-88140762D01*
X122169506Y-88140768D01*
X121967020Y-88504301D01*
X121967010Y-88504322D01*
X121798929Y-88884985D01*
X121666679Y-89279566D01*
X121571405Y-89684646D01*
X121571403Y-89684654D01*
X121513913Y-90096792D01*
X121513912Y-90096797D01*
X121513912Y-90096803D01*
X121494693Y-90512500D01*
X81367526Y-90512500D01*
X81333320Y-90367064D01*
X81201074Y-89972495D01*
X81032985Y-89591812D01*
X80830489Y-89228261D01*
X80595313Y-88884946D01*
X80595307Y-88884939D01*
X80595303Y-88884933D01*
X80329471Y-88564805D01*
X80329462Y-88564794D01*
X80035206Y-88270538D01*
X80035194Y-88270528D01*
X79715066Y-88004696D01*
X79715056Y-88004689D01*
X79715054Y-88004687D01*
X79371739Y-87769511D01*
X79371735Y-87769509D01*
X79371731Y-87769506D01*
X79008198Y-87567020D01*
X79008177Y-87567010D01*
X78627514Y-87398929D01*
X78232933Y-87266679D01*
X77827853Y-87171405D01*
X77827845Y-87171403D01*
X77415707Y-87113913D01*
X77415702Y-87113912D01*
X77415697Y-87113912D01*
X77000000Y-87094693D01*
X76584303Y-87113912D01*
X76584297Y-87113912D01*
X76584292Y-87113913D01*
X76172154Y-87171403D01*
X76172146Y-87171405D01*
X75767066Y-87266679D01*
X75372485Y-87398929D01*
X74991822Y-87567010D01*
X74991801Y-87567020D01*
X74628268Y-87769506D01*
X74628262Y-87769510D01*
X74284943Y-88004689D01*
X74284933Y-88004696D01*
X73964805Y-88270528D01*
X73964785Y-88270546D01*
X73670546Y-88564785D01*
X73670528Y-88564805D01*
X73404696Y-88884933D01*
X73404689Y-88884943D01*
X73169510Y-89228262D01*
X73169506Y-89228268D01*
X72967020Y-89591801D01*
X72967010Y-89591822D01*
X72798929Y-89972485D01*
X72666679Y-90367066D01*
X72571405Y-90772146D01*
X72571403Y-90772154D01*
X72513913Y-91184292D01*
X72513912Y-91184297D01*
X72513912Y-91184303D01*
X72494693Y-91600000D01*
X32500500Y-91600000D01*
X32500500Y-80000000D01*
X37894693Y-80000000D01*
X37913912Y-80415697D01*
X37913912Y-80415702D01*
X37913913Y-80415707D01*
X37971403Y-80827845D01*
X37971405Y-80827853D01*
X38066679Y-81232933D01*
X38198929Y-81627514D01*
X38367010Y-82008177D01*
X38367020Y-82008198D01*
X38569506Y-82371731D01*
X38569509Y-82371735D01*
X38569511Y-82371739D01*
X38804687Y-82715054D01*
X38804689Y-82715056D01*
X38804696Y-82715066D01*
X39048111Y-83008198D01*
X39070538Y-83035206D01*
X39364794Y-83329462D01*
X39364805Y-83329471D01*
X39684933Y-83595303D01*
X39684939Y-83595307D01*
X39684946Y-83595313D01*
X40028261Y-83830489D01*
X40391812Y-84032985D01*
X40582153Y-84117029D01*
X40772485Y-84201070D01*
X40772488Y-84201071D01*
X40772495Y-84201074D01*
X41167064Y-84333320D01*
X41572152Y-84428596D01*
X41984303Y-84486088D01*
X42400000Y-84505307D01*
X42815697Y-84486088D01*
X43227848Y-84428596D01*
X43632936Y-84333320D01*
X44027505Y-84201074D01*
X44408188Y-84032985D01*
X44771739Y-83830489D01*
X45115054Y-83595313D01*
X45435206Y-83329462D01*
X45729462Y-83035206D01*
X45995313Y-82715054D01*
X46230489Y-82371739D01*
X46432985Y-82008188D01*
X46601074Y-81627505D01*
X46733320Y-81232936D01*
X46828596Y-80827848D01*
X46886088Y-80415697D01*
X46905307Y-80000000D01*
X52494693Y-80000000D01*
X52513912Y-80415697D01*
X52513912Y-80415702D01*
X52513913Y-80415707D01*
X52571403Y-80827845D01*
X52571405Y-80827853D01*
X52666679Y-81232933D01*
X52798929Y-81627514D01*
X52967010Y-82008177D01*
X52967020Y-82008198D01*
X53169506Y-82371731D01*
X53169509Y-82371735D01*
X53169511Y-82371739D01*
X53404687Y-82715054D01*
X53404689Y-82715056D01*
X53404696Y-82715066D01*
X53648111Y-83008198D01*
X53670538Y-83035206D01*
X53964794Y-83329462D01*
X53964805Y-83329471D01*
X54284933Y-83595303D01*
X54284939Y-83595307D01*
X54284946Y-83595313D01*
X54628261Y-83830489D01*
X54991812Y-84032985D01*
X55182153Y-84117029D01*
X55372485Y-84201070D01*
X55372488Y-84201071D01*
X55372495Y-84201074D01*
X55767064Y-84333320D01*
X56172152Y-84428596D01*
X56584303Y-84486088D01*
X57000000Y-84505307D01*
X57415697Y-84486088D01*
X57827848Y-84428596D01*
X58232936Y-84333320D01*
X58627505Y-84201074D01*
X59008188Y-84032985D01*
X59371739Y-83830489D01*
X59715054Y-83595313D01*
X60035206Y-83329462D01*
X60329462Y-83035206D01*
X60595313Y-82715054D01*
X60830489Y-82371739D01*
X61032985Y-82008188D01*
X61201074Y-81627505D01*
X61333320Y-81232936D01*
X61428596Y-80827848D01*
X61486088Y-80415697D01*
X61505307Y-80000000D01*
X61486088Y-79584303D01*
X61428596Y-79172152D01*
X61333320Y-78767064D01*
X61201074Y-78372495D01*
X61162411Y-78284933D01*
X61032989Y-77991822D01*
X61032985Y-77991812D01*
X60854031Y-77670528D01*
X60830493Y-77628268D01*
X60830492Y-77628267D01*
X60830489Y-77628261D01*
X60595313Y-77284946D01*
X60595307Y-77284939D01*
X60595303Y-77284933D01*
X60358697Y-77000000D01*
X72494693Y-77000000D01*
X72513912Y-77415697D01*
X72513912Y-77415702D01*
X72513913Y-77415707D01*
X72571403Y-77827845D01*
X72571405Y-77827853D01*
X72666679Y-78232933D01*
X72798929Y-78627514D01*
X72967010Y-79008177D01*
X72967020Y-79008198D01*
X73169506Y-79371731D01*
X73169509Y-79371735D01*
X73169511Y-79371739D01*
X73404687Y-79715054D01*
X73404689Y-79715056D01*
X73404696Y-79715066D01*
X73596038Y-79945489D01*
X73670538Y-80035206D01*
X73964794Y-80329462D01*
X73964805Y-80329471D01*
X74284933Y-80595303D01*
X74284939Y-80595307D01*
X74284946Y-80595313D01*
X74628261Y-80830489D01*
X74991812Y-81032985D01*
X75182153Y-81117029D01*
X75372485Y-81201070D01*
X75372488Y-81201071D01*
X75372495Y-81201074D01*
X75767064Y-81333320D01*
X76172152Y-81428596D01*
X76584303Y-81486088D01*
X77000000Y-81505307D01*
X77415697Y-81486088D01*
X77827848Y-81428596D01*
X78232936Y-81333320D01*
X78627505Y-81201074D01*
X79008188Y-81032985D01*
X79067408Y-81000000D01*
X89982193Y-81000000D01*
X90001412Y-81415697D01*
X90001412Y-81415702D01*
X90001413Y-81415707D01*
X90058903Y-81827845D01*
X90058905Y-81827853D01*
X90154179Y-82232933D01*
X90286429Y-82627514D01*
X90454510Y-83008177D01*
X90454520Y-83008198D01*
X90657006Y-83371731D01*
X90657009Y-83371735D01*
X90657011Y-83371739D01*
X90892187Y-83715054D01*
X90892189Y-83715056D01*
X90892196Y-83715066D01*
X90988046Y-83830493D01*
X91158038Y-84035206D01*
X91452294Y-84329462D01*
X91452305Y-84329471D01*
X91772433Y-84595303D01*
X91772439Y-84595307D01*
X91772446Y-84595313D01*
X92115761Y-84830489D01*
X92479312Y-85032985D01*
X92669653Y-85117029D01*
X92859985Y-85201070D01*
X92859988Y-85201071D01*
X92859995Y-85201074D01*
X93254564Y-85333320D01*
X93659652Y-85428596D01*
X94071803Y-85486088D01*
X94487500Y-85505307D01*
X94903197Y-85486088D01*
X95315348Y-85428596D01*
X95720436Y-85333320D01*
X96115005Y-85201074D01*
X96495688Y-85032985D01*
X96859239Y-84830489D01*
X97202554Y-84595313D01*
X97522706Y-84329462D01*
X97816962Y-84035206D01*
X98082813Y-83715054D01*
X98317989Y-83371739D01*
X98520485Y-83008188D01*
X98688574Y-82627505D01*
X98820820Y-82232936D01*
X98916096Y-81827848D01*
X98973588Y-81415697D01*
X98992807Y-81000000D01*
X104582193Y-81000000D01*
X104601412Y-81415697D01*
X104601412Y-81415702D01*
X104601413Y-81415707D01*
X104658903Y-81827845D01*
X104658905Y-81827853D01*
X104754179Y-82232933D01*
X104886429Y-82627514D01*
X105054510Y-83008177D01*
X105054520Y-83008198D01*
X105257006Y-83371731D01*
X105257009Y-83371735D01*
X105257011Y-83371739D01*
X105492187Y-83715054D01*
X105492189Y-83715056D01*
X105492196Y-83715066D01*
X105588046Y-83830493D01*
X105758038Y-84035206D01*
X106052294Y-84329462D01*
X106052305Y-84329471D01*
X106372433Y-84595303D01*
X106372439Y-84595307D01*
X106372446Y-84595313D01*
X106715761Y-84830489D01*
X107079312Y-85032985D01*
X107269653Y-85117029D01*
X107459985Y-85201070D01*
X107459988Y-85201071D01*
X107459995Y-85201074D01*
X107854564Y-85333320D01*
X108259652Y-85428596D01*
X108671803Y-85486088D01*
X109087500Y-85505307D01*
X109503197Y-85486088D01*
X109915348Y-85428596D01*
X110320436Y-85333320D01*
X110715005Y-85201074D01*
X111095688Y-85032985D01*
X111459239Y-84830489D01*
X111802554Y-84595313D01*
X112122706Y-84329462D01*
X112416962Y-84035206D01*
X112682813Y-83715054D01*
X112917989Y-83371739D01*
X113120485Y-83008188D01*
X113288574Y-82627505D01*
X113420820Y-82232936D01*
X113516096Y-81827848D01*
X113573588Y-81415697D01*
X113592807Y-81000000D01*
X113573588Y-80584303D01*
X113516096Y-80172152D01*
X113420820Y-79767064D01*
X113288574Y-79372495D01*
X113288240Y-79371739D01*
X113127720Y-79008198D01*
X113120485Y-78991812D01*
X112917989Y-78628261D01*
X112682813Y-78284946D01*
X112682807Y-78284939D01*
X112682803Y-78284933D01*
X112416971Y-77964805D01*
X112416962Y-77964794D01*
X112122706Y-77670538D01*
X112071794Y-77628261D01*
X111802566Y-77404696D01*
X111802556Y-77404689D01*
X111802554Y-77404687D01*
X111459239Y-77169511D01*
X111459235Y-77169509D01*
X111459231Y-77169506D01*
X111095698Y-76967020D01*
X111095677Y-76967010D01*
X110715014Y-76798929D01*
X110320433Y-76666679D01*
X109915353Y-76571405D01*
X109915345Y-76571403D01*
X109503207Y-76513913D01*
X109503202Y-76513912D01*
X109503197Y-76513912D01*
X109087500Y-76494693D01*
X108671803Y-76513912D01*
X108671797Y-76513912D01*
X108671792Y-76513913D01*
X108259654Y-76571403D01*
X108259646Y-76571405D01*
X107854566Y-76666679D01*
X107459985Y-76798929D01*
X107079322Y-76967010D01*
X107079301Y-76967020D01*
X106715768Y-77169506D01*
X106715762Y-77169510D01*
X106372443Y-77404689D01*
X106372433Y-77404696D01*
X106052305Y-77670528D01*
X106052285Y-77670546D01*
X105758046Y-77964785D01*
X105758028Y-77964805D01*
X105492196Y-78284933D01*
X105492189Y-78284943D01*
X105257010Y-78628262D01*
X105257006Y-78628268D01*
X105054520Y-78991801D01*
X105054510Y-78991822D01*
X104886429Y-79372485D01*
X104754179Y-79767066D01*
X104658905Y-80172146D01*
X104658903Y-80172154D01*
X104601413Y-80584292D01*
X104601412Y-80584297D01*
X104601412Y-80584303D01*
X104582193Y-81000000D01*
X98992807Y-81000000D01*
X98973588Y-80584303D01*
X98916096Y-80172152D01*
X98820820Y-79767064D01*
X98688574Y-79372495D01*
X98688240Y-79371739D01*
X98527720Y-79008198D01*
X98520485Y-78991812D01*
X98317989Y-78628261D01*
X98082813Y-78284946D01*
X98082807Y-78284939D01*
X98082803Y-78284933D01*
X97816971Y-77964805D01*
X97816962Y-77964794D01*
X97522706Y-77670538D01*
X97471794Y-77628261D01*
X97202566Y-77404696D01*
X97202556Y-77404689D01*
X97202554Y-77404687D01*
X96859239Y-77169511D01*
X96859235Y-77169509D01*
X96859231Y-77169506D01*
X96495698Y-76967020D01*
X96495677Y-76967010D01*
X96115014Y-76798929D01*
X95720433Y-76666679D01*
X95315353Y-76571405D01*
X95315345Y-76571403D01*
X94903207Y-76513913D01*
X94903202Y-76513912D01*
X94903197Y-76513912D01*
X94487500Y-76494693D01*
X94071803Y-76513912D01*
X94071797Y-76513912D01*
X94071792Y-76513913D01*
X93659654Y-76571403D01*
X93659646Y-76571405D01*
X93254566Y-76666679D01*
X92859985Y-76798929D01*
X92479322Y-76967010D01*
X92479301Y-76967020D01*
X92115768Y-77169506D01*
X92115762Y-77169510D01*
X91772443Y-77404689D01*
X91772433Y-77404696D01*
X91452305Y-77670528D01*
X91452285Y-77670546D01*
X91158046Y-77964785D01*
X91158028Y-77964805D01*
X90892196Y-78284933D01*
X90892189Y-78284943D01*
X90657010Y-78628262D01*
X90657006Y-78628268D01*
X90454520Y-78991801D01*
X90454510Y-78991822D01*
X90286429Y-79372485D01*
X90154179Y-79767066D01*
X90058905Y-80172146D01*
X90058903Y-80172154D01*
X90001413Y-80584292D01*
X90001412Y-80584297D01*
X90001412Y-80584303D01*
X89982193Y-81000000D01*
X79067408Y-81000000D01*
X79371739Y-80830489D01*
X79715054Y-80595313D01*
X80035206Y-80329462D01*
X80329462Y-80035206D01*
X80595313Y-79715054D01*
X80830489Y-79371739D01*
X81032985Y-79008188D01*
X81201074Y-78627505D01*
X81333320Y-78232936D01*
X81428596Y-77827848D01*
X81486088Y-77415697D01*
X81505307Y-77000000D01*
X81486088Y-76584303D01*
X81428596Y-76172152D01*
X81367526Y-75912500D01*
X121494693Y-75912500D01*
X121513912Y-76328197D01*
X121513912Y-76328202D01*
X121513913Y-76328207D01*
X121571403Y-76740345D01*
X121571405Y-76740353D01*
X121666679Y-77145433D01*
X121798929Y-77540014D01*
X121967010Y-77920677D01*
X121967020Y-77920698D01*
X122169506Y-78284231D01*
X122169509Y-78284235D01*
X122169511Y-78284239D01*
X122404687Y-78627554D01*
X122404689Y-78627556D01*
X122404696Y-78627566D01*
X122520536Y-78767066D01*
X122670538Y-78947706D01*
X122964794Y-79241962D01*
X122964805Y-79241971D01*
X123284933Y-79507803D01*
X123284939Y-79507807D01*
X123284946Y-79507813D01*
X123628261Y-79742989D01*
X123628267Y-79742992D01*
X123628268Y-79742993D01*
X123671487Y-79767066D01*
X123991812Y-79945485D01*
X124115276Y-80000000D01*
X124372485Y-80113570D01*
X124372488Y-80113571D01*
X124372495Y-80113574D01*
X124767064Y-80245820D01*
X125172152Y-80341096D01*
X125584303Y-80398588D01*
X126000000Y-80417807D01*
X126415697Y-80398588D01*
X126827848Y-80341096D01*
X127232936Y-80245820D01*
X127627505Y-80113574D01*
X127884724Y-80000000D01*
X139982193Y-80000000D01*
X140001412Y-80415697D01*
X140001412Y-80415702D01*
X140001413Y-80415707D01*
X140058903Y-80827845D01*
X140058905Y-80827853D01*
X140154179Y-81232933D01*
X140286429Y-81627514D01*
X140454510Y-82008177D01*
X140454520Y-82008198D01*
X140657006Y-82371731D01*
X140657009Y-82371735D01*
X140657011Y-82371739D01*
X140892187Y-82715054D01*
X140892189Y-82715056D01*
X140892196Y-82715066D01*
X141135611Y-83008198D01*
X141158038Y-83035206D01*
X141452294Y-83329462D01*
X141452305Y-83329471D01*
X141772433Y-83595303D01*
X141772439Y-83595307D01*
X141772446Y-83595313D01*
X142115761Y-83830489D01*
X142479312Y-84032985D01*
X142669653Y-84117029D01*
X142859985Y-84201070D01*
X142859988Y-84201071D01*
X142859995Y-84201074D01*
X143254564Y-84333320D01*
X143659652Y-84428596D01*
X144071803Y-84486088D01*
X144487500Y-84505307D01*
X144903197Y-84486088D01*
X145315348Y-84428596D01*
X145720436Y-84333320D01*
X146115005Y-84201074D01*
X146495688Y-84032985D01*
X146859239Y-83830489D01*
X147202554Y-83595313D01*
X147522706Y-83329462D01*
X147816962Y-83035206D01*
X148082813Y-82715054D01*
X148317989Y-82371739D01*
X148520485Y-82008188D01*
X148688574Y-81627505D01*
X148820820Y-81232936D01*
X148916096Y-80827848D01*
X148973588Y-80415697D01*
X148992807Y-80000000D01*
X154582193Y-80000000D01*
X154601412Y-80415697D01*
X154601412Y-80415702D01*
X154601413Y-80415707D01*
X154658903Y-80827845D01*
X154658905Y-80827853D01*
X154754179Y-81232933D01*
X154886429Y-81627514D01*
X155054510Y-82008177D01*
X155054520Y-82008198D01*
X155257006Y-82371731D01*
X155257009Y-82371735D01*
X155257011Y-82371739D01*
X155492187Y-82715054D01*
X155492189Y-82715056D01*
X155492196Y-82715066D01*
X155735611Y-83008198D01*
X155758038Y-83035206D01*
X156052294Y-83329462D01*
X156052305Y-83329471D01*
X156372433Y-83595303D01*
X156372439Y-83595307D01*
X156372446Y-83595313D01*
X156715761Y-83830489D01*
X157079312Y-84032985D01*
X157269653Y-84117029D01*
X157459985Y-84201070D01*
X157459988Y-84201071D01*
X157459995Y-84201074D01*
X157854564Y-84333320D01*
X158259652Y-84428596D01*
X158671803Y-84486088D01*
X159087500Y-84505307D01*
X159503197Y-84486088D01*
X159915348Y-84428596D01*
X160320436Y-84333320D01*
X160715005Y-84201074D01*
X161095688Y-84032985D01*
X161459239Y-83830489D01*
X161802554Y-83595313D01*
X162122706Y-83329462D01*
X162416962Y-83035206D01*
X162682813Y-82715054D01*
X162917989Y-82371739D01*
X163120485Y-82008188D01*
X163288574Y-81627505D01*
X163420820Y-81232936D01*
X163516096Y-80827848D01*
X163573588Y-80415697D01*
X163592807Y-80000000D01*
X163573588Y-79584303D01*
X163516096Y-79172152D01*
X163420820Y-78767064D01*
X163288574Y-78372495D01*
X163249911Y-78284933D01*
X163120489Y-77991822D01*
X163120485Y-77991812D01*
X162941531Y-77670528D01*
X162917993Y-77628268D01*
X162917992Y-77628267D01*
X162917989Y-77628261D01*
X162682813Y-77284946D01*
X162682807Y-77284939D01*
X162682803Y-77284933D01*
X162416971Y-76964805D01*
X162416962Y-76964794D01*
X162122706Y-76670538D01*
X162118059Y-76666679D01*
X161802566Y-76404696D01*
X161802556Y-76404689D01*
X161802554Y-76404687D01*
X161459239Y-76169511D01*
X161459235Y-76169509D01*
X161459231Y-76169506D01*
X161095698Y-75967020D01*
X161095677Y-75967010D01*
X160715014Y-75798929D01*
X160320433Y-75666679D01*
X159915353Y-75571405D01*
X159915345Y-75571403D01*
X159503207Y-75513913D01*
X159503202Y-75513912D01*
X159503197Y-75513912D01*
X159087500Y-75494693D01*
X158671803Y-75513912D01*
X158671797Y-75513912D01*
X158671792Y-75513913D01*
X158259654Y-75571403D01*
X158259646Y-75571405D01*
X157854566Y-75666679D01*
X157459985Y-75798929D01*
X157079322Y-75967010D01*
X157079301Y-75967020D01*
X156715768Y-76169506D01*
X156715762Y-76169510D01*
X156372443Y-76404689D01*
X156372433Y-76404696D01*
X156052305Y-76670528D01*
X156052285Y-76670546D01*
X155758046Y-76964785D01*
X155758028Y-76964805D01*
X155492196Y-77284933D01*
X155492189Y-77284943D01*
X155257010Y-77628262D01*
X155257006Y-77628268D01*
X155054520Y-77991801D01*
X155054510Y-77991822D01*
X154886429Y-78372485D01*
X154754179Y-78767066D01*
X154658905Y-79172146D01*
X154658903Y-79172154D01*
X154601413Y-79584292D01*
X154601412Y-79584297D01*
X154601412Y-79584303D01*
X154582193Y-80000000D01*
X148992807Y-80000000D01*
X148973588Y-79584303D01*
X148916096Y-79172152D01*
X148820820Y-78767064D01*
X148688574Y-78372495D01*
X148649911Y-78284933D01*
X148520489Y-77991822D01*
X148520485Y-77991812D01*
X148341531Y-77670528D01*
X148317993Y-77628268D01*
X148317992Y-77628267D01*
X148317989Y-77628261D01*
X148082813Y-77284946D01*
X148082807Y-77284939D01*
X148082803Y-77284933D01*
X147816971Y-76964805D01*
X147816962Y-76964794D01*
X147522706Y-76670538D01*
X147518059Y-76666679D01*
X147202566Y-76404696D01*
X147202556Y-76404689D01*
X147202554Y-76404687D01*
X146859239Y-76169511D01*
X146859235Y-76169509D01*
X146859231Y-76169506D01*
X146495698Y-75967020D01*
X146495677Y-75967010D01*
X146115014Y-75798929D01*
X145720433Y-75666679D01*
X145315353Y-75571405D01*
X145315345Y-75571403D01*
X144903207Y-75513913D01*
X144903202Y-75513912D01*
X144903197Y-75513912D01*
X144487500Y-75494693D01*
X144071803Y-75513912D01*
X144071797Y-75513912D01*
X144071792Y-75513913D01*
X143659654Y-75571403D01*
X143659646Y-75571405D01*
X143254566Y-75666679D01*
X142859985Y-75798929D01*
X142479322Y-75967010D01*
X142479301Y-75967020D01*
X142115768Y-76169506D01*
X142115762Y-76169510D01*
X141772443Y-76404689D01*
X141772433Y-76404696D01*
X141452305Y-76670528D01*
X141452285Y-76670546D01*
X141158046Y-76964785D01*
X141158028Y-76964805D01*
X140892196Y-77284933D01*
X140892189Y-77284943D01*
X140657010Y-77628262D01*
X140657006Y-77628268D01*
X140454520Y-77991801D01*
X140454510Y-77991822D01*
X140286429Y-78372485D01*
X140154179Y-78767066D01*
X140058905Y-79172146D01*
X140058903Y-79172154D01*
X140001413Y-79584292D01*
X140001412Y-79584297D01*
X140001412Y-79584303D01*
X139982193Y-80000000D01*
X127884724Y-80000000D01*
X128008188Y-79945485D01*
X128371739Y-79742989D01*
X128715054Y-79507813D01*
X129035206Y-79241962D01*
X129329462Y-78947706D01*
X129595313Y-78627554D01*
X129830489Y-78284239D01*
X130032985Y-77920688D01*
X130201074Y-77540005D01*
X130333320Y-77145436D01*
X130428596Y-76740348D01*
X130486088Y-76328197D01*
X130505307Y-75912500D01*
X130486088Y-75496803D01*
X130428596Y-75084652D01*
X130333320Y-74679564D01*
X130201074Y-74284995D01*
X130201052Y-74284946D01*
X130059695Y-73964805D01*
X130032985Y-73904312D01*
X129830489Y-73540761D01*
X129595313Y-73197446D01*
X129595307Y-73197439D01*
X129595303Y-73197433D01*
X129329471Y-72877305D01*
X129329462Y-72877294D01*
X129035206Y-72583038D01*
X128951961Y-72513912D01*
X128715066Y-72317196D01*
X128715056Y-72317189D01*
X128715054Y-72317187D01*
X128371739Y-72082011D01*
X128371735Y-72082009D01*
X128371731Y-72082006D01*
X128008198Y-71879520D01*
X128008177Y-71879510D01*
X127627514Y-71711429D01*
X127232933Y-71579179D01*
X126827853Y-71483905D01*
X126827845Y-71483903D01*
X126415707Y-71426413D01*
X126415702Y-71426412D01*
X126415697Y-71426412D01*
X126000000Y-71407193D01*
X125584303Y-71426412D01*
X125584297Y-71426412D01*
X125584292Y-71426413D01*
X125172154Y-71483903D01*
X125172146Y-71483905D01*
X124767066Y-71579179D01*
X124372485Y-71711429D01*
X123991822Y-71879510D01*
X123991801Y-71879520D01*
X123628268Y-72082006D01*
X123628262Y-72082010D01*
X123284943Y-72317189D01*
X123284933Y-72317196D01*
X122964805Y-72583028D01*
X122964785Y-72583046D01*
X122670546Y-72877285D01*
X122670528Y-72877305D01*
X122404696Y-73197433D01*
X122404689Y-73197443D01*
X122169510Y-73540762D01*
X122169506Y-73540768D01*
X121967020Y-73904301D01*
X121967010Y-73904322D01*
X121798929Y-74284985D01*
X121666679Y-74679566D01*
X121571405Y-75084646D01*
X121571403Y-75084654D01*
X121513913Y-75496792D01*
X121513912Y-75496797D01*
X121513912Y-75496803D01*
X121494693Y-75912500D01*
X81367526Y-75912500D01*
X81333320Y-75767064D01*
X81201074Y-75372495D01*
X81032985Y-74991812D01*
X80830489Y-74628261D01*
X80595313Y-74284946D01*
X80595307Y-74284939D01*
X80595303Y-74284933D01*
X80329471Y-73964805D01*
X80329462Y-73964794D01*
X80035206Y-73670538D01*
X80035194Y-73670528D01*
X79715066Y-73404696D01*
X79715056Y-73404689D01*
X79715054Y-73404687D01*
X79371739Y-73169511D01*
X79371735Y-73169509D01*
X79371731Y-73169506D01*
X79008198Y-72967020D01*
X79008177Y-72967010D01*
X78627514Y-72798929D01*
X78232933Y-72666679D01*
X77827853Y-72571405D01*
X77827845Y-72571403D01*
X77415707Y-72513913D01*
X77415702Y-72513912D01*
X77415697Y-72513912D01*
X77000000Y-72494693D01*
X76584303Y-72513912D01*
X76584297Y-72513912D01*
X76584292Y-72513913D01*
X76172154Y-72571403D01*
X76172146Y-72571405D01*
X75767066Y-72666679D01*
X75372485Y-72798929D01*
X74991822Y-72967010D01*
X74991801Y-72967020D01*
X74628268Y-73169506D01*
X74628262Y-73169510D01*
X74284943Y-73404689D01*
X74284933Y-73404696D01*
X73964805Y-73670528D01*
X73964785Y-73670546D01*
X73670546Y-73964785D01*
X73670528Y-73964805D01*
X73404696Y-74284933D01*
X73404689Y-74284943D01*
X73169510Y-74628262D01*
X73169506Y-74628268D01*
X72967020Y-74991801D01*
X72967010Y-74991822D01*
X72798929Y-75372485D01*
X72666679Y-75767066D01*
X72571405Y-76172146D01*
X72571403Y-76172154D01*
X72513913Y-76584292D01*
X72513912Y-76584297D01*
X72513912Y-76584303D01*
X72494693Y-77000000D01*
X60358697Y-77000000D01*
X60329471Y-76964805D01*
X60329462Y-76964794D01*
X60035206Y-76670538D01*
X60030559Y-76666679D01*
X59715066Y-76404696D01*
X59715056Y-76404689D01*
X59715054Y-76404687D01*
X59371739Y-76169511D01*
X59371735Y-76169509D01*
X59371731Y-76169506D01*
X59008198Y-75967020D01*
X59008177Y-75967010D01*
X58627514Y-75798929D01*
X58232933Y-75666679D01*
X57827853Y-75571405D01*
X57827845Y-75571403D01*
X57415707Y-75513913D01*
X57415702Y-75513912D01*
X57415697Y-75513912D01*
X57000000Y-75494693D01*
X56584303Y-75513912D01*
X56584297Y-75513912D01*
X56584292Y-75513913D01*
X56172154Y-75571403D01*
X56172146Y-75571405D01*
X55767066Y-75666679D01*
X55372485Y-75798929D01*
X54991822Y-75967010D01*
X54991801Y-75967020D01*
X54628268Y-76169506D01*
X54628262Y-76169510D01*
X54284943Y-76404689D01*
X54284933Y-76404696D01*
X53964805Y-76670528D01*
X53964785Y-76670546D01*
X53670546Y-76964785D01*
X53670528Y-76964805D01*
X53404696Y-77284933D01*
X53404689Y-77284943D01*
X53169510Y-77628262D01*
X53169506Y-77628268D01*
X52967020Y-77991801D01*
X52967010Y-77991822D01*
X52798929Y-78372485D01*
X52666679Y-78767066D01*
X52571405Y-79172146D01*
X52571403Y-79172154D01*
X52513913Y-79584292D01*
X52513912Y-79584297D01*
X52513912Y-79584303D01*
X52494693Y-80000000D01*
X46905307Y-80000000D01*
X46886088Y-79584303D01*
X46828596Y-79172152D01*
X46733320Y-78767064D01*
X46601074Y-78372495D01*
X46562411Y-78284933D01*
X46432989Y-77991822D01*
X46432985Y-77991812D01*
X46254031Y-77670528D01*
X46230493Y-77628268D01*
X46230492Y-77628267D01*
X46230489Y-77628261D01*
X45995313Y-77284946D01*
X45995307Y-77284939D01*
X45995303Y-77284933D01*
X45729471Y-76964805D01*
X45729462Y-76964794D01*
X45435206Y-76670538D01*
X45430559Y-76666679D01*
X45115066Y-76404696D01*
X45115056Y-76404689D01*
X45115054Y-76404687D01*
X44771739Y-76169511D01*
X44771735Y-76169509D01*
X44771731Y-76169506D01*
X44408198Y-75967020D01*
X44408177Y-75967010D01*
X44027514Y-75798929D01*
X43632933Y-75666679D01*
X43227853Y-75571405D01*
X43227845Y-75571403D01*
X42815707Y-75513913D01*
X42815702Y-75513912D01*
X42815697Y-75513912D01*
X42400000Y-75494693D01*
X41984303Y-75513912D01*
X41984297Y-75513912D01*
X41984292Y-75513913D01*
X41572154Y-75571403D01*
X41572146Y-75571405D01*
X41167066Y-75666679D01*
X40772485Y-75798929D01*
X40391822Y-75967010D01*
X40391801Y-75967020D01*
X40028268Y-76169506D01*
X40028262Y-76169510D01*
X39684943Y-76404689D01*
X39684933Y-76404696D01*
X39364805Y-76670528D01*
X39364785Y-76670546D01*
X39070546Y-76964785D01*
X39070528Y-76964805D01*
X38804696Y-77284933D01*
X38804689Y-77284943D01*
X38569510Y-77628262D01*
X38569506Y-77628268D01*
X38367020Y-77991801D01*
X38367010Y-77991822D01*
X38198929Y-78372485D01*
X38066679Y-78767066D01*
X37971405Y-79172146D01*
X37971403Y-79172154D01*
X37913913Y-79584292D01*
X37913912Y-79584297D01*
X37913912Y-79584303D01*
X37894693Y-80000000D01*
X32500500Y-80000000D01*
X32500500Y-53600000D01*
X55494693Y-53600000D01*
X55513912Y-54015697D01*
X55513912Y-54015702D01*
X55513913Y-54015707D01*
X55571403Y-54427845D01*
X55571405Y-54427853D01*
X55666679Y-54832933D01*
X55798929Y-55227514D01*
X55967010Y-55608177D01*
X55967020Y-55608198D01*
X56169506Y-55971731D01*
X56169509Y-55971735D01*
X56169511Y-55971739D01*
X56404687Y-56315054D01*
X56404689Y-56315056D01*
X56404696Y-56315066D01*
X56596038Y-56545489D01*
X56670538Y-56635206D01*
X56964794Y-56929462D01*
X56964805Y-56929471D01*
X57284933Y-57195303D01*
X57284939Y-57195307D01*
X57284946Y-57195313D01*
X57628261Y-57430489D01*
X57991812Y-57632985D01*
X58182153Y-57717029D01*
X58372485Y-57801070D01*
X58372488Y-57801071D01*
X58372495Y-57801074D01*
X58767064Y-57933320D01*
X59172152Y-58028596D01*
X59584303Y-58086088D01*
X60000000Y-58105307D01*
X60415697Y-58086088D01*
X60827848Y-58028596D01*
X61232936Y-57933320D01*
X61627505Y-57801074D01*
X62008188Y-57632985D01*
X62371739Y-57430489D01*
X62715054Y-57195313D01*
X63035206Y-56929462D01*
X63329462Y-56635206D01*
X63595313Y-56315054D01*
X63830489Y-55971739D01*
X64032985Y-55608188D01*
X64201074Y-55227505D01*
X64333320Y-54832936D01*
X64428596Y-54427848D01*
X64486088Y-54015697D01*
X64505307Y-53600000D01*
X105494693Y-53600000D01*
X105513912Y-54015697D01*
X105513912Y-54015702D01*
X105513913Y-54015707D01*
X105571403Y-54427845D01*
X105571405Y-54427853D01*
X105666679Y-54832933D01*
X105798929Y-55227514D01*
X105967010Y-55608177D01*
X105967020Y-55608198D01*
X106169506Y-55971731D01*
X106169509Y-55971735D01*
X106169511Y-55971739D01*
X106404687Y-56315054D01*
X106404689Y-56315056D01*
X106404696Y-56315066D01*
X106596038Y-56545489D01*
X106670538Y-56635206D01*
X106964794Y-56929462D01*
X106964805Y-56929471D01*
X107284933Y-57195303D01*
X107284939Y-57195307D01*
X107284946Y-57195313D01*
X107628261Y-57430489D01*
X107991812Y-57632985D01*
X108182153Y-57717029D01*
X108372485Y-57801070D01*
X108372488Y-57801071D01*
X108372495Y-57801074D01*
X108767064Y-57933320D01*
X109172152Y-58028596D01*
X109584303Y-58086088D01*
X110000000Y-58105307D01*
X110415697Y-58086088D01*
X110827848Y-58028596D01*
X111232936Y-57933320D01*
X111627505Y-57801074D01*
X112008188Y-57632985D01*
X112371739Y-57430489D01*
X112715054Y-57195313D01*
X113035206Y-56929462D01*
X113329462Y-56635206D01*
X113595313Y-56315054D01*
X113830489Y-55971739D01*
X114032985Y-55608188D01*
X114201074Y-55227505D01*
X114333320Y-54832936D01*
X114428596Y-54427848D01*
X114486088Y-54015697D01*
X114505307Y-53600000D01*
X114486088Y-53184303D01*
X114428596Y-52772152D01*
X114367526Y-52512500D01*
X153494693Y-52512500D01*
X153513912Y-52928197D01*
X153513912Y-52928202D01*
X153513913Y-52928207D01*
X153571403Y-53340345D01*
X153571405Y-53340353D01*
X153666679Y-53745433D01*
X153798929Y-54140014D01*
X153967010Y-54520677D01*
X153967020Y-54520698D01*
X154169506Y-54884231D01*
X154169509Y-54884235D01*
X154169511Y-54884239D01*
X154404687Y-55227554D01*
X154404689Y-55227556D01*
X154404696Y-55227566D01*
X154670528Y-55547694D01*
X154670538Y-55547706D01*
X154964794Y-55841962D01*
X154964805Y-55841971D01*
X155284933Y-56107803D01*
X155284939Y-56107807D01*
X155284946Y-56107813D01*
X155628261Y-56342989D01*
X155991812Y-56545485D01*
X156182153Y-56629529D01*
X156372485Y-56713570D01*
X156372488Y-56713571D01*
X156372495Y-56713574D01*
X156767064Y-56845820D01*
X157172152Y-56941096D01*
X157584303Y-56998588D01*
X158000000Y-57017807D01*
X158415697Y-56998588D01*
X158827848Y-56941096D01*
X159232936Y-56845820D01*
X159627505Y-56713574D01*
X160008188Y-56545485D01*
X160371739Y-56342989D01*
X160715054Y-56107813D01*
X161035206Y-55841962D01*
X161329462Y-55547706D01*
X161595313Y-55227554D01*
X161830489Y-54884239D01*
X162032985Y-54520688D01*
X162201074Y-54140005D01*
X162333320Y-53745436D01*
X162428596Y-53340348D01*
X162486088Y-52928197D01*
X162505307Y-52512500D01*
X162486088Y-52096803D01*
X162428596Y-51684652D01*
X162333320Y-51279564D01*
X162201074Y-50884995D01*
X162201052Y-50884946D01*
X162059695Y-50564805D01*
X162032985Y-50504312D01*
X161830489Y-50140761D01*
X161595313Y-49797446D01*
X161595307Y-49797439D01*
X161595303Y-49797433D01*
X161329471Y-49477305D01*
X161329462Y-49477294D01*
X161035206Y-49183038D01*
X160951961Y-49113912D01*
X160715066Y-48917196D01*
X160715056Y-48917189D01*
X160715054Y-48917187D01*
X160371739Y-48682011D01*
X160371735Y-48682009D01*
X160371731Y-48682006D01*
X160008198Y-48479520D01*
X160008177Y-48479510D01*
X159627514Y-48311429D01*
X159232933Y-48179179D01*
X158827853Y-48083905D01*
X158827845Y-48083903D01*
X158415707Y-48026413D01*
X158415702Y-48026412D01*
X158415697Y-48026412D01*
X158000000Y-48007193D01*
X157584303Y-48026412D01*
X157584297Y-48026412D01*
X157584292Y-48026413D01*
X157172154Y-48083903D01*
X157172146Y-48083905D01*
X156767066Y-48179179D01*
X156372485Y-48311429D01*
X155991822Y-48479510D01*
X155991801Y-48479520D01*
X155628268Y-48682006D01*
X155628262Y-48682010D01*
X155284943Y-48917189D01*
X155284933Y-48917196D01*
X154964805Y-49183028D01*
X154964785Y-49183046D01*
X154670546Y-49477285D01*
X154670528Y-49477305D01*
X154404696Y-49797433D01*
X154404689Y-49797443D01*
X154169510Y-50140762D01*
X154169506Y-50140768D01*
X153967020Y-50504301D01*
X153967010Y-50504322D01*
X153798929Y-50884985D01*
X153666679Y-51279566D01*
X153571405Y-51684646D01*
X153571403Y-51684654D01*
X153513913Y-52096792D01*
X153513912Y-52096797D01*
X153513912Y-52096803D01*
X153494693Y-52512500D01*
X114367526Y-52512500D01*
X114333320Y-52367064D01*
X114201074Y-51972495D01*
X114032985Y-51591812D01*
X113830489Y-51228261D01*
X113595313Y-50884946D01*
X113595307Y-50884939D01*
X113595303Y-50884933D01*
X113329471Y-50564805D01*
X113329462Y-50564794D01*
X113035206Y-50270538D01*
X113035194Y-50270528D01*
X112715066Y-50004696D01*
X112715056Y-50004689D01*
X112715054Y-50004687D01*
X112371739Y-49769511D01*
X112371735Y-49769509D01*
X112371731Y-49769506D01*
X112008198Y-49567020D01*
X112008177Y-49567010D01*
X111627514Y-49398929D01*
X111232933Y-49266679D01*
X110827853Y-49171405D01*
X110827845Y-49171403D01*
X110415707Y-49113913D01*
X110415702Y-49113912D01*
X110415697Y-49113912D01*
X110000000Y-49094693D01*
X109584303Y-49113912D01*
X109584297Y-49113912D01*
X109584292Y-49113913D01*
X109172154Y-49171403D01*
X109172146Y-49171405D01*
X108767066Y-49266679D01*
X108372485Y-49398929D01*
X107991822Y-49567010D01*
X107991801Y-49567020D01*
X107628268Y-49769506D01*
X107628262Y-49769510D01*
X107284943Y-50004689D01*
X107284933Y-50004696D01*
X106964805Y-50270528D01*
X106964785Y-50270546D01*
X106670546Y-50564785D01*
X106670528Y-50564805D01*
X106404696Y-50884933D01*
X106404689Y-50884943D01*
X106169510Y-51228262D01*
X106169506Y-51228268D01*
X105967020Y-51591801D01*
X105967010Y-51591822D01*
X105798929Y-51972485D01*
X105666679Y-52367066D01*
X105571405Y-52772146D01*
X105571403Y-52772154D01*
X105513913Y-53184292D01*
X105513912Y-53184297D01*
X105513912Y-53184303D01*
X105494693Y-53600000D01*
X64505307Y-53600000D01*
X64486088Y-53184303D01*
X64428596Y-52772152D01*
X64333320Y-52367064D01*
X64201074Y-51972495D01*
X64032985Y-51591812D01*
X63830489Y-51228261D01*
X63595313Y-50884946D01*
X63595307Y-50884939D01*
X63595303Y-50884933D01*
X63329471Y-50564805D01*
X63329462Y-50564794D01*
X63035206Y-50270538D01*
X63035194Y-50270528D01*
X62715066Y-50004696D01*
X62715056Y-50004689D01*
X62715054Y-50004687D01*
X62371739Y-49769511D01*
X62371735Y-49769509D01*
X62371731Y-49769506D01*
X62008198Y-49567020D01*
X62008177Y-49567010D01*
X61627514Y-49398929D01*
X61232933Y-49266679D01*
X60827853Y-49171405D01*
X60827845Y-49171403D01*
X60415707Y-49113913D01*
X60415702Y-49113912D01*
X60415697Y-49113912D01*
X60000000Y-49094693D01*
X59584303Y-49113912D01*
X59584297Y-49113912D01*
X59584292Y-49113913D01*
X59172154Y-49171403D01*
X59172146Y-49171405D01*
X58767066Y-49266679D01*
X58372485Y-49398929D01*
X57991822Y-49567010D01*
X57991801Y-49567020D01*
X57628268Y-49769506D01*
X57628262Y-49769510D01*
X57284943Y-50004689D01*
X57284933Y-50004696D01*
X56964805Y-50270528D01*
X56964785Y-50270546D01*
X56670546Y-50564785D01*
X56670528Y-50564805D01*
X56404696Y-50884933D01*
X56404689Y-50884943D01*
X56169510Y-51228262D01*
X56169506Y-51228268D01*
X55967020Y-51591801D01*
X55967010Y-51591822D01*
X55798929Y-51972485D01*
X55666679Y-52367066D01*
X55571405Y-52772146D01*
X55571403Y-52772154D01*
X55513913Y-53184292D01*
X55513912Y-53184297D01*
X55513912Y-53184303D01*
X55494693Y-53600000D01*
X32500500Y-53600000D01*
X32500500Y-43440000D01*
X72334693Y-43440000D01*
X72353912Y-43855697D01*
X72353912Y-43855702D01*
X72353913Y-43855707D01*
X72411403Y-44267845D01*
X72411405Y-44267853D01*
X72506679Y-44672933D01*
X72638929Y-45067514D01*
X72807010Y-45448177D01*
X72807020Y-45448198D01*
X73009506Y-45811731D01*
X73009509Y-45811735D01*
X73009511Y-45811739D01*
X73244687Y-46155054D01*
X73244689Y-46155056D01*
X73244696Y-46155066D01*
X73510528Y-46475194D01*
X73510538Y-46475206D01*
X73804794Y-46769462D01*
X73804805Y-46769471D01*
X74124933Y-47035303D01*
X74124939Y-47035307D01*
X74124946Y-47035313D01*
X74468261Y-47270489D01*
X74831812Y-47472985D01*
X75022153Y-47557029D01*
X75212485Y-47641070D01*
X75212488Y-47641071D01*
X75212495Y-47641074D01*
X75607064Y-47773320D01*
X76012152Y-47868596D01*
X76424303Y-47926088D01*
X76840000Y-47945307D01*
X77255697Y-47926088D01*
X77667848Y-47868596D01*
X78072936Y-47773320D01*
X78467505Y-47641074D01*
X78848188Y-47472985D01*
X79211739Y-47270489D01*
X79555054Y-47035313D01*
X79875206Y-46769462D01*
X80169462Y-46475206D01*
X80435313Y-46155054D01*
X80670489Y-45811739D01*
X80872985Y-45448188D01*
X81041074Y-45067505D01*
X81173320Y-44672936D01*
X81268596Y-44267848D01*
X81326088Y-43855697D01*
X81345307Y-43440000D01*
X121982193Y-43440000D01*
X122001412Y-43855697D01*
X122001412Y-43855702D01*
X122001413Y-43855707D01*
X122058903Y-44267845D01*
X122058905Y-44267853D01*
X122154179Y-44672933D01*
X122286429Y-45067514D01*
X122454510Y-45448177D01*
X122454520Y-45448198D01*
X122657006Y-45811731D01*
X122657009Y-45811735D01*
X122657011Y-45811739D01*
X122892187Y-46155054D01*
X122892189Y-46155056D01*
X122892196Y-46155066D01*
X123158028Y-46475194D01*
X123158038Y-46475206D01*
X123452294Y-46769462D01*
X123452305Y-46769471D01*
X123772433Y-47035303D01*
X123772439Y-47035307D01*
X123772446Y-47035313D01*
X124115761Y-47270489D01*
X124479312Y-47472985D01*
X124669653Y-47557029D01*
X124859985Y-47641070D01*
X124859988Y-47641071D01*
X124859995Y-47641074D01*
X125254564Y-47773320D01*
X125659652Y-47868596D01*
X126071803Y-47926088D01*
X126487500Y-47945307D01*
X126903197Y-47926088D01*
X127315348Y-47868596D01*
X127720436Y-47773320D01*
X128115005Y-47641074D01*
X128495688Y-47472985D01*
X128859239Y-47270489D01*
X129202554Y-47035313D01*
X129522706Y-46769462D01*
X129816962Y-46475206D01*
X130082813Y-46155054D01*
X130317989Y-45811739D01*
X130520485Y-45448188D01*
X130688574Y-45067505D01*
X130820820Y-44672936D01*
X130916096Y-44267848D01*
X130973588Y-43855697D01*
X130992807Y-43440000D01*
X130973588Y-43024303D01*
X130916096Y-42612152D01*
X130820820Y-42207064D01*
X130688574Y-41812495D01*
X130520485Y-41431812D01*
X130317989Y-41068261D01*
X130082813Y-40724946D01*
X130082807Y-40724939D01*
X130082803Y-40724933D01*
X129816971Y-40404805D01*
X129816962Y-40404794D01*
X129522706Y-40110538D01*
X129522694Y-40110528D01*
X129202566Y-39844696D01*
X129202556Y-39844689D01*
X129202554Y-39844687D01*
X128859239Y-39609511D01*
X128859235Y-39609509D01*
X128859231Y-39609506D01*
X128495698Y-39407020D01*
X128495677Y-39407010D01*
X128115014Y-39238929D01*
X127720433Y-39106679D01*
X127315353Y-39011405D01*
X127315345Y-39011403D01*
X126903207Y-38953913D01*
X126903202Y-38953912D01*
X126903197Y-38953912D01*
X126487500Y-38934693D01*
X126071803Y-38953912D01*
X126071797Y-38953912D01*
X126071792Y-38953913D01*
X125659654Y-39011403D01*
X125659646Y-39011405D01*
X125254566Y-39106679D01*
X124859985Y-39238929D01*
X124479322Y-39407010D01*
X124479301Y-39407020D01*
X124115768Y-39609506D01*
X124115762Y-39609510D01*
X123772443Y-39844689D01*
X123772433Y-39844696D01*
X123452305Y-40110528D01*
X123452285Y-40110546D01*
X123158046Y-40404785D01*
X123158028Y-40404805D01*
X122892196Y-40724933D01*
X122892189Y-40724943D01*
X122657010Y-41068262D01*
X122657006Y-41068268D01*
X122454520Y-41431801D01*
X122454510Y-41431822D01*
X122286429Y-41812485D01*
X122154179Y-42207066D01*
X122058905Y-42612146D01*
X122058903Y-42612154D01*
X122001413Y-43024292D01*
X122001412Y-43024297D01*
X122001412Y-43024303D01*
X121982193Y-43440000D01*
X81345307Y-43440000D01*
X81326088Y-43024303D01*
X81268596Y-42612152D01*
X81173320Y-42207064D01*
X81041074Y-41812495D01*
X80872985Y-41431812D01*
X80670489Y-41068261D01*
X80435313Y-40724946D01*
X80435307Y-40724939D01*
X80435303Y-40724933D01*
X80169471Y-40404805D01*
X80169462Y-40404794D01*
X79875206Y-40110538D01*
X79875194Y-40110528D01*
X79555066Y-39844696D01*
X79555056Y-39844689D01*
X79555054Y-39844687D01*
X79211739Y-39609511D01*
X79211735Y-39609509D01*
X79211731Y-39609506D01*
X78848198Y-39407020D01*
X78848177Y-39407010D01*
X78467514Y-39238929D01*
X78072933Y-39106679D01*
X77667853Y-39011405D01*
X77667845Y-39011403D01*
X77255707Y-38953913D01*
X77255702Y-38953912D01*
X77255697Y-38953912D01*
X76840000Y-38934693D01*
X76424303Y-38953912D01*
X76424297Y-38953912D01*
X76424292Y-38953913D01*
X76012154Y-39011403D01*
X76012146Y-39011405D01*
X75607066Y-39106679D01*
X75212485Y-39238929D01*
X74831822Y-39407010D01*
X74831801Y-39407020D01*
X74468268Y-39609506D01*
X74468262Y-39609510D01*
X74124943Y-39844689D01*
X74124933Y-39844696D01*
X73804805Y-40110528D01*
X73804785Y-40110546D01*
X73510546Y-40404785D01*
X73510528Y-40404805D01*
X73244696Y-40724933D01*
X73244689Y-40724943D01*
X73009510Y-41068262D01*
X73009506Y-41068268D01*
X72807020Y-41431801D01*
X72807010Y-41431822D01*
X72638929Y-41812485D01*
X72506679Y-42207066D01*
X72411405Y-42612146D01*
X72411403Y-42612154D01*
X72353913Y-43024292D01*
X72353912Y-43024297D01*
X72353912Y-43024303D01*
X72334693Y-43440000D01*
X32500500Y-43440000D01*
X32500500Y-29624500D01*
X32520185Y-29557461D01*
X32572989Y-29511706D01*
X32624500Y-29500500D01*
X188375500Y-29500500D01*
X188442539Y-29520185D01*
G37*
%TD.AperFunction*%
%TD*%
M02*
