%TF.GenerationSoftware,KiCad,Pcbnew,8.0.5-8.0.5-0~ubuntu24.04.1*%
%TF.CreationDate,2024-10-11T03:00:44+02:00*%
%TF.ProjectId,diplexer,6469706c-6578-4657-922e-6b696361645f,rev?*%
%TF.SameCoordinates,Original*%
%TF.FileFunction,Drillmap*%
%TF.FilePolarity,Positive*%
%FSLAX45Y45*%
G04 Gerber Fmt 4.5, Leading zero omitted, Abs format (unit mm)*
G04 Created by KiCad (PCBNEW 8.0.5-8.0.5-0~ubuntu24.04.1) date 2024-10-11 03:00:44*
%MOMM*%
%LPD*%
G01*
G04 APERTURE LIST*
%ADD10C,0.050000*%
%ADD11C,0.200000*%
%ADD12C,0.320000*%
G04 APERTURE END LIST*
D10*
X3200000Y-2900000D02*
X18900000Y-2900000D01*
X18900000Y-10100000D01*
X3200000Y-10100000D01*
X3200000Y-2900000D01*
D11*
D12*
X3440000Y-3140000D02*
X3760000Y-3460000D01*
X3760000Y-3140000D02*
X3440000Y-3460000D01*
X3440000Y-9540000D02*
X3760000Y-9860000D01*
X3760000Y-9540000D02*
X3440000Y-9860000D01*
X18340000Y-3140000D02*
X18660000Y-3460000D01*
X18660000Y-3140000D02*
X18340000Y-3460000D01*
X18340000Y-9540000D02*
X18660000Y-9860000D01*
X18660000Y-9540000D02*
X18340000Y-9860000D01*
D11*
X3458277Y-10413984D02*
X3458277Y-10213984D01*
X3458277Y-10213984D02*
X3505896Y-10213984D01*
X3505896Y-10213984D02*
X3534467Y-10223508D01*
X3534467Y-10223508D02*
X3553515Y-10242555D01*
X3553515Y-10242555D02*
X3563039Y-10261603D01*
X3563039Y-10261603D02*
X3572562Y-10299698D01*
X3572562Y-10299698D02*
X3572562Y-10328270D01*
X3572562Y-10328270D02*
X3563039Y-10366365D01*
X3563039Y-10366365D02*
X3553515Y-10385412D01*
X3553515Y-10385412D02*
X3534467Y-10404460D01*
X3534467Y-10404460D02*
X3505896Y-10413984D01*
X3505896Y-10413984D02*
X3458277Y-10413984D01*
X3658277Y-10413984D02*
X3658277Y-10280650D01*
X3658277Y-10318746D02*
X3667801Y-10299698D01*
X3667801Y-10299698D02*
X3677324Y-10290174D01*
X3677324Y-10290174D02*
X3696372Y-10280650D01*
X3696372Y-10280650D02*
X3715420Y-10280650D01*
X3782086Y-10413984D02*
X3782086Y-10280650D01*
X3782086Y-10213984D02*
X3772562Y-10223508D01*
X3772562Y-10223508D02*
X3782086Y-10233031D01*
X3782086Y-10233031D02*
X3791610Y-10223508D01*
X3791610Y-10223508D02*
X3782086Y-10213984D01*
X3782086Y-10213984D02*
X3782086Y-10233031D01*
X3905896Y-10413984D02*
X3886848Y-10404460D01*
X3886848Y-10404460D02*
X3877324Y-10385412D01*
X3877324Y-10385412D02*
X3877324Y-10213984D01*
X4010658Y-10413984D02*
X3991610Y-10404460D01*
X3991610Y-10404460D02*
X3982086Y-10385412D01*
X3982086Y-10385412D02*
X3982086Y-10213984D01*
X4239229Y-10413984D02*
X4239229Y-10213984D01*
X4239229Y-10213984D02*
X4305896Y-10356841D01*
X4305896Y-10356841D02*
X4372563Y-10213984D01*
X4372563Y-10213984D02*
X4372563Y-10413984D01*
X4553515Y-10413984D02*
X4553515Y-10309222D01*
X4553515Y-10309222D02*
X4543991Y-10290174D01*
X4543991Y-10290174D02*
X4524944Y-10280650D01*
X4524944Y-10280650D02*
X4486848Y-10280650D01*
X4486848Y-10280650D02*
X4467801Y-10290174D01*
X4553515Y-10404460D02*
X4534467Y-10413984D01*
X4534467Y-10413984D02*
X4486848Y-10413984D01*
X4486848Y-10413984D02*
X4467801Y-10404460D01*
X4467801Y-10404460D02*
X4458277Y-10385412D01*
X4458277Y-10385412D02*
X4458277Y-10366365D01*
X4458277Y-10366365D02*
X4467801Y-10347317D01*
X4467801Y-10347317D02*
X4486848Y-10337793D01*
X4486848Y-10337793D02*
X4534467Y-10337793D01*
X4534467Y-10337793D02*
X4553515Y-10328270D01*
X4648753Y-10280650D02*
X4648753Y-10480650D01*
X4648753Y-10290174D02*
X4667801Y-10280650D01*
X4667801Y-10280650D02*
X4705896Y-10280650D01*
X4705896Y-10280650D02*
X4724944Y-10290174D01*
X4724944Y-10290174D02*
X4734467Y-10299698D01*
X4734467Y-10299698D02*
X4743991Y-10318746D01*
X4743991Y-10318746D02*
X4743991Y-10375889D01*
X4743991Y-10375889D02*
X4734467Y-10394936D01*
X4734467Y-10394936D02*
X4724944Y-10404460D01*
X4724944Y-10404460D02*
X4705896Y-10413984D01*
X4705896Y-10413984D02*
X4667801Y-10413984D01*
X4667801Y-10413984D02*
X4648753Y-10404460D01*
X4829705Y-10394936D02*
X4839229Y-10404460D01*
X4839229Y-10404460D02*
X4829705Y-10413984D01*
X4829705Y-10413984D02*
X4820182Y-10404460D01*
X4820182Y-10404460D02*
X4829705Y-10394936D01*
X4829705Y-10394936D02*
X4829705Y-10413984D01*
X4829705Y-10290174D02*
X4839229Y-10299698D01*
X4839229Y-10299698D02*
X4829705Y-10309222D01*
X4829705Y-10309222D02*
X4820182Y-10299698D01*
X4820182Y-10299698D02*
X4829705Y-10290174D01*
X4829705Y-10290174D02*
X4829705Y-10309222D01*
X2997500Y-10642500D02*
X3197500Y-10842500D01*
X3197500Y-10642500D02*
X2997500Y-10842500D01*
X3439229Y-10633984D02*
X3563039Y-10633984D01*
X3563039Y-10633984D02*
X3496372Y-10710174D01*
X3496372Y-10710174D02*
X3524943Y-10710174D01*
X3524943Y-10710174D02*
X3543991Y-10719698D01*
X3543991Y-10719698D02*
X3553515Y-10729222D01*
X3553515Y-10729222D02*
X3563039Y-10748270D01*
X3563039Y-10748270D02*
X3563039Y-10795889D01*
X3563039Y-10795889D02*
X3553515Y-10814936D01*
X3553515Y-10814936D02*
X3543991Y-10824460D01*
X3543991Y-10824460D02*
X3524943Y-10833984D01*
X3524943Y-10833984D02*
X3467801Y-10833984D01*
X3467801Y-10833984D02*
X3448753Y-10824460D01*
X3448753Y-10824460D02*
X3439229Y-10814936D01*
X3648753Y-10814936D02*
X3658277Y-10824460D01*
X3658277Y-10824460D02*
X3648753Y-10833984D01*
X3648753Y-10833984D02*
X3639229Y-10824460D01*
X3639229Y-10824460D02*
X3648753Y-10814936D01*
X3648753Y-10814936D02*
X3648753Y-10833984D01*
X3734467Y-10653031D02*
X3743991Y-10643508D01*
X3743991Y-10643508D02*
X3763039Y-10633984D01*
X3763039Y-10633984D02*
X3810658Y-10633984D01*
X3810658Y-10633984D02*
X3829705Y-10643508D01*
X3829705Y-10643508D02*
X3839229Y-10653031D01*
X3839229Y-10653031D02*
X3848753Y-10672079D01*
X3848753Y-10672079D02*
X3848753Y-10691127D01*
X3848753Y-10691127D02*
X3839229Y-10719698D01*
X3839229Y-10719698D02*
X3724943Y-10833984D01*
X3724943Y-10833984D02*
X3848753Y-10833984D01*
X3972562Y-10633984D02*
X3991610Y-10633984D01*
X3991610Y-10633984D02*
X4010658Y-10643508D01*
X4010658Y-10643508D02*
X4020182Y-10653031D01*
X4020182Y-10653031D02*
X4029705Y-10672079D01*
X4029705Y-10672079D02*
X4039229Y-10710174D01*
X4039229Y-10710174D02*
X4039229Y-10757793D01*
X4039229Y-10757793D02*
X4029705Y-10795889D01*
X4029705Y-10795889D02*
X4020182Y-10814936D01*
X4020182Y-10814936D02*
X4010658Y-10824460D01*
X4010658Y-10824460D02*
X3991610Y-10833984D01*
X3991610Y-10833984D02*
X3972562Y-10833984D01*
X3972562Y-10833984D02*
X3953515Y-10824460D01*
X3953515Y-10824460D02*
X3943991Y-10814936D01*
X3943991Y-10814936D02*
X3934467Y-10795889D01*
X3934467Y-10795889D02*
X3924943Y-10757793D01*
X3924943Y-10757793D02*
X3924943Y-10710174D01*
X3924943Y-10710174D02*
X3934467Y-10672079D01*
X3934467Y-10672079D02*
X3943991Y-10653031D01*
X3943991Y-10653031D02*
X3953515Y-10643508D01*
X3953515Y-10643508D02*
X3972562Y-10633984D01*
X4163039Y-10633984D02*
X4182086Y-10633984D01*
X4182086Y-10633984D02*
X4201134Y-10643508D01*
X4201134Y-10643508D02*
X4210658Y-10653031D01*
X4210658Y-10653031D02*
X4220182Y-10672079D01*
X4220182Y-10672079D02*
X4229705Y-10710174D01*
X4229705Y-10710174D02*
X4229705Y-10757793D01*
X4229705Y-10757793D02*
X4220182Y-10795889D01*
X4220182Y-10795889D02*
X4210658Y-10814936D01*
X4210658Y-10814936D02*
X4201134Y-10824460D01*
X4201134Y-10824460D02*
X4182086Y-10833984D01*
X4182086Y-10833984D02*
X4163039Y-10833984D01*
X4163039Y-10833984D02*
X4143991Y-10824460D01*
X4143991Y-10824460D02*
X4134467Y-10814936D01*
X4134467Y-10814936D02*
X4124943Y-10795889D01*
X4124943Y-10795889D02*
X4115420Y-10757793D01*
X4115420Y-10757793D02*
X4115420Y-10710174D01*
X4115420Y-10710174D02*
X4124943Y-10672079D01*
X4124943Y-10672079D02*
X4134467Y-10653031D01*
X4134467Y-10653031D02*
X4143991Y-10643508D01*
X4143991Y-10643508D02*
X4163039Y-10633984D01*
X4315420Y-10833984D02*
X4315420Y-10700650D01*
X4315420Y-10719698D02*
X4324944Y-10710174D01*
X4324944Y-10710174D02*
X4343991Y-10700650D01*
X4343991Y-10700650D02*
X4372563Y-10700650D01*
X4372563Y-10700650D02*
X4391610Y-10710174D01*
X4391610Y-10710174D02*
X4401134Y-10729222D01*
X4401134Y-10729222D02*
X4401134Y-10833984D01*
X4401134Y-10729222D02*
X4410658Y-10710174D01*
X4410658Y-10710174D02*
X4429705Y-10700650D01*
X4429705Y-10700650D02*
X4458277Y-10700650D01*
X4458277Y-10700650D02*
X4477325Y-10710174D01*
X4477325Y-10710174D02*
X4486848Y-10729222D01*
X4486848Y-10729222D02*
X4486848Y-10833984D01*
X4582086Y-10833984D02*
X4582086Y-10700650D01*
X4582086Y-10719698D02*
X4591610Y-10710174D01*
X4591610Y-10710174D02*
X4610658Y-10700650D01*
X4610658Y-10700650D02*
X4639229Y-10700650D01*
X4639229Y-10700650D02*
X4658277Y-10710174D01*
X4658277Y-10710174D02*
X4667801Y-10729222D01*
X4667801Y-10729222D02*
X4667801Y-10833984D01*
X4667801Y-10729222D02*
X4677325Y-10710174D01*
X4677325Y-10710174D02*
X4696372Y-10700650D01*
X4696372Y-10700650D02*
X4724944Y-10700650D01*
X4724944Y-10700650D02*
X4743991Y-10710174D01*
X4743991Y-10710174D02*
X4753515Y-10729222D01*
X4753515Y-10729222D02*
X4753515Y-10833984D01*
X5143991Y-10624460D02*
X4972563Y-10881603D01*
X5401134Y-10633984D02*
X5420182Y-10633984D01*
X5420182Y-10633984D02*
X5439229Y-10643508D01*
X5439229Y-10643508D02*
X5448753Y-10653031D01*
X5448753Y-10653031D02*
X5458277Y-10672079D01*
X5458277Y-10672079D02*
X5467801Y-10710174D01*
X5467801Y-10710174D02*
X5467801Y-10757793D01*
X5467801Y-10757793D02*
X5458277Y-10795889D01*
X5458277Y-10795889D02*
X5448753Y-10814936D01*
X5448753Y-10814936D02*
X5439229Y-10824460D01*
X5439229Y-10824460D02*
X5420182Y-10833984D01*
X5420182Y-10833984D02*
X5401134Y-10833984D01*
X5401134Y-10833984D02*
X5382087Y-10824460D01*
X5382087Y-10824460D02*
X5372563Y-10814936D01*
X5372563Y-10814936D02*
X5363039Y-10795889D01*
X5363039Y-10795889D02*
X5353515Y-10757793D01*
X5353515Y-10757793D02*
X5353515Y-10710174D01*
X5353515Y-10710174D02*
X5363039Y-10672079D01*
X5363039Y-10672079D02*
X5372563Y-10653031D01*
X5372563Y-10653031D02*
X5382087Y-10643508D01*
X5382087Y-10643508D02*
X5401134Y-10633984D01*
X5553515Y-10814936D02*
X5563039Y-10824460D01*
X5563039Y-10824460D02*
X5553515Y-10833984D01*
X5553515Y-10833984D02*
X5543991Y-10824460D01*
X5543991Y-10824460D02*
X5553515Y-10814936D01*
X5553515Y-10814936D02*
X5553515Y-10833984D01*
X5753515Y-10833984D02*
X5639229Y-10833984D01*
X5696372Y-10833984D02*
X5696372Y-10633984D01*
X5696372Y-10633984D02*
X5677325Y-10662555D01*
X5677325Y-10662555D02*
X5658277Y-10681603D01*
X5658277Y-10681603D02*
X5639229Y-10691127D01*
X5829706Y-10653031D02*
X5839229Y-10643508D01*
X5839229Y-10643508D02*
X5858277Y-10633984D01*
X5858277Y-10633984D02*
X5905896Y-10633984D01*
X5905896Y-10633984D02*
X5924944Y-10643508D01*
X5924944Y-10643508D02*
X5934467Y-10653031D01*
X5934467Y-10653031D02*
X5943991Y-10672079D01*
X5943991Y-10672079D02*
X5943991Y-10691127D01*
X5943991Y-10691127D02*
X5934467Y-10719698D01*
X5934467Y-10719698D02*
X5820182Y-10833984D01*
X5820182Y-10833984D02*
X5943991Y-10833984D01*
X6115420Y-10633984D02*
X6077325Y-10633984D01*
X6077325Y-10633984D02*
X6058277Y-10643508D01*
X6058277Y-10643508D02*
X6048753Y-10653031D01*
X6048753Y-10653031D02*
X6029706Y-10681603D01*
X6029706Y-10681603D02*
X6020182Y-10719698D01*
X6020182Y-10719698D02*
X6020182Y-10795889D01*
X6020182Y-10795889D02*
X6029706Y-10814936D01*
X6029706Y-10814936D02*
X6039229Y-10824460D01*
X6039229Y-10824460D02*
X6058277Y-10833984D01*
X6058277Y-10833984D02*
X6096372Y-10833984D01*
X6096372Y-10833984D02*
X6115420Y-10824460D01*
X6115420Y-10824460D02*
X6124944Y-10814936D01*
X6124944Y-10814936D02*
X6134467Y-10795889D01*
X6134467Y-10795889D02*
X6134467Y-10748270D01*
X6134467Y-10748270D02*
X6124944Y-10729222D01*
X6124944Y-10729222D02*
X6115420Y-10719698D01*
X6115420Y-10719698D02*
X6096372Y-10710174D01*
X6096372Y-10710174D02*
X6058277Y-10710174D01*
X6058277Y-10710174D02*
X6039229Y-10719698D01*
X6039229Y-10719698D02*
X6029706Y-10729222D01*
X6029706Y-10729222D02*
X6020182Y-10748270D01*
X6258277Y-10633984D02*
X6277325Y-10633984D01*
X6277325Y-10633984D02*
X6296372Y-10643508D01*
X6296372Y-10643508D02*
X6305896Y-10653031D01*
X6305896Y-10653031D02*
X6315420Y-10672079D01*
X6315420Y-10672079D02*
X6324944Y-10710174D01*
X6324944Y-10710174D02*
X6324944Y-10757793D01*
X6324944Y-10757793D02*
X6315420Y-10795889D01*
X6315420Y-10795889D02*
X6305896Y-10814936D01*
X6305896Y-10814936D02*
X6296372Y-10824460D01*
X6296372Y-10824460D02*
X6277325Y-10833984D01*
X6277325Y-10833984D02*
X6258277Y-10833984D01*
X6258277Y-10833984D02*
X6239229Y-10824460D01*
X6239229Y-10824460D02*
X6229706Y-10814936D01*
X6229706Y-10814936D02*
X6220182Y-10795889D01*
X6220182Y-10795889D02*
X6210658Y-10757793D01*
X6210658Y-10757793D02*
X6210658Y-10710174D01*
X6210658Y-10710174D02*
X6220182Y-10672079D01*
X6220182Y-10672079D02*
X6229706Y-10653031D01*
X6229706Y-10653031D02*
X6239229Y-10643508D01*
X6239229Y-10643508D02*
X6258277Y-10633984D01*
X6401134Y-10633984D02*
X6401134Y-10672079D01*
X6477325Y-10633984D02*
X6477325Y-10672079D01*
X6772563Y-10910174D02*
X6763039Y-10900650D01*
X6763039Y-10900650D02*
X6743991Y-10872079D01*
X6743991Y-10872079D02*
X6734468Y-10853031D01*
X6734468Y-10853031D02*
X6724944Y-10824460D01*
X6724944Y-10824460D02*
X6715420Y-10776841D01*
X6715420Y-10776841D02*
X6715420Y-10738746D01*
X6715420Y-10738746D02*
X6724944Y-10691127D01*
X6724944Y-10691127D02*
X6734468Y-10662555D01*
X6734468Y-10662555D02*
X6743991Y-10643508D01*
X6743991Y-10643508D02*
X6763039Y-10614936D01*
X6763039Y-10614936D02*
X6772563Y-10605412D01*
X6934468Y-10700650D02*
X6934468Y-10833984D01*
X6886848Y-10624460D02*
X6839229Y-10767317D01*
X6839229Y-10767317D02*
X6963039Y-10767317D01*
X7191610Y-10833984D02*
X7191610Y-10633984D01*
X7277325Y-10833984D02*
X7277325Y-10729222D01*
X7277325Y-10729222D02*
X7267801Y-10710174D01*
X7267801Y-10710174D02*
X7248753Y-10700650D01*
X7248753Y-10700650D02*
X7220182Y-10700650D01*
X7220182Y-10700650D02*
X7201134Y-10710174D01*
X7201134Y-10710174D02*
X7191610Y-10719698D01*
X7401134Y-10833984D02*
X7382087Y-10824460D01*
X7382087Y-10824460D02*
X7372563Y-10814936D01*
X7372563Y-10814936D02*
X7363039Y-10795889D01*
X7363039Y-10795889D02*
X7363039Y-10738746D01*
X7363039Y-10738746D02*
X7372563Y-10719698D01*
X7372563Y-10719698D02*
X7382087Y-10710174D01*
X7382087Y-10710174D02*
X7401134Y-10700650D01*
X7401134Y-10700650D02*
X7429706Y-10700650D01*
X7429706Y-10700650D02*
X7448753Y-10710174D01*
X7448753Y-10710174D02*
X7458277Y-10719698D01*
X7458277Y-10719698D02*
X7467801Y-10738746D01*
X7467801Y-10738746D02*
X7467801Y-10795889D01*
X7467801Y-10795889D02*
X7458277Y-10814936D01*
X7458277Y-10814936D02*
X7448753Y-10824460D01*
X7448753Y-10824460D02*
X7429706Y-10833984D01*
X7429706Y-10833984D02*
X7401134Y-10833984D01*
X7582087Y-10833984D02*
X7563039Y-10824460D01*
X7563039Y-10824460D02*
X7553515Y-10805412D01*
X7553515Y-10805412D02*
X7553515Y-10633984D01*
X7734468Y-10824460D02*
X7715420Y-10833984D01*
X7715420Y-10833984D02*
X7677325Y-10833984D01*
X7677325Y-10833984D02*
X7658277Y-10824460D01*
X7658277Y-10824460D02*
X7648753Y-10805412D01*
X7648753Y-10805412D02*
X7648753Y-10729222D01*
X7648753Y-10729222D02*
X7658277Y-10710174D01*
X7658277Y-10710174D02*
X7677325Y-10700650D01*
X7677325Y-10700650D02*
X7715420Y-10700650D01*
X7715420Y-10700650D02*
X7734468Y-10710174D01*
X7734468Y-10710174D02*
X7743991Y-10729222D01*
X7743991Y-10729222D02*
X7743991Y-10748270D01*
X7743991Y-10748270D02*
X7648753Y-10767317D01*
X7820182Y-10824460D02*
X7839230Y-10833984D01*
X7839230Y-10833984D02*
X7877325Y-10833984D01*
X7877325Y-10833984D02*
X7896372Y-10824460D01*
X7896372Y-10824460D02*
X7905896Y-10805412D01*
X7905896Y-10805412D02*
X7905896Y-10795889D01*
X7905896Y-10795889D02*
X7896372Y-10776841D01*
X7896372Y-10776841D02*
X7877325Y-10767317D01*
X7877325Y-10767317D02*
X7848753Y-10767317D01*
X7848753Y-10767317D02*
X7829706Y-10757793D01*
X7829706Y-10757793D02*
X7820182Y-10738746D01*
X7820182Y-10738746D02*
X7820182Y-10729222D01*
X7820182Y-10729222D02*
X7829706Y-10710174D01*
X7829706Y-10710174D02*
X7848753Y-10700650D01*
X7848753Y-10700650D02*
X7877325Y-10700650D01*
X7877325Y-10700650D02*
X7896372Y-10710174D01*
X7972563Y-10910174D02*
X7982087Y-10900650D01*
X7982087Y-10900650D02*
X8001134Y-10872079D01*
X8001134Y-10872079D02*
X8010658Y-10853031D01*
X8010658Y-10853031D02*
X8020182Y-10824460D01*
X8020182Y-10824460D02*
X8029706Y-10776841D01*
X8029706Y-10776841D02*
X8029706Y-10738746D01*
X8029706Y-10738746D02*
X8020182Y-10691127D01*
X8020182Y-10691127D02*
X8010658Y-10662555D01*
X8010658Y-10662555D02*
X8001134Y-10643508D01*
X8001134Y-10643508D02*
X7982087Y-10614936D01*
X7982087Y-10614936D02*
X7972563Y-10605412D01*
X8334468Y-10910174D02*
X8324944Y-10900650D01*
X8324944Y-10900650D02*
X8305896Y-10872079D01*
X8305896Y-10872079D02*
X8296372Y-10853031D01*
X8296372Y-10853031D02*
X8286849Y-10824460D01*
X8286849Y-10824460D02*
X8277325Y-10776841D01*
X8277325Y-10776841D02*
X8277325Y-10738746D01*
X8277325Y-10738746D02*
X8286849Y-10691127D01*
X8286849Y-10691127D02*
X8296372Y-10662555D01*
X8296372Y-10662555D02*
X8305896Y-10643508D01*
X8305896Y-10643508D02*
X8324944Y-10614936D01*
X8324944Y-10614936D02*
X8334468Y-10605412D01*
X8410658Y-10700650D02*
X8410658Y-10833984D01*
X8410658Y-10719698D02*
X8420182Y-10710174D01*
X8420182Y-10710174D02*
X8439230Y-10700650D01*
X8439230Y-10700650D02*
X8467801Y-10700650D01*
X8467801Y-10700650D02*
X8486849Y-10710174D01*
X8486849Y-10710174D02*
X8496373Y-10729222D01*
X8496373Y-10729222D02*
X8496373Y-10833984D01*
X8620182Y-10833984D02*
X8601134Y-10824460D01*
X8601134Y-10824460D02*
X8591611Y-10814936D01*
X8591611Y-10814936D02*
X8582087Y-10795889D01*
X8582087Y-10795889D02*
X8582087Y-10738746D01*
X8582087Y-10738746D02*
X8591611Y-10719698D01*
X8591611Y-10719698D02*
X8601134Y-10710174D01*
X8601134Y-10710174D02*
X8620182Y-10700650D01*
X8620182Y-10700650D02*
X8648754Y-10700650D01*
X8648754Y-10700650D02*
X8667801Y-10710174D01*
X8667801Y-10710174D02*
X8677325Y-10719698D01*
X8677325Y-10719698D02*
X8686849Y-10738746D01*
X8686849Y-10738746D02*
X8686849Y-10795889D01*
X8686849Y-10795889D02*
X8677325Y-10814936D01*
X8677325Y-10814936D02*
X8667801Y-10824460D01*
X8667801Y-10824460D02*
X8648754Y-10833984D01*
X8648754Y-10833984D02*
X8620182Y-10833984D01*
X8743992Y-10700650D02*
X8820182Y-10700650D01*
X8772563Y-10633984D02*
X8772563Y-10805412D01*
X8772563Y-10805412D02*
X8782087Y-10824460D01*
X8782087Y-10824460D02*
X8801134Y-10833984D01*
X8801134Y-10833984D02*
X8820182Y-10833984D01*
X9039230Y-10700650D02*
X9039230Y-10900650D01*
X9039230Y-10710174D02*
X9058277Y-10700650D01*
X9058277Y-10700650D02*
X9096373Y-10700650D01*
X9096373Y-10700650D02*
X9115420Y-10710174D01*
X9115420Y-10710174D02*
X9124944Y-10719698D01*
X9124944Y-10719698D02*
X9134468Y-10738746D01*
X9134468Y-10738746D02*
X9134468Y-10795889D01*
X9134468Y-10795889D02*
X9124944Y-10814936D01*
X9124944Y-10814936D02*
X9115420Y-10824460D01*
X9115420Y-10824460D02*
X9096373Y-10833984D01*
X9096373Y-10833984D02*
X9058277Y-10833984D01*
X9058277Y-10833984D02*
X9039230Y-10824460D01*
X9248754Y-10833984D02*
X9229706Y-10824460D01*
X9229706Y-10824460D02*
X9220182Y-10805412D01*
X9220182Y-10805412D02*
X9220182Y-10633984D01*
X9410658Y-10833984D02*
X9410658Y-10729222D01*
X9410658Y-10729222D02*
X9401135Y-10710174D01*
X9401135Y-10710174D02*
X9382087Y-10700650D01*
X9382087Y-10700650D02*
X9343992Y-10700650D01*
X9343992Y-10700650D02*
X9324944Y-10710174D01*
X9410658Y-10824460D02*
X9391611Y-10833984D01*
X9391611Y-10833984D02*
X9343992Y-10833984D01*
X9343992Y-10833984D02*
X9324944Y-10824460D01*
X9324944Y-10824460D02*
X9315420Y-10805412D01*
X9315420Y-10805412D02*
X9315420Y-10786365D01*
X9315420Y-10786365D02*
X9324944Y-10767317D01*
X9324944Y-10767317D02*
X9343992Y-10757793D01*
X9343992Y-10757793D02*
X9391611Y-10757793D01*
X9391611Y-10757793D02*
X9410658Y-10748270D01*
X9477325Y-10700650D02*
X9553515Y-10700650D01*
X9505896Y-10633984D02*
X9505896Y-10805412D01*
X9505896Y-10805412D02*
X9515420Y-10824460D01*
X9515420Y-10824460D02*
X9534468Y-10833984D01*
X9534468Y-10833984D02*
X9553515Y-10833984D01*
X9696373Y-10824460D02*
X9677325Y-10833984D01*
X9677325Y-10833984D02*
X9639230Y-10833984D01*
X9639230Y-10833984D02*
X9620182Y-10824460D01*
X9620182Y-10824460D02*
X9610658Y-10805412D01*
X9610658Y-10805412D02*
X9610658Y-10729222D01*
X9610658Y-10729222D02*
X9620182Y-10710174D01*
X9620182Y-10710174D02*
X9639230Y-10700650D01*
X9639230Y-10700650D02*
X9677325Y-10700650D01*
X9677325Y-10700650D02*
X9696373Y-10710174D01*
X9696373Y-10710174D02*
X9705896Y-10729222D01*
X9705896Y-10729222D02*
X9705896Y-10748270D01*
X9705896Y-10748270D02*
X9610658Y-10767317D01*
X9877325Y-10833984D02*
X9877325Y-10633984D01*
X9877325Y-10824460D02*
X9858277Y-10833984D01*
X9858277Y-10833984D02*
X9820182Y-10833984D01*
X9820182Y-10833984D02*
X9801135Y-10824460D01*
X9801135Y-10824460D02*
X9791611Y-10814936D01*
X9791611Y-10814936D02*
X9782087Y-10795889D01*
X9782087Y-10795889D02*
X9782087Y-10738746D01*
X9782087Y-10738746D02*
X9791611Y-10719698D01*
X9791611Y-10719698D02*
X9801135Y-10710174D01*
X9801135Y-10710174D02*
X9820182Y-10700650D01*
X9820182Y-10700650D02*
X9858277Y-10700650D01*
X9858277Y-10700650D02*
X9877325Y-10710174D01*
X9953516Y-10910174D02*
X9963039Y-10900650D01*
X9963039Y-10900650D02*
X9982087Y-10872079D01*
X9982087Y-10872079D02*
X9991611Y-10853031D01*
X9991611Y-10853031D02*
X10001135Y-10824460D01*
X10001135Y-10824460D02*
X10010658Y-10776841D01*
X10010658Y-10776841D02*
X10010658Y-10738746D01*
X10010658Y-10738746D02*
X10001135Y-10691127D01*
X10001135Y-10691127D02*
X9991611Y-10662555D01*
X9991611Y-10662555D02*
X9982087Y-10643508D01*
X9982087Y-10643508D02*
X9963039Y-10614936D01*
X9963039Y-10614936D02*
X9953516Y-10605412D01*
M02*
