%TF.GenerationSoftware,KiCad,Pcbnew,8.0.5-8.0.5-0~ubuntu24.04.1*%
%TF.CreationDate,2024-10-12T14:50:42+02:00*%
%TF.ProjectId,diplexer,6469706c-6578-4657-922e-6b696361645f,rev?*%
%TF.SameCoordinates,Original*%
%TF.FileFunction,Soldermask,Top*%
%TF.FilePolarity,Negative*%
%FSLAX46Y46*%
G04 Gerber Fmt 4.6, Leading zero omitted, Abs format (unit mm)*
G04 Created by KiCad (PCBNEW 8.0.5-8.0.5-0~ubuntu24.04.1) date 2024-10-12 14:50:42*
%MOMM*%
%LPD*%
G01*
G04 APERTURE LIST*
%ADD10C,3.000000*%
%ADD11R,6.375000X0.980000*%
%ADD12R,0.980000X6.375000*%
%ADD13C,5.600000*%
%ADD14R,4.000000X4.000000*%
%ADD15R,5.000000X5.000000*%
G04 APERTURE END LIST*
D10*
%TO.C,L10*%
X42400000Y-80000000D03*
X57000000Y-80000000D03*
%TD*%
D11*
%TO.C,C6*%
X64987500Y-87780000D03*
X65012500Y-82000000D03*
%TD*%
D12*
%TO.C,C4*%
X117110000Y-53427500D03*
X122890000Y-53452500D03*
%TD*%
D13*
%TO.C,J5*%
X36000000Y-33000000D03*
%TD*%
D10*
%TO.C,L2*%
X76840000Y-43440000D03*
X91440000Y-43440000D03*
%TD*%
D14*
%TO.C,J3*%
X176000000Y-80350000D03*
X185000000Y-74000000D03*
X185000000Y-86700000D03*
%TD*%
D10*
%TO.C,L4*%
X126487500Y-43440000D03*
X141087500Y-43440000D03*
%TD*%
D14*
%TO.C,J2*%
X176000000Y-51000000D03*
X185000000Y-44650000D03*
X185000000Y-57350000D03*
%TD*%
D10*
%TO.C,L6*%
X144487500Y-80000000D03*
X159087500Y-80000000D03*
%TD*%
D13*
%TO.C,J7*%
X185000000Y-33000000D03*
%TD*%
D10*
%TO.C,L7*%
X126000000Y-90512500D03*
X126000000Y-75912500D03*
%TD*%
D12*
%TO.C,C1*%
X48110000Y-53427500D03*
X53890000Y-53452500D03*
%TD*%
D11*
%TO.C,C7*%
X85975000Y-87780000D03*
X86000000Y-82000000D03*
%TD*%
D10*
%TO.C,L9*%
X77000000Y-91600000D03*
X77000000Y-77000000D03*
%TD*%
D13*
%TO.C,J11*%
X185000000Y-65000000D03*
%TD*%
%TO.C,J10*%
X134000000Y-65000000D03*
%TD*%
%TO.C,J8*%
X50000000Y-65000000D03*
%TD*%
D10*
%TO.C,L8*%
X94487500Y-81000000D03*
X109087500Y-81000000D03*
%TD*%
%TO.C,L1*%
X60000000Y-53600000D03*
X60000000Y-39000000D03*
%TD*%
D15*
%TO.C,J1*%
X37000000Y-52110000D03*
X37000000Y-43000000D03*
X37000000Y-61210000D03*
%TD*%
D12*
%TO.C,C5*%
X145220000Y-53427500D03*
X151000000Y-53452500D03*
%TD*%
D11*
%TO.C,C10*%
X166975000Y-86780000D03*
X167000000Y-81000000D03*
%TD*%
D13*
%TO.C,J6*%
X185000000Y-97000000D03*
%TD*%
D12*
%TO.C,C2*%
X67110000Y-53427500D03*
X72890000Y-53452500D03*
%TD*%
D11*
%TO.C,C8*%
X115987500Y-85780000D03*
X116012500Y-80000000D03*
%TD*%
%TO.C,C9*%
X136975000Y-85780000D03*
X137000000Y-80000000D03*
%TD*%
D10*
%TO.C,L5*%
X158000000Y-52512500D03*
X158000000Y-37912500D03*
%TD*%
%TO.C,L3*%
X110000000Y-53600000D03*
X110000000Y-39000000D03*
%TD*%
D12*
%TO.C,C3*%
X96220000Y-53427500D03*
X102000000Y-53452500D03*
%TD*%
D13*
%TO.C,J4*%
X36000000Y-97000000D03*
%TD*%
%TO.C,J9*%
X96000000Y-65000000D03*
%TD*%
M02*
