%TF.GenerationSoftware,KiCad,Pcbnew,8.0.6-8.0.6-0~ubuntu24.04.1*%
%TF.CreationDate,2024-10-28T11:47:24+01:00*%
%TF.ProjectId,diplexer,6469706c-6578-4657-922e-6b696361645f,rev?*%
%TF.SameCoordinates,Original*%
%TF.FileFunction,Paste,Top*%
%TF.FilePolarity,Positive*%
%FSLAX46Y46*%
G04 Gerber Fmt 4.6, Leading zero omitted, Abs format (unit mm)*
G04 Created by KiCad (PCBNEW 8.0.6-8.0.6-0~ubuntu24.04.1) date 2024-10-28 11:47:24*
%MOMM*%
%LPD*%
G01*
G04 APERTURE LIST*
%ADD10R,3.180000X1.190000*%
%ADD11R,5.000000X5.000000*%
%ADD12R,4.000000X4.000000*%
G04 APERTURE END LIST*
D10*
%TO.C,C20*%
X169075000Y-95939000D03*
X169075000Y-98761000D03*
%TD*%
%TO.C,C19*%
X140275000Y-96000000D03*
X140275000Y-98822000D03*
%TD*%
%TO.C,C18*%
X119200000Y-96614000D03*
X119200000Y-99436000D03*
%TD*%
%TO.C,C17*%
X90375000Y-98025000D03*
X90375000Y-100847000D03*
%TD*%
%TO.C,C16*%
X69500000Y-99089000D03*
X69500000Y-101911000D03*
%TD*%
%TO.C,C15*%
X144900000Y-68197000D03*
X144900000Y-65375000D03*
%TD*%
%TO.C,C14*%
X124925000Y-66589000D03*
X124925000Y-69411000D03*
%TD*%
%TO.C,C13*%
X95175000Y-66514000D03*
X95175000Y-69336000D03*
%TD*%
%TO.C,C12*%
X74900000Y-66625000D03*
X74900000Y-69447000D03*
%TD*%
%TO.C,C11*%
X48175000Y-66460000D03*
X48175000Y-69282000D03*
%TD*%
%TO.C,C10*%
X164200000Y-98722000D03*
X164200000Y-95900000D03*
%TD*%
%TO.C,C9*%
X135500000Y-98801000D03*
X135500000Y-95979000D03*
%TD*%
%TO.C,C8*%
X114400000Y-99422000D03*
X114400000Y-96600000D03*
%TD*%
%TO.C,C7*%
X85600000Y-100801000D03*
X85600000Y-97979000D03*
%TD*%
%TO.C,C6*%
X64650000Y-101572000D03*
X64650000Y-98750000D03*
%TD*%
%TO.C,C5*%
X149475000Y-68272000D03*
X149475000Y-65450000D03*
%TD*%
%TO.C,C4*%
X120500000Y-66529000D03*
X120500000Y-69351000D03*
%TD*%
%TO.C,C3*%
X99610000Y-66529000D03*
X99610000Y-69351000D03*
%TD*%
%TO.C,C2*%
X70500000Y-66529000D03*
X70500000Y-69351000D03*
%TD*%
%TO.C,C1*%
X52375000Y-66550000D03*
X52375000Y-69372000D03*
%TD*%
D11*
%TO.C,J3*%
X184000000Y-94850000D03*
X184000000Y-103960000D03*
X184000000Y-85750000D03*
%TD*%
D12*
%TO.C,J2*%
X176500000Y-63890000D03*
X185500000Y-57540000D03*
X185500000Y-70240000D03*
%TD*%
D11*
%TO.C,J1*%
X37400000Y-80110000D03*
X37400000Y-71000000D03*
X37400000Y-89210000D03*
%TD*%
M02*
