%TF.GenerationSoftware,KiCad,Pcbnew,8.0.6-8.0.6-0~ubuntu24.04.1*%
%TF.CreationDate,2024-10-29T10:15:36+01:00*%
%TF.ProjectId,diplexer,6469706c-6578-4657-922e-6b696361645f,rev?*%
%TF.SameCoordinates,Original*%
%TF.FileFunction,Legend,Top*%
%TF.FilePolarity,Positive*%
%FSLAX46Y46*%
G04 Gerber Fmt 4.6, Leading zero omitted, Abs format (unit mm)*
G04 Created by KiCad (PCBNEW 8.0.6-8.0.6-0~ubuntu24.04.1) date 2024-10-29 10:15:36*
%MOMM*%
%LPD*%
G01*
G04 APERTURE LIST*
%ADD10C,0.100000*%
%ADD11C,0.150000*%
%ADD12C,0.098425*%
%ADD13C,0.127000*%
%ADD14C,0.120000*%
G04 APERTURE END LIST*
D10*
X48500000Y-77500000D02*
X187500000Y-77500000D01*
X187500000Y-81500000D01*
X48500000Y-81500000D01*
X48500000Y-77500000D01*
X75441979Y-41550038D02*
X75441979Y-39550038D01*
X75441979Y-40502419D02*
X76584836Y-40502419D01*
X76584836Y-41550038D02*
X76584836Y-39550038D01*
X78203884Y-40502419D02*
X77537217Y-40502419D01*
X77537217Y-41550038D02*
X77537217Y-39550038D01*
X77537217Y-39550038D02*
X78489598Y-39550038D01*
X79251503Y-40788133D02*
X80775313Y-40788133D01*
X80013408Y-41550038D02*
X80013408Y-40026228D01*
X82584836Y-39550038D02*
X82203883Y-39550038D01*
X82203883Y-39550038D02*
X82013407Y-39645276D01*
X82013407Y-39645276D02*
X81918169Y-39740514D01*
X81918169Y-39740514D02*
X81727693Y-40026228D01*
X81727693Y-40026228D02*
X81632455Y-40407180D01*
X81632455Y-40407180D02*
X81632455Y-41169085D01*
X81632455Y-41169085D02*
X81727693Y-41359561D01*
X81727693Y-41359561D02*
X81822931Y-41454800D01*
X81822931Y-41454800D02*
X82013407Y-41550038D01*
X82013407Y-41550038D02*
X82394360Y-41550038D01*
X82394360Y-41550038D02*
X82584836Y-41454800D01*
X82584836Y-41454800D02*
X82680074Y-41359561D01*
X82680074Y-41359561D02*
X82775312Y-41169085D01*
X82775312Y-41169085D02*
X82775312Y-40692895D01*
X82775312Y-40692895D02*
X82680074Y-40502419D01*
X82680074Y-40502419D02*
X82584836Y-40407180D01*
X82584836Y-40407180D02*
X82394360Y-40311942D01*
X82394360Y-40311942D02*
X82013407Y-40311942D01*
X82013407Y-40311942D02*
X81822931Y-40407180D01*
X81822931Y-40407180D02*
X81727693Y-40502419D01*
X81727693Y-40502419D02*
X81632455Y-40692895D01*
X83632455Y-41550038D02*
X83632455Y-39550038D01*
X83632455Y-39550038D02*
X84299122Y-40978609D01*
X84299122Y-40978609D02*
X84965788Y-39550038D01*
X84965788Y-39550038D02*
X84965788Y-41550038D01*
X87727693Y-41550038D02*
X87537217Y-41454800D01*
X87537217Y-41454800D02*
X87441979Y-41264323D01*
X87441979Y-41264323D02*
X87441979Y-39550038D01*
X88775312Y-41550038D02*
X88584836Y-41454800D01*
X88584836Y-41454800D02*
X88489598Y-41359561D01*
X88489598Y-41359561D02*
X88394360Y-41169085D01*
X88394360Y-41169085D02*
X88394360Y-40597657D01*
X88394360Y-40597657D02*
X88489598Y-40407180D01*
X88489598Y-40407180D02*
X88584836Y-40311942D01*
X88584836Y-40311942D02*
X88775312Y-40216704D01*
X88775312Y-40216704D02*
X89061027Y-40216704D01*
X89061027Y-40216704D02*
X89251503Y-40311942D01*
X89251503Y-40311942D02*
X89346741Y-40407180D01*
X89346741Y-40407180D02*
X89441979Y-40597657D01*
X89441979Y-40597657D02*
X89441979Y-41169085D01*
X89441979Y-41169085D02*
X89346741Y-41359561D01*
X89346741Y-41359561D02*
X89251503Y-41454800D01*
X89251503Y-41454800D02*
X89061027Y-41550038D01*
X89061027Y-41550038D02*
X88775312Y-41550038D01*
X90108646Y-40216704D02*
X90489598Y-41550038D01*
X90489598Y-41550038D02*
X90870551Y-40597657D01*
X90870551Y-40597657D02*
X91251503Y-41550038D01*
X91251503Y-41550038D02*
X91632455Y-40216704D01*
X92394360Y-40216704D02*
X92394360Y-42216704D01*
X92394360Y-40311942D02*
X92584836Y-40216704D01*
X92584836Y-40216704D02*
X92965789Y-40216704D01*
X92965789Y-40216704D02*
X93156265Y-40311942D01*
X93156265Y-40311942D02*
X93251503Y-40407180D01*
X93251503Y-40407180D02*
X93346741Y-40597657D01*
X93346741Y-40597657D02*
X93346741Y-41169085D01*
X93346741Y-41169085D02*
X93251503Y-41359561D01*
X93251503Y-41359561D02*
X93156265Y-41454800D01*
X93156265Y-41454800D02*
X92965789Y-41550038D01*
X92965789Y-41550038D02*
X92584836Y-41550038D01*
X92584836Y-41550038D02*
X92394360Y-41454800D01*
X95061027Y-41550038D02*
X95061027Y-40502419D01*
X95061027Y-40502419D02*
X94965789Y-40311942D01*
X94965789Y-40311942D02*
X94775313Y-40216704D01*
X94775313Y-40216704D02*
X94394360Y-40216704D01*
X94394360Y-40216704D02*
X94203884Y-40311942D01*
X95061027Y-41454800D02*
X94870551Y-41550038D01*
X94870551Y-41550038D02*
X94394360Y-41550038D01*
X94394360Y-41550038D02*
X94203884Y-41454800D01*
X94203884Y-41454800D02*
X94108646Y-41264323D01*
X94108646Y-41264323D02*
X94108646Y-41073847D01*
X94108646Y-41073847D02*
X94203884Y-40883371D01*
X94203884Y-40883371D02*
X94394360Y-40788133D01*
X94394360Y-40788133D02*
X94870551Y-40788133D01*
X94870551Y-40788133D02*
X95061027Y-40692895D01*
X95918170Y-41454800D02*
X96108646Y-41550038D01*
X96108646Y-41550038D02*
X96489598Y-41550038D01*
X96489598Y-41550038D02*
X96680075Y-41454800D01*
X96680075Y-41454800D02*
X96775313Y-41264323D01*
X96775313Y-41264323D02*
X96775313Y-41169085D01*
X96775313Y-41169085D02*
X96680075Y-40978609D01*
X96680075Y-40978609D02*
X96489598Y-40883371D01*
X96489598Y-40883371D02*
X96203884Y-40883371D01*
X96203884Y-40883371D02*
X96013408Y-40788133D01*
X96013408Y-40788133D02*
X95918170Y-40597657D01*
X95918170Y-40597657D02*
X95918170Y-40502419D01*
X95918170Y-40502419D02*
X96013408Y-40311942D01*
X96013408Y-40311942D02*
X96203884Y-40216704D01*
X96203884Y-40216704D02*
X96489598Y-40216704D01*
X96489598Y-40216704D02*
X96680075Y-40311942D01*
X97537218Y-41454800D02*
X97727694Y-41550038D01*
X97727694Y-41550038D02*
X98108646Y-41550038D01*
X98108646Y-41550038D02*
X98299123Y-41454800D01*
X98299123Y-41454800D02*
X98394361Y-41264323D01*
X98394361Y-41264323D02*
X98394361Y-41169085D01*
X98394361Y-41169085D02*
X98299123Y-40978609D01*
X98299123Y-40978609D02*
X98108646Y-40883371D01*
X98108646Y-40883371D02*
X97822932Y-40883371D01*
X97822932Y-40883371D02*
X97632456Y-40788133D01*
X97632456Y-40788133D02*
X97537218Y-40597657D01*
X97537218Y-40597657D02*
X97537218Y-40502419D01*
X97537218Y-40502419D02*
X97632456Y-40311942D01*
X97632456Y-40311942D02*
X97822932Y-40216704D01*
X97822932Y-40216704D02*
X98108646Y-40216704D01*
X98108646Y-40216704D02*
X98299123Y-40311942D01*
X101632457Y-41550038D02*
X101632457Y-40502419D01*
X101632457Y-40502419D02*
X101537219Y-40311942D01*
X101537219Y-40311942D02*
X101346743Y-40216704D01*
X101346743Y-40216704D02*
X100965790Y-40216704D01*
X100965790Y-40216704D02*
X100775314Y-40311942D01*
X101632457Y-41454800D02*
X101441981Y-41550038D01*
X101441981Y-41550038D02*
X100965790Y-41550038D01*
X100965790Y-41550038D02*
X100775314Y-41454800D01*
X100775314Y-41454800D02*
X100680076Y-41264323D01*
X100680076Y-41264323D02*
X100680076Y-41073847D01*
X100680076Y-41073847D02*
X100775314Y-40883371D01*
X100775314Y-40883371D02*
X100965790Y-40788133D01*
X100965790Y-40788133D02*
X101441981Y-40788133D01*
X101441981Y-40788133D02*
X101632457Y-40692895D01*
X102584838Y-40216704D02*
X102584838Y-41550038D01*
X102584838Y-40407180D02*
X102680076Y-40311942D01*
X102680076Y-40311942D02*
X102870552Y-40216704D01*
X102870552Y-40216704D02*
X103156267Y-40216704D01*
X103156267Y-40216704D02*
X103346743Y-40311942D01*
X103346743Y-40311942D02*
X103441981Y-40502419D01*
X103441981Y-40502419D02*
X103441981Y-41550038D01*
X105251505Y-41550038D02*
X105251505Y-39550038D01*
X105251505Y-41454800D02*
X105061029Y-41550038D01*
X105061029Y-41550038D02*
X104680076Y-41550038D01*
X104680076Y-41550038D02*
X104489600Y-41454800D01*
X104489600Y-41454800D02*
X104394362Y-41359561D01*
X104394362Y-41359561D02*
X104299124Y-41169085D01*
X104299124Y-41169085D02*
X104299124Y-40597657D01*
X104299124Y-40597657D02*
X104394362Y-40407180D01*
X104394362Y-40407180D02*
X104489600Y-40311942D01*
X104489600Y-40311942D02*
X104680076Y-40216704D01*
X104680076Y-40216704D02*
X105061029Y-40216704D01*
X105061029Y-40216704D02*
X105251505Y-40311942D01*
X108584839Y-40216704D02*
X108584839Y-41550038D01*
X108108648Y-39454800D02*
X107632458Y-40883371D01*
X107632458Y-40883371D02*
X108870553Y-40883371D01*
X109632458Y-41550038D02*
X109632458Y-39550038D01*
X109632458Y-39550038D02*
X110299125Y-40978609D01*
X110299125Y-40978609D02*
X110965791Y-39550038D01*
X110965791Y-39550038D02*
X110965791Y-41550038D01*
X113441982Y-41550038D02*
X113441982Y-39550038D01*
X114299125Y-41550038D02*
X114299125Y-40502419D01*
X114299125Y-40502419D02*
X114203887Y-40311942D01*
X114203887Y-40311942D02*
X114013411Y-40216704D01*
X114013411Y-40216704D02*
X113727696Y-40216704D01*
X113727696Y-40216704D02*
X113537220Y-40311942D01*
X113537220Y-40311942D02*
X113441982Y-40407180D01*
X115251506Y-41550038D02*
X115251506Y-40216704D01*
X115251506Y-39550038D02*
X115156268Y-39645276D01*
X115156268Y-39645276D02*
X115251506Y-39740514D01*
X115251506Y-39740514D02*
X115346744Y-39645276D01*
X115346744Y-39645276D02*
X115251506Y-39550038D01*
X115251506Y-39550038D02*
X115251506Y-39740514D01*
X117061030Y-40216704D02*
X117061030Y-41835752D01*
X117061030Y-41835752D02*
X116965792Y-42026228D01*
X116965792Y-42026228D02*
X116870554Y-42121466D01*
X116870554Y-42121466D02*
X116680077Y-42216704D01*
X116680077Y-42216704D02*
X116394363Y-42216704D01*
X116394363Y-42216704D02*
X116203887Y-42121466D01*
X117061030Y-41454800D02*
X116870554Y-41550038D01*
X116870554Y-41550038D02*
X116489601Y-41550038D01*
X116489601Y-41550038D02*
X116299125Y-41454800D01*
X116299125Y-41454800D02*
X116203887Y-41359561D01*
X116203887Y-41359561D02*
X116108649Y-41169085D01*
X116108649Y-41169085D02*
X116108649Y-40597657D01*
X116108649Y-40597657D02*
X116203887Y-40407180D01*
X116203887Y-40407180D02*
X116299125Y-40311942D01*
X116299125Y-40311942D02*
X116489601Y-40216704D01*
X116489601Y-40216704D02*
X116870554Y-40216704D01*
X116870554Y-40216704D02*
X117061030Y-40311942D01*
X118013411Y-41550038D02*
X118013411Y-39550038D01*
X118870554Y-41550038D02*
X118870554Y-40502419D01*
X118870554Y-40502419D02*
X118775316Y-40311942D01*
X118775316Y-40311942D02*
X118584840Y-40216704D01*
X118584840Y-40216704D02*
X118299125Y-40216704D01*
X118299125Y-40216704D02*
X118108649Y-40311942D01*
X118108649Y-40311942D02*
X118013411Y-40407180D01*
X119822935Y-40216704D02*
X119822935Y-42216704D01*
X119822935Y-40311942D02*
X120013411Y-40216704D01*
X120013411Y-40216704D02*
X120394364Y-40216704D01*
X120394364Y-40216704D02*
X120584840Y-40311942D01*
X120584840Y-40311942D02*
X120680078Y-40407180D01*
X120680078Y-40407180D02*
X120775316Y-40597657D01*
X120775316Y-40597657D02*
X120775316Y-41169085D01*
X120775316Y-41169085D02*
X120680078Y-41359561D01*
X120680078Y-41359561D02*
X120584840Y-41454800D01*
X120584840Y-41454800D02*
X120394364Y-41550038D01*
X120394364Y-41550038D02*
X120013411Y-41550038D01*
X120013411Y-41550038D02*
X119822935Y-41454800D01*
X122489602Y-41550038D02*
X122489602Y-40502419D01*
X122489602Y-40502419D02*
X122394364Y-40311942D01*
X122394364Y-40311942D02*
X122203888Y-40216704D01*
X122203888Y-40216704D02*
X121822935Y-40216704D01*
X121822935Y-40216704D02*
X121632459Y-40311942D01*
X122489602Y-41454800D02*
X122299126Y-41550038D01*
X122299126Y-41550038D02*
X121822935Y-41550038D01*
X121822935Y-41550038D02*
X121632459Y-41454800D01*
X121632459Y-41454800D02*
X121537221Y-41264323D01*
X121537221Y-41264323D02*
X121537221Y-41073847D01*
X121537221Y-41073847D02*
X121632459Y-40883371D01*
X121632459Y-40883371D02*
X121822935Y-40788133D01*
X121822935Y-40788133D02*
X122299126Y-40788133D01*
X122299126Y-40788133D02*
X122489602Y-40692895D01*
X123346745Y-41454800D02*
X123537221Y-41550038D01*
X123537221Y-41550038D02*
X123918173Y-41550038D01*
X123918173Y-41550038D02*
X124108650Y-41454800D01*
X124108650Y-41454800D02*
X124203888Y-41264323D01*
X124203888Y-41264323D02*
X124203888Y-41169085D01*
X124203888Y-41169085D02*
X124108650Y-40978609D01*
X124108650Y-40978609D02*
X123918173Y-40883371D01*
X123918173Y-40883371D02*
X123632459Y-40883371D01*
X123632459Y-40883371D02*
X123441983Y-40788133D01*
X123441983Y-40788133D02*
X123346745Y-40597657D01*
X123346745Y-40597657D02*
X123346745Y-40502419D01*
X123346745Y-40502419D02*
X123441983Y-40311942D01*
X123441983Y-40311942D02*
X123632459Y-40216704D01*
X123632459Y-40216704D02*
X123918173Y-40216704D01*
X123918173Y-40216704D02*
X124108650Y-40311942D01*
X124965793Y-41454800D02*
X125156269Y-41550038D01*
X125156269Y-41550038D02*
X125537221Y-41550038D01*
X125537221Y-41550038D02*
X125727698Y-41454800D01*
X125727698Y-41454800D02*
X125822936Y-41264323D01*
X125822936Y-41264323D02*
X125822936Y-41169085D01*
X125822936Y-41169085D02*
X125727698Y-40978609D01*
X125727698Y-40978609D02*
X125537221Y-40883371D01*
X125537221Y-40883371D02*
X125251507Y-40883371D01*
X125251507Y-40883371D02*
X125061031Y-40788133D01*
X125061031Y-40788133D02*
X124965793Y-40597657D01*
X124965793Y-40597657D02*
X124965793Y-40502419D01*
X124965793Y-40502419D02*
X125061031Y-40311942D01*
X125061031Y-40311942D02*
X125251507Y-40216704D01*
X125251507Y-40216704D02*
X125537221Y-40216704D01*
X125537221Y-40216704D02*
X125727698Y-40311942D01*
X127918175Y-40216704D02*
X128680079Y-40216704D01*
X128203889Y-41550038D02*
X128203889Y-39835752D01*
X128203889Y-39835752D02*
X128299127Y-39645276D01*
X128299127Y-39645276D02*
X128489603Y-39550038D01*
X128489603Y-39550038D02*
X128680079Y-39550038D01*
X129346746Y-41550038D02*
X129346746Y-40216704D01*
X129346746Y-39550038D02*
X129251508Y-39645276D01*
X129251508Y-39645276D02*
X129346746Y-39740514D01*
X129346746Y-39740514D02*
X129441984Y-39645276D01*
X129441984Y-39645276D02*
X129346746Y-39550038D01*
X129346746Y-39550038D02*
X129346746Y-39740514D01*
X130584841Y-41550038D02*
X130394365Y-41454800D01*
X130394365Y-41454800D02*
X130299127Y-41264323D01*
X130299127Y-41264323D02*
X130299127Y-39550038D01*
X131061032Y-40216704D02*
X131822936Y-40216704D01*
X131346746Y-39550038D02*
X131346746Y-41264323D01*
X131346746Y-41264323D02*
X131441984Y-41454800D01*
X131441984Y-41454800D02*
X131632460Y-41550038D01*
X131632460Y-41550038D02*
X131822936Y-41550038D01*
X133251508Y-41454800D02*
X133061032Y-41550038D01*
X133061032Y-41550038D02*
X132680079Y-41550038D01*
X132680079Y-41550038D02*
X132489603Y-41454800D01*
X132489603Y-41454800D02*
X132394365Y-41264323D01*
X132394365Y-41264323D02*
X132394365Y-40502419D01*
X132394365Y-40502419D02*
X132489603Y-40311942D01*
X132489603Y-40311942D02*
X132680079Y-40216704D01*
X132680079Y-40216704D02*
X133061032Y-40216704D01*
X133061032Y-40216704D02*
X133251508Y-40311942D01*
X133251508Y-40311942D02*
X133346746Y-40502419D01*
X133346746Y-40502419D02*
X133346746Y-40692895D01*
X133346746Y-40692895D02*
X132394365Y-40883371D01*
X134203889Y-41550038D02*
X134203889Y-40216704D01*
X134203889Y-40597657D02*
X134299127Y-40407180D01*
X134299127Y-40407180D02*
X134394365Y-40311942D01*
X134394365Y-40311942D02*
X134584841Y-40216704D01*
X134584841Y-40216704D02*
X134775318Y-40216704D01*
X135441984Y-41359561D02*
X135537222Y-41454800D01*
X135537222Y-41454800D02*
X135441984Y-41550038D01*
X135441984Y-41550038D02*
X135346746Y-41454800D01*
X135346746Y-41454800D02*
X135441984Y-41359561D01*
X135441984Y-41359561D02*
X135441984Y-41550038D01*
X106989598Y-84350038D02*
X105846741Y-84350038D01*
X106418169Y-84350038D02*
X106418169Y-82350038D01*
X106418169Y-82350038D02*
X106227693Y-82635752D01*
X106227693Y-82635752D02*
X106037217Y-82826228D01*
X106037217Y-82826228D02*
X105846741Y-82921466D01*
X108799122Y-82350038D02*
X107846741Y-82350038D01*
X107846741Y-82350038D02*
X107751503Y-83302419D01*
X107751503Y-83302419D02*
X107846741Y-83207180D01*
X107846741Y-83207180D02*
X108037217Y-83111942D01*
X108037217Y-83111942D02*
X108513408Y-83111942D01*
X108513408Y-83111942D02*
X108703884Y-83207180D01*
X108703884Y-83207180D02*
X108799122Y-83302419D01*
X108799122Y-83302419D02*
X108894360Y-83492895D01*
X108894360Y-83492895D02*
X108894360Y-83969085D01*
X108894360Y-83969085D02*
X108799122Y-84159561D01*
X108799122Y-84159561D02*
X108703884Y-84254800D01*
X108703884Y-84254800D02*
X108513408Y-84350038D01*
X108513408Y-84350038D02*
X108037217Y-84350038D01*
X108037217Y-84350038D02*
X107846741Y-84254800D01*
X107846741Y-84254800D02*
X107751503Y-84159561D01*
X109751503Y-84350038D02*
X109751503Y-82350038D01*
X109751503Y-82350038D02*
X110418170Y-83778609D01*
X110418170Y-83778609D02*
X111084836Y-82350038D01*
X111084836Y-82350038D02*
X111084836Y-84350038D01*
X112037217Y-84350038D02*
X112037217Y-82350038D01*
X112037217Y-82350038D02*
X112703884Y-83778609D01*
X112703884Y-83778609D02*
X113370550Y-82350038D01*
X113370550Y-82350038D02*
X113370550Y-84350038D01*
X115561027Y-82350038D02*
X116703884Y-82350038D01*
X116132455Y-84350038D02*
X116132455Y-82350038D01*
X117275313Y-83778609D02*
X118227694Y-83778609D01*
X117084837Y-84350038D02*
X117751503Y-82350038D01*
X117751503Y-82350038D02*
X118418170Y-84350038D01*
X120037218Y-84350038D02*
X119084837Y-84350038D01*
X119084837Y-84350038D02*
X119084837Y-82350038D01*
X121656266Y-84350038D02*
X120703885Y-84350038D01*
X120703885Y-84350038D02*
X120703885Y-82350038D01*
X99989598Y-44550038D02*
X98846741Y-44550038D01*
X99418169Y-44550038D02*
X99418169Y-42550038D01*
X99418169Y-42550038D02*
X99227693Y-42835752D01*
X99227693Y-42835752D02*
X99037217Y-43026228D01*
X99037217Y-43026228D02*
X98846741Y-43121466D01*
X101227693Y-42550038D02*
X101418170Y-42550038D01*
X101418170Y-42550038D02*
X101608646Y-42645276D01*
X101608646Y-42645276D02*
X101703884Y-42740514D01*
X101703884Y-42740514D02*
X101799122Y-42930990D01*
X101799122Y-42930990D02*
X101894360Y-43311942D01*
X101894360Y-43311942D02*
X101894360Y-43788133D01*
X101894360Y-43788133D02*
X101799122Y-44169085D01*
X101799122Y-44169085D02*
X101703884Y-44359561D01*
X101703884Y-44359561D02*
X101608646Y-44454800D01*
X101608646Y-44454800D02*
X101418170Y-44550038D01*
X101418170Y-44550038D02*
X101227693Y-44550038D01*
X101227693Y-44550038D02*
X101037217Y-44454800D01*
X101037217Y-44454800D02*
X100941979Y-44359561D01*
X100941979Y-44359561D02*
X100846741Y-44169085D01*
X100846741Y-44169085D02*
X100751503Y-43788133D01*
X100751503Y-43788133D02*
X100751503Y-43311942D01*
X100751503Y-43311942D02*
X100846741Y-42930990D01*
X100846741Y-42930990D02*
X100941979Y-42740514D01*
X100941979Y-42740514D02*
X101037217Y-42645276D01*
X101037217Y-42645276D02*
X101227693Y-42550038D01*
X103132455Y-42550038D02*
X103322932Y-42550038D01*
X103322932Y-42550038D02*
X103513408Y-42645276D01*
X103513408Y-42645276D02*
X103608646Y-42740514D01*
X103608646Y-42740514D02*
X103703884Y-42930990D01*
X103703884Y-42930990D02*
X103799122Y-43311942D01*
X103799122Y-43311942D02*
X103799122Y-43788133D01*
X103799122Y-43788133D02*
X103703884Y-44169085D01*
X103703884Y-44169085D02*
X103608646Y-44359561D01*
X103608646Y-44359561D02*
X103513408Y-44454800D01*
X103513408Y-44454800D02*
X103322932Y-44550038D01*
X103322932Y-44550038D02*
X103132455Y-44550038D01*
X103132455Y-44550038D02*
X102941979Y-44454800D01*
X102941979Y-44454800D02*
X102846741Y-44359561D01*
X102846741Y-44359561D02*
X102751503Y-44169085D01*
X102751503Y-44169085D02*
X102656265Y-43788133D01*
X102656265Y-43788133D02*
X102656265Y-43311942D01*
X102656265Y-43311942D02*
X102751503Y-42930990D01*
X102751503Y-42930990D02*
X102846741Y-42740514D01*
X102846741Y-42740514D02*
X102941979Y-42645276D01*
X102941979Y-42645276D02*
X103132455Y-42550038D01*
X104465789Y-42550038D02*
X104941979Y-44550038D01*
X104941979Y-44550038D02*
X105322932Y-43121466D01*
X105322932Y-43121466D02*
X105703884Y-44550038D01*
X105703884Y-44550038D02*
X106180075Y-42550038D01*
X108465789Y-44550038D02*
X108465789Y-42550038D01*
X108465789Y-42550038D02*
X109132456Y-43978609D01*
X109132456Y-43978609D02*
X109799122Y-42550038D01*
X109799122Y-42550038D02*
X109799122Y-44550038D01*
X110656265Y-43978609D02*
X111608646Y-43978609D01*
X110465789Y-44550038D02*
X111132455Y-42550038D01*
X111132455Y-42550038D02*
X111799122Y-44550038D01*
X112275313Y-42550038D02*
X113608646Y-44550038D01*
X113608646Y-42550038D02*
X112275313Y-44550038D01*
X114370551Y-44359561D02*
X114465789Y-44454800D01*
X114465789Y-44454800D02*
X114370551Y-44550038D01*
X114370551Y-44550038D02*
X114275313Y-44454800D01*
X114275313Y-44454800D02*
X114370551Y-44359561D01*
X114370551Y-44359561D02*
X114370551Y-44550038D01*
X114370551Y-43788133D02*
X114275313Y-42645276D01*
X114275313Y-42645276D02*
X114370551Y-42550038D01*
X114370551Y-42550038D02*
X114465789Y-42645276D01*
X114465789Y-42645276D02*
X114370551Y-43788133D01*
X114370551Y-43788133D02*
X114370551Y-42550038D01*
X149989598Y-84350038D02*
X148846741Y-84350038D01*
X149418169Y-84350038D02*
X149418169Y-82350038D01*
X149418169Y-82350038D02*
X149227693Y-82635752D01*
X149227693Y-82635752D02*
X149037217Y-82826228D01*
X149037217Y-82826228D02*
X148846741Y-82921466D01*
X150846741Y-84159561D02*
X150941979Y-84254800D01*
X150941979Y-84254800D02*
X150846741Y-84350038D01*
X150846741Y-84350038D02*
X150751503Y-84254800D01*
X150751503Y-84254800D02*
X150846741Y-84159561D01*
X150846741Y-84159561D02*
X150846741Y-84350038D01*
X152751503Y-82350038D02*
X151799122Y-82350038D01*
X151799122Y-82350038D02*
X151703884Y-83302419D01*
X151703884Y-83302419D02*
X151799122Y-83207180D01*
X151799122Y-83207180D02*
X151989598Y-83111942D01*
X151989598Y-83111942D02*
X152465789Y-83111942D01*
X152465789Y-83111942D02*
X152656265Y-83207180D01*
X152656265Y-83207180D02*
X152751503Y-83302419D01*
X152751503Y-83302419D02*
X152846741Y-83492895D01*
X152846741Y-83492895D02*
X152846741Y-83969085D01*
X152846741Y-83969085D02*
X152751503Y-84159561D01*
X152751503Y-84159561D02*
X152656265Y-84254800D01*
X152656265Y-84254800D02*
X152465789Y-84350038D01*
X152465789Y-84350038D02*
X151989598Y-84350038D01*
X151989598Y-84350038D02*
X151799122Y-84254800D01*
X151799122Y-84254800D02*
X151703884Y-84159561D01*
X153703884Y-84350038D02*
X153703884Y-82350038D01*
X153703884Y-82350038D02*
X154370551Y-83778609D01*
X154370551Y-83778609D02*
X155037217Y-82350038D01*
X155037217Y-82350038D02*
X155037217Y-84350038D01*
X155989598Y-84350038D02*
X155989598Y-82350038D01*
X155989598Y-82350038D02*
X156656265Y-83778609D01*
X156656265Y-83778609D02*
X157322931Y-82350038D01*
X157322931Y-82350038D02*
X157322931Y-84350038D01*
X159513408Y-82350038D02*
X160656265Y-82350038D01*
X160084836Y-84350038D02*
X160084836Y-82350038D01*
X161322932Y-84350038D02*
X161322932Y-82350038D01*
X161322932Y-83302419D02*
X162465789Y-83302419D01*
X162465789Y-84350038D02*
X162465789Y-82350038D01*
X163418170Y-84350038D02*
X163418170Y-82350038D01*
X165513408Y-84159561D02*
X165418170Y-84254800D01*
X165418170Y-84254800D02*
X165132456Y-84350038D01*
X165132456Y-84350038D02*
X164941980Y-84350038D01*
X164941980Y-84350038D02*
X164656265Y-84254800D01*
X164656265Y-84254800D02*
X164465789Y-84064323D01*
X164465789Y-84064323D02*
X164370551Y-83873847D01*
X164370551Y-83873847D02*
X164275313Y-83492895D01*
X164275313Y-83492895D02*
X164275313Y-83207180D01*
X164275313Y-83207180D02*
X164370551Y-82826228D01*
X164370551Y-82826228D02*
X164465789Y-82635752D01*
X164465789Y-82635752D02*
X164656265Y-82445276D01*
X164656265Y-82445276D02*
X164941980Y-82350038D01*
X164941980Y-82350038D02*
X165132456Y-82350038D01*
X165132456Y-82350038D02*
X165418170Y-82445276D01*
X165418170Y-82445276D02*
X165513408Y-82540514D01*
X166370551Y-84350038D02*
X166370551Y-82350038D01*
X167513408Y-84350038D02*
X166656265Y-83207180D01*
X167513408Y-82350038D02*
X166370551Y-83492895D01*
X54084836Y-84159561D02*
X53989598Y-84254800D01*
X53989598Y-84254800D02*
X53703884Y-84350038D01*
X53703884Y-84350038D02*
X53513408Y-84350038D01*
X53513408Y-84350038D02*
X53227693Y-84254800D01*
X53227693Y-84254800D02*
X53037217Y-84064323D01*
X53037217Y-84064323D02*
X52941979Y-83873847D01*
X52941979Y-83873847D02*
X52846741Y-83492895D01*
X52846741Y-83492895D02*
X52846741Y-83207180D01*
X52846741Y-83207180D02*
X52941979Y-82826228D01*
X52941979Y-82826228D02*
X53037217Y-82635752D01*
X53037217Y-82635752D02*
X53227693Y-82445276D01*
X53227693Y-82445276D02*
X53513408Y-82350038D01*
X53513408Y-82350038D02*
X53703884Y-82350038D01*
X53703884Y-82350038D02*
X53989598Y-82445276D01*
X53989598Y-82445276D02*
X54084836Y-82540514D01*
X55322931Y-82350038D02*
X55703884Y-82350038D01*
X55703884Y-82350038D02*
X55894360Y-82445276D01*
X55894360Y-82445276D02*
X56084836Y-82635752D01*
X56084836Y-82635752D02*
X56180074Y-83016704D01*
X56180074Y-83016704D02*
X56180074Y-83683371D01*
X56180074Y-83683371D02*
X56084836Y-84064323D01*
X56084836Y-84064323D02*
X55894360Y-84254800D01*
X55894360Y-84254800D02*
X55703884Y-84350038D01*
X55703884Y-84350038D02*
X55322931Y-84350038D01*
X55322931Y-84350038D02*
X55132455Y-84254800D01*
X55132455Y-84254800D02*
X54941979Y-84064323D01*
X54941979Y-84064323D02*
X54846741Y-83683371D01*
X54846741Y-83683371D02*
X54846741Y-83016704D01*
X54846741Y-83016704D02*
X54941979Y-82635752D01*
X54941979Y-82635752D02*
X55132455Y-82445276D01*
X55132455Y-82445276D02*
X55322931Y-82350038D01*
X57037217Y-84350038D02*
X57037217Y-82350038D01*
X57037217Y-82350038D02*
X57799122Y-82350038D01*
X57799122Y-82350038D02*
X57989598Y-82445276D01*
X57989598Y-82445276D02*
X58084836Y-82540514D01*
X58084836Y-82540514D02*
X58180074Y-82730990D01*
X58180074Y-82730990D02*
X58180074Y-83016704D01*
X58180074Y-83016704D02*
X58084836Y-83207180D01*
X58084836Y-83207180D02*
X57989598Y-83302419D01*
X57989598Y-83302419D02*
X57799122Y-83397657D01*
X57799122Y-83397657D02*
X57037217Y-83397657D01*
X59037217Y-84350038D02*
X59037217Y-82350038D01*
X59037217Y-82350038D02*
X59799122Y-82350038D01*
X59799122Y-82350038D02*
X59989598Y-82445276D01*
X59989598Y-82445276D02*
X60084836Y-82540514D01*
X60084836Y-82540514D02*
X60180074Y-82730990D01*
X60180074Y-82730990D02*
X60180074Y-83016704D01*
X60180074Y-83016704D02*
X60084836Y-83207180D01*
X60084836Y-83207180D02*
X59989598Y-83302419D01*
X59989598Y-83302419D02*
X59799122Y-83397657D01*
X59799122Y-83397657D02*
X59037217Y-83397657D01*
X61037217Y-83302419D02*
X61703884Y-83302419D01*
X61989598Y-84350038D02*
X61037217Y-84350038D01*
X61037217Y-84350038D02*
X61037217Y-82350038D01*
X61037217Y-82350038D02*
X61989598Y-82350038D01*
X63989598Y-84350038D02*
X63322931Y-83397657D01*
X62846741Y-84350038D02*
X62846741Y-82350038D01*
X62846741Y-82350038D02*
X63608646Y-82350038D01*
X63608646Y-82350038D02*
X63799122Y-82445276D01*
X63799122Y-82445276D02*
X63894360Y-82540514D01*
X63894360Y-82540514D02*
X63989598Y-82730990D01*
X63989598Y-82730990D02*
X63989598Y-83016704D01*
X63989598Y-83016704D02*
X63894360Y-83207180D01*
X63894360Y-83207180D02*
X63799122Y-83302419D01*
X63799122Y-83302419D02*
X63608646Y-83397657D01*
X63608646Y-83397657D02*
X62846741Y-83397657D01*
X66275313Y-84254800D02*
X66561027Y-84350038D01*
X66561027Y-84350038D02*
X67037218Y-84350038D01*
X67037218Y-84350038D02*
X67227694Y-84254800D01*
X67227694Y-84254800D02*
X67322932Y-84159561D01*
X67322932Y-84159561D02*
X67418170Y-83969085D01*
X67418170Y-83969085D02*
X67418170Y-83778609D01*
X67418170Y-83778609D02*
X67322932Y-83588133D01*
X67322932Y-83588133D02*
X67227694Y-83492895D01*
X67227694Y-83492895D02*
X67037218Y-83397657D01*
X67037218Y-83397657D02*
X66656265Y-83302419D01*
X66656265Y-83302419D02*
X66465789Y-83207180D01*
X66465789Y-83207180D02*
X66370551Y-83111942D01*
X66370551Y-83111942D02*
X66275313Y-82921466D01*
X66275313Y-82921466D02*
X66275313Y-82730990D01*
X66275313Y-82730990D02*
X66370551Y-82540514D01*
X66370551Y-82540514D02*
X66465789Y-82445276D01*
X66465789Y-82445276D02*
X66656265Y-82350038D01*
X66656265Y-82350038D02*
X67132456Y-82350038D01*
X67132456Y-82350038D02*
X67418170Y-82445276D01*
X68275313Y-84350038D02*
X68275313Y-82350038D01*
X68275313Y-83302419D02*
X69418170Y-83302419D01*
X69418170Y-84350038D02*
X69418170Y-82350038D01*
X70370551Y-83302419D02*
X71037218Y-83302419D01*
X71322932Y-84350038D02*
X70370551Y-84350038D01*
X70370551Y-84350038D02*
X70370551Y-82350038D01*
X70370551Y-82350038D02*
X71322932Y-82350038D01*
X72084837Y-83778609D02*
X73037218Y-83778609D01*
X71894361Y-84350038D02*
X72561027Y-82350038D01*
X72561027Y-82350038D02*
X73227694Y-84350038D01*
X73608647Y-82350038D02*
X74751504Y-82350038D01*
X74180075Y-84350038D02*
X74180075Y-82350038D01*
X76846743Y-83778609D02*
X77799124Y-83778609D01*
X76656267Y-84350038D02*
X77322933Y-82350038D01*
X77322933Y-82350038D02*
X77989600Y-84350038D01*
X78561029Y-84254800D02*
X78846743Y-84350038D01*
X78846743Y-84350038D02*
X79322934Y-84350038D01*
X79322934Y-84350038D02*
X79513410Y-84254800D01*
X79513410Y-84254800D02*
X79608648Y-84159561D01*
X79608648Y-84159561D02*
X79703886Y-83969085D01*
X79703886Y-83969085D02*
X79703886Y-83778609D01*
X79703886Y-83778609D02*
X79608648Y-83588133D01*
X79608648Y-83588133D02*
X79513410Y-83492895D01*
X79513410Y-83492895D02*
X79322934Y-83397657D01*
X79322934Y-83397657D02*
X78941981Y-83302419D01*
X78941981Y-83302419D02*
X78751505Y-83207180D01*
X78751505Y-83207180D02*
X78656267Y-83111942D01*
X78656267Y-83111942D02*
X78561029Y-82921466D01*
X78561029Y-82921466D02*
X78561029Y-82730990D01*
X78561029Y-82730990D02*
X78656267Y-82540514D01*
X78656267Y-82540514D02*
X78751505Y-82445276D01*
X78751505Y-82445276D02*
X78941981Y-82350038D01*
X78941981Y-82350038D02*
X79418172Y-82350038D01*
X79418172Y-82350038D02*
X79703886Y-82445276D01*
X81989601Y-84254800D02*
X82275315Y-84350038D01*
X82275315Y-84350038D02*
X82751506Y-84350038D01*
X82751506Y-84350038D02*
X82941982Y-84254800D01*
X82941982Y-84254800D02*
X83037220Y-84159561D01*
X83037220Y-84159561D02*
X83132458Y-83969085D01*
X83132458Y-83969085D02*
X83132458Y-83778609D01*
X83132458Y-83778609D02*
X83037220Y-83588133D01*
X83037220Y-83588133D02*
X82941982Y-83492895D01*
X82941982Y-83492895D02*
X82751506Y-83397657D01*
X82751506Y-83397657D02*
X82370553Y-83302419D01*
X82370553Y-83302419D02*
X82180077Y-83207180D01*
X82180077Y-83207180D02*
X82084839Y-83111942D01*
X82084839Y-83111942D02*
X81989601Y-82921466D01*
X81989601Y-82921466D02*
X81989601Y-82730990D01*
X81989601Y-82730990D02*
X82084839Y-82540514D01*
X82084839Y-82540514D02*
X82180077Y-82445276D01*
X82180077Y-82445276D02*
X82370553Y-82350038D01*
X82370553Y-82350038D02*
X82846744Y-82350038D01*
X82846744Y-82350038D02*
X83132458Y-82445276D01*
X83989601Y-84350038D02*
X83989601Y-82350038D01*
X83989601Y-83302419D02*
X85132458Y-83302419D01*
X85132458Y-84350038D02*
X85132458Y-82350038D01*
X86084839Y-84350038D02*
X86084839Y-82350038D01*
X87037220Y-83302419D02*
X87703887Y-83302419D01*
X87989601Y-84350038D02*
X87037220Y-84350038D01*
X87037220Y-84350038D02*
X87037220Y-82350038D01*
X87037220Y-82350038D02*
X87989601Y-82350038D01*
X89799125Y-84350038D02*
X88846744Y-84350038D01*
X88846744Y-84350038D02*
X88846744Y-82350038D01*
X90465792Y-84350038D02*
X90465792Y-82350038D01*
X90465792Y-82350038D02*
X90941982Y-82350038D01*
X90941982Y-82350038D02*
X91227697Y-82445276D01*
X91227697Y-82445276D02*
X91418173Y-82635752D01*
X91418173Y-82635752D02*
X91513411Y-82826228D01*
X91513411Y-82826228D02*
X91608649Y-83207180D01*
X91608649Y-83207180D02*
X91608649Y-83492895D01*
X91608649Y-83492895D02*
X91513411Y-83873847D01*
X91513411Y-83873847D02*
X91418173Y-84064323D01*
X91418173Y-84064323D02*
X91227697Y-84254800D01*
X91227697Y-84254800D02*
X90941982Y-84350038D01*
X90941982Y-84350038D02*
X90465792Y-84350038D01*
D11*
X33689160Y-64847438D02*
X34832017Y-64847438D01*
X34260588Y-66847438D02*
X34260588Y-64847438D01*
X35879636Y-64847438D02*
X36260589Y-64847438D01*
X36260589Y-64847438D02*
X36451065Y-64942676D01*
X36451065Y-64942676D02*
X36641541Y-65133152D01*
X36641541Y-65133152D02*
X36736779Y-65514104D01*
X36736779Y-65514104D02*
X36736779Y-66180771D01*
X36736779Y-66180771D02*
X36641541Y-66561723D01*
X36641541Y-66561723D02*
X36451065Y-66752200D01*
X36451065Y-66752200D02*
X36260589Y-66847438D01*
X36260589Y-66847438D02*
X35879636Y-66847438D01*
X35879636Y-66847438D02*
X35689160Y-66752200D01*
X35689160Y-66752200D02*
X35498684Y-66561723D01*
X35498684Y-66561723D02*
X35403446Y-66180771D01*
X35403446Y-66180771D02*
X35403446Y-65514104D01*
X35403446Y-65514104D02*
X35498684Y-65133152D01*
X35498684Y-65133152D02*
X35689160Y-64942676D01*
X35689160Y-64942676D02*
X35879636Y-64847438D01*
X40260589Y-66847438D02*
X39593922Y-65895057D01*
X39117732Y-66847438D02*
X39117732Y-64847438D01*
X39117732Y-64847438D02*
X39879637Y-64847438D01*
X39879637Y-64847438D02*
X40070113Y-64942676D01*
X40070113Y-64942676D02*
X40165351Y-65037914D01*
X40165351Y-65037914D02*
X40260589Y-65228390D01*
X40260589Y-65228390D02*
X40260589Y-65514104D01*
X40260589Y-65514104D02*
X40165351Y-65704580D01*
X40165351Y-65704580D02*
X40070113Y-65799819D01*
X40070113Y-65799819D02*
X39879637Y-65895057D01*
X39879637Y-65895057D02*
X39117732Y-65895057D01*
X41117732Y-66847438D02*
X41117732Y-64847438D01*
X43117732Y-64942676D02*
X42927256Y-64847438D01*
X42927256Y-64847438D02*
X42641542Y-64847438D01*
X42641542Y-64847438D02*
X42355827Y-64942676D01*
X42355827Y-64942676D02*
X42165351Y-65133152D01*
X42165351Y-65133152D02*
X42070113Y-65323628D01*
X42070113Y-65323628D02*
X41974875Y-65704580D01*
X41974875Y-65704580D02*
X41974875Y-65990295D01*
X41974875Y-65990295D02*
X42070113Y-66371247D01*
X42070113Y-66371247D02*
X42165351Y-66561723D01*
X42165351Y-66561723D02*
X42355827Y-66752200D01*
X42355827Y-66752200D02*
X42641542Y-66847438D01*
X42641542Y-66847438D02*
X42832018Y-66847438D01*
X42832018Y-66847438D02*
X43117732Y-66752200D01*
X43117732Y-66752200D02*
X43212970Y-66656961D01*
X43212970Y-66656961D02*
X43212970Y-65990295D01*
X43212970Y-65990295D02*
X42832018Y-65990295D01*
D10*
X166041979Y-88750038D02*
X166041979Y-86750038D01*
X166041979Y-87702419D02*
X167184836Y-87702419D01*
X167184836Y-88750038D02*
X167184836Y-86750038D01*
X168803884Y-87702419D02*
X168137217Y-87702419D01*
X168137217Y-88750038D02*
X168137217Y-86750038D01*
X168137217Y-86750038D02*
X169089598Y-86750038D01*
X169851503Y-87988133D02*
X171375313Y-87988133D01*
X170613408Y-88750038D02*
X170613408Y-87226228D01*
X173184836Y-86750038D02*
X172803883Y-86750038D01*
X172803883Y-86750038D02*
X172613407Y-86845276D01*
X172613407Y-86845276D02*
X172518169Y-86940514D01*
X172518169Y-86940514D02*
X172327693Y-87226228D01*
X172327693Y-87226228D02*
X172232455Y-87607180D01*
X172232455Y-87607180D02*
X172232455Y-88369085D01*
X172232455Y-88369085D02*
X172327693Y-88559561D01*
X172327693Y-88559561D02*
X172422931Y-88654800D01*
X172422931Y-88654800D02*
X172613407Y-88750038D01*
X172613407Y-88750038D02*
X172994360Y-88750038D01*
X172994360Y-88750038D02*
X173184836Y-88654800D01*
X173184836Y-88654800D02*
X173280074Y-88559561D01*
X173280074Y-88559561D02*
X173375312Y-88369085D01*
X173375312Y-88369085D02*
X173375312Y-87892895D01*
X173375312Y-87892895D02*
X173280074Y-87702419D01*
X173280074Y-87702419D02*
X173184836Y-87607180D01*
X173184836Y-87607180D02*
X172994360Y-87511942D01*
X172994360Y-87511942D02*
X172613407Y-87511942D01*
X172613407Y-87511942D02*
X172422931Y-87607180D01*
X172422931Y-87607180D02*
X172327693Y-87702419D01*
X172327693Y-87702419D02*
X172232455Y-87892895D01*
X174232455Y-88750038D02*
X174232455Y-86750038D01*
X174232455Y-86750038D02*
X174899122Y-88178609D01*
X174899122Y-88178609D02*
X175565788Y-86750038D01*
X175565788Y-86750038D02*
X175565788Y-88750038D01*
X170399122Y-57416704D02*
X170399122Y-58750038D01*
X169922931Y-56654800D02*
X169446741Y-58083371D01*
X169446741Y-58083371D02*
X170684836Y-58083371D01*
X171446741Y-58750038D02*
X171446741Y-56750038D01*
X171446741Y-56750038D02*
X172113408Y-58178609D01*
X172113408Y-58178609D02*
X172780074Y-56750038D01*
X172780074Y-56750038D02*
X172780074Y-58750038D01*
D12*
X92754519Y-99931092D02*
X92773267Y-99949840D01*
X92773267Y-99949840D02*
X92792014Y-100006083D01*
X92792014Y-100006083D02*
X92792014Y-100043578D01*
X92792014Y-100043578D02*
X92773267Y-100099821D01*
X92773267Y-100099821D02*
X92735771Y-100137317D01*
X92735771Y-100137317D02*
X92698276Y-100156064D01*
X92698276Y-100156064D02*
X92623285Y-100174812D01*
X92623285Y-100174812D02*
X92567042Y-100174812D01*
X92567042Y-100174812D02*
X92492052Y-100156064D01*
X92492052Y-100156064D02*
X92454556Y-100137317D01*
X92454556Y-100137317D02*
X92417061Y-100099821D01*
X92417061Y-100099821D02*
X92398313Y-100043578D01*
X92398313Y-100043578D02*
X92398313Y-100006083D01*
X92398313Y-100006083D02*
X92417061Y-99949840D01*
X92417061Y-99949840D02*
X92435809Y-99931092D01*
X92792014Y-99556139D02*
X92792014Y-99781111D01*
X92792014Y-99668625D02*
X92398313Y-99668625D01*
X92398313Y-99668625D02*
X92454556Y-99706120D01*
X92454556Y-99706120D02*
X92492052Y-99743616D01*
X92492052Y-99743616D02*
X92510799Y-99781111D01*
X92398313Y-99424906D02*
X92398313Y-99162438D01*
X92398313Y-99162438D02*
X92792014Y-99331167D01*
D11*
X51182142Y-98529819D02*
X50705952Y-98529819D01*
X50705952Y-98529819D02*
X50705952Y-97529819D01*
X52039285Y-98529819D02*
X51467857Y-98529819D01*
X51753571Y-98529819D02*
X51753571Y-97529819D01*
X51753571Y-97529819D02*
X51658333Y-97672676D01*
X51658333Y-97672676D02*
X51563095Y-97767914D01*
X51563095Y-97767914D02*
X51467857Y-97815533D01*
X52658333Y-97529819D02*
X52753571Y-97529819D01*
X52753571Y-97529819D02*
X52848809Y-97577438D01*
X52848809Y-97577438D02*
X52896428Y-97625057D01*
X52896428Y-97625057D02*
X52944047Y-97720295D01*
X52944047Y-97720295D02*
X52991666Y-97910771D01*
X52991666Y-97910771D02*
X52991666Y-98148866D01*
X52991666Y-98148866D02*
X52944047Y-98339342D01*
X52944047Y-98339342D02*
X52896428Y-98434580D01*
X52896428Y-98434580D02*
X52848809Y-98482200D01*
X52848809Y-98482200D02*
X52753571Y-98529819D01*
X52753571Y-98529819D02*
X52658333Y-98529819D01*
X52658333Y-98529819D02*
X52563095Y-98482200D01*
X52563095Y-98482200D02*
X52515476Y-98434580D01*
X52515476Y-98434580D02*
X52467857Y-98339342D01*
X52467857Y-98339342D02*
X52420238Y-98148866D01*
X52420238Y-98148866D02*
X52420238Y-97910771D01*
X52420238Y-97910771D02*
X52467857Y-97720295D01*
X52467857Y-97720295D02*
X52515476Y-97625057D01*
X52515476Y-97625057D02*
X52563095Y-97577438D01*
X52563095Y-97577438D02*
X52658333Y-97529819D01*
D12*
X65239519Y-100076616D02*
X65258267Y-100095364D01*
X65258267Y-100095364D02*
X65277014Y-100151607D01*
X65277014Y-100151607D02*
X65277014Y-100189102D01*
X65277014Y-100189102D02*
X65258267Y-100245345D01*
X65258267Y-100245345D02*
X65220771Y-100282841D01*
X65220771Y-100282841D02*
X65183276Y-100301588D01*
X65183276Y-100301588D02*
X65108285Y-100320336D01*
X65108285Y-100320336D02*
X65052042Y-100320336D01*
X65052042Y-100320336D02*
X64977052Y-100301588D01*
X64977052Y-100301588D02*
X64939556Y-100282841D01*
X64939556Y-100282841D02*
X64902061Y-100245345D01*
X64902061Y-100245345D02*
X64883313Y-100189102D01*
X64883313Y-100189102D02*
X64883313Y-100151607D01*
X64883313Y-100151607D02*
X64902061Y-100095364D01*
X64902061Y-100095364D02*
X64920809Y-100076616D01*
X64883313Y-99739158D02*
X64883313Y-99814149D01*
X64883313Y-99814149D02*
X64902061Y-99851644D01*
X64902061Y-99851644D02*
X64920809Y-99870392D01*
X64920809Y-99870392D02*
X64977052Y-99907887D01*
X64977052Y-99907887D02*
X65052042Y-99926635D01*
X65052042Y-99926635D02*
X65202024Y-99926635D01*
X65202024Y-99926635D02*
X65239519Y-99907887D01*
X65239519Y-99907887D02*
X65258267Y-99889140D01*
X65258267Y-99889140D02*
X65277014Y-99851644D01*
X65277014Y-99851644D02*
X65277014Y-99776654D01*
X65277014Y-99776654D02*
X65258267Y-99739158D01*
X65258267Y-99739158D02*
X65239519Y-99720411D01*
X65239519Y-99720411D02*
X65202024Y-99701663D01*
X65202024Y-99701663D02*
X65108285Y-99701663D01*
X65108285Y-99701663D02*
X65070790Y-99720411D01*
X65070790Y-99720411D02*
X65052042Y-99739158D01*
X65052042Y-99739158D02*
X65033295Y-99776654D01*
X65033295Y-99776654D02*
X65033295Y-99851644D01*
X65033295Y-99851644D02*
X65052042Y-99889140D01*
X65052042Y-99889140D02*
X65070790Y-99907887D01*
X65070790Y-99907887D02*
X65108285Y-99926635D01*
X121496907Y-63724519D02*
X121478159Y-63743267D01*
X121478159Y-63743267D02*
X121421916Y-63762014D01*
X121421916Y-63762014D02*
X121384421Y-63762014D01*
X121384421Y-63762014D02*
X121328178Y-63743267D01*
X121328178Y-63743267D02*
X121290683Y-63705771D01*
X121290683Y-63705771D02*
X121271935Y-63668276D01*
X121271935Y-63668276D02*
X121253187Y-63593285D01*
X121253187Y-63593285D02*
X121253187Y-63537042D01*
X121253187Y-63537042D02*
X121271935Y-63462052D01*
X121271935Y-63462052D02*
X121290683Y-63424556D01*
X121290683Y-63424556D02*
X121328178Y-63387061D01*
X121328178Y-63387061D02*
X121384421Y-63368313D01*
X121384421Y-63368313D02*
X121421916Y-63368313D01*
X121421916Y-63368313D02*
X121478159Y-63387061D01*
X121478159Y-63387061D02*
X121496907Y-63405809D01*
X121871860Y-63762014D02*
X121646888Y-63762014D01*
X121759374Y-63762014D02*
X121759374Y-63368313D01*
X121759374Y-63368313D02*
X121721879Y-63424556D01*
X121721879Y-63424556D02*
X121684384Y-63462052D01*
X121684384Y-63462052D02*
X121646888Y-63480799D01*
X122209318Y-63499547D02*
X122209318Y-63762014D01*
X122115580Y-63349566D02*
X122021841Y-63630781D01*
X122021841Y-63630781D02*
X122265561Y-63630781D01*
X121624383Y-68149519D02*
X121605635Y-68168267D01*
X121605635Y-68168267D02*
X121549392Y-68187014D01*
X121549392Y-68187014D02*
X121511897Y-68187014D01*
X121511897Y-68187014D02*
X121455654Y-68168267D01*
X121455654Y-68168267D02*
X121418159Y-68130771D01*
X121418159Y-68130771D02*
X121399411Y-68093276D01*
X121399411Y-68093276D02*
X121380663Y-68018285D01*
X121380663Y-68018285D02*
X121380663Y-67962042D01*
X121380663Y-67962042D02*
X121399411Y-67887052D01*
X121399411Y-67887052D02*
X121418159Y-67849556D01*
X121418159Y-67849556D02*
X121455654Y-67812061D01*
X121455654Y-67812061D02*
X121511897Y-67793313D01*
X121511897Y-67793313D02*
X121549392Y-67793313D01*
X121549392Y-67793313D02*
X121605635Y-67812061D01*
X121605635Y-67812061D02*
X121624383Y-67830809D01*
X121961841Y-67924547D02*
X121961841Y-68187014D01*
X121868103Y-67774566D02*
X121774364Y-68055781D01*
X121774364Y-68055781D02*
X122018084Y-68055781D01*
D11*
X36166666Y-43154819D02*
X36166666Y-43869104D01*
X36166666Y-43869104D02*
X36119047Y-44011961D01*
X36119047Y-44011961D02*
X36023809Y-44107200D01*
X36023809Y-44107200D02*
X35880952Y-44154819D01*
X35880952Y-44154819D02*
X35785714Y-44154819D01*
X37119047Y-43154819D02*
X36642857Y-43154819D01*
X36642857Y-43154819D02*
X36595238Y-43631009D01*
X36595238Y-43631009D02*
X36642857Y-43583390D01*
X36642857Y-43583390D02*
X36738095Y-43535771D01*
X36738095Y-43535771D02*
X36976190Y-43535771D01*
X36976190Y-43535771D02*
X37071428Y-43583390D01*
X37071428Y-43583390D02*
X37119047Y-43631009D01*
X37119047Y-43631009D02*
X37166666Y-43726247D01*
X37166666Y-43726247D02*
X37166666Y-43964342D01*
X37166666Y-43964342D02*
X37119047Y-44059580D01*
X37119047Y-44059580D02*
X37071428Y-44107200D01*
X37071428Y-44107200D02*
X36976190Y-44154819D01*
X36976190Y-44154819D02*
X36738095Y-44154819D01*
X36738095Y-44154819D02*
X36642857Y-44107200D01*
X36642857Y-44107200D02*
X36595238Y-44059580D01*
D12*
X142604519Y-100049092D02*
X142623267Y-100067840D01*
X142623267Y-100067840D02*
X142642014Y-100124083D01*
X142642014Y-100124083D02*
X142642014Y-100161578D01*
X142642014Y-100161578D02*
X142623267Y-100217821D01*
X142623267Y-100217821D02*
X142585771Y-100255317D01*
X142585771Y-100255317D02*
X142548276Y-100274064D01*
X142548276Y-100274064D02*
X142473285Y-100292812D01*
X142473285Y-100292812D02*
X142417042Y-100292812D01*
X142417042Y-100292812D02*
X142342052Y-100274064D01*
X142342052Y-100274064D02*
X142304556Y-100255317D01*
X142304556Y-100255317D02*
X142267061Y-100217821D01*
X142267061Y-100217821D02*
X142248313Y-100161578D01*
X142248313Y-100161578D02*
X142248313Y-100124083D01*
X142248313Y-100124083D02*
X142267061Y-100067840D01*
X142267061Y-100067840D02*
X142285809Y-100049092D01*
X142642014Y-99674139D02*
X142642014Y-99899111D01*
X142642014Y-99786625D02*
X142248313Y-99786625D01*
X142248313Y-99786625D02*
X142304556Y-99824120D01*
X142304556Y-99824120D02*
X142342052Y-99861616D01*
X142342052Y-99861616D02*
X142360799Y-99899111D01*
X142642014Y-99486663D02*
X142642014Y-99411672D01*
X142642014Y-99411672D02*
X142623267Y-99374177D01*
X142623267Y-99374177D02*
X142604519Y-99355429D01*
X142604519Y-99355429D02*
X142548276Y-99317934D01*
X142548276Y-99317934D02*
X142473285Y-99299186D01*
X142473285Y-99299186D02*
X142323304Y-99299186D01*
X142323304Y-99299186D02*
X142285809Y-99317934D01*
X142285809Y-99317934D02*
X142267061Y-99336681D01*
X142267061Y-99336681D02*
X142248313Y-99374177D01*
X142248313Y-99374177D02*
X142248313Y-99449167D01*
X142248313Y-99449167D02*
X142267061Y-99486663D01*
X142267061Y-99486663D02*
X142285809Y-99505410D01*
X142285809Y-99505410D02*
X142323304Y-99524158D01*
X142323304Y-99524158D02*
X142417042Y-99524158D01*
X142417042Y-99524158D02*
X142454538Y-99505410D01*
X142454538Y-99505410D02*
X142473285Y-99486663D01*
X142473285Y-99486663D02*
X142492033Y-99449167D01*
X142492033Y-99449167D02*
X142492033Y-99374177D01*
X142492033Y-99374177D02*
X142473285Y-99336681D01*
X142473285Y-99336681D02*
X142454538Y-99317934D01*
X142454538Y-99317934D02*
X142417042Y-99299186D01*
D11*
X84333333Y-57954819D02*
X83857143Y-57954819D01*
X83857143Y-57954819D02*
X83857143Y-56954819D01*
X84619048Y-57050057D02*
X84666667Y-57002438D01*
X84666667Y-57002438D02*
X84761905Y-56954819D01*
X84761905Y-56954819D02*
X85000000Y-56954819D01*
X85000000Y-56954819D02*
X85095238Y-57002438D01*
X85095238Y-57002438D02*
X85142857Y-57050057D01*
X85142857Y-57050057D02*
X85190476Y-57145295D01*
X85190476Y-57145295D02*
X85190476Y-57240533D01*
X85190476Y-57240533D02*
X85142857Y-57383390D01*
X85142857Y-57383390D02*
X84571429Y-57954819D01*
X84571429Y-57954819D02*
X85190476Y-57954819D01*
X177954819Y-95183333D02*
X178669104Y-95183333D01*
X178669104Y-95183333D02*
X178811961Y-95230952D01*
X178811961Y-95230952D02*
X178907200Y-95326190D01*
X178907200Y-95326190D02*
X178954819Y-95469047D01*
X178954819Y-95469047D02*
X178954819Y-95564285D01*
X177954819Y-94802380D02*
X177954819Y-94183333D01*
X177954819Y-94183333D02*
X178335771Y-94516666D01*
X178335771Y-94516666D02*
X178335771Y-94373809D01*
X178335771Y-94373809D02*
X178383390Y-94278571D01*
X178383390Y-94278571D02*
X178431009Y-94230952D01*
X178431009Y-94230952D02*
X178526247Y-94183333D01*
X178526247Y-94183333D02*
X178764342Y-94183333D01*
X178764342Y-94183333D02*
X178859580Y-94230952D01*
X178859580Y-94230952D02*
X178907200Y-94278571D01*
X178907200Y-94278571D02*
X178954819Y-94373809D01*
X178954819Y-94373809D02*
X178954819Y-94659523D01*
X178954819Y-94659523D02*
X178907200Y-94754761D01*
X178907200Y-94754761D02*
X178859580Y-94802380D01*
X133333333Y-57954819D02*
X132857143Y-57954819D01*
X132857143Y-57954819D02*
X132857143Y-56954819D01*
X134095238Y-57288152D02*
X134095238Y-57954819D01*
X133857143Y-56907200D02*
X133619048Y-57621485D01*
X133619048Y-57621485D02*
X134238095Y-57621485D01*
X185166666Y-53494819D02*
X185166666Y-54209104D01*
X185166666Y-54209104D02*
X185119047Y-54351961D01*
X185119047Y-54351961D02*
X185023809Y-54447200D01*
X185023809Y-54447200D02*
X184880952Y-54494819D01*
X184880952Y-54494819D02*
X184785714Y-54494819D01*
X185595238Y-53590057D02*
X185642857Y-53542438D01*
X185642857Y-53542438D02*
X185738095Y-53494819D01*
X185738095Y-53494819D02*
X185976190Y-53494819D01*
X185976190Y-53494819D02*
X186071428Y-53542438D01*
X186071428Y-53542438D02*
X186119047Y-53590057D01*
X186119047Y-53590057D02*
X186166666Y-53685295D01*
X186166666Y-53685295D02*
X186166666Y-53780533D01*
X186166666Y-53780533D02*
X186119047Y-53923390D01*
X186119047Y-53923390D02*
X185547619Y-54494819D01*
X185547619Y-54494819D02*
X186166666Y-54494819D01*
D12*
X95760907Y-67713519D02*
X95742159Y-67732267D01*
X95742159Y-67732267D02*
X95685916Y-67751014D01*
X95685916Y-67751014D02*
X95648421Y-67751014D01*
X95648421Y-67751014D02*
X95592178Y-67732267D01*
X95592178Y-67732267D02*
X95554683Y-67694771D01*
X95554683Y-67694771D02*
X95535935Y-67657276D01*
X95535935Y-67657276D02*
X95517187Y-67582285D01*
X95517187Y-67582285D02*
X95517187Y-67526042D01*
X95517187Y-67526042D02*
X95535935Y-67451052D01*
X95535935Y-67451052D02*
X95554683Y-67413556D01*
X95554683Y-67413556D02*
X95592178Y-67376061D01*
X95592178Y-67376061D02*
X95648421Y-67357313D01*
X95648421Y-67357313D02*
X95685916Y-67357313D01*
X95685916Y-67357313D02*
X95742159Y-67376061D01*
X95742159Y-67376061D02*
X95760907Y-67394809D01*
X96135860Y-67751014D02*
X95910888Y-67751014D01*
X96023374Y-67751014D02*
X96023374Y-67357313D01*
X96023374Y-67357313D02*
X95985879Y-67413556D01*
X95985879Y-67413556D02*
X95948384Y-67451052D01*
X95948384Y-67451052D02*
X95910888Y-67469799D01*
X96267094Y-67357313D02*
X96510813Y-67357313D01*
X96510813Y-67357313D02*
X96379580Y-67507295D01*
X96379580Y-67507295D02*
X96435823Y-67507295D01*
X96435823Y-67507295D02*
X96473318Y-67526042D01*
X96473318Y-67526042D02*
X96492066Y-67544790D01*
X96492066Y-67544790D02*
X96510813Y-67582285D01*
X96510813Y-67582285D02*
X96510813Y-67676024D01*
X96510813Y-67676024D02*
X96492066Y-67713519D01*
X96492066Y-67713519D02*
X96473318Y-67732267D01*
X96473318Y-67732267D02*
X96435823Y-67751014D01*
X96435823Y-67751014D02*
X96323337Y-67751014D01*
X96323337Y-67751014D02*
X96285841Y-67732267D01*
X96285841Y-67732267D02*
X96267094Y-67713519D01*
D11*
X151245833Y-99279819D02*
X150769643Y-99279819D01*
X150769643Y-99279819D02*
X150769643Y-98279819D01*
X152007738Y-98279819D02*
X151817262Y-98279819D01*
X151817262Y-98279819D02*
X151722024Y-98327438D01*
X151722024Y-98327438D02*
X151674405Y-98375057D01*
X151674405Y-98375057D02*
X151579167Y-98517914D01*
X151579167Y-98517914D02*
X151531548Y-98708390D01*
X151531548Y-98708390D02*
X151531548Y-99089342D01*
X151531548Y-99089342D02*
X151579167Y-99184580D01*
X151579167Y-99184580D02*
X151626786Y-99232200D01*
X151626786Y-99232200D02*
X151722024Y-99279819D01*
X151722024Y-99279819D02*
X151912500Y-99279819D01*
X151912500Y-99279819D02*
X152007738Y-99232200D01*
X152007738Y-99232200D02*
X152055357Y-99184580D01*
X152055357Y-99184580D02*
X152102976Y-99089342D01*
X152102976Y-99089342D02*
X152102976Y-98851247D01*
X152102976Y-98851247D02*
X152055357Y-98756009D01*
X152055357Y-98756009D02*
X152007738Y-98708390D01*
X152007738Y-98708390D02*
X151912500Y-98660771D01*
X151912500Y-98660771D02*
X151722024Y-98660771D01*
X151722024Y-98660771D02*
X151626786Y-98708390D01*
X151626786Y-98708390D02*
X151579167Y-98756009D01*
X151579167Y-98756009D02*
X151531548Y-98851247D01*
X185166666Y-43154819D02*
X185166666Y-43869104D01*
X185166666Y-43869104D02*
X185119047Y-44011961D01*
X185119047Y-44011961D02*
X185023809Y-44107200D01*
X185023809Y-44107200D02*
X184880952Y-44154819D01*
X184880952Y-44154819D02*
X184785714Y-44154819D01*
X185547619Y-43154819D02*
X186214285Y-43154819D01*
X186214285Y-43154819D02*
X185785714Y-44154819D01*
X128454819Y-98666666D02*
X128454819Y-99142856D01*
X128454819Y-99142856D02*
X127454819Y-99142856D01*
X127454819Y-98428570D02*
X127454819Y-97761904D01*
X127454819Y-97761904D02*
X128454819Y-98190475D01*
D12*
X50470383Y-66261519D02*
X50451635Y-66280267D01*
X50451635Y-66280267D02*
X50395392Y-66299014D01*
X50395392Y-66299014D02*
X50357897Y-66299014D01*
X50357897Y-66299014D02*
X50301654Y-66280267D01*
X50301654Y-66280267D02*
X50264159Y-66242771D01*
X50264159Y-66242771D02*
X50245411Y-66205276D01*
X50245411Y-66205276D02*
X50226663Y-66130285D01*
X50226663Y-66130285D02*
X50226663Y-66074042D01*
X50226663Y-66074042D02*
X50245411Y-65999052D01*
X50245411Y-65999052D02*
X50264159Y-65961556D01*
X50264159Y-65961556D02*
X50301654Y-65924061D01*
X50301654Y-65924061D02*
X50357897Y-65905313D01*
X50357897Y-65905313D02*
X50395392Y-65905313D01*
X50395392Y-65905313D02*
X50451635Y-65924061D01*
X50451635Y-65924061D02*
X50470383Y-65942809D01*
X50845336Y-66299014D02*
X50620364Y-66299014D01*
X50732850Y-66299014D02*
X50732850Y-65905313D01*
X50732850Y-65905313D02*
X50695355Y-65961556D01*
X50695355Y-65961556D02*
X50657860Y-65999052D01*
X50657860Y-65999052D02*
X50620364Y-66017799D01*
X83574519Y-101643616D02*
X83593267Y-101662364D01*
X83593267Y-101662364D02*
X83612014Y-101718607D01*
X83612014Y-101718607D02*
X83612014Y-101756102D01*
X83612014Y-101756102D02*
X83593267Y-101812345D01*
X83593267Y-101812345D02*
X83555771Y-101849841D01*
X83555771Y-101849841D02*
X83518276Y-101868588D01*
X83518276Y-101868588D02*
X83443285Y-101887336D01*
X83443285Y-101887336D02*
X83387042Y-101887336D01*
X83387042Y-101887336D02*
X83312052Y-101868588D01*
X83312052Y-101868588D02*
X83274556Y-101849841D01*
X83274556Y-101849841D02*
X83237061Y-101812345D01*
X83237061Y-101812345D02*
X83218313Y-101756102D01*
X83218313Y-101756102D02*
X83218313Y-101718607D01*
X83218313Y-101718607D02*
X83237061Y-101662364D01*
X83237061Y-101662364D02*
X83255809Y-101643616D01*
X83218313Y-101512383D02*
X83218313Y-101249915D01*
X83218313Y-101249915D02*
X83612014Y-101418644D01*
D11*
X77954819Y-98666666D02*
X77954819Y-99142856D01*
X77954819Y-99142856D02*
X76954819Y-99142856D01*
X77954819Y-98285713D02*
X77954819Y-98095237D01*
X77954819Y-98095237D02*
X77907200Y-97999999D01*
X77907200Y-97999999D02*
X77859580Y-97952380D01*
X77859580Y-97952380D02*
X77716723Y-97857142D01*
X77716723Y-97857142D02*
X77526247Y-97809523D01*
X77526247Y-97809523D02*
X77145295Y-97809523D01*
X77145295Y-97809523D02*
X77050057Y-97857142D01*
X77050057Y-97857142D02*
X77002438Y-97904761D01*
X77002438Y-97904761D02*
X76954819Y-97999999D01*
X76954819Y-97999999D02*
X76954819Y-98190475D01*
X76954819Y-98190475D02*
X77002438Y-98285713D01*
X77002438Y-98285713D02*
X77050057Y-98333332D01*
X77050057Y-98333332D02*
X77145295Y-98380951D01*
X77145295Y-98380951D02*
X77383390Y-98380951D01*
X77383390Y-98380951D02*
X77478628Y-98333332D01*
X77478628Y-98333332D02*
X77526247Y-98285713D01*
X77526247Y-98285713D02*
X77573866Y-98190475D01*
X77573866Y-98190475D02*
X77573866Y-97999999D01*
X77573866Y-97999999D02*
X77526247Y-97904761D01*
X77526247Y-97904761D02*
X77478628Y-97857142D01*
X77478628Y-97857142D02*
X77383390Y-97809523D01*
X184690476Y-75154819D02*
X184690476Y-75869104D01*
X184690476Y-75869104D02*
X184642857Y-76011961D01*
X184642857Y-76011961D02*
X184547619Y-76107200D01*
X184547619Y-76107200D02*
X184404762Y-76154819D01*
X184404762Y-76154819D02*
X184309524Y-76154819D01*
X185690476Y-76154819D02*
X185119048Y-76154819D01*
X185404762Y-76154819D02*
X185404762Y-75154819D01*
X185404762Y-75154819D02*
X185309524Y-75297676D01*
X185309524Y-75297676D02*
X185214286Y-75392914D01*
X185214286Y-75392914D02*
X185119048Y-75440533D01*
X186642857Y-76154819D02*
X186071429Y-76154819D01*
X186357143Y-76154819D02*
X186357143Y-75154819D01*
X186357143Y-75154819D02*
X186261905Y-75297676D01*
X186261905Y-75297676D02*
X186166667Y-75392914D01*
X186166667Y-75392914D02*
X186071429Y-75440533D01*
X133690476Y-75154819D02*
X133690476Y-75869104D01*
X133690476Y-75869104D02*
X133642857Y-76011961D01*
X133642857Y-76011961D02*
X133547619Y-76107200D01*
X133547619Y-76107200D02*
X133404762Y-76154819D01*
X133404762Y-76154819D02*
X133309524Y-76154819D01*
X134690476Y-76154819D02*
X134119048Y-76154819D01*
X134404762Y-76154819D02*
X134404762Y-75154819D01*
X134404762Y-75154819D02*
X134309524Y-75297676D01*
X134309524Y-75297676D02*
X134214286Y-75392914D01*
X134214286Y-75392914D02*
X134119048Y-75440533D01*
X135309524Y-75154819D02*
X135404762Y-75154819D01*
X135404762Y-75154819D02*
X135500000Y-75202438D01*
X135500000Y-75202438D02*
X135547619Y-75250057D01*
X135547619Y-75250057D02*
X135595238Y-75345295D01*
X135595238Y-75345295D02*
X135642857Y-75535771D01*
X135642857Y-75535771D02*
X135642857Y-75773866D01*
X135642857Y-75773866D02*
X135595238Y-75964342D01*
X135595238Y-75964342D02*
X135547619Y-76059580D01*
X135547619Y-76059580D02*
X135500000Y-76107200D01*
X135500000Y-76107200D02*
X135404762Y-76154819D01*
X135404762Y-76154819D02*
X135309524Y-76154819D01*
X135309524Y-76154819D02*
X135214286Y-76107200D01*
X135214286Y-76107200D02*
X135166667Y-76059580D01*
X135166667Y-76059580D02*
X135119048Y-75964342D01*
X135119048Y-75964342D02*
X135071429Y-75773866D01*
X135071429Y-75773866D02*
X135071429Y-75535771D01*
X135071429Y-75535771D02*
X135119048Y-75345295D01*
X135119048Y-75345295D02*
X135166667Y-75250057D01*
X135166667Y-75250057D02*
X135214286Y-75202438D01*
X135214286Y-75202438D02*
X135309524Y-75154819D01*
X50166666Y-75154819D02*
X50166666Y-75869104D01*
X50166666Y-75869104D02*
X50119047Y-76011961D01*
X50119047Y-76011961D02*
X50023809Y-76107200D01*
X50023809Y-76107200D02*
X49880952Y-76154819D01*
X49880952Y-76154819D02*
X49785714Y-76154819D01*
X50785714Y-75583390D02*
X50690476Y-75535771D01*
X50690476Y-75535771D02*
X50642857Y-75488152D01*
X50642857Y-75488152D02*
X50595238Y-75392914D01*
X50595238Y-75392914D02*
X50595238Y-75345295D01*
X50595238Y-75345295D02*
X50642857Y-75250057D01*
X50642857Y-75250057D02*
X50690476Y-75202438D01*
X50690476Y-75202438D02*
X50785714Y-75154819D01*
X50785714Y-75154819D02*
X50976190Y-75154819D01*
X50976190Y-75154819D02*
X51071428Y-75202438D01*
X51071428Y-75202438D02*
X51119047Y-75250057D01*
X51119047Y-75250057D02*
X51166666Y-75345295D01*
X51166666Y-75345295D02*
X51166666Y-75392914D01*
X51166666Y-75392914D02*
X51119047Y-75488152D01*
X51119047Y-75488152D02*
X51071428Y-75535771D01*
X51071428Y-75535771D02*
X50976190Y-75583390D01*
X50976190Y-75583390D02*
X50785714Y-75583390D01*
X50785714Y-75583390D02*
X50690476Y-75631009D01*
X50690476Y-75631009D02*
X50642857Y-75678628D01*
X50642857Y-75678628D02*
X50595238Y-75773866D01*
X50595238Y-75773866D02*
X50595238Y-75964342D01*
X50595238Y-75964342D02*
X50642857Y-76059580D01*
X50642857Y-76059580D02*
X50690476Y-76107200D01*
X50690476Y-76107200D02*
X50785714Y-76154819D01*
X50785714Y-76154819D02*
X50976190Y-76154819D01*
X50976190Y-76154819D02*
X51071428Y-76107200D01*
X51071428Y-76107200D02*
X51119047Y-76059580D01*
X51119047Y-76059580D02*
X51166666Y-75964342D01*
X51166666Y-75964342D02*
X51166666Y-75773866D01*
X51166666Y-75773866D02*
X51119047Y-75678628D01*
X51119047Y-75678628D02*
X51071428Y-75631009D01*
X51071428Y-75631009D02*
X50976190Y-75583390D01*
X101595833Y-98329819D02*
X101119643Y-98329819D01*
X101119643Y-98329819D02*
X101119643Y-97329819D01*
X102072024Y-97758390D02*
X101976786Y-97710771D01*
X101976786Y-97710771D02*
X101929167Y-97663152D01*
X101929167Y-97663152D02*
X101881548Y-97567914D01*
X101881548Y-97567914D02*
X101881548Y-97520295D01*
X101881548Y-97520295D02*
X101929167Y-97425057D01*
X101929167Y-97425057D02*
X101976786Y-97377438D01*
X101976786Y-97377438D02*
X102072024Y-97329819D01*
X102072024Y-97329819D02*
X102262500Y-97329819D01*
X102262500Y-97329819D02*
X102357738Y-97377438D01*
X102357738Y-97377438D02*
X102405357Y-97425057D01*
X102405357Y-97425057D02*
X102452976Y-97520295D01*
X102452976Y-97520295D02*
X102452976Y-97567914D01*
X102452976Y-97567914D02*
X102405357Y-97663152D01*
X102405357Y-97663152D02*
X102357738Y-97710771D01*
X102357738Y-97710771D02*
X102262500Y-97758390D01*
X102262500Y-97758390D02*
X102072024Y-97758390D01*
X102072024Y-97758390D02*
X101976786Y-97806009D01*
X101976786Y-97806009D02*
X101929167Y-97853628D01*
X101929167Y-97853628D02*
X101881548Y-97948866D01*
X101881548Y-97948866D02*
X101881548Y-98139342D01*
X101881548Y-98139342D02*
X101929167Y-98234580D01*
X101929167Y-98234580D02*
X101976786Y-98282200D01*
X101976786Y-98282200D02*
X102072024Y-98329819D01*
X102072024Y-98329819D02*
X102262500Y-98329819D01*
X102262500Y-98329819D02*
X102357738Y-98282200D01*
X102357738Y-98282200D02*
X102405357Y-98234580D01*
X102405357Y-98234580D02*
X102452976Y-98139342D01*
X102452976Y-98139342D02*
X102452976Y-97948866D01*
X102452976Y-97948866D02*
X102405357Y-97853628D01*
X102405357Y-97853628D02*
X102357738Y-97806009D01*
X102357738Y-97806009D02*
X102262500Y-97758390D01*
D12*
X146132907Y-67774519D02*
X146114159Y-67793267D01*
X146114159Y-67793267D02*
X146057916Y-67812014D01*
X146057916Y-67812014D02*
X146020421Y-67812014D01*
X146020421Y-67812014D02*
X145964178Y-67793267D01*
X145964178Y-67793267D02*
X145926683Y-67755771D01*
X145926683Y-67755771D02*
X145907935Y-67718276D01*
X145907935Y-67718276D02*
X145889187Y-67643285D01*
X145889187Y-67643285D02*
X145889187Y-67587042D01*
X145889187Y-67587042D02*
X145907935Y-67512052D01*
X145907935Y-67512052D02*
X145926683Y-67474556D01*
X145926683Y-67474556D02*
X145964178Y-67437061D01*
X145964178Y-67437061D02*
X146020421Y-67418313D01*
X146020421Y-67418313D02*
X146057916Y-67418313D01*
X146057916Y-67418313D02*
X146114159Y-67437061D01*
X146114159Y-67437061D02*
X146132907Y-67455809D01*
X146507860Y-67812014D02*
X146282888Y-67812014D01*
X146395374Y-67812014D02*
X146395374Y-67418313D01*
X146395374Y-67418313D02*
X146357879Y-67474556D01*
X146357879Y-67474556D02*
X146320384Y-67512052D01*
X146320384Y-67512052D02*
X146282888Y-67530799D01*
X146864066Y-67418313D02*
X146676589Y-67418313D01*
X146676589Y-67418313D02*
X146657841Y-67605790D01*
X146657841Y-67605790D02*
X146676589Y-67587042D01*
X146676589Y-67587042D02*
X146714084Y-67568295D01*
X146714084Y-67568295D02*
X146807823Y-67568295D01*
X146807823Y-67568295D02*
X146845318Y-67587042D01*
X146845318Y-67587042D02*
X146864066Y-67605790D01*
X146864066Y-67605790D02*
X146882813Y-67643285D01*
X146882813Y-67643285D02*
X146882813Y-67737024D01*
X146882813Y-67737024D02*
X146864066Y-67774519D01*
X146864066Y-67774519D02*
X146845318Y-67793267D01*
X146845318Y-67793267D02*
X146807823Y-67812014D01*
X146807823Y-67812014D02*
X146714084Y-67812014D01*
X146714084Y-67812014D02*
X146676589Y-67793267D01*
X146676589Y-67793267D02*
X146657841Y-67774519D01*
X172229519Y-99667092D02*
X172248267Y-99685840D01*
X172248267Y-99685840D02*
X172267014Y-99742083D01*
X172267014Y-99742083D02*
X172267014Y-99779578D01*
X172267014Y-99779578D02*
X172248267Y-99835821D01*
X172248267Y-99835821D02*
X172210771Y-99873317D01*
X172210771Y-99873317D02*
X172173276Y-99892064D01*
X172173276Y-99892064D02*
X172098285Y-99910812D01*
X172098285Y-99910812D02*
X172042042Y-99910812D01*
X172042042Y-99910812D02*
X171967052Y-99892064D01*
X171967052Y-99892064D02*
X171929556Y-99873317D01*
X171929556Y-99873317D02*
X171892061Y-99835821D01*
X171892061Y-99835821D02*
X171873313Y-99779578D01*
X171873313Y-99779578D02*
X171873313Y-99742083D01*
X171873313Y-99742083D02*
X171892061Y-99685840D01*
X171892061Y-99685840D02*
X171910809Y-99667092D01*
X171910809Y-99517111D02*
X171892061Y-99498363D01*
X171892061Y-99498363D02*
X171873313Y-99460868D01*
X171873313Y-99460868D02*
X171873313Y-99367130D01*
X171873313Y-99367130D02*
X171892061Y-99329634D01*
X171892061Y-99329634D02*
X171910809Y-99310887D01*
X171910809Y-99310887D02*
X171948304Y-99292139D01*
X171948304Y-99292139D02*
X171985799Y-99292139D01*
X171985799Y-99292139D02*
X172042042Y-99310887D01*
X172042042Y-99310887D02*
X172267014Y-99535859D01*
X172267014Y-99535859D02*
X172267014Y-99292139D01*
X171873313Y-99048420D02*
X171873313Y-99010924D01*
X171873313Y-99010924D02*
X171892061Y-98973429D01*
X171892061Y-98973429D02*
X171910809Y-98954681D01*
X171910809Y-98954681D02*
X171948304Y-98935934D01*
X171948304Y-98935934D02*
X172023295Y-98917186D01*
X172023295Y-98917186D02*
X172117033Y-98917186D01*
X172117033Y-98917186D02*
X172192024Y-98935934D01*
X172192024Y-98935934D02*
X172229519Y-98954681D01*
X172229519Y-98954681D02*
X172248267Y-98973429D01*
X172248267Y-98973429D02*
X172267014Y-99010924D01*
X172267014Y-99010924D02*
X172267014Y-99048420D01*
X172267014Y-99048420D02*
X172248267Y-99085915D01*
X172248267Y-99085915D02*
X172229519Y-99104663D01*
X172229519Y-99104663D02*
X172192024Y-99123410D01*
X172192024Y-99123410D02*
X172117033Y-99142158D01*
X172117033Y-99142158D02*
X172023295Y-99142158D01*
X172023295Y-99142158D02*
X171948304Y-99123410D01*
X171948304Y-99123410D02*
X171910809Y-99104663D01*
X171910809Y-99104663D02*
X171892061Y-99085915D01*
X171892061Y-99085915D02*
X171873313Y-99048420D01*
X50192907Y-70461519D02*
X50174159Y-70480267D01*
X50174159Y-70480267D02*
X50117916Y-70499014D01*
X50117916Y-70499014D02*
X50080421Y-70499014D01*
X50080421Y-70499014D02*
X50024178Y-70480267D01*
X50024178Y-70480267D02*
X49986683Y-70442771D01*
X49986683Y-70442771D02*
X49967935Y-70405276D01*
X49967935Y-70405276D02*
X49949187Y-70330285D01*
X49949187Y-70330285D02*
X49949187Y-70274042D01*
X49949187Y-70274042D02*
X49967935Y-70199052D01*
X49967935Y-70199052D02*
X49986683Y-70161556D01*
X49986683Y-70161556D02*
X50024178Y-70124061D01*
X50024178Y-70124061D02*
X50080421Y-70105313D01*
X50080421Y-70105313D02*
X50117916Y-70105313D01*
X50117916Y-70105313D02*
X50174159Y-70124061D01*
X50174159Y-70124061D02*
X50192907Y-70142809D01*
X50567860Y-70499014D02*
X50342888Y-70499014D01*
X50455374Y-70499014D02*
X50455374Y-70105313D01*
X50455374Y-70105313D02*
X50417879Y-70161556D01*
X50417879Y-70161556D02*
X50380384Y-70199052D01*
X50380384Y-70199052D02*
X50342888Y-70217799D01*
X50942813Y-70499014D02*
X50717841Y-70499014D01*
X50830327Y-70499014D02*
X50830327Y-70105313D01*
X50830327Y-70105313D02*
X50792832Y-70161556D01*
X50792832Y-70161556D02*
X50755337Y-70199052D01*
X50755337Y-70199052D02*
X50717841Y-70217799D01*
D11*
X60954819Y-60666666D02*
X60954819Y-61142856D01*
X60954819Y-61142856D02*
X59954819Y-61142856D01*
X60954819Y-59809523D02*
X60954819Y-60380951D01*
X60954819Y-60095237D02*
X59954819Y-60095237D01*
X59954819Y-60095237D02*
X60097676Y-60190475D01*
X60097676Y-60190475D02*
X60192914Y-60285713D01*
X60192914Y-60285713D02*
X60240533Y-60380951D01*
X42354819Y-80443333D02*
X43069104Y-80443333D01*
X43069104Y-80443333D02*
X43211961Y-80490952D01*
X43211961Y-80490952D02*
X43307200Y-80586190D01*
X43307200Y-80586190D02*
X43354819Y-80729047D01*
X43354819Y-80729047D02*
X43354819Y-80824285D01*
X43354819Y-79443333D02*
X43354819Y-80014761D01*
X43354819Y-79729047D02*
X42354819Y-79729047D01*
X42354819Y-79729047D02*
X42497676Y-79824285D01*
X42497676Y-79824285D02*
X42592914Y-79919523D01*
X42592914Y-79919523D02*
X42640533Y-80014761D01*
D12*
X146395383Y-63199519D02*
X146376635Y-63218267D01*
X146376635Y-63218267D02*
X146320392Y-63237014D01*
X146320392Y-63237014D02*
X146282897Y-63237014D01*
X146282897Y-63237014D02*
X146226654Y-63218267D01*
X146226654Y-63218267D02*
X146189159Y-63180771D01*
X146189159Y-63180771D02*
X146170411Y-63143276D01*
X146170411Y-63143276D02*
X146151663Y-63068285D01*
X146151663Y-63068285D02*
X146151663Y-63012042D01*
X146151663Y-63012042D02*
X146170411Y-62937052D01*
X146170411Y-62937052D02*
X146189159Y-62899556D01*
X146189159Y-62899556D02*
X146226654Y-62862061D01*
X146226654Y-62862061D02*
X146282897Y-62843313D01*
X146282897Y-62843313D02*
X146320392Y-62843313D01*
X146320392Y-62843313D02*
X146376635Y-62862061D01*
X146376635Y-62862061D02*
X146395383Y-62880809D01*
X146751589Y-62843313D02*
X146564112Y-62843313D01*
X146564112Y-62843313D02*
X146545364Y-63030790D01*
X146545364Y-63030790D02*
X146564112Y-63012042D01*
X146564112Y-63012042D02*
X146601607Y-62993295D01*
X146601607Y-62993295D02*
X146695346Y-62993295D01*
X146695346Y-62993295D02*
X146732841Y-63012042D01*
X146732841Y-63012042D02*
X146751589Y-63030790D01*
X146751589Y-63030790D02*
X146770336Y-63068285D01*
X146770336Y-63068285D02*
X146770336Y-63162024D01*
X146770336Y-63162024D02*
X146751589Y-63199519D01*
X146751589Y-63199519D02*
X146732841Y-63218267D01*
X146732841Y-63218267D02*
X146695346Y-63237014D01*
X146695346Y-63237014D02*
X146601607Y-63237014D01*
X146601607Y-63237014D02*
X146564112Y-63218267D01*
X146564112Y-63218267D02*
X146545364Y-63199519D01*
X162974519Y-101628092D02*
X162993267Y-101646840D01*
X162993267Y-101646840D02*
X163012014Y-101703083D01*
X163012014Y-101703083D02*
X163012014Y-101740578D01*
X163012014Y-101740578D02*
X162993267Y-101796821D01*
X162993267Y-101796821D02*
X162955771Y-101834317D01*
X162955771Y-101834317D02*
X162918276Y-101853064D01*
X162918276Y-101853064D02*
X162843285Y-101871812D01*
X162843285Y-101871812D02*
X162787042Y-101871812D01*
X162787042Y-101871812D02*
X162712052Y-101853064D01*
X162712052Y-101853064D02*
X162674556Y-101834317D01*
X162674556Y-101834317D02*
X162637061Y-101796821D01*
X162637061Y-101796821D02*
X162618313Y-101740578D01*
X162618313Y-101740578D02*
X162618313Y-101703083D01*
X162618313Y-101703083D02*
X162637061Y-101646840D01*
X162637061Y-101646840D02*
X162655809Y-101628092D01*
X163012014Y-101253139D02*
X163012014Y-101478111D01*
X163012014Y-101365625D02*
X162618313Y-101365625D01*
X162618313Y-101365625D02*
X162674556Y-101403120D01*
X162674556Y-101403120D02*
X162712052Y-101440616D01*
X162712052Y-101440616D02*
X162730799Y-101478111D01*
X162618313Y-101009420D02*
X162618313Y-100971924D01*
X162618313Y-100971924D02*
X162637061Y-100934429D01*
X162637061Y-100934429D02*
X162655809Y-100915681D01*
X162655809Y-100915681D02*
X162693304Y-100896934D01*
X162693304Y-100896934D02*
X162768295Y-100878186D01*
X162768295Y-100878186D02*
X162862033Y-100878186D01*
X162862033Y-100878186D02*
X162937024Y-100896934D01*
X162937024Y-100896934D02*
X162974519Y-100915681D01*
X162974519Y-100915681D02*
X162993267Y-100934429D01*
X162993267Y-100934429D02*
X163012014Y-100971924D01*
X163012014Y-100971924D02*
X163012014Y-101009420D01*
X163012014Y-101009420D02*
X162993267Y-101046915D01*
X162993267Y-101046915D02*
X162974519Y-101065663D01*
X162974519Y-101065663D02*
X162937024Y-101084410D01*
X162937024Y-101084410D02*
X162862033Y-101103158D01*
X162862033Y-101103158D02*
X162768295Y-101103158D01*
X162768295Y-101103158D02*
X162693304Y-101084410D01*
X162693304Y-101084410D02*
X162655809Y-101065663D01*
X162655809Y-101065663D02*
X162637061Y-101046915D01*
X162637061Y-101046915D02*
X162618313Y-101009420D01*
D11*
X185166666Y-107154819D02*
X185166666Y-107869104D01*
X185166666Y-107869104D02*
X185119047Y-108011961D01*
X185119047Y-108011961D02*
X185023809Y-108107200D01*
X185023809Y-108107200D02*
X184880952Y-108154819D01*
X184880952Y-108154819D02*
X184785714Y-108154819D01*
X186071428Y-107154819D02*
X185880952Y-107154819D01*
X185880952Y-107154819D02*
X185785714Y-107202438D01*
X185785714Y-107202438D02*
X185738095Y-107250057D01*
X185738095Y-107250057D02*
X185642857Y-107392914D01*
X185642857Y-107392914D02*
X185595238Y-107583390D01*
X185595238Y-107583390D02*
X185595238Y-107964342D01*
X185595238Y-107964342D02*
X185642857Y-108059580D01*
X185642857Y-108059580D02*
X185690476Y-108107200D01*
X185690476Y-108107200D02*
X185785714Y-108154819D01*
X185785714Y-108154819D02*
X185976190Y-108154819D01*
X185976190Y-108154819D02*
X186071428Y-108107200D01*
X186071428Y-108107200D02*
X186119047Y-108059580D01*
X186119047Y-108059580D02*
X186166666Y-107964342D01*
X186166666Y-107964342D02*
X186166666Y-107726247D01*
X186166666Y-107726247D02*
X186119047Y-107631009D01*
X186119047Y-107631009D02*
X186071428Y-107583390D01*
X186071428Y-107583390D02*
X185976190Y-107535771D01*
X185976190Y-107535771D02*
X185785714Y-107535771D01*
X185785714Y-107535771D02*
X185690476Y-107583390D01*
X185690476Y-107583390D02*
X185642857Y-107631009D01*
X185642857Y-107631009D02*
X185595238Y-107726247D01*
D12*
X71574383Y-68149519D02*
X71555635Y-68168267D01*
X71555635Y-68168267D02*
X71499392Y-68187014D01*
X71499392Y-68187014D02*
X71461897Y-68187014D01*
X71461897Y-68187014D02*
X71405654Y-68168267D01*
X71405654Y-68168267D02*
X71368159Y-68130771D01*
X71368159Y-68130771D02*
X71349411Y-68093276D01*
X71349411Y-68093276D02*
X71330663Y-68018285D01*
X71330663Y-68018285D02*
X71330663Y-67962042D01*
X71330663Y-67962042D02*
X71349411Y-67887052D01*
X71349411Y-67887052D02*
X71368159Y-67849556D01*
X71368159Y-67849556D02*
X71405654Y-67812061D01*
X71405654Y-67812061D02*
X71461897Y-67793313D01*
X71461897Y-67793313D02*
X71499392Y-67793313D01*
X71499392Y-67793313D02*
X71555635Y-67812061D01*
X71555635Y-67812061D02*
X71574383Y-67830809D01*
X71724364Y-67830809D02*
X71743112Y-67812061D01*
X71743112Y-67812061D02*
X71780607Y-67793313D01*
X71780607Y-67793313D02*
X71874346Y-67793313D01*
X71874346Y-67793313D02*
X71911841Y-67812061D01*
X71911841Y-67812061D02*
X71930589Y-67830809D01*
X71930589Y-67830809D02*
X71949336Y-67868304D01*
X71949336Y-67868304D02*
X71949336Y-67905799D01*
X71949336Y-67905799D02*
X71930589Y-67962042D01*
X71930589Y-67962042D02*
X71705617Y-68187014D01*
X71705617Y-68187014D02*
X71949336Y-68187014D01*
X121904519Y-100003092D02*
X121923267Y-100021840D01*
X121923267Y-100021840D02*
X121942014Y-100078083D01*
X121942014Y-100078083D02*
X121942014Y-100115578D01*
X121942014Y-100115578D02*
X121923267Y-100171821D01*
X121923267Y-100171821D02*
X121885771Y-100209317D01*
X121885771Y-100209317D02*
X121848276Y-100228064D01*
X121848276Y-100228064D02*
X121773285Y-100246812D01*
X121773285Y-100246812D02*
X121717042Y-100246812D01*
X121717042Y-100246812D02*
X121642052Y-100228064D01*
X121642052Y-100228064D02*
X121604556Y-100209317D01*
X121604556Y-100209317D02*
X121567061Y-100171821D01*
X121567061Y-100171821D02*
X121548313Y-100115578D01*
X121548313Y-100115578D02*
X121548313Y-100078083D01*
X121548313Y-100078083D02*
X121567061Y-100021840D01*
X121567061Y-100021840D02*
X121585809Y-100003092D01*
X121942014Y-99628139D02*
X121942014Y-99853111D01*
X121942014Y-99740625D02*
X121548313Y-99740625D01*
X121548313Y-99740625D02*
X121604556Y-99778120D01*
X121604556Y-99778120D02*
X121642052Y-99815616D01*
X121642052Y-99815616D02*
X121660799Y-99853111D01*
X121717042Y-99403167D02*
X121698295Y-99440663D01*
X121698295Y-99440663D02*
X121679547Y-99459410D01*
X121679547Y-99459410D02*
X121642052Y-99478158D01*
X121642052Y-99478158D02*
X121623304Y-99478158D01*
X121623304Y-99478158D02*
X121585809Y-99459410D01*
X121585809Y-99459410D02*
X121567061Y-99440663D01*
X121567061Y-99440663D02*
X121548313Y-99403167D01*
X121548313Y-99403167D02*
X121548313Y-99328177D01*
X121548313Y-99328177D02*
X121567061Y-99290681D01*
X121567061Y-99290681D02*
X121585809Y-99271934D01*
X121585809Y-99271934D02*
X121623304Y-99253186D01*
X121623304Y-99253186D02*
X121642052Y-99253186D01*
X121642052Y-99253186D02*
X121679547Y-99271934D01*
X121679547Y-99271934D02*
X121698295Y-99290681D01*
X121698295Y-99290681D02*
X121717042Y-99328177D01*
X121717042Y-99328177D02*
X121717042Y-99403167D01*
X121717042Y-99403167D02*
X121735790Y-99440663D01*
X121735790Y-99440663D02*
X121754538Y-99459410D01*
X121754538Y-99459410D02*
X121792033Y-99478158D01*
X121792033Y-99478158D02*
X121867024Y-99478158D01*
X121867024Y-99478158D02*
X121904519Y-99459410D01*
X121904519Y-99459410D02*
X121923267Y-99440663D01*
X121923267Y-99440663D02*
X121942014Y-99403167D01*
X121942014Y-99403167D02*
X121942014Y-99328177D01*
X121942014Y-99328177D02*
X121923267Y-99290681D01*
X121923267Y-99290681D02*
X121904519Y-99271934D01*
X121904519Y-99271934D02*
X121867024Y-99253186D01*
X121867024Y-99253186D02*
X121792033Y-99253186D01*
X121792033Y-99253186D02*
X121754538Y-99271934D01*
X121754538Y-99271934D02*
X121735790Y-99290681D01*
X121735790Y-99290681D02*
X121717042Y-99328177D01*
X112724519Y-101615616D02*
X112743267Y-101634364D01*
X112743267Y-101634364D02*
X112762014Y-101690607D01*
X112762014Y-101690607D02*
X112762014Y-101728102D01*
X112762014Y-101728102D02*
X112743267Y-101784345D01*
X112743267Y-101784345D02*
X112705771Y-101821841D01*
X112705771Y-101821841D02*
X112668276Y-101840588D01*
X112668276Y-101840588D02*
X112593285Y-101859336D01*
X112593285Y-101859336D02*
X112537042Y-101859336D01*
X112537042Y-101859336D02*
X112462052Y-101840588D01*
X112462052Y-101840588D02*
X112424556Y-101821841D01*
X112424556Y-101821841D02*
X112387061Y-101784345D01*
X112387061Y-101784345D02*
X112368313Y-101728102D01*
X112368313Y-101728102D02*
X112368313Y-101690607D01*
X112368313Y-101690607D02*
X112387061Y-101634364D01*
X112387061Y-101634364D02*
X112405809Y-101615616D01*
X112537042Y-101390644D02*
X112518295Y-101428140D01*
X112518295Y-101428140D02*
X112499547Y-101446887D01*
X112499547Y-101446887D02*
X112462052Y-101465635D01*
X112462052Y-101465635D02*
X112443304Y-101465635D01*
X112443304Y-101465635D02*
X112405809Y-101446887D01*
X112405809Y-101446887D02*
X112387061Y-101428140D01*
X112387061Y-101428140D02*
X112368313Y-101390644D01*
X112368313Y-101390644D02*
X112368313Y-101315654D01*
X112368313Y-101315654D02*
X112387061Y-101278158D01*
X112387061Y-101278158D02*
X112405809Y-101259411D01*
X112405809Y-101259411D02*
X112443304Y-101240663D01*
X112443304Y-101240663D02*
X112462052Y-101240663D01*
X112462052Y-101240663D02*
X112499547Y-101259411D01*
X112499547Y-101259411D02*
X112518295Y-101278158D01*
X112518295Y-101278158D02*
X112537042Y-101315654D01*
X112537042Y-101315654D02*
X112537042Y-101390644D01*
X112537042Y-101390644D02*
X112555790Y-101428140D01*
X112555790Y-101428140D02*
X112574538Y-101446887D01*
X112574538Y-101446887D02*
X112612033Y-101465635D01*
X112612033Y-101465635D02*
X112687024Y-101465635D01*
X112687024Y-101465635D02*
X112724519Y-101446887D01*
X112724519Y-101446887D02*
X112743267Y-101428140D01*
X112743267Y-101428140D02*
X112762014Y-101390644D01*
X112762014Y-101390644D02*
X112762014Y-101315654D01*
X112762014Y-101315654D02*
X112743267Y-101278158D01*
X112743267Y-101278158D02*
X112724519Y-101259411D01*
X112724519Y-101259411D02*
X112687024Y-101240663D01*
X112687024Y-101240663D02*
X112612033Y-101240663D01*
X112612033Y-101240663D02*
X112574538Y-101259411D01*
X112574538Y-101259411D02*
X112555790Y-101278158D01*
X112555790Y-101278158D02*
X112537042Y-101315654D01*
X133449519Y-101840616D02*
X133468267Y-101859364D01*
X133468267Y-101859364D02*
X133487014Y-101915607D01*
X133487014Y-101915607D02*
X133487014Y-101953102D01*
X133487014Y-101953102D02*
X133468267Y-102009345D01*
X133468267Y-102009345D02*
X133430771Y-102046841D01*
X133430771Y-102046841D02*
X133393276Y-102065588D01*
X133393276Y-102065588D02*
X133318285Y-102084336D01*
X133318285Y-102084336D02*
X133262042Y-102084336D01*
X133262042Y-102084336D02*
X133187052Y-102065588D01*
X133187052Y-102065588D02*
X133149556Y-102046841D01*
X133149556Y-102046841D02*
X133112061Y-102009345D01*
X133112061Y-102009345D02*
X133093313Y-101953102D01*
X133093313Y-101953102D02*
X133093313Y-101915607D01*
X133093313Y-101915607D02*
X133112061Y-101859364D01*
X133112061Y-101859364D02*
X133130809Y-101840616D01*
X133487014Y-101653140D02*
X133487014Y-101578149D01*
X133487014Y-101578149D02*
X133468267Y-101540654D01*
X133468267Y-101540654D02*
X133449519Y-101521906D01*
X133449519Y-101521906D02*
X133393276Y-101484411D01*
X133393276Y-101484411D02*
X133318285Y-101465663D01*
X133318285Y-101465663D02*
X133168304Y-101465663D01*
X133168304Y-101465663D02*
X133130809Y-101484411D01*
X133130809Y-101484411D02*
X133112061Y-101503158D01*
X133112061Y-101503158D02*
X133093313Y-101540654D01*
X133093313Y-101540654D02*
X133093313Y-101615644D01*
X133093313Y-101615644D02*
X133112061Y-101653140D01*
X133112061Y-101653140D02*
X133130809Y-101671887D01*
X133130809Y-101671887D02*
X133168304Y-101690635D01*
X133168304Y-101690635D02*
X133262042Y-101690635D01*
X133262042Y-101690635D02*
X133299538Y-101671887D01*
X133299538Y-101671887D02*
X133318285Y-101653140D01*
X133318285Y-101653140D02*
X133337033Y-101615644D01*
X133337033Y-101615644D02*
X133337033Y-101540654D01*
X133337033Y-101540654D02*
X133318285Y-101503158D01*
X133318285Y-101503158D02*
X133299538Y-101484411D01*
X133299538Y-101484411D02*
X133262042Y-101465663D01*
X71482907Y-63749519D02*
X71464159Y-63768267D01*
X71464159Y-63768267D02*
X71407916Y-63787014D01*
X71407916Y-63787014D02*
X71370421Y-63787014D01*
X71370421Y-63787014D02*
X71314178Y-63768267D01*
X71314178Y-63768267D02*
X71276683Y-63730771D01*
X71276683Y-63730771D02*
X71257935Y-63693276D01*
X71257935Y-63693276D02*
X71239187Y-63618285D01*
X71239187Y-63618285D02*
X71239187Y-63562042D01*
X71239187Y-63562042D02*
X71257935Y-63487052D01*
X71257935Y-63487052D02*
X71276683Y-63449556D01*
X71276683Y-63449556D02*
X71314178Y-63412061D01*
X71314178Y-63412061D02*
X71370421Y-63393313D01*
X71370421Y-63393313D02*
X71407916Y-63393313D01*
X71407916Y-63393313D02*
X71464159Y-63412061D01*
X71464159Y-63412061D02*
X71482907Y-63430809D01*
X71857860Y-63787014D02*
X71632888Y-63787014D01*
X71745374Y-63787014D02*
X71745374Y-63393313D01*
X71745374Y-63393313D02*
X71707879Y-63449556D01*
X71707879Y-63449556D02*
X71670384Y-63487052D01*
X71670384Y-63487052D02*
X71632888Y-63505799D01*
X72007841Y-63430809D02*
X72026589Y-63412061D01*
X72026589Y-63412061D02*
X72064084Y-63393313D01*
X72064084Y-63393313D02*
X72157823Y-63393313D01*
X72157823Y-63393313D02*
X72195318Y-63412061D01*
X72195318Y-63412061D02*
X72214066Y-63430809D01*
X72214066Y-63430809D02*
X72232813Y-63468304D01*
X72232813Y-63468304D02*
X72232813Y-63505799D01*
X72232813Y-63505799D02*
X72214066Y-63562042D01*
X72214066Y-63562042D02*
X71989094Y-63787014D01*
X71989094Y-63787014D02*
X72232813Y-63787014D01*
D11*
X158954819Y-59666666D02*
X158954819Y-60142856D01*
X158954819Y-60142856D02*
X157954819Y-60142856D01*
X157954819Y-58857142D02*
X157954819Y-59333332D01*
X157954819Y-59333332D02*
X158431009Y-59380951D01*
X158431009Y-59380951D02*
X158383390Y-59333332D01*
X158383390Y-59333332D02*
X158335771Y-59238094D01*
X158335771Y-59238094D02*
X158335771Y-58999999D01*
X158335771Y-58999999D02*
X158383390Y-58904761D01*
X158383390Y-58904761D02*
X158431009Y-58857142D01*
X158431009Y-58857142D02*
X158526247Y-58809523D01*
X158526247Y-58809523D02*
X158764342Y-58809523D01*
X158764342Y-58809523D02*
X158859580Y-58857142D01*
X158859580Y-58857142D02*
X158907200Y-58904761D01*
X158907200Y-58904761D02*
X158954819Y-58999999D01*
X158954819Y-58999999D02*
X158954819Y-59238094D01*
X158954819Y-59238094D02*
X158907200Y-59333332D01*
X158907200Y-59333332D02*
X158859580Y-59380951D01*
D12*
X69939519Y-100564092D02*
X69958267Y-100582840D01*
X69958267Y-100582840D02*
X69977014Y-100639083D01*
X69977014Y-100639083D02*
X69977014Y-100676578D01*
X69977014Y-100676578D02*
X69958267Y-100732821D01*
X69958267Y-100732821D02*
X69920771Y-100770317D01*
X69920771Y-100770317D02*
X69883276Y-100789064D01*
X69883276Y-100789064D02*
X69808285Y-100807812D01*
X69808285Y-100807812D02*
X69752042Y-100807812D01*
X69752042Y-100807812D02*
X69677052Y-100789064D01*
X69677052Y-100789064D02*
X69639556Y-100770317D01*
X69639556Y-100770317D02*
X69602061Y-100732821D01*
X69602061Y-100732821D02*
X69583313Y-100676578D01*
X69583313Y-100676578D02*
X69583313Y-100639083D01*
X69583313Y-100639083D02*
X69602061Y-100582840D01*
X69602061Y-100582840D02*
X69620809Y-100564092D01*
X69977014Y-100189139D02*
X69977014Y-100414111D01*
X69977014Y-100301625D02*
X69583313Y-100301625D01*
X69583313Y-100301625D02*
X69639556Y-100339120D01*
X69639556Y-100339120D02*
X69677052Y-100376616D01*
X69677052Y-100376616D02*
X69695799Y-100414111D01*
X69583313Y-99851681D02*
X69583313Y-99926672D01*
X69583313Y-99926672D02*
X69602061Y-99964167D01*
X69602061Y-99964167D02*
X69620809Y-99982915D01*
X69620809Y-99982915D02*
X69677052Y-100020410D01*
X69677052Y-100020410D02*
X69752042Y-100039158D01*
X69752042Y-100039158D02*
X69902024Y-100039158D01*
X69902024Y-100039158D02*
X69939519Y-100020410D01*
X69939519Y-100020410D02*
X69958267Y-100001663D01*
X69958267Y-100001663D02*
X69977014Y-99964167D01*
X69977014Y-99964167D02*
X69977014Y-99889177D01*
X69977014Y-99889177D02*
X69958267Y-99851681D01*
X69958267Y-99851681D02*
X69939519Y-99832934D01*
X69939519Y-99832934D02*
X69902024Y-99814186D01*
X69902024Y-99814186D02*
X69808285Y-99814186D01*
X69808285Y-99814186D02*
X69770790Y-99832934D01*
X69770790Y-99832934D02*
X69752042Y-99851681D01*
X69752042Y-99851681D02*
X69733295Y-99889177D01*
X69733295Y-99889177D02*
X69733295Y-99964167D01*
X69733295Y-99964167D02*
X69752042Y-100001663D01*
X69752042Y-100001663D02*
X69770790Y-100020410D01*
X69770790Y-100020410D02*
X69808285Y-100039158D01*
D11*
X110954819Y-60666666D02*
X110954819Y-61142856D01*
X110954819Y-61142856D02*
X109954819Y-61142856D01*
X109954819Y-60428570D02*
X109954819Y-59809523D01*
X109954819Y-59809523D02*
X110335771Y-60142856D01*
X110335771Y-60142856D02*
X110335771Y-59999999D01*
X110335771Y-59999999D02*
X110383390Y-59904761D01*
X110383390Y-59904761D02*
X110431009Y-59857142D01*
X110431009Y-59857142D02*
X110526247Y-59809523D01*
X110526247Y-59809523D02*
X110764342Y-59809523D01*
X110764342Y-59809523D02*
X110859580Y-59857142D01*
X110859580Y-59857142D02*
X110907200Y-59904761D01*
X110907200Y-59904761D02*
X110954819Y-59999999D01*
X110954819Y-59999999D02*
X110954819Y-60285713D01*
X110954819Y-60285713D02*
X110907200Y-60380951D01*
X110907200Y-60380951D02*
X110859580Y-60428570D01*
D12*
X95963383Y-63278519D02*
X95944635Y-63297267D01*
X95944635Y-63297267D02*
X95888392Y-63316014D01*
X95888392Y-63316014D02*
X95850897Y-63316014D01*
X95850897Y-63316014D02*
X95794654Y-63297267D01*
X95794654Y-63297267D02*
X95757159Y-63259771D01*
X95757159Y-63259771D02*
X95738411Y-63222276D01*
X95738411Y-63222276D02*
X95719663Y-63147285D01*
X95719663Y-63147285D02*
X95719663Y-63091042D01*
X95719663Y-63091042D02*
X95738411Y-63016052D01*
X95738411Y-63016052D02*
X95757159Y-62978556D01*
X95757159Y-62978556D02*
X95794654Y-62941061D01*
X95794654Y-62941061D02*
X95850897Y-62922313D01*
X95850897Y-62922313D02*
X95888392Y-62922313D01*
X95888392Y-62922313D02*
X95944635Y-62941061D01*
X95944635Y-62941061D02*
X95963383Y-62959809D01*
X96094617Y-62922313D02*
X96338336Y-62922313D01*
X96338336Y-62922313D02*
X96207103Y-63072295D01*
X96207103Y-63072295D02*
X96263346Y-63072295D01*
X96263346Y-63072295D02*
X96300841Y-63091042D01*
X96300841Y-63091042D02*
X96319589Y-63109790D01*
X96319589Y-63109790D02*
X96338336Y-63147285D01*
X96338336Y-63147285D02*
X96338336Y-63241024D01*
X96338336Y-63241024D02*
X96319589Y-63278519D01*
X96319589Y-63278519D02*
X96300841Y-63297267D01*
X96300841Y-63297267D02*
X96263346Y-63316014D01*
X96263346Y-63316014D02*
X96150860Y-63316014D01*
X96150860Y-63316014D02*
X96113364Y-63297267D01*
X96113364Y-63297267D02*
X96094617Y-63278519D01*
D11*
X36166666Y-107154819D02*
X36166666Y-107869104D01*
X36166666Y-107869104D02*
X36119047Y-108011961D01*
X36119047Y-108011961D02*
X36023809Y-108107200D01*
X36023809Y-108107200D02*
X35880952Y-108154819D01*
X35880952Y-108154819D02*
X35785714Y-108154819D01*
X37071428Y-107488152D02*
X37071428Y-108154819D01*
X36833333Y-107107200D02*
X36595238Y-107821485D01*
X36595238Y-107821485D02*
X37214285Y-107821485D01*
X96166666Y-75154819D02*
X96166666Y-75869104D01*
X96166666Y-75869104D02*
X96119047Y-76011961D01*
X96119047Y-76011961D02*
X96023809Y-76107200D01*
X96023809Y-76107200D02*
X95880952Y-76154819D01*
X95880952Y-76154819D02*
X95785714Y-76154819D01*
X96690476Y-76154819D02*
X96880952Y-76154819D01*
X96880952Y-76154819D02*
X96976190Y-76107200D01*
X96976190Y-76107200D02*
X97023809Y-76059580D01*
X97023809Y-76059580D02*
X97119047Y-75916723D01*
X97119047Y-75916723D02*
X97166666Y-75726247D01*
X97166666Y-75726247D02*
X97166666Y-75345295D01*
X97166666Y-75345295D02*
X97119047Y-75250057D01*
X97119047Y-75250057D02*
X97071428Y-75202438D01*
X97071428Y-75202438D02*
X96976190Y-75154819D01*
X96976190Y-75154819D02*
X96785714Y-75154819D01*
X96785714Y-75154819D02*
X96690476Y-75202438D01*
X96690476Y-75202438D02*
X96642857Y-75250057D01*
X96642857Y-75250057D02*
X96595238Y-75345295D01*
X96595238Y-75345295D02*
X96595238Y-75583390D01*
X96595238Y-75583390D02*
X96642857Y-75678628D01*
X96642857Y-75678628D02*
X96690476Y-75726247D01*
X96690476Y-75726247D02*
X96785714Y-75773866D01*
X96785714Y-75773866D02*
X96976190Y-75773866D01*
X96976190Y-75773866D02*
X97071428Y-75726247D01*
X97071428Y-75726247D02*
X97119047Y-75678628D01*
X97119047Y-75678628D02*
X97166666Y-75583390D01*
D13*
%TO.C,C17*%
X88845000Y-100178000D02*
X88845000Y-101178000D01*
X92005000Y-100178000D02*
X92005000Y-101178000D01*
D14*
%TO.C,L10*%
X46465000Y-98075000D02*
X47265000Y-98075000D01*
X47265000Y-93205000D02*
X47265000Y-102945000D01*
X47265000Y-102945000D02*
X56725000Y-102945000D01*
X56725000Y-93205000D02*
X47265000Y-93205000D01*
X56725000Y-102945000D02*
X56725000Y-93205000D01*
X57625000Y-98075000D02*
X56825000Y-98075000D01*
D13*
%TO.C,C6*%
X63595000Y-100797000D02*
X63595000Y-99797000D01*
X66755000Y-100797000D02*
X66755000Y-99797000D01*
%TO.C,C14*%
X122250000Y-67355000D02*
X123250000Y-67355000D01*
X122250000Y-64195000D02*
X123250000Y-64195000D01*
%TO.C,C4*%
X122190000Y-71780000D02*
X123190000Y-71780000D01*
X122190000Y-68620000D02*
X123190000Y-68620000D01*
%TO.C,C19*%
X138695000Y-100296000D02*
X138695000Y-101296000D01*
X141855000Y-100296000D02*
X141855000Y-101296000D01*
D14*
%TO.C,L2*%
X78580000Y-57940000D02*
X79380000Y-57940000D01*
X79380000Y-53070000D02*
X79380000Y-62810000D01*
X79380000Y-62810000D02*
X88840000Y-62810000D01*
X88840000Y-53070000D02*
X79380000Y-53070000D01*
X88840000Y-62810000D02*
X88840000Y-53070000D01*
X89740000Y-57940000D02*
X88940000Y-57940000D01*
%TO.C,J3*%
X176000000Y-82350000D02*
X176000000Y-107350000D01*
X176000000Y-107350000D02*
X189000000Y-107350000D01*
X189000000Y-82350000D02*
X176000000Y-82350000D01*
X189000000Y-107350000D02*
X189000000Y-82350000D01*
%TO.C,L4*%
X128227500Y-57940000D02*
X129027500Y-57940000D01*
X129027500Y-53070000D02*
X129027500Y-62810000D01*
X129027500Y-62810000D02*
X138487500Y-62810000D01*
X138487500Y-53070000D02*
X129027500Y-53070000D01*
X138487500Y-62810000D02*
X138487500Y-53070000D01*
X139387500Y-57940000D02*
X138587500Y-57940000D01*
%TO.C,J2*%
X174500000Y-55040000D02*
X189000000Y-55040000D01*
X174500000Y-72740000D02*
X174500000Y-55040000D01*
X189000000Y-55040000D02*
X189000000Y-72740000D01*
X189000000Y-72740000D02*
X174500000Y-72740000D01*
D13*
%TO.C,C13*%
X96514000Y-71344000D02*
X97514000Y-71344000D01*
X96514000Y-68184000D02*
X97514000Y-68184000D01*
D14*
%TO.C,L6*%
X146140000Y-98825000D02*
X146940000Y-98825000D01*
X146940000Y-93955000D02*
X146940000Y-103695000D01*
X146940000Y-103695000D02*
X156400000Y-103695000D01*
X156400000Y-93955000D02*
X146940000Y-93955000D01*
X156400000Y-103695000D02*
X156400000Y-93955000D01*
X157300000Y-98825000D02*
X156500000Y-98825000D01*
%TO.C,L7*%
X123130000Y-93512500D02*
X123130000Y-102972500D01*
X123130000Y-102972500D02*
X132870000Y-102972500D01*
X128000000Y-92612500D02*
X128000000Y-93412500D01*
X128000000Y-103772500D02*
X128000000Y-102972500D01*
X132870000Y-93512500D02*
X123130000Y-93512500D01*
X132870000Y-102972500D02*
X132870000Y-93512500D01*
D13*
%TO.C,C1*%
X50036000Y-67702000D02*
X51036000Y-67702000D01*
X50036000Y-64542000D02*
X51036000Y-64542000D01*
%TO.C,C7*%
X84045000Y-101078000D02*
X84045000Y-100078000D01*
X87205000Y-101078000D02*
X87205000Y-100078000D01*
D14*
%TO.C,L9*%
X72630000Y-94600000D02*
X72630000Y-104060000D01*
X72630000Y-104060000D02*
X82370000Y-104060000D01*
X77500000Y-93700000D02*
X77500000Y-94500000D01*
X77500000Y-104860000D02*
X77500000Y-104060000D01*
X82370000Y-94600000D02*
X72630000Y-94600000D01*
X82370000Y-104060000D02*
X82370000Y-94600000D01*
%TO.C,L8*%
X96490000Y-97875000D02*
X97290000Y-97875000D01*
X97290000Y-93005000D02*
X97290000Y-102745000D01*
X97290000Y-102745000D02*
X106750000Y-102745000D01*
X106750000Y-93005000D02*
X97290000Y-93005000D01*
X106750000Y-102745000D02*
X106750000Y-93005000D01*
X107650000Y-97875000D02*
X106850000Y-97875000D01*
D13*
%TO.C,C15*%
X146886000Y-71405000D02*
X147886000Y-71405000D01*
X146886000Y-68245000D02*
X147886000Y-68245000D01*
%TO.C,C20*%
X168320000Y-99914000D02*
X168320000Y-100914000D01*
X171480000Y-99914000D02*
X171480000Y-100914000D01*
%TO.C,C11*%
X49946000Y-71902000D02*
X50946000Y-71902000D01*
X49946000Y-68742000D02*
X50946000Y-68742000D01*
D14*
%TO.C,L1*%
X55630000Y-56600000D02*
X55630000Y-66060000D01*
X55630000Y-66060000D02*
X65370000Y-66060000D01*
X60500000Y-55700000D02*
X60500000Y-56500000D01*
X60500000Y-66860000D02*
X60500000Y-66060000D01*
X65370000Y-56600000D02*
X55630000Y-56600000D01*
X65370000Y-66060000D02*
X65370000Y-56600000D01*
%TO.C,J1*%
X32400000Y-67610000D02*
X32400000Y-92610000D01*
X32400000Y-92610000D02*
X45400000Y-92610000D01*
X45400000Y-67610000D02*
X32400000Y-67610000D01*
X45400000Y-92610000D02*
X45400000Y-67610000D01*
D13*
%TO.C,C5*%
X146961000Y-66830000D02*
X147961000Y-66830000D01*
X146961000Y-63670000D02*
X147961000Y-63670000D01*
%TO.C,C10*%
X163445000Y-100875000D02*
X163445000Y-99875000D01*
X166605000Y-100875000D02*
X166605000Y-99875000D01*
%TO.C,C2*%
X72140000Y-71780000D02*
X73140000Y-71780000D01*
X72140000Y-68620000D02*
X73140000Y-68620000D01*
%TO.C,C18*%
X117995000Y-100250000D02*
X117995000Y-101250000D01*
X121155000Y-100250000D02*
X121155000Y-101250000D01*
%TO.C,C8*%
X113195000Y-101050000D02*
X113195000Y-100050000D01*
X116355000Y-101050000D02*
X116355000Y-100050000D01*
%TO.C,C9*%
X133920000Y-101275000D02*
X133920000Y-100275000D01*
X137080000Y-101275000D02*
X137080000Y-100275000D01*
%TO.C,C12*%
X72236000Y-67380000D02*
X73236000Y-67380000D01*
X72236000Y-64220000D02*
X73236000Y-64220000D01*
D14*
%TO.C,L5*%
X153630000Y-55512500D02*
X153630000Y-64972500D01*
X153630000Y-64972500D02*
X163370000Y-64972500D01*
X158500000Y-54612500D02*
X158500000Y-55412500D01*
X158500000Y-65772500D02*
X158500000Y-64972500D01*
X163370000Y-55512500D02*
X153630000Y-55512500D01*
X163370000Y-64972500D02*
X163370000Y-55512500D01*
D13*
%TO.C,C16*%
X68220000Y-99811000D02*
X68220000Y-100811000D01*
X71380000Y-99811000D02*
X71380000Y-100811000D01*
D14*
%TO.C,L3*%
X105630000Y-56600000D02*
X105630000Y-66060000D01*
X105630000Y-66060000D02*
X115370000Y-66060000D01*
X110500000Y-55700000D02*
X110500000Y-56500000D01*
X110500000Y-66860000D02*
X110500000Y-66060000D01*
X115370000Y-56600000D02*
X105630000Y-56600000D01*
X115370000Y-66060000D02*
X115370000Y-56600000D01*
D13*
%TO.C,C3*%
X96529000Y-66909000D02*
X97529000Y-66909000D01*
X96529000Y-63749000D02*
X97529000Y-63749000D01*
%TD*%
M02*
