%TF.GenerationSoftware,KiCad,Pcbnew,8.0.5-8.0.5-0~ubuntu24.04.1*%
%TF.CreationDate,2024-10-12T11:33:38+02:00*%
%TF.ProjectId,diplexer,6469706c-6578-4657-922e-6b696361645f,rev?*%
%TF.SameCoordinates,Original*%
%TF.FileFunction,Copper,L1,Top*%
%TF.FilePolarity,Positive*%
%FSLAX46Y46*%
G04 Gerber Fmt 4.6, Leading zero omitted, Abs format (unit mm)*
G04 Created by KiCad (PCBNEW 8.0.5-8.0.5-0~ubuntu24.04.1) date 2024-10-12 11:33:38*
%MOMM*%
%LPD*%
G01*
G04 APERTURE LIST*
G04 Aperture macros list*
%AMRoundRect*
0 Rectangle with rounded corners*
0 $1 Rounding radius*
0 $2 $3 $4 $5 $6 $7 $8 $9 X,Y pos of 4 corners*
0 Add a 4 corners polygon primitive as box body*
4,1,4,$2,$3,$4,$5,$6,$7,$8,$9,$2,$3,0*
0 Add four circle primitives for the rounded corners*
1,1,$1+$1,$2,$3*
1,1,$1+$1,$4,$5*
1,1,$1+$1,$6,$7*
1,1,$1+$1,$8,$9*
0 Add four rect primitives between the rounded corners*
20,1,$1+$1,$2,$3,$4,$5,0*
20,1,$1+$1,$4,$5,$6,$7,0*
20,1,$1+$1,$6,$7,$8,$9,0*
20,1,$1+$1,$8,$9,$2,$3,0*%
G04 Aperture macros list end*
%TA.AperFunction,ComponentPad*%
%ADD10C,3.000000*%
%TD*%
%TA.AperFunction,SMDPad,CuDef*%
%ADD11RoundRect,0.250000X2.450000X-0.650000X2.450000X0.650000X-2.450000X0.650000X-2.450000X-0.650000X0*%
%TD*%
%TA.AperFunction,SMDPad,CuDef*%
%ADD12RoundRect,0.250000X-0.650000X-2.450000X0.650000X-2.450000X0.650000X2.450000X-0.650000X2.450000X0*%
%TD*%
%TA.AperFunction,ComponentPad*%
%ADD13C,5.600000*%
%TD*%
%TA.AperFunction,SMDPad,CuDef*%
%ADD14R,4.000000X4.000000*%
%TD*%
%TA.AperFunction,SMDPad,CuDef*%
%ADD15R,5.000000X5.000000*%
%TD*%
%TA.AperFunction,ComponentPad*%
%ADD16C,2.000000*%
%TD*%
%TA.AperFunction,Conductor*%
%ADD17C,3.000000*%
%TD*%
%TA.AperFunction,Conductor*%
%ADD18C,1.999800*%
%TD*%
%TA.AperFunction,Conductor*%
%ADD19C,1.801800*%
%TD*%
G04 APERTURE END LIST*
D10*
%TO.P,L10,1,1*%
%TO.N,Net-(J1-In)*%
X42400000Y-83000000D03*
%TO.P,L10,2,2*%
%TO.N,Net-(C6-Pad2)*%
X57000000Y-83000000D03*
%TD*%
%TO.P,L2,1,1*%
%TO.N,Net-(C2-Pad2)*%
X76840000Y-43440000D03*
%TO.P,L2,2,2*%
%TO.N,GND*%
X91440000Y-43440000D03*
%TD*%
%TO.P,L4,1,1*%
%TO.N,Net-(C4-Pad2)*%
X120840000Y-43440000D03*
%TO.P,L4,2,2*%
%TO.N,GND*%
X135440000Y-43440000D03*
%TD*%
%TO.P,L6,1,1*%
%TO.N,Net-(C9-Pad2)*%
X139400000Y-83000000D03*
%TO.P,L6,2,2*%
%TO.N,Net-(J3-In)*%
X154000000Y-83000000D03*
%TD*%
%TO.P,L7,1,1*%
%TO.N,Net-(C8-Pad2)*%
X127000000Y-94160000D03*
%TO.P,L7,2,2*%
%TO.N,Net-(C9-Pad2)*%
X127000000Y-79560000D03*
%TD*%
%TO.P,L9,1,1*%
%TO.N,Net-(C6-Pad2)*%
X77000000Y-94600000D03*
%TO.P,L9,2,2*%
%TO.N,Net-(C7-Pad2)*%
X77000000Y-80000000D03*
%TD*%
%TO.P,L8,1,1*%
%TO.N,Net-(C7-Pad2)*%
X91000000Y-84000000D03*
%TO.P,L8,2,2*%
%TO.N,Net-(C8-Pad2)*%
X105600000Y-84000000D03*
%TD*%
%TO.P,L3,1,1*%
%TO.N,Net-(C3-Pad2)*%
X110000000Y-53600000D03*
%TO.P,L3,2,2*%
%TO.N,GND*%
X110000000Y-39000000D03*
%TD*%
%TO.P,L1,1,1*%
%TO.N,Net-(C1-Pad2)*%
X60000000Y-53600000D03*
%TO.P,L1,2,2*%
%TO.N,GND*%
X60000000Y-39000000D03*
%TD*%
D11*
%TO.P,C6,1*%
%TO.N,GND*%
X67000000Y-95000000D03*
%TO.P,C6,2*%
%TO.N,Net-(C6-Pad2)*%
X67000000Y-89900000D03*
%TD*%
D12*
%TO.P,C4,1*%
%TO.N,Net-(C3-Pad2)*%
X119450000Y-53440000D03*
%TO.P,C4,2*%
%TO.N,Net-(C4-Pad2)*%
X124550000Y-53440000D03*
%TD*%
D13*
%TO.P,J5,1,Pin_1*%
%TO.N,GND*%
X36000000Y-33000000D03*
%TD*%
D14*
%TO.P,J3,1,In*%
%TO.N,Net-(J3-In)*%
X176000000Y-80350000D03*
%TO.P,J3,2,Ext*%
%TO.N,GND*%
X185000000Y-74000000D03*
%TO.P,J3,3*%
X185000000Y-86700000D03*
%TD*%
%TO.P,J2,1,In*%
%TO.N,Net-(J2-In)*%
X176000000Y-51000000D03*
%TO.P,J2,2,Ext*%
%TO.N,GND*%
X185000000Y-44650000D03*
%TO.P,J2,3*%
X185000000Y-57350000D03*
%TD*%
D13*
%TO.P,J7,1,Pin_1*%
%TO.N,GND*%
X185000000Y-33000000D03*
%TD*%
D12*
%TO.P,C1,1*%
%TO.N,Net-(J1-In)*%
X48450000Y-53440000D03*
%TO.P,C1,2*%
%TO.N,Net-(C1-Pad2)*%
X53550000Y-53440000D03*
%TD*%
D11*
%TO.P,C7,1*%
%TO.N,GND*%
X86000000Y-95550000D03*
%TO.P,C7,2*%
%TO.N,Net-(C7-Pad2)*%
X86000000Y-90450000D03*
%TD*%
D13*
%TO.P,J11,1,Pin_1*%
%TO.N,GND*%
X185000000Y-65000000D03*
%TD*%
%TO.P,J10,1,Pin_1*%
%TO.N,GND*%
X134000000Y-65000000D03*
%TD*%
%TO.P,J8,1,Pin_1*%
%TO.N,GND*%
X50000000Y-65000000D03*
%TD*%
D15*
%TO.P,J1,1,In*%
%TO.N,Net-(J1-In)*%
X37000000Y-52110000D03*
%TO.P,J1,2,Ext*%
%TO.N,GND*%
X37000000Y-43000000D03*
%TO.P,J1,3*%
X37000000Y-61210000D03*
%TD*%
D12*
%TO.P,C5,1*%
%TO.N,Net-(C4-Pad2)*%
X136450000Y-53440000D03*
%TO.P,C5,2*%
%TO.N,Net-(J2-In)*%
X141550000Y-53440000D03*
%TD*%
D11*
%TO.P,C10,1*%
%TO.N,GND*%
X166000000Y-96100000D03*
%TO.P,C10,2*%
%TO.N,Net-(J3-In)*%
X166000000Y-91000000D03*
%TD*%
D13*
%TO.P,J6,1,Pin_1*%
%TO.N,GND*%
X185000000Y-97000000D03*
%TD*%
D12*
%TO.P,C2,1*%
%TO.N,Net-(C1-Pad2)*%
X67450000Y-53440000D03*
%TO.P,C2,2*%
%TO.N,Net-(C2-Pad2)*%
X72550000Y-53440000D03*
%TD*%
D11*
%TO.P,C8,1*%
%TO.N,GND*%
X116000000Y-95550000D03*
%TO.P,C8,2*%
%TO.N,Net-(C8-Pad2)*%
X116000000Y-90450000D03*
%TD*%
%TO.P,C9,1*%
%TO.N,GND*%
X137000000Y-95550000D03*
%TO.P,C9,2*%
%TO.N,Net-(C9-Pad2)*%
X137000000Y-90450000D03*
%TD*%
D16*
%TO.P,L5,1,1*%
%TO.N,Net-(J2-In)*%
X151000000Y-52600000D03*
D10*
%TO.P,L5,2,2*%
%TO.N,GND*%
X151000000Y-38000000D03*
%TD*%
D12*
%TO.P,C3,1*%
%TO.N,Net-(C2-Pad2)*%
X84900000Y-53440000D03*
%TO.P,C3,2*%
%TO.N,Net-(C3-Pad2)*%
X90000000Y-53440000D03*
%TD*%
D13*
%TO.P,J4,1,Pin_1*%
%TO.N,GND*%
X36000000Y-97000000D03*
%TD*%
%TO.P,J9,1,Pin_1*%
%TO.N,GND*%
X96000000Y-65000000D03*
%TD*%
D17*
%TO.N,Net-(C1-Pad2)*%
X59840000Y-53440000D02*
X53550000Y-53440000D01*
X60000000Y-53600000D02*
X59840000Y-53440000D01*
X60160000Y-53440000D02*
X60000000Y-53600000D01*
X67450000Y-53440000D02*
X60160000Y-53440000D01*
%TO.N,Net-(J1-In)*%
X42400000Y-54870000D02*
X43830000Y-53440000D01*
X43830000Y-53440000D02*
X42500000Y-52110000D01*
X42400000Y-83000000D02*
X42400000Y-54870000D01*
X37000000Y-52110000D02*
X42500000Y-52110000D01*
X48450000Y-53440000D02*
X43830000Y-53440000D01*
%TO.N,Net-(C2-Pad2)*%
X84900000Y-53440000D02*
X76840000Y-53440000D01*
X76840000Y-53440000D02*
X72550000Y-53440000D01*
X76840000Y-53440000D02*
X76840000Y-43440000D01*
%TO.N,Net-(C3-Pad2)*%
X119290000Y-53600000D02*
X110000000Y-53600000D01*
X110000000Y-53600000D02*
X90160000Y-53600000D01*
X90160000Y-53600000D02*
X90000000Y-53440000D01*
X119450000Y-53440000D02*
X119290000Y-53600000D01*
%TO.N,Net-(C4-Pad2)*%
X124550000Y-53440000D02*
X124550000Y-47150000D01*
X136450000Y-53440000D02*
X124550000Y-53440000D01*
X124550000Y-47150000D02*
X120840000Y-43440000D01*
%TO.N,Net-(J2-In)*%
X176000000Y-51000000D02*
X171000000Y-51000000D01*
X151000000Y-52600000D02*
X169400000Y-52600000D01*
X142390000Y-52600000D02*
X151000000Y-52600000D01*
X141550000Y-53440000D02*
X142390000Y-52600000D01*
X169400000Y-52600000D02*
X171000000Y-51000000D01*
%TO.N,Net-(C6-Pad2)*%
X76741300Y-94341300D02*
X76741300Y-92398800D01*
X63900000Y-89900000D02*
X57000000Y-83000000D01*
D18*
X69498800Y-92398800D02*
X76741300Y-92398800D01*
D17*
X67000000Y-89900000D02*
X63900000Y-89900000D01*
X77000000Y-94600000D02*
X76741300Y-94341300D01*
D19*
X69498800Y-92398800D02*
X67000000Y-89900000D01*
D17*
%TO.N,Net-(C7-Pad2)*%
X86000000Y-89000000D02*
X91000000Y-84000000D01*
X77000000Y-80000000D02*
X86000000Y-89000000D01*
X86000000Y-90450000D02*
X86000000Y-89000000D01*
D18*
%TO.N,Net-(C8-Pad2)*%
X118498800Y-92948800D02*
X127000000Y-92948800D01*
D17*
X112050000Y-90450000D02*
X105600000Y-84000000D01*
X116000000Y-90450000D02*
X112050000Y-90450000D01*
X127000000Y-94160000D02*
X127000000Y-92948800D01*
D19*
X118498800Y-92948800D02*
X116000000Y-90450000D01*
D17*
%TO.N,Net-(C9-Pad2)*%
X132840000Y-85400000D02*
X137000000Y-85400000D01*
X127000000Y-79560000D02*
X132840000Y-85400000D01*
X137000000Y-85400000D02*
X139400000Y-83000000D01*
X137000000Y-90450000D02*
X137000000Y-85400000D01*
%TO.N,Net-(J3-In)*%
X168825000Y-85350000D02*
X166000000Y-88175000D01*
X166000000Y-88175000D02*
X166000000Y-91000000D01*
X159175000Y-88175000D02*
X154000000Y-83000000D01*
X166000000Y-88175000D02*
X159175000Y-88175000D01*
X176000000Y-85350000D02*
X168825000Y-85350000D01*
X176000000Y-80350000D02*
X176000000Y-85350000D01*
%TD*%
%TA.AperFunction,Conductor*%
%TO.N,GND*%
G36*
X188442539Y-29520185D02*
G01*
X188488294Y-29572989D01*
X188499500Y-29624500D01*
X188499500Y-100375500D01*
X188479815Y-100442539D01*
X188427011Y-100488294D01*
X188375500Y-100499500D01*
X32624500Y-100499500D01*
X32557461Y-100479815D01*
X32511706Y-100427011D01*
X32500500Y-100375500D01*
X32500500Y-56446104D01*
X32520185Y-56379065D01*
X32572989Y-56333310D01*
X32642147Y-56323366D01*
X32705703Y-56352391D01*
X32712181Y-56358423D01*
X32843120Y-56489362D01*
X33091722Y-56682197D01*
X33091726Y-56682199D01*
X33091732Y-56682204D01*
X33362552Y-56842367D01*
X33651311Y-56967324D01*
X33705419Y-56983043D01*
X33953448Y-57055104D01*
X33953456Y-57055106D01*
X34264217Y-57104325D01*
X34395156Y-57110500D01*
X34395160Y-57110500D01*
X38275500Y-57110500D01*
X38342539Y-57130185D01*
X38388294Y-57182989D01*
X38399500Y-57234500D01*
X38399500Y-82898735D01*
X38399351Y-82904819D01*
X38394675Y-82999999D01*
X38399351Y-83095180D01*
X38399500Y-83101244D01*
X38399500Y-83196532D01*
X38405235Y-83254757D01*
X38408838Y-83291343D01*
X38409286Y-83297412D01*
X38413962Y-83392591D01*
X38413962Y-83392596D01*
X38413963Y-83392601D01*
X38427943Y-83486848D01*
X38428688Y-83492888D01*
X38438025Y-83587691D01*
X38438025Y-83587693D01*
X38456611Y-83681133D01*
X38457651Y-83687127D01*
X38471637Y-83781410D01*
X38494790Y-83873839D01*
X38496123Y-83879775D01*
X38514710Y-83973216D01*
X38542367Y-84064391D01*
X38543989Y-84070254D01*
X38567141Y-84162680D01*
X38567142Y-84162682D01*
X38599243Y-84252400D01*
X38601151Y-84258177D01*
X38628808Y-84349348D01*
X38628810Y-84349354D01*
X38665274Y-84437387D01*
X38667456Y-84443043D01*
X38683128Y-84486841D01*
X38699561Y-84532770D01*
X38699566Y-84532780D01*
X38740304Y-84618915D01*
X38742770Y-84624478D01*
X38759164Y-84664057D01*
X38779229Y-84712497D01*
X38779233Y-84712504D01*
X38824148Y-84796535D01*
X38826869Y-84801939D01*
X38826885Y-84801972D01*
X38867620Y-84888100D01*
X38901028Y-84943837D01*
X38916604Y-84969824D01*
X38919592Y-84975099D01*
X38919603Y-84975119D01*
X38964511Y-85059137D01*
X38964515Y-85059144D01*
X38964518Y-85059149D01*
X39017467Y-85138394D01*
X39020704Y-85143505D01*
X39032201Y-85162686D01*
X39069695Y-85225242D01*
X39126456Y-85301775D01*
X39129960Y-85306750D01*
X39182890Y-85385965D01*
X39182893Y-85385970D01*
X39243344Y-85459630D01*
X39247087Y-85464427D01*
X39303840Y-85540949D01*
X39367830Y-85611551D01*
X39371801Y-85616154D01*
X39432250Y-85689812D01*
X39499649Y-85757211D01*
X39503827Y-85761600D01*
X39567807Y-85832192D01*
X39638398Y-85896171D01*
X39642786Y-85900348D01*
X39710188Y-85967750D01*
X39763081Y-86011158D01*
X39783838Y-86028193D01*
X39788446Y-86032168D01*
X39859049Y-86096159D01*
X39935573Y-86152913D01*
X39940371Y-86156657D01*
X40014027Y-86217105D01*
X40014032Y-86217109D01*
X40093247Y-86270038D01*
X40098220Y-86273539D01*
X40174761Y-86330306D01*
X40256511Y-86379305D01*
X40261576Y-86382511D01*
X40340851Y-86435482D01*
X40424927Y-86480421D01*
X40430143Y-86483376D01*
X40511903Y-86532381D01*
X40580251Y-86564707D01*
X40598043Y-86573122D01*
X40603461Y-86575849D01*
X40687503Y-86620771D01*
X40775517Y-86657227D01*
X40775529Y-86657232D01*
X40781077Y-86659691D01*
X40867228Y-86700438D01*
X40956962Y-86732544D01*
X40962606Y-86734721D01*
X41050647Y-86771190D01*
X41141825Y-86798848D01*
X41141832Y-86798850D01*
X41147612Y-86800760D01*
X41227176Y-86829229D01*
X41237316Y-86832857D01*
X41329771Y-86856015D01*
X41335576Y-86857621D01*
X41426785Y-86885290D01*
X41520242Y-86903879D01*
X41526154Y-86905207D01*
X41618600Y-86928364D01*
X41712887Y-86942349D01*
X41718823Y-86943379D01*
X41812297Y-86961973D01*
X41812304Y-86961973D01*
X41812306Y-86961974D01*
X41812302Y-86961974D01*
X41851747Y-86965858D01*
X41907131Y-86971312D01*
X41913111Y-86972049D01*
X42007409Y-86986038D01*
X42102607Y-86990714D01*
X42108622Y-86991157D01*
X42203468Y-87000500D01*
X42298735Y-87000500D01*
X42304818Y-87000648D01*
X42400000Y-87005325D01*
X42495181Y-87000648D01*
X42501265Y-87000500D01*
X42596527Y-87000500D01*
X42596532Y-87000500D01*
X42691379Y-86991157D01*
X42697388Y-86990714D01*
X42792591Y-86986038D01*
X42886892Y-86972048D01*
X42892862Y-86971313D01*
X42968092Y-86963904D01*
X42987695Y-86961974D01*
X42987697Y-86961973D01*
X42987703Y-86961973D01*
X43081182Y-86943378D01*
X43087104Y-86942350D01*
X43181400Y-86928364D01*
X43273857Y-86905203D01*
X43279744Y-86903881D01*
X43373215Y-86885290D01*
X43464428Y-86857619D01*
X43470231Y-86856014D01*
X43562684Y-86832857D01*
X43652414Y-86800750D01*
X43658167Y-86798850D01*
X43749353Y-86771190D01*
X43783151Y-86757190D01*
X43837381Y-86734727D01*
X43843037Y-86732544D01*
X43932772Y-86700438D01*
X44018948Y-86659678D01*
X44024432Y-86657247D01*
X44112497Y-86620771D01*
X44196552Y-86575841D01*
X44201954Y-86573122D01*
X44288097Y-86532381D01*
X44369838Y-86483386D01*
X44375113Y-86480399D01*
X44378475Y-86478602D01*
X44459149Y-86435482D01*
X44533249Y-86385969D01*
X44538384Y-86382538D01*
X44543513Y-86379289D01*
X44625239Y-86330306D01*
X44701763Y-86273551D01*
X44706734Y-86270050D01*
X44773807Y-86225233D01*
X44785969Y-86217107D01*
X44859648Y-86156639D01*
X44864385Y-86152942D01*
X44940951Y-86096158D01*
X45011562Y-86032158D01*
X45016115Y-86028229D01*
X45089812Y-85967750D01*
X45157222Y-85900338D01*
X45161566Y-85896202D01*
X45232192Y-85832192D01*
X45296202Y-85761566D01*
X45300338Y-85757222D01*
X45367750Y-85689812D01*
X45428229Y-85616115D01*
X45432168Y-85611551D01*
X45496158Y-85540951D01*
X45552942Y-85464385D01*
X45556639Y-85459648D01*
X45617107Y-85385969D01*
X45670050Y-85306734D01*
X45673551Y-85301763D01*
X45730306Y-85225239D01*
X45779295Y-85143505D01*
X45782538Y-85138384D01*
X45789353Y-85128183D01*
X45835482Y-85059149D01*
X45880402Y-84975106D01*
X45883386Y-84969838D01*
X45932381Y-84888097D01*
X45973122Y-84801954D01*
X45975841Y-84796552D01*
X46020771Y-84712497D01*
X46057247Y-84624432D01*
X46059678Y-84618948D01*
X46100438Y-84532772D01*
X46132544Y-84443037D01*
X46134727Y-84437381D01*
X46171187Y-84349360D01*
X46171186Y-84349360D01*
X46171190Y-84349353D01*
X46198851Y-84258162D01*
X46200755Y-84252400D01*
X46232857Y-84162684D01*
X46256014Y-84070231D01*
X46257619Y-84064428D01*
X46285290Y-83973215D01*
X46303881Y-83879744D01*
X46305208Y-83873839D01*
X46328364Y-83781400D01*
X46342350Y-83687104D01*
X46343384Y-83681151D01*
X46361973Y-83587703D01*
X46361975Y-83587688D01*
X46369314Y-83513157D01*
X46371313Y-83492862D01*
X46372048Y-83486892D01*
X46386038Y-83392591D01*
X46390714Y-83297388D01*
X46391159Y-83291360D01*
X46400500Y-83196532D01*
X46400500Y-83101244D01*
X46400649Y-83095180D01*
X46400650Y-83095160D01*
X46405325Y-83000000D01*
X46405325Y-82999999D01*
X52994675Y-82999999D01*
X52999351Y-83095180D01*
X52999500Y-83101244D01*
X52999500Y-83196532D01*
X53005235Y-83254757D01*
X53008838Y-83291343D01*
X53009286Y-83297412D01*
X53013962Y-83392591D01*
X53013962Y-83392596D01*
X53013963Y-83392601D01*
X53027943Y-83486848D01*
X53028688Y-83492888D01*
X53038025Y-83587691D01*
X53038026Y-83587695D01*
X53038027Y-83587703D01*
X53041944Y-83607398D01*
X53056613Y-83681151D01*
X53057653Y-83687142D01*
X53071636Y-83781401D01*
X53094788Y-83873829D01*
X53096116Y-83879742D01*
X53104433Y-83921555D01*
X53114707Y-83973208D01*
X53114709Y-83973216D01*
X53142369Y-84064402D01*
X53143991Y-84070264D01*
X53167138Y-84162668D01*
X53167144Y-84162688D01*
X53199240Y-84252391D01*
X53201148Y-84258168D01*
X53228808Y-84349348D01*
X53228810Y-84349354D01*
X53265274Y-84437387D01*
X53267456Y-84443043D01*
X53283128Y-84486841D01*
X53299561Y-84532770D01*
X53299566Y-84532780D01*
X53340304Y-84618915D01*
X53342770Y-84624478D01*
X53359164Y-84664057D01*
X53379229Y-84712497D01*
X53379233Y-84712504D01*
X53424147Y-84796533D01*
X53426868Y-84801937D01*
X53467619Y-84888097D01*
X53467621Y-84888100D01*
X53516602Y-84969820D01*
X53519602Y-84975116D01*
X53564517Y-85059148D01*
X53617448Y-85138363D01*
X53620704Y-85143505D01*
X53669696Y-85225243D01*
X53694117Y-85258170D01*
X53726443Y-85301757D01*
X53726451Y-85301767D01*
X53729956Y-85306744D01*
X53782883Y-85385956D01*
X53782893Y-85385970D01*
X53843344Y-85459630D01*
X53847087Y-85464427D01*
X53903840Y-85540949D01*
X53967830Y-85611551D01*
X53971801Y-85616154D01*
X54032250Y-85689812D01*
X54099639Y-85757201D01*
X54103826Y-85761599D01*
X54167807Y-85832192D01*
X54238400Y-85896173D01*
X54242808Y-85900370D01*
X60930241Y-92587802D01*
X60930283Y-92587846D01*
X61210182Y-92867745D01*
X61210187Y-92867749D01*
X61210188Y-92867750D01*
X61514031Y-93117107D01*
X61840851Y-93335482D01*
X61840860Y-93335487D01*
X61840862Y-93335488D01*
X61866869Y-93349389D01*
X62123862Y-93486754D01*
X62187503Y-93520771D01*
X62550647Y-93671190D01*
X62926786Y-93785291D01*
X62926792Y-93785292D01*
X62926795Y-93785293D01*
X62926806Y-93785296D01*
X63168539Y-93833378D01*
X63312297Y-93861973D01*
X63703468Y-93900501D01*
X63703471Y-93900501D01*
X64099602Y-93900501D01*
X64099642Y-93900500D01*
X66138832Y-93900500D01*
X66205871Y-93920185D01*
X66226513Y-93936819D01*
X66489297Y-94199603D01*
X66504718Y-94218393D01*
X66683856Y-94486491D01*
X66683866Y-94486505D01*
X66902051Y-94752365D01*
X67145234Y-94995548D01*
X67145239Y-94995552D01*
X67145240Y-94995553D01*
X67411100Y-95213738D01*
X67697065Y-95404814D01*
X67697074Y-95404819D01*
X67697076Y-95404820D01*
X68000373Y-95566936D01*
X68000375Y-95566936D01*
X68000381Y-95566940D01*
X68318129Y-95698555D01*
X68647247Y-95798392D01*
X68984565Y-95865489D01*
X69326836Y-95899200D01*
X72973639Y-95899200D01*
X73040678Y-95918885D01*
X73086433Y-95971689D01*
X73088194Y-95975733D01*
X73118167Y-96048095D01*
X73120530Y-96053799D01*
X73120532Y-96053804D01*
X73305811Y-96400437D01*
X73305822Y-96400455D01*
X73444806Y-96608458D01*
X73524187Y-96727260D01*
X73524197Y-96727274D01*
X73773554Y-97031117D01*
X74099629Y-97357191D01*
X74103826Y-97361599D01*
X74167807Y-97432192D01*
X74238398Y-97496171D01*
X74242786Y-97500348D01*
X74310188Y-97567750D01*
X74363081Y-97611158D01*
X74383838Y-97628193D01*
X74388446Y-97632168D01*
X74459049Y-97696159D01*
X74535573Y-97752913D01*
X74540371Y-97756657D01*
X74614027Y-97817105D01*
X74614032Y-97817109D01*
X74693244Y-97870036D01*
X74698220Y-97873540D01*
X74774754Y-97930301D01*
X74774761Y-97930306D01*
X74856519Y-97979309D01*
X74861602Y-97982529D01*
X74940852Y-98035482D01*
X74940854Y-98035483D01*
X75024889Y-98080400D01*
X75030186Y-98083401D01*
X75111899Y-98132379D01*
X75111902Y-98132380D01*
X75111903Y-98132381D01*
X75198028Y-98173115D01*
X75198045Y-98173123D01*
X75203463Y-98175850D01*
X75287503Y-98220771D01*
X75375531Y-98257233D01*
X75381079Y-98259692D01*
X75467228Y-98300438D01*
X75556936Y-98332535D01*
X75562601Y-98334719D01*
X75650646Y-98371190D01*
X75741827Y-98398849D01*
X75741840Y-98398853D01*
X75747617Y-98400762D01*
X75837316Y-98432857D01*
X75929759Y-98456012D01*
X75935564Y-98457618D01*
X76026786Y-98485291D01*
X76120258Y-98503883D01*
X76126162Y-98505209D01*
X76218600Y-98528364D01*
X76311513Y-98542146D01*
X76312866Y-98542347D01*
X76318864Y-98543388D01*
X76412297Y-98561973D01*
X76412306Y-98561973D01*
X76412312Y-98561975D01*
X76452433Y-98565925D01*
X76507131Y-98571312D01*
X76513111Y-98572049D01*
X76607409Y-98586038D01*
X76702607Y-98590714D01*
X76708622Y-98591157D01*
X76803468Y-98600500D01*
X76898735Y-98600500D01*
X76904818Y-98600648D01*
X77000000Y-98605325D01*
X77095181Y-98600648D01*
X77101265Y-98600500D01*
X77196527Y-98600500D01*
X77196532Y-98600500D01*
X77291379Y-98591157D01*
X77297388Y-98590714D01*
X77392591Y-98586038D01*
X77486892Y-98572048D01*
X77492862Y-98571313D01*
X77555202Y-98565173D01*
X77587687Y-98561975D01*
X77587692Y-98561974D01*
X77587703Y-98561973D01*
X77681173Y-98543380D01*
X77687107Y-98542350D01*
X77781400Y-98528364D01*
X77873854Y-98505204D01*
X77879740Y-98503883D01*
X77973214Y-98485291D01*
X78064452Y-98457613D01*
X78070227Y-98456015D01*
X78162684Y-98432857D01*
X78252411Y-98400751D01*
X78258159Y-98398852D01*
X78349353Y-98371190D01*
X78372946Y-98361417D01*
X78437381Y-98334727D01*
X78443037Y-98332544D01*
X78532772Y-98300438D01*
X78618948Y-98259678D01*
X78624432Y-98257247D01*
X78712497Y-98220771D01*
X78796550Y-98175842D01*
X78801952Y-98173123D01*
X78888097Y-98132381D01*
X78938208Y-98102345D01*
X78969821Y-98083397D01*
X78975119Y-98080395D01*
X79004914Y-98064470D01*
X79059148Y-98035482D01*
X79138380Y-97982539D01*
X79143511Y-97979291D01*
X79143518Y-97979287D01*
X79225239Y-97930306D01*
X79301792Y-97873529D01*
X79306737Y-97870048D01*
X79351969Y-97839824D01*
X79385969Y-97817107D01*
X79459648Y-97756639D01*
X79464385Y-97752942D01*
X79540951Y-97696158D01*
X79611562Y-97632158D01*
X79616115Y-97628229D01*
X79689812Y-97567750D01*
X79757222Y-97500338D01*
X79761566Y-97496202D01*
X79832192Y-97432192D01*
X79896202Y-97361566D01*
X79900338Y-97357222D01*
X79967750Y-97289812D01*
X80028229Y-97216115D01*
X80032158Y-97211562D01*
X80096158Y-97140951D01*
X80152942Y-97064385D01*
X80156639Y-97059648D01*
X80217107Y-96985969D01*
X80263056Y-96917201D01*
X80270048Y-96906737D01*
X80273529Y-96901792D01*
X80330306Y-96825239D01*
X80379295Y-96743503D01*
X80382539Y-96738380D01*
X80435482Y-96659148D01*
X80480398Y-96575112D01*
X80483397Y-96569821D01*
X80532374Y-96488108D01*
X80532381Y-96488097D01*
X80573123Y-96401952D01*
X80575842Y-96396550D01*
X80620771Y-96312497D01*
X80657247Y-96224432D01*
X80659678Y-96218948D01*
X80700438Y-96132772D01*
X80732544Y-96043037D01*
X80734727Y-96037381D01*
X80765963Y-95961972D01*
X80771190Y-95949353D01*
X80798852Y-95858159D01*
X80800751Y-95852411D01*
X80832857Y-95762684D01*
X80856015Y-95670227D01*
X80857613Y-95664452D01*
X80885291Y-95573214D01*
X80903883Y-95479740D01*
X80905204Y-95473854D01*
X80928364Y-95381400D01*
X80942350Y-95287107D01*
X80943380Y-95281173D01*
X80961973Y-95187703D01*
X80971313Y-95092862D01*
X80972048Y-95086892D01*
X80986038Y-94992591D01*
X80990714Y-94897388D01*
X80991157Y-94891379D01*
X81000500Y-94796532D01*
X81000500Y-94701264D01*
X81000649Y-94695180D01*
X81002726Y-94652895D01*
X81005325Y-94600000D01*
X81000648Y-94504818D01*
X81000500Y-94498735D01*
X81000500Y-94403472D01*
X81000500Y-94403468D01*
X80991157Y-94308622D01*
X80990714Y-94302607D01*
X80986038Y-94207409D01*
X80972049Y-94113111D01*
X80971312Y-94107131D01*
X80965925Y-94052433D01*
X80961975Y-94012312D01*
X80961973Y-94012306D01*
X80961973Y-94012297D01*
X80943388Y-93918862D01*
X80942347Y-93912866D01*
X80938284Y-93885477D01*
X80928364Y-93818600D01*
X80905209Y-93726162D01*
X80903879Y-93720240D01*
X80894123Y-93671190D01*
X80885291Y-93626786D01*
X80857618Y-93535564D01*
X80856012Y-93529759D01*
X80832857Y-93437316D01*
X80800762Y-93347617D01*
X80798853Y-93341840D01*
X80796923Y-93335477D01*
X80771190Y-93250646D01*
X80751237Y-93202476D01*
X80741800Y-93155026D01*
X80741800Y-92202272D01*
X80741102Y-92195185D01*
X80733399Y-92116978D01*
X80746417Y-92048336D01*
X80794482Y-91997625D01*
X80862333Y-91980950D01*
X80928428Y-92003606D01*
X80971782Y-92058398D01*
X80972744Y-92060856D01*
X81037237Y-92230910D01*
X81037238Y-92230911D01*
X81191865Y-92525525D01*
X81191871Y-92525536D01*
X81380892Y-92799383D01*
X81380897Y-92799389D01*
X81601546Y-93048451D01*
X81601548Y-93048453D01*
X81850610Y-93269102D01*
X81850616Y-93269107D01*
X81955989Y-93341840D01*
X82124462Y-93458128D01*
X82419096Y-93612765D01*
X82661176Y-93704573D01*
X82730216Y-93730757D01*
X82730217Y-93730757D01*
X82730222Y-93730759D01*
X83053302Y-93810391D01*
X83383625Y-93850500D01*
X83850880Y-93850499D01*
X83917919Y-93870183D01*
X83919770Y-93871396D01*
X83940844Y-93885477D01*
X83940851Y-93885482D01*
X83940853Y-93885483D01*
X83940862Y-93885488D01*
X84287495Y-94070767D01*
X84287497Y-94070767D01*
X84287503Y-94070771D01*
X84650647Y-94221190D01*
X85026785Y-94335290D01*
X85026791Y-94335291D01*
X85026794Y-94335292D01*
X85026805Y-94335295D01*
X85412287Y-94411971D01*
X85412297Y-94411973D01*
X85803468Y-94450500D01*
X85803471Y-94450500D01*
X86196529Y-94450500D01*
X86196532Y-94450500D01*
X86587703Y-94411973D01*
X86662748Y-94397045D01*
X86973194Y-94335295D01*
X86973205Y-94335292D01*
X86973205Y-94335291D01*
X86973215Y-94335290D01*
X87349353Y-94221190D01*
X87712497Y-94070771D01*
X88059149Y-93885482D01*
X88080229Y-93871396D01*
X88146905Y-93850519D01*
X88149119Y-93850499D01*
X88616377Y-93850499D01*
X88685986Y-93842046D01*
X88946698Y-93810391D01*
X89269778Y-93730759D01*
X89580904Y-93612765D01*
X89875538Y-93458128D01*
X90149386Y-93269105D01*
X90367878Y-93075538D01*
X90398451Y-93048453D01*
X90398453Y-93048451D01*
X90619102Y-92799389D01*
X90619105Y-92799386D01*
X90808128Y-92525538D01*
X90962765Y-92230904D01*
X91080759Y-91919778D01*
X91160391Y-91596698D01*
X91200500Y-91266375D01*
X91200499Y-89633626D01*
X91200498Y-89633621D01*
X91197537Y-89609234D01*
X91188658Y-89536112D01*
X91200118Y-89467191D01*
X91224070Y-89433489D01*
X93757200Y-86900359D01*
X93761566Y-86896202D01*
X93832192Y-86832192D01*
X93896193Y-86761576D01*
X93900348Y-86757211D01*
X93967750Y-86689811D01*
X94028223Y-86616122D01*
X94032149Y-86611572D01*
X94096158Y-86540951D01*
X94152944Y-86464382D01*
X94156640Y-86459646D01*
X94217107Y-86385969D01*
X94270057Y-86306722D01*
X94273521Y-86301803D01*
X94330306Y-86225239D01*
X94379295Y-86143503D01*
X94382539Y-86138380D01*
X94435482Y-86059148D01*
X94480398Y-85975112D01*
X94483397Y-85969821D01*
X94525014Y-85900388D01*
X94532381Y-85888097D01*
X94573123Y-85801952D01*
X94575842Y-85796550D01*
X94620771Y-85712497D01*
X94657247Y-85624432D01*
X94659678Y-85618948D01*
X94700438Y-85532772D01*
X94732544Y-85443037D01*
X94734727Y-85437381D01*
X94771187Y-85349360D01*
X94771186Y-85349360D01*
X94771190Y-85349353D01*
X94798852Y-85258159D01*
X94800751Y-85252411D01*
X94832857Y-85162684D01*
X94856015Y-85070227D01*
X94857613Y-85064452D01*
X94885291Y-84973214D01*
X94903883Y-84879740D01*
X94905204Y-84873854D01*
X94928364Y-84781400D01*
X94942350Y-84687107D01*
X94943385Y-84681151D01*
X94961973Y-84587703D01*
X94971312Y-84492868D01*
X94972052Y-84486867D01*
X94986038Y-84392591D01*
X94990714Y-84297398D01*
X94991157Y-84291393D01*
X95000501Y-84196532D01*
X95000501Y-84101244D01*
X95000650Y-84095160D01*
X95001873Y-84070259D01*
X95005325Y-84000000D01*
X95005325Y-83999999D01*
X101594675Y-83999999D01*
X101599351Y-84095180D01*
X101599500Y-84101244D01*
X101599500Y-84196532D01*
X101608838Y-84291343D01*
X101609286Y-84297412D01*
X101613962Y-84392591D01*
X101613962Y-84392596D01*
X101613963Y-84392601D01*
X101627943Y-84486848D01*
X101628688Y-84492888D01*
X101638025Y-84587691D01*
X101638026Y-84587699D01*
X101638027Y-84587703D01*
X101643822Y-84616840D01*
X101656613Y-84681151D01*
X101657653Y-84687142D01*
X101671636Y-84781401D01*
X101694788Y-84873829D01*
X101696116Y-84879742D01*
X101704433Y-84921555D01*
X101714707Y-84973208D01*
X101714709Y-84973216D01*
X101742369Y-85064402D01*
X101743991Y-85070264D01*
X101767138Y-85162668D01*
X101767144Y-85162688D01*
X101799240Y-85252391D01*
X101801148Y-85258168D01*
X101828808Y-85349348D01*
X101828810Y-85349354D01*
X101865274Y-85437387D01*
X101867456Y-85443043D01*
X101899562Y-85532772D01*
X101903433Y-85540957D01*
X101940304Y-85618915D01*
X101942770Y-85624478D01*
X101959164Y-85664057D01*
X101979229Y-85712497D01*
X102005475Y-85761600D01*
X102024147Y-85796533D01*
X102026868Y-85801937D01*
X102067619Y-85888097D01*
X102073683Y-85898214D01*
X102116602Y-85969820D01*
X102119602Y-85975116D01*
X102164517Y-86059148D01*
X102189240Y-86096148D01*
X102211064Y-86128810D01*
X102217448Y-86138363D01*
X102220704Y-86143505D01*
X102269696Y-86225243D01*
X102302919Y-86270038D01*
X102326443Y-86301757D01*
X102326451Y-86301767D01*
X102329956Y-86306744D01*
X102382883Y-86385956D01*
X102382893Y-86385970D01*
X102443344Y-86459630D01*
X102447087Y-86464427D01*
X102503840Y-86540949D01*
X102567830Y-86611551D01*
X102571801Y-86616154D01*
X102632250Y-86689812D01*
X102699648Y-86757210D01*
X102703826Y-86761599D01*
X102767807Y-86832192D01*
X102838400Y-86896173D01*
X102842808Y-86900370D01*
X109080241Y-93137802D01*
X109080283Y-93137846D01*
X109360182Y-93417745D01*
X109360187Y-93417749D01*
X109360188Y-93417750D01*
X109664031Y-93667107D01*
X109990851Y-93885482D01*
X109990860Y-93885487D01*
X109990862Y-93885488D01*
X110337495Y-94070767D01*
X110337497Y-94070767D01*
X110337503Y-94070771D01*
X110516148Y-94144768D01*
X110700640Y-94221188D01*
X110700644Y-94221189D01*
X110700646Y-94221190D01*
X111076785Y-94335291D01*
X111076791Y-94335292D01*
X111076794Y-94335293D01*
X111076805Y-94335296D01*
X111292240Y-94378147D01*
X111462296Y-94411973D01*
X111853468Y-94450500D01*
X115138832Y-94450500D01*
X115205871Y-94470185D01*
X115226513Y-94486819D01*
X115489297Y-94749603D01*
X115504718Y-94768393D01*
X115683856Y-95036491D01*
X115683866Y-95036505D01*
X115902051Y-95302365D01*
X116145234Y-95545548D01*
X116145239Y-95545552D01*
X116145240Y-95545553D01*
X116411100Y-95763738D01*
X116697065Y-95954814D01*
X116697074Y-95954819D01*
X116697076Y-95954820D01*
X117000373Y-96116936D01*
X117000375Y-96116936D01*
X117000381Y-96116940D01*
X117318129Y-96248555D01*
X117647247Y-96348392D01*
X117984565Y-96415489D01*
X118326836Y-96449200D01*
X123651954Y-96449200D01*
X123718993Y-96468885D01*
X123755055Y-96504307D01*
X123782893Y-96545969D01*
X123782895Y-96545971D01*
X123843344Y-96619630D01*
X123847087Y-96624427D01*
X123903840Y-96700949D01*
X123967830Y-96771551D01*
X123971801Y-96776154D01*
X124032250Y-96849812D01*
X124099649Y-96917211D01*
X124103827Y-96921600D01*
X124167807Y-96992192D01*
X124238398Y-97056171D01*
X124242786Y-97060348D01*
X124310188Y-97127750D01*
X124363081Y-97171158D01*
X124383838Y-97188193D01*
X124388446Y-97192168D01*
X124459049Y-97256159D01*
X124535573Y-97312913D01*
X124540371Y-97316657D01*
X124614027Y-97377105D01*
X124614032Y-97377109D01*
X124693247Y-97430038D01*
X124698220Y-97433539D01*
X124774761Y-97490306D01*
X124856511Y-97539305D01*
X124861576Y-97542511D01*
X124940851Y-97595482D01*
X125024927Y-97640421D01*
X125030143Y-97643376D01*
X125111903Y-97692381D01*
X125198026Y-97733114D01*
X125198043Y-97733122D01*
X125203461Y-97735849D01*
X125287503Y-97780771D01*
X125375213Y-97817101D01*
X125375529Y-97817232D01*
X125381077Y-97819691D01*
X125467228Y-97860438D01*
X125556962Y-97892544D01*
X125562606Y-97894721D01*
X125650647Y-97931190D01*
X125741825Y-97958848D01*
X125741832Y-97958850D01*
X125747606Y-97960758D01*
X125837316Y-97992857D01*
X125929771Y-98016015D01*
X125935576Y-98017621D01*
X126026785Y-98045290D01*
X126120242Y-98063879D01*
X126126154Y-98065207D01*
X126218600Y-98088364D01*
X126312887Y-98102349D01*
X126318823Y-98103379D01*
X126412297Y-98121973D01*
X126412304Y-98121973D01*
X126412306Y-98121974D01*
X126412302Y-98121974D01*
X126451747Y-98125858D01*
X126507131Y-98131312D01*
X126513111Y-98132049D01*
X126607409Y-98146038D01*
X126702607Y-98150714D01*
X126708622Y-98151157D01*
X126803468Y-98160500D01*
X126898735Y-98160500D01*
X126904818Y-98160648D01*
X127000000Y-98165325D01*
X127095181Y-98160648D01*
X127101265Y-98160500D01*
X127196527Y-98160500D01*
X127196532Y-98160500D01*
X127291379Y-98151157D01*
X127297388Y-98150714D01*
X127392591Y-98146038D01*
X127486892Y-98132048D01*
X127492862Y-98131313D01*
X127568092Y-98123904D01*
X127587695Y-98121974D01*
X127587697Y-98121973D01*
X127587703Y-98121973D01*
X127681182Y-98103378D01*
X127687104Y-98102350D01*
X127781400Y-98088364D01*
X127873857Y-98065203D01*
X127879744Y-98063881D01*
X127973215Y-98045290D01*
X128064428Y-98017619D01*
X128070231Y-98016014D01*
X128162684Y-97992857D01*
X128252414Y-97960750D01*
X128258167Y-97958850D01*
X128349353Y-97931190D01*
X128437371Y-97894731D01*
X128437381Y-97894727D01*
X128443037Y-97892544D01*
X128532772Y-97860438D01*
X128618948Y-97819678D01*
X128624432Y-97817247D01*
X128712497Y-97780771D01*
X128796552Y-97735841D01*
X128801954Y-97733122D01*
X128888097Y-97692381D01*
X128969838Y-97643386D01*
X128975113Y-97640399D01*
X128990490Y-97632180D01*
X129059149Y-97595482D01*
X129128183Y-97549353D01*
X129138384Y-97542538D01*
X129143513Y-97539289D01*
X129225239Y-97490306D01*
X129301763Y-97433551D01*
X129306734Y-97430050D01*
X129351962Y-97399829D01*
X129385969Y-97377107D01*
X129459648Y-97316639D01*
X129464385Y-97312942D01*
X129540951Y-97256158D01*
X129611562Y-97192158D01*
X129616115Y-97188229D01*
X129689812Y-97127750D01*
X129757222Y-97060338D01*
X129761566Y-97056202D01*
X129832192Y-96992192D01*
X129896202Y-96921566D01*
X129900338Y-96917222D01*
X129967750Y-96849812D01*
X130028229Y-96776115D01*
X130032168Y-96771551D01*
X130096158Y-96700951D01*
X130152942Y-96624385D01*
X130156639Y-96619648D01*
X130217107Y-96545969D01*
X130255774Y-96488099D01*
X130270050Y-96466734D01*
X130273556Y-96461756D01*
X130330306Y-96385239D01*
X130379289Y-96303513D01*
X130382538Y-96298384D01*
X130415833Y-96248555D01*
X130435482Y-96219149D01*
X130480402Y-96135106D01*
X130483386Y-96129838D01*
X130532381Y-96048097D01*
X130573122Y-95961954D01*
X130575841Y-95956552D01*
X130620771Y-95872497D01*
X130657247Y-95784432D01*
X130659678Y-95778948D01*
X130700438Y-95692772D01*
X130732544Y-95603037D01*
X130734727Y-95597381D01*
X130771187Y-95509360D01*
X130771186Y-95509360D01*
X130771190Y-95509353D01*
X130798851Y-95418162D01*
X130800750Y-95412414D01*
X130832857Y-95322684D01*
X130856014Y-95230231D01*
X130857619Y-95224428D01*
X130885290Y-95133215D01*
X130903881Y-95039744D01*
X130905203Y-95033857D01*
X130928364Y-94941400D01*
X130942350Y-94847104D01*
X130943378Y-94841182D01*
X130961973Y-94747703D01*
X130971313Y-94652862D01*
X130972048Y-94646892D01*
X130986038Y-94552591D01*
X130990714Y-94457388D01*
X130991157Y-94451379D01*
X131000500Y-94356532D01*
X131000500Y-94261264D01*
X131000649Y-94255180D01*
X131005325Y-94160000D01*
X131000648Y-94064818D01*
X131000500Y-94058735D01*
X131000500Y-92752271D01*
X130984301Y-92587802D01*
X130961973Y-92361097D01*
X130943818Y-92269825D01*
X130885295Y-91975605D01*
X130885292Y-91975594D01*
X130885291Y-91975591D01*
X130885290Y-91975585D01*
X130771190Y-91599447D01*
X130620771Y-91236303D01*
X130570763Y-91142745D01*
X130435488Y-90889662D01*
X130435487Y-90889660D01*
X130435482Y-90889651D01*
X130217107Y-90562831D01*
X129967750Y-90258988D01*
X129967749Y-90258987D01*
X129967745Y-90258982D01*
X129689817Y-89981054D01*
X129385974Y-89731697D01*
X129385973Y-89731696D01*
X129385969Y-89731693D01*
X129084434Y-89530213D01*
X129059155Y-89513322D01*
X129059154Y-89513321D01*
X129059149Y-89513318D01*
X129059144Y-89513315D01*
X129059137Y-89513311D01*
X128712504Y-89328032D01*
X128712499Y-89328030D01*
X128712489Y-89328026D01*
X128518684Y-89247749D01*
X128349354Y-89177610D01*
X127973205Y-89063507D01*
X127973194Y-89063504D01*
X127587702Y-88986826D01*
X127293089Y-88957810D01*
X127196532Y-88948300D01*
X126803468Y-88948300D01*
X126714251Y-88957087D01*
X126412297Y-88986826D01*
X126026805Y-89063504D01*
X126026794Y-89063507D01*
X125650645Y-89177610D01*
X125287509Y-89328026D01*
X125287495Y-89328033D01*
X125089697Y-89433758D01*
X125031244Y-89448400D01*
X121287863Y-89448400D01*
X121220824Y-89428715D01*
X121175069Y-89375911D01*
X121164767Y-89339349D01*
X121160391Y-89303302D01*
X121080759Y-88980222D01*
X120962765Y-88669096D01*
X120935481Y-88617112D01*
X120900910Y-88551242D01*
X120808128Y-88374462D01*
X120708512Y-88230143D01*
X120619107Y-88100616D01*
X120619102Y-88100610D01*
X120398453Y-87851548D01*
X120398451Y-87851546D01*
X120149389Y-87630897D01*
X120149383Y-87630892D01*
X119906214Y-87463046D01*
X119875538Y-87441872D01*
X119875525Y-87441865D01*
X119580911Y-87287238D01*
X119580906Y-87287236D01*
X119580904Y-87287235D01*
X119494386Y-87254423D01*
X119269783Y-87169242D01*
X119269778Y-87169241D01*
X118946698Y-87089609D01*
X118748504Y-87065543D01*
X118616377Y-87049500D01*
X118616375Y-87049500D01*
X118149118Y-87049500D01*
X118082079Y-87029815D01*
X118080227Y-87028602D01*
X118059155Y-87014522D01*
X118059154Y-87014521D01*
X118059149Y-87014518D01*
X118059144Y-87014515D01*
X118059137Y-87014511D01*
X117712504Y-86829232D01*
X117712499Y-86829230D01*
X117639155Y-86798850D01*
X117549224Y-86761599D01*
X117349354Y-86678810D01*
X116973205Y-86564707D01*
X116973194Y-86564704D01*
X116587702Y-86488026D01*
X116293089Y-86459010D01*
X116196532Y-86449500D01*
X116196529Y-86449500D01*
X113758423Y-86449500D01*
X113691384Y-86429815D01*
X113670742Y-86413181D01*
X108500370Y-81242808D01*
X108496173Y-81238400D01*
X108432192Y-81167807D01*
X108361599Y-81103826D01*
X108357204Y-81099642D01*
X108289812Y-81032250D01*
X108216154Y-80971801D01*
X108211551Y-80967830D01*
X108140949Y-80903840D01*
X108064427Y-80847087D01*
X108059630Y-80843344D01*
X107985970Y-80782893D01*
X107985956Y-80782883D01*
X107906744Y-80729956D01*
X107901767Y-80726451D01*
X107901760Y-80726446D01*
X107884022Y-80713290D01*
X107825243Y-80669696D01*
X107743505Y-80620704D01*
X107738377Y-80617457D01*
X107693847Y-80587703D01*
X107659148Y-80564517D01*
X107575116Y-80519602D01*
X107569820Y-80516602D01*
X107488100Y-80467621D01*
X107488101Y-80467621D01*
X107488097Y-80467619D01*
X107401937Y-80426868D01*
X107396533Y-80424147D01*
X107337514Y-80392601D01*
X107312497Y-80379229D01*
X107264057Y-80359164D01*
X107224478Y-80342770D01*
X107218915Y-80340304D01*
X107132780Y-80299566D01*
X107132770Y-80299561D01*
X107103778Y-80289188D01*
X107043043Y-80267456D01*
X107037387Y-80265274D01*
X106949354Y-80228810D01*
X106949348Y-80228808D01*
X106858168Y-80201148D01*
X106852391Y-80199240D01*
X106762688Y-80167144D01*
X106762668Y-80167138D01*
X106670264Y-80143991D01*
X106664402Y-80142369D01*
X106573216Y-80114709D01*
X106573208Y-80114707D01*
X106518507Y-80103827D01*
X106479742Y-80096116D01*
X106473829Y-80094788D01*
X106381401Y-80071636D01*
X106287142Y-80057653D01*
X106281151Y-80056613D01*
X106216840Y-80043822D01*
X106187703Y-80038027D01*
X106187699Y-80038026D01*
X106187691Y-80038025D01*
X106092888Y-80028688D01*
X106086848Y-80027943D01*
X105992601Y-80013963D01*
X105992596Y-80013962D01*
X105992591Y-80013962D01*
X105897412Y-80009286D01*
X105891343Y-80008838D01*
X105891333Y-80008837D01*
X105796532Y-79999500D01*
X105796529Y-79999500D01*
X105701265Y-79999500D01*
X105695181Y-79999351D01*
X105600000Y-79994675D01*
X105504819Y-79999351D01*
X105498735Y-79999500D01*
X105403468Y-79999500D01*
X105354301Y-80004342D01*
X105308654Y-80008838D01*
X105302586Y-80009286D01*
X105207409Y-80013962D01*
X105207404Y-80013962D01*
X105207398Y-80013963D01*
X105113153Y-80027943D01*
X105107113Y-80028688D01*
X105012304Y-80038025D01*
X104918847Y-80056613D01*
X104912856Y-80057653D01*
X104846570Y-80067486D01*
X104818600Y-80071636D01*
X104818597Y-80071636D01*
X104818588Y-80071638D01*
X104726171Y-80094787D01*
X104720235Y-80096120D01*
X104651830Y-80109727D01*
X104626786Y-80114709D01*
X104626784Y-80114709D01*
X104626782Y-80114710D01*
X104535601Y-80142368D01*
X104529740Y-80143990D01*
X104437327Y-80167139D01*
X104437304Y-80167146D01*
X104347588Y-80199246D01*
X104341812Y-80201154D01*
X104250662Y-80228804D01*
X104250639Y-80228812D01*
X104162625Y-80265269D01*
X104156948Y-80267459D01*
X104067242Y-80299556D01*
X104067224Y-80299563D01*
X103981091Y-80340301D01*
X103975529Y-80342767D01*
X103887503Y-80379229D01*
X103887493Y-80379234D01*
X103803463Y-80424147D01*
X103798031Y-80426882D01*
X103711903Y-80467619D01*
X103630177Y-80516603D01*
X103624883Y-80519602D01*
X103540845Y-80564521D01*
X103461627Y-80617452D01*
X103456489Y-80620706D01*
X103374768Y-80669689D01*
X103374759Y-80669695D01*
X103298238Y-80726446D01*
X103293265Y-80729948D01*
X103214040Y-80782886D01*
X103214029Y-80782894D01*
X103140378Y-80843337D01*
X103135582Y-80847080D01*
X103059045Y-80903844D01*
X102988454Y-80967824D01*
X102983848Y-80971797D01*
X102910189Y-81032248D01*
X102842793Y-81099642D01*
X102838389Y-81103836D01*
X102767808Y-81167808D01*
X102703836Y-81238389D01*
X102699642Y-81242793D01*
X102632248Y-81310189D01*
X102571797Y-81383848D01*
X102567824Y-81388454D01*
X102503844Y-81459045D01*
X102447080Y-81535582D01*
X102443337Y-81540378D01*
X102382894Y-81614029D01*
X102382886Y-81614040D01*
X102329948Y-81693265D01*
X102326446Y-81698238D01*
X102269695Y-81774759D01*
X102269689Y-81774768D01*
X102220706Y-81856489D01*
X102217452Y-81861627D01*
X102164521Y-81940845D01*
X102119602Y-82024883D01*
X102116603Y-82030177D01*
X102067619Y-82111903D01*
X102026882Y-82198031D01*
X102024147Y-82203463D01*
X101979234Y-82287493D01*
X101979229Y-82287503D01*
X101942767Y-82375529D01*
X101940301Y-82381091D01*
X101899563Y-82467224D01*
X101899556Y-82467242D01*
X101867459Y-82556948D01*
X101865269Y-82562625D01*
X101828812Y-82650639D01*
X101828804Y-82650662D01*
X101801154Y-82741812D01*
X101799246Y-82747588D01*
X101767146Y-82837304D01*
X101767139Y-82837327D01*
X101743990Y-82929740D01*
X101742368Y-82935601D01*
X101714710Y-83026782D01*
X101696120Y-83120235D01*
X101694787Y-83126171D01*
X101671638Y-83218588D01*
X101657653Y-83312856D01*
X101656613Y-83318847D01*
X101638025Y-83412304D01*
X101628688Y-83507113D01*
X101627943Y-83513153D01*
X101613963Y-83607398D01*
X101609286Y-83702587D01*
X101608838Y-83708654D01*
X101601673Y-83781410D01*
X101599500Y-83803470D01*
X101599500Y-83898735D01*
X101599351Y-83904819D01*
X101594675Y-83999999D01*
X95005325Y-83999999D01*
X95000649Y-83904838D01*
X95000501Y-83898755D01*
X95000501Y-83803472D01*
X94998328Y-83781410D01*
X94991157Y-83708608D01*
X94990714Y-83702597D01*
X94986038Y-83607409D01*
X94972053Y-83513136D01*
X94971311Y-83507115D01*
X94969909Y-83492884D01*
X94961973Y-83412297D01*
X94943382Y-83318838D01*
X94942346Y-83312869D01*
X94928364Y-83218600D01*
X94928361Y-83218588D01*
X94928360Y-83218581D01*
X94905211Y-83126169D01*
X94903887Y-83120276D01*
X94885291Y-83026785D01*
X94857614Y-82935550D01*
X94856007Y-82929740D01*
X94832857Y-82837316D01*
X94800757Y-82747606D01*
X94798853Y-82741841D01*
X94786946Y-82702587D01*
X94771190Y-82650646D01*
X94734719Y-82562601D01*
X94732533Y-82556931D01*
X94700438Y-82467228D01*
X94659692Y-82381079D01*
X94657233Y-82375531D01*
X94631272Y-82312855D01*
X94620771Y-82287503D01*
X94575850Y-82203463D01*
X94573123Y-82198045D01*
X94542311Y-82132899D01*
X94532381Y-82111903D01*
X94525815Y-82100949D01*
X94483401Y-82030186D01*
X94480400Y-82024889D01*
X94435483Y-81940854D01*
X94435477Y-81940845D01*
X94382529Y-81861602D01*
X94379309Y-81856519D01*
X94330306Y-81774761D01*
X94330301Y-81774754D01*
X94273540Y-81698220D01*
X94270036Y-81693244D01*
X94217109Y-81614032D01*
X94217105Y-81614027D01*
X94156657Y-81540371D01*
X94152913Y-81535573D01*
X94096159Y-81459049D01*
X94032168Y-81388446D01*
X94028193Y-81383838D01*
X94000012Y-81349500D01*
X93967750Y-81310188D01*
X93900348Y-81242786D01*
X93896171Y-81238398D01*
X93832192Y-81167807D01*
X93761600Y-81103827D01*
X93757204Y-81099642D01*
X93689812Y-81032250D01*
X93616154Y-80971801D01*
X93611551Y-80967830D01*
X93540949Y-80903840D01*
X93464427Y-80847087D01*
X93459630Y-80843344D01*
X93385970Y-80782893D01*
X93385956Y-80782883D01*
X93306744Y-80729956D01*
X93301767Y-80726451D01*
X93301760Y-80726446D01*
X93284022Y-80713290D01*
X93225243Y-80669696D01*
X93143505Y-80620704D01*
X93138377Y-80617457D01*
X93093847Y-80587703D01*
X93059148Y-80564517D01*
X92975116Y-80519602D01*
X92969820Y-80516602D01*
X92888100Y-80467621D01*
X92888101Y-80467621D01*
X92888097Y-80467619D01*
X92801937Y-80426868D01*
X92796533Y-80424147D01*
X92712505Y-80379233D01*
X92712502Y-80379232D01*
X92712497Y-80379229D01*
X92624469Y-80342766D01*
X92618913Y-80340303D01*
X92532780Y-80299566D01*
X92532772Y-80299562D01*
X92526763Y-80297412D01*
X92443052Y-80267459D01*
X92437374Y-80265269D01*
X92349355Y-80228810D01*
X92258149Y-80201142D01*
X92252379Y-80199236D01*
X92162684Y-80167143D01*
X92162679Y-80167141D01*
X92162677Y-80167141D01*
X92070270Y-80143993D01*
X92064407Y-80142371D01*
X91973224Y-80114711D01*
X91973216Y-80114709D01*
X91973215Y-80114709D01*
X91918554Y-80103836D01*
X91879760Y-80096119D01*
X91873823Y-80094786D01*
X91781409Y-80071637D01*
X91687132Y-80057652D01*
X91681138Y-80056612D01*
X91587704Y-80038027D01*
X91587705Y-80038027D01*
X91511300Y-80030501D01*
X91492875Y-80028686D01*
X91486841Y-80027942D01*
X91477737Y-80026592D01*
X91392589Y-80013961D01*
X91392590Y-80013961D01*
X91297422Y-80009284D01*
X91291357Y-80008837D01*
X91213570Y-80001177D01*
X91196532Y-79999499D01*
X91196530Y-79999499D01*
X91101245Y-79999499D01*
X91095161Y-79999350D01*
X91000000Y-79994675D01*
X90904839Y-79999350D01*
X90898755Y-79999499D01*
X90803468Y-79999499D01*
X90787874Y-80001034D01*
X90708641Y-80008837D01*
X90702577Y-80009284D01*
X90607408Y-80013961D01*
X90607403Y-80013962D01*
X90513159Y-80027941D01*
X90507122Y-80028686D01*
X90412302Y-80038026D01*
X90318847Y-80056613D01*
X90312856Y-80057653D01*
X90246570Y-80067486D01*
X90218600Y-80071636D01*
X90218597Y-80071636D01*
X90218588Y-80071638D01*
X90126171Y-80094787D01*
X90120235Y-80096120D01*
X90051830Y-80109727D01*
X90026786Y-80114709D01*
X90026784Y-80114709D01*
X90026782Y-80114710D01*
X89935601Y-80142368D01*
X89929740Y-80143990D01*
X89837327Y-80167139D01*
X89837304Y-80167146D01*
X89747588Y-80199246D01*
X89741812Y-80201154D01*
X89650662Y-80228804D01*
X89650639Y-80228812D01*
X89562625Y-80265269D01*
X89556948Y-80267459D01*
X89467242Y-80299556D01*
X89467224Y-80299563D01*
X89381091Y-80340301D01*
X89375529Y-80342767D01*
X89287503Y-80379229D01*
X89287493Y-80379234D01*
X89203463Y-80424147D01*
X89198031Y-80426882D01*
X89111903Y-80467619D01*
X89030177Y-80516603D01*
X89024883Y-80519602D01*
X88940845Y-80564521D01*
X88861627Y-80617452D01*
X88856489Y-80620706D01*
X88774768Y-80669689D01*
X88774759Y-80669695D01*
X88698238Y-80726446D01*
X88693265Y-80729948D01*
X88614040Y-80782886D01*
X88614031Y-80782892D01*
X88540370Y-80843343D01*
X88535575Y-80847085D01*
X88459045Y-80903844D01*
X88388447Y-80967830D01*
X88383841Y-80971803D01*
X88310190Y-81032248D01*
X88242804Y-81099632D01*
X88238400Y-81103826D01*
X88167808Y-81167808D01*
X88103817Y-81238410D01*
X88099621Y-81242816D01*
X86087681Y-83254757D01*
X86026358Y-83288242D01*
X85956666Y-83283258D01*
X85912319Y-83254757D01*
X82217562Y-79560000D01*
X122994675Y-79560000D01*
X122997581Y-79619144D01*
X122999351Y-79655180D01*
X122999500Y-79661264D01*
X122999500Y-79756532D01*
X123008050Y-79843343D01*
X123008838Y-79851343D01*
X123009286Y-79857412D01*
X123013962Y-79952591D01*
X123013962Y-79952596D01*
X123013963Y-79952601D01*
X123027943Y-80046848D01*
X123028688Y-80052888D01*
X123038025Y-80147691D01*
X123038027Y-80147701D01*
X123056613Y-80241151D01*
X123057653Y-80247142D01*
X123071636Y-80341401D01*
X123094788Y-80433829D01*
X123096116Y-80439742D01*
X123099956Y-80459045D01*
X123114707Y-80533208D01*
X123114709Y-80533216D01*
X123142369Y-80624402D01*
X123143991Y-80630264D01*
X123167138Y-80722668D01*
X123167144Y-80722688D01*
X123199240Y-80812391D01*
X123201148Y-80818168D01*
X123228808Y-80909348D01*
X123228810Y-80909354D01*
X123265274Y-80997387D01*
X123267456Y-81003043D01*
X123277907Y-81032250D01*
X123299561Y-81092770D01*
X123299566Y-81092780D01*
X123340304Y-81178915D01*
X123342770Y-81184478D01*
X123379229Y-81272497D01*
X123387250Y-81287503D01*
X123424147Y-81356533D01*
X123426868Y-81361937D01*
X123467619Y-81448097D01*
X123477572Y-81464703D01*
X123516602Y-81529820D01*
X123519602Y-81535116D01*
X123564517Y-81619148D01*
X123599875Y-81672064D01*
X123614041Y-81693265D01*
X123617448Y-81698363D01*
X123620704Y-81703505D01*
X123669696Y-81785243D01*
X123708308Y-81837304D01*
X123722536Y-81856489D01*
X123726451Y-81861767D01*
X123729956Y-81866744D01*
X123782883Y-81945956D01*
X123782893Y-81945970D01*
X123843344Y-82019630D01*
X123847087Y-82024427D01*
X123903840Y-82100949D01*
X123967830Y-82171551D01*
X123971801Y-82176154D01*
X124032250Y-82249812D01*
X124099649Y-82317211D01*
X124103827Y-82321600D01*
X124167807Y-82392192D01*
X124238399Y-82456172D01*
X124242807Y-82460369D01*
X129872250Y-88089812D01*
X130150182Y-88367745D01*
X130150187Y-88367749D01*
X130150188Y-88367750D01*
X130454031Y-88617107D01*
X130780851Y-88835482D01*
X130898563Y-88898400D01*
X131127502Y-89020771D01*
X131490646Y-89171190D01*
X131743031Y-89247750D01*
X131801469Y-89286047D01*
X131829925Y-89349859D01*
X131830131Y-89381357D01*
X131799500Y-89633622D01*
X131799500Y-91266376D01*
X131818832Y-91425585D01*
X131839609Y-91596698D01*
X131893755Y-91816377D01*
X131919241Y-91919778D01*
X131919242Y-91919783D01*
X131984491Y-92091829D01*
X132037235Y-92230904D01*
X132037237Y-92230908D01*
X132037238Y-92230910D01*
X132037238Y-92230911D01*
X132191865Y-92525525D01*
X132191871Y-92525536D01*
X132380892Y-92799383D01*
X132380897Y-92799389D01*
X132601546Y-93048451D01*
X132601548Y-93048453D01*
X132850610Y-93269102D01*
X132850616Y-93269107D01*
X132955989Y-93341840D01*
X133124462Y-93458128D01*
X133419096Y-93612765D01*
X133661176Y-93704573D01*
X133730216Y-93730757D01*
X133730217Y-93730757D01*
X133730222Y-93730759D01*
X134053302Y-93810391D01*
X134383625Y-93850500D01*
X134850880Y-93850499D01*
X134917919Y-93870183D01*
X134919770Y-93871396D01*
X134940844Y-93885477D01*
X134940851Y-93885482D01*
X134940853Y-93885483D01*
X134940862Y-93885488D01*
X135287495Y-94070767D01*
X135287497Y-94070767D01*
X135287503Y-94070771D01*
X135650647Y-94221190D01*
X136026785Y-94335290D01*
X136026791Y-94335291D01*
X136026794Y-94335292D01*
X136026805Y-94335295D01*
X136412287Y-94411971D01*
X136412297Y-94411973D01*
X136803468Y-94450500D01*
X136803471Y-94450500D01*
X137196529Y-94450500D01*
X137196532Y-94450500D01*
X137587703Y-94411973D01*
X137662748Y-94397045D01*
X137973194Y-94335295D01*
X137973205Y-94335292D01*
X137973205Y-94335291D01*
X137973215Y-94335290D01*
X138349353Y-94221190D01*
X138712497Y-94070771D01*
X139059149Y-93885482D01*
X139080229Y-93871396D01*
X139146905Y-93850519D01*
X139149119Y-93850499D01*
X139616377Y-93850499D01*
X139685986Y-93842046D01*
X139946698Y-93810391D01*
X140269778Y-93730759D01*
X140580904Y-93612765D01*
X140875538Y-93458128D01*
X141149386Y-93269105D01*
X141367878Y-93075538D01*
X141398451Y-93048453D01*
X141398453Y-93048451D01*
X141619102Y-92799389D01*
X141619105Y-92799386D01*
X141808128Y-92525538D01*
X141962765Y-92230904D01*
X142080759Y-91919778D01*
X142160391Y-91596698D01*
X142200500Y-91266375D01*
X142200499Y-89633626D01*
X142200498Y-89633621D01*
X142187944Y-89530222D01*
X142160391Y-89303302D01*
X142080759Y-88980222D01*
X141962765Y-88669096D01*
X141935481Y-88617112D01*
X141900910Y-88551242D01*
X141808128Y-88374462D01*
X141708512Y-88230143D01*
X141619107Y-88100616D01*
X141619102Y-88100610D01*
X141398453Y-87851548D01*
X141398451Y-87851546D01*
X141149391Y-87630899D01*
X141149388Y-87630897D01*
X141149386Y-87630895D01*
X141054059Y-87565095D01*
X141010070Y-87510813D01*
X141000500Y-87463046D01*
X141000500Y-87108422D01*
X141020185Y-87041383D01*
X141036814Y-87020745D01*
X142157201Y-85900359D01*
X142161579Y-85896191D01*
X142232196Y-85832188D01*
X142264512Y-85796532D01*
X142296193Y-85761576D01*
X142300359Y-85757201D01*
X142367750Y-85689811D01*
X142428223Y-85616122D01*
X142432149Y-85611572D01*
X142496158Y-85540951D01*
X142552944Y-85464382D01*
X142556640Y-85459646D01*
X142617107Y-85385969D01*
X142670057Y-85306722D01*
X142673521Y-85301803D01*
X142730306Y-85225239D01*
X142779295Y-85143503D01*
X142782539Y-85138380D01*
X142835482Y-85059148D01*
X142880401Y-84975109D01*
X142883397Y-84969821D01*
X142932374Y-84888108D01*
X142932381Y-84888097D01*
X142973123Y-84801952D01*
X142975842Y-84796550D01*
X143020771Y-84712497D01*
X143057247Y-84624432D01*
X143059678Y-84618948D01*
X143100438Y-84532772D01*
X143132544Y-84443037D01*
X143134727Y-84437381D01*
X143171187Y-84349360D01*
X143171186Y-84349360D01*
X143171190Y-84349353D01*
X143198852Y-84258159D01*
X143200755Y-84252400D01*
X143232857Y-84162684D01*
X143256015Y-84070227D01*
X143257613Y-84064452D01*
X143285291Y-83973214D01*
X143303883Y-83879740D01*
X143305208Y-83873839D01*
X143328364Y-83781400D01*
X143342350Y-83687107D01*
X143343385Y-83681151D01*
X143361973Y-83587703D01*
X143371312Y-83492868D01*
X143372055Y-83486850D01*
X143386038Y-83392591D01*
X143390714Y-83297398D01*
X143391157Y-83291393D01*
X143400501Y-83196532D01*
X143400501Y-83101244D01*
X143400650Y-83095160D01*
X143405325Y-83000000D01*
X143405325Y-82999999D01*
X149994675Y-82999999D01*
X149999351Y-83095180D01*
X149999500Y-83101244D01*
X149999500Y-83196532D01*
X150005235Y-83254757D01*
X150008838Y-83291343D01*
X150009286Y-83297412D01*
X150013962Y-83392591D01*
X150013962Y-83392596D01*
X150013963Y-83392601D01*
X150027943Y-83486848D01*
X150028688Y-83492888D01*
X150038025Y-83587691D01*
X150038026Y-83587695D01*
X150038027Y-83587703D01*
X150041944Y-83607398D01*
X150056613Y-83681151D01*
X150057653Y-83687142D01*
X150071636Y-83781401D01*
X150094788Y-83873829D01*
X150096116Y-83879742D01*
X150104433Y-83921555D01*
X150114707Y-83973208D01*
X150114709Y-83973216D01*
X150142369Y-84064402D01*
X150143991Y-84070264D01*
X150167138Y-84162668D01*
X150167144Y-84162688D01*
X150199240Y-84252391D01*
X150201148Y-84258168D01*
X150228808Y-84349348D01*
X150228810Y-84349354D01*
X150265274Y-84437387D01*
X150267456Y-84443043D01*
X150283128Y-84486841D01*
X150299561Y-84532770D01*
X150299566Y-84532780D01*
X150340304Y-84618915D01*
X150342770Y-84624478D01*
X150359164Y-84664057D01*
X150379229Y-84712497D01*
X150379233Y-84712504D01*
X150424147Y-84796533D01*
X150426868Y-84801937D01*
X150467619Y-84888097D01*
X150467621Y-84888100D01*
X150516602Y-84969820D01*
X150519602Y-84975116D01*
X150564517Y-85059148D01*
X150617448Y-85138363D01*
X150620704Y-85143505D01*
X150669696Y-85225243D01*
X150694117Y-85258170D01*
X150726443Y-85301757D01*
X150726451Y-85301767D01*
X150729956Y-85306744D01*
X150782883Y-85385956D01*
X150782893Y-85385970D01*
X150843344Y-85459630D01*
X150847087Y-85464427D01*
X150903840Y-85540949D01*
X150967830Y-85611551D01*
X150971801Y-85616154D01*
X151032250Y-85689812D01*
X151099649Y-85757211D01*
X151103827Y-85761600D01*
X151167807Y-85832192D01*
X151238399Y-85896172D01*
X151242807Y-85900369D01*
X156207250Y-90864812D01*
X156485182Y-91142745D01*
X156485187Y-91142749D01*
X156485188Y-91142750D01*
X156789031Y-91392107D01*
X157115851Y-91610482D01*
X157115860Y-91610487D01*
X157115862Y-91610488D01*
X157462495Y-91795767D01*
X157462497Y-91795767D01*
X157462503Y-91795771D01*
X157683824Y-91887445D01*
X157825640Y-91946188D01*
X157825644Y-91946189D01*
X157825646Y-91946190D01*
X158201785Y-92060291D01*
X158201791Y-92060292D01*
X158201794Y-92060293D01*
X158201805Y-92060296D01*
X158417241Y-92103147D01*
X158587297Y-92136973D01*
X158978468Y-92175500D01*
X160749560Y-92175500D01*
X160816599Y-92195185D01*
X160862354Y-92247989D01*
X160869957Y-92269825D01*
X160919241Y-92469778D01*
X160919242Y-92469783D01*
X160984491Y-92641829D01*
X161037235Y-92780904D01*
X161037237Y-92780908D01*
X161037238Y-92780910D01*
X161037238Y-92780911D01*
X161191865Y-93075525D01*
X161191872Y-93075538D01*
X161234850Y-93137802D01*
X161380892Y-93349383D01*
X161380897Y-93349389D01*
X161601546Y-93598451D01*
X161601548Y-93598453D01*
X161850610Y-93819102D01*
X161850616Y-93819107D01*
X161968535Y-93900500D01*
X162124462Y-94008128D01*
X162301242Y-94100910D01*
X162413827Y-94160000D01*
X162419096Y-94162765D01*
X162661176Y-94254573D01*
X162730216Y-94280757D01*
X162730217Y-94280757D01*
X162730222Y-94280759D01*
X163053302Y-94360391D01*
X163383625Y-94400500D01*
X163850880Y-94400499D01*
X163917919Y-94420183D01*
X163919770Y-94421396D01*
X163940848Y-94435480D01*
X163940851Y-94435482D01*
X163940853Y-94435483D01*
X163940862Y-94435488D01*
X164287495Y-94620767D01*
X164287497Y-94620767D01*
X164287503Y-94620771D01*
X164650647Y-94771190D01*
X165026785Y-94885290D01*
X165026791Y-94885291D01*
X165026794Y-94885292D01*
X165026805Y-94885295D01*
X165412297Y-94961973D01*
X165803468Y-95000500D01*
X165803471Y-95000500D01*
X166196529Y-95000500D01*
X166196532Y-95000500D01*
X166587703Y-94961973D01*
X166691156Y-94941395D01*
X166973194Y-94885295D01*
X166973205Y-94885292D01*
X166973205Y-94885291D01*
X166973215Y-94885290D01*
X167349353Y-94771190D01*
X167712497Y-94620771D01*
X168059149Y-94435482D01*
X168080229Y-94421396D01*
X168146905Y-94400519D01*
X168149119Y-94400499D01*
X168616377Y-94400499D01*
X168685986Y-94392046D01*
X168946698Y-94360391D01*
X169269778Y-94280759D01*
X169580904Y-94162765D01*
X169875538Y-94008128D01*
X170149386Y-93819105D01*
X170336185Y-93653615D01*
X170398451Y-93598453D01*
X170398453Y-93598451D01*
X170541206Y-93437316D01*
X170619105Y-93349386D01*
X170808128Y-93075538D01*
X170962765Y-92780904D01*
X171080759Y-92469778D01*
X171160391Y-92146698D01*
X171200500Y-91816375D01*
X171200499Y-90183626D01*
X171160391Y-89853302D01*
X171080759Y-89530222D01*
X171078671Y-89524717D01*
X171076302Y-89518468D01*
X171070937Y-89448805D01*
X171104086Y-89387299D01*
X171165225Y-89353480D01*
X171192245Y-89350500D01*
X176196529Y-89350500D01*
X176196532Y-89350500D01*
X176587703Y-89311973D01*
X176662748Y-89297045D01*
X176973194Y-89235295D01*
X176973205Y-89235292D01*
X176973205Y-89235291D01*
X176973215Y-89235290D01*
X177349353Y-89121190D01*
X177712497Y-88970771D01*
X178059149Y-88785482D01*
X178385969Y-88567107D01*
X178689812Y-88317750D01*
X178967750Y-88039812D01*
X179217107Y-87735969D01*
X179435482Y-87409149D01*
X179620771Y-87062497D01*
X179771190Y-86699353D01*
X179885290Y-86323215D01*
X179885292Y-86323205D01*
X179885295Y-86323194D01*
X179947045Y-86012748D01*
X179961973Y-85937703D01*
X180000500Y-85546532D01*
X180000500Y-83893162D01*
X180020185Y-83826123D01*
X180026512Y-83817172D01*
X180072204Y-83758268D01*
X180232367Y-83487448D01*
X180357324Y-83198689D01*
X180401214Y-83047617D01*
X180445104Y-82896551D01*
X180445106Y-82896543D01*
X180494325Y-82585785D01*
X180494325Y-82585780D01*
X180500500Y-82454844D01*
X180500500Y-78245155D01*
X180496089Y-78151629D01*
X180494325Y-78114217D01*
X180494325Y-78114214D01*
X180445106Y-77803456D01*
X180445104Y-77803448D01*
X180357325Y-77501315D01*
X180357324Y-77501311D01*
X180232367Y-77212552D01*
X180072204Y-76941732D01*
X180072197Y-76941722D01*
X179879362Y-76693120D01*
X179656879Y-76470637D01*
X179408277Y-76277802D01*
X179408271Y-76277798D01*
X179408268Y-76277796D01*
X179182017Y-76143991D01*
X179137447Y-76117632D01*
X178848684Y-75992674D01*
X178546551Y-75904895D01*
X178546543Y-75904893D01*
X178235782Y-75855674D01*
X178104844Y-75849500D01*
X178104840Y-75849500D01*
X173895160Y-75849500D01*
X173895156Y-75849500D01*
X173764219Y-75855674D01*
X173764214Y-75855674D01*
X173453456Y-75904893D01*
X173453448Y-75904895D01*
X173151315Y-75992674D01*
X172862552Y-76117632D01*
X172724552Y-76199246D01*
X172591732Y-76277796D01*
X172591728Y-76277798D01*
X172591723Y-76277802D01*
X172591722Y-76277802D01*
X172343120Y-76470637D01*
X172343120Y-76470638D01*
X172120638Y-76693120D01*
X172120637Y-76693120D01*
X171927802Y-76941722D01*
X171927802Y-76941723D01*
X171927798Y-76941728D01*
X171927796Y-76941732D01*
X171882073Y-77019045D01*
X171767632Y-77212552D01*
X171642674Y-77501315D01*
X171554895Y-77803448D01*
X171554893Y-77803456D01*
X171505674Y-78114214D01*
X171505674Y-78114219D01*
X171499500Y-78245155D01*
X171499500Y-81225500D01*
X171479815Y-81292539D01*
X171427011Y-81338294D01*
X171375500Y-81349500D01*
X169021532Y-81349500D01*
X168628468Y-81349500D01*
X168557061Y-81356533D01*
X168237307Y-81388025D01*
X168237290Y-81388028D01*
X167851805Y-81464703D01*
X167851794Y-81464706D01*
X167475640Y-81578811D01*
X167378262Y-81619148D01*
X167112500Y-81729230D01*
X167112495Y-81729232D01*
X166765862Y-81914511D01*
X166765844Y-81914522D01*
X166470445Y-82111903D01*
X166439021Y-82132899D01*
X166135182Y-82382254D01*
X164379257Y-84138181D01*
X164317934Y-84171666D01*
X164291576Y-84174500D01*
X160883424Y-84174500D01*
X160816385Y-84154815D01*
X160795743Y-84138181D01*
X156900369Y-80242807D01*
X156896172Y-80238399D01*
X156832192Y-80167807D01*
X156761600Y-80103827D01*
X156757204Y-80099642D01*
X156689812Y-80032250D01*
X156616154Y-79971801D01*
X156611551Y-79967830D01*
X156540949Y-79903840D01*
X156464427Y-79847087D01*
X156459630Y-79843344D01*
X156385970Y-79782893D01*
X156385956Y-79782883D01*
X156306744Y-79729956D01*
X156301767Y-79726451D01*
X156301760Y-79726446D01*
X156273680Y-79705620D01*
X156225243Y-79669696D01*
X156143505Y-79620704D01*
X156138377Y-79617457D01*
X156112064Y-79599875D01*
X156059148Y-79564517D01*
X155975116Y-79519602D01*
X155969820Y-79516602D01*
X155888100Y-79467621D01*
X155888101Y-79467621D01*
X155888097Y-79467619D01*
X155801937Y-79426868D01*
X155796533Y-79424147D01*
X155712504Y-79379233D01*
X155712497Y-79379229D01*
X155664057Y-79359164D01*
X155624478Y-79342770D01*
X155618915Y-79340304D01*
X155532780Y-79299566D01*
X155532770Y-79299561D01*
X155503778Y-79289188D01*
X155443043Y-79267456D01*
X155437387Y-79265274D01*
X155349354Y-79228810D01*
X155349348Y-79228808D01*
X155258168Y-79201148D01*
X155252391Y-79199240D01*
X155162688Y-79167144D01*
X155162668Y-79167138D01*
X155070264Y-79143991D01*
X155064402Y-79142369D01*
X154973216Y-79114709D01*
X154973208Y-79114707D01*
X154921555Y-79104433D01*
X154879742Y-79096116D01*
X154873829Y-79094788D01*
X154781401Y-79071636D01*
X154687142Y-79057653D01*
X154681151Y-79056613D01*
X154616840Y-79043822D01*
X154587703Y-79038027D01*
X154587699Y-79038026D01*
X154587691Y-79038025D01*
X154492888Y-79028688D01*
X154486848Y-79027943D01*
X154392601Y-79013963D01*
X154392596Y-79013962D01*
X154392591Y-79013962D01*
X154297412Y-79009286D01*
X154291343Y-79008838D01*
X154291333Y-79008837D01*
X154196532Y-78999500D01*
X154196529Y-78999500D01*
X154101265Y-78999500D01*
X154095181Y-78999351D01*
X154000000Y-78994675D01*
X153904819Y-78999351D01*
X153898735Y-78999500D01*
X153803468Y-78999500D01*
X153754301Y-79004342D01*
X153708654Y-79008838D01*
X153702586Y-79009286D01*
X153607409Y-79013962D01*
X153607404Y-79013962D01*
X153607398Y-79013963D01*
X153513153Y-79027943D01*
X153507113Y-79028688D01*
X153412304Y-79038025D01*
X153318847Y-79056613D01*
X153312856Y-79057653D01*
X153246570Y-79067486D01*
X153218600Y-79071636D01*
X153218597Y-79071636D01*
X153218588Y-79071638D01*
X153126171Y-79094787D01*
X153120235Y-79096120D01*
X153051830Y-79109727D01*
X153026786Y-79114709D01*
X153026784Y-79114709D01*
X153026782Y-79114710D01*
X152935601Y-79142368D01*
X152929740Y-79143990D01*
X152837327Y-79167139D01*
X152837304Y-79167146D01*
X152747588Y-79199246D01*
X152741812Y-79201154D01*
X152650662Y-79228804D01*
X152650639Y-79228812D01*
X152562625Y-79265269D01*
X152556948Y-79267459D01*
X152467242Y-79299556D01*
X152467224Y-79299563D01*
X152381091Y-79340301D01*
X152375529Y-79342767D01*
X152287503Y-79379229D01*
X152287493Y-79379234D01*
X152203463Y-79424147D01*
X152198031Y-79426882D01*
X152111903Y-79467619D01*
X152030177Y-79516603D01*
X152024883Y-79519602D01*
X151940845Y-79564521D01*
X151861627Y-79617452D01*
X151856489Y-79620706D01*
X151774768Y-79669689D01*
X151774759Y-79669695D01*
X151698238Y-79726446D01*
X151693265Y-79729948D01*
X151614040Y-79782886D01*
X151614029Y-79782894D01*
X151540378Y-79843337D01*
X151535582Y-79847080D01*
X151459045Y-79903844D01*
X151388454Y-79967824D01*
X151383848Y-79971797D01*
X151310189Y-80032248D01*
X151242793Y-80099642D01*
X151238389Y-80103836D01*
X151167808Y-80167808D01*
X151103836Y-80238389D01*
X151099642Y-80242793D01*
X151032248Y-80310189D01*
X150971797Y-80383848D01*
X150967824Y-80388454D01*
X150903844Y-80459045D01*
X150847080Y-80535582D01*
X150843337Y-80540378D01*
X150782894Y-80614029D01*
X150782886Y-80614040D01*
X150729948Y-80693265D01*
X150726446Y-80698238D01*
X150669695Y-80774759D01*
X150669689Y-80774768D01*
X150620706Y-80856489D01*
X150617452Y-80861627D01*
X150564521Y-80940845D01*
X150519602Y-81024883D01*
X150516603Y-81030177D01*
X150467619Y-81111903D01*
X150426882Y-81198031D01*
X150424147Y-81203463D01*
X150379234Y-81287493D01*
X150379229Y-81287503D01*
X150342767Y-81375529D01*
X150340301Y-81381091D01*
X150299563Y-81467224D01*
X150299556Y-81467242D01*
X150267459Y-81556948D01*
X150265269Y-81562625D01*
X150228812Y-81650639D01*
X150228804Y-81650662D01*
X150201154Y-81741812D01*
X150199246Y-81747588D01*
X150167146Y-81837304D01*
X150167139Y-81837327D01*
X150143990Y-81929740D01*
X150142368Y-81935601D01*
X150115286Y-82024883D01*
X150114709Y-82026786D01*
X150114033Y-82030186D01*
X150096120Y-82120235D01*
X150094787Y-82126171D01*
X150071638Y-82218588D01*
X150071636Y-82218597D01*
X150071636Y-82218600D01*
X150070651Y-82225239D01*
X150057653Y-82312856D01*
X150056613Y-82318847D01*
X150038025Y-82412304D01*
X150028688Y-82507113D01*
X150027943Y-82513153D01*
X150013963Y-82607398D01*
X150009286Y-82702587D01*
X150008838Y-82708654D01*
X149999500Y-82803470D01*
X149999500Y-82898735D01*
X149999351Y-82904819D01*
X149994675Y-82999999D01*
X143405325Y-82999999D01*
X143400649Y-82904838D01*
X143400501Y-82898755D01*
X143400501Y-82803472D01*
X143396155Y-82759347D01*
X143391157Y-82708608D01*
X143390714Y-82702597D01*
X143386038Y-82607409D01*
X143372054Y-82513147D01*
X143371311Y-82507114D01*
X143367384Y-82467242D01*
X143361973Y-82412296D01*
X143343377Y-82318809D01*
X143342349Y-82312887D01*
X143328364Y-82218600D01*
X143305210Y-82126166D01*
X143303880Y-82120244D01*
X143303878Y-82120235D01*
X143285291Y-82026785D01*
X143257614Y-81935550D01*
X143256007Y-81929740D01*
X143232857Y-81837316D01*
X143200757Y-81747606D01*
X143198853Y-81741841D01*
X143187224Y-81703505D01*
X143171190Y-81650646D01*
X143134719Y-81562599D01*
X143132540Y-81556948D01*
X143100438Y-81467228D01*
X143059679Y-81381054D01*
X143057250Y-81375573D01*
X143020771Y-81287502D01*
X142975839Y-81203441D01*
X142973116Y-81198031D01*
X142932381Y-81111903D01*
X142883395Y-81030174D01*
X142880398Y-81024884D01*
X142880397Y-81024883D01*
X142835482Y-80940852D01*
X142814436Y-80909354D01*
X142782543Y-80861622D01*
X142779286Y-80856480D01*
X142730310Y-80774767D01*
X142730306Y-80774761D01*
X142673529Y-80698206D01*
X142670049Y-80693263D01*
X142617107Y-80614030D01*
X142556628Y-80540337D01*
X142552936Y-80535606D01*
X142496158Y-80459049D01*
X142465823Y-80425580D01*
X142432168Y-80388447D01*
X142428201Y-80383848D01*
X142367750Y-80310188D01*
X142300348Y-80242786D01*
X142296171Y-80238398D01*
X142232192Y-80167807D01*
X142161600Y-80103827D01*
X142157204Y-80099642D01*
X142089812Y-80032250D01*
X142016146Y-79971794D01*
X142011551Y-79967830D01*
X141940947Y-79903838D01*
X141874257Y-79854379D01*
X141864416Y-79847080D01*
X141859630Y-79843345D01*
X141859628Y-79843343D01*
X141785970Y-79782893D01*
X141706746Y-79729957D01*
X141701771Y-79726453D01*
X141625242Y-79669695D01*
X141543508Y-79620706D01*
X141538380Y-79617458D01*
X141459148Y-79564518D01*
X141459143Y-79564515D01*
X141459136Y-79564511D01*
X141375110Y-79519597D01*
X141369818Y-79516599D01*
X141288101Y-79467621D01*
X141201958Y-79426877D01*
X141196524Y-79424141D01*
X141112505Y-79379232D01*
X141112500Y-79379230D01*
X141112490Y-79379226D01*
X141024478Y-79342770D01*
X141024461Y-79342763D01*
X141018896Y-79340296D01*
X140932781Y-79299566D01*
X140932753Y-79299554D01*
X140843058Y-79267461D01*
X140837380Y-79265271D01*
X140749355Y-79228810D01*
X140658149Y-79201142D01*
X140652379Y-79199236D01*
X140562684Y-79167143D01*
X140562679Y-79167141D01*
X140562677Y-79167141D01*
X140470270Y-79143993D01*
X140464407Y-79142371D01*
X140373224Y-79114711D01*
X140373216Y-79114709D01*
X140373215Y-79114709D01*
X140320382Y-79104199D01*
X140279763Y-79096120D01*
X140273825Y-79094787D01*
X140181407Y-79071637D01*
X140087134Y-79057652D01*
X140081140Y-79056612D01*
X140054585Y-79051330D01*
X139987704Y-79038027D01*
X139987702Y-79038026D01*
X139987693Y-79038025D01*
X139892876Y-79028686D01*
X139886837Y-79027941D01*
X139792592Y-79013961D01*
X139697422Y-79009284D01*
X139691357Y-79008837D01*
X139613570Y-79001177D01*
X139596532Y-78999499D01*
X139596530Y-78999499D01*
X139501245Y-78999499D01*
X139495161Y-78999350D01*
X139400000Y-78994675D01*
X139304839Y-78999350D01*
X139298755Y-78999499D01*
X139203468Y-78999499D01*
X139187874Y-79001034D01*
X139108641Y-79008837D01*
X139102577Y-79009284D01*
X139007408Y-79013961D01*
X139007403Y-79013962D01*
X138913159Y-79027941D01*
X138907122Y-79028686D01*
X138812302Y-79038026D01*
X138718847Y-79056613D01*
X138712856Y-79057653D01*
X138646570Y-79067486D01*
X138618600Y-79071636D01*
X138618597Y-79071636D01*
X138618588Y-79071638D01*
X138526171Y-79094787D01*
X138520235Y-79096120D01*
X138451830Y-79109727D01*
X138426786Y-79114709D01*
X138426784Y-79114709D01*
X138426782Y-79114710D01*
X138335601Y-79142368D01*
X138329740Y-79143990D01*
X138237327Y-79167139D01*
X138237304Y-79167146D01*
X138147588Y-79199246D01*
X138141812Y-79201154D01*
X138050662Y-79228804D01*
X138050639Y-79228812D01*
X137962625Y-79265269D01*
X137956948Y-79267459D01*
X137867242Y-79299556D01*
X137867224Y-79299563D01*
X137781091Y-79340301D01*
X137775529Y-79342767D01*
X137687503Y-79379229D01*
X137687493Y-79379234D01*
X137603463Y-79424147D01*
X137598031Y-79426882D01*
X137511903Y-79467619D01*
X137430177Y-79516603D01*
X137424883Y-79519602D01*
X137340845Y-79564521D01*
X137261627Y-79617452D01*
X137256489Y-79620706D01*
X137174768Y-79669689D01*
X137174759Y-79669695D01*
X137098238Y-79726446D01*
X137093265Y-79729948D01*
X137014040Y-79782886D01*
X137014031Y-79782892D01*
X136940370Y-79843343D01*
X136935575Y-79847085D01*
X136859045Y-79903844D01*
X136788447Y-79967830D01*
X136783841Y-79971803D01*
X136710190Y-80032248D01*
X136642804Y-80099632D01*
X136638400Y-80103826D01*
X136567808Y-80167808D01*
X136503818Y-80238409D01*
X136499622Y-80242815D01*
X135379257Y-81363181D01*
X135317934Y-81396666D01*
X135291576Y-81399500D01*
X134548424Y-81399500D01*
X134481385Y-81379815D01*
X134460743Y-81363181D01*
X129900369Y-76802807D01*
X129896172Y-76798399D01*
X129832192Y-76727807D01*
X129761600Y-76663827D01*
X129757204Y-76659642D01*
X129689812Y-76592250D01*
X129616154Y-76531801D01*
X129611551Y-76527830D01*
X129540949Y-76463840D01*
X129464427Y-76407087D01*
X129459630Y-76403344D01*
X129385970Y-76342893D01*
X129385956Y-76342883D01*
X129306744Y-76289956D01*
X129301767Y-76286451D01*
X129301760Y-76286446D01*
X129276168Y-76267465D01*
X129225243Y-76229696D01*
X129143505Y-76180704D01*
X129138377Y-76177457D01*
X129088292Y-76143991D01*
X129059148Y-76124517D01*
X128975116Y-76079602D01*
X128969820Y-76076602D01*
X128927678Y-76051343D01*
X128888097Y-76027619D01*
X128801937Y-75986868D01*
X128796533Y-75984147D01*
X128712504Y-75939233D01*
X128712497Y-75939229D01*
X128629603Y-75904893D01*
X128624478Y-75902770D01*
X128618915Y-75900304D01*
X128532780Y-75859566D01*
X128532770Y-75859561D01*
X128503778Y-75849188D01*
X128443043Y-75827456D01*
X128437387Y-75825274D01*
X128349354Y-75788810D01*
X128349348Y-75788808D01*
X128258168Y-75761148D01*
X128252391Y-75759240D01*
X128162688Y-75727144D01*
X128162668Y-75727138D01*
X128070264Y-75703991D01*
X128064402Y-75702369D01*
X127973216Y-75674709D01*
X127973208Y-75674707D01*
X127921555Y-75664433D01*
X127879742Y-75656116D01*
X127873829Y-75654788D01*
X127781401Y-75631636D01*
X127687142Y-75617653D01*
X127681151Y-75616613D01*
X127616840Y-75603822D01*
X127587703Y-75598027D01*
X127587699Y-75598026D01*
X127587691Y-75598025D01*
X127492888Y-75588688D01*
X127486848Y-75587943D01*
X127392601Y-75573963D01*
X127392596Y-75573962D01*
X127392591Y-75573962D01*
X127297412Y-75569286D01*
X127291343Y-75568838D01*
X127196532Y-75559500D01*
X127196529Y-75559500D01*
X127101265Y-75559500D01*
X127095181Y-75559351D01*
X127000000Y-75554675D01*
X126904819Y-75559351D01*
X126898735Y-75559500D01*
X126803468Y-75559500D01*
X126754301Y-75564342D01*
X126708654Y-75568838D01*
X126702586Y-75569286D01*
X126607409Y-75573962D01*
X126607404Y-75573962D01*
X126607398Y-75573963D01*
X126513153Y-75587943D01*
X126507113Y-75588688D01*
X126412304Y-75598025D01*
X126318847Y-75616613D01*
X126312856Y-75617653D01*
X126246570Y-75627486D01*
X126218600Y-75631636D01*
X126218597Y-75631636D01*
X126218588Y-75631638D01*
X126126171Y-75654787D01*
X126120235Y-75656120D01*
X126051830Y-75669727D01*
X126026786Y-75674709D01*
X126026784Y-75674709D01*
X126026782Y-75674710D01*
X125935601Y-75702368D01*
X125929740Y-75703990D01*
X125837327Y-75727139D01*
X125837304Y-75727146D01*
X125747588Y-75759246D01*
X125741812Y-75761154D01*
X125650662Y-75788804D01*
X125650639Y-75788812D01*
X125562625Y-75825269D01*
X125556948Y-75827459D01*
X125467242Y-75859556D01*
X125467224Y-75859563D01*
X125381091Y-75900301D01*
X125375529Y-75902767D01*
X125287503Y-75939229D01*
X125287493Y-75939234D01*
X125203463Y-75984147D01*
X125198031Y-75986882D01*
X125111903Y-76027619D01*
X125030177Y-76076603D01*
X125024883Y-76079602D01*
X124940845Y-76124521D01*
X124861627Y-76177452D01*
X124856489Y-76180706D01*
X124774768Y-76229689D01*
X124774759Y-76229695D01*
X124698238Y-76286446D01*
X124693265Y-76289948D01*
X124614040Y-76342886D01*
X124614029Y-76342894D01*
X124540378Y-76403337D01*
X124535582Y-76407080D01*
X124459045Y-76463844D01*
X124388454Y-76527824D01*
X124383848Y-76531797D01*
X124310189Y-76592248D01*
X124242793Y-76659642D01*
X124238389Y-76663836D01*
X124167808Y-76727808D01*
X124103836Y-76798389D01*
X124099642Y-76802793D01*
X124032248Y-76870189D01*
X123971797Y-76943848D01*
X123967824Y-76948454D01*
X123903844Y-77019045D01*
X123847080Y-77095582D01*
X123843337Y-77100378D01*
X123782894Y-77174029D01*
X123782886Y-77174040D01*
X123729948Y-77253265D01*
X123726446Y-77258238D01*
X123669695Y-77334759D01*
X123669689Y-77334768D01*
X123620706Y-77416489D01*
X123617452Y-77421627D01*
X123564521Y-77500845D01*
X123519602Y-77584883D01*
X123516603Y-77590177D01*
X123467619Y-77671903D01*
X123426882Y-77758031D01*
X123424147Y-77763463D01*
X123379234Y-77847493D01*
X123379229Y-77847503D01*
X123342767Y-77935529D01*
X123340301Y-77941091D01*
X123299563Y-78027224D01*
X123299556Y-78027242D01*
X123267459Y-78116948D01*
X123265269Y-78122625D01*
X123228812Y-78210639D01*
X123228804Y-78210662D01*
X123201154Y-78301812D01*
X123199246Y-78307588D01*
X123167146Y-78397304D01*
X123167139Y-78397327D01*
X123143990Y-78489740D01*
X123142368Y-78495601D01*
X123114710Y-78586782D01*
X123096120Y-78680235D01*
X123094787Y-78686171D01*
X123071638Y-78778588D01*
X123057653Y-78872856D01*
X123056613Y-78878847D01*
X123038025Y-78972304D01*
X123028688Y-79067113D01*
X123027943Y-79073153D01*
X123013963Y-79167398D01*
X123013962Y-79167404D01*
X123013962Y-79167409D01*
X123010945Y-79228812D01*
X123009286Y-79262587D01*
X123008838Y-79268654D01*
X123001654Y-79341603D01*
X122999500Y-79363470D01*
X122999500Y-79458735D01*
X122999351Y-79464818D01*
X122994675Y-79560000D01*
X82217562Y-79560000D01*
X79900369Y-77242807D01*
X79896172Y-77238399D01*
X79832192Y-77167807D01*
X79761600Y-77103827D01*
X79757204Y-77099642D01*
X79689812Y-77032250D01*
X79616154Y-76971801D01*
X79611551Y-76967830D01*
X79540949Y-76903840D01*
X79464427Y-76847087D01*
X79459630Y-76843344D01*
X79385970Y-76782893D01*
X79385956Y-76782883D01*
X79306744Y-76729956D01*
X79301767Y-76726451D01*
X79301760Y-76726446D01*
X79284022Y-76713290D01*
X79225243Y-76669696D01*
X79143505Y-76620704D01*
X79138377Y-76617457D01*
X79100649Y-76592248D01*
X79059148Y-76564517D01*
X78975116Y-76519602D01*
X78969820Y-76516602D01*
X78927678Y-76491343D01*
X78888097Y-76467619D01*
X78801937Y-76426868D01*
X78796533Y-76424147D01*
X78764603Y-76407080D01*
X78712497Y-76379229D01*
X78624777Y-76342894D01*
X78624478Y-76342770D01*
X78618915Y-76340304D01*
X78532780Y-76299566D01*
X78532770Y-76299561D01*
X78503778Y-76289188D01*
X78443043Y-76267456D01*
X78437387Y-76265274D01*
X78349354Y-76228810D01*
X78349348Y-76228808D01*
X78258168Y-76201148D01*
X78252391Y-76199240D01*
X78162688Y-76167144D01*
X78162668Y-76167138D01*
X78070264Y-76143991D01*
X78064402Y-76142369D01*
X77973216Y-76114709D01*
X77973208Y-76114707D01*
X77921555Y-76104433D01*
X77879742Y-76096116D01*
X77873829Y-76094788D01*
X77781401Y-76071636D01*
X77687142Y-76057653D01*
X77681151Y-76056613D01*
X77616840Y-76043822D01*
X77587703Y-76038027D01*
X77587699Y-76038026D01*
X77587691Y-76038025D01*
X77492888Y-76028688D01*
X77486848Y-76027943D01*
X77392601Y-76013963D01*
X77392596Y-76013962D01*
X77392591Y-76013962D01*
X77297412Y-76009286D01*
X77291343Y-76008838D01*
X77196532Y-75999500D01*
X77196529Y-75999500D01*
X77101265Y-75999500D01*
X77095181Y-75999351D01*
X77000000Y-75994675D01*
X76904819Y-75999351D01*
X76898735Y-75999500D01*
X76803468Y-75999500D01*
X76754301Y-76004342D01*
X76708654Y-76008838D01*
X76702586Y-76009286D01*
X76607409Y-76013962D01*
X76607404Y-76013962D01*
X76607398Y-76013963D01*
X76513153Y-76027943D01*
X76507113Y-76028688D01*
X76412304Y-76038025D01*
X76318847Y-76056613D01*
X76312856Y-76057653D01*
X76246570Y-76067486D01*
X76218600Y-76071636D01*
X76218597Y-76071636D01*
X76218588Y-76071638D01*
X76126171Y-76094787D01*
X76120235Y-76096120D01*
X76051830Y-76109727D01*
X76026786Y-76114709D01*
X76026784Y-76114709D01*
X76026782Y-76114710D01*
X75935601Y-76142368D01*
X75929740Y-76143990D01*
X75837327Y-76167139D01*
X75837304Y-76167146D01*
X75747588Y-76199246D01*
X75741812Y-76201154D01*
X75650662Y-76228804D01*
X75650639Y-76228812D01*
X75562625Y-76265269D01*
X75556948Y-76267459D01*
X75467242Y-76299556D01*
X75467224Y-76299563D01*
X75381091Y-76340301D01*
X75375529Y-76342767D01*
X75287503Y-76379229D01*
X75287493Y-76379234D01*
X75203463Y-76424147D01*
X75198031Y-76426882D01*
X75111903Y-76467619D01*
X75030177Y-76516603D01*
X75024883Y-76519602D01*
X74940845Y-76564521D01*
X74861627Y-76617452D01*
X74856489Y-76620706D01*
X74774768Y-76669689D01*
X74774759Y-76669695D01*
X74698238Y-76726446D01*
X74693265Y-76729948D01*
X74614040Y-76782886D01*
X74614029Y-76782894D01*
X74540378Y-76843337D01*
X74535582Y-76847080D01*
X74459045Y-76903844D01*
X74388454Y-76967824D01*
X74383848Y-76971797D01*
X74310189Y-77032248D01*
X74242793Y-77099642D01*
X74238389Y-77103836D01*
X74167808Y-77167808D01*
X74103836Y-77238389D01*
X74099642Y-77242793D01*
X74032248Y-77310189D01*
X73971797Y-77383848D01*
X73967824Y-77388454D01*
X73903844Y-77459045D01*
X73847080Y-77535582D01*
X73843337Y-77540378D01*
X73782894Y-77614029D01*
X73782886Y-77614040D01*
X73729948Y-77693265D01*
X73726446Y-77698238D01*
X73669695Y-77774759D01*
X73669689Y-77774768D01*
X73620706Y-77856489D01*
X73617452Y-77861627D01*
X73564521Y-77940845D01*
X73519602Y-78024883D01*
X73516603Y-78030177D01*
X73467619Y-78111903D01*
X73426882Y-78198031D01*
X73424147Y-78203463D01*
X73379234Y-78287493D01*
X73379229Y-78287503D01*
X73342767Y-78375529D01*
X73340301Y-78381091D01*
X73299563Y-78467224D01*
X73299556Y-78467242D01*
X73267459Y-78556948D01*
X73265269Y-78562625D01*
X73228812Y-78650639D01*
X73228804Y-78650662D01*
X73201154Y-78741812D01*
X73199246Y-78747588D01*
X73167146Y-78837304D01*
X73167139Y-78837327D01*
X73143990Y-78929740D01*
X73142368Y-78935601D01*
X73114710Y-79026782D01*
X73114709Y-79026786D01*
X73112473Y-79038026D01*
X73096120Y-79120235D01*
X73094787Y-79126171D01*
X73071638Y-79218588D01*
X73071636Y-79218597D01*
X73071636Y-79218600D01*
X73070121Y-79228812D01*
X73057653Y-79312856D01*
X73056613Y-79318847D01*
X73038025Y-79412304D01*
X73028688Y-79507113D01*
X73027943Y-79513153D01*
X73013963Y-79607398D01*
X73013962Y-79607404D01*
X73013962Y-79607409D01*
X73013309Y-79620704D01*
X73009286Y-79702587D01*
X73008838Y-79708654D01*
X73006741Y-79729948D01*
X73001527Y-79782893D01*
X72999500Y-79803470D01*
X72999500Y-79898735D01*
X72999351Y-79904819D01*
X72994675Y-79999999D01*
X72999351Y-80095180D01*
X72999500Y-80101264D01*
X72999500Y-80196532D01*
X73006385Y-80266435D01*
X73008838Y-80291343D01*
X73009286Y-80297412D01*
X73013962Y-80392591D01*
X73013962Y-80392596D01*
X73013963Y-80392601D01*
X73027943Y-80486848D01*
X73028688Y-80492888D01*
X73038025Y-80587691D01*
X73038027Y-80587701D01*
X73056613Y-80681151D01*
X73057653Y-80687142D01*
X73071636Y-80781401D01*
X73094788Y-80873829D01*
X73096116Y-80879742D01*
X73104433Y-80921555D01*
X73114707Y-80973208D01*
X73114709Y-80973216D01*
X73142369Y-81064402D01*
X73143991Y-81070264D01*
X73167138Y-81162668D01*
X73167144Y-81162688D01*
X73199240Y-81252391D01*
X73201148Y-81258168D01*
X73228808Y-81349348D01*
X73228809Y-81349350D01*
X73265274Y-81437387D01*
X73267456Y-81443043D01*
X73299562Y-81532772D01*
X73309094Y-81552926D01*
X73340304Y-81618915D01*
X73342770Y-81624478D01*
X73353609Y-81650644D01*
X73379229Y-81712497D01*
X73398004Y-81747622D01*
X73424147Y-81796533D01*
X73426868Y-81801937D01*
X73467619Y-81888097D01*
X73467621Y-81888100D01*
X73516602Y-81969820D01*
X73519602Y-81975116D01*
X73564517Y-82059148D01*
X73617448Y-82138363D01*
X73620704Y-82143505D01*
X73669696Y-82225243D01*
X73687918Y-82249812D01*
X73715864Y-82287493D01*
X73726451Y-82301767D01*
X73729956Y-82306744D01*
X73782883Y-82385956D01*
X73782893Y-82385970D01*
X73843344Y-82459630D01*
X73847087Y-82464427D01*
X73903840Y-82540949D01*
X73967830Y-82611551D01*
X73971801Y-82616154D01*
X74032250Y-82689812D01*
X74099649Y-82757211D01*
X74103827Y-82761600D01*
X74167807Y-82832192D01*
X74238399Y-82896172D01*
X74242807Y-82900369D01*
X80775924Y-89433486D01*
X80809409Y-89494809D01*
X80811339Y-89536113D01*
X80799500Y-89633621D01*
X80799500Y-91159655D01*
X80779815Y-91226694D01*
X80727011Y-91272449D01*
X80657853Y-91282393D01*
X80594297Y-91253368D01*
X80556841Y-91195653D01*
X80512490Y-91049447D01*
X80362071Y-90686303D01*
X80176782Y-90339651D01*
X79958407Y-90012831D01*
X79709050Y-89708988D01*
X79709049Y-89708987D01*
X79709045Y-89708982D01*
X79431117Y-89431054D01*
X79127274Y-89181697D01*
X79127273Y-89181696D01*
X79127269Y-89181693D01*
X78800449Y-88963318D01*
X78800444Y-88963315D01*
X78800437Y-88963311D01*
X78453804Y-88778032D01*
X78453799Y-88778030D01*
X78453789Y-88778026D01*
X78347435Y-88733972D01*
X78090654Y-88627610D01*
X77714505Y-88513507D01*
X77714494Y-88513504D01*
X77329002Y-88436826D01*
X77034389Y-88407810D01*
X76937832Y-88398300D01*
X76544768Y-88398300D01*
X76455551Y-88407087D01*
X76153597Y-88436826D01*
X75768105Y-88513504D01*
X75768094Y-88513507D01*
X75391945Y-88627610D01*
X75028809Y-88778026D01*
X75028795Y-88778033D01*
X74830997Y-88883758D01*
X74772544Y-88898400D01*
X72287863Y-88898400D01*
X72220824Y-88878715D01*
X72175069Y-88825911D01*
X72164767Y-88789349D01*
X72160391Y-88753302D01*
X72080759Y-88430222D01*
X71962765Y-88119096D01*
X71947395Y-88089812D01*
X71808134Y-87824474D01*
X71808128Y-87824462D01*
X71674517Y-87630892D01*
X71619107Y-87550616D01*
X71619102Y-87550610D01*
X71398453Y-87301548D01*
X71398451Y-87301546D01*
X71149389Y-87080897D01*
X71149383Y-87080892D01*
X70892930Y-86903877D01*
X70875538Y-86891872D01*
X70875525Y-86891865D01*
X70580911Y-86737238D01*
X70580906Y-86737236D01*
X70580904Y-86737235D01*
X70481017Y-86699353D01*
X70269783Y-86619242D01*
X70269778Y-86619241D01*
X70238554Y-86611545D01*
X69946698Y-86539609D01*
X69748504Y-86515543D01*
X69616377Y-86499500D01*
X69616375Y-86499500D01*
X69149118Y-86499500D01*
X69082079Y-86479815D01*
X69080227Y-86478602D01*
X69059155Y-86464522D01*
X69059154Y-86464521D01*
X69059149Y-86464518D01*
X69059144Y-86464515D01*
X69059137Y-86464511D01*
X68712504Y-86279232D01*
X68712499Y-86279230D01*
X68349354Y-86128810D01*
X67973205Y-86014707D01*
X67973194Y-86014704D01*
X67587702Y-85938026D01*
X67293089Y-85909010D01*
X67196532Y-85899500D01*
X67196529Y-85899500D01*
X65608423Y-85899500D01*
X65541384Y-85879815D01*
X65520742Y-85863181D01*
X59900370Y-80242808D01*
X59896173Y-80238400D01*
X59832192Y-80167807D01*
X59761599Y-80103826D01*
X59757204Y-80099642D01*
X59689812Y-80032250D01*
X59616154Y-79971801D01*
X59611551Y-79967830D01*
X59540949Y-79903840D01*
X59464427Y-79847087D01*
X59459630Y-79843344D01*
X59385970Y-79782893D01*
X59385956Y-79782883D01*
X59306744Y-79729956D01*
X59301767Y-79726451D01*
X59301760Y-79726446D01*
X59273680Y-79705620D01*
X59225243Y-79669696D01*
X59143505Y-79620704D01*
X59138377Y-79617457D01*
X59112064Y-79599875D01*
X59059148Y-79564517D01*
X58975116Y-79519602D01*
X58969820Y-79516602D01*
X58888100Y-79467621D01*
X58888101Y-79467621D01*
X58888097Y-79467619D01*
X58801937Y-79426868D01*
X58796533Y-79424147D01*
X58712504Y-79379233D01*
X58712497Y-79379229D01*
X58664057Y-79359164D01*
X58624478Y-79342770D01*
X58618915Y-79340304D01*
X58532780Y-79299566D01*
X58532770Y-79299561D01*
X58503778Y-79289188D01*
X58443043Y-79267456D01*
X58437387Y-79265274D01*
X58349354Y-79228810D01*
X58349348Y-79228808D01*
X58258168Y-79201148D01*
X58252391Y-79199240D01*
X58162688Y-79167144D01*
X58162668Y-79167138D01*
X58070264Y-79143991D01*
X58064402Y-79142369D01*
X57973216Y-79114709D01*
X57973208Y-79114707D01*
X57921555Y-79104433D01*
X57879742Y-79096116D01*
X57873829Y-79094788D01*
X57781401Y-79071636D01*
X57687142Y-79057653D01*
X57681151Y-79056613D01*
X57616840Y-79043822D01*
X57587703Y-79038027D01*
X57587699Y-79038026D01*
X57587691Y-79038025D01*
X57492888Y-79028688D01*
X57486848Y-79027943D01*
X57392601Y-79013963D01*
X57392596Y-79013962D01*
X57392591Y-79013962D01*
X57297412Y-79009286D01*
X57291343Y-79008838D01*
X57291333Y-79008837D01*
X57196532Y-78999500D01*
X57196529Y-78999500D01*
X57101265Y-78999500D01*
X57095181Y-78999351D01*
X57000000Y-78994675D01*
X56904819Y-78999351D01*
X56898735Y-78999500D01*
X56803468Y-78999500D01*
X56754301Y-79004342D01*
X56708654Y-79008838D01*
X56702586Y-79009286D01*
X56607409Y-79013962D01*
X56607404Y-79013962D01*
X56607398Y-79013963D01*
X56513153Y-79027943D01*
X56507113Y-79028688D01*
X56412304Y-79038025D01*
X56318847Y-79056613D01*
X56312856Y-79057653D01*
X56246570Y-79067486D01*
X56218600Y-79071636D01*
X56218597Y-79071636D01*
X56218588Y-79071638D01*
X56126171Y-79094787D01*
X56120235Y-79096120D01*
X56051830Y-79109727D01*
X56026786Y-79114709D01*
X56026784Y-79114709D01*
X56026782Y-79114710D01*
X55935601Y-79142368D01*
X55929740Y-79143990D01*
X55837327Y-79167139D01*
X55837304Y-79167146D01*
X55747588Y-79199246D01*
X55741812Y-79201154D01*
X55650662Y-79228804D01*
X55650639Y-79228812D01*
X55562625Y-79265269D01*
X55556948Y-79267459D01*
X55467242Y-79299556D01*
X55467224Y-79299563D01*
X55381091Y-79340301D01*
X55375529Y-79342767D01*
X55287503Y-79379229D01*
X55287493Y-79379234D01*
X55203463Y-79424147D01*
X55198031Y-79426882D01*
X55111903Y-79467619D01*
X55030177Y-79516603D01*
X55024883Y-79519602D01*
X54940845Y-79564521D01*
X54861627Y-79617452D01*
X54856489Y-79620706D01*
X54774768Y-79669689D01*
X54774759Y-79669695D01*
X54698238Y-79726446D01*
X54693265Y-79729948D01*
X54614040Y-79782886D01*
X54614029Y-79782894D01*
X54540378Y-79843337D01*
X54535582Y-79847080D01*
X54459045Y-79903844D01*
X54388454Y-79967824D01*
X54383848Y-79971797D01*
X54310189Y-80032248D01*
X54242793Y-80099642D01*
X54238389Y-80103836D01*
X54167808Y-80167808D01*
X54103836Y-80238389D01*
X54099642Y-80242793D01*
X54032248Y-80310189D01*
X53971797Y-80383848D01*
X53967824Y-80388454D01*
X53903844Y-80459045D01*
X53847080Y-80535582D01*
X53843337Y-80540378D01*
X53782894Y-80614029D01*
X53782886Y-80614040D01*
X53729948Y-80693265D01*
X53726446Y-80698238D01*
X53669695Y-80774759D01*
X53669689Y-80774768D01*
X53620706Y-80856489D01*
X53617452Y-80861627D01*
X53564521Y-80940845D01*
X53519602Y-81024883D01*
X53516603Y-81030177D01*
X53467619Y-81111903D01*
X53426882Y-81198031D01*
X53424147Y-81203463D01*
X53379234Y-81287493D01*
X53379229Y-81287503D01*
X53342767Y-81375529D01*
X53340301Y-81381091D01*
X53299563Y-81467224D01*
X53299556Y-81467242D01*
X53267459Y-81556948D01*
X53265269Y-81562625D01*
X53228812Y-81650639D01*
X53228804Y-81650662D01*
X53201154Y-81741812D01*
X53199246Y-81747588D01*
X53167146Y-81837304D01*
X53167139Y-81837327D01*
X53143990Y-81929740D01*
X53142368Y-81935601D01*
X53115286Y-82024883D01*
X53114709Y-82026786D01*
X53114033Y-82030186D01*
X53096120Y-82120235D01*
X53094787Y-82126171D01*
X53071638Y-82218588D01*
X53071636Y-82218597D01*
X53071636Y-82218600D01*
X53070651Y-82225239D01*
X53057653Y-82312856D01*
X53056613Y-82318847D01*
X53038025Y-82412304D01*
X53028688Y-82507113D01*
X53027943Y-82513153D01*
X53013963Y-82607398D01*
X53009286Y-82702587D01*
X53008838Y-82708654D01*
X52999500Y-82803470D01*
X52999500Y-82898735D01*
X52999351Y-82904819D01*
X52994675Y-82999999D01*
X46405325Y-82999999D01*
X46400648Y-82904818D01*
X46400500Y-82898735D01*
X46400500Y-58466915D01*
X46420185Y-58399876D01*
X46472989Y-58354121D01*
X46542147Y-58344177D01*
X46582124Y-58357118D01*
X46655093Y-58395415D01*
X46663591Y-58399876D01*
X46669096Y-58402765D01*
X46867214Y-58477901D01*
X46980216Y-58520757D01*
X46980217Y-58520757D01*
X46980222Y-58520759D01*
X47303302Y-58600391D01*
X47633625Y-58640500D01*
X49266374Y-58640499D01*
X49266376Y-58640499D01*
X49316288Y-58634438D01*
X49596698Y-58600391D01*
X49919778Y-58520759D01*
X50230904Y-58402765D01*
X50525538Y-58248128D01*
X50799386Y-58059105D01*
X50917774Y-57954222D01*
X50981005Y-57924501D01*
X51050269Y-57933684D01*
X51082224Y-57954220D01*
X51166864Y-58029205D01*
X51200617Y-58059108D01*
X51357747Y-58167565D01*
X51474462Y-58248128D01*
X51651242Y-58340910D01*
X51763591Y-58399876D01*
X51769096Y-58402765D01*
X52011176Y-58494573D01*
X52080216Y-58520757D01*
X52080217Y-58520757D01*
X52080222Y-58520759D01*
X52403302Y-58600391D01*
X52733625Y-58640500D01*
X54366374Y-58640499D01*
X54366376Y-58640499D01*
X54416288Y-58634438D01*
X54696698Y-58600391D01*
X55019778Y-58520759D01*
X55330904Y-58402765D01*
X55625538Y-58248128D01*
X55899386Y-58059105D01*
X56148452Y-57838452D01*
X56369105Y-57589386D01*
X56434903Y-57494061D01*
X56489185Y-57450070D01*
X56536953Y-57440500D01*
X58852536Y-57440500D01*
X58882656Y-57444214D01*
X58929779Y-57456017D01*
X58935564Y-57457618D01*
X59026785Y-57485291D01*
X59120276Y-57503887D01*
X59126141Y-57505204D01*
X59218600Y-57528364D01*
X59311513Y-57542146D01*
X59312866Y-57542347D01*
X59318864Y-57543388D01*
X59412297Y-57561973D01*
X59412306Y-57561973D01*
X59412312Y-57561975D01*
X59452433Y-57565925D01*
X59507131Y-57571312D01*
X59513111Y-57572049D01*
X59607409Y-57586038D01*
X59702607Y-57590714D01*
X59708622Y-57591157D01*
X59803468Y-57600500D01*
X59898735Y-57600500D01*
X59904818Y-57600648D01*
X60000000Y-57605325D01*
X60095181Y-57600648D01*
X60101265Y-57600500D01*
X60196527Y-57600500D01*
X60196532Y-57600500D01*
X60291379Y-57591157D01*
X60297388Y-57590714D01*
X60392591Y-57586038D01*
X60486892Y-57572048D01*
X60492862Y-57571313D01*
X60555202Y-57565173D01*
X60587687Y-57561975D01*
X60587692Y-57561974D01*
X60587703Y-57561973D01*
X60681173Y-57543380D01*
X60687107Y-57542350D01*
X60781400Y-57528364D01*
X60873854Y-57505204D01*
X60879740Y-57503883D01*
X60973214Y-57485291D01*
X61064405Y-57457627D01*
X61070258Y-57456008D01*
X61117336Y-57444216D01*
X61147465Y-57440500D01*
X64463047Y-57440500D01*
X64530086Y-57460185D01*
X64565097Y-57494061D01*
X64630884Y-57589371D01*
X64630888Y-57589377D01*
X64630895Y-57589386D01*
X64630898Y-57589389D01*
X64630907Y-57589400D01*
X64851546Y-57838451D01*
X64851548Y-57838453D01*
X65100610Y-58059102D01*
X65100616Y-58059107D01*
X65230143Y-58148512D01*
X65374462Y-58248128D01*
X65551242Y-58340910D01*
X65663591Y-58399876D01*
X65669096Y-58402765D01*
X65911176Y-58494573D01*
X65980216Y-58520757D01*
X65980217Y-58520757D01*
X65980222Y-58520759D01*
X66303302Y-58600391D01*
X66633625Y-58640500D01*
X68266374Y-58640499D01*
X68266376Y-58640499D01*
X68316288Y-58634438D01*
X68596698Y-58600391D01*
X68919778Y-58520759D01*
X69230904Y-58402765D01*
X69525538Y-58248128D01*
X69799386Y-58059105D01*
X69917774Y-57954222D01*
X69981005Y-57924501D01*
X70050269Y-57933684D01*
X70082224Y-57954220D01*
X70166864Y-58029205D01*
X70200617Y-58059108D01*
X70357747Y-58167565D01*
X70474462Y-58248128D01*
X70651242Y-58340910D01*
X70763591Y-58399876D01*
X70769096Y-58402765D01*
X71011176Y-58494573D01*
X71080216Y-58520757D01*
X71080217Y-58520757D01*
X71080222Y-58520759D01*
X71403302Y-58600391D01*
X71733625Y-58640500D01*
X73366374Y-58640499D01*
X73366376Y-58640499D01*
X73416288Y-58634438D01*
X73696698Y-58600391D01*
X74019778Y-58520759D01*
X74330904Y-58402765D01*
X74625538Y-58248128D01*
X74899386Y-58059105D01*
X75148452Y-57838452D01*
X75369105Y-57589386D01*
X75434903Y-57494061D01*
X75489185Y-57450070D01*
X75536953Y-57440500D01*
X76643468Y-57440500D01*
X77036532Y-57440500D01*
X81913047Y-57440500D01*
X81980086Y-57460185D01*
X82015097Y-57494061D01*
X82080884Y-57589371D01*
X82080888Y-57589377D01*
X82080895Y-57589386D01*
X82080898Y-57589389D01*
X82080907Y-57589400D01*
X82301546Y-57838451D01*
X82301548Y-57838453D01*
X82550610Y-58059102D01*
X82550616Y-58059107D01*
X82680143Y-58148512D01*
X82824462Y-58248128D01*
X83001242Y-58340910D01*
X83113591Y-58399876D01*
X83119096Y-58402765D01*
X83361176Y-58494573D01*
X83430216Y-58520757D01*
X83430217Y-58520757D01*
X83430222Y-58520759D01*
X83753302Y-58600391D01*
X84083625Y-58640500D01*
X85716374Y-58640499D01*
X85716376Y-58640499D01*
X85766288Y-58634438D01*
X86046698Y-58600391D01*
X86369778Y-58520759D01*
X86680904Y-58402765D01*
X86975538Y-58248128D01*
X87249386Y-58059105D01*
X87367774Y-57954222D01*
X87431005Y-57924501D01*
X87500269Y-57933684D01*
X87532224Y-57954220D01*
X87616864Y-58029205D01*
X87650617Y-58059108D01*
X87807747Y-58167565D01*
X87924462Y-58248128D01*
X88101242Y-58340910D01*
X88213591Y-58399876D01*
X88219096Y-58402765D01*
X88461176Y-58494573D01*
X88530216Y-58520757D01*
X88530217Y-58520757D01*
X88530222Y-58520759D01*
X88853302Y-58600391D01*
X89183625Y-58640500D01*
X90816374Y-58640499D01*
X90816376Y-58640499D01*
X90866288Y-58634438D01*
X91146698Y-58600391D01*
X91469778Y-58520759D01*
X91780904Y-58402765D01*
X92075538Y-58248128D01*
X92349386Y-58059105D01*
X92598452Y-57838452D01*
X92598453Y-57838451D01*
X92772252Y-57642273D01*
X92831441Y-57605146D01*
X92865067Y-57600500D01*
X109803468Y-57600500D01*
X109898735Y-57600500D01*
X109904818Y-57600648D01*
X110000000Y-57605325D01*
X110095181Y-57600648D01*
X110101265Y-57600500D01*
X116584933Y-57600500D01*
X116651972Y-57620185D01*
X116677748Y-57642273D01*
X116851546Y-57838451D01*
X116851548Y-57838453D01*
X117100610Y-58059102D01*
X117100616Y-58059107D01*
X117230143Y-58148512D01*
X117374462Y-58248128D01*
X117551242Y-58340910D01*
X117663591Y-58399876D01*
X117669096Y-58402765D01*
X117911176Y-58494573D01*
X117980216Y-58520757D01*
X117980217Y-58520757D01*
X117980222Y-58520759D01*
X118303302Y-58600391D01*
X118633625Y-58640500D01*
X120266374Y-58640499D01*
X120266376Y-58640499D01*
X120316288Y-58634438D01*
X120596698Y-58600391D01*
X120919778Y-58520759D01*
X121230904Y-58402765D01*
X121525538Y-58248128D01*
X121799386Y-58059105D01*
X121917774Y-57954222D01*
X121981005Y-57924501D01*
X122050269Y-57933684D01*
X122082224Y-57954220D01*
X122166864Y-58029205D01*
X122200617Y-58059108D01*
X122357747Y-58167565D01*
X122474462Y-58248128D01*
X122651242Y-58340910D01*
X122763591Y-58399876D01*
X122769096Y-58402765D01*
X123011176Y-58494573D01*
X123080216Y-58520757D01*
X123080217Y-58520757D01*
X123080222Y-58520759D01*
X123403302Y-58600391D01*
X123733625Y-58640500D01*
X125366374Y-58640499D01*
X125366376Y-58640499D01*
X125416288Y-58634438D01*
X125696698Y-58600391D01*
X126019778Y-58520759D01*
X126330904Y-58402765D01*
X126625538Y-58248128D01*
X126899386Y-58059105D01*
X127148452Y-57838452D01*
X127369105Y-57589386D01*
X127434903Y-57494061D01*
X127489185Y-57450070D01*
X127536953Y-57440500D01*
X133463047Y-57440500D01*
X133530086Y-57460185D01*
X133565097Y-57494061D01*
X133630884Y-57589371D01*
X133630888Y-57589377D01*
X133630895Y-57589386D01*
X133630898Y-57589389D01*
X133630907Y-57589400D01*
X133851546Y-57838451D01*
X133851548Y-57838453D01*
X134100610Y-58059102D01*
X134100616Y-58059107D01*
X134230143Y-58148512D01*
X134374462Y-58248128D01*
X134551242Y-58340910D01*
X134663591Y-58399876D01*
X134669096Y-58402765D01*
X134911176Y-58494573D01*
X134980216Y-58520757D01*
X134980217Y-58520757D01*
X134980222Y-58520759D01*
X135303302Y-58600391D01*
X135633625Y-58640500D01*
X137266374Y-58640499D01*
X137266376Y-58640499D01*
X137316288Y-58634438D01*
X137596698Y-58600391D01*
X137919778Y-58520759D01*
X138230904Y-58402765D01*
X138525538Y-58248128D01*
X138799386Y-58059105D01*
X138917774Y-57954222D01*
X138981005Y-57924501D01*
X139050269Y-57933684D01*
X139082224Y-57954220D01*
X139166864Y-58029205D01*
X139200617Y-58059108D01*
X139357747Y-58167565D01*
X139474462Y-58248128D01*
X139651242Y-58340910D01*
X139763591Y-58399876D01*
X139769096Y-58402765D01*
X140011176Y-58494573D01*
X140080216Y-58520757D01*
X140080217Y-58520757D01*
X140080222Y-58520759D01*
X140403302Y-58600391D01*
X140733625Y-58640500D01*
X142366374Y-58640499D01*
X142366376Y-58640499D01*
X142416288Y-58634438D01*
X142696698Y-58600391D01*
X143019778Y-58520759D01*
X143330904Y-58402765D01*
X143625538Y-58248128D01*
X143899386Y-58059105D01*
X144148452Y-57838452D01*
X144369105Y-57589386D01*
X144558128Y-57315538D01*
X144712765Y-57020904D01*
X144830759Y-56709778D01*
X144834444Y-56694826D01*
X144869599Y-56634445D01*
X144931818Y-56602656D01*
X144954841Y-56600500D01*
X169596529Y-56600500D01*
X169596532Y-56600500D01*
X169987703Y-56561973D01*
X170199695Y-56519805D01*
X170373193Y-56485296D01*
X170373204Y-56485293D01*
X170373204Y-56485292D01*
X170373214Y-56485291D01*
X170749353Y-56371190D01*
X171112497Y-56220771D01*
X171261830Y-56140951D01*
X171459149Y-56035482D01*
X171785969Y-55817107D01*
X172089812Y-55567750D01*
X172367750Y-55289812D01*
X172367750Y-55289811D01*
X172519715Y-55137845D01*
X172581036Y-55104362D01*
X172650728Y-55109346D01*
X172670508Y-55118792D01*
X172862552Y-55232367D01*
X173151311Y-55357324D01*
X173205419Y-55373043D01*
X173453448Y-55445104D01*
X173453456Y-55445106D01*
X173764217Y-55494325D01*
X173895156Y-55500500D01*
X173895160Y-55500500D01*
X178104844Y-55500500D01*
X178179664Y-55496971D01*
X178235783Y-55494325D01*
X178235785Y-55494325D01*
X178546543Y-55445106D01*
X178546551Y-55445104D01*
X178697617Y-55401214D01*
X178848689Y-55357324D01*
X179137448Y-55232367D01*
X179408268Y-55072204D01*
X179656879Y-54879362D01*
X179656880Y-54879362D01*
X179879362Y-54656880D01*
X179879362Y-54656879D01*
X180072197Y-54408277D01*
X180072204Y-54408268D01*
X180232367Y-54137448D01*
X180357324Y-53848689D01*
X180445105Y-53546546D01*
X180445106Y-53546543D01*
X180494325Y-53235785D01*
X180494325Y-53235780D01*
X180500500Y-53104844D01*
X180500500Y-48895155D01*
X180494325Y-48764219D01*
X180494325Y-48764214D01*
X180445106Y-48453456D01*
X180445104Y-48453448D01*
X180357325Y-48151315D01*
X180357324Y-48151311D01*
X180232367Y-47862552D01*
X180072204Y-47591732D01*
X180072197Y-47591722D01*
X179879362Y-47343120D01*
X179656879Y-47120637D01*
X179408277Y-46927802D01*
X179408271Y-46927798D01*
X179408268Y-46927796D01*
X179239345Y-46827894D01*
X179137447Y-46767632D01*
X178848684Y-46642674D01*
X178546551Y-46554895D01*
X178546543Y-46554893D01*
X178235782Y-46505674D01*
X178104844Y-46499500D01*
X178104840Y-46499500D01*
X173895160Y-46499500D01*
X173895156Y-46499500D01*
X173764219Y-46505674D01*
X173764214Y-46505674D01*
X173453456Y-46554893D01*
X173453448Y-46554895D01*
X173151315Y-46642674D01*
X172862552Y-46767632D01*
X172675981Y-46877971D01*
X172591732Y-46927796D01*
X172591729Y-46927797D01*
X172591726Y-46927800D01*
X172532838Y-46973479D01*
X172467801Y-46999014D01*
X172456837Y-46999500D01*
X171199642Y-46999500D01*
X171199602Y-46999499D01*
X171196532Y-46999499D01*
X170803468Y-46999499D01*
X170715277Y-47008185D01*
X170412307Y-47038025D01*
X170412290Y-47038028D01*
X170026806Y-47114703D01*
X170026795Y-47114706D01*
X169650645Y-47228810D01*
X169287500Y-47379230D01*
X169287495Y-47379232D01*
X168940862Y-47564511D01*
X168940844Y-47564522D01*
X168614039Y-47782887D01*
X168614025Y-47782897D01*
X168310182Y-48032254D01*
X168062829Y-48279609D01*
X168032250Y-48310188D01*
X168032246Y-48310192D01*
X167888983Y-48453456D01*
X167779258Y-48563181D01*
X167717935Y-48596666D01*
X167691577Y-48599500D01*
X143594422Y-48599500D01*
X143536796Y-48585296D01*
X143330911Y-48477238D01*
X143330906Y-48477236D01*
X143330904Y-48477235D01*
X143244386Y-48444423D01*
X143019783Y-48359242D01*
X143019778Y-48359241D01*
X142696698Y-48279609D01*
X142498504Y-48255543D01*
X142366377Y-48239500D01*
X140733623Y-48239500D01*
X140453216Y-48273548D01*
X140403302Y-48279609D01*
X140187915Y-48332697D01*
X140080221Y-48359241D01*
X140080216Y-48359242D01*
X139835367Y-48452101D01*
X139769096Y-48477235D01*
X139769093Y-48477236D01*
X139769089Y-48477238D01*
X139769088Y-48477238D01*
X139474474Y-48631865D01*
X139474463Y-48631871D01*
X139200623Y-48820887D01*
X139200621Y-48820888D01*
X139131148Y-48882435D01*
X139082225Y-48925777D01*
X139018994Y-48955498D01*
X138949730Y-48946314D01*
X138917775Y-48925778D01*
X138799386Y-48820895D01*
X138799385Y-48820894D01*
X138799378Y-48820888D01*
X138799376Y-48820887D01*
X138587311Y-48674511D01*
X138525538Y-48631872D01*
X138463859Y-48599500D01*
X138230911Y-48477238D01*
X138230906Y-48477236D01*
X138230904Y-48477235D01*
X138144386Y-48444423D01*
X137919783Y-48359242D01*
X137919778Y-48359241D01*
X137596698Y-48279609D01*
X137398504Y-48255543D01*
X137266377Y-48239500D01*
X135633623Y-48239500D01*
X135353216Y-48273548D01*
X135303302Y-48279609D01*
X135087915Y-48332697D01*
X134980221Y-48359241D01*
X134980216Y-48359242D01*
X134735367Y-48452101D01*
X134669096Y-48477235D01*
X134669093Y-48477236D01*
X134669089Y-48477238D01*
X134669088Y-48477238D01*
X134374474Y-48631865D01*
X134374463Y-48631871D01*
X134100616Y-48820892D01*
X134100610Y-48820897D01*
X133851548Y-49041546D01*
X133851546Y-49041548D01*
X133630907Y-49290599D01*
X133630884Y-49290628D01*
X133565097Y-49385939D01*
X133510815Y-49429930D01*
X133463047Y-49439500D01*
X128674500Y-49439500D01*
X128607461Y-49419815D01*
X128561706Y-49367011D01*
X128550500Y-49315500D01*
X128550500Y-46953471D01*
X128547971Y-46927796D01*
X128532197Y-46767633D01*
X128511973Y-46562296D01*
X128478147Y-46392240D01*
X128435296Y-46176805D01*
X128435293Y-46176794D01*
X128435292Y-46176791D01*
X128435291Y-46176785D01*
X128321190Y-45800646D01*
X128296801Y-45741767D01*
X128196305Y-45499148D01*
X128170773Y-45437509D01*
X128170771Y-45437503D01*
X127985482Y-45090851D01*
X127767107Y-44764031D01*
X127517750Y-44460188D01*
X127517749Y-44460187D01*
X127517745Y-44460182D01*
X127239812Y-44182250D01*
X123740369Y-40682807D01*
X123736172Y-40678399D01*
X123672192Y-40607807D01*
X123601600Y-40543827D01*
X123597204Y-40539642D01*
X123529812Y-40472250D01*
X123456154Y-40411801D01*
X123451551Y-40407830D01*
X123380949Y-40343840D01*
X123304427Y-40287087D01*
X123299630Y-40283344D01*
X123225970Y-40222893D01*
X123225956Y-40222883D01*
X123146744Y-40169956D01*
X123141767Y-40166451D01*
X123141760Y-40166446D01*
X123124022Y-40153290D01*
X123065243Y-40109696D01*
X122983505Y-40060704D01*
X122978377Y-40057457D01*
X122952064Y-40039875D01*
X122899148Y-40004517D01*
X122815116Y-39959602D01*
X122809820Y-39956602D01*
X122728100Y-39907621D01*
X122728101Y-39907621D01*
X122728097Y-39907619D01*
X122641937Y-39866868D01*
X122636533Y-39864147D01*
X122552504Y-39819233D01*
X122552497Y-39819229D01*
X122504057Y-39799164D01*
X122464478Y-39782770D01*
X122458915Y-39780304D01*
X122372780Y-39739566D01*
X122372770Y-39739561D01*
X122343778Y-39729188D01*
X122283043Y-39707456D01*
X122277387Y-39705274D01*
X122189354Y-39668810D01*
X122189348Y-39668808D01*
X122098168Y-39641148D01*
X122092391Y-39639240D01*
X122002688Y-39607144D01*
X122002668Y-39607138D01*
X121910264Y-39583991D01*
X121904402Y-39582369D01*
X121813216Y-39554709D01*
X121813208Y-39554707D01*
X121761555Y-39544433D01*
X121719742Y-39536116D01*
X121713829Y-39534788D01*
X121621401Y-39511636D01*
X121527142Y-39497653D01*
X121521151Y-39496613D01*
X121456840Y-39483822D01*
X121427703Y-39478027D01*
X121427699Y-39478026D01*
X121427691Y-39478025D01*
X121332888Y-39468688D01*
X121326848Y-39467943D01*
X121232601Y-39453963D01*
X121232596Y-39453962D01*
X121232591Y-39453962D01*
X121137412Y-39449286D01*
X121131343Y-39448838D01*
X121036532Y-39439500D01*
X121036529Y-39439500D01*
X120941265Y-39439500D01*
X120935181Y-39439351D01*
X120840000Y-39434675D01*
X120744819Y-39439351D01*
X120738735Y-39439500D01*
X120643468Y-39439500D01*
X120594301Y-39444342D01*
X120548654Y-39448838D01*
X120542586Y-39449286D01*
X120447409Y-39453962D01*
X120447404Y-39453962D01*
X120447398Y-39453963D01*
X120353153Y-39467943D01*
X120347113Y-39468688D01*
X120252304Y-39478025D01*
X120158847Y-39496613D01*
X120152856Y-39497653D01*
X120086570Y-39507486D01*
X120058600Y-39511636D01*
X120058597Y-39511636D01*
X120058588Y-39511638D01*
X119966171Y-39534787D01*
X119960235Y-39536120D01*
X119891830Y-39549727D01*
X119866786Y-39554709D01*
X119866784Y-39554709D01*
X119866782Y-39554710D01*
X119775601Y-39582368D01*
X119769740Y-39583990D01*
X119677327Y-39607139D01*
X119677304Y-39607146D01*
X119587588Y-39639246D01*
X119581812Y-39641154D01*
X119490662Y-39668804D01*
X119490639Y-39668812D01*
X119402625Y-39705269D01*
X119396948Y-39707459D01*
X119307242Y-39739556D01*
X119307224Y-39739563D01*
X119221091Y-39780301D01*
X119215529Y-39782767D01*
X119127503Y-39819229D01*
X119127493Y-39819234D01*
X119043463Y-39864147D01*
X119038031Y-39866882D01*
X118951903Y-39907619D01*
X118870177Y-39956603D01*
X118864883Y-39959602D01*
X118780845Y-40004521D01*
X118701627Y-40057452D01*
X118696489Y-40060706D01*
X118614768Y-40109689D01*
X118614759Y-40109695D01*
X118538238Y-40166446D01*
X118533265Y-40169948D01*
X118454040Y-40222886D01*
X118454029Y-40222894D01*
X118380378Y-40283337D01*
X118375582Y-40287080D01*
X118299045Y-40343844D01*
X118228454Y-40407824D01*
X118223848Y-40411797D01*
X118150189Y-40472248D01*
X118082793Y-40539642D01*
X118078389Y-40543836D01*
X118007808Y-40607808D01*
X117943836Y-40678389D01*
X117939642Y-40682793D01*
X117872248Y-40750189D01*
X117811797Y-40823848D01*
X117807824Y-40828454D01*
X117743844Y-40899045D01*
X117687080Y-40975582D01*
X117683337Y-40980378D01*
X117622894Y-41054029D01*
X117622886Y-41054040D01*
X117569948Y-41133265D01*
X117566446Y-41138238D01*
X117509695Y-41214759D01*
X117509689Y-41214768D01*
X117460706Y-41296489D01*
X117457452Y-41301627D01*
X117404521Y-41380845D01*
X117359602Y-41464883D01*
X117356603Y-41470177D01*
X117307619Y-41551903D01*
X117266882Y-41638031D01*
X117264147Y-41643463D01*
X117219234Y-41727493D01*
X117219229Y-41727503D01*
X117182767Y-41815529D01*
X117180301Y-41821091D01*
X117139563Y-41907224D01*
X117139556Y-41907242D01*
X117107459Y-41996948D01*
X117105269Y-42002625D01*
X117068812Y-42090639D01*
X117068804Y-42090662D01*
X117041154Y-42181812D01*
X117039246Y-42187588D01*
X117007146Y-42277304D01*
X117007139Y-42277327D01*
X116983990Y-42369740D01*
X116982368Y-42375601D01*
X116954710Y-42466782D01*
X116936120Y-42560235D01*
X116934787Y-42566171D01*
X116911638Y-42658588D01*
X116911636Y-42658597D01*
X116911636Y-42658600D01*
X116907486Y-42686570D01*
X116897653Y-42752856D01*
X116896613Y-42758847D01*
X116878025Y-42852304D01*
X116868688Y-42947113D01*
X116867943Y-42953153D01*
X116853963Y-43047398D01*
X116849286Y-43142587D01*
X116848838Y-43148654D01*
X116839500Y-43243470D01*
X116839500Y-43338735D01*
X116839351Y-43344819D01*
X116834675Y-43439999D01*
X116839351Y-43535180D01*
X116839500Y-43541264D01*
X116839500Y-43636528D01*
X116848838Y-43731343D01*
X116849286Y-43737412D01*
X116853962Y-43832591D01*
X116853962Y-43832596D01*
X116853963Y-43832601D01*
X116867943Y-43926848D01*
X116868688Y-43932888D01*
X116878025Y-44027691D01*
X116878027Y-44027701D01*
X116896613Y-44121151D01*
X116897653Y-44127142D01*
X116911636Y-44221401D01*
X116934788Y-44313829D01*
X116936116Y-44319742D01*
X116944433Y-44361555D01*
X116954707Y-44413208D01*
X116954709Y-44413216D01*
X116982369Y-44504402D01*
X116983991Y-44510264D01*
X117007138Y-44602668D01*
X117007144Y-44602688D01*
X117039240Y-44692391D01*
X117041148Y-44698168D01*
X117068808Y-44789348D01*
X117068810Y-44789354D01*
X117105274Y-44877387D01*
X117107456Y-44883043D01*
X117129188Y-44943778D01*
X117139561Y-44972770D01*
X117139566Y-44972780D01*
X117180304Y-45058915D01*
X117182770Y-45064478D01*
X117219229Y-45152497D01*
X117219233Y-45152504D01*
X117264147Y-45236533D01*
X117266868Y-45241937D01*
X117307619Y-45328097D01*
X117307621Y-45328100D01*
X117356602Y-45409820D01*
X117359602Y-45415116D01*
X117404517Y-45499148D01*
X117457448Y-45578363D01*
X117460704Y-45583505D01*
X117509696Y-45665243D01*
X117566451Y-45741767D01*
X117569956Y-45746744D01*
X117622883Y-45825956D01*
X117622893Y-45825970D01*
X117683344Y-45899630D01*
X117687087Y-45904427D01*
X117743840Y-45980949D01*
X117807830Y-46051551D01*
X117811801Y-46056154D01*
X117872250Y-46129812D01*
X117939649Y-46197211D01*
X117943827Y-46201600D01*
X118007807Y-46272192D01*
X118078399Y-46336172D01*
X118082807Y-46340369D01*
X119770257Y-48027819D01*
X119803742Y-48089142D01*
X119798758Y-48158834D01*
X119756886Y-48214767D01*
X119691422Y-48239184D01*
X119682576Y-48239500D01*
X118633623Y-48239500D01*
X118353216Y-48273548D01*
X118303302Y-48279609D01*
X118087915Y-48332697D01*
X117980221Y-48359241D01*
X117980216Y-48359242D01*
X117735367Y-48452101D01*
X117669096Y-48477235D01*
X117669093Y-48477236D01*
X117669089Y-48477238D01*
X117669088Y-48477238D01*
X117374474Y-48631865D01*
X117374463Y-48631871D01*
X117100616Y-48820892D01*
X117100610Y-48820897D01*
X116851548Y-49041546D01*
X116851546Y-49041548D01*
X116630897Y-49290610D01*
X116630892Y-49290616D01*
X116454656Y-49545940D01*
X116400373Y-49589930D01*
X116352606Y-49599500D01*
X110101265Y-49599500D01*
X110095181Y-49599351D01*
X110000000Y-49594675D01*
X109904819Y-49599351D01*
X109898735Y-49599500D01*
X93097394Y-49599500D01*
X93030355Y-49579815D01*
X92995344Y-49545940D01*
X92819107Y-49290616D01*
X92819102Y-49290610D01*
X92598453Y-49041548D01*
X92598451Y-49041546D01*
X92349389Y-48820897D01*
X92349383Y-48820892D01*
X92137327Y-48674522D01*
X92075538Y-48631872D01*
X92013859Y-48599500D01*
X91780911Y-48477238D01*
X91780906Y-48477236D01*
X91780904Y-48477235D01*
X91694386Y-48444423D01*
X91469783Y-48359242D01*
X91469778Y-48359241D01*
X91146698Y-48279609D01*
X90948504Y-48255543D01*
X90816377Y-48239500D01*
X89183623Y-48239500D01*
X88903216Y-48273548D01*
X88853302Y-48279609D01*
X88637915Y-48332697D01*
X88530221Y-48359241D01*
X88530216Y-48359242D01*
X88285367Y-48452101D01*
X88219096Y-48477235D01*
X88219093Y-48477236D01*
X88219089Y-48477238D01*
X88219088Y-48477238D01*
X87924474Y-48631865D01*
X87924463Y-48631871D01*
X87650623Y-48820887D01*
X87650621Y-48820888D01*
X87581148Y-48882435D01*
X87532225Y-48925777D01*
X87468994Y-48955498D01*
X87399730Y-48946314D01*
X87367775Y-48925778D01*
X87249386Y-48820895D01*
X87249385Y-48820894D01*
X87249378Y-48820888D01*
X87249376Y-48820887D01*
X87037311Y-48674511D01*
X86975538Y-48631872D01*
X86913859Y-48599500D01*
X86680911Y-48477238D01*
X86680906Y-48477236D01*
X86680904Y-48477235D01*
X86594386Y-48444423D01*
X86369783Y-48359242D01*
X86369778Y-48359241D01*
X86046698Y-48279609D01*
X85848504Y-48255543D01*
X85716377Y-48239500D01*
X84083623Y-48239500D01*
X83803216Y-48273548D01*
X83753302Y-48279609D01*
X83537915Y-48332697D01*
X83430221Y-48359241D01*
X83430216Y-48359242D01*
X83185367Y-48452101D01*
X83119096Y-48477235D01*
X83119093Y-48477236D01*
X83119089Y-48477238D01*
X83119088Y-48477238D01*
X82824474Y-48631865D01*
X82824463Y-48631871D01*
X82550616Y-48820892D01*
X82550610Y-48820897D01*
X82301548Y-49041546D01*
X82301546Y-49041548D01*
X82080907Y-49290599D01*
X82080884Y-49290628D01*
X82015097Y-49385939D01*
X81960815Y-49429930D01*
X81913047Y-49439500D01*
X80964500Y-49439500D01*
X80897461Y-49419815D01*
X80851706Y-49367011D01*
X80840500Y-49315500D01*
X80840500Y-43541264D01*
X80840649Y-43535180D01*
X80845325Y-43440000D01*
X80840648Y-43344818D01*
X80840500Y-43338735D01*
X80840500Y-43243472D01*
X80840500Y-43243468D01*
X80831157Y-43148622D01*
X80830713Y-43142587D01*
X80826038Y-43047409D01*
X80812049Y-42953111D01*
X80811312Y-42947131D01*
X80801973Y-42852297D01*
X80783379Y-42758823D01*
X80782349Y-42752887D01*
X80768364Y-42658600D01*
X80745207Y-42566154D01*
X80743877Y-42560232D01*
X80743875Y-42560223D01*
X80725290Y-42466785D01*
X80697621Y-42375576D01*
X80696015Y-42369771D01*
X80672857Y-42277316D01*
X80640759Y-42187609D01*
X80638850Y-42181832D01*
X80638843Y-42181809D01*
X80611190Y-42090647D01*
X80574721Y-42002606D01*
X80572540Y-41996950D01*
X80540438Y-41907228D01*
X80499691Y-41821077D01*
X80497232Y-41815529D01*
X80460771Y-41727503D01*
X80415849Y-41643461D01*
X80413122Y-41638043D01*
X80372381Y-41551904D01*
X80372381Y-41551903D01*
X80323376Y-41470143D01*
X80320421Y-41464927D01*
X80275482Y-41380851D01*
X80222511Y-41301576D01*
X80219305Y-41296511D01*
X80170306Y-41214761D01*
X80113539Y-41138220D01*
X80110038Y-41133247D01*
X80057109Y-41054032D01*
X80057105Y-41054027D01*
X79996657Y-40980371D01*
X79992913Y-40975573D01*
X79936159Y-40899049D01*
X79872168Y-40828446D01*
X79868193Y-40823838D01*
X79851158Y-40803081D01*
X79807750Y-40750188D01*
X79740348Y-40682786D01*
X79736171Y-40678398D01*
X79672192Y-40607807D01*
X79601600Y-40543827D01*
X79597204Y-40539642D01*
X79529812Y-40472250D01*
X79456154Y-40411801D01*
X79451551Y-40407830D01*
X79380949Y-40343840D01*
X79304427Y-40287087D01*
X79299630Y-40283344D01*
X79225970Y-40222893D01*
X79225965Y-40222890D01*
X79146750Y-40169960D01*
X79141775Y-40166456D01*
X79065242Y-40109695D01*
X79011831Y-40077682D01*
X78983508Y-40060706D01*
X78978394Y-40057467D01*
X78899149Y-40004518D01*
X78899144Y-40004515D01*
X78899137Y-40004511D01*
X78843782Y-39974924D01*
X78815099Y-39959592D01*
X78809820Y-39956602D01*
X78783837Y-39941028D01*
X78728100Y-39907620D01*
X78702105Y-39895325D01*
X78641939Y-39866869D01*
X78636535Y-39864148D01*
X78552504Y-39819233D01*
X78552497Y-39819229D01*
X78504057Y-39799164D01*
X78464478Y-39782770D01*
X78458915Y-39780304D01*
X78372780Y-39739566D01*
X78372770Y-39739561D01*
X78343778Y-39729188D01*
X78283043Y-39707456D01*
X78277387Y-39705274D01*
X78189354Y-39668810D01*
X78189348Y-39668808D01*
X78098177Y-39641151D01*
X78092400Y-39639243D01*
X78002682Y-39607142D01*
X78002680Y-39607141D01*
X77910254Y-39583989D01*
X77904391Y-39582367D01*
X77813216Y-39554710D01*
X77719775Y-39536123D01*
X77713839Y-39534790D01*
X77621410Y-39511637D01*
X77527127Y-39497651D01*
X77521133Y-39496611D01*
X77496148Y-39491641D01*
X77427703Y-39478027D01*
X77427701Y-39478026D01*
X77427692Y-39478025D01*
X77332888Y-39468688D01*
X77326848Y-39467943D01*
X77232601Y-39453963D01*
X77232596Y-39453962D01*
X77232591Y-39453962D01*
X77137412Y-39449286D01*
X77131343Y-39448838D01*
X77036532Y-39439500D01*
X77036529Y-39439500D01*
X76941265Y-39439500D01*
X76935181Y-39439351D01*
X76840000Y-39434675D01*
X76744819Y-39439351D01*
X76738735Y-39439500D01*
X76643468Y-39439500D01*
X76594301Y-39444342D01*
X76548654Y-39448838D01*
X76542586Y-39449286D01*
X76447409Y-39453962D01*
X76447404Y-39453962D01*
X76447398Y-39453963D01*
X76353153Y-39467943D01*
X76347113Y-39468688D01*
X76252308Y-39478025D01*
X76252298Y-39478026D01*
X76252297Y-39478027D01*
X76241029Y-39480268D01*
X76158844Y-39496614D01*
X76152852Y-39497654D01*
X76058589Y-39511637D01*
X75966158Y-39534790D01*
X75960223Y-39536123D01*
X75891635Y-39549766D01*
X75866785Y-39554710D01*
X75866783Y-39554710D01*
X75866781Y-39554711D01*
X75775606Y-39582367D01*
X75769745Y-39583989D01*
X75677315Y-39607143D01*
X75677310Y-39607144D01*
X75587585Y-39639247D01*
X75581809Y-39641155D01*
X75490651Y-39668808D01*
X75490645Y-39668810D01*
X75402625Y-39705269D01*
X75396948Y-39707459D01*
X75307242Y-39739556D01*
X75307224Y-39739563D01*
X75221091Y-39780301D01*
X75215530Y-39782766D01*
X75127503Y-39819229D01*
X75085502Y-39841678D01*
X75043461Y-39864149D01*
X75038029Y-39866883D01*
X74951898Y-39907621D01*
X74870185Y-39956597D01*
X74864893Y-39959595D01*
X74780853Y-40004516D01*
X74701612Y-40057463D01*
X74696491Y-40060706D01*
X74655266Y-40085415D01*
X74614762Y-40109693D01*
X74614759Y-40109695D01*
X74538241Y-40166444D01*
X74533268Y-40169946D01*
X74454040Y-40222886D01*
X74454029Y-40222894D01*
X74380378Y-40283337D01*
X74375582Y-40287080D01*
X74299045Y-40343844D01*
X74228454Y-40407824D01*
X74223848Y-40411797D01*
X74150189Y-40472248D01*
X74082793Y-40539642D01*
X74078389Y-40543836D01*
X74007808Y-40607808D01*
X73943836Y-40678389D01*
X73939642Y-40682793D01*
X73872248Y-40750189D01*
X73811797Y-40823848D01*
X73807824Y-40828454D01*
X73743844Y-40899045D01*
X73687080Y-40975582D01*
X73683337Y-40980378D01*
X73622894Y-41054029D01*
X73622886Y-41054040D01*
X73569946Y-41133268D01*
X73566444Y-41138241D01*
X73509695Y-41214759D01*
X73509693Y-41214762D01*
X73460718Y-41296472D01*
X73457463Y-41301612D01*
X73404516Y-41380853D01*
X73359595Y-41464893D01*
X73356597Y-41470185D01*
X73307621Y-41551898D01*
X73266883Y-41638029D01*
X73264149Y-41643461D01*
X73264139Y-41643480D01*
X73219229Y-41727503D01*
X73182767Y-41815529D01*
X73180301Y-41821091D01*
X73139563Y-41907224D01*
X73139556Y-41907242D01*
X73107459Y-41996948D01*
X73105269Y-42002625D01*
X73068810Y-42090645D01*
X73068808Y-42090651D01*
X73041155Y-42181809D01*
X73039247Y-42187585D01*
X73007144Y-42277310D01*
X73007143Y-42277315D01*
X72983989Y-42369745D01*
X72982367Y-42375606D01*
X72954711Y-42466781D01*
X72936123Y-42560223D01*
X72934790Y-42566158D01*
X72911637Y-42658589D01*
X72897654Y-42752852D01*
X72896614Y-42758844D01*
X72878027Y-42852298D01*
X72878025Y-42852308D01*
X72868688Y-42947113D01*
X72867943Y-42953153D01*
X72853963Y-43047398D01*
X72849286Y-43142587D01*
X72848838Y-43148654D01*
X72839500Y-43243470D01*
X72839500Y-43338735D01*
X72839351Y-43344819D01*
X72834675Y-43439999D01*
X72839351Y-43535180D01*
X72839500Y-43541264D01*
X72839500Y-48115500D01*
X72819815Y-48182539D01*
X72767011Y-48228294D01*
X72715500Y-48239500D01*
X71733623Y-48239500D01*
X71453216Y-48273548D01*
X71403302Y-48279609D01*
X71187915Y-48332697D01*
X71080221Y-48359241D01*
X71080216Y-48359242D01*
X70835367Y-48452101D01*
X70769096Y-48477235D01*
X70769093Y-48477236D01*
X70769089Y-48477238D01*
X70769088Y-48477238D01*
X70474474Y-48631865D01*
X70474463Y-48631871D01*
X70200623Y-48820887D01*
X70200621Y-48820888D01*
X70131148Y-48882435D01*
X70082225Y-48925777D01*
X70018994Y-48955498D01*
X69949730Y-48946314D01*
X69917775Y-48925778D01*
X69799386Y-48820895D01*
X69799385Y-48820894D01*
X69799378Y-48820888D01*
X69799376Y-48820887D01*
X69587311Y-48674511D01*
X69525538Y-48631872D01*
X69463859Y-48599500D01*
X69230911Y-48477238D01*
X69230906Y-48477236D01*
X69230904Y-48477235D01*
X69144386Y-48444423D01*
X68919783Y-48359242D01*
X68919778Y-48359241D01*
X68596698Y-48279609D01*
X68398504Y-48255543D01*
X68266377Y-48239500D01*
X66633623Y-48239500D01*
X66353216Y-48273548D01*
X66303302Y-48279609D01*
X66087915Y-48332697D01*
X65980221Y-48359241D01*
X65980216Y-48359242D01*
X65735367Y-48452101D01*
X65669096Y-48477235D01*
X65669093Y-48477236D01*
X65669089Y-48477238D01*
X65669088Y-48477238D01*
X65374474Y-48631865D01*
X65374463Y-48631871D01*
X65100616Y-48820892D01*
X65100610Y-48820897D01*
X64851548Y-49041546D01*
X64851546Y-49041548D01*
X64630907Y-49290599D01*
X64630884Y-49290628D01*
X64565097Y-49385939D01*
X64510815Y-49429930D01*
X64463047Y-49439500D01*
X56536953Y-49439500D01*
X56469914Y-49419815D01*
X56434903Y-49385939D01*
X56369115Y-49290628D01*
X56369112Y-49290624D01*
X56369105Y-49290614D01*
X56237670Y-49142254D01*
X56148453Y-49041548D01*
X56148451Y-49041546D01*
X55899389Y-48820897D01*
X55899383Y-48820892D01*
X55687327Y-48674522D01*
X55625538Y-48631872D01*
X55563859Y-48599500D01*
X55330911Y-48477238D01*
X55330906Y-48477236D01*
X55330904Y-48477235D01*
X55244386Y-48444423D01*
X55019783Y-48359242D01*
X55019778Y-48359241D01*
X54696698Y-48279609D01*
X54498504Y-48255543D01*
X54366377Y-48239500D01*
X52733623Y-48239500D01*
X52453216Y-48273548D01*
X52403302Y-48279609D01*
X52187915Y-48332697D01*
X52080221Y-48359241D01*
X52080216Y-48359242D01*
X51835367Y-48452101D01*
X51769096Y-48477235D01*
X51769093Y-48477236D01*
X51769089Y-48477238D01*
X51769088Y-48477238D01*
X51474474Y-48631865D01*
X51474463Y-48631871D01*
X51200623Y-48820887D01*
X51200621Y-48820888D01*
X51131148Y-48882435D01*
X51082225Y-48925777D01*
X51018994Y-48955498D01*
X50949730Y-48946314D01*
X50917775Y-48925778D01*
X50799386Y-48820895D01*
X50799385Y-48820894D01*
X50799378Y-48820888D01*
X50799376Y-48820887D01*
X50587311Y-48674511D01*
X50525538Y-48631872D01*
X50463859Y-48599500D01*
X50230911Y-48477238D01*
X50230906Y-48477236D01*
X50230904Y-48477235D01*
X50144386Y-48444423D01*
X49919783Y-48359242D01*
X49919778Y-48359241D01*
X49596698Y-48279609D01*
X49398504Y-48255543D01*
X49266377Y-48239500D01*
X47633623Y-48239500D01*
X47353216Y-48273548D01*
X47303302Y-48279609D01*
X47087915Y-48332697D01*
X46980221Y-48359241D01*
X46980216Y-48359242D01*
X46735367Y-48452101D01*
X46669096Y-48477235D01*
X46669093Y-48477236D01*
X46669089Y-48477238D01*
X46669088Y-48477238D01*
X46374474Y-48631865D01*
X46374463Y-48631871D01*
X46100616Y-48820892D01*
X46100610Y-48820897D01*
X45851548Y-49041546D01*
X45851546Y-49041548D01*
X45630907Y-49290599D01*
X45630886Y-49290625D01*
X45595877Y-49341345D01*
X45541594Y-49385335D01*
X45472146Y-49392994D01*
X45409581Y-49361890D01*
X45406147Y-49358585D01*
X45189817Y-49142254D01*
X44885974Y-48892897D01*
X44885973Y-48892896D01*
X44885969Y-48892893D01*
X44790062Y-48828810D01*
X44559149Y-48674518D01*
X44559144Y-48674515D01*
X44559137Y-48674511D01*
X44212504Y-48489232D01*
X44212499Y-48489230D01*
X44183540Y-48477235D01*
X43849353Y-48338810D01*
X43849352Y-48338809D01*
X43849348Y-48338808D01*
X43754999Y-48310187D01*
X43754999Y-48310188D01*
X43473214Y-48224709D01*
X43473213Y-48224708D01*
X43473204Y-48224706D01*
X43473193Y-48224703D01*
X43087708Y-48148028D01*
X43087703Y-48148027D01*
X43087701Y-48148026D01*
X43087691Y-48148025D01*
X42800319Y-48119722D01*
X42696532Y-48109500D01*
X42696529Y-48109500D01*
X41561409Y-48109500D01*
X41494370Y-48089815D01*
X41463430Y-48061500D01*
X41379362Y-47953120D01*
X41156879Y-47730637D01*
X40908277Y-47537802D01*
X40908271Y-47537798D01*
X40908268Y-47537796D01*
X40640152Y-47379232D01*
X40637447Y-47377632D01*
X40348684Y-47252674D01*
X40046551Y-47164895D01*
X40046543Y-47164893D01*
X39735782Y-47115674D01*
X39604844Y-47109500D01*
X39604840Y-47109500D01*
X34395160Y-47109500D01*
X34395156Y-47109500D01*
X34264219Y-47115674D01*
X34264214Y-47115674D01*
X33953456Y-47164893D01*
X33953448Y-47164895D01*
X33651315Y-47252674D01*
X33362552Y-47377632D01*
X33201094Y-47473119D01*
X33091732Y-47537796D01*
X33091728Y-47537798D01*
X33091723Y-47537802D01*
X33091722Y-47537802D01*
X32843120Y-47730637D01*
X32843120Y-47730638D01*
X32712181Y-47861577D01*
X32650858Y-47895062D01*
X32581166Y-47890078D01*
X32525233Y-47848206D01*
X32500816Y-47782742D01*
X32500500Y-47773896D01*
X32500500Y-29624500D01*
X32520185Y-29557461D01*
X32572989Y-29511706D01*
X32624500Y-29500500D01*
X188375500Y-29500500D01*
X188442539Y-29520185D01*
G37*
%TD.AperFunction*%
%TD*%
M02*
