%TF.GenerationSoftware,KiCad,Pcbnew,8.0.6-8.0.6-0~ubuntu24.04.1*%
%TF.CreationDate,2024-10-18T14:07:35+02:00*%
%TF.ProjectId,diplexer,6469706c-6578-4657-922e-6b696361645f,rev?*%
%TF.SameCoordinates,Original*%
%TF.FileFunction,Legend,Top*%
%TF.FilePolarity,Positive*%
%FSLAX46Y46*%
G04 Gerber Fmt 4.6, Leading zero omitted, Abs format (unit mm)*
G04 Created by KiCad (PCBNEW 8.0.6-8.0.6-0~ubuntu24.04.1) date 2024-10-18 14:07:35*
%MOMM*%
%LPD*%
G01*
G04 APERTURE LIST*
%ADD10C,0.150000*%
%ADD11C,0.100000*%
%ADD12C,0.120000*%
G04 APERTURE END LIST*
D10*
X33689160Y-64847438D02*
X34832017Y-64847438D01*
X34260588Y-66847438D02*
X34260588Y-64847438D01*
X35879636Y-64847438D02*
X36260589Y-64847438D01*
X36260589Y-64847438D02*
X36451065Y-64942676D01*
X36451065Y-64942676D02*
X36641541Y-65133152D01*
X36641541Y-65133152D02*
X36736779Y-65514104D01*
X36736779Y-65514104D02*
X36736779Y-66180771D01*
X36736779Y-66180771D02*
X36641541Y-66561723D01*
X36641541Y-66561723D02*
X36451065Y-66752200D01*
X36451065Y-66752200D02*
X36260589Y-66847438D01*
X36260589Y-66847438D02*
X35879636Y-66847438D01*
X35879636Y-66847438D02*
X35689160Y-66752200D01*
X35689160Y-66752200D02*
X35498684Y-66561723D01*
X35498684Y-66561723D02*
X35403446Y-66180771D01*
X35403446Y-66180771D02*
X35403446Y-65514104D01*
X35403446Y-65514104D02*
X35498684Y-65133152D01*
X35498684Y-65133152D02*
X35689160Y-64942676D01*
X35689160Y-64942676D02*
X35879636Y-64847438D01*
X40260589Y-66847438D02*
X39593922Y-65895057D01*
X39117732Y-66847438D02*
X39117732Y-64847438D01*
X39117732Y-64847438D02*
X39879637Y-64847438D01*
X39879637Y-64847438D02*
X40070113Y-64942676D01*
X40070113Y-64942676D02*
X40165351Y-65037914D01*
X40165351Y-65037914D02*
X40260589Y-65228390D01*
X40260589Y-65228390D02*
X40260589Y-65514104D01*
X40260589Y-65514104D02*
X40165351Y-65704580D01*
X40165351Y-65704580D02*
X40070113Y-65799819D01*
X40070113Y-65799819D02*
X39879637Y-65895057D01*
X39879637Y-65895057D02*
X39117732Y-65895057D01*
X41117732Y-66847438D02*
X41117732Y-64847438D01*
X43117732Y-64942676D02*
X42927256Y-64847438D01*
X42927256Y-64847438D02*
X42641542Y-64847438D01*
X42641542Y-64847438D02*
X42355827Y-64942676D01*
X42355827Y-64942676D02*
X42165351Y-65133152D01*
X42165351Y-65133152D02*
X42070113Y-65323628D01*
X42070113Y-65323628D02*
X41974875Y-65704580D01*
X41974875Y-65704580D02*
X41974875Y-65990295D01*
X41974875Y-65990295D02*
X42070113Y-66371247D01*
X42070113Y-66371247D02*
X42165351Y-66561723D01*
X42165351Y-66561723D02*
X42355827Y-66752200D01*
X42355827Y-66752200D02*
X42641542Y-66847438D01*
X42641542Y-66847438D02*
X42832018Y-66847438D01*
X42832018Y-66847438D02*
X43117732Y-66752200D01*
X43117732Y-66752200D02*
X43212970Y-66656961D01*
X43212970Y-66656961D02*
X43212970Y-65990295D01*
X43212970Y-65990295D02*
X42832018Y-65990295D01*
D11*
X48500000Y-77500000D02*
X187500000Y-77500000D01*
X187500000Y-81500000D01*
X48500000Y-81500000D01*
X48500000Y-77500000D01*
X75441979Y-41550038D02*
X75441979Y-39550038D01*
X75441979Y-40502419D02*
X76584836Y-40502419D01*
X76584836Y-41550038D02*
X76584836Y-39550038D01*
X78203884Y-40502419D02*
X77537217Y-40502419D01*
X77537217Y-41550038D02*
X77537217Y-39550038D01*
X77537217Y-39550038D02*
X78489598Y-39550038D01*
X79251503Y-40788133D02*
X80775313Y-40788133D01*
X80013408Y-41550038D02*
X80013408Y-40026228D01*
X82584836Y-39550038D02*
X82203883Y-39550038D01*
X82203883Y-39550038D02*
X82013407Y-39645276D01*
X82013407Y-39645276D02*
X81918169Y-39740514D01*
X81918169Y-39740514D02*
X81727693Y-40026228D01*
X81727693Y-40026228D02*
X81632455Y-40407180D01*
X81632455Y-40407180D02*
X81632455Y-41169085D01*
X81632455Y-41169085D02*
X81727693Y-41359561D01*
X81727693Y-41359561D02*
X81822931Y-41454800D01*
X81822931Y-41454800D02*
X82013407Y-41550038D01*
X82013407Y-41550038D02*
X82394360Y-41550038D01*
X82394360Y-41550038D02*
X82584836Y-41454800D01*
X82584836Y-41454800D02*
X82680074Y-41359561D01*
X82680074Y-41359561D02*
X82775312Y-41169085D01*
X82775312Y-41169085D02*
X82775312Y-40692895D01*
X82775312Y-40692895D02*
X82680074Y-40502419D01*
X82680074Y-40502419D02*
X82584836Y-40407180D01*
X82584836Y-40407180D02*
X82394360Y-40311942D01*
X82394360Y-40311942D02*
X82013407Y-40311942D01*
X82013407Y-40311942D02*
X81822931Y-40407180D01*
X81822931Y-40407180D02*
X81727693Y-40502419D01*
X81727693Y-40502419D02*
X81632455Y-40692895D01*
X83632455Y-41550038D02*
X83632455Y-39550038D01*
X83632455Y-39550038D02*
X84299122Y-40978609D01*
X84299122Y-40978609D02*
X84965788Y-39550038D01*
X84965788Y-39550038D02*
X84965788Y-41550038D01*
X87727693Y-41550038D02*
X87537217Y-41454800D01*
X87537217Y-41454800D02*
X87441979Y-41264323D01*
X87441979Y-41264323D02*
X87441979Y-39550038D01*
X88775312Y-41550038D02*
X88584836Y-41454800D01*
X88584836Y-41454800D02*
X88489598Y-41359561D01*
X88489598Y-41359561D02*
X88394360Y-41169085D01*
X88394360Y-41169085D02*
X88394360Y-40597657D01*
X88394360Y-40597657D02*
X88489598Y-40407180D01*
X88489598Y-40407180D02*
X88584836Y-40311942D01*
X88584836Y-40311942D02*
X88775312Y-40216704D01*
X88775312Y-40216704D02*
X89061027Y-40216704D01*
X89061027Y-40216704D02*
X89251503Y-40311942D01*
X89251503Y-40311942D02*
X89346741Y-40407180D01*
X89346741Y-40407180D02*
X89441979Y-40597657D01*
X89441979Y-40597657D02*
X89441979Y-41169085D01*
X89441979Y-41169085D02*
X89346741Y-41359561D01*
X89346741Y-41359561D02*
X89251503Y-41454800D01*
X89251503Y-41454800D02*
X89061027Y-41550038D01*
X89061027Y-41550038D02*
X88775312Y-41550038D01*
X90108646Y-40216704D02*
X90489598Y-41550038D01*
X90489598Y-41550038D02*
X90870551Y-40597657D01*
X90870551Y-40597657D02*
X91251503Y-41550038D01*
X91251503Y-41550038D02*
X91632455Y-40216704D01*
X92394360Y-40216704D02*
X92394360Y-42216704D01*
X92394360Y-40311942D02*
X92584836Y-40216704D01*
X92584836Y-40216704D02*
X92965789Y-40216704D01*
X92965789Y-40216704D02*
X93156265Y-40311942D01*
X93156265Y-40311942D02*
X93251503Y-40407180D01*
X93251503Y-40407180D02*
X93346741Y-40597657D01*
X93346741Y-40597657D02*
X93346741Y-41169085D01*
X93346741Y-41169085D02*
X93251503Y-41359561D01*
X93251503Y-41359561D02*
X93156265Y-41454800D01*
X93156265Y-41454800D02*
X92965789Y-41550038D01*
X92965789Y-41550038D02*
X92584836Y-41550038D01*
X92584836Y-41550038D02*
X92394360Y-41454800D01*
X95061027Y-41550038D02*
X95061027Y-40502419D01*
X95061027Y-40502419D02*
X94965789Y-40311942D01*
X94965789Y-40311942D02*
X94775313Y-40216704D01*
X94775313Y-40216704D02*
X94394360Y-40216704D01*
X94394360Y-40216704D02*
X94203884Y-40311942D01*
X95061027Y-41454800D02*
X94870551Y-41550038D01*
X94870551Y-41550038D02*
X94394360Y-41550038D01*
X94394360Y-41550038D02*
X94203884Y-41454800D01*
X94203884Y-41454800D02*
X94108646Y-41264323D01*
X94108646Y-41264323D02*
X94108646Y-41073847D01*
X94108646Y-41073847D02*
X94203884Y-40883371D01*
X94203884Y-40883371D02*
X94394360Y-40788133D01*
X94394360Y-40788133D02*
X94870551Y-40788133D01*
X94870551Y-40788133D02*
X95061027Y-40692895D01*
X95918170Y-41454800D02*
X96108646Y-41550038D01*
X96108646Y-41550038D02*
X96489598Y-41550038D01*
X96489598Y-41550038D02*
X96680075Y-41454800D01*
X96680075Y-41454800D02*
X96775313Y-41264323D01*
X96775313Y-41264323D02*
X96775313Y-41169085D01*
X96775313Y-41169085D02*
X96680075Y-40978609D01*
X96680075Y-40978609D02*
X96489598Y-40883371D01*
X96489598Y-40883371D02*
X96203884Y-40883371D01*
X96203884Y-40883371D02*
X96013408Y-40788133D01*
X96013408Y-40788133D02*
X95918170Y-40597657D01*
X95918170Y-40597657D02*
X95918170Y-40502419D01*
X95918170Y-40502419D02*
X96013408Y-40311942D01*
X96013408Y-40311942D02*
X96203884Y-40216704D01*
X96203884Y-40216704D02*
X96489598Y-40216704D01*
X96489598Y-40216704D02*
X96680075Y-40311942D01*
X97537218Y-41454800D02*
X97727694Y-41550038D01*
X97727694Y-41550038D02*
X98108646Y-41550038D01*
X98108646Y-41550038D02*
X98299123Y-41454800D01*
X98299123Y-41454800D02*
X98394361Y-41264323D01*
X98394361Y-41264323D02*
X98394361Y-41169085D01*
X98394361Y-41169085D02*
X98299123Y-40978609D01*
X98299123Y-40978609D02*
X98108646Y-40883371D01*
X98108646Y-40883371D02*
X97822932Y-40883371D01*
X97822932Y-40883371D02*
X97632456Y-40788133D01*
X97632456Y-40788133D02*
X97537218Y-40597657D01*
X97537218Y-40597657D02*
X97537218Y-40502419D01*
X97537218Y-40502419D02*
X97632456Y-40311942D01*
X97632456Y-40311942D02*
X97822932Y-40216704D01*
X97822932Y-40216704D02*
X98108646Y-40216704D01*
X98108646Y-40216704D02*
X98299123Y-40311942D01*
X101632457Y-41550038D02*
X101632457Y-40502419D01*
X101632457Y-40502419D02*
X101537219Y-40311942D01*
X101537219Y-40311942D02*
X101346743Y-40216704D01*
X101346743Y-40216704D02*
X100965790Y-40216704D01*
X100965790Y-40216704D02*
X100775314Y-40311942D01*
X101632457Y-41454800D02*
X101441981Y-41550038D01*
X101441981Y-41550038D02*
X100965790Y-41550038D01*
X100965790Y-41550038D02*
X100775314Y-41454800D01*
X100775314Y-41454800D02*
X100680076Y-41264323D01*
X100680076Y-41264323D02*
X100680076Y-41073847D01*
X100680076Y-41073847D02*
X100775314Y-40883371D01*
X100775314Y-40883371D02*
X100965790Y-40788133D01*
X100965790Y-40788133D02*
X101441981Y-40788133D01*
X101441981Y-40788133D02*
X101632457Y-40692895D01*
X102584838Y-40216704D02*
X102584838Y-41550038D01*
X102584838Y-40407180D02*
X102680076Y-40311942D01*
X102680076Y-40311942D02*
X102870552Y-40216704D01*
X102870552Y-40216704D02*
X103156267Y-40216704D01*
X103156267Y-40216704D02*
X103346743Y-40311942D01*
X103346743Y-40311942D02*
X103441981Y-40502419D01*
X103441981Y-40502419D02*
X103441981Y-41550038D01*
X105251505Y-41550038D02*
X105251505Y-39550038D01*
X105251505Y-41454800D02*
X105061029Y-41550038D01*
X105061029Y-41550038D02*
X104680076Y-41550038D01*
X104680076Y-41550038D02*
X104489600Y-41454800D01*
X104489600Y-41454800D02*
X104394362Y-41359561D01*
X104394362Y-41359561D02*
X104299124Y-41169085D01*
X104299124Y-41169085D02*
X104299124Y-40597657D01*
X104299124Y-40597657D02*
X104394362Y-40407180D01*
X104394362Y-40407180D02*
X104489600Y-40311942D01*
X104489600Y-40311942D02*
X104680076Y-40216704D01*
X104680076Y-40216704D02*
X105061029Y-40216704D01*
X105061029Y-40216704D02*
X105251505Y-40311942D01*
X108584839Y-40216704D02*
X108584839Y-41550038D01*
X108108648Y-39454800D02*
X107632458Y-40883371D01*
X107632458Y-40883371D02*
X108870553Y-40883371D01*
X109632458Y-41550038D02*
X109632458Y-39550038D01*
X109632458Y-39550038D02*
X110299125Y-40978609D01*
X110299125Y-40978609D02*
X110965791Y-39550038D01*
X110965791Y-39550038D02*
X110965791Y-41550038D01*
X113441982Y-41550038D02*
X113441982Y-39550038D01*
X114299125Y-41550038D02*
X114299125Y-40502419D01*
X114299125Y-40502419D02*
X114203887Y-40311942D01*
X114203887Y-40311942D02*
X114013411Y-40216704D01*
X114013411Y-40216704D02*
X113727696Y-40216704D01*
X113727696Y-40216704D02*
X113537220Y-40311942D01*
X113537220Y-40311942D02*
X113441982Y-40407180D01*
X115251506Y-41550038D02*
X115251506Y-40216704D01*
X115251506Y-39550038D02*
X115156268Y-39645276D01*
X115156268Y-39645276D02*
X115251506Y-39740514D01*
X115251506Y-39740514D02*
X115346744Y-39645276D01*
X115346744Y-39645276D02*
X115251506Y-39550038D01*
X115251506Y-39550038D02*
X115251506Y-39740514D01*
X117061030Y-40216704D02*
X117061030Y-41835752D01*
X117061030Y-41835752D02*
X116965792Y-42026228D01*
X116965792Y-42026228D02*
X116870554Y-42121466D01*
X116870554Y-42121466D02*
X116680077Y-42216704D01*
X116680077Y-42216704D02*
X116394363Y-42216704D01*
X116394363Y-42216704D02*
X116203887Y-42121466D01*
X117061030Y-41454800D02*
X116870554Y-41550038D01*
X116870554Y-41550038D02*
X116489601Y-41550038D01*
X116489601Y-41550038D02*
X116299125Y-41454800D01*
X116299125Y-41454800D02*
X116203887Y-41359561D01*
X116203887Y-41359561D02*
X116108649Y-41169085D01*
X116108649Y-41169085D02*
X116108649Y-40597657D01*
X116108649Y-40597657D02*
X116203887Y-40407180D01*
X116203887Y-40407180D02*
X116299125Y-40311942D01*
X116299125Y-40311942D02*
X116489601Y-40216704D01*
X116489601Y-40216704D02*
X116870554Y-40216704D01*
X116870554Y-40216704D02*
X117061030Y-40311942D01*
X118013411Y-41550038D02*
X118013411Y-39550038D01*
X118870554Y-41550038D02*
X118870554Y-40502419D01*
X118870554Y-40502419D02*
X118775316Y-40311942D01*
X118775316Y-40311942D02*
X118584840Y-40216704D01*
X118584840Y-40216704D02*
X118299125Y-40216704D01*
X118299125Y-40216704D02*
X118108649Y-40311942D01*
X118108649Y-40311942D02*
X118013411Y-40407180D01*
X119822935Y-40216704D02*
X119822935Y-42216704D01*
X119822935Y-40311942D02*
X120013411Y-40216704D01*
X120013411Y-40216704D02*
X120394364Y-40216704D01*
X120394364Y-40216704D02*
X120584840Y-40311942D01*
X120584840Y-40311942D02*
X120680078Y-40407180D01*
X120680078Y-40407180D02*
X120775316Y-40597657D01*
X120775316Y-40597657D02*
X120775316Y-41169085D01*
X120775316Y-41169085D02*
X120680078Y-41359561D01*
X120680078Y-41359561D02*
X120584840Y-41454800D01*
X120584840Y-41454800D02*
X120394364Y-41550038D01*
X120394364Y-41550038D02*
X120013411Y-41550038D01*
X120013411Y-41550038D02*
X119822935Y-41454800D01*
X122489602Y-41550038D02*
X122489602Y-40502419D01*
X122489602Y-40502419D02*
X122394364Y-40311942D01*
X122394364Y-40311942D02*
X122203888Y-40216704D01*
X122203888Y-40216704D02*
X121822935Y-40216704D01*
X121822935Y-40216704D02*
X121632459Y-40311942D01*
X122489602Y-41454800D02*
X122299126Y-41550038D01*
X122299126Y-41550038D02*
X121822935Y-41550038D01*
X121822935Y-41550038D02*
X121632459Y-41454800D01*
X121632459Y-41454800D02*
X121537221Y-41264323D01*
X121537221Y-41264323D02*
X121537221Y-41073847D01*
X121537221Y-41073847D02*
X121632459Y-40883371D01*
X121632459Y-40883371D02*
X121822935Y-40788133D01*
X121822935Y-40788133D02*
X122299126Y-40788133D01*
X122299126Y-40788133D02*
X122489602Y-40692895D01*
X123346745Y-41454800D02*
X123537221Y-41550038D01*
X123537221Y-41550038D02*
X123918173Y-41550038D01*
X123918173Y-41550038D02*
X124108650Y-41454800D01*
X124108650Y-41454800D02*
X124203888Y-41264323D01*
X124203888Y-41264323D02*
X124203888Y-41169085D01*
X124203888Y-41169085D02*
X124108650Y-40978609D01*
X124108650Y-40978609D02*
X123918173Y-40883371D01*
X123918173Y-40883371D02*
X123632459Y-40883371D01*
X123632459Y-40883371D02*
X123441983Y-40788133D01*
X123441983Y-40788133D02*
X123346745Y-40597657D01*
X123346745Y-40597657D02*
X123346745Y-40502419D01*
X123346745Y-40502419D02*
X123441983Y-40311942D01*
X123441983Y-40311942D02*
X123632459Y-40216704D01*
X123632459Y-40216704D02*
X123918173Y-40216704D01*
X123918173Y-40216704D02*
X124108650Y-40311942D01*
X124965793Y-41454800D02*
X125156269Y-41550038D01*
X125156269Y-41550038D02*
X125537221Y-41550038D01*
X125537221Y-41550038D02*
X125727698Y-41454800D01*
X125727698Y-41454800D02*
X125822936Y-41264323D01*
X125822936Y-41264323D02*
X125822936Y-41169085D01*
X125822936Y-41169085D02*
X125727698Y-40978609D01*
X125727698Y-40978609D02*
X125537221Y-40883371D01*
X125537221Y-40883371D02*
X125251507Y-40883371D01*
X125251507Y-40883371D02*
X125061031Y-40788133D01*
X125061031Y-40788133D02*
X124965793Y-40597657D01*
X124965793Y-40597657D02*
X124965793Y-40502419D01*
X124965793Y-40502419D02*
X125061031Y-40311942D01*
X125061031Y-40311942D02*
X125251507Y-40216704D01*
X125251507Y-40216704D02*
X125537221Y-40216704D01*
X125537221Y-40216704D02*
X125727698Y-40311942D01*
X127918175Y-40216704D02*
X128680079Y-40216704D01*
X128203889Y-41550038D02*
X128203889Y-39835752D01*
X128203889Y-39835752D02*
X128299127Y-39645276D01*
X128299127Y-39645276D02*
X128489603Y-39550038D01*
X128489603Y-39550038D02*
X128680079Y-39550038D01*
X129346746Y-41550038D02*
X129346746Y-40216704D01*
X129346746Y-39550038D02*
X129251508Y-39645276D01*
X129251508Y-39645276D02*
X129346746Y-39740514D01*
X129346746Y-39740514D02*
X129441984Y-39645276D01*
X129441984Y-39645276D02*
X129346746Y-39550038D01*
X129346746Y-39550038D02*
X129346746Y-39740514D01*
X130584841Y-41550038D02*
X130394365Y-41454800D01*
X130394365Y-41454800D02*
X130299127Y-41264323D01*
X130299127Y-41264323D02*
X130299127Y-39550038D01*
X131061032Y-40216704D02*
X131822936Y-40216704D01*
X131346746Y-39550038D02*
X131346746Y-41264323D01*
X131346746Y-41264323D02*
X131441984Y-41454800D01*
X131441984Y-41454800D02*
X131632460Y-41550038D01*
X131632460Y-41550038D02*
X131822936Y-41550038D01*
X133251508Y-41454800D02*
X133061032Y-41550038D01*
X133061032Y-41550038D02*
X132680079Y-41550038D01*
X132680079Y-41550038D02*
X132489603Y-41454800D01*
X132489603Y-41454800D02*
X132394365Y-41264323D01*
X132394365Y-41264323D02*
X132394365Y-40502419D01*
X132394365Y-40502419D02*
X132489603Y-40311942D01*
X132489603Y-40311942D02*
X132680079Y-40216704D01*
X132680079Y-40216704D02*
X133061032Y-40216704D01*
X133061032Y-40216704D02*
X133251508Y-40311942D01*
X133251508Y-40311942D02*
X133346746Y-40502419D01*
X133346746Y-40502419D02*
X133346746Y-40692895D01*
X133346746Y-40692895D02*
X132394365Y-40883371D01*
X134203889Y-41550038D02*
X134203889Y-40216704D01*
X134203889Y-40597657D02*
X134299127Y-40407180D01*
X134299127Y-40407180D02*
X134394365Y-40311942D01*
X134394365Y-40311942D02*
X134584841Y-40216704D01*
X134584841Y-40216704D02*
X134775318Y-40216704D01*
X135441984Y-41359561D02*
X135537222Y-41454800D01*
X135537222Y-41454800D02*
X135441984Y-41550038D01*
X135441984Y-41550038D02*
X135346746Y-41454800D01*
X135346746Y-41454800D02*
X135441984Y-41359561D01*
X135441984Y-41359561D02*
X135441984Y-41550038D01*
X106989598Y-84350038D02*
X105846741Y-84350038D01*
X106418169Y-84350038D02*
X106418169Y-82350038D01*
X106418169Y-82350038D02*
X106227693Y-82635752D01*
X106227693Y-82635752D02*
X106037217Y-82826228D01*
X106037217Y-82826228D02*
X105846741Y-82921466D01*
X108799122Y-82350038D02*
X107846741Y-82350038D01*
X107846741Y-82350038D02*
X107751503Y-83302419D01*
X107751503Y-83302419D02*
X107846741Y-83207180D01*
X107846741Y-83207180D02*
X108037217Y-83111942D01*
X108037217Y-83111942D02*
X108513408Y-83111942D01*
X108513408Y-83111942D02*
X108703884Y-83207180D01*
X108703884Y-83207180D02*
X108799122Y-83302419D01*
X108799122Y-83302419D02*
X108894360Y-83492895D01*
X108894360Y-83492895D02*
X108894360Y-83969085D01*
X108894360Y-83969085D02*
X108799122Y-84159561D01*
X108799122Y-84159561D02*
X108703884Y-84254800D01*
X108703884Y-84254800D02*
X108513408Y-84350038D01*
X108513408Y-84350038D02*
X108037217Y-84350038D01*
X108037217Y-84350038D02*
X107846741Y-84254800D01*
X107846741Y-84254800D02*
X107751503Y-84159561D01*
X109751503Y-84350038D02*
X109751503Y-82350038D01*
X109751503Y-82350038D02*
X110418170Y-83778609D01*
X110418170Y-83778609D02*
X111084836Y-82350038D01*
X111084836Y-82350038D02*
X111084836Y-84350038D01*
X112037217Y-84350038D02*
X112037217Y-82350038D01*
X112037217Y-82350038D02*
X112703884Y-83778609D01*
X112703884Y-83778609D02*
X113370550Y-82350038D01*
X113370550Y-82350038D02*
X113370550Y-84350038D01*
X115561027Y-82350038D02*
X116703884Y-82350038D01*
X116132455Y-84350038D02*
X116132455Y-82350038D01*
X117275313Y-83778609D02*
X118227694Y-83778609D01*
X117084837Y-84350038D02*
X117751503Y-82350038D01*
X117751503Y-82350038D02*
X118418170Y-84350038D01*
X120037218Y-84350038D02*
X119084837Y-84350038D01*
X119084837Y-84350038D02*
X119084837Y-82350038D01*
X121656266Y-84350038D02*
X120703885Y-84350038D01*
X120703885Y-84350038D02*
X120703885Y-82350038D01*
X99989598Y-44550038D02*
X98846741Y-44550038D01*
X99418169Y-44550038D02*
X99418169Y-42550038D01*
X99418169Y-42550038D02*
X99227693Y-42835752D01*
X99227693Y-42835752D02*
X99037217Y-43026228D01*
X99037217Y-43026228D02*
X98846741Y-43121466D01*
X101227693Y-42550038D02*
X101418170Y-42550038D01*
X101418170Y-42550038D02*
X101608646Y-42645276D01*
X101608646Y-42645276D02*
X101703884Y-42740514D01*
X101703884Y-42740514D02*
X101799122Y-42930990D01*
X101799122Y-42930990D02*
X101894360Y-43311942D01*
X101894360Y-43311942D02*
X101894360Y-43788133D01*
X101894360Y-43788133D02*
X101799122Y-44169085D01*
X101799122Y-44169085D02*
X101703884Y-44359561D01*
X101703884Y-44359561D02*
X101608646Y-44454800D01*
X101608646Y-44454800D02*
X101418170Y-44550038D01*
X101418170Y-44550038D02*
X101227693Y-44550038D01*
X101227693Y-44550038D02*
X101037217Y-44454800D01*
X101037217Y-44454800D02*
X100941979Y-44359561D01*
X100941979Y-44359561D02*
X100846741Y-44169085D01*
X100846741Y-44169085D02*
X100751503Y-43788133D01*
X100751503Y-43788133D02*
X100751503Y-43311942D01*
X100751503Y-43311942D02*
X100846741Y-42930990D01*
X100846741Y-42930990D02*
X100941979Y-42740514D01*
X100941979Y-42740514D02*
X101037217Y-42645276D01*
X101037217Y-42645276D02*
X101227693Y-42550038D01*
X103132455Y-42550038D02*
X103322932Y-42550038D01*
X103322932Y-42550038D02*
X103513408Y-42645276D01*
X103513408Y-42645276D02*
X103608646Y-42740514D01*
X103608646Y-42740514D02*
X103703884Y-42930990D01*
X103703884Y-42930990D02*
X103799122Y-43311942D01*
X103799122Y-43311942D02*
X103799122Y-43788133D01*
X103799122Y-43788133D02*
X103703884Y-44169085D01*
X103703884Y-44169085D02*
X103608646Y-44359561D01*
X103608646Y-44359561D02*
X103513408Y-44454800D01*
X103513408Y-44454800D02*
X103322932Y-44550038D01*
X103322932Y-44550038D02*
X103132455Y-44550038D01*
X103132455Y-44550038D02*
X102941979Y-44454800D01*
X102941979Y-44454800D02*
X102846741Y-44359561D01*
X102846741Y-44359561D02*
X102751503Y-44169085D01*
X102751503Y-44169085D02*
X102656265Y-43788133D01*
X102656265Y-43788133D02*
X102656265Y-43311942D01*
X102656265Y-43311942D02*
X102751503Y-42930990D01*
X102751503Y-42930990D02*
X102846741Y-42740514D01*
X102846741Y-42740514D02*
X102941979Y-42645276D01*
X102941979Y-42645276D02*
X103132455Y-42550038D01*
X104465789Y-42550038D02*
X104941979Y-44550038D01*
X104941979Y-44550038D02*
X105322932Y-43121466D01*
X105322932Y-43121466D02*
X105703884Y-44550038D01*
X105703884Y-44550038D02*
X106180075Y-42550038D01*
X108465789Y-44550038D02*
X108465789Y-42550038D01*
X108465789Y-42550038D02*
X109132456Y-43978609D01*
X109132456Y-43978609D02*
X109799122Y-42550038D01*
X109799122Y-42550038D02*
X109799122Y-44550038D01*
X110656265Y-43978609D02*
X111608646Y-43978609D01*
X110465789Y-44550038D02*
X111132455Y-42550038D01*
X111132455Y-42550038D02*
X111799122Y-44550038D01*
X112275313Y-42550038D02*
X113608646Y-44550038D01*
X113608646Y-42550038D02*
X112275313Y-44550038D01*
X114370551Y-44359561D02*
X114465789Y-44454800D01*
X114465789Y-44454800D02*
X114370551Y-44550038D01*
X114370551Y-44550038D02*
X114275313Y-44454800D01*
X114275313Y-44454800D02*
X114370551Y-44359561D01*
X114370551Y-44359561D02*
X114370551Y-44550038D01*
X114370551Y-43788133D02*
X114275313Y-42645276D01*
X114275313Y-42645276D02*
X114370551Y-42550038D01*
X114370551Y-42550038D02*
X114465789Y-42645276D01*
X114465789Y-42645276D02*
X114370551Y-43788133D01*
X114370551Y-43788133D02*
X114370551Y-42550038D01*
X149989598Y-84350038D02*
X148846741Y-84350038D01*
X149418169Y-84350038D02*
X149418169Y-82350038D01*
X149418169Y-82350038D02*
X149227693Y-82635752D01*
X149227693Y-82635752D02*
X149037217Y-82826228D01*
X149037217Y-82826228D02*
X148846741Y-82921466D01*
X150846741Y-84159561D02*
X150941979Y-84254800D01*
X150941979Y-84254800D02*
X150846741Y-84350038D01*
X150846741Y-84350038D02*
X150751503Y-84254800D01*
X150751503Y-84254800D02*
X150846741Y-84159561D01*
X150846741Y-84159561D02*
X150846741Y-84350038D01*
X152751503Y-82350038D02*
X151799122Y-82350038D01*
X151799122Y-82350038D02*
X151703884Y-83302419D01*
X151703884Y-83302419D02*
X151799122Y-83207180D01*
X151799122Y-83207180D02*
X151989598Y-83111942D01*
X151989598Y-83111942D02*
X152465789Y-83111942D01*
X152465789Y-83111942D02*
X152656265Y-83207180D01*
X152656265Y-83207180D02*
X152751503Y-83302419D01*
X152751503Y-83302419D02*
X152846741Y-83492895D01*
X152846741Y-83492895D02*
X152846741Y-83969085D01*
X152846741Y-83969085D02*
X152751503Y-84159561D01*
X152751503Y-84159561D02*
X152656265Y-84254800D01*
X152656265Y-84254800D02*
X152465789Y-84350038D01*
X152465789Y-84350038D02*
X151989598Y-84350038D01*
X151989598Y-84350038D02*
X151799122Y-84254800D01*
X151799122Y-84254800D02*
X151703884Y-84159561D01*
X153703884Y-84350038D02*
X153703884Y-82350038D01*
X153703884Y-82350038D02*
X154370551Y-83778609D01*
X154370551Y-83778609D02*
X155037217Y-82350038D01*
X155037217Y-82350038D02*
X155037217Y-84350038D01*
X155989598Y-84350038D02*
X155989598Y-82350038D01*
X155989598Y-82350038D02*
X156656265Y-83778609D01*
X156656265Y-83778609D02*
X157322931Y-82350038D01*
X157322931Y-82350038D02*
X157322931Y-84350038D01*
X159513408Y-82350038D02*
X160656265Y-82350038D01*
X160084836Y-84350038D02*
X160084836Y-82350038D01*
X161322932Y-84350038D02*
X161322932Y-82350038D01*
X161322932Y-83302419D02*
X162465789Y-83302419D01*
X162465789Y-84350038D02*
X162465789Y-82350038D01*
X163418170Y-84350038D02*
X163418170Y-82350038D01*
X165513408Y-84159561D02*
X165418170Y-84254800D01*
X165418170Y-84254800D02*
X165132456Y-84350038D01*
X165132456Y-84350038D02*
X164941980Y-84350038D01*
X164941980Y-84350038D02*
X164656265Y-84254800D01*
X164656265Y-84254800D02*
X164465789Y-84064323D01*
X164465789Y-84064323D02*
X164370551Y-83873847D01*
X164370551Y-83873847D02*
X164275313Y-83492895D01*
X164275313Y-83492895D02*
X164275313Y-83207180D01*
X164275313Y-83207180D02*
X164370551Y-82826228D01*
X164370551Y-82826228D02*
X164465789Y-82635752D01*
X164465789Y-82635752D02*
X164656265Y-82445276D01*
X164656265Y-82445276D02*
X164941980Y-82350038D01*
X164941980Y-82350038D02*
X165132456Y-82350038D01*
X165132456Y-82350038D02*
X165418170Y-82445276D01*
X165418170Y-82445276D02*
X165513408Y-82540514D01*
X166370551Y-84350038D02*
X166370551Y-82350038D01*
X167513408Y-84350038D02*
X166656265Y-83207180D01*
X167513408Y-82350038D02*
X166370551Y-83492895D01*
X54084836Y-84159561D02*
X53989598Y-84254800D01*
X53989598Y-84254800D02*
X53703884Y-84350038D01*
X53703884Y-84350038D02*
X53513408Y-84350038D01*
X53513408Y-84350038D02*
X53227693Y-84254800D01*
X53227693Y-84254800D02*
X53037217Y-84064323D01*
X53037217Y-84064323D02*
X52941979Y-83873847D01*
X52941979Y-83873847D02*
X52846741Y-83492895D01*
X52846741Y-83492895D02*
X52846741Y-83207180D01*
X52846741Y-83207180D02*
X52941979Y-82826228D01*
X52941979Y-82826228D02*
X53037217Y-82635752D01*
X53037217Y-82635752D02*
X53227693Y-82445276D01*
X53227693Y-82445276D02*
X53513408Y-82350038D01*
X53513408Y-82350038D02*
X53703884Y-82350038D01*
X53703884Y-82350038D02*
X53989598Y-82445276D01*
X53989598Y-82445276D02*
X54084836Y-82540514D01*
X55322931Y-82350038D02*
X55703884Y-82350038D01*
X55703884Y-82350038D02*
X55894360Y-82445276D01*
X55894360Y-82445276D02*
X56084836Y-82635752D01*
X56084836Y-82635752D02*
X56180074Y-83016704D01*
X56180074Y-83016704D02*
X56180074Y-83683371D01*
X56180074Y-83683371D02*
X56084836Y-84064323D01*
X56084836Y-84064323D02*
X55894360Y-84254800D01*
X55894360Y-84254800D02*
X55703884Y-84350038D01*
X55703884Y-84350038D02*
X55322931Y-84350038D01*
X55322931Y-84350038D02*
X55132455Y-84254800D01*
X55132455Y-84254800D02*
X54941979Y-84064323D01*
X54941979Y-84064323D02*
X54846741Y-83683371D01*
X54846741Y-83683371D02*
X54846741Y-83016704D01*
X54846741Y-83016704D02*
X54941979Y-82635752D01*
X54941979Y-82635752D02*
X55132455Y-82445276D01*
X55132455Y-82445276D02*
X55322931Y-82350038D01*
X57037217Y-84350038D02*
X57037217Y-82350038D01*
X57037217Y-82350038D02*
X57799122Y-82350038D01*
X57799122Y-82350038D02*
X57989598Y-82445276D01*
X57989598Y-82445276D02*
X58084836Y-82540514D01*
X58084836Y-82540514D02*
X58180074Y-82730990D01*
X58180074Y-82730990D02*
X58180074Y-83016704D01*
X58180074Y-83016704D02*
X58084836Y-83207180D01*
X58084836Y-83207180D02*
X57989598Y-83302419D01*
X57989598Y-83302419D02*
X57799122Y-83397657D01*
X57799122Y-83397657D02*
X57037217Y-83397657D01*
X59037217Y-84350038D02*
X59037217Y-82350038D01*
X59037217Y-82350038D02*
X59799122Y-82350038D01*
X59799122Y-82350038D02*
X59989598Y-82445276D01*
X59989598Y-82445276D02*
X60084836Y-82540514D01*
X60084836Y-82540514D02*
X60180074Y-82730990D01*
X60180074Y-82730990D02*
X60180074Y-83016704D01*
X60180074Y-83016704D02*
X60084836Y-83207180D01*
X60084836Y-83207180D02*
X59989598Y-83302419D01*
X59989598Y-83302419D02*
X59799122Y-83397657D01*
X59799122Y-83397657D02*
X59037217Y-83397657D01*
X61037217Y-83302419D02*
X61703884Y-83302419D01*
X61989598Y-84350038D02*
X61037217Y-84350038D01*
X61037217Y-84350038D02*
X61037217Y-82350038D01*
X61037217Y-82350038D02*
X61989598Y-82350038D01*
X63989598Y-84350038D02*
X63322931Y-83397657D01*
X62846741Y-84350038D02*
X62846741Y-82350038D01*
X62846741Y-82350038D02*
X63608646Y-82350038D01*
X63608646Y-82350038D02*
X63799122Y-82445276D01*
X63799122Y-82445276D02*
X63894360Y-82540514D01*
X63894360Y-82540514D02*
X63989598Y-82730990D01*
X63989598Y-82730990D02*
X63989598Y-83016704D01*
X63989598Y-83016704D02*
X63894360Y-83207180D01*
X63894360Y-83207180D02*
X63799122Y-83302419D01*
X63799122Y-83302419D02*
X63608646Y-83397657D01*
X63608646Y-83397657D02*
X62846741Y-83397657D01*
X66275313Y-84254800D02*
X66561027Y-84350038D01*
X66561027Y-84350038D02*
X67037218Y-84350038D01*
X67037218Y-84350038D02*
X67227694Y-84254800D01*
X67227694Y-84254800D02*
X67322932Y-84159561D01*
X67322932Y-84159561D02*
X67418170Y-83969085D01*
X67418170Y-83969085D02*
X67418170Y-83778609D01*
X67418170Y-83778609D02*
X67322932Y-83588133D01*
X67322932Y-83588133D02*
X67227694Y-83492895D01*
X67227694Y-83492895D02*
X67037218Y-83397657D01*
X67037218Y-83397657D02*
X66656265Y-83302419D01*
X66656265Y-83302419D02*
X66465789Y-83207180D01*
X66465789Y-83207180D02*
X66370551Y-83111942D01*
X66370551Y-83111942D02*
X66275313Y-82921466D01*
X66275313Y-82921466D02*
X66275313Y-82730990D01*
X66275313Y-82730990D02*
X66370551Y-82540514D01*
X66370551Y-82540514D02*
X66465789Y-82445276D01*
X66465789Y-82445276D02*
X66656265Y-82350038D01*
X66656265Y-82350038D02*
X67132456Y-82350038D01*
X67132456Y-82350038D02*
X67418170Y-82445276D01*
X68275313Y-84350038D02*
X68275313Y-82350038D01*
X68275313Y-83302419D02*
X69418170Y-83302419D01*
X69418170Y-84350038D02*
X69418170Y-82350038D01*
X70370551Y-83302419D02*
X71037218Y-83302419D01*
X71322932Y-84350038D02*
X70370551Y-84350038D01*
X70370551Y-84350038D02*
X70370551Y-82350038D01*
X70370551Y-82350038D02*
X71322932Y-82350038D01*
X72084837Y-83778609D02*
X73037218Y-83778609D01*
X71894361Y-84350038D02*
X72561027Y-82350038D01*
X72561027Y-82350038D02*
X73227694Y-84350038D01*
X73608647Y-82350038D02*
X74751504Y-82350038D01*
X74180075Y-84350038D02*
X74180075Y-82350038D01*
X76846743Y-83778609D02*
X77799124Y-83778609D01*
X76656267Y-84350038D02*
X77322933Y-82350038D01*
X77322933Y-82350038D02*
X77989600Y-84350038D01*
X78561029Y-84254800D02*
X78846743Y-84350038D01*
X78846743Y-84350038D02*
X79322934Y-84350038D01*
X79322934Y-84350038D02*
X79513410Y-84254800D01*
X79513410Y-84254800D02*
X79608648Y-84159561D01*
X79608648Y-84159561D02*
X79703886Y-83969085D01*
X79703886Y-83969085D02*
X79703886Y-83778609D01*
X79703886Y-83778609D02*
X79608648Y-83588133D01*
X79608648Y-83588133D02*
X79513410Y-83492895D01*
X79513410Y-83492895D02*
X79322934Y-83397657D01*
X79322934Y-83397657D02*
X78941981Y-83302419D01*
X78941981Y-83302419D02*
X78751505Y-83207180D01*
X78751505Y-83207180D02*
X78656267Y-83111942D01*
X78656267Y-83111942D02*
X78561029Y-82921466D01*
X78561029Y-82921466D02*
X78561029Y-82730990D01*
X78561029Y-82730990D02*
X78656267Y-82540514D01*
X78656267Y-82540514D02*
X78751505Y-82445276D01*
X78751505Y-82445276D02*
X78941981Y-82350038D01*
X78941981Y-82350038D02*
X79418172Y-82350038D01*
X79418172Y-82350038D02*
X79703886Y-82445276D01*
X81989601Y-84254800D02*
X82275315Y-84350038D01*
X82275315Y-84350038D02*
X82751506Y-84350038D01*
X82751506Y-84350038D02*
X82941982Y-84254800D01*
X82941982Y-84254800D02*
X83037220Y-84159561D01*
X83037220Y-84159561D02*
X83132458Y-83969085D01*
X83132458Y-83969085D02*
X83132458Y-83778609D01*
X83132458Y-83778609D02*
X83037220Y-83588133D01*
X83037220Y-83588133D02*
X82941982Y-83492895D01*
X82941982Y-83492895D02*
X82751506Y-83397657D01*
X82751506Y-83397657D02*
X82370553Y-83302419D01*
X82370553Y-83302419D02*
X82180077Y-83207180D01*
X82180077Y-83207180D02*
X82084839Y-83111942D01*
X82084839Y-83111942D02*
X81989601Y-82921466D01*
X81989601Y-82921466D02*
X81989601Y-82730990D01*
X81989601Y-82730990D02*
X82084839Y-82540514D01*
X82084839Y-82540514D02*
X82180077Y-82445276D01*
X82180077Y-82445276D02*
X82370553Y-82350038D01*
X82370553Y-82350038D02*
X82846744Y-82350038D01*
X82846744Y-82350038D02*
X83132458Y-82445276D01*
X83989601Y-84350038D02*
X83989601Y-82350038D01*
X83989601Y-83302419D02*
X85132458Y-83302419D01*
X85132458Y-84350038D02*
X85132458Y-82350038D01*
X86084839Y-84350038D02*
X86084839Y-82350038D01*
X87037220Y-83302419D02*
X87703887Y-83302419D01*
X87989601Y-84350038D02*
X87037220Y-84350038D01*
X87037220Y-84350038D02*
X87037220Y-82350038D01*
X87037220Y-82350038D02*
X87989601Y-82350038D01*
X89799125Y-84350038D02*
X88846744Y-84350038D01*
X88846744Y-84350038D02*
X88846744Y-82350038D01*
X90465792Y-84350038D02*
X90465792Y-82350038D01*
X90465792Y-82350038D02*
X90941982Y-82350038D01*
X90941982Y-82350038D02*
X91227697Y-82445276D01*
X91227697Y-82445276D02*
X91418173Y-82635752D01*
X91418173Y-82635752D02*
X91513411Y-82826228D01*
X91513411Y-82826228D02*
X91608649Y-83207180D01*
X91608649Y-83207180D02*
X91608649Y-83492895D01*
X91608649Y-83492895D02*
X91513411Y-83873847D01*
X91513411Y-83873847D02*
X91418173Y-84064323D01*
X91418173Y-84064323D02*
X91227697Y-84254800D01*
X91227697Y-84254800D02*
X90941982Y-84350038D01*
X90941982Y-84350038D02*
X90465792Y-84350038D01*
X166041979Y-88750038D02*
X166041979Y-86750038D01*
X166041979Y-87702419D02*
X167184836Y-87702419D01*
X167184836Y-88750038D02*
X167184836Y-86750038D01*
X168803884Y-87702419D02*
X168137217Y-87702419D01*
X168137217Y-88750038D02*
X168137217Y-86750038D01*
X168137217Y-86750038D02*
X169089598Y-86750038D01*
X169851503Y-87988133D02*
X171375313Y-87988133D01*
X170613408Y-88750038D02*
X170613408Y-87226228D01*
X173184836Y-86750038D02*
X172803883Y-86750038D01*
X172803883Y-86750038D02*
X172613407Y-86845276D01*
X172613407Y-86845276D02*
X172518169Y-86940514D01*
X172518169Y-86940514D02*
X172327693Y-87226228D01*
X172327693Y-87226228D02*
X172232455Y-87607180D01*
X172232455Y-87607180D02*
X172232455Y-88369085D01*
X172232455Y-88369085D02*
X172327693Y-88559561D01*
X172327693Y-88559561D02*
X172422931Y-88654800D01*
X172422931Y-88654800D02*
X172613407Y-88750038D01*
X172613407Y-88750038D02*
X172994360Y-88750038D01*
X172994360Y-88750038D02*
X173184836Y-88654800D01*
X173184836Y-88654800D02*
X173280074Y-88559561D01*
X173280074Y-88559561D02*
X173375312Y-88369085D01*
X173375312Y-88369085D02*
X173375312Y-87892895D01*
X173375312Y-87892895D02*
X173280074Y-87702419D01*
X173280074Y-87702419D02*
X173184836Y-87607180D01*
X173184836Y-87607180D02*
X172994360Y-87511942D01*
X172994360Y-87511942D02*
X172613407Y-87511942D01*
X172613407Y-87511942D02*
X172422931Y-87607180D01*
X172422931Y-87607180D02*
X172327693Y-87702419D01*
X172327693Y-87702419D02*
X172232455Y-87892895D01*
X174232455Y-88750038D02*
X174232455Y-86750038D01*
X174232455Y-86750038D02*
X174899122Y-88178609D01*
X174899122Y-88178609D02*
X175565788Y-86750038D01*
X175565788Y-86750038D02*
X175565788Y-88750038D01*
X170399122Y-57416704D02*
X170399122Y-58750038D01*
X169922931Y-56654800D02*
X169446741Y-58083371D01*
X169446741Y-58083371D02*
X170684836Y-58083371D01*
X171446741Y-58750038D02*
X171446741Y-56750038D01*
X171446741Y-56750038D02*
X172113408Y-58178609D01*
X172113408Y-58178609D02*
X172780074Y-56750038D01*
X172780074Y-56750038D02*
X172780074Y-58750038D01*
D10*
X93359580Y-100492857D02*
X93407200Y-100540476D01*
X93407200Y-100540476D02*
X93454819Y-100683333D01*
X93454819Y-100683333D02*
X93454819Y-100778571D01*
X93454819Y-100778571D02*
X93407200Y-100921428D01*
X93407200Y-100921428D02*
X93311961Y-101016666D01*
X93311961Y-101016666D02*
X93216723Y-101064285D01*
X93216723Y-101064285D02*
X93026247Y-101111904D01*
X93026247Y-101111904D02*
X92883390Y-101111904D01*
X92883390Y-101111904D02*
X92692914Y-101064285D01*
X92692914Y-101064285D02*
X92597676Y-101016666D01*
X92597676Y-101016666D02*
X92502438Y-100921428D01*
X92502438Y-100921428D02*
X92454819Y-100778571D01*
X92454819Y-100778571D02*
X92454819Y-100683333D01*
X92454819Y-100683333D02*
X92502438Y-100540476D01*
X92502438Y-100540476D02*
X92550057Y-100492857D01*
X93454819Y-99540476D02*
X93454819Y-100111904D01*
X93454819Y-99826190D02*
X92454819Y-99826190D01*
X92454819Y-99826190D02*
X92597676Y-99921428D01*
X92597676Y-99921428D02*
X92692914Y-100016666D01*
X92692914Y-100016666D02*
X92740533Y-100111904D01*
X92454819Y-99207142D02*
X92454819Y-98540476D01*
X92454819Y-98540476D02*
X93454819Y-98969047D01*
X51444642Y-98454819D02*
X50968452Y-98454819D01*
X50968452Y-98454819D02*
X50968452Y-97454819D01*
X52301785Y-98454819D02*
X51730357Y-98454819D01*
X52016071Y-98454819D02*
X52016071Y-97454819D01*
X52016071Y-97454819D02*
X51920833Y-97597676D01*
X51920833Y-97597676D02*
X51825595Y-97692914D01*
X51825595Y-97692914D02*
X51730357Y-97740533D01*
X52920833Y-97454819D02*
X53016071Y-97454819D01*
X53016071Y-97454819D02*
X53111309Y-97502438D01*
X53111309Y-97502438D02*
X53158928Y-97550057D01*
X53158928Y-97550057D02*
X53206547Y-97645295D01*
X53206547Y-97645295D02*
X53254166Y-97835771D01*
X53254166Y-97835771D02*
X53254166Y-98073866D01*
X53254166Y-98073866D02*
X53206547Y-98264342D01*
X53206547Y-98264342D02*
X53158928Y-98359580D01*
X53158928Y-98359580D02*
X53111309Y-98407200D01*
X53111309Y-98407200D02*
X53016071Y-98454819D01*
X53016071Y-98454819D02*
X52920833Y-98454819D01*
X52920833Y-98454819D02*
X52825595Y-98407200D01*
X52825595Y-98407200D02*
X52777976Y-98359580D01*
X52777976Y-98359580D02*
X52730357Y-98264342D01*
X52730357Y-98264342D02*
X52682738Y-98073866D01*
X52682738Y-98073866D02*
X52682738Y-97835771D01*
X52682738Y-97835771D02*
X52730357Y-97645295D01*
X52730357Y-97645295D02*
X52777976Y-97550057D01*
X52777976Y-97550057D02*
X52825595Y-97502438D01*
X52825595Y-97502438D02*
X52920833Y-97454819D01*
X62109580Y-100206666D02*
X62157200Y-100254285D01*
X62157200Y-100254285D02*
X62204819Y-100397142D01*
X62204819Y-100397142D02*
X62204819Y-100492380D01*
X62204819Y-100492380D02*
X62157200Y-100635237D01*
X62157200Y-100635237D02*
X62061961Y-100730475D01*
X62061961Y-100730475D02*
X61966723Y-100778094D01*
X61966723Y-100778094D02*
X61776247Y-100825713D01*
X61776247Y-100825713D02*
X61633390Y-100825713D01*
X61633390Y-100825713D02*
X61442914Y-100778094D01*
X61442914Y-100778094D02*
X61347676Y-100730475D01*
X61347676Y-100730475D02*
X61252438Y-100635237D01*
X61252438Y-100635237D02*
X61204819Y-100492380D01*
X61204819Y-100492380D02*
X61204819Y-100397142D01*
X61204819Y-100397142D02*
X61252438Y-100254285D01*
X61252438Y-100254285D02*
X61300057Y-100206666D01*
X61204819Y-99349523D02*
X61204819Y-99539999D01*
X61204819Y-99539999D02*
X61252438Y-99635237D01*
X61252438Y-99635237D02*
X61300057Y-99682856D01*
X61300057Y-99682856D02*
X61442914Y-99778094D01*
X61442914Y-99778094D02*
X61633390Y-99825713D01*
X61633390Y-99825713D02*
X62014342Y-99825713D01*
X62014342Y-99825713D02*
X62109580Y-99778094D01*
X62109580Y-99778094D02*
X62157200Y-99730475D01*
X62157200Y-99730475D02*
X62204819Y-99635237D01*
X62204819Y-99635237D02*
X62204819Y-99444761D01*
X62204819Y-99444761D02*
X62157200Y-99349523D01*
X62157200Y-99349523D02*
X62109580Y-99301904D01*
X62109580Y-99301904D02*
X62014342Y-99254285D01*
X62014342Y-99254285D02*
X61776247Y-99254285D01*
X61776247Y-99254285D02*
X61681009Y-99301904D01*
X61681009Y-99301904D02*
X61633390Y-99349523D01*
X61633390Y-99349523D02*
X61585771Y-99444761D01*
X61585771Y-99444761D02*
X61585771Y-99635237D01*
X61585771Y-99635237D02*
X61633390Y-99730475D01*
X61633390Y-99730475D02*
X61681009Y-99778094D01*
X61681009Y-99778094D02*
X61776247Y-99825713D01*
X119207142Y-61109580D02*
X119159523Y-61157200D01*
X119159523Y-61157200D02*
X119016666Y-61204819D01*
X119016666Y-61204819D02*
X118921428Y-61204819D01*
X118921428Y-61204819D02*
X118778571Y-61157200D01*
X118778571Y-61157200D02*
X118683333Y-61061961D01*
X118683333Y-61061961D02*
X118635714Y-60966723D01*
X118635714Y-60966723D02*
X118588095Y-60776247D01*
X118588095Y-60776247D02*
X118588095Y-60633390D01*
X118588095Y-60633390D02*
X118635714Y-60442914D01*
X118635714Y-60442914D02*
X118683333Y-60347676D01*
X118683333Y-60347676D02*
X118778571Y-60252438D01*
X118778571Y-60252438D02*
X118921428Y-60204819D01*
X118921428Y-60204819D02*
X119016666Y-60204819D01*
X119016666Y-60204819D02*
X119159523Y-60252438D01*
X119159523Y-60252438D02*
X119207142Y-60300057D01*
X120159523Y-61204819D02*
X119588095Y-61204819D01*
X119873809Y-61204819D02*
X119873809Y-60204819D01*
X119873809Y-60204819D02*
X119778571Y-60347676D01*
X119778571Y-60347676D02*
X119683333Y-60442914D01*
X119683333Y-60442914D02*
X119588095Y-60490533D01*
X121016666Y-60538152D02*
X121016666Y-61204819D01*
X120778571Y-60157200D02*
X120540476Y-60871485D01*
X120540476Y-60871485D02*
X121159523Y-60871485D01*
X119683333Y-66549580D02*
X119635714Y-66597200D01*
X119635714Y-66597200D02*
X119492857Y-66644819D01*
X119492857Y-66644819D02*
X119397619Y-66644819D01*
X119397619Y-66644819D02*
X119254762Y-66597200D01*
X119254762Y-66597200D02*
X119159524Y-66501961D01*
X119159524Y-66501961D02*
X119111905Y-66406723D01*
X119111905Y-66406723D02*
X119064286Y-66216247D01*
X119064286Y-66216247D02*
X119064286Y-66073390D01*
X119064286Y-66073390D02*
X119111905Y-65882914D01*
X119111905Y-65882914D02*
X119159524Y-65787676D01*
X119159524Y-65787676D02*
X119254762Y-65692438D01*
X119254762Y-65692438D02*
X119397619Y-65644819D01*
X119397619Y-65644819D02*
X119492857Y-65644819D01*
X119492857Y-65644819D02*
X119635714Y-65692438D01*
X119635714Y-65692438D02*
X119683333Y-65740057D01*
X120540476Y-65978152D02*
X120540476Y-66644819D01*
X120302381Y-65597200D02*
X120064286Y-66311485D01*
X120064286Y-66311485D02*
X120683333Y-66311485D01*
X36166666Y-43154819D02*
X36166666Y-43869104D01*
X36166666Y-43869104D02*
X36119047Y-44011961D01*
X36119047Y-44011961D02*
X36023809Y-44107200D01*
X36023809Y-44107200D02*
X35880952Y-44154819D01*
X35880952Y-44154819D02*
X35785714Y-44154819D01*
X37119047Y-43154819D02*
X36642857Y-43154819D01*
X36642857Y-43154819D02*
X36595238Y-43631009D01*
X36595238Y-43631009D02*
X36642857Y-43583390D01*
X36642857Y-43583390D02*
X36738095Y-43535771D01*
X36738095Y-43535771D02*
X36976190Y-43535771D01*
X36976190Y-43535771D02*
X37071428Y-43583390D01*
X37071428Y-43583390D02*
X37119047Y-43631009D01*
X37119047Y-43631009D02*
X37166666Y-43726247D01*
X37166666Y-43726247D02*
X37166666Y-43964342D01*
X37166666Y-43964342D02*
X37119047Y-44059580D01*
X37119047Y-44059580D02*
X37071428Y-44107200D01*
X37071428Y-44107200D02*
X36976190Y-44154819D01*
X36976190Y-44154819D02*
X36738095Y-44154819D01*
X36738095Y-44154819D02*
X36642857Y-44107200D01*
X36642857Y-44107200D02*
X36595238Y-44059580D01*
X143359580Y-98492857D02*
X143407200Y-98540476D01*
X143407200Y-98540476D02*
X143454819Y-98683333D01*
X143454819Y-98683333D02*
X143454819Y-98778571D01*
X143454819Y-98778571D02*
X143407200Y-98921428D01*
X143407200Y-98921428D02*
X143311961Y-99016666D01*
X143311961Y-99016666D02*
X143216723Y-99064285D01*
X143216723Y-99064285D02*
X143026247Y-99111904D01*
X143026247Y-99111904D02*
X142883390Y-99111904D01*
X142883390Y-99111904D02*
X142692914Y-99064285D01*
X142692914Y-99064285D02*
X142597676Y-99016666D01*
X142597676Y-99016666D02*
X142502438Y-98921428D01*
X142502438Y-98921428D02*
X142454819Y-98778571D01*
X142454819Y-98778571D02*
X142454819Y-98683333D01*
X142454819Y-98683333D02*
X142502438Y-98540476D01*
X142502438Y-98540476D02*
X142550057Y-98492857D01*
X143454819Y-97540476D02*
X143454819Y-98111904D01*
X143454819Y-97826190D02*
X142454819Y-97826190D01*
X142454819Y-97826190D02*
X142597676Y-97921428D01*
X142597676Y-97921428D02*
X142692914Y-98016666D01*
X142692914Y-98016666D02*
X142740533Y-98111904D01*
X143454819Y-97064285D02*
X143454819Y-96873809D01*
X143454819Y-96873809D02*
X143407200Y-96778571D01*
X143407200Y-96778571D02*
X143359580Y-96730952D01*
X143359580Y-96730952D02*
X143216723Y-96635714D01*
X143216723Y-96635714D02*
X143026247Y-96588095D01*
X143026247Y-96588095D02*
X142645295Y-96588095D01*
X142645295Y-96588095D02*
X142550057Y-96635714D01*
X142550057Y-96635714D02*
X142502438Y-96683333D01*
X142502438Y-96683333D02*
X142454819Y-96778571D01*
X142454819Y-96778571D02*
X142454819Y-96969047D01*
X142454819Y-96969047D02*
X142502438Y-97064285D01*
X142502438Y-97064285D02*
X142550057Y-97111904D01*
X142550057Y-97111904D02*
X142645295Y-97159523D01*
X142645295Y-97159523D02*
X142883390Y-97159523D01*
X142883390Y-97159523D02*
X142978628Y-97111904D01*
X142978628Y-97111904D02*
X143026247Y-97064285D01*
X143026247Y-97064285D02*
X143073866Y-96969047D01*
X143073866Y-96969047D02*
X143073866Y-96778571D01*
X143073866Y-96778571D02*
X143026247Y-96683333D01*
X143026247Y-96683333D02*
X142978628Y-96635714D01*
X142978628Y-96635714D02*
X142883390Y-96588095D01*
X84333333Y-57954819D02*
X83857143Y-57954819D01*
X83857143Y-57954819D02*
X83857143Y-56954819D01*
X84619048Y-57050057D02*
X84666667Y-57002438D01*
X84666667Y-57002438D02*
X84761905Y-56954819D01*
X84761905Y-56954819D02*
X85000000Y-56954819D01*
X85000000Y-56954819D02*
X85095238Y-57002438D01*
X85095238Y-57002438D02*
X85142857Y-57050057D01*
X85142857Y-57050057D02*
X85190476Y-57145295D01*
X85190476Y-57145295D02*
X85190476Y-57240533D01*
X85190476Y-57240533D02*
X85142857Y-57383390D01*
X85142857Y-57383390D02*
X84571429Y-57954819D01*
X84571429Y-57954819D02*
X85190476Y-57954819D01*
X177954819Y-95183333D02*
X178669104Y-95183333D01*
X178669104Y-95183333D02*
X178811961Y-95230952D01*
X178811961Y-95230952D02*
X178907200Y-95326190D01*
X178907200Y-95326190D02*
X178954819Y-95469047D01*
X178954819Y-95469047D02*
X178954819Y-95564285D01*
X177954819Y-94802380D02*
X177954819Y-94183333D01*
X177954819Y-94183333D02*
X178335771Y-94516666D01*
X178335771Y-94516666D02*
X178335771Y-94373809D01*
X178335771Y-94373809D02*
X178383390Y-94278571D01*
X178383390Y-94278571D02*
X178431009Y-94230952D01*
X178431009Y-94230952D02*
X178526247Y-94183333D01*
X178526247Y-94183333D02*
X178764342Y-94183333D01*
X178764342Y-94183333D02*
X178859580Y-94230952D01*
X178859580Y-94230952D02*
X178907200Y-94278571D01*
X178907200Y-94278571D02*
X178954819Y-94373809D01*
X178954819Y-94373809D02*
X178954819Y-94659523D01*
X178954819Y-94659523D02*
X178907200Y-94754761D01*
X178907200Y-94754761D02*
X178859580Y-94802380D01*
X133333333Y-57954819D02*
X132857143Y-57954819D01*
X132857143Y-57954819D02*
X132857143Y-56954819D01*
X134095238Y-57288152D02*
X134095238Y-57954819D01*
X133857143Y-56907200D02*
X133619048Y-57621485D01*
X133619048Y-57621485D02*
X134238095Y-57621485D01*
X185166666Y-53494819D02*
X185166666Y-54209104D01*
X185166666Y-54209104D02*
X185119047Y-54351961D01*
X185119047Y-54351961D02*
X185023809Y-54447200D01*
X185023809Y-54447200D02*
X184880952Y-54494819D01*
X184880952Y-54494819D02*
X184785714Y-54494819D01*
X185595238Y-53590057D02*
X185642857Y-53542438D01*
X185642857Y-53542438D02*
X185738095Y-53494819D01*
X185738095Y-53494819D02*
X185976190Y-53494819D01*
X185976190Y-53494819D02*
X186071428Y-53542438D01*
X186071428Y-53542438D02*
X186119047Y-53590057D01*
X186119047Y-53590057D02*
X186166666Y-53685295D01*
X186166666Y-53685295D02*
X186166666Y-53780533D01*
X186166666Y-53780533D02*
X186119047Y-53923390D01*
X186119047Y-53923390D02*
X185547619Y-54494819D01*
X185547619Y-54494819D02*
X186166666Y-54494819D01*
X98207142Y-61109580D02*
X98159523Y-61157200D01*
X98159523Y-61157200D02*
X98016666Y-61204819D01*
X98016666Y-61204819D02*
X97921428Y-61204819D01*
X97921428Y-61204819D02*
X97778571Y-61157200D01*
X97778571Y-61157200D02*
X97683333Y-61061961D01*
X97683333Y-61061961D02*
X97635714Y-60966723D01*
X97635714Y-60966723D02*
X97588095Y-60776247D01*
X97588095Y-60776247D02*
X97588095Y-60633390D01*
X97588095Y-60633390D02*
X97635714Y-60442914D01*
X97635714Y-60442914D02*
X97683333Y-60347676D01*
X97683333Y-60347676D02*
X97778571Y-60252438D01*
X97778571Y-60252438D02*
X97921428Y-60204819D01*
X97921428Y-60204819D02*
X98016666Y-60204819D01*
X98016666Y-60204819D02*
X98159523Y-60252438D01*
X98159523Y-60252438D02*
X98207142Y-60300057D01*
X99159523Y-61204819D02*
X98588095Y-61204819D01*
X98873809Y-61204819D02*
X98873809Y-60204819D01*
X98873809Y-60204819D02*
X98778571Y-60347676D01*
X98778571Y-60347676D02*
X98683333Y-60442914D01*
X98683333Y-60442914D02*
X98588095Y-60490533D01*
X99492857Y-60204819D02*
X100111904Y-60204819D01*
X100111904Y-60204819D02*
X99778571Y-60585771D01*
X99778571Y-60585771D02*
X99921428Y-60585771D01*
X99921428Y-60585771D02*
X100016666Y-60633390D01*
X100016666Y-60633390D02*
X100064285Y-60681009D01*
X100064285Y-60681009D02*
X100111904Y-60776247D01*
X100111904Y-60776247D02*
X100111904Y-61014342D01*
X100111904Y-61014342D02*
X100064285Y-61109580D01*
X100064285Y-61109580D02*
X100016666Y-61157200D01*
X100016666Y-61157200D02*
X99921428Y-61204819D01*
X99921428Y-61204819D02*
X99635714Y-61204819D01*
X99635714Y-61204819D02*
X99540476Y-61157200D01*
X99540476Y-61157200D02*
X99492857Y-61109580D01*
X151333333Y-94954819D02*
X150857143Y-94954819D01*
X150857143Y-94954819D02*
X150857143Y-93954819D01*
X152095238Y-93954819D02*
X151904762Y-93954819D01*
X151904762Y-93954819D02*
X151809524Y-94002438D01*
X151809524Y-94002438D02*
X151761905Y-94050057D01*
X151761905Y-94050057D02*
X151666667Y-94192914D01*
X151666667Y-94192914D02*
X151619048Y-94383390D01*
X151619048Y-94383390D02*
X151619048Y-94764342D01*
X151619048Y-94764342D02*
X151666667Y-94859580D01*
X151666667Y-94859580D02*
X151714286Y-94907200D01*
X151714286Y-94907200D02*
X151809524Y-94954819D01*
X151809524Y-94954819D02*
X152000000Y-94954819D01*
X152000000Y-94954819D02*
X152095238Y-94907200D01*
X152095238Y-94907200D02*
X152142857Y-94859580D01*
X152142857Y-94859580D02*
X152190476Y-94764342D01*
X152190476Y-94764342D02*
X152190476Y-94526247D01*
X152190476Y-94526247D02*
X152142857Y-94431009D01*
X152142857Y-94431009D02*
X152095238Y-94383390D01*
X152095238Y-94383390D02*
X152000000Y-94335771D01*
X152000000Y-94335771D02*
X151809524Y-94335771D01*
X151809524Y-94335771D02*
X151714286Y-94383390D01*
X151714286Y-94383390D02*
X151666667Y-94431009D01*
X151666667Y-94431009D02*
X151619048Y-94526247D01*
X185166666Y-43154819D02*
X185166666Y-43869104D01*
X185166666Y-43869104D02*
X185119047Y-44011961D01*
X185119047Y-44011961D02*
X185023809Y-44107200D01*
X185023809Y-44107200D02*
X184880952Y-44154819D01*
X184880952Y-44154819D02*
X184785714Y-44154819D01*
X185547619Y-43154819D02*
X186214285Y-43154819D01*
X186214285Y-43154819D02*
X185785714Y-44154819D01*
X128454819Y-98666666D02*
X128454819Y-99142856D01*
X128454819Y-99142856D02*
X127454819Y-99142856D01*
X127454819Y-98428570D02*
X127454819Y-97761904D01*
X127454819Y-97761904D02*
X128454819Y-98190475D01*
X50683333Y-66549580D02*
X50635714Y-66597200D01*
X50635714Y-66597200D02*
X50492857Y-66644819D01*
X50492857Y-66644819D02*
X50397619Y-66644819D01*
X50397619Y-66644819D02*
X50254762Y-66597200D01*
X50254762Y-66597200D02*
X50159524Y-66501961D01*
X50159524Y-66501961D02*
X50111905Y-66406723D01*
X50111905Y-66406723D02*
X50064286Y-66216247D01*
X50064286Y-66216247D02*
X50064286Y-66073390D01*
X50064286Y-66073390D02*
X50111905Y-65882914D01*
X50111905Y-65882914D02*
X50159524Y-65787676D01*
X50159524Y-65787676D02*
X50254762Y-65692438D01*
X50254762Y-65692438D02*
X50397619Y-65644819D01*
X50397619Y-65644819D02*
X50492857Y-65644819D01*
X50492857Y-65644819D02*
X50635714Y-65692438D01*
X50635714Y-65692438D02*
X50683333Y-65740057D01*
X51635714Y-66644819D02*
X51064286Y-66644819D01*
X51350000Y-66644819D02*
X51350000Y-65644819D01*
X51350000Y-65644819D02*
X51254762Y-65787676D01*
X51254762Y-65787676D02*
X51159524Y-65882914D01*
X51159524Y-65882914D02*
X51064286Y-65930533D01*
X84209580Y-100206666D02*
X84257200Y-100254285D01*
X84257200Y-100254285D02*
X84304819Y-100397142D01*
X84304819Y-100397142D02*
X84304819Y-100492380D01*
X84304819Y-100492380D02*
X84257200Y-100635237D01*
X84257200Y-100635237D02*
X84161961Y-100730475D01*
X84161961Y-100730475D02*
X84066723Y-100778094D01*
X84066723Y-100778094D02*
X83876247Y-100825713D01*
X83876247Y-100825713D02*
X83733390Y-100825713D01*
X83733390Y-100825713D02*
X83542914Y-100778094D01*
X83542914Y-100778094D02*
X83447676Y-100730475D01*
X83447676Y-100730475D02*
X83352438Y-100635237D01*
X83352438Y-100635237D02*
X83304819Y-100492380D01*
X83304819Y-100492380D02*
X83304819Y-100397142D01*
X83304819Y-100397142D02*
X83352438Y-100254285D01*
X83352438Y-100254285D02*
X83400057Y-100206666D01*
X83304819Y-99873332D02*
X83304819Y-99206666D01*
X83304819Y-99206666D02*
X84304819Y-99635237D01*
X77954819Y-98666666D02*
X77954819Y-99142856D01*
X77954819Y-99142856D02*
X76954819Y-99142856D01*
X77954819Y-98285713D02*
X77954819Y-98095237D01*
X77954819Y-98095237D02*
X77907200Y-97999999D01*
X77907200Y-97999999D02*
X77859580Y-97952380D01*
X77859580Y-97952380D02*
X77716723Y-97857142D01*
X77716723Y-97857142D02*
X77526247Y-97809523D01*
X77526247Y-97809523D02*
X77145295Y-97809523D01*
X77145295Y-97809523D02*
X77050057Y-97857142D01*
X77050057Y-97857142D02*
X77002438Y-97904761D01*
X77002438Y-97904761D02*
X76954819Y-97999999D01*
X76954819Y-97999999D02*
X76954819Y-98190475D01*
X76954819Y-98190475D02*
X77002438Y-98285713D01*
X77002438Y-98285713D02*
X77050057Y-98333332D01*
X77050057Y-98333332D02*
X77145295Y-98380951D01*
X77145295Y-98380951D02*
X77383390Y-98380951D01*
X77383390Y-98380951D02*
X77478628Y-98333332D01*
X77478628Y-98333332D02*
X77526247Y-98285713D01*
X77526247Y-98285713D02*
X77573866Y-98190475D01*
X77573866Y-98190475D02*
X77573866Y-97999999D01*
X77573866Y-97999999D02*
X77526247Y-97904761D01*
X77526247Y-97904761D02*
X77478628Y-97857142D01*
X77478628Y-97857142D02*
X77383390Y-97809523D01*
X184690476Y-75154819D02*
X184690476Y-75869104D01*
X184690476Y-75869104D02*
X184642857Y-76011961D01*
X184642857Y-76011961D02*
X184547619Y-76107200D01*
X184547619Y-76107200D02*
X184404762Y-76154819D01*
X184404762Y-76154819D02*
X184309524Y-76154819D01*
X185690476Y-76154819D02*
X185119048Y-76154819D01*
X185404762Y-76154819D02*
X185404762Y-75154819D01*
X185404762Y-75154819D02*
X185309524Y-75297676D01*
X185309524Y-75297676D02*
X185214286Y-75392914D01*
X185214286Y-75392914D02*
X185119048Y-75440533D01*
X186642857Y-76154819D02*
X186071429Y-76154819D01*
X186357143Y-76154819D02*
X186357143Y-75154819D01*
X186357143Y-75154819D02*
X186261905Y-75297676D01*
X186261905Y-75297676D02*
X186166667Y-75392914D01*
X186166667Y-75392914D02*
X186071429Y-75440533D01*
X133690476Y-75154819D02*
X133690476Y-75869104D01*
X133690476Y-75869104D02*
X133642857Y-76011961D01*
X133642857Y-76011961D02*
X133547619Y-76107200D01*
X133547619Y-76107200D02*
X133404762Y-76154819D01*
X133404762Y-76154819D02*
X133309524Y-76154819D01*
X134690476Y-76154819D02*
X134119048Y-76154819D01*
X134404762Y-76154819D02*
X134404762Y-75154819D01*
X134404762Y-75154819D02*
X134309524Y-75297676D01*
X134309524Y-75297676D02*
X134214286Y-75392914D01*
X134214286Y-75392914D02*
X134119048Y-75440533D01*
X135309524Y-75154819D02*
X135404762Y-75154819D01*
X135404762Y-75154819D02*
X135500000Y-75202438D01*
X135500000Y-75202438D02*
X135547619Y-75250057D01*
X135547619Y-75250057D02*
X135595238Y-75345295D01*
X135595238Y-75345295D02*
X135642857Y-75535771D01*
X135642857Y-75535771D02*
X135642857Y-75773866D01*
X135642857Y-75773866D02*
X135595238Y-75964342D01*
X135595238Y-75964342D02*
X135547619Y-76059580D01*
X135547619Y-76059580D02*
X135500000Y-76107200D01*
X135500000Y-76107200D02*
X135404762Y-76154819D01*
X135404762Y-76154819D02*
X135309524Y-76154819D01*
X135309524Y-76154819D02*
X135214286Y-76107200D01*
X135214286Y-76107200D02*
X135166667Y-76059580D01*
X135166667Y-76059580D02*
X135119048Y-75964342D01*
X135119048Y-75964342D02*
X135071429Y-75773866D01*
X135071429Y-75773866D02*
X135071429Y-75535771D01*
X135071429Y-75535771D02*
X135119048Y-75345295D01*
X135119048Y-75345295D02*
X135166667Y-75250057D01*
X135166667Y-75250057D02*
X135214286Y-75202438D01*
X135214286Y-75202438D02*
X135309524Y-75154819D01*
X50166666Y-75154819D02*
X50166666Y-75869104D01*
X50166666Y-75869104D02*
X50119047Y-76011961D01*
X50119047Y-76011961D02*
X50023809Y-76107200D01*
X50023809Y-76107200D02*
X49880952Y-76154819D01*
X49880952Y-76154819D02*
X49785714Y-76154819D01*
X50785714Y-75583390D02*
X50690476Y-75535771D01*
X50690476Y-75535771D02*
X50642857Y-75488152D01*
X50642857Y-75488152D02*
X50595238Y-75392914D01*
X50595238Y-75392914D02*
X50595238Y-75345295D01*
X50595238Y-75345295D02*
X50642857Y-75250057D01*
X50642857Y-75250057D02*
X50690476Y-75202438D01*
X50690476Y-75202438D02*
X50785714Y-75154819D01*
X50785714Y-75154819D02*
X50976190Y-75154819D01*
X50976190Y-75154819D02*
X51071428Y-75202438D01*
X51071428Y-75202438D02*
X51119047Y-75250057D01*
X51119047Y-75250057D02*
X51166666Y-75345295D01*
X51166666Y-75345295D02*
X51166666Y-75392914D01*
X51166666Y-75392914D02*
X51119047Y-75488152D01*
X51119047Y-75488152D02*
X51071428Y-75535771D01*
X51071428Y-75535771D02*
X50976190Y-75583390D01*
X50976190Y-75583390D02*
X50785714Y-75583390D01*
X50785714Y-75583390D02*
X50690476Y-75631009D01*
X50690476Y-75631009D02*
X50642857Y-75678628D01*
X50642857Y-75678628D02*
X50595238Y-75773866D01*
X50595238Y-75773866D02*
X50595238Y-75964342D01*
X50595238Y-75964342D02*
X50642857Y-76059580D01*
X50642857Y-76059580D02*
X50690476Y-76107200D01*
X50690476Y-76107200D02*
X50785714Y-76154819D01*
X50785714Y-76154819D02*
X50976190Y-76154819D01*
X50976190Y-76154819D02*
X51071428Y-76107200D01*
X51071428Y-76107200D02*
X51119047Y-76059580D01*
X51119047Y-76059580D02*
X51166666Y-75964342D01*
X51166666Y-75964342D02*
X51166666Y-75773866D01*
X51166666Y-75773866D02*
X51119047Y-75678628D01*
X51119047Y-75678628D02*
X51071428Y-75631009D01*
X51071428Y-75631009D02*
X50976190Y-75583390D01*
X101333333Y-95954819D02*
X100857143Y-95954819D01*
X100857143Y-95954819D02*
X100857143Y-94954819D01*
X101809524Y-95383390D02*
X101714286Y-95335771D01*
X101714286Y-95335771D02*
X101666667Y-95288152D01*
X101666667Y-95288152D02*
X101619048Y-95192914D01*
X101619048Y-95192914D02*
X101619048Y-95145295D01*
X101619048Y-95145295D02*
X101666667Y-95050057D01*
X101666667Y-95050057D02*
X101714286Y-95002438D01*
X101714286Y-95002438D02*
X101809524Y-94954819D01*
X101809524Y-94954819D02*
X102000000Y-94954819D01*
X102000000Y-94954819D02*
X102095238Y-95002438D01*
X102095238Y-95002438D02*
X102142857Y-95050057D01*
X102142857Y-95050057D02*
X102190476Y-95145295D01*
X102190476Y-95145295D02*
X102190476Y-95192914D01*
X102190476Y-95192914D02*
X102142857Y-95288152D01*
X102142857Y-95288152D02*
X102095238Y-95335771D01*
X102095238Y-95335771D02*
X102000000Y-95383390D01*
X102000000Y-95383390D02*
X101809524Y-95383390D01*
X101809524Y-95383390D02*
X101714286Y-95431009D01*
X101714286Y-95431009D02*
X101666667Y-95478628D01*
X101666667Y-95478628D02*
X101619048Y-95573866D01*
X101619048Y-95573866D02*
X101619048Y-95764342D01*
X101619048Y-95764342D02*
X101666667Y-95859580D01*
X101666667Y-95859580D02*
X101714286Y-95907200D01*
X101714286Y-95907200D02*
X101809524Y-95954819D01*
X101809524Y-95954819D02*
X102000000Y-95954819D01*
X102000000Y-95954819D02*
X102095238Y-95907200D01*
X102095238Y-95907200D02*
X102142857Y-95859580D01*
X102142857Y-95859580D02*
X102190476Y-95764342D01*
X102190476Y-95764342D02*
X102190476Y-95573866D01*
X102190476Y-95573866D02*
X102142857Y-95478628D01*
X102142857Y-95478628D02*
X102095238Y-95431009D01*
X102095238Y-95431009D02*
X102000000Y-95383390D01*
X147207142Y-62109580D02*
X147159523Y-62157200D01*
X147159523Y-62157200D02*
X147016666Y-62204819D01*
X147016666Y-62204819D02*
X146921428Y-62204819D01*
X146921428Y-62204819D02*
X146778571Y-62157200D01*
X146778571Y-62157200D02*
X146683333Y-62061961D01*
X146683333Y-62061961D02*
X146635714Y-61966723D01*
X146635714Y-61966723D02*
X146588095Y-61776247D01*
X146588095Y-61776247D02*
X146588095Y-61633390D01*
X146588095Y-61633390D02*
X146635714Y-61442914D01*
X146635714Y-61442914D02*
X146683333Y-61347676D01*
X146683333Y-61347676D02*
X146778571Y-61252438D01*
X146778571Y-61252438D02*
X146921428Y-61204819D01*
X146921428Y-61204819D02*
X147016666Y-61204819D01*
X147016666Y-61204819D02*
X147159523Y-61252438D01*
X147159523Y-61252438D02*
X147207142Y-61300057D01*
X148159523Y-62204819D02*
X147588095Y-62204819D01*
X147873809Y-62204819D02*
X147873809Y-61204819D01*
X147873809Y-61204819D02*
X147778571Y-61347676D01*
X147778571Y-61347676D02*
X147683333Y-61442914D01*
X147683333Y-61442914D02*
X147588095Y-61490533D01*
X149064285Y-61204819D02*
X148588095Y-61204819D01*
X148588095Y-61204819D02*
X148540476Y-61681009D01*
X148540476Y-61681009D02*
X148588095Y-61633390D01*
X148588095Y-61633390D02*
X148683333Y-61585771D01*
X148683333Y-61585771D02*
X148921428Y-61585771D01*
X148921428Y-61585771D02*
X149016666Y-61633390D01*
X149016666Y-61633390D02*
X149064285Y-61681009D01*
X149064285Y-61681009D02*
X149111904Y-61776247D01*
X149111904Y-61776247D02*
X149111904Y-62014342D01*
X149111904Y-62014342D02*
X149064285Y-62109580D01*
X149064285Y-62109580D02*
X149016666Y-62157200D01*
X149016666Y-62157200D02*
X148921428Y-62204819D01*
X148921428Y-62204819D02*
X148683333Y-62204819D01*
X148683333Y-62204819D02*
X148588095Y-62157200D01*
X148588095Y-62157200D02*
X148540476Y-62109580D01*
X172859580Y-97667857D02*
X172907200Y-97715476D01*
X172907200Y-97715476D02*
X172954819Y-97858333D01*
X172954819Y-97858333D02*
X172954819Y-97953571D01*
X172954819Y-97953571D02*
X172907200Y-98096428D01*
X172907200Y-98096428D02*
X172811961Y-98191666D01*
X172811961Y-98191666D02*
X172716723Y-98239285D01*
X172716723Y-98239285D02*
X172526247Y-98286904D01*
X172526247Y-98286904D02*
X172383390Y-98286904D01*
X172383390Y-98286904D02*
X172192914Y-98239285D01*
X172192914Y-98239285D02*
X172097676Y-98191666D01*
X172097676Y-98191666D02*
X172002438Y-98096428D01*
X172002438Y-98096428D02*
X171954819Y-97953571D01*
X171954819Y-97953571D02*
X171954819Y-97858333D01*
X171954819Y-97858333D02*
X172002438Y-97715476D01*
X172002438Y-97715476D02*
X172050057Y-97667857D01*
X172050057Y-97286904D02*
X172002438Y-97239285D01*
X172002438Y-97239285D02*
X171954819Y-97144047D01*
X171954819Y-97144047D02*
X171954819Y-96905952D01*
X171954819Y-96905952D02*
X172002438Y-96810714D01*
X172002438Y-96810714D02*
X172050057Y-96763095D01*
X172050057Y-96763095D02*
X172145295Y-96715476D01*
X172145295Y-96715476D02*
X172240533Y-96715476D01*
X172240533Y-96715476D02*
X172383390Y-96763095D01*
X172383390Y-96763095D02*
X172954819Y-97334523D01*
X172954819Y-97334523D02*
X172954819Y-96715476D01*
X171954819Y-96096428D02*
X171954819Y-96001190D01*
X171954819Y-96001190D02*
X172002438Y-95905952D01*
X172002438Y-95905952D02*
X172050057Y-95858333D01*
X172050057Y-95858333D02*
X172145295Y-95810714D01*
X172145295Y-95810714D02*
X172335771Y-95763095D01*
X172335771Y-95763095D02*
X172573866Y-95763095D01*
X172573866Y-95763095D02*
X172764342Y-95810714D01*
X172764342Y-95810714D02*
X172859580Y-95858333D01*
X172859580Y-95858333D02*
X172907200Y-95905952D01*
X172907200Y-95905952D02*
X172954819Y-96001190D01*
X172954819Y-96001190D02*
X172954819Y-96096428D01*
X172954819Y-96096428D02*
X172907200Y-96191666D01*
X172907200Y-96191666D02*
X172859580Y-96239285D01*
X172859580Y-96239285D02*
X172764342Y-96286904D01*
X172764342Y-96286904D02*
X172573866Y-96334523D01*
X172573866Y-96334523D02*
X172335771Y-96334523D01*
X172335771Y-96334523D02*
X172145295Y-96286904D01*
X172145295Y-96286904D02*
X172050057Y-96239285D01*
X172050057Y-96239285D02*
X172002438Y-96191666D01*
X172002438Y-96191666D02*
X171954819Y-96096428D01*
X50407142Y-61209580D02*
X50359523Y-61257200D01*
X50359523Y-61257200D02*
X50216666Y-61304819D01*
X50216666Y-61304819D02*
X50121428Y-61304819D01*
X50121428Y-61304819D02*
X49978571Y-61257200D01*
X49978571Y-61257200D02*
X49883333Y-61161961D01*
X49883333Y-61161961D02*
X49835714Y-61066723D01*
X49835714Y-61066723D02*
X49788095Y-60876247D01*
X49788095Y-60876247D02*
X49788095Y-60733390D01*
X49788095Y-60733390D02*
X49835714Y-60542914D01*
X49835714Y-60542914D02*
X49883333Y-60447676D01*
X49883333Y-60447676D02*
X49978571Y-60352438D01*
X49978571Y-60352438D02*
X50121428Y-60304819D01*
X50121428Y-60304819D02*
X50216666Y-60304819D01*
X50216666Y-60304819D02*
X50359523Y-60352438D01*
X50359523Y-60352438D02*
X50407142Y-60400057D01*
X51359523Y-61304819D02*
X50788095Y-61304819D01*
X51073809Y-61304819D02*
X51073809Y-60304819D01*
X51073809Y-60304819D02*
X50978571Y-60447676D01*
X50978571Y-60447676D02*
X50883333Y-60542914D01*
X50883333Y-60542914D02*
X50788095Y-60590533D01*
X52311904Y-61304819D02*
X51740476Y-61304819D01*
X52026190Y-61304819D02*
X52026190Y-60304819D01*
X52026190Y-60304819D02*
X51930952Y-60447676D01*
X51930952Y-60447676D02*
X51835714Y-60542914D01*
X51835714Y-60542914D02*
X51740476Y-60590533D01*
X60954819Y-60666666D02*
X60954819Y-61142856D01*
X60954819Y-61142856D02*
X59954819Y-61142856D01*
X60954819Y-59809523D02*
X60954819Y-60380951D01*
X60954819Y-60095237D02*
X59954819Y-60095237D01*
X59954819Y-60095237D02*
X60097676Y-60190475D01*
X60097676Y-60190475D02*
X60192914Y-60285713D01*
X60192914Y-60285713D02*
X60240533Y-60380951D01*
X42354819Y-80443333D02*
X43069104Y-80443333D01*
X43069104Y-80443333D02*
X43211961Y-80490952D01*
X43211961Y-80490952D02*
X43307200Y-80586190D01*
X43307200Y-80586190D02*
X43354819Y-80729047D01*
X43354819Y-80729047D02*
X43354819Y-80824285D01*
X43354819Y-79443333D02*
X43354819Y-80014761D01*
X43354819Y-79729047D02*
X42354819Y-79729047D01*
X42354819Y-79729047D02*
X42497676Y-79824285D01*
X42497676Y-79824285D02*
X42592914Y-79919523D01*
X42592914Y-79919523D02*
X42640533Y-80014761D01*
X147793333Y-66549580D02*
X147745714Y-66597200D01*
X147745714Y-66597200D02*
X147602857Y-66644819D01*
X147602857Y-66644819D02*
X147507619Y-66644819D01*
X147507619Y-66644819D02*
X147364762Y-66597200D01*
X147364762Y-66597200D02*
X147269524Y-66501961D01*
X147269524Y-66501961D02*
X147221905Y-66406723D01*
X147221905Y-66406723D02*
X147174286Y-66216247D01*
X147174286Y-66216247D02*
X147174286Y-66073390D01*
X147174286Y-66073390D02*
X147221905Y-65882914D01*
X147221905Y-65882914D02*
X147269524Y-65787676D01*
X147269524Y-65787676D02*
X147364762Y-65692438D01*
X147364762Y-65692438D02*
X147507619Y-65644819D01*
X147507619Y-65644819D02*
X147602857Y-65644819D01*
X147602857Y-65644819D02*
X147745714Y-65692438D01*
X147745714Y-65692438D02*
X147793333Y-65740057D01*
X148698095Y-65644819D02*
X148221905Y-65644819D01*
X148221905Y-65644819D02*
X148174286Y-66121009D01*
X148174286Y-66121009D02*
X148221905Y-66073390D01*
X148221905Y-66073390D02*
X148317143Y-66025771D01*
X148317143Y-66025771D02*
X148555238Y-66025771D01*
X148555238Y-66025771D02*
X148650476Y-66073390D01*
X148650476Y-66073390D02*
X148698095Y-66121009D01*
X148698095Y-66121009D02*
X148745714Y-66216247D01*
X148745714Y-66216247D02*
X148745714Y-66454342D01*
X148745714Y-66454342D02*
X148698095Y-66549580D01*
X148698095Y-66549580D02*
X148650476Y-66597200D01*
X148650476Y-66597200D02*
X148555238Y-66644819D01*
X148555238Y-66644819D02*
X148317143Y-66644819D01*
X148317143Y-66644819D02*
X148221905Y-66597200D01*
X148221905Y-66597200D02*
X148174286Y-66549580D01*
X162609580Y-98292857D02*
X162657200Y-98340476D01*
X162657200Y-98340476D02*
X162704819Y-98483333D01*
X162704819Y-98483333D02*
X162704819Y-98578571D01*
X162704819Y-98578571D02*
X162657200Y-98721428D01*
X162657200Y-98721428D02*
X162561961Y-98816666D01*
X162561961Y-98816666D02*
X162466723Y-98864285D01*
X162466723Y-98864285D02*
X162276247Y-98911904D01*
X162276247Y-98911904D02*
X162133390Y-98911904D01*
X162133390Y-98911904D02*
X161942914Y-98864285D01*
X161942914Y-98864285D02*
X161847676Y-98816666D01*
X161847676Y-98816666D02*
X161752438Y-98721428D01*
X161752438Y-98721428D02*
X161704819Y-98578571D01*
X161704819Y-98578571D02*
X161704819Y-98483333D01*
X161704819Y-98483333D02*
X161752438Y-98340476D01*
X161752438Y-98340476D02*
X161800057Y-98292857D01*
X162704819Y-97340476D02*
X162704819Y-97911904D01*
X162704819Y-97626190D02*
X161704819Y-97626190D01*
X161704819Y-97626190D02*
X161847676Y-97721428D01*
X161847676Y-97721428D02*
X161942914Y-97816666D01*
X161942914Y-97816666D02*
X161990533Y-97911904D01*
X161704819Y-96721428D02*
X161704819Y-96626190D01*
X161704819Y-96626190D02*
X161752438Y-96530952D01*
X161752438Y-96530952D02*
X161800057Y-96483333D01*
X161800057Y-96483333D02*
X161895295Y-96435714D01*
X161895295Y-96435714D02*
X162085771Y-96388095D01*
X162085771Y-96388095D02*
X162323866Y-96388095D01*
X162323866Y-96388095D02*
X162514342Y-96435714D01*
X162514342Y-96435714D02*
X162609580Y-96483333D01*
X162609580Y-96483333D02*
X162657200Y-96530952D01*
X162657200Y-96530952D02*
X162704819Y-96626190D01*
X162704819Y-96626190D02*
X162704819Y-96721428D01*
X162704819Y-96721428D02*
X162657200Y-96816666D01*
X162657200Y-96816666D02*
X162609580Y-96864285D01*
X162609580Y-96864285D02*
X162514342Y-96911904D01*
X162514342Y-96911904D02*
X162323866Y-96959523D01*
X162323866Y-96959523D02*
X162085771Y-96959523D01*
X162085771Y-96959523D02*
X161895295Y-96911904D01*
X161895295Y-96911904D02*
X161800057Y-96864285D01*
X161800057Y-96864285D02*
X161752438Y-96816666D01*
X161752438Y-96816666D02*
X161704819Y-96721428D01*
X185166666Y-107154819D02*
X185166666Y-107869104D01*
X185166666Y-107869104D02*
X185119047Y-108011961D01*
X185119047Y-108011961D02*
X185023809Y-108107200D01*
X185023809Y-108107200D02*
X184880952Y-108154819D01*
X184880952Y-108154819D02*
X184785714Y-108154819D01*
X186071428Y-107154819D02*
X185880952Y-107154819D01*
X185880952Y-107154819D02*
X185785714Y-107202438D01*
X185785714Y-107202438D02*
X185738095Y-107250057D01*
X185738095Y-107250057D02*
X185642857Y-107392914D01*
X185642857Y-107392914D02*
X185595238Y-107583390D01*
X185595238Y-107583390D02*
X185595238Y-107964342D01*
X185595238Y-107964342D02*
X185642857Y-108059580D01*
X185642857Y-108059580D02*
X185690476Y-108107200D01*
X185690476Y-108107200D02*
X185785714Y-108154819D01*
X185785714Y-108154819D02*
X185976190Y-108154819D01*
X185976190Y-108154819D02*
X186071428Y-108107200D01*
X186071428Y-108107200D02*
X186119047Y-108059580D01*
X186119047Y-108059580D02*
X186166666Y-107964342D01*
X186166666Y-107964342D02*
X186166666Y-107726247D01*
X186166666Y-107726247D02*
X186119047Y-107631009D01*
X186119047Y-107631009D02*
X186071428Y-107583390D01*
X186071428Y-107583390D02*
X185976190Y-107535771D01*
X185976190Y-107535771D02*
X185785714Y-107535771D01*
X185785714Y-107535771D02*
X185690476Y-107583390D01*
X185690476Y-107583390D02*
X185642857Y-107631009D01*
X185642857Y-107631009D02*
X185595238Y-107726247D01*
X69683333Y-66549580D02*
X69635714Y-66597200D01*
X69635714Y-66597200D02*
X69492857Y-66644819D01*
X69492857Y-66644819D02*
X69397619Y-66644819D01*
X69397619Y-66644819D02*
X69254762Y-66597200D01*
X69254762Y-66597200D02*
X69159524Y-66501961D01*
X69159524Y-66501961D02*
X69111905Y-66406723D01*
X69111905Y-66406723D02*
X69064286Y-66216247D01*
X69064286Y-66216247D02*
X69064286Y-66073390D01*
X69064286Y-66073390D02*
X69111905Y-65882914D01*
X69111905Y-65882914D02*
X69159524Y-65787676D01*
X69159524Y-65787676D02*
X69254762Y-65692438D01*
X69254762Y-65692438D02*
X69397619Y-65644819D01*
X69397619Y-65644819D02*
X69492857Y-65644819D01*
X69492857Y-65644819D02*
X69635714Y-65692438D01*
X69635714Y-65692438D02*
X69683333Y-65740057D01*
X70064286Y-65740057D02*
X70111905Y-65692438D01*
X70111905Y-65692438D02*
X70207143Y-65644819D01*
X70207143Y-65644819D02*
X70445238Y-65644819D01*
X70445238Y-65644819D02*
X70540476Y-65692438D01*
X70540476Y-65692438D02*
X70588095Y-65740057D01*
X70588095Y-65740057D02*
X70635714Y-65835295D01*
X70635714Y-65835295D02*
X70635714Y-65930533D01*
X70635714Y-65930533D02*
X70588095Y-66073390D01*
X70588095Y-66073390D02*
X70016667Y-66644819D01*
X70016667Y-66644819D02*
X70635714Y-66644819D01*
X122359580Y-98642857D02*
X122407200Y-98690476D01*
X122407200Y-98690476D02*
X122454819Y-98833333D01*
X122454819Y-98833333D02*
X122454819Y-98928571D01*
X122454819Y-98928571D02*
X122407200Y-99071428D01*
X122407200Y-99071428D02*
X122311961Y-99166666D01*
X122311961Y-99166666D02*
X122216723Y-99214285D01*
X122216723Y-99214285D02*
X122026247Y-99261904D01*
X122026247Y-99261904D02*
X121883390Y-99261904D01*
X121883390Y-99261904D02*
X121692914Y-99214285D01*
X121692914Y-99214285D02*
X121597676Y-99166666D01*
X121597676Y-99166666D02*
X121502438Y-99071428D01*
X121502438Y-99071428D02*
X121454819Y-98928571D01*
X121454819Y-98928571D02*
X121454819Y-98833333D01*
X121454819Y-98833333D02*
X121502438Y-98690476D01*
X121502438Y-98690476D02*
X121550057Y-98642857D01*
X122454819Y-97690476D02*
X122454819Y-98261904D01*
X122454819Y-97976190D02*
X121454819Y-97976190D01*
X121454819Y-97976190D02*
X121597676Y-98071428D01*
X121597676Y-98071428D02*
X121692914Y-98166666D01*
X121692914Y-98166666D02*
X121740533Y-98261904D01*
X121883390Y-97119047D02*
X121835771Y-97214285D01*
X121835771Y-97214285D02*
X121788152Y-97261904D01*
X121788152Y-97261904D02*
X121692914Y-97309523D01*
X121692914Y-97309523D02*
X121645295Y-97309523D01*
X121645295Y-97309523D02*
X121550057Y-97261904D01*
X121550057Y-97261904D02*
X121502438Y-97214285D01*
X121502438Y-97214285D02*
X121454819Y-97119047D01*
X121454819Y-97119047D02*
X121454819Y-96928571D01*
X121454819Y-96928571D02*
X121502438Y-96833333D01*
X121502438Y-96833333D02*
X121550057Y-96785714D01*
X121550057Y-96785714D02*
X121645295Y-96738095D01*
X121645295Y-96738095D02*
X121692914Y-96738095D01*
X121692914Y-96738095D02*
X121788152Y-96785714D01*
X121788152Y-96785714D02*
X121835771Y-96833333D01*
X121835771Y-96833333D02*
X121883390Y-96928571D01*
X121883390Y-96928571D02*
X121883390Y-97119047D01*
X121883390Y-97119047D02*
X121931009Y-97214285D01*
X121931009Y-97214285D02*
X121978628Y-97261904D01*
X121978628Y-97261904D02*
X122073866Y-97309523D01*
X122073866Y-97309523D02*
X122264342Y-97309523D01*
X122264342Y-97309523D02*
X122359580Y-97261904D01*
X122359580Y-97261904D02*
X122407200Y-97214285D01*
X122407200Y-97214285D02*
X122454819Y-97119047D01*
X122454819Y-97119047D02*
X122454819Y-96928571D01*
X122454819Y-96928571D02*
X122407200Y-96833333D01*
X122407200Y-96833333D02*
X122359580Y-96785714D01*
X122359580Y-96785714D02*
X122264342Y-96738095D01*
X122264342Y-96738095D02*
X122073866Y-96738095D01*
X122073866Y-96738095D02*
X121978628Y-96785714D01*
X121978628Y-96785714D02*
X121931009Y-96833333D01*
X121931009Y-96833333D02*
X121883390Y-96928571D01*
X113109580Y-98316666D02*
X113157200Y-98364285D01*
X113157200Y-98364285D02*
X113204819Y-98507142D01*
X113204819Y-98507142D02*
X113204819Y-98602380D01*
X113204819Y-98602380D02*
X113157200Y-98745237D01*
X113157200Y-98745237D02*
X113061961Y-98840475D01*
X113061961Y-98840475D02*
X112966723Y-98888094D01*
X112966723Y-98888094D02*
X112776247Y-98935713D01*
X112776247Y-98935713D02*
X112633390Y-98935713D01*
X112633390Y-98935713D02*
X112442914Y-98888094D01*
X112442914Y-98888094D02*
X112347676Y-98840475D01*
X112347676Y-98840475D02*
X112252438Y-98745237D01*
X112252438Y-98745237D02*
X112204819Y-98602380D01*
X112204819Y-98602380D02*
X112204819Y-98507142D01*
X112204819Y-98507142D02*
X112252438Y-98364285D01*
X112252438Y-98364285D02*
X112300057Y-98316666D01*
X112633390Y-97745237D02*
X112585771Y-97840475D01*
X112585771Y-97840475D02*
X112538152Y-97888094D01*
X112538152Y-97888094D02*
X112442914Y-97935713D01*
X112442914Y-97935713D02*
X112395295Y-97935713D01*
X112395295Y-97935713D02*
X112300057Y-97888094D01*
X112300057Y-97888094D02*
X112252438Y-97840475D01*
X112252438Y-97840475D02*
X112204819Y-97745237D01*
X112204819Y-97745237D02*
X112204819Y-97554761D01*
X112204819Y-97554761D02*
X112252438Y-97459523D01*
X112252438Y-97459523D02*
X112300057Y-97411904D01*
X112300057Y-97411904D02*
X112395295Y-97364285D01*
X112395295Y-97364285D02*
X112442914Y-97364285D01*
X112442914Y-97364285D02*
X112538152Y-97411904D01*
X112538152Y-97411904D02*
X112585771Y-97459523D01*
X112585771Y-97459523D02*
X112633390Y-97554761D01*
X112633390Y-97554761D02*
X112633390Y-97745237D01*
X112633390Y-97745237D02*
X112681009Y-97840475D01*
X112681009Y-97840475D02*
X112728628Y-97888094D01*
X112728628Y-97888094D02*
X112823866Y-97935713D01*
X112823866Y-97935713D02*
X113014342Y-97935713D01*
X113014342Y-97935713D02*
X113109580Y-97888094D01*
X113109580Y-97888094D02*
X113157200Y-97840475D01*
X113157200Y-97840475D02*
X113204819Y-97745237D01*
X113204819Y-97745237D02*
X113204819Y-97554761D01*
X113204819Y-97554761D02*
X113157200Y-97459523D01*
X113157200Y-97459523D02*
X113109580Y-97411904D01*
X113109580Y-97411904D02*
X113014342Y-97364285D01*
X113014342Y-97364285D02*
X112823866Y-97364285D01*
X112823866Y-97364285D02*
X112728628Y-97411904D01*
X112728628Y-97411904D02*
X112681009Y-97459523D01*
X112681009Y-97459523D02*
X112633390Y-97554761D01*
X134109580Y-98206666D02*
X134157200Y-98254285D01*
X134157200Y-98254285D02*
X134204819Y-98397142D01*
X134204819Y-98397142D02*
X134204819Y-98492380D01*
X134204819Y-98492380D02*
X134157200Y-98635237D01*
X134157200Y-98635237D02*
X134061961Y-98730475D01*
X134061961Y-98730475D02*
X133966723Y-98778094D01*
X133966723Y-98778094D02*
X133776247Y-98825713D01*
X133776247Y-98825713D02*
X133633390Y-98825713D01*
X133633390Y-98825713D02*
X133442914Y-98778094D01*
X133442914Y-98778094D02*
X133347676Y-98730475D01*
X133347676Y-98730475D02*
X133252438Y-98635237D01*
X133252438Y-98635237D02*
X133204819Y-98492380D01*
X133204819Y-98492380D02*
X133204819Y-98397142D01*
X133204819Y-98397142D02*
X133252438Y-98254285D01*
X133252438Y-98254285D02*
X133300057Y-98206666D01*
X134204819Y-97730475D02*
X134204819Y-97539999D01*
X134204819Y-97539999D02*
X134157200Y-97444761D01*
X134157200Y-97444761D02*
X134109580Y-97397142D01*
X134109580Y-97397142D02*
X133966723Y-97301904D01*
X133966723Y-97301904D02*
X133776247Y-97254285D01*
X133776247Y-97254285D02*
X133395295Y-97254285D01*
X133395295Y-97254285D02*
X133300057Y-97301904D01*
X133300057Y-97301904D02*
X133252438Y-97349523D01*
X133252438Y-97349523D02*
X133204819Y-97444761D01*
X133204819Y-97444761D02*
X133204819Y-97635237D01*
X133204819Y-97635237D02*
X133252438Y-97730475D01*
X133252438Y-97730475D02*
X133300057Y-97778094D01*
X133300057Y-97778094D02*
X133395295Y-97825713D01*
X133395295Y-97825713D02*
X133633390Y-97825713D01*
X133633390Y-97825713D02*
X133728628Y-97778094D01*
X133728628Y-97778094D02*
X133776247Y-97730475D01*
X133776247Y-97730475D02*
X133823866Y-97635237D01*
X133823866Y-97635237D02*
X133823866Y-97444761D01*
X133823866Y-97444761D02*
X133776247Y-97349523D01*
X133776247Y-97349523D02*
X133728628Y-97301904D01*
X133728628Y-97301904D02*
X133633390Y-97254285D01*
X69207142Y-61109580D02*
X69159523Y-61157200D01*
X69159523Y-61157200D02*
X69016666Y-61204819D01*
X69016666Y-61204819D02*
X68921428Y-61204819D01*
X68921428Y-61204819D02*
X68778571Y-61157200D01*
X68778571Y-61157200D02*
X68683333Y-61061961D01*
X68683333Y-61061961D02*
X68635714Y-60966723D01*
X68635714Y-60966723D02*
X68588095Y-60776247D01*
X68588095Y-60776247D02*
X68588095Y-60633390D01*
X68588095Y-60633390D02*
X68635714Y-60442914D01*
X68635714Y-60442914D02*
X68683333Y-60347676D01*
X68683333Y-60347676D02*
X68778571Y-60252438D01*
X68778571Y-60252438D02*
X68921428Y-60204819D01*
X68921428Y-60204819D02*
X69016666Y-60204819D01*
X69016666Y-60204819D02*
X69159523Y-60252438D01*
X69159523Y-60252438D02*
X69207142Y-60300057D01*
X70159523Y-61204819D02*
X69588095Y-61204819D01*
X69873809Y-61204819D02*
X69873809Y-60204819D01*
X69873809Y-60204819D02*
X69778571Y-60347676D01*
X69778571Y-60347676D02*
X69683333Y-60442914D01*
X69683333Y-60442914D02*
X69588095Y-60490533D01*
X70540476Y-60300057D02*
X70588095Y-60252438D01*
X70588095Y-60252438D02*
X70683333Y-60204819D01*
X70683333Y-60204819D02*
X70921428Y-60204819D01*
X70921428Y-60204819D02*
X71016666Y-60252438D01*
X71016666Y-60252438D02*
X71064285Y-60300057D01*
X71064285Y-60300057D02*
X71111904Y-60395295D01*
X71111904Y-60395295D02*
X71111904Y-60490533D01*
X71111904Y-60490533D02*
X71064285Y-60633390D01*
X71064285Y-60633390D02*
X70492857Y-61204819D01*
X70492857Y-61204819D02*
X71111904Y-61204819D01*
X158954819Y-59666666D02*
X158954819Y-60142856D01*
X158954819Y-60142856D02*
X157954819Y-60142856D01*
X157954819Y-58857142D02*
X157954819Y-59333332D01*
X157954819Y-59333332D02*
X158431009Y-59380951D01*
X158431009Y-59380951D02*
X158383390Y-59333332D01*
X158383390Y-59333332D02*
X158335771Y-59238094D01*
X158335771Y-59238094D02*
X158335771Y-58999999D01*
X158335771Y-58999999D02*
X158383390Y-58904761D01*
X158383390Y-58904761D02*
X158431009Y-58857142D01*
X158431009Y-58857142D02*
X158526247Y-58809523D01*
X158526247Y-58809523D02*
X158764342Y-58809523D01*
X158764342Y-58809523D02*
X158859580Y-58857142D01*
X158859580Y-58857142D02*
X158907200Y-58904761D01*
X158907200Y-58904761D02*
X158954819Y-58999999D01*
X158954819Y-58999999D02*
X158954819Y-59238094D01*
X158954819Y-59238094D02*
X158907200Y-59333332D01*
X158907200Y-59333332D02*
X158859580Y-59380951D01*
X71609580Y-100492857D02*
X71657200Y-100540476D01*
X71657200Y-100540476D02*
X71704819Y-100683333D01*
X71704819Y-100683333D02*
X71704819Y-100778571D01*
X71704819Y-100778571D02*
X71657200Y-100921428D01*
X71657200Y-100921428D02*
X71561961Y-101016666D01*
X71561961Y-101016666D02*
X71466723Y-101064285D01*
X71466723Y-101064285D02*
X71276247Y-101111904D01*
X71276247Y-101111904D02*
X71133390Y-101111904D01*
X71133390Y-101111904D02*
X70942914Y-101064285D01*
X70942914Y-101064285D02*
X70847676Y-101016666D01*
X70847676Y-101016666D02*
X70752438Y-100921428D01*
X70752438Y-100921428D02*
X70704819Y-100778571D01*
X70704819Y-100778571D02*
X70704819Y-100683333D01*
X70704819Y-100683333D02*
X70752438Y-100540476D01*
X70752438Y-100540476D02*
X70800057Y-100492857D01*
X71704819Y-99540476D02*
X71704819Y-100111904D01*
X71704819Y-99826190D02*
X70704819Y-99826190D01*
X70704819Y-99826190D02*
X70847676Y-99921428D01*
X70847676Y-99921428D02*
X70942914Y-100016666D01*
X70942914Y-100016666D02*
X70990533Y-100111904D01*
X70704819Y-98683333D02*
X70704819Y-98873809D01*
X70704819Y-98873809D02*
X70752438Y-98969047D01*
X70752438Y-98969047D02*
X70800057Y-99016666D01*
X70800057Y-99016666D02*
X70942914Y-99111904D01*
X70942914Y-99111904D02*
X71133390Y-99159523D01*
X71133390Y-99159523D02*
X71514342Y-99159523D01*
X71514342Y-99159523D02*
X71609580Y-99111904D01*
X71609580Y-99111904D02*
X71657200Y-99064285D01*
X71657200Y-99064285D02*
X71704819Y-98969047D01*
X71704819Y-98969047D02*
X71704819Y-98778571D01*
X71704819Y-98778571D02*
X71657200Y-98683333D01*
X71657200Y-98683333D02*
X71609580Y-98635714D01*
X71609580Y-98635714D02*
X71514342Y-98588095D01*
X71514342Y-98588095D02*
X71276247Y-98588095D01*
X71276247Y-98588095D02*
X71181009Y-98635714D01*
X71181009Y-98635714D02*
X71133390Y-98683333D01*
X71133390Y-98683333D02*
X71085771Y-98778571D01*
X71085771Y-98778571D02*
X71085771Y-98969047D01*
X71085771Y-98969047D02*
X71133390Y-99064285D01*
X71133390Y-99064285D02*
X71181009Y-99111904D01*
X71181009Y-99111904D02*
X71276247Y-99159523D01*
X110954819Y-60666666D02*
X110954819Y-61142856D01*
X110954819Y-61142856D02*
X109954819Y-61142856D01*
X109954819Y-60428570D02*
X109954819Y-59809523D01*
X109954819Y-59809523D02*
X110335771Y-60142856D01*
X110335771Y-60142856D02*
X110335771Y-59999999D01*
X110335771Y-59999999D02*
X110383390Y-59904761D01*
X110383390Y-59904761D02*
X110431009Y-59857142D01*
X110431009Y-59857142D02*
X110526247Y-59809523D01*
X110526247Y-59809523D02*
X110764342Y-59809523D01*
X110764342Y-59809523D02*
X110859580Y-59857142D01*
X110859580Y-59857142D02*
X110907200Y-59904761D01*
X110907200Y-59904761D02*
X110954819Y-59999999D01*
X110954819Y-59999999D02*
X110954819Y-60285713D01*
X110954819Y-60285713D02*
X110907200Y-60380951D01*
X110907200Y-60380951D02*
X110859580Y-60428570D01*
X98793333Y-66549580D02*
X98745714Y-66597200D01*
X98745714Y-66597200D02*
X98602857Y-66644819D01*
X98602857Y-66644819D02*
X98507619Y-66644819D01*
X98507619Y-66644819D02*
X98364762Y-66597200D01*
X98364762Y-66597200D02*
X98269524Y-66501961D01*
X98269524Y-66501961D02*
X98221905Y-66406723D01*
X98221905Y-66406723D02*
X98174286Y-66216247D01*
X98174286Y-66216247D02*
X98174286Y-66073390D01*
X98174286Y-66073390D02*
X98221905Y-65882914D01*
X98221905Y-65882914D02*
X98269524Y-65787676D01*
X98269524Y-65787676D02*
X98364762Y-65692438D01*
X98364762Y-65692438D02*
X98507619Y-65644819D01*
X98507619Y-65644819D02*
X98602857Y-65644819D01*
X98602857Y-65644819D02*
X98745714Y-65692438D01*
X98745714Y-65692438D02*
X98793333Y-65740057D01*
X99126667Y-65644819D02*
X99745714Y-65644819D01*
X99745714Y-65644819D02*
X99412381Y-66025771D01*
X99412381Y-66025771D02*
X99555238Y-66025771D01*
X99555238Y-66025771D02*
X99650476Y-66073390D01*
X99650476Y-66073390D02*
X99698095Y-66121009D01*
X99698095Y-66121009D02*
X99745714Y-66216247D01*
X99745714Y-66216247D02*
X99745714Y-66454342D01*
X99745714Y-66454342D02*
X99698095Y-66549580D01*
X99698095Y-66549580D02*
X99650476Y-66597200D01*
X99650476Y-66597200D02*
X99555238Y-66644819D01*
X99555238Y-66644819D02*
X99269524Y-66644819D01*
X99269524Y-66644819D02*
X99174286Y-66597200D01*
X99174286Y-66597200D02*
X99126667Y-66549580D01*
X36166666Y-107154819D02*
X36166666Y-107869104D01*
X36166666Y-107869104D02*
X36119047Y-108011961D01*
X36119047Y-108011961D02*
X36023809Y-108107200D01*
X36023809Y-108107200D02*
X35880952Y-108154819D01*
X35880952Y-108154819D02*
X35785714Y-108154819D01*
X37071428Y-107488152D02*
X37071428Y-108154819D01*
X36833333Y-107107200D02*
X36595238Y-107821485D01*
X36595238Y-107821485D02*
X37214285Y-107821485D01*
X96166666Y-75154819D02*
X96166666Y-75869104D01*
X96166666Y-75869104D02*
X96119047Y-76011961D01*
X96119047Y-76011961D02*
X96023809Y-76107200D01*
X96023809Y-76107200D02*
X95880952Y-76154819D01*
X95880952Y-76154819D02*
X95785714Y-76154819D01*
X96690476Y-76154819D02*
X96880952Y-76154819D01*
X96880952Y-76154819D02*
X96976190Y-76107200D01*
X96976190Y-76107200D02*
X97023809Y-76059580D01*
X97023809Y-76059580D02*
X97119047Y-75916723D01*
X97119047Y-75916723D02*
X97166666Y-75726247D01*
X97166666Y-75726247D02*
X97166666Y-75345295D01*
X97166666Y-75345295D02*
X97119047Y-75250057D01*
X97119047Y-75250057D02*
X97071428Y-75202438D01*
X97071428Y-75202438D02*
X96976190Y-75154819D01*
X96976190Y-75154819D02*
X96785714Y-75154819D01*
X96785714Y-75154819D02*
X96690476Y-75202438D01*
X96690476Y-75202438D02*
X96642857Y-75250057D01*
X96642857Y-75250057D02*
X96595238Y-75345295D01*
X96595238Y-75345295D02*
X96595238Y-75583390D01*
X96595238Y-75583390D02*
X96642857Y-75678628D01*
X96642857Y-75678628D02*
X96690476Y-75726247D01*
X96690476Y-75726247D02*
X96785714Y-75773866D01*
X96785714Y-75773866D02*
X96976190Y-75773866D01*
X96976190Y-75773866D02*
X97071428Y-75726247D01*
X97071428Y-75726247D02*
X97119047Y-75678628D01*
X97119047Y-75678628D02*
X97166666Y-75583390D01*
%TO.C,C17*%
D11*
X91900000Y-103550000D02*
X89200000Y-103550000D01*
X89200000Y-96400000D01*
X91900000Y-96400000D01*
X91900000Y-103550000D01*
D12*
%TO.C,L10*%
X46727500Y-98000000D02*
X47527500Y-98000000D01*
X47527500Y-93130000D02*
X47527500Y-102870000D01*
X47527500Y-102870000D02*
X56987500Y-102870000D01*
X56987500Y-93130000D02*
X47527500Y-93130000D01*
X56987500Y-102870000D02*
X56987500Y-93130000D01*
X57887500Y-98000000D02*
X57087500Y-98000000D01*
%TO.C,C6*%
D11*
X63100000Y-96340000D02*
X65800000Y-96340000D01*
X65800000Y-103490000D01*
X63100000Y-103490000D01*
X63100000Y-96340000D01*
%TO.C,C14*%
X123550000Y-62100000D02*
X116400000Y-62100000D01*
X116400000Y-64800000D01*
X123550000Y-64800000D01*
X123550000Y-62100000D01*
%TO.C,C4*%
X123550000Y-67540000D02*
X116400000Y-67540000D01*
X116400000Y-70240000D01*
X123550000Y-70240000D01*
X123550000Y-67540000D01*
%TO.C,C19*%
X141900000Y-101550000D02*
X139200000Y-101550000D01*
X139200000Y-94400000D01*
X141900000Y-94400000D01*
X141900000Y-101550000D01*
D12*
%TO.C,L2*%
X89740000Y-57940000D02*
X88940000Y-57940000D01*
X88840000Y-62810000D02*
X88840000Y-53070000D01*
X88840000Y-53070000D02*
X79380000Y-53070000D01*
X79380000Y-62810000D02*
X88840000Y-62810000D01*
X79380000Y-53070000D02*
X79380000Y-62810000D01*
X78580000Y-57940000D02*
X79380000Y-57940000D01*
%TO.C,J3*%
X176000000Y-82350000D02*
X176000000Y-107350000D01*
X176000000Y-107350000D02*
X189000000Y-107350000D01*
X189000000Y-82350000D02*
X176000000Y-82350000D01*
X189000000Y-107350000D02*
X189000000Y-82350000D01*
%TO.C,L4*%
X139387500Y-57940000D02*
X138587500Y-57940000D01*
X138487500Y-62810000D02*
X138487500Y-53070000D01*
X138487500Y-53070000D02*
X129027500Y-53070000D01*
X129027500Y-62810000D02*
X138487500Y-62810000D01*
X129027500Y-53070000D02*
X129027500Y-62810000D01*
X128227500Y-57940000D02*
X129027500Y-57940000D01*
%TO.C,J2*%
X189000000Y-72740000D02*
X174500000Y-72740000D01*
X189000000Y-55040000D02*
X189000000Y-72740000D01*
X174500000Y-72740000D02*
X174500000Y-55040000D01*
X174500000Y-55040000D02*
X189000000Y-55040000D01*
%TO.C,C13*%
D11*
X102550000Y-62100000D02*
X95400000Y-62100000D01*
X95400000Y-64800000D01*
X102550000Y-64800000D01*
X102550000Y-62100000D01*
D12*
%TO.C,L6*%
X146227500Y-94500000D02*
X147027500Y-94500000D01*
X147027500Y-89630000D02*
X147027500Y-99370000D01*
X147027500Y-99370000D02*
X156487500Y-99370000D01*
X156487500Y-89630000D02*
X147027500Y-89630000D01*
X156487500Y-99370000D02*
X156487500Y-89630000D01*
X157387500Y-94500000D02*
X156587500Y-94500000D01*
%TO.C,L7*%
X123130000Y-93512500D02*
X123130000Y-102972500D01*
X123130000Y-102972500D02*
X132870000Y-102972500D01*
X128000000Y-92612500D02*
X128000000Y-93412500D01*
X128000000Y-103772500D02*
X128000000Y-102972500D01*
X132870000Y-93512500D02*
X123130000Y-93512500D01*
X132870000Y-102972500D02*
X132870000Y-93512500D01*
%TO.C,C1*%
D11*
X54550000Y-67540000D02*
X47400000Y-67540000D01*
X47400000Y-70240000D01*
X54550000Y-70240000D01*
X54550000Y-67540000D01*
%TO.C,C7*%
X85200000Y-96340000D02*
X87900000Y-96340000D01*
X87900000Y-103490000D01*
X85200000Y-103490000D01*
X85200000Y-96340000D01*
D12*
%TO.C,L9*%
X72630000Y-94600000D02*
X72630000Y-104060000D01*
X72630000Y-104060000D02*
X82370000Y-104060000D01*
X77500000Y-93700000D02*
X77500000Y-94500000D01*
X77500000Y-104860000D02*
X77500000Y-104060000D01*
X82370000Y-94600000D02*
X72630000Y-94600000D01*
X82370000Y-104060000D02*
X82370000Y-94600000D01*
%TO.C,L8*%
X96227500Y-95500000D02*
X97027500Y-95500000D01*
X97027500Y-90630000D02*
X97027500Y-100370000D01*
X97027500Y-100370000D02*
X106487500Y-100370000D01*
X106487500Y-90630000D02*
X97027500Y-90630000D01*
X106487500Y-100370000D02*
X106487500Y-90630000D01*
X107387500Y-95500000D02*
X106587500Y-95500000D01*
%TO.C,C15*%
D11*
X151550000Y-63100000D02*
X144400000Y-63100000D01*
X144400000Y-65800000D01*
X151550000Y-65800000D01*
X151550000Y-63100000D01*
%TO.C,C20*%
X171400000Y-101075000D02*
X168700000Y-101075000D01*
X168700000Y-93925000D01*
X171400000Y-93925000D01*
X171400000Y-101075000D01*
%TO.C,C11*%
X54750000Y-62200000D02*
X47600000Y-62200000D01*
X47600000Y-64900000D01*
X54750000Y-64900000D01*
X54750000Y-62200000D01*
D12*
%TO.C,L1*%
X65370000Y-66060000D02*
X65370000Y-56600000D01*
X65370000Y-56600000D02*
X55630000Y-56600000D01*
X60500000Y-66860000D02*
X60500000Y-66060000D01*
X60500000Y-55700000D02*
X60500000Y-56500000D01*
X55630000Y-66060000D02*
X65370000Y-66060000D01*
X55630000Y-56600000D02*
X55630000Y-66060000D01*
%TO.C,J1*%
X32400000Y-67610000D02*
X32400000Y-92610000D01*
X32400000Y-92610000D02*
X45400000Y-92610000D01*
X45400000Y-67610000D02*
X32400000Y-67610000D01*
X45400000Y-92610000D02*
X45400000Y-67610000D01*
%TO.C,C5*%
D11*
X151660000Y-67540000D02*
X144510000Y-67540000D01*
X144510000Y-70240000D01*
X151660000Y-70240000D01*
X151660000Y-67540000D01*
%TO.C,C10*%
X163600000Y-93950000D02*
X166300000Y-93950000D01*
X166300000Y-101100000D01*
X163600000Y-101100000D01*
X163600000Y-93950000D01*
%TO.C,C2*%
X73550000Y-67540000D02*
X66400000Y-67540000D01*
X66400000Y-70240000D01*
X73550000Y-70240000D01*
X73550000Y-67540000D01*
%TO.C,C18*%
X120900000Y-101550000D02*
X118200000Y-101550000D01*
X118200000Y-94400000D01*
X120900000Y-94400000D01*
X120900000Y-101550000D01*
%TO.C,C8*%
X114100000Y-94450000D02*
X116800000Y-94450000D01*
X116800000Y-101600000D01*
X114100000Y-101600000D01*
X114100000Y-94450000D01*
%TO.C,C9*%
X135100000Y-94340000D02*
X137800000Y-94340000D01*
X137800000Y-101490000D01*
X135100000Y-101490000D01*
X135100000Y-94340000D01*
%TO.C,C12*%
X73550000Y-62100000D02*
X66400000Y-62100000D01*
X66400000Y-64800000D01*
X73550000Y-64800000D01*
X73550000Y-62100000D01*
D12*
%TO.C,L5*%
X163370000Y-64972500D02*
X163370000Y-55512500D01*
X163370000Y-55512500D02*
X153630000Y-55512500D01*
X158500000Y-65772500D02*
X158500000Y-64972500D01*
X158500000Y-54612500D02*
X158500000Y-55412500D01*
X153630000Y-64972500D02*
X163370000Y-64972500D01*
X153630000Y-55512500D02*
X153630000Y-64972500D01*
%TO.C,C16*%
D11*
X69900000Y-103550000D02*
X67200000Y-103550000D01*
X67200000Y-96400000D01*
X69900000Y-96400000D01*
X69900000Y-103550000D01*
D12*
%TO.C,L3*%
X115370000Y-66060000D02*
X115370000Y-56600000D01*
X115370000Y-56600000D02*
X105630000Y-56600000D01*
X110500000Y-66860000D02*
X110500000Y-66060000D01*
X110500000Y-55700000D02*
X110500000Y-56500000D01*
X105630000Y-66060000D02*
X115370000Y-66060000D01*
X105630000Y-56600000D02*
X105630000Y-66060000D01*
%TO.C,C3*%
D11*
X102660000Y-67540000D02*
X95510000Y-67540000D01*
X95510000Y-70240000D01*
X102660000Y-70240000D01*
X102660000Y-67540000D01*
%TD*%
M02*
