%TF.GenerationSoftware,KiCad,Pcbnew,8.0.6-8.0.6-0~ubuntu24.04.1*%
%TF.CreationDate,2024-10-28T11:47:16+01:00*%
%TF.ProjectId,diplexer,6469706c-6578-4657-922e-6b696361645f,rev?*%
%TF.SameCoordinates,Original*%
%TF.FileFunction,Drillmap*%
%TF.FilePolarity,Positive*%
%FSLAX45Y45*%
G04 Gerber Fmt 4.5, Leading zero omitted, Abs format (unit mm)*
G04 Created by KiCad (PCBNEW 8.0.6-8.0.6-0~ubuntu24.04.1) date 2024-10-28 11:47:16*
%MOMM*%
%LPD*%
G01*
G04 APERTURE LIST*
%ADD10C,0.050000*%
%ADD11C,0.200000*%
%ADD12C,0.100000*%
%ADD13C,0.160000*%
%ADD14C,0.320000*%
G04 APERTURE END LIST*
D10*
X3200000Y-2880000D02*
X18900000Y-2880000D01*
X18900000Y-12980000D01*
X3200000Y-12980000D01*
X3200000Y-2880000D01*
D11*
D12*
X4485000Y-4485000D02*
X4515000Y-4515000D01*
X4515000Y-4485000D02*
X4485000Y-4515000D01*
X4985000Y-4485000D02*
X5015000Y-4515000D01*
X5015000Y-4485000D02*
X4985000Y-4515000D01*
X4985000Y-7485000D02*
X5015000Y-7515000D01*
X5015000Y-7485000D02*
X4985000Y-7515000D01*
X4985000Y-8485000D02*
X5015000Y-8515000D01*
X5015000Y-8485000D02*
X4985000Y-8515000D01*
X4985000Y-10985000D02*
X5015000Y-11015000D01*
X5015000Y-10985000D02*
X4985000Y-11015000D01*
X5485000Y-4485000D02*
X5515000Y-4515000D01*
X5515000Y-4485000D02*
X5485000Y-4515000D01*
X5485000Y-7485000D02*
X5515000Y-7515000D01*
X5515000Y-7485000D02*
X5485000Y-7515000D01*
X5485000Y-8485000D02*
X5515000Y-8515000D01*
X5515000Y-8485000D02*
X5485000Y-8515000D01*
X5485000Y-10985000D02*
X5515000Y-11015000D01*
X5515000Y-10985000D02*
X5485000Y-11015000D01*
X5985000Y-4485000D02*
X6015000Y-4515000D01*
X6015000Y-4485000D02*
X5985000Y-4515000D01*
X5985000Y-7485000D02*
X6015000Y-7515000D01*
X6015000Y-7485000D02*
X5985000Y-7515000D01*
X5985000Y-8485000D02*
X6015000Y-8515000D01*
X6015000Y-8485000D02*
X5985000Y-8515000D01*
X5985000Y-10985000D02*
X6015000Y-11015000D01*
X6015000Y-10985000D02*
X5985000Y-11015000D01*
X6485000Y-4485000D02*
X6515000Y-4515000D01*
X6515000Y-4485000D02*
X6485000Y-4515000D01*
X6485000Y-7485000D02*
X6515000Y-7515000D01*
X6515000Y-7485000D02*
X6485000Y-7515000D01*
X6485000Y-8485000D02*
X6515000Y-8515000D01*
X6515000Y-8485000D02*
X6485000Y-8515000D01*
X6485000Y-10985000D02*
X6515000Y-11015000D01*
X6515000Y-10985000D02*
X6485000Y-11015000D01*
X6985000Y-4485000D02*
X7015000Y-4515000D01*
X7015000Y-4485000D02*
X6985000Y-4515000D01*
X6985000Y-7485000D02*
X7015000Y-7515000D01*
X7015000Y-7485000D02*
X6985000Y-7515000D01*
X6985000Y-8485000D02*
X7015000Y-8515000D01*
X7015000Y-8485000D02*
X6985000Y-8515000D01*
X6985000Y-10985000D02*
X7015000Y-11015000D01*
X7015000Y-10985000D02*
X6985000Y-11015000D01*
X7485000Y-4485000D02*
X7515000Y-4515000D01*
X7515000Y-4485000D02*
X7485000Y-4515000D01*
X7485000Y-7485000D02*
X7515000Y-7515000D01*
X7515000Y-7485000D02*
X7485000Y-7515000D01*
X7485000Y-8485000D02*
X7515000Y-8515000D01*
X7515000Y-8485000D02*
X7485000Y-8515000D01*
X7485000Y-8485000D02*
X7515000Y-8515000D01*
X7515000Y-8485000D02*
X7485000Y-8515000D01*
X7485000Y-10985000D02*
X7515000Y-11015000D01*
X7515000Y-10985000D02*
X7485000Y-11015000D01*
X7985000Y-4485000D02*
X8015000Y-4515000D01*
X8015000Y-4485000D02*
X7985000Y-4515000D01*
X7985000Y-7485000D02*
X8015000Y-7515000D01*
X8015000Y-7485000D02*
X7985000Y-7515000D01*
X7985000Y-8485000D02*
X8015000Y-8515000D01*
X8015000Y-8485000D02*
X7985000Y-8515000D01*
X7985000Y-10985000D02*
X8015000Y-11015000D01*
X8015000Y-10985000D02*
X7985000Y-11015000D01*
X8485000Y-4485000D02*
X8515000Y-4515000D01*
X8515000Y-4485000D02*
X8485000Y-4515000D01*
X8485000Y-7485000D02*
X8515000Y-7515000D01*
X8515000Y-7485000D02*
X8485000Y-7515000D01*
X8485000Y-8485000D02*
X8515000Y-8515000D01*
X8515000Y-8485000D02*
X8485000Y-8515000D01*
X8485000Y-10985000D02*
X8515000Y-11015000D01*
X8515000Y-10985000D02*
X8485000Y-11015000D01*
X8985000Y-4485000D02*
X9015000Y-4515000D01*
X9015000Y-4485000D02*
X8985000Y-4515000D01*
X8985000Y-7485000D02*
X9015000Y-7515000D01*
X9015000Y-7485000D02*
X8985000Y-7515000D01*
X8985000Y-8485000D02*
X9015000Y-8515000D01*
X9015000Y-8485000D02*
X8985000Y-8515000D01*
X8985000Y-10985000D02*
X9015000Y-11015000D01*
X9015000Y-10985000D02*
X8985000Y-11015000D01*
X9485000Y-4485000D02*
X9515000Y-4515000D01*
X9515000Y-4485000D02*
X9485000Y-4515000D01*
X9485000Y-7485000D02*
X9515000Y-7515000D01*
X9515000Y-7485000D02*
X9485000Y-7515000D01*
X9485000Y-8485000D02*
X9515000Y-8515000D01*
X9515000Y-8485000D02*
X9485000Y-8515000D01*
X9485000Y-10985000D02*
X9515000Y-11015000D01*
X9515000Y-10985000D02*
X9485000Y-11015000D01*
X9985000Y-4485000D02*
X10015000Y-4515000D01*
X10015000Y-4485000D02*
X9985000Y-4515000D01*
X9985000Y-7485000D02*
X10015000Y-7515000D01*
X10015000Y-7485000D02*
X9985000Y-7515000D01*
X9985000Y-8485000D02*
X10015000Y-8515000D01*
X10015000Y-8485000D02*
X9985000Y-8515000D01*
X9985000Y-10985000D02*
X10015000Y-11015000D01*
X10015000Y-10985000D02*
X9985000Y-11015000D01*
X10485000Y-4485000D02*
X10515000Y-4515000D01*
X10515000Y-4485000D02*
X10485000Y-4515000D01*
X10485000Y-7485000D02*
X10515000Y-7515000D01*
X10515000Y-7485000D02*
X10485000Y-7515000D01*
X10485000Y-8485000D02*
X10515000Y-8515000D01*
X10515000Y-8485000D02*
X10485000Y-8515000D01*
X10485000Y-10985000D02*
X10515000Y-11015000D01*
X10515000Y-10985000D02*
X10485000Y-11015000D01*
X10985000Y-4485000D02*
X11015000Y-4515000D01*
X11015000Y-4485000D02*
X10985000Y-4515000D01*
X10985000Y-7485000D02*
X11015000Y-7515000D01*
X11015000Y-7485000D02*
X10985000Y-7515000D01*
X10985000Y-8485000D02*
X11015000Y-8515000D01*
X11015000Y-8485000D02*
X10985000Y-8515000D01*
X10985000Y-10985000D02*
X11015000Y-11015000D01*
X11015000Y-10985000D02*
X10985000Y-11015000D01*
X11485000Y-4485000D02*
X11515000Y-4515000D01*
X11515000Y-4485000D02*
X11485000Y-4515000D01*
X11485000Y-7485000D02*
X11515000Y-7515000D01*
X11515000Y-7485000D02*
X11485000Y-7515000D01*
X11485000Y-8485000D02*
X11515000Y-8515000D01*
X11515000Y-8485000D02*
X11485000Y-8515000D01*
X11485000Y-10985000D02*
X11515000Y-11015000D01*
X11515000Y-10985000D02*
X11485000Y-11015000D01*
X11985000Y-4485000D02*
X12015000Y-4515000D01*
X12015000Y-4485000D02*
X11985000Y-4515000D01*
X11985000Y-7485000D02*
X12015000Y-7515000D01*
X12015000Y-7485000D02*
X11985000Y-7515000D01*
X11985000Y-8485000D02*
X12015000Y-8515000D01*
X12015000Y-8485000D02*
X11985000Y-8515000D01*
X11985000Y-10985000D02*
X12015000Y-11015000D01*
X12015000Y-10985000D02*
X11985000Y-11015000D01*
X12485000Y-4485000D02*
X12515000Y-4515000D01*
X12515000Y-4485000D02*
X12485000Y-4515000D01*
X12485000Y-7485000D02*
X12515000Y-7515000D01*
X12515000Y-7485000D02*
X12485000Y-7515000D01*
X12485000Y-8485000D02*
X12515000Y-8515000D01*
X12515000Y-8485000D02*
X12485000Y-8515000D01*
X12485000Y-10985000D02*
X12515000Y-11015000D01*
X12515000Y-10985000D02*
X12485000Y-11015000D01*
X12985000Y-4485000D02*
X13015000Y-4515000D01*
X13015000Y-4485000D02*
X12985000Y-4515000D01*
X12985000Y-7485000D02*
X13015000Y-7515000D01*
X13015000Y-7485000D02*
X12985000Y-7515000D01*
X12985000Y-8485000D02*
X13015000Y-8515000D01*
X13015000Y-8485000D02*
X12985000Y-8515000D01*
X12985000Y-10985000D02*
X13015000Y-11015000D01*
X13015000Y-10985000D02*
X12985000Y-11015000D01*
X13485000Y-4485000D02*
X13515000Y-4515000D01*
X13515000Y-4485000D02*
X13485000Y-4515000D01*
X13485000Y-7485000D02*
X13515000Y-7515000D01*
X13515000Y-7485000D02*
X13485000Y-7515000D01*
X13485000Y-8485000D02*
X13515000Y-8515000D01*
X13515000Y-8485000D02*
X13485000Y-8515000D01*
X13485000Y-10985000D02*
X13515000Y-11015000D01*
X13515000Y-10985000D02*
X13485000Y-11015000D01*
X13985000Y-4485000D02*
X14015000Y-4515000D01*
X14015000Y-4485000D02*
X13985000Y-4515000D01*
X13985000Y-7485000D02*
X14015000Y-7515000D01*
X14015000Y-7485000D02*
X13985000Y-7515000D01*
X13985000Y-8485000D02*
X14015000Y-8515000D01*
X14015000Y-8485000D02*
X13985000Y-8515000D01*
X13985000Y-10985000D02*
X14015000Y-11015000D01*
X14015000Y-10985000D02*
X13985000Y-11015000D01*
X14485000Y-4485000D02*
X14515000Y-4515000D01*
X14515000Y-4485000D02*
X14485000Y-4515000D01*
X14485000Y-7485000D02*
X14515000Y-7515000D01*
X14515000Y-7485000D02*
X14485000Y-7515000D01*
X14485000Y-8485000D02*
X14515000Y-8515000D01*
X14515000Y-8485000D02*
X14485000Y-8515000D01*
X14485000Y-10985000D02*
X14515000Y-11015000D01*
X14515000Y-10985000D02*
X14485000Y-11015000D01*
X14985000Y-4485000D02*
X15015000Y-4515000D01*
X15015000Y-4485000D02*
X14985000Y-4515000D01*
X14985000Y-7485000D02*
X15015000Y-7515000D01*
X15015000Y-7485000D02*
X14985000Y-7515000D01*
X14985000Y-8485000D02*
X15015000Y-8515000D01*
X15015000Y-8485000D02*
X14985000Y-8515000D01*
X14985000Y-10985000D02*
X15015000Y-11015000D01*
X15015000Y-10985000D02*
X14985000Y-11015000D01*
X15485000Y-4485000D02*
X15515000Y-4515000D01*
X15515000Y-4485000D02*
X15485000Y-4515000D01*
X15485000Y-7485000D02*
X15515000Y-7515000D01*
X15515000Y-7485000D02*
X15485000Y-7515000D01*
X15485000Y-8485000D02*
X15515000Y-8515000D01*
X15515000Y-8485000D02*
X15485000Y-8515000D01*
X15485000Y-10985000D02*
X15515000Y-11015000D01*
X15515000Y-10985000D02*
X15485000Y-11015000D01*
X15985000Y-4485000D02*
X16015000Y-4515000D01*
X16015000Y-4485000D02*
X15985000Y-4515000D01*
X15985000Y-7485000D02*
X16015000Y-7515000D01*
X16015000Y-7485000D02*
X15985000Y-7515000D01*
X15985000Y-8485000D02*
X16015000Y-8515000D01*
X16015000Y-8485000D02*
X15985000Y-8515000D01*
X15985000Y-10985000D02*
X16015000Y-11015000D01*
X16015000Y-10985000D02*
X15985000Y-11015000D01*
X16485000Y-4485000D02*
X16515000Y-4515000D01*
X16515000Y-4485000D02*
X16485000Y-4515000D01*
X16485000Y-7485000D02*
X16515000Y-7515000D01*
X16515000Y-7485000D02*
X16485000Y-7515000D01*
X16485000Y-8485000D02*
X16515000Y-8515000D01*
X16515000Y-8485000D02*
X16485000Y-8515000D01*
X16485000Y-10985000D02*
X16515000Y-11015000D01*
X16515000Y-10985000D02*
X16485000Y-11015000D01*
X16985000Y-4485000D02*
X17015000Y-4515000D01*
X17015000Y-4485000D02*
X16985000Y-4515000D01*
X16985000Y-7485000D02*
X17015000Y-7515000D01*
X17015000Y-7485000D02*
X16985000Y-7515000D01*
X16985000Y-8485000D02*
X17015000Y-8515000D01*
X17015000Y-8485000D02*
X16985000Y-8515000D01*
X16985000Y-10985000D02*
X17015000Y-11015000D01*
X17015000Y-10985000D02*
X16985000Y-11015000D01*
X17485000Y-4485000D02*
X17515000Y-4515000D01*
X17515000Y-4485000D02*
X17485000Y-4515000D01*
X17485000Y-7485000D02*
X17515000Y-7515000D01*
X17515000Y-7485000D02*
X17485000Y-7515000D01*
X17485000Y-8485000D02*
X17515000Y-8515000D01*
X17515000Y-8485000D02*
X17485000Y-8515000D01*
X17485000Y-10985000D02*
X17515000Y-11015000D01*
X17515000Y-10985000D02*
X17485000Y-11015000D01*
X17985000Y-4485000D02*
X18015000Y-4515000D01*
X18015000Y-4485000D02*
X17985000Y-4515000D01*
X17985000Y-7485000D02*
X18015000Y-7515000D01*
X18015000Y-7485000D02*
X17985000Y-7515000D01*
X17985000Y-8485000D02*
X18015000Y-8515000D01*
X18015000Y-8485000D02*
X17985000Y-8515000D01*
X17985000Y-10985000D02*
X18015000Y-11015000D01*
X18015000Y-10985000D02*
X17985000Y-11015000D01*
D13*
X4628750Y-9800000D02*
G75*
G02*
X4468750Y-9800000I-80000J0D01*
G01*
X4468750Y-9800000D02*
G75*
G02*
X4628750Y-9800000I80000J0D01*
G01*
X6088750Y-9800000D02*
G75*
G02*
X5928750Y-9800000I-80000J0D01*
G01*
X5928750Y-9800000D02*
G75*
G02*
X6088750Y-9800000I80000J0D01*
G01*
X6130000Y-5350000D02*
G75*
G02*
X5970000Y-5350000I-80000J0D01*
G01*
X5970000Y-5350000D02*
G75*
G02*
X6130000Y-5350000I80000J0D01*
G01*
X6130000Y-6810000D02*
G75*
G02*
X5970000Y-6810000I-80000J0D01*
G01*
X5970000Y-6810000D02*
G75*
G02*
X6130000Y-6810000I80000J0D01*
G01*
X7814000Y-5794000D02*
G75*
G02*
X7654000Y-5794000I-80000J0D01*
G01*
X7654000Y-5794000D02*
G75*
G02*
X7814000Y-5794000I80000J0D01*
G01*
X7830000Y-9150000D02*
G75*
G02*
X7670000Y-9150000I-80000J0D01*
G01*
X7670000Y-9150000D02*
G75*
G02*
X7830000Y-9150000I80000J0D01*
G01*
X7830000Y-10610000D02*
G75*
G02*
X7670000Y-10610000I-80000J0D01*
G01*
X7670000Y-10610000D02*
G75*
G02*
X7830000Y-10610000I80000J0D01*
G01*
X9274000Y-5794000D02*
G75*
G02*
X9114000Y-5794000I-80000J0D01*
G01*
X9114000Y-5794000D02*
G75*
G02*
X9274000Y-5794000I80000J0D01*
G01*
X9578750Y-9550000D02*
G75*
G02*
X9418750Y-9550000I-80000J0D01*
G01*
X9418750Y-9550000D02*
G75*
G02*
X9578750Y-9550000I80000J0D01*
G01*
X11038750Y-9550000D02*
G75*
G02*
X10878750Y-9550000I-80000J0D01*
G01*
X10878750Y-9550000D02*
G75*
G02*
X11038750Y-9550000I80000J0D01*
G01*
X11130000Y-5350000D02*
G75*
G02*
X10970000Y-5350000I-80000J0D01*
G01*
X10970000Y-5350000D02*
G75*
G02*
X11130000Y-5350000I80000J0D01*
G01*
X11130000Y-6810000D02*
G75*
G02*
X10970000Y-6810000I-80000J0D01*
G01*
X10970000Y-6810000D02*
G75*
G02*
X11130000Y-6810000I80000J0D01*
G01*
X12778750Y-5794000D02*
G75*
G02*
X12618750Y-5794000I-80000J0D01*
G01*
X12618750Y-5794000D02*
G75*
G02*
X12778750Y-5794000I80000J0D01*
G01*
X12880000Y-9041250D02*
G75*
G02*
X12720000Y-9041250I-80000J0D01*
G01*
X12720000Y-9041250D02*
G75*
G02*
X12880000Y-9041250I80000J0D01*
G01*
X12880000Y-10501250D02*
G75*
G02*
X12720000Y-10501250I-80000J0D01*
G01*
X12720000Y-10501250D02*
G75*
G02*
X12880000Y-10501250I80000J0D01*
G01*
X14238750Y-5794000D02*
G75*
G02*
X14078750Y-5794000I-80000J0D01*
G01*
X14078750Y-5794000D02*
G75*
G02*
X14238750Y-5794000I80000J0D01*
G01*
X14578750Y-9450000D02*
G75*
G02*
X14418750Y-9450000I-80000J0D01*
G01*
X14418750Y-9450000D02*
G75*
G02*
X14578750Y-9450000I80000J0D01*
G01*
X15930000Y-5241250D02*
G75*
G02*
X15770000Y-5241250I-80000J0D01*
G01*
X15770000Y-5241250D02*
G75*
G02*
X15930000Y-5241250I80000J0D01*
G01*
X15930000Y-6701250D02*
G75*
G02*
X15770000Y-6701250I-80000J0D01*
G01*
X15770000Y-6701250D02*
G75*
G02*
X15930000Y-6701250I80000J0D01*
G01*
X16038750Y-9450000D02*
G75*
G02*
X15878750Y-9450000I-80000J0D01*
G01*
X15878750Y-9450000D02*
G75*
G02*
X16038750Y-9450000I80000J0D01*
G01*
D14*
X3650000Y-4590000D02*
X3650000Y-4910000D01*
X3490000Y-4750000D02*
X3810000Y-4750000D01*
X3650000Y-10990000D02*
X3650000Y-11310000D01*
X3490000Y-11150000D02*
X3810000Y-11150000D01*
X5050000Y-7790000D02*
X5050000Y-8110000D01*
X4890000Y-7950000D02*
X5210000Y-7950000D01*
X9650000Y-7790000D02*
X9650000Y-8110000D01*
X9490000Y-7950000D02*
X9810000Y-7950000D01*
X13450000Y-7790000D02*
X13450000Y-8110000D01*
X13290000Y-7950000D02*
X13610000Y-7950000D01*
X18550000Y-4590000D02*
X18550000Y-4910000D01*
X18390000Y-4750000D02*
X18710000Y-4750000D01*
X18550000Y-7790000D02*
X18550000Y-8110000D01*
X18390000Y-7950000D02*
X18710000Y-7950000D01*
X18550000Y-10990000D02*
X18550000Y-11310000D01*
X18390000Y-11150000D02*
X18710000Y-11150000D01*
D11*
X3458277Y-13293984D02*
X3458277Y-13093984D01*
X3458277Y-13093984D02*
X3505896Y-13093984D01*
X3505896Y-13093984D02*
X3534467Y-13103508D01*
X3534467Y-13103508D02*
X3553515Y-13122555D01*
X3553515Y-13122555D02*
X3563039Y-13141603D01*
X3563039Y-13141603D02*
X3572562Y-13179698D01*
X3572562Y-13179698D02*
X3572562Y-13208269D01*
X3572562Y-13208269D02*
X3563039Y-13246365D01*
X3563039Y-13246365D02*
X3553515Y-13265412D01*
X3553515Y-13265412D02*
X3534467Y-13284460D01*
X3534467Y-13284460D02*
X3505896Y-13293984D01*
X3505896Y-13293984D02*
X3458277Y-13293984D01*
X3658277Y-13293984D02*
X3658277Y-13160650D01*
X3658277Y-13198746D02*
X3667801Y-13179698D01*
X3667801Y-13179698D02*
X3677324Y-13170174D01*
X3677324Y-13170174D02*
X3696372Y-13160650D01*
X3696372Y-13160650D02*
X3715420Y-13160650D01*
X3782086Y-13293984D02*
X3782086Y-13160650D01*
X3782086Y-13093984D02*
X3772562Y-13103508D01*
X3772562Y-13103508D02*
X3782086Y-13113031D01*
X3782086Y-13113031D02*
X3791610Y-13103508D01*
X3791610Y-13103508D02*
X3782086Y-13093984D01*
X3782086Y-13093984D02*
X3782086Y-13113031D01*
X3905896Y-13293984D02*
X3886848Y-13284460D01*
X3886848Y-13284460D02*
X3877324Y-13265412D01*
X3877324Y-13265412D02*
X3877324Y-13093984D01*
X4010658Y-13293984D02*
X3991610Y-13284460D01*
X3991610Y-13284460D02*
X3982086Y-13265412D01*
X3982086Y-13265412D02*
X3982086Y-13093984D01*
X4239229Y-13293984D02*
X4239229Y-13093984D01*
X4239229Y-13093984D02*
X4305896Y-13236841D01*
X4305896Y-13236841D02*
X4372563Y-13093984D01*
X4372563Y-13093984D02*
X4372563Y-13293984D01*
X4553515Y-13293984D02*
X4553515Y-13189222D01*
X4553515Y-13189222D02*
X4543991Y-13170174D01*
X4543991Y-13170174D02*
X4524944Y-13160650D01*
X4524944Y-13160650D02*
X4486848Y-13160650D01*
X4486848Y-13160650D02*
X4467801Y-13170174D01*
X4553515Y-13284460D02*
X4534467Y-13293984D01*
X4534467Y-13293984D02*
X4486848Y-13293984D01*
X4486848Y-13293984D02*
X4467801Y-13284460D01*
X4467801Y-13284460D02*
X4458277Y-13265412D01*
X4458277Y-13265412D02*
X4458277Y-13246365D01*
X4458277Y-13246365D02*
X4467801Y-13227317D01*
X4467801Y-13227317D02*
X4486848Y-13217793D01*
X4486848Y-13217793D02*
X4534467Y-13217793D01*
X4534467Y-13217793D02*
X4553515Y-13208269D01*
X4648753Y-13160650D02*
X4648753Y-13360650D01*
X4648753Y-13170174D02*
X4667801Y-13160650D01*
X4667801Y-13160650D02*
X4705896Y-13160650D01*
X4705896Y-13160650D02*
X4724944Y-13170174D01*
X4724944Y-13170174D02*
X4734467Y-13179698D01*
X4734467Y-13179698D02*
X4743991Y-13198746D01*
X4743991Y-13198746D02*
X4743991Y-13255888D01*
X4743991Y-13255888D02*
X4734467Y-13274936D01*
X4734467Y-13274936D02*
X4724944Y-13284460D01*
X4724944Y-13284460D02*
X4705896Y-13293984D01*
X4705896Y-13293984D02*
X4667801Y-13293984D01*
X4667801Y-13293984D02*
X4648753Y-13284460D01*
X4829705Y-13274936D02*
X4839229Y-13284460D01*
X4839229Y-13284460D02*
X4829705Y-13293984D01*
X4829705Y-13293984D02*
X4820182Y-13284460D01*
X4820182Y-13284460D02*
X4829705Y-13274936D01*
X4829705Y-13274936D02*
X4829705Y-13293984D01*
X4829705Y-13170174D02*
X4839229Y-13179698D01*
X4839229Y-13179698D02*
X4829705Y-13189222D01*
X4829705Y-13189222D02*
X4820182Y-13179698D01*
X4820182Y-13179698D02*
X4829705Y-13170174D01*
X4829705Y-13170174D02*
X4829705Y-13189222D01*
D12*
X3167500Y-13607500D02*
X3197500Y-13637500D01*
X3197500Y-13607500D02*
X3167500Y-13637500D01*
D11*
X3496372Y-13513984D02*
X3515420Y-13513984D01*
X3515420Y-13513984D02*
X3534467Y-13523508D01*
X3534467Y-13523508D02*
X3543991Y-13533031D01*
X3543991Y-13533031D02*
X3553515Y-13552079D01*
X3553515Y-13552079D02*
X3563039Y-13590174D01*
X3563039Y-13590174D02*
X3563039Y-13637793D01*
X3563039Y-13637793D02*
X3553515Y-13675888D01*
X3553515Y-13675888D02*
X3543991Y-13694936D01*
X3543991Y-13694936D02*
X3534467Y-13704460D01*
X3534467Y-13704460D02*
X3515420Y-13713984D01*
X3515420Y-13713984D02*
X3496372Y-13713984D01*
X3496372Y-13713984D02*
X3477324Y-13704460D01*
X3477324Y-13704460D02*
X3467801Y-13694936D01*
X3467801Y-13694936D02*
X3458277Y-13675888D01*
X3458277Y-13675888D02*
X3448753Y-13637793D01*
X3448753Y-13637793D02*
X3448753Y-13590174D01*
X3448753Y-13590174D02*
X3458277Y-13552079D01*
X3458277Y-13552079D02*
X3467801Y-13533031D01*
X3467801Y-13533031D02*
X3477324Y-13523508D01*
X3477324Y-13523508D02*
X3496372Y-13513984D01*
X3648753Y-13694936D02*
X3658277Y-13704460D01*
X3658277Y-13704460D02*
X3648753Y-13713984D01*
X3648753Y-13713984D02*
X3639229Y-13704460D01*
X3639229Y-13704460D02*
X3648753Y-13694936D01*
X3648753Y-13694936D02*
X3648753Y-13713984D01*
X3724943Y-13513984D02*
X3848753Y-13513984D01*
X3848753Y-13513984D02*
X3782086Y-13590174D01*
X3782086Y-13590174D02*
X3810658Y-13590174D01*
X3810658Y-13590174D02*
X3829705Y-13599698D01*
X3829705Y-13599698D02*
X3839229Y-13609222D01*
X3839229Y-13609222D02*
X3848753Y-13628269D01*
X3848753Y-13628269D02*
X3848753Y-13675888D01*
X3848753Y-13675888D02*
X3839229Y-13694936D01*
X3839229Y-13694936D02*
X3829705Y-13704460D01*
X3829705Y-13704460D02*
X3810658Y-13713984D01*
X3810658Y-13713984D02*
X3753515Y-13713984D01*
X3753515Y-13713984D02*
X3734467Y-13704460D01*
X3734467Y-13704460D02*
X3724943Y-13694936D01*
X3972562Y-13513984D02*
X3991610Y-13513984D01*
X3991610Y-13513984D02*
X4010658Y-13523508D01*
X4010658Y-13523508D02*
X4020182Y-13533031D01*
X4020182Y-13533031D02*
X4029705Y-13552079D01*
X4029705Y-13552079D02*
X4039229Y-13590174D01*
X4039229Y-13590174D02*
X4039229Y-13637793D01*
X4039229Y-13637793D02*
X4029705Y-13675888D01*
X4029705Y-13675888D02*
X4020182Y-13694936D01*
X4020182Y-13694936D02*
X4010658Y-13704460D01*
X4010658Y-13704460D02*
X3991610Y-13713984D01*
X3991610Y-13713984D02*
X3972562Y-13713984D01*
X3972562Y-13713984D02*
X3953515Y-13704460D01*
X3953515Y-13704460D02*
X3943991Y-13694936D01*
X3943991Y-13694936D02*
X3934467Y-13675888D01*
X3934467Y-13675888D02*
X3924943Y-13637793D01*
X3924943Y-13637793D02*
X3924943Y-13590174D01*
X3924943Y-13590174D02*
X3934467Y-13552079D01*
X3934467Y-13552079D02*
X3943991Y-13533031D01*
X3943991Y-13533031D02*
X3953515Y-13523508D01*
X3953515Y-13523508D02*
X3972562Y-13513984D01*
X4163039Y-13513984D02*
X4182086Y-13513984D01*
X4182086Y-13513984D02*
X4201134Y-13523508D01*
X4201134Y-13523508D02*
X4210658Y-13533031D01*
X4210658Y-13533031D02*
X4220182Y-13552079D01*
X4220182Y-13552079D02*
X4229705Y-13590174D01*
X4229705Y-13590174D02*
X4229705Y-13637793D01*
X4229705Y-13637793D02*
X4220182Y-13675888D01*
X4220182Y-13675888D02*
X4210658Y-13694936D01*
X4210658Y-13694936D02*
X4201134Y-13704460D01*
X4201134Y-13704460D02*
X4182086Y-13713984D01*
X4182086Y-13713984D02*
X4163039Y-13713984D01*
X4163039Y-13713984D02*
X4143991Y-13704460D01*
X4143991Y-13704460D02*
X4134467Y-13694936D01*
X4134467Y-13694936D02*
X4124943Y-13675888D01*
X4124943Y-13675888D02*
X4115420Y-13637793D01*
X4115420Y-13637793D02*
X4115420Y-13590174D01*
X4115420Y-13590174D02*
X4124943Y-13552079D01*
X4124943Y-13552079D02*
X4134467Y-13533031D01*
X4134467Y-13533031D02*
X4143991Y-13523508D01*
X4143991Y-13523508D02*
X4163039Y-13513984D01*
X4315420Y-13713984D02*
X4315420Y-13580650D01*
X4315420Y-13599698D02*
X4324944Y-13590174D01*
X4324944Y-13590174D02*
X4343991Y-13580650D01*
X4343991Y-13580650D02*
X4372563Y-13580650D01*
X4372563Y-13580650D02*
X4391610Y-13590174D01*
X4391610Y-13590174D02*
X4401134Y-13609222D01*
X4401134Y-13609222D02*
X4401134Y-13713984D01*
X4401134Y-13609222D02*
X4410658Y-13590174D01*
X4410658Y-13590174D02*
X4429705Y-13580650D01*
X4429705Y-13580650D02*
X4458277Y-13580650D01*
X4458277Y-13580650D02*
X4477325Y-13590174D01*
X4477325Y-13590174D02*
X4486848Y-13609222D01*
X4486848Y-13609222D02*
X4486848Y-13713984D01*
X4582086Y-13713984D02*
X4582086Y-13580650D01*
X4582086Y-13599698D02*
X4591610Y-13590174D01*
X4591610Y-13590174D02*
X4610658Y-13580650D01*
X4610658Y-13580650D02*
X4639229Y-13580650D01*
X4639229Y-13580650D02*
X4658277Y-13590174D01*
X4658277Y-13590174D02*
X4667801Y-13609222D01*
X4667801Y-13609222D02*
X4667801Y-13713984D01*
X4667801Y-13609222D02*
X4677325Y-13590174D01*
X4677325Y-13590174D02*
X4696372Y-13580650D01*
X4696372Y-13580650D02*
X4724944Y-13580650D01*
X4724944Y-13580650D02*
X4743991Y-13590174D01*
X4743991Y-13590174D02*
X4753515Y-13609222D01*
X4753515Y-13609222D02*
X4753515Y-13713984D01*
X5143991Y-13504460D02*
X4972563Y-13761603D01*
X5401134Y-13513984D02*
X5420182Y-13513984D01*
X5420182Y-13513984D02*
X5439229Y-13523508D01*
X5439229Y-13523508D02*
X5448753Y-13533031D01*
X5448753Y-13533031D02*
X5458277Y-13552079D01*
X5458277Y-13552079D02*
X5467801Y-13590174D01*
X5467801Y-13590174D02*
X5467801Y-13637793D01*
X5467801Y-13637793D02*
X5458277Y-13675888D01*
X5458277Y-13675888D02*
X5448753Y-13694936D01*
X5448753Y-13694936D02*
X5439229Y-13704460D01*
X5439229Y-13704460D02*
X5420182Y-13713984D01*
X5420182Y-13713984D02*
X5401134Y-13713984D01*
X5401134Y-13713984D02*
X5382087Y-13704460D01*
X5382087Y-13704460D02*
X5372563Y-13694936D01*
X5372563Y-13694936D02*
X5363039Y-13675888D01*
X5363039Y-13675888D02*
X5353515Y-13637793D01*
X5353515Y-13637793D02*
X5353515Y-13590174D01*
X5353515Y-13590174D02*
X5363039Y-13552079D01*
X5363039Y-13552079D02*
X5372563Y-13533031D01*
X5372563Y-13533031D02*
X5382087Y-13523508D01*
X5382087Y-13523508D02*
X5401134Y-13513984D01*
X5553515Y-13694936D02*
X5563039Y-13704460D01*
X5563039Y-13704460D02*
X5553515Y-13713984D01*
X5553515Y-13713984D02*
X5543991Y-13704460D01*
X5543991Y-13704460D02*
X5553515Y-13694936D01*
X5553515Y-13694936D02*
X5553515Y-13713984D01*
X5686848Y-13513984D02*
X5705896Y-13513984D01*
X5705896Y-13513984D02*
X5724944Y-13523508D01*
X5724944Y-13523508D02*
X5734467Y-13533031D01*
X5734467Y-13533031D02*
X5743991Y-13552079D01*
X5743991Y-13552079D02*
X5753515Y-13590174D01*
X5753515Y-13590174D02*
X5753515Y-13637793D01*
X5753515Y-13637793D02*
X5743991Y-13675888D01*
X5743991Y-13675888D02*
X5734467Y-13694936D01*
X5734467Y-13694936D02*
X5724944Y-13704460D01*
X5724944Y-13704460D02*
X5705896Y-13713984D01*
X5705896Y-13713984D02*
X5686848Y-13713984D01*
X5686848Y-13713984D02*
X5667801Y-13704460D01*
X5667801Y-13704460D02*
X5658277Y-13694936D01*
X5658277Y-13694936D02*
X5648753Y-13675888D01*
X5648753Y-13675888D02*
X5639229Y-13637793D01*
X5639229Y-13637793D02*
X5639229Y-13590174D01*
X5639229Y-13590174D02*
X5648753Y-13552079D01*
X5648753Y-13552079D02*
X5658277Y-13533031D01*
X5658277Y-13533031D02*
X5667801Y-13523508D01*
X5667801Y-13523508D02*
X5686848Y-13513984D01*
X5943991Y-13713984D02*
X5829706Y-13713984D01*
X5886848Y-13713984D02*
X5886848Y-13513984D01*
X5886848Y-13513984D02*
X5867801Y-13542555D01*
X5867801Y-13542555D02*
X5848753Y-13561603D01*
X5848753Y-13561603D02*
X5829706Y-13571127D01*
X6134467Y-13713984D02*
X6020182Y-13713984D01*
X6077325Y-13713984D02*
X6077325Y-13513984D01*
X6077325Y-13513984D02*
X6058277Y-13542555D01*
X6058277Y-13542555D02*
X6039229Y-13561603D01*
X6039229Y-13561603D02*
X6020182Y-13571127D01*
X6248753Y-13599698D02*
X6229706Y-13590174D01*
X6229706Y-13590174D02*
X6220182Y-13580650D01*
X6220182Y-13580650D02*
X6210658Y-13561603D01*
X6210658Y-13561603D02*
X6210658Y-13552079D01*
X6210658Y-13552079D02*
X6220182Y-13533031D01*
X6220182Y-13533031D02*
X6229706Y-13523508D01*
X6229706Y-13523508D02*
X6248753Y-13513984D01*
X6248753Y-13513984D02*
X6286848Y-13513984D01*
X6286848Y-13513984D02*
X6305896Y-13523508D01*
X6305896Y-13523508D02*
X6315420Y-13533031D01*
X6315420Y-13533031D02*
X6324944Y-13552079D01*
X6324944Y-13552079D02*
X6324944Y-13561603D01*
X6324944Y-13561603D02*
X6315420Y-13580650D01*
X6315420Y-13580650D02*
X6305896Y-13590174D01*
X6305896Y-13590174D02*
X6286848Y-13599698D01*
X6286848Y-13599698D02*
X6248753Y-13599698D01*
X6248753Y-13599698D02*
X6229706Y-13609222D01*
X6229706Y-13609222D02*
X6220182Y-13618746D01*
X6220182Y-13618746D02*
X6210658Y-13637793D01*
X6210658Y-13637793D02*
X6210658Y-13675888D01*
X6210658Y-13675888D02*
X6220182Y-13694936D01*
X6220182Y-13694936D02*
X6229706Y-13704460D01*
X6229706Y-13704460D02*
X6248753Y-13713984D01*
X6248753Y-13713984D02*
X6286848Y-13713984D01*
X6286848Y-13713984D02*
X6305896Y-13704460D01*
X6305896Y-13704460D02*
X6315420Y-13694936D01*
X6315420Y-13694936D02*
X6324944Y-13675888D01*
X6324944Y-13675888D02*
X6324944Y-13637793D01*
X6324944Y-13637793D02*
X6315420Y-13618746D01*
X6315420Y-13618746D02*
X6305896Y-13609222D01*
X6305896Y-13609222D02*
X6286848Y-13599698D01*
X6401134Y-13513984D02*
X6401134Y-13552079D01*
X6477325Y-13513984D02*
X6477325Y-13552079D01*
X6772563Y-13790174D02*
X6763039Y-13780650D01*
X6763039Y-13780650D02*
X6743991Y-13752079D01*
X6743991Y-13752079D02*
X6734468Y-13733031D01*
X6734468Y-13733031D02*
X6724944Y-13704460D01*
X6724944Y-13704460D02*
X6715420Y-13656841D01*
X6715420Y-13656841D02*
X6715420Y-13618746D01*
X6715420Y-13618746D02*
X6724944Y-13571127D01*
X6724944Y-13571127D02*
X6734468Y-13542555D01*
X6734468Y-13542555D02*
X6743991Y-13523508D01*
X6743991Y-13523508D02*
X6763039Y-13494936D01*
X6763039Y-13494936D02*
X6772563Y-13485412D01*
X6953515Y-13713984D02*
X6839229Y-13713984D01*
X6896372Y-13713984D02*
X6896372Y-13513984D01*
X6896372Y-13513984D02*
X6877325Y-13542555D01*
X6877325Y-13542555D02*
X6858277Y-13561603D01*
X6858277Y-13561603D02*
X6839229Y-13571127D01*
X7143991Y-13713984D02*
X7029706Y-13713984D01*
X7086848Y-13713984D02*
X7086848Y-13513984D01*
X7086848Y-13513984D02*
X7067801Y-13542555D01*
X7067801Y-13542555D02*
X7048753Y-13561603D01*
X7048753Y-13561603D02*
X7029706Y-13571127D01*
X7267801Y-13513984D02*
X7286849Y-13513984D01*
X7286849Y-13513984D02*
X7305896Y-13523508D01*
X7305896Y-13523508D02*
X7315420Y-13533031D01*
X7315420Y-13533031D02*
X7324944Y-13552079D01*
X7324944Y-13552079D02*
X7334468Y-13590174D01*
X7334468Y-13590174D02*
X7334468Y-13637793D01*
X7334468Y-13637793D02*
X7324944Y-13675888D01*
X7324944Y-13675888D02*
X7315420Y-13694936D01*
X7315420Y-13694936D02*
X7305896Y-13704460D01*
X7305896Y-13704460D02*
X7286849Y-13713984D01*
X7286849Y-13713984D02*
X7267801Y-13713984D01*
X7267801Y-13713984D02*
X7248753Y-13704460D01*
X7248753Y-13704460D02*
X7239229Y-13694936D01*
X7239229Y-13694936D02*
X7229706Y-13675888D01*
X7229706Y-13675888D02*
X7220182Y-13637793D01*
X7220182Y-13637793D02*
X7220182Y-13590174D01*
X7220182Y-13590174D02*
X7229706Y-13552079D01*
X7229706Y-13552079D02*
X7239229Y-13533031D01*
X7239229Y-13533031D02*
X7248753Y-13523508D01*
X7248753Y-13523508D02*
X7267801Y-13513984D01*
X7572563Y-13713984D02*
X7572563Y-13513984D01*
X7658277Y-13713984D02*
X7658277Y-13609222D01*
X7658277Y-13609222D02*
X7648753Y-13590174D01*
X7648753Y-13590174D02*
X7629706Y-13580650D01*
X7629706Y-13580650D02*
X7601134Y-13580650D01*
X7601134Y-13580650D02*
X7582087Y-13590174D01*
X7582087Y-13590174D02*
X7572563Y-13599698D01*
X7782087Y-13713984D02*
X7763039Y-13704460D01*
X7763039Y-13704460D02*
X7753515Y-13694936D01*
X7753515Y-13694936D02*
X7743991Y-13675888D01*
X7743991Y-13675888D02*
X7743991Y-13618746D01*
X7743991Y-13618746D02*
X7753515Y-13599698D01*
X7753515Y-13599698D02*
X7763039Y-13590174D01*
X7763039Y-13590174D02*
X7782087Y-13580650D01*
X7782087Y-13580650D02*
X7810658Y-13580650D01*
X7810658Y-13580650D02*
X7829706Y-13590174D01*
X7829706Y-13590174D02*
X7839230Y-13599698D01*
X7839230Y-13599698D02*
X7848753Y-13618746D01*
X7848753Y-13618746D02*
X7848753Y-13675888D01*
X7848753Y-13675888D02*
X7839230Y-13694936D01*
X7839230Y-13694936D02*
X7829706Y-13704460D01*
X7829706Y-13704460D02*
X7810658Y-13713984D01*
X7810658Y-13713984D02*
X7782087Y-13713984D01*
X7963039Y-13713984D02*
X7943991Y-13704460D01*
X7943991Y-13704460D02*
X7934468Y-13685412D01*
X7934468Y-13685412D02*
X7934468Y-13513984D01*
X8115420Y-13704460D02*
X8096372Y-13713984D01*
X8096372Y-13713984D02*
X8058277Y-13713984D01*
X8058277Y-13713984D02*
X8039230Y-13704460D01*
X8039230Y-13704460D02*
X8029706Y-13685412D01*
X8029706Y-13685412D02*
X8029706Y-13609222D01*
X8029706Y-13609222D02*
X8039230Y-13590174D01*
X8039230Y-13590174D02*
X8058277Y-13580650D01*
X8058277Y-13580650D02*
X8096372Y-13580650D01*
X8096372Y-13580650D02*
X8115420Y-13590174D01*
X8115420Y-13590174D02*
X8124944Y-13609222D01*
X8124944Y-13609222D02*
X8124944Y-13628269D01*
X8124944Y-13628269D02*
X8029706Y-13647317D01*
X8201134Y-13704460D02*
X8220182Y-13713984D01*
X8220182Y-13713984D02*
X8258277Y-13713984D01*
X8258277Y-13713984D02*
X8277325Y-13704460D01*
X8277325Y-13704460D02*
X8286849Y-13685412D01*
X8286849Y-13685412D02*
X8286849Y-13675888D01*
X8286849Y-13675888D02*
X8277325Y-13656841D01*
X8277325Y-13656841D02*
X8258277Y-13647317D01*
X8258277Y-13647317D02*
X8229706Y-13647317D01*
X8229706Y-13647317D02*
X8210658Y-13637793D01*
X8210658Y-13637793D02*
X8201134Y-13618746D01*
X8201134Y-13618746D02*
X8201134Y-13609222D01*
X8201134Y-13609222D02*
X8210658Y-13590174D01*
X8210658Y-13590174D02*
X8229706Y-13580650D01*
X8229706Y-13580650D02*
X8258277Y-13580650D01*
X8258277Y-13580650D02*
X8277325Y-13590174D01*
X8353515Y-13790174D02*
X8363039Y-13780650D01*
X8363039Y-13780650D02*
X8382087Y-13752079D01*
X8382087Y-13752079D02*
X8391611Y-13733031D01*
X8391611Y-13733031D02*
X8401134Y-13704460D01*
X8401134Y-13704460D02*
X8410658Y-13656841D01*
X8410658Y-13656841D02*
X8410658Y-13618746D01*
X8410658Y-13618746D02*
X8401134Y-13571127D01*
X8401134Y-13571127D02*
X8391611Y-13542555D01*
X8391611Y-13542555D02*
X8382087Y-13523508D01*
X8382087Y-13523508D02*
X8363039Y-13494936D01*
X8363039Y-13494936D02*
X8353515Y-13485412D01*
D13*
X3197500Y-13886500D02*
G75*
G02*
X3037500Y-13886500I-80000J0D01*
G01*
X3037500Y-13886500D02*
G75*
G02*
X3197500Y-13886500I80000J0D01*
G01*
D11*
X3563039Y-13977984D02*
X3448753Y-13977984D01*
X3505896Y-13977984D02*
X3505896Y-13777984D01*
X3505896Y-13777984D02*
X3486848Y-13806555D01*
X3486848Y-13806555D02*
X3467801Y-13825603D01*
X3467801Y-13825603D02*
X3448753Y-13835127D01*
X3648753Y-13958936D02*
X3658277Y-13968460D01*
X3658277Y-13968460D02*
X3648753Y-13977984D01*
X3648753Y-13977984D02*
X3639229Y-13968460D01*
X3639229Y-13968460D02*
X3648753Y-13958936D01*
X3648753Y-13958936D02*
X3648753Y-13977984D01*
X3829705Y-13777984D02*
X3791610Y-13777984D01*
X3791610Y-13777984D02*
X3772562Y-13787508D01*
X3772562Y-13787508D02*
X3763039Y-13797031D01*
X3763039Y-13797031D02*
X3743991Y-13825603D01*
X3743991Y-13825603D02*
X3734467Y-13863698D01*
X3734467Y-13863698D02*
X3734467Y-13939888D01*
X3734467Y-13939888D02*
X3743991Y-13958936D01*
X3743991Y-13958936D02*
X3753515Y-13968460D01*
X3753515Y-13968460D02*
X3772562Y-13977984D01*
X3772562Y-13977984D02*
X3810658Y-13977984D01*
X3810658Y-13977984D02*
X3829705Y-13968460D01*
X3829705Y-13968460D02*
X3839229Y-13958936D01*
X3839229Y-13958936D02*
X3848753Y-13939888D01*
X3848753Y-13939888D02*
X3848753Y-13892269D01*
X3848753Y-13892269D02*
X3839229Y-13873222D01*
X3839229Y-13873222D02*
X3829705Y-13863698D01*
X3829705Y-13863698D02*
X3810658Y-13854174D01*
X3810658Y-13854174D02*
X3772562Y-13854174D01*
X3772562Y-13854174D02*
X3753515Y-13863698D01*
X3753515Y-13863698D02*
X3743991Y-13873222D01*
X3743991Y-13873222D02*
X3734467Y-13892269D01*
X3972562Y-13777984D02*
X3991610Y-13777984D01*
X3991610Y-13777984D02*
X4010658Y-13787508D01*
X4010658Y-13787508D02*
X4020182Y-13797031D01*
X4020182Y-13797031D02*
X4029705Y-13816079D01*
X4029705Y-13816079D02*
X4039229Y-13854174D01*
X4039229Y-13854174D02*
X4039229Y-13901793D01*
X4039229Y-13901793D02*
X4029705Y-13939888D01*
X4029705Y-13939888D02*
X4020182Y-13958936D01*
X4020182Y-13958936D02*
X4010658Y-13968460D01*
X4010658Y-13968460D02*
X3991610Y-13977984D01*
X3991610Y-13977984D02*
X3972562Y-13977984D01*
X3972562Y-13977984D02*
X3953515Y-13968460D01*
X3953515Y-13968460D02*
X3943991Y-13958936D01*
X3943991Y-13958936D02*
X3934467Y-13939888D01*
X3934467Y-13939888D02*
X3924943Y-13901793D01*
X3924943Y-13901793D02*
X3924943Y-13854174D01*
X3924943Y-13854174D02*
X3934467Y-13816079D01*
X3934467Y-13816079D02*
X3943991Y-13797031D01*
X3943991Y-13797031D02*
X3953515Y-13787508D01*
X3953515Y-13787508D02*
X3972562Y-13777984D01*
X4163039Y-13777984D02*
X4182086Y-13777984D01*
X4182086Y-13777984D02*
X4201134Y-13787508D01*
X4201134Y-13787508D02*
X4210658Y-13797031D01*
X4210658Y-13797031D02*
X4220182Y-13816079D01*
X4220182Y-13816079D02*
X4229705Y-13854174D01*
X4229705Y-13854174D02*
X4229705Y-13901793D01*
X4229705Y-13901793D02*
X4220182Y-13939888D01*
X4220182Y-13939888D02*
X4210658Y-13958936D01*
X4210658Y-13958936D02*
X4201134Y-13968460D01*
X4201134Y-13968460D02*
X4182086Y-13977984D01*
X4182086Y-13977984D02*
X4163039Y-13977984D01*
X4163039Y-13977984D02*
X4143991Y-13968460D01*
X4143991Y-13968460D02*
X4134467Y-13958936D01*
X4134467Y-13958936D02*
X4124943Y-13939888D01*
X4124943Y-13939888D02*
X4115420Y-13901793D01*
X4115420Y-13901793D02*
X4115420Y-13854174D01*
X4115420Y-13854174D02*
X4124943Y-13816079D01*
X4124943Y-13816079D02*
X4134467Y-13797031D01*
X4134467Y-13797031D02*
X4143991Y-13787508D01*
X4143991Y-13787508D02*
X4163039Y-13777984D01*
X4315420Y-13977984D02*
X4315420Y-13844650D01*
X4315420Y-13863698D02*
X4324944Y-13854174D01*
X4324944Y-13854174D02*
X4343991Y-13844650D01*
X4343991Y-13844650D02*
X4372563Y-13844650D01*
X4372563Y-13844650D02*
X4391610Y-13854174D01*
X4391610Y-13854174D02*
X4401134Y-13873222D01*
X4401134Y-13873222D02*
X4401134Y-13977984D01*
X4401134Y-13873222D02*
X4410658Y-13854174D01*
X4410658Y-13854174D02*
X4429705Y-13844650D01*
X4429705Y-13844650D02*
X4458277Y-13844650D01*
X4458277Y-13844650D02*
X4477325Y-13854174D01*
X4477325Y-13854174D02*
X4486848Y-13873222D01*
X4486848Y-13873222D02*
X4486848Y-13977984D01*
X4582086Y-13977984D02*
X4582086Y-13844650D01*
X4582086Y-13863698D02*
X4591610Y-13854174D01*
X4591610Y-13854174D02*
X4610658Y-13844650D01*
X4610658Y-13844650D02*
X4639229Y-13844650D01*
X4639229Y-13844650D02*
X4658277Y-13854174D01*
X4658277Y-13854174D02*
X4667801Y-13873222D01*
X4667801Y-13873222D02*
X4667801Y-13977984D01*
X4667801Y-13873222D02*
X4677325Y-13854174D01*
X4677325Y-13854174D02*
X4696372Y-13844650D01*
X4696372Y-13844650D02*
X4724944Y-13844650D01*
X4724944Y-13844650D02*
X4743991Y-13854174D01*
X4743991Y-13854174D02*
X4753515Y-13873222D01*
X4753515Y-13873222D02*
X4753515Y-13977984D01*
X5143991Y-13768460D02*
X4972563Y-14025603D01*
X5401134Y-13777984D02*
X5420182Y-13777984D01*
X5420182Y-13777984D02*
X5439229Y-13787508D01*
X5439229Y-13787508D02*
X5448753Y-13797031D01*
X5448753Y-13797031D02*
X5458277Y-13816079D01*
X5458277Y-13816079D02*
X5467801Y-13854174D01*
X5467801Y-13854174D02*
X5467801Y-13901793D01*
X5467801Y-13901793D02*
X5458277Y-13939888D01*
X5458277Y-13939888D02*
X5448753Y-13958936D01*
X5448753Y-13958936D02*
X5439229Y-13968460D01*
X5439229Y-13968460D02*
X5420182Y-13977984D01*
X5420182Y-13977984D02*
X5401134Y-13977984D01*
X5401134Y-13977984D02*
X5382087Y-13968460D01*
X5382087Y-13968460D02*
X5372563Y-13958936D01*
X5372563Y-13958936D02*
X5363039Y-13939888D01*
X5363039Y-13939888D02*
X5353515Y-13901793D01*
X5353515Y-13901793D02*
X5353515Y-13854174D01*
X5353515Y-13854174D02*
X5363039Y-13816079D01*
X5363039Y-13816079D02*
X5372563Y-13797031D01*
X5372563Y-13797031D02*
X5382087Y-13787508D01*
X5382087Y-13787508D02*
X5401134Y-13777984D01*
X5553515Y-13958936D02*
X5563039Y-13968460D01*
X5563039Y-13968460D02*
X5553515Y-13977984D01*
X5553515Y-13977984D02*
X5543991Y-13968460D01*
X5543991Y-13968460D02*
X5553515Y-13958936D01*
X5553515Y-13958936D02*
X5553515Y-13977984D01*
X5686848Y-13777984D02*
X5705896Y-13777984D01*
X5705896Y-13777984D02*
X5724944Y-13787508D01*
X5724944Y-13787508D02*
X5734467Y-13797031D01*
X5734467Y-13797031D02*
X5743991Y-13816079D01*
X5743991Y-13816079D02*
X5753515Y-13854174D01*
X5753515Y-13854174D02*
X5753515Y-13901793D01*
X5753515Y-13901793D02*
X5743991Y-13939888D01*
X5743991Y-13939888D02*
X5734467Y-13958936D01*
X5734467Y-13958936D02*
X5724944Y-13968460D01*
X5724944Y-13968460D02*
X5705896Y-13977984D01*
X5705896Y-13977984D02*
X5686848Y-13977984D01*
X5686848Y-13977984D02*
X5667801Y-13968460D01*
X5667801Y-13968460D02*
X5658277Y-13958936D01*
X5658277Y-13958936D02*
X5648753Y-13939888D01*
X5648753Y-13939888D02*
X5639229Y-13901793D01*
X5639229Y-13901793D02*
X5639229Y-13854174D01*
X5639229Y-13854174D02*
X5648753Y-13816079D01*
X5648753Y-13816079D02*
X5658277Y-13797031D01*
X5658277Y-13797031D02*
X5667801Y-13787508D01*
X5667801Y-13787508D02*
X5686848Y-13777984D01*
X5924944Y-13777984D02*
X5886848Y-13777984D01*
X5886848Y-13777984D02*
X5867801Y-13787508D01*
X5867801Y-13787508D02*
X5858277Y-13797031D01*
X5858277Y-13797031D02*
X5839229Y-13825603D01*
X5839229Y-13825603D02*
X5829706Y-13863698D01*
X5829706Y-13863698D02*
X5829706Y-13939888D01*
X5829706Y-13939888D02*
X5839229Y-13958936D01*
X5839229Y-13958936D02*
X5848753Y-13968460D01*
X5848753Y-13968460D02*
X5867801Y-13977984D01*
X5867801Y-13977984D02*
X5905896Y-13977984D01*
X5905896Y-13977984D02*
X5924944Y-13968460D01*
X5924944Y-13968460D02*
X5934467Y-13958936D01*
X5934467Y-13958936D02*
X5943991Y-13939888D01*
X5943991Y-13939888D02*
X5943991Y-13892269D01*
X5943991Y-13892269D02*
X5934467Y-13873222D01*
X5934467Y-13873222D02*
X5924944Y-13863698D01*
X5924944Y-13863698D02*
X5905896Y-13854174D01*
X5905896Y-13854174D02*
X5867801Y-13854174D01*
X5867801Y-13854174D02*
X5848753Y-13863698D01*
X5848753Y-13863698D02*
X5839229Y-13873222D01*
X5839229Y-13873222D02*
X5829706Y-13892269D01*
X6010658Y-13777984D02*
X6134467Y-13777984D01*
X6134467Y-13777984D02*
X6067801Y-13854174D01*
X6067801Y-13854174D02*
X6096372Y-13854174D01*
X6096372Y-13854174D02*
X6115420Y-13863698D01*
X6115420Y-13863698D02*
X6124944Y-13873222D01*
X6124944Y-13873222D02*
X6134467Y-13892269D01*
X6134467Y-13892269D02*
X6134467Y-13939888D01*
X6134467Y-13939888D02*
X6124944Y-13958936D01*
X6124944Y-13958936D02*
X6115420Y-13968460D01*
X6115420Y-13968460D02*
X6096372Y-13977984D01*
X6096372Y-13977984D02*
X6039229Y-13977984D01*
X6039229Y-13977984D02*
X6020182Y-13968460D01*
X6020182Y-13968460D02*
X6010658Y-13958936D01*
X6258277Y-13777984D02*
X6277325Y-13777984D01*
X6277325Y-13777984D02*
X6296372Y-13787508D01*
X6296372Y-13787508D02*
X6305896Y-13797031D01*
X6305896Y-13797031D02*
X6315420Y-13816079D01*
X6315420Y-13816079D02*
X6324944Y-13854174D01*
X6324944Y-13854174D02*
X6324944Y-13901793D01*
X6324944Y-13901793D02*
X6315420Y-13939888D01*
X6315420Y-13939888D02*
X6305896Y-13958936D01*
X6305896Y-13958936D02*
X6296372Y-13968460D01*
X6296372Y-13968460D02*
X6277325Y-13977984D01*
X6277325Y-13977984D02*
X6258277Y-13977984D01*
X6258277Y-13977984D02*
X6239229Y-13968460D01*
X6239229Y-13968460D02*
X6229706Y-13958936D01*
X6229706Y-13958936D02*
X6220182Y-13939888D01*
X6220182Y-13939888D02*
X6210658Y-13901793D01*
X6210658Y-13901793D02*
X6210658Y-13854174D01*
X6210658Y-13854174D02*
X6220182Y-13816079D01*
X6220182Y-13816079D02*
X6229706Y-13797031D01*
X6229706Y-13797031D02*
X6239229Y-13787508D01*
X6239229Y-13787508D02*
X6258277Y-13777984D01*
X6401134Y-13777984D02*
X6401134Y-13816079D01*
X6477325Y-13777984D02*
X6477325Y-13816079D01*
X6772563Y-14054174D02*
X6763039Y-14044650D01*
X6763039Y-14044650D02*
X6743991Y-14016079D01*
X6743991Y-14016079D02*
X6734468Y-13997031D01*
X6734468Y-13997031D02*
X6724944Y-13968460D01*
X6724944Y-13968460D02*
X6715420Y-13920841D01*
X6715420Y-13920841D02*
X6715420Y-13882746D01*
X6715420Y-13882746D02*
X6724944Y-13835127D01*
X6724944Y-13835127D02*
X6734468Y-13806555D01*
X6734468Y-13806555D02*
X6743991Y-13787508D01*
X6743991Y-13787508D02*
X6763039Y-13758936D01*
X6763039Y-13758936D02*
X6772563Y-13749412D01*
X6839229Y-13797031D02*
X6848753Y-13787508D01*
X6848753Y-13787508D02*
X6867801Y-13777984D01*
X6867801Y-13777984D02*
X6915420Y-13777984D01*
X6915420Y-13777984D02*
X6934468Y-13787508D01*
X6934468Y-13787508D02*
X6943991Y-13797031D01*
X6943991Y-13797031D02*
X6953515Y-13816079D01*
X6953515Y-13816079D02*
X6953515Y-13835127D01*
X6953515Y-13835127D02*
X6943991Y-13863698D01*
X6943991Y-13863698D02*
X6829706Y-13977984D01*
X6829706Y-13977984D02*
X6953515Y-13977984D01*
X7077325Y-13777984D02*
X7096372Y-13777984D01*
X7096372Y-13777984D02*
X7115420Y-13787508D01*
X7115420Y-13787508D02*
X7124944Y-13797031D01*
X7124944Y-13797031D02*
X7134468Y-13816079D01*
X7134468Y-13816079D02*
X7143991Y-13854174D01*
X7143991Y-13854174D02*
X7143991Y-13901793D01*
X7143991Y-13901793D02*
X7134468Y-13939888D01*
X7134468Y-13939888D02*
X7124944Y-13958936D01*
X7124944Y-13958936D02*
X7115420Y-13968460D01*
X7115420Y-13968460D02*
X7096372Y-13977984D01*
X7096372Y-13977984D02*
X7077325Y-13977984D01*
X7077325Y-13977984D02*
X7058277Y-13968460D01*
X7058277Y-13968460D02*
X7048753Y-13958936D01*
X7048753Y-13958936D02*
X7039229Y-13939888D01*
X7039229Y-13939888D02*
X7029706Y-13901793D01*
X7029706Y-13901793D02*
X7029706Y-13854174D01*
X7029706Y-13854174D02*
X7039229Y-13816079D01*
X7039229Y-13816079D02*
X7048753Y-13797031D01*
X7048753Y-13797031D02*
X7058277Y-13787508D01*
X7058277Y-13787508D02*
X7077325Y-13777984D01*
X7382087Y-13977984D02*
X7382087Y-13777984D01*
X7467801Y-13977984D02*
X7467801Y-13873222D01*
X7467801Y-13873222D02*
X7458277Y-13854174D01*
X7458277Y-13854174D02*
X7439230Y-13844650D01*
X7439230Y-13844650D02*
X7410658Y-13844650D01*
X7410658Y-13844650D02*
X7391610Y-13854174D01*
X7391610Y-13854174D02*
X7382087Y-13863698D01*
X7591610Y-13977984D02*
X7572563Y-13968460D01*
X7572563Y-13968460D02*
X7563039Y-13958936D01*
X7563039Y-13958936D02*
X7553515Y-13939888D01*
X7553515Y-13939888D02*
X7553515Y-13882746D01*
X7553515Y-13882746D02*
X7563039Y-13863698D01*
X7563039Y-13863698D02*
X7572563Y-13854174D01*
X7572563Y-13854174D02*
X7591610Y-13844650D01*
X7591610Y-13844650D02*
X7620182Y-13844650D01*
X7620182Y-13844650D02*
X7639230Y-13854174D01*
X7639230Y-13854174D02*
X7648753Y-13863698D01*
X7648753Y-13863698D02*
X7658277Y-13882746D01*
X7658277Y-13882746D02*
X7658277Y-13939888D01*
X7658277Y-13939888D02*
X7648753Y-13958936D01*
X7648753Y-13958936D02*
X7639230Y-13968460D01*
X7639230Y-13968460D02*
X7620182Y-13977984D01*
X7620182Y-13977984D02*
X7591610Y-13977984D01*
X7772563Y-13977984D02*
X7753515Y-13968460D01*
X7753515Y-13968460D02*
X7743991Y-13949412D01*
X7743991Y-13949412D02*
X7743991Y-13777984D01*
X7924944Y-13968460D02*
X7905896Y-13977984D01*
X7905896Y-13977984D02*
X7867801Y-13977984D01*
X7867801Y-13977984D02*
X7848753Y-13968460D01*
X7848753Y-13968460D02*
X7839230Y-13949412D01*
X7839230Y-13949412D02*
X7839230Y-13873222D01*
X7839230Y-13873222D02*
X7848753Y-13854174D01*
X7848753Y-13854174D02*
X7867801Y-13844650D01*
X7867801Y-13844650D02*
X7905896Y-13844650D01*
X7905896Y-13844650D02*
X7924944Y-13854174D01*
X7924944Y-13854174D02*
X7934468Y-13873222D01*
X7934468Y-13873222D02*
X7934468Y-13892269D01*
X7934468Y-13892269D02*
X7839230Y-13911317D01*
X8010658Y-13968460D02*
X8029706Y-13977984D01*
X8029706Y-13977984D02*
X8067801Y-13977984D01*
X8067801Y-13977984D02*
X8086849Y-13968460D01*
X8086849Y-13968460D02*
X8096372Y-13949412D01*
X8096372Y-13949412D02*
X8096372Y-13939888D01*
X8096372Y-13939888D02*
X8086849Y-13920841D01*
X8086849Y-13920841D02*
X8067801Y-13911317D01*
X8067801Y-13911317D02*
X8039230Y-13911317D01*
X8039230Y-13911317D02*
X8020182Y-13901793D01*
X8020182Y-13901793D02*
X8010658Y-13882746D01*
X8010658Y-13882746D02*
X8010658Y-13873222D01*
X8010658Y-13873222D02*
X8020182Y-13854174D01*
X8020182Y-13854174D02*
X8039230Y-13844650D01*
X8039230Y-13844650D02*
X8067801Y-13844650D01*
X8067801Y-13844650D02*
X8086849Y-13854174D01*
X8163039Y-14054174D02*
X8172563Y-14044650D01*
X8172563Y-14044650D02*
X8191611Y-14016079D01*
X8191611Y-14016079D02*
X8201134Y-13997031D01*
X8201134Y-13997031D02*
X8210658Y-13968460D01*
X8210658Y-13968460D02*
X8220182Y-13920841D01*
X8220182Y-13920841D02*
X8220182Y-13882746D01*
X8220182Y-13882746D02*
X8210658Y-13835127D01*
X8210658Y-13835127D02*
X8201134Y-13806555D01*
X8201134Y-13806555D02*
X8191611Y-13787508D01*
X8191611Y-13787508D02*
X8172563Y-13758936D01*
X8172563Y-13758936D02*
X8163039Y-13749412D01*
X3097500Y-14066500D02*
X3097500Y-14266500D01*
X2997500Y-14166500D02*
X3197500Y-14166500D01*
X3439229Y-14057984D02*
X3563039Y-14057984D01*
X3563039Y-14057984D02*
X3496372Y-14134174D01*
X3496372Y-14134174D02*
X3524943Y-14134174D01*
X3524943Y-14134174D02*
X3543991Y-14143698D01*
X3543991Y-14143698D02*
X3553515Y-14153222D01*
X3553515Y-14153222D02*
X3563039Y-14172269D01*
X3563039Y-14172269D02*
X3563039Y-14219888D01*
X3563039Y-14219888D02*
X3553515Y-14238936D01*
X3553515Y-14238936D02*
X3543991Y-14248460D01*
X3543991Y-14248460D02*
X3524943Y-14257984D01*
X3524943Y-14257984D02*
X3467801Y-14257984D01*
X3467801Y-14257984D02*
X3448753Y-14248460D01*
X3448753Y-14248460D02*
X3439229Y-14238936D01*
X3648753Y-14238936D02*
X3658277Y-14248460D01*
X3658277Y-14248460D02*
X3648753Y-14257984D01*
X3648753Y-14257984D02*
X3639229Y-14248460D01*
X3639229Y-14248460D02*
X3648753Y-14238936D01*
X3648753Y-14238936D02*
X3648753Y-14257984D01*
X3734467Y-14077031D02*
X3743991Y-14067508D01*
X3743991Y-14067508D02*
X3763039Y-14057984D01*
X3763039Y-14057984D02*
X3810658Y-14057984D01*
X3810658Y-14057984D02*
X3829705Y-14067508D01*
X3829705Y-14067508D02*
X3839229Y-14077031D01*
X3839229Y-14077031D02*
X3848753Y-14096079D01*
X3848753Y-14096079D02*
X3848753Y-14115127D01*
X3848753Y-14115127D02*
X3839229Y-14143698D01*
X3839229Y-14143698D02*
X3724943Y-14257984D01*
X3724943Y-14257984D02*
X3848753Y-14257984D01*
X3972562Y-14057984D02*
X3991610Y-14057984D01*
X3991610Y-14057984D02*
X4010658Y-14067508D01*
X4010658Y-14067508D02*
X4020182Y-14077031D01*
X4020182Y-14077031D02*
X4029705Y-14096079D01*
X4029705Y-14096079D02*
X4039229Y-14134174D01*
X4039229Y-14134174D02*
X4039229Y-14181793D01*
X4039229Y-14181793D02*
X4029705Y-14219888D01*
X4029705Y-14219888D02*
X4020182Y-14238936D01*
X4020182Y-14238936D02*
X4010658Y-14248460D01*
X4010658Y-14248460D02*
X3991610Y-14257984D01*
X3991610Y-14257984D02*
X3972562Y-14257984D01*
X3972562Y-14257984D02*
X3953515Y-14248460D01*
X3953515Y-14248460D02*
X3943991Y-14238936D01*
X3943991Y-14238936D02*
X3934467Y-14219888D01*
X3934467Y-14219888D02*
X3924943Y-14181793D01*
X3924943Y-14181793D02*
X3924943Y-14134174D01*
X3924943Y-14134174D02*
X3934467Y-14096079D01*
X3934467Y-14096079D02*
X3943991Y-14077031D01*
X3943991Y-14077031D02*
X3953515Y-14067508D01*
X3953515Y-14067508D02*
X3972562Y-14057984D01*
X4163039Y-14057984D02*
X4182086Y-14057984D01*
X4182086Y-14057984D02*
X4201134Y-14067508D01*
X4201134Y-14067508D02*
X4210658Y-14077031D01*
X4210658Y-14077031D02*
X4220182Y-14096079D01*
X4220182Y-14096079D02*
X4229705Y-14134174D01*
X4229705Y-14134174D02*
X4229705Y-14181793D01*
X4229705Y-14181793D02*
X4220182Y-14219888D01*
X4220182Y-14219888D02*
X4210658Y-14238936D01*
X4210658Y-14238936D02*
X4201134Y-14248460D01*
X4201134Y-14248460D02*
X4182086Y-14257984D01*
X4182086Y-14257984D02*
X4163039Y-14257984D01*
X4163039Y-14257984D02*
X4143991Y-14248460D01*
X4143991Y-14248460D02*
X4134467Y-14238936D01*
X4134467Y-14238936D02*
X4124943Y-14219888D01*
X4124943Y-14219888D02*
X4115420Y-14181793D01*
X4115420Y-14181793D02*
X4115420Y-14134174D01*
X4115420Y-14134174D02*
X4124943Y-14096079D01*
X4124943Y-14096079D02*
X4134467Y-14077031D01*
X4134467Y-14077031D02*
X4143991Y-14067508D01*
X4143991Y-14067508D02*
X4163039Y-14057984D01*
X4315420Y-14257984D02*
X4315420Y-14124650D01*
X4315420Y-14143698D02*
X4324944Y-14134174D01*
X4324944Y-14134174D02*
X4343991Y-14124650D01*
X4343991Y-14124650D02*
X4372563Y-14124650D01*
X4372563Y-14124650D02*
X4391610Y-14134174D01*
X4391610Y-14134174D02*
X4401134Y-14153222D01*
X4401134Y-14153222D02*
X4401134Y-14257984D01*
X4401134Y-14153222D02*
X4410658Y-14134174D01*
X4410658Y-14134174D02*
X4429705Y-14124650D01*
X4429705Y-14124650D02*
X4458277Y-14124650D01*
X4458277Y-14124650D02*
X4477325Y-14134174D01*
X4477325Y-14134174D02*
X4486848Y-14153222D01*
X4486848Y-14153222D02*
X4486848Y-14257984D01*
X4582086Y-14257984D02*
X4582086Y-14124650D01*
X4582086Y-14143698D02*
X4591610Y-14134174D01*
X4591610Y-14134174D02*
X4610658Y-14124650D01*
X4610658Y-14124650D02*
X4639229Y-14124650D01*
X4639229Y-14124650D02*
X4658277Y-14134174D01*
X4658277Y-14134174D02*
X4667801Y-14153222D01*
X4667801Y-14153222D02*
X4667801Y-14257984D01*
X4667801Y-14153222D02*
X4677325Y-14134174D01*
X4677325Y-14134174D02*
X4696372Y-14124650D01*
X4696372Y-14124650D02*
X4724944Y-14124650D01*
X4724944Y-14124650D02*
X4743991Y-14134174D01*
X4743991Y-14134174D02*
X4753515Y-14153222D01*
X4753515Y-14153222D02*
X4753515Y-14257984D01*
X5143991Y-14048460D02*
X4972563Y-14305603D01*
X5401134Y-14057984D02*
X5420182Y-14057984D01*
X5420182Y-14057984D02*
X5439229Y-14067508D01*
X5439229Y-14067508D02*
X5448753Y-14077031D01*
X5448753Y-14077031D02*
X5458277Y-14096079D01*
X5458277Y-14096079D02*
X5467801Y-14134174D01*
X5467801Y-14134174D02*
X5467801Y-14181793D01*
X5467801Y-14181793D02*
X5458277Y-14219888D01*
X5458277Y-14219888D02*
X5448753Y-14238936D01*
X5448753Y-14238936D02*
X5439229Y-14248460D01*
X5439229Y-14248460D02*
X5420182Y-14257984D01*
X5420182Y-14257984D02*
X5401134Y-14257984D01*
X5401134Y-14257984D02*
X5382087Y-14248460D01*
X5382087Y-14248460D02*
X5372563Y-14238936D01*
X5372563Y-14238936D02*
X5363039Y-14219888D01*
X5363039Y-14219888D02*
X5353515Y-14181793D01*
X5353515Y-14181793D02*
X5353515Y-14134174D01*
X5353515Y-14134174D02*
X5363039Y-14096079D01*
X5363039Y-14096079D02*
X5372563Y-14077031D01*
X5372563Y-14077031D02*
X5382087Y-14067508D01*
X5382087Y-14067508D02*
X5401134Y-14057984D01*
X5553515Y-14238936D02*
X5563039Y-14248460D01*
X5563039Y-14248460D02*
X5553515Y-14257984D01*
X5553515Y-14257984D02*
X5543991Y-14248460D01*
X5543991Y-14248460D02*
X5553515Y-14238936D01*
X5553515Y-14238936D02*
X5553515Y-14257984D01*
X5753515Y-14257984D02*
X5639229Y-14257984D01*
X5696372Y-14257984D02*
X5696372Y-14057984D01*
X5696372Y-14057984D02*
X5677325Y-14086555D01*
X5677325Y-14086555D02*
X5658277Y-14105603D01*
X5658277Y-14105603D02*
X5639229Y-14115127D01*
X5829706Y-14077031D02*
X5839229Y-14067508D01*
X5839229Y-14067508D02*
X5858277Y-14057984D01*
X5858277Y-14057984D02*
X5905896Y-14057984D01*
X5905896Y-14057984D02*
X5924944Y-14067508D01*
X5924944Y-14067508D02*
X5934467Y-14077031D01*
X5934467Y-14077031D02*
X5943991Y-14096079D01*
X5943991Y-14096079D02*
X5943991Y-14115127D01*
X5943991Y-14115127D02*
X5934467Y-14143698D01*
X5934467Y-14143698D02*
X5820182Y-14257984D01*
X5820182Y-14257984D02*
X5943991Y-14257984D01*
X6115420Y-14057984D02*
X6077325Y-14057984D01*
X6077325Y-14057984D02*
X6058277Y-14067508D01*
X6058277Y-14067508D02*
X6048753Y-14077031D01*
X6048753Y-14077031D02*
X6029706Y-14105603D01*
X6029706Y-14105603D02*
X6020182Y-14143698D01*
X6020182Y-14143698D02*
X6020182Y-14219888D01*
X6020182Y-14219888D02*
X6029706Y-14238936D01*
X6029706Y-14238936D02*
X6039229Y-14248460D01*
X6039229Y-14248460D02*
X6058277Y-14257984D01*
X6058277Y-14257984D02*
X6096372Y-14257984D01*
X6096372Y-14257984D02*
X6115420Y-14248460D01*
X6115420Y-14248460D02*
X6124944Y-14238936D01*
X6124944Y-14238936D02*
X6134467Y-14219888D01*
X6134467Y-14219888D02*
X6134467Y-14172269D01*
X6134467Y-14172269D02*
X6124944Y-14153222D01*
X6124944Y-14153222D02*
X6115420Y-14143698D01*
X6115420Y-14143698D02*
X6096372Y-14134174D01*
X6096372Y-14134174D02*
X6058277Y-14134174D01*
X6058277Y-14134174D02*
X6039229Y-14143698D01*
X6039229Y-14143698D02*
X6029706Y-14153222D01*
X6029706Y-14153222D02*
X6020182Y-14172269D01*
X6258277Y-14057984D02*
X6277325Y-14057984D01*
X6277325Y-14057984D02*
X6296372Y-14067508D01*
X6296372Y-14067508D02*
X6305896Y-14077031D01*
X6305896Y-14077031D02*
X6315420Y-14096079D01*
X6315420Y-14096079D02*
X6324944Y-14134174D01*
X6324944Y-14134174D02*
X6324944Y-14181793D01*
X6324944Y-14181793D02*
X6315420Y-14219888D01*
X6315420Y-14219888D02*
X6305896Y-14238936D01*
X6305896Y-14238936D02*
X6296372Y-14248460D01*
X6296372Y-14248460D02*
X6277325Y-14257984D01*
X6277325Y-14257984D02*
X6258277Y-14257984D01*
X6258277Y-14257984D02*
X6239229Y-14248460D01*
X6239229Y-14248460D02*
X6229706Y-14238936D01*
X6229706Y-14238936D02*
X6220182Y-14219888D01*
X6220182Y-14219888D02*
X6210658Y-14181793D01*
X6210658Y-14181793D02*
X6210658Y-14134174D01*
X6210658Y-14134174D02*
X6220182Y-14096079D01*
X6220182Y-14096079D02*
X6229706Y-14077031D01*
X6229706Y-14077031D02*
X6239229Y-14067508D01*
X6239229Y-14067508D02*
X6258277Y-14057984D01*
X6401134Y-14057984D02*
X6401134Y-14096079D01*
X6477325Y-14057984D02*
X6477325Y-14096079D01*
X6772563Y-14334174D02*
X6763039Y-14324650D01*
X6763039Y-14324650D02*
X6743991Y-14296079D01*
X6743991Y-14296079D02*
X6734468Y-14277031D01*
X6734468Y-14277031D02*
X6724944Y-14248460D01*
X6724944Y-14248460D02*
X6715420Y-14200841D01*
X6715420Y-14200841D02*
X6715420Y-14162746D01*
X6715420Y-14162746D02*
X6724944Y-14115127D01*
X6724944Y-14115127D02*
X6734468Y-14086555D01*
X6734468Y-14086555D02*
X6743991Y-14067508D01*
X6743991Y-14067508D02*
X6763039Y-14038936D01*
X6763039Y-14038936D02*
X6772563Y-14029412D01*
X6877325Y-14143698D02*
X6858277Y-14134174D01*
X6858277Y-14134174D02*
X6848753Y-14124650D01*
X6848753Y-14124650D02*
X6839229Y-14105603D01*
X6839229Y-14105603D02*
X6839229Y-14096079D01*
X6839229Y-14096079D02*
X6848753Y-14077031D01*
X6848753Y-14077031D02*
X6858277Y-14067508D01*
X6858277Y-14067508D02*
X6877325Y-14057984D01*
X6877325Y-14057984D02*
X6915420Y-14057984D01*
X6915420Y-14057984D02*
X6934468Y-14067508D01*
X6934468Y-14067508D02*
X6943991Y-14077031D01*
X6943991Y-14077031D02*
X6953515Y-14096079D01*
X6953515Y-14096079D02*
X6953515Y-14105603D01*
X6953515Y-14105603D02*
X6943991Y-14124650D01*
X6943991Y-14124650D02*
X6934468Y-14134174D01*
X6934468Y-14134174D02*
X6915420Y-14143698D01*
X6915420Y-14143698D02*
X6877325Y-14143698D01*
X6877325Y-14143698D02*
X6858277Y-14153222D01*
X6858277Y-14153222D02*
X6848753Y-14162746D01*
X6848753Y-14162746D02*
X6839229Y-14181793D01*
X6839229Y-14181793D02*
X6839229Y-14219888D01*
X6839229Y-14219888D02*
X6848753Y-14238936D01*
X6848753Y-14238936D02*
X6858277Y-14248460D01*
X6858277Y-14248460D02*
X6877325Y-14257984D01*
X6877325Y-14257984D02*
X6915420Y-14257984D01*
X6915420Y-14257984D02*
X6934468Y-14248460D01*
X6934468Y-14248460D02*
X6943991Y-14238936D01*
X6943991Y-14238936D02*
X6953515Y-14219888D01*
X6953515Y-14219888D02*
X6953515Y-14181793D01*
X6953515Y-14181793D02*
X6943991Y-14162746D01*
X6943991Y-14162746D02*
X6934468Y-14153222D01*
X6934468Y-14153222D02*
X6915420Y-14143698D01*
X7191610Y-14257984D02*
X7191610Y-14057984D01*
X7277325Y-14257984D02*
X7277325Y-14153222D01*
X7277325Y-14153222D02*
X7267801Y-14134174D01*
X7267801Y-14134174D02*
X7248753Y-14124650D01*
X7248753Y-14124650D02*
X7220182Y-14124650D01*
X7220182Y-14124650D02*
X7201134Y-14134174D01*
X7201134Y-14134174D02*
X7191610Y-14143698D01*
X7401134Y-14257984D02*
X7382087Y-14248460D01*
X7382087Y-14248460D02*
X7372563Y-14238936D01*
X7372563Y-14238936D02*
X7363039Y-14219888D01*
X7363039Y-14219888D02*
X7363039Y-14162746D01*
X7363039Y-14162746D02*
X7372563Y-14143698D01*
X7372563Y-14143698D02*
X7382087Y-14134174D01*
X7382087Y-14134174D02*
X7401134Y-14124650D01*
X7401134Y-14124650D02*
X7429706Y-14124650D01*
X7429706Y-14124650D02*
X7448753Y-14134174D01*
X7448753Y-14134174D02*
X7458277Y-14143698D01*
X7458277Y-14143698D02*
X7467801Y-14162746D01*
X7467801Y-14162746D02*
X7467801Y-14219888D01*
X7467801Y-14219888D02*
X7458277Y-14238936D01*
X7458277Y-14238936D02*
X7448753Y-14248460D01*
X7448753Y-14248460D02*
X7429706Y-14257984D01*
X7429706Y-14257984D02*
X7401134Y-14257984D01*
X7582087Y-14257984D02*
X7563039Y-14248460D01*
X7563039Y-14248460D02*
X7553515Y-14229412D01*
X7553515Y-14229412D02*
X7553515Y-14057984D01*
X7734468Y-14248460D02*
X7715420Y-14257984D01*
X7715420Y-14257984D02*
X7677325Y-14257984D01*
X7677325Y-14257984D02*
X7658277Y-14248460D01*
X7658277Y-14248460D02*
X7648753Y-14229412D01*
X7648753Y-14229412D02*
X7648753Y-14153222D01*
X7648753Y-14153222D02*
X7658277Y-14134174D01*
X7658277Y-14134174D02*
X7677325Y-14124650D01*
X7677325Y-14124650D02*
X7715420Y-14124650D01*
X7715420Y-14124650D02*
X7734468Y-14134174D01*
X7734468Y-14134174D02*
X7743991Y-14153222D01*
X7743991Y-14153222D02*
X7743991Y-14172269D01*
X7743991Y-14172269D02*
X7648753Y-14191317D01*
X7820182Y-14248460D02*
X7839230Y-14257984D01*
X7839230Y-14257984D02*
X7877325Y-14257984D01*
X7877325Y-14257984D02*
X7896372Y-14248460D01*
X7896372Y-14248460D02*
X7905896Y-14229412D01*
X7905896Y-14229412D02*
X7905896Y-14219888D01*
X7905896Y-14219888D02*
X7896372Y-14200841D01*
X7896372Y-14200841D02*
X7877325Y-14191317D01*
X7877325Y-14191317D02*
X7848753Y-14191317D01*
X7848753Y-14191317D02*
X7829706Y-14181793D01*
X7829706Y-14181793D02*
X7820182Y-14162746D01*
X7820182Y-14162746D02*
X7820182Y-14153222D01*
X7820182Y-14153222D02*
X7829706Y-14134174D01*
X7829706Y-14134174D02*
X7848753Y-14124650D01*
X7848753Y-14124650D02*
X7877325Y-14124650D01*
X7877325Y-14124650D02*
X7896372Y-14134174D01*
X7972563Y-14334174D02*
X7982087Y-14324650D01*
X7982087Y-14324650D02*
X8001134Y-14296079D01*
X8001134Y-14296079D02*
X8010658Y-14277031D01*
X8010658Y-14277031D02*
X8020182Y-14248460D01*
X8020182Y-14248460D02*
X8029706Y-14200841D01*
X8029706Y-14200841D02*
X8029706Y-14162746D01*
X8029706Y-14162746D02*
X8020182Y-14115127D01*
X8020182Y-14115127D02*
X8010658Y-14086555D01*
X8010658Y-14086555D02*
X8001134Y-14067508D01*
X8001134Y-14067508D02*
X7982087Y-14038936D01*
X7982087Y-14038936D02*
X7972563Y-14029412D01*
M02*
