%TF.GenerationSoftware,KiCad,Pcbnew,8.0.6-8.0.6-0~ubuntu24.04.1*%
%TF.CreationDate,2024-10-28T17:45:04+01:00*%
%TF.ProjectId,diplexer,6469706c-6578-4657-922e-6b696361645f,rev?*%
%TF.SameCoordinates,Original*%
%TF.FileFunction,Soldermask,Top*%
%TF.FilePolarity,Negative*%
%FSLAX46Y46*%
G04 Gerber Fmt 4.6, Leading zero omitted, Abs format (unit mm)*
G04 Created by KiCad (PCBNEW 8.0.6-8.0.6-0~ubuntu24.04.1) date 2024-10-28 17:45:04*
%MOMM*%
%LPD*%
G01*
G04 APERTURE LIST*
G04 Aperture macros list*
%AMRoundRect*
0 Rectangle with rounded corners*
0 $1 Rounding radius*
0 $2 $3 $4 $5 $6 $7 $8 $9 X,Y pos of 4 corners*
0 Add a 4 corners polygon primitive as box body*
4,1,4,$2,$3,$4,$5,$6,$7,$8,$9,$2,$3,0*
0 Add four circle primitives for the rounded corners*
1,1,$1+$1,$2,$3*
1,1,$1+$1,$4,$5*
1,1,$1+$1,$6,$7*
1,1,$1+$1,$8,$9*
0 Add four rect primitives between the rounded corners*
20,1,$1+$1,$2,$3,$4,$5,0*
20,1,$1+$1,$4,$5,$6,$7,0*
20,1,$1+$1,$6,$7,$8,$9,0*
20,1,$1+$1,$8,$9,$2,$3,0*%
G04 Aperture macros list end*
%ADD10RoundRect,0.102000X-1.590000X0.595000X-1.590000X-0.595000X1.590000X-0.595000X1.590000X0.595000X0*%
%ADD11C,3.000000*%
%ADD12RoundRect,0.102000X1.590000X-0.595000X1.590000X0.595000X-1.590000X0.595000X-1.590000X-0.595000X0*%
%ADD13C,5.600000*%
%ADD14R,5.000000X5.000000*%
%ADD15R,4.000000X4.000000*%
G04 APERTURE END LIST*
D10*
%TO.C,C17*%
X90400000Y-98678000D03*
X90400000Y-101500000D03*
%TD*%
D11*
%TO.C,L10*%
X45487500Y-98000000D03*
X60087500Y-98000000D03*
%TD*%
D12*
%TO.C,C6*%
X64775000Y-102686000D03*
X64775000Y-99864000D03*
%TD*%
D10*
%TO.C,C14*%
X124925000Y-66589000D03*
X124925000Y-69411000D03*
%TD*%
%TO.C,C4*%
X120500000Y-66529000D03*
X120500000Y-69351000D03*
%TD*%
D13*
%TO.C,J5*%
X36500000Y-47500000D03*
%TD*%
D10*
%TO.C,C19*%
X140175000Y-96678000D03*
X140175000Y-99500000D03*
%TD*%
D11*
%TO.C,L2*%
X77340000Y-57940000D03*
X91940000Y-57940000D03*
%TD*%
D14*
%TO.C,J3*%
X184000000Y-94850000D03*
X184000000Y-103960000D03*
X184000000Y-85750000D03*
%TD*%
D11*
%TO.C,L4*%
X126987500Y-57940000D03*
X141587500Y-57940000D03*
%TD*%
D15*
%TO.C,J2*%
X176500000Y-63890000D03*
X185500000Y-57540000D03*
X185500000Y-70240000D03*
%TD*%
D10*
%TO.C,C13*%
X95175000Y-66514000D03*
X95175000Y-69336000D03*
%TD*%
D11*
%TO.C,L6*%
X144987500Y-94500000D03*
X159587500Y-94500000D03*
%TD*%
D13*
%TO.C,J7*%
X185500000Y-47500000D03*
%TD*%
D11*
%TO.C,L7*%
X128000000Y-105012500D03*
X128000000Y-90412500D03*
%TD*%
D10*
%TO.C,C1*%
X52375000Y-66550000D03*
X52375000Y-69372000D03*
%TD*%
D12*
%TO.C,C7*%
X85600000Y-101400000D03*
X85600000Y-98578000D03*
%TD*%
D11*
%TO.C,L9*%
X77500000Y-106100000D03*
X77500000Y-91500000D03*
%TD*%
D13*
%TO.C,J11*%
X185500000Y-79500000D03*
%TD*%
%TO.C,J10*%
X134500000Y-79500000D03*
%TD*%
%TO.C,J8*%
X50500000Y-79500000D03*
%TD*%
D11*
%TO.C,L8*%
X94987500Y-95500000D03*
X109587500Y-95500000D03*
%TD*%
D10*
%TO.C,C15*%
X144900000Y-65375000D03*
X144900000Y-68197000D03*
%TD*%
%TO.C,C20*%
X168975000Y-96417000D03*
X168975000Y-99239000D03*
%TD*%
%TO.C,C11*%
X48175000Y-66460000D03*
X48175000Y-69282000D03*
%TD*%
D11*
%TO.C,L1*%
X60500000Y-68100000D03*
X60500000Y-53500000D03*
%TD*%
D14*
%TO.C,J1*%
X37400000Y-80110000D03*
X37400000Y-71000000D03*
X37400000Y-89210000D03*
%TD*%
D10*
%TO.C,C5*%
X149475000Y-65450000D03*
X149475000Y-68272000D03*
%TD*%
D12*
%TO.C,C10*%
X164100000Y-99200000D03*
X164100000Y-96378000D03*
%TD*%
D13*
%TO.C,J6*%
X185500000Y-111500000D03*
%TD*%
D10*
%TO.C,C2*%
X70500000Y-66529000D03*
X70500000Y-69351000D03*
%TD*%
%TO.C,C18*%
X119200000Y-97478000D03*
X119200000Y-100300000D03*
%TD*%
D12*
%TO.C,C8*%
X114400000Y-100100000D03*
X114400000Y-97278000D03*
%TD*%
%TO.C,C9*%
X135400000Y-99479000D03*
X135400000Y-96657000D03*
%TD*%
D10*
%TO.C,C12*%
X74900000Y-66625000D03*
X74900000Y-69447000D03*
%TD*%
D11*
%TO.C,L5*%
X158500000Y-67012500D03*
X158500000Y-52412500D03*
%TD*%
D10*
%TO.C,C16*%
X69400000Y-99878000D03*
X69400000Y-102700000D03*
%TD*%
D11*
%TO.C,L3*%
X110500000Y-68100000D03*
X110500000Y-53500000D03*
%TD*%
D10*
%TO.C,C3*%
X99610000Y-66529000D03*
X99610000Y-69351000D03*
%TD*%
D13*
%TO.C,J4*%
X36500000Y-111500000D03*
%TD*%
%TO.C,J9*%
X96500000Y-79500000D03*
%TD*%
G36*
X188943039Y-28919685D02*
G01*
X188988794Y-28972489D01*
X189000000Y-29024000D01*
X189000000Y-36276000D01*
X188980315Y-36343039D01*
X188927511Y-36388794D01*
X188876000Y-36400000D01*
X32124000Y-36400000D01*
X32056961Y-36380315D01*
X32011206Y-36327511D01*
X32000000Y-36276000D01*
X32000000Y-29024000D01*
X32019685Y-28956961D01*
X32072489Y-28911206D01*
X32124000Y-28900000D01*
X188876000Y-28900000D01*
X188943039Y-28919685D01*
G37*
G36*
X188943039Y-122219685D02*
G01*
X188988794Y-122272489D01*
X189000000Y-122324000D01*
X189000000Y-129576000D01*
X188980315Y-129643039D01*
X188927511Y-129688794D01*
X188876000Y-129700000D01*
X32124000Y-129700000D01*
X32056961Y-129680315D01*
X32011206Y-129627511D01*
X32000000Y-129576000D01*
X32000000Y-122324000D01*
X32019685Y-122256961D01*
X32072489Y-122211206D01*
X32124000Y-122200000D01*
X188876000Y-122200000D01*
X188943039Y-122219685D01*
G37*
G36*
X187443039Y-77519685D02*
G01*
X187488794Y-77572489D01*
X187500000Y-77624000D01*
X187500000Y-81276089D01*
X187480315Y-81343128D01*
X187427511Y-81388883D01*
X187376089Y-81400089D01*
X48624089Y-81499910D01*
X48557036Y-81480274D01*
X48511243Y-81427503D01*
X48500000Y-81375910D01*
X48500000Y-77624000D01*
X48519685Y-77556961D01*
X48572489Y-77511206D01*
X48624000Y-77500000D01*
X187376000Y-77500000D01*
X187443039Y-77519685D01*
G37*
M02*
