%TF.GenerationSoftware,KiCad,Pcbnew,8.0.5-8.0.5-0~ubuntu24.04.1*%
%TF.CreationDate,2024-10-12T14:50:42+02:00*%
%TF.ProjectId,diplexer,6469706c-6578-4657-922e-6b696361645f,rev?*%
%TF.SameCoordinates,Original*%
%TF.FileFunction,Legend,Top*%
%TF.FilePolarity,Positive*%
%FSLAX46Y46*%
G04 Gerber Fmt 4.6, Leading zero omitted, Abs format (unit mm)*
G04 Created by KiCad (PCBNEW 8.0.5-8.0.5-0~ubuntu24.04.1) date 2024-10-12 14:50:42*
%MOMM*%
%LPD*%
G01*
G04 APERTURE LIST*
%ADD10C,0.100000*%
%ADD11C,0.150000*%
%ADD12C,0.120000*%
G04 APERTURE END LIST*
D10*
X48000000Y-63000000D02*
X187000000Y-63000000D01*
X187000000Y-67000000D01*
X48000000Y-67000000D01*
X48000000Y-63000000D01*
X67541979Y-32750038D02*
X67541979Y-30750038D01*
X67541979Y-31702419D02*
X68684836Y-31702419D01*
X68684836Y-32750038D02*
X68684836Y-30750038D01*
X70303884Y-31702419D02*
X69637217Y-31702419D01*
X69637217Y-32750038D02*
X69637217Y-30750038D01*
X69637217Y-30750038D02*
X70589598Y-30750038D01*
X71351503Y-31988133D02*
X72875313Y-31988133D01*
X72113408Y-32750038D02*
X72113408Y-31226228D01*
X74684836Y-30750038D02*
X74303883Y-30750038D01*
X74303883Y-30750038D02*
X74113407Y-30845276D01*
X74113407Y-30845276D02*
X74018169Y-30940514D01*
X74018169Y-30940514D02*
X73827693Y-31226228D01*
X73827693Y-31226228D02*
X73732455Y-31607180D01*
X73732455Y-31607180D02*
X73732455Y-32369085D01*
X73732455Y-32369085D02*
X73827693Y-32559561D01*
X73827693Y-32559561D02*
X73922931Y-32654800D01*
X73922931Y-32654800D02*
X74113407Y-32750038D01*
X74113407Y-32750038D02*
X74494360Y-32750038D01*
X74494360Y-32750038D02*
X74684836Y-32654800D01*
X74684836Y-32654800D02*
X74780074Y-32559561D01*
X74780074Y-32559561D02*
X74875312Y-32369085D01*
X74875312Y-32369085D02*
X74875312Y-31892895D01*
X74875312Y-31892895D02*
X74780074Y-31702419D01*
X74780074Y-31702419D02*
X74684836Y-31607180D01*
X74684836Y-31607180D02*
X74494360Y-31511942D01*
X74494360Y-31511942D02*
X74113407Y-31511942D01*
X74113407Y-31511942D02*
X73922931Y-31607180D01*
X73922931Y-31607180D02*
X73827693Y-31702419D01*
X73827693Y-31702419D02*
X73732455Y-31892895D01*
X75732455Y-32750038D02*
X75732455Y-30750038D01*
X75732455Y-30750038D02*
X76399122Y-32178609D01*
X76399122Y-32178609D02*
X77065788Y-30750038D01*
X77065788Y-30750038D02*
X77065788Y-32750038D01*
X79827693Y-32750038D02*
X79637217Y-32654800D01*
X79637217Y-32654800D02*
X79541979Y-32464323D01*
X79541979Y-32464323D02*
X79541979Y-30750038D01*
X80875312Y-32750038D02*
X80684836Y-32654800D01*
X80684836Y-32654800D02*
X80589598Y-32559561D01*
X80589598Y-32559561D02*
X80494360Y-32369085D01*
X80494360Y-32369085D02*
X80494360Y-31797657D01*
X80494360Y-31797657D02*
X80589598Y-31607180D01*
X80589598Y-31607180D02*
X80684836Y-31511942D01*
X80684836Y-31511942D02*
X80875312Y-31416704D01*
X80875312Y-31416704D02*
X81161027Y-31416704D01*
X81161027Y-31416704D02*
X81351503Y-31511942D01*
X81351503Y-31511942D02*
X81446741Y-31607180D01*
X81446741Y-31607180D02*
X81541979Y-31797657D01*
X81541979Y-31797657D02*
X81541979Y-32369085D01*
X81541979Y-32369085D02*
X81446741Y-32559561D01*
X81446741Y-32559561D02*
X81351503Y-32654800D01*
X81351503Y-32654800D02*
X81161027Y-32750038D01*
X81161027Y-32750038D02*
X80875312Y-32750038D01*
X82208646Y-31416704D02*
X82589598Y-32750038D01*
X82589598Y-32750038D02*
X82970551Y-31797657D01*
X82970551Y-31797657D02*
X83351503Y-32750038D01*
X83351503Y-32750038D02*
X83732455Y-31416704D01*
X84494360Y-31416704D02*
X84494360Y-33416704D01*
X84494360Y-31511942D02*
X84684836Y-31416704D01*
X84684836Y-31416704D02*
X85065789Y-31416704D01*
X85065789Y-31416704D02*
X85256265Y-31511942D01*
X85256265Y-31511942D02*
X85351503Y-31607180D01*
X85351503Y-31607180D02*
X85446741Y-31797657D01*
X85446741Y-31797657D02*
X85446741Y-32369085D01*
X85446741Y-32369085D02*
X85351503Y-32559561D01*
X85351503Y-32559561D02*
X85256265Y-32654800D01*
X85256265Y-32654800D02*
X85065789Y-32750038D01*
X85065789Y-32750038D02*
X84684836Y-32750038D01*
X84684836Y-32750038D02*
X84494360Y-32654800D01*
X87161027Y-32750038D02*
X87161027Y-31702419D01*
X87161027Y-31702419D02*
X87065789Y-31511942D01*
X87065789Y-31511942D02*
X86875313Y-31416704D01*
X86875313Y-31416704D02*
X86494360Y-31416704D01*
X86494360Y-31416704D02*
X86303884Y-31511942D01*
X87161027Y-32654800D02*
X86970551Y-32750038D01*
X86970551Y-32750038D02*
X86494360Y-32750038D01*
X86494360Y-32750038D02*
X86303884Y-32654800D01*
X86303884Y-32654800D02*
X86208646Y-32464323D01*
X86208646Y-32464323D02*
X86208646Y-32273847D01*
X86208646Y-32273847D02*
X86303884Y-32083371D01*
X86303884Y-32083371D02*
X86494360Y-31988133D01*
X86494360Y-31988133D02*
X86970551Y-31988133D01*
X86970551Y-31988133D02*
X87161027Y-31892895D01*
X88018170Y-32654800D02*
X88208646Y-32750038D01*
X88208646Y-32750038D02*
X88589598Y-32750038D01*
X88589598Y-32750038D02*
X88780075Y-32654800D01*
X88780075Y-32654800D02*
X88875313Y-32464323D01*
X88875313Y-32464323D02*
X88875313Y-32369085D01*
X88875313Y-32369085D02*
X88780075Y-32178609D01*
X88780075Y-32178609D02*
X88589598Y-32083371D01*
X88589598Y-32083371D02*
X88303884Y-32083371D01*
X88303884Y-32083371D02*
X88113408Y-31988133D01*
X88113408Y-31988133D02*
X88018170Y-31797657D01*
X88018170Y-31797657D02*
X88018170Y-31702419D01*
X88018170Y-31702419D02*
X88113408Y-31511942D01*
X88113408Y-31511942D02*
X88303884Y-31416704D01*
X88303884Y-31416704D02*
X88589598Y-31416704D01*
X88589598Y-31416704D02*
X88780075Y-31511942D01*
X89637218Y-32654800D02*
X89827694Y-32750038D01*
X89827694Y-32750038D02*
X90208646Y-32750038D01*
X90208646Y-32750038D02*
X90399123Y-32654800D01*
X90399123Y-32654800D02*
X90494361Y-32464323D01*
X90494361Y-32464323D02*
X90494361Y-32369085D01*
X90494361Y-32369085D02*
X90399123Y-32178609D01*
X90399123Y-32178609D02*
X90208646Y-32083371D01*
X90208646Y-32083371D02*
X89922932Y-32083371D01*
X89922932Y-32083371D02*
X89732456Y-31988133D01*
X89732456Y-31988133D02*
X89637218Y-31797657D01*
X89637218Y-31797657D02*
X89637218Y-31702419D01*
X89637218Y-31702419D02*
X89732456Y-31511942D01*
X89732456Y-31511942D02*
X89922932Y-31416704D01*
X89922932Y-31416704D02*
X90208646Y-31416704D01*
X90208646Y-31416704D02*
X90399123Y-31511942D01*
X93732457Y-32750038D02*
X93732457Y-31702419D01*
X93732457Y-31702419D02*
X93637219Y-31511942D01*
X93637219Y-31511942D02*
X93446743Y-31416704D01*
X93446743Y-31416704D02*
X93065790Y-31416704D01*
X93065790Y-31416704D02*
X92875314Y-31511942D01*
X93732457Y-32654800D02*
X93541981Y-32750038D01*
X93541981Y-32750038D02*
X93065790Y-32750038D01*
X93065790Y-32750038D02*
X92875314Y-32654800D01*
X92875314Y-32654800D02*
X92780076Y-32464323D01*
X92780076Y-32464323D02*
X92780076Y-32273847D01*
X92780076Y-32273847D02*
X92875314Y-32083371D01*
X92875314Y-32083371D02*
X93065790Y-31988133D01*
X93065790Y-31988133D02*
X93541981Y-31988133D01*
X93541981Y-31988133D02*
X93732457Y-31892895D01*
X94684838Y-31416704D02*
X94684838Y-32750038D01*
X94684838Y-31607180D02*
X94780076Y-31511942D01*
X94780076Y-31511942D02*
X94970552Y-31416704D01*
X94970552Y-31416704D02*
X95256267Y-31416704D01*
X95256267Y-31416704D02*
X95446743Y-31511942D01*
X95446743Y-31511942D02*
X95541981Y-31702419D01*
X95541981Y-31702419D02*
X95541981Y-32750038D01*
X97351505Y-32750038D02*
X97351505Y-30750038D01*
X97351505Y-32654800D02*
X97161029Y-32750038D01*
X97161029Y-32750038D02*
X96780076Y-32750038D01*
X96780076Y-32750038D02*
X96589600Y-32654800D01*
X96589600Y-32654800D02*
X96494362Y-32559561D01*
X96494362Y-32559561D02*
X96399124Y-32369085D01*
X96399124Y-32369085D02*
X96399124Y-31797657D01*
X96399124Y-31797657D02*
X96494362Y-31607180D01*
X96494362Y-31607180D02*
X96589600Y-31511942D01*
X96589600Y-31511942D02*
X96780076Y-31416704D01*
X96780076Y-31416704D02*
X97161029Y-31416704D01*
X97161029Y-31416704D02*
X97351505Y-31511942D01*
X100684839Y-31416704D02*
X100684839Y-32750038D01*
X100208648Y-30654800D02*
X99732458Y-32083371D01*
X99732458Y-32083371D02*
X100970553Y-32083371D01*
X101732458Y-32750038D02*
X101732458Y-30750038D01*
X101732458Y-30750038D02*
X102399125Y-32178609D01*
X102399125Y-32178609D02*
X103065791Y-30750038D01*
X103065791Y-30750038D02*
X103065791Y-32750038D01*
X105541982Y-32750038D02*
X105541982Y-30750038D01*
X106399125Y-32750038D02*
X106399125Y-31702419D01*
X106399125Y-31702419D02*
X106303887Y-31511942D01*
X106303887Y-31511942D02*
X106113411Y-31416704D01*
X106113411Y-31416704D02*
X105827696Y-31416704D01*
X105827696Y-31416704D02*
X105637220Y-31511942D01*
X105637220Y-31511942D02*
X105541982Y-31607180D01*
X107351506Y-32750038D02*
X107351506Y-31416704D01*
X107351506Y-30750038D02*
X107256268Y-30845276D01*
X107256268Y-30845276D02*
X107351506Y-30940514D01*
X107351506Y-30940514D02*
X107446744Y-30845276D01*
X107446744Y-30845276D02*
X107351506Y-30750038D01*
X107351506Y-30750038D02*
X107351506Y-30940514D01*
X109161030Y-31416704D02*
X109161030Y-33035752D01*
X109161030Y-33035752D02*
X109065792Y-33226228D01*
X109065792Y-33226228D02*
X108970554Y-33321466D01*
X108970554Y-33321466D02*
X108780077Y-33416704D01*
X108780077Y-33416704D02*
X108494363Y-33416704D01*
X108494363Y-33416704D02*
X108303887Y-33321466D01*
X109161030Y-32654800D02*
X108970554Y-32750038D01*
X108970554Y-32750038D02*
X108589601Y-32750038D01*
X108589601Y-32750038D02*
X108399125Y-32654800D01*
X108399125Y-32654800D02*
X108303887Y-32559561D01*
X108303887Y-32559561D02*
X108208649Y-32369085D01*
X108208649Y-32369085D02*
X108208649Y-31797657D01*
X108208649Y-31797657D02*
X108303887Y-31607180D01*
X108303887Y-31607180D02*
X108399125Y-31511942D01*
X108399125Y-31511942D02*
X108589601Y-31416704D01*
X108589601Y-31416704D02*
X108970554Y-31416704D01*
X108970554Y-31416704D02*
X109161030Y-31511942D01*
X110113411Y-32750038D02*
X110113411Y-30750038D01*
X110970554Y-32750038D02*
X110970554Y-31702419D01*
X110970554Y-31702419D02*
X110875316Y-31511942D01*
X110875316Y-31511942D02*
X110684840Y-31416704D01*
X110684840Y-31416704D02*
X110399125Y-31416704D01*
X110399125Y-31416704D02*
X110208649Y-31511942D01*
X110208649Y-31511942D02*
X110113411Y-31607180D01*
X111922935Y-31416704D02*
X111922935Y-33416704D01*
X111922935Y-31511942D02*
X112113411Y-31416704D01*
X112113411Y-31416704D02*
X112494364Y-31416704D01*
X112494364Y-31416704D02*
X112684840Y-31511942D01*
X112684840Y-31511942D02*
X112780078Y-31607180D01*
X112780078Y-31607180D02*
X112875316Y-31797657D01*
X112875316Y-31797657D02*
X112875316Y-32369085D01*
X112875316Y-32369085D02*
X112780078Y-32559561D01*
X112780078Y-32559561D02*
X112684840Y-32654800D01*
X112684840Y-32654800D02*
X112494364Y-32750038D01*
X112494364Y-32750038D02*
X112113411Y-32750038D01*
X112113411Y-32750038D02*
X111922935Y-32654800D01*
X114589602Y-32750038D02*
X114589602Y-31702419D01*
X114589602Y-31702419D02*
X114494364Y-31511942D01*
X114494364Y-31511942D02*
X114303888Y-31416704D01*
X114303888Y-31416704D02*
X113922935Y-31416704D01*
X113922935Y-31416704D02*
X113732459Y-31511942D01*
X114589602Y-32654800D02*
X114399126Y-32750038D01*
X114399126Y-32750038D02*
X113922935Y-32750038D01*
X113922935Y-32750038D02*
X113732459Y-32654800D01*
X113732459Y-32654800D02*
X113637221Y-32464323D01*
X113637221Y-32464323D02*
X113637221Y-32273847D01*
X113637221Y-32273847D02*
X113732459Y-32083371D01*
X113732459Y-32083371D02*
X113922935Y-31988133D01*
X113922935Y-31988133D02*
X114399126Y-31988133D01*
X114399126Y-31988133D02*
X114589602Y-31892895D01*
X115446745Y-32654800D02*
X115637221Y-32750038D01*
X115637221Y-32750038D02*
X116018173Y-32750038D01*
X116018173Y-32750038D02*
X116208650Y-32654800D01*
X116208650Y-32654800D02*
X116303888Y-32464323D01*
X116303888Y-32464323D02*
X116303888Y-32369085D01*
X116303888Y-32369085D02*
X116208650Y-32178609D01*
X116208650Y-32178609D02*
X116018173Y-32083371D01*
X116018173Y-32083371D02*
X115732459Y-32083371D01*
X115732459Y-32083371D02*
X115541983Y-31988133D01*
X115541983Y-31988133D02*
X115446745Y-31797657D01*
X115446745Y-31797657D02*
X115446745Y-31702419D01*
X115446745Y-31702419D02*
X115541983Y-31511942D01*
X115541983Y-31511942D02*
X115732459Y-31416704D01*
X115732459Y-31416704D02*
X116018173Y-31416704D01*
X116018173Y-31416704D02*
X116208650Y-31511942D01*
X117065793Y-32654800D02*
X117256269Y-32750038D01*
X117256269Y-32750038D02*
X117637221Y-32750038D01*
X117637221Y-32750038D02*
X117827698Y-32654800D01*
X117827698Y-32654800D02*
X117922936Y-32464323D01*
X117922936Y-32464323D02*
X117922936Y-32369085D01*
X117922936Y-32369085D02*
X117827698Y-32178609D01*
X117827698Y-32178609D02*
X117637221Y-32083371D01*
X117637221Y-32083371D02*
X117351507Y-32083371D01*
X117351507Y-32083371D02*
X117161031Y-31988133D01*
X117161031Y-31988133D02*
X117065793Y-31797657D01*
X117065793Y-31797657D02*
X117065793Y-31702419D01*
X117065793Y-31702419D02*
X117161031Y-31511942D01*
X117161031Y-31511942D02*
X117351507Y-31416704D01*
X117351507Y-31416704D02*
X117637221Y-31416704D01*
X117637221Y-31416704D02*
X117827698Y-31511942D01*
X120018175Y-31416704D02*
X120780079Y-31416704D01*
X120303889Y-32750038D02*
X120303889Y-31035752D01*
X120303889Y-31035752D02*
X120399127Y-30845276D01*
X120399127Y-30845276D02*
X120589603Y-30750038D01*
X120589603Y-30750038D02*
X120780079Y-30750038D01*
X121446746Y-32750038D02*
X121446746Y-31416704D01*
X121446746Y-30750038D02*
X121351508Y-30845276D01*
X121351508Y-30845276D02*
X121446746Y-30940514D01*
X121446746Y-30940514D02*
X121541984Y-30845276D01*
X121541984Y-30845276D02*
X121446746Y-30750038D01*
X121446746Y-30750038D02*
X121446746Y-30940514D01*
X122684841Y-32750038D02*
X122494365Y-32654800D01*
X122494365Y-32654800D02*
X122399127Y-32464323D01*
X122399127Y-32464323D02*
X122399127Y-30750038D01*
X123161032Y-31416704D02*
X123922936Y-31416704D01*
X123446746Y-30750038D02*
X123446746Y-32464323D01*
X123446746Y-32464323D02*
X123541984Y-32654800D01*
X123541984Y-32654800D02*
X123732460Y-32750038D01*
X123732460Y-32750038D02*
X123922936Y-32750038D01*
X125351508Y-32654800D02*
X125161032Y-32750038D01*
X125161032Y-32750038D02*
X124780079Y-32750038D01*
X124780079Y-32750038D02*
X124589603Y-32654800D01*
X124589603Y-32654800D02*
X124494365Y-32464323D01*
X124494365Y-32464323D02*
X124494365Y-31702419D01*
X124494365Y-31702419D02*
X124589603Y-31511942D01*
X124589603Y-31511942D02*
X124780079Y-31416704D01*
X124780079Y-31416704D02*
X125161032Y-31416704D01*
X125161032Y-31416704D02*
X125351508Y-31511942D01*
X125351508Y-31511942D02*
X125446746Y-31702419D01*
X125446746Y-31702419D02*
X125446746Y-31892895D01*
X125446746Y-31892895D02*
X124494365Y-32083371D01*
X126303889Y-32750038D02*
X126303889Y-31416704D01*
X126303889Y-31797657D02*
X126399127Y-31607180D01*
X126399127Y-31607180D02*
X126494365Y-31511942D01*
X126494365Y-31511942D02*
X126684841Y-31416704D01*
X126684841Y-31416704D02*
X126875318Y-31416704D01*
X127541984Y-32559561D02*
X127637222Y-32654800D01*
X127637222Y-32654800D02*
X127541984Y-32750038D01*
X127541984Y-32750038D02*
X127446746Y-32654800D01*
X127446746Y-32654800D02*
X127541984Y-32559561D01*
X127541984Y-32559561D02*
X127541984Y-32750038D01*
X106589598Y-65750038D02*
X105446741Y-65750038D01*
X106018169Y-65750038D02*
X106018169Y-63750038D01*
X106018169Y-63750038D02*
X105827693Y-64035752D01*
X105827693Y-64035752D02*
X105637217Y-64226228D01*
X105637217Y-64226228D02*
X105446741Y-64321466D01*
X108399122Y-63750038D02*
X107446741Y-63750038D01*
X107446741Y-63750038D02*
X107351503Y-64702419D01*
X107351503Y-64702419D02*
X107446741Y-64607180D01*
X107446741Y-64607180D02*
X107637217Y-64511942D01*
X107637217Y-64511942D02*
X108113408Y-64511942D01*
X108113408Y-64511942D02*
X108303884Y-64607180D01*
X108303884Y-64607180D02*
X108399122Y-64702419D01*
X108399122Y-64702419D02*
X108494360Y-64892895D01*
X108494360Y-64892895D02*
X108494360Y-65369085D01*
X108494360Y-65369085D02*
X108399122Y-65559561D01*
X108399122Y-65559561D02*
X108303884Y-65654800D01*
X108303884Y-65654800D02*
X108113408Y-65750038D01*
X108113408Y-65750038D02*
X107637217Y-65750038D01*
X107637217Y-65750038D02*
X107446741Y-65654800D01*
X107446741Y-65654800D02*
X107351503Y-65559561D01*
X109351503Y-65750038D02*
X109351503Y-63750038D01*
X109351503Y-63750038D02*
X110018170Y-65178609D01*
X110018170Y-65178609D02*
X110684836Y-63750038D01*
X110684836Y-63750038D02*
X110684836Y-65750038D01*
X111637217Y-65750038D02*
X111637217Y-63750038D01*
X111637217Y-63750038D02*
X112303884Y-65178609D01*
X112303884Y-65178609D02*
X112970550Y-63750038D01*
X112970550Y-63750038D02*
X112970550Y-65750038D01*
X115161027Y-63750038D02*
X116303884Y-63750038D01*
X115732455Y-65750038D02*
X115732455Y-63750038D01*
X116875313Y-65178609D02*
X117827694Y-65178609D01*
X116684837Y-65750038D02*
X117351503Y-63750038D01*
X117351503Y-63750038D02*
X118018170Y-65750038D01*
X119637218Y-65750038D02*
X118684837Y-65750038D01*
X118684837Y-65750038D02*
X118684837Y-63750038D01*
X121256266Y-65750038D02*
X120303885Y-65750038D01*
X120303885Y-65750038D02*
X120303885Y-63750038D01*
X149589598Y-65750038D02*
X148446741Y-65750038D01*
X149018169Y-65750038D02*
X149018169Y-63750038D01*
X149018169Y-63750038D02*
X148827693Y-64035752D01*
X148827693Y-64035752D02*
X148637217Y-64226228D01*
X148637217Y-64226228D02*
X148446741Y-64321466D01*
X150446741Y-65559561D02*
X150541979Y-65654800D01*
X150541979Y-65654800D02*
X150446741Y-65750038D01*
X150446741Y-65750038D02*
X150351503Y-65654800D01*
X150351503Y-65654800D02*
X150446741Y-65559561D01*
X150446741Y-65559561D02*
X150446741Y-65750038D01*
X152351503Y-63750038D02*
X151399122Y-63750038D01*
X151399122Y-63750038D02*
X151303884Y-64702419D01*
X151303884Y-64702419D02*
X151399122Y-64607180D01*
X151399122Y-64607180D02*
X151589598Y-64511942D01*
X151589598Y-64511942D02*
X152065789Y-64511942D01*
X152065789Y-64511942D02*
X152256265Y-64607180D01*
X152256265Y-64607180D02*
X152351503Y-64702419D01*
X152351503Y-64702419D02*
X152446741Y-64892895D01*
X152446741Y-64892895D02*
X152446741Y-65369085D01*
X152446741Y-65369085D02*
X152351503Y-65559561D01*
X152351503Y-65559561D02*
X152256265Y-65654800D01*
X152256265Y-65654800D02*
X152065789Y-65750038D01*
X152065789Y-65750038D02*
X151589598Y-65750038D01*
X151589598Y-65750038D02*
X151399122Y-65654800D01*
X151399122Y-65654800D02*
X151303884Y-65559561D01*
X153303884Y-65750038D02*
X153303884Y-63750038D01*
X153303884Y-63750038D02*
X153970551Y-65178609D01*
X153970551Y-65178609D02*
X154637217Y-63750038D01*
X154637217Y-63750038D02*
X154637217Y-65750038D01*
X155589598Y-65750038D02*
X155589598Y-63750038D01*
X155589598Y-63750038D02*
X156256265Y-65178609D01*
X156256265Y-65178609D02*
X156922931Y-63750038D01*
X156922931Y-63750038D02*
X156922931Y-65750038D01*
X159113408Y-63750038D02*
X160256265Y-63750038D01*
X159684836Y-65750038D02*
X159684836Y-63750038D01*
X160922932Y-65750038D02*
X160922932Y-63750038D01*
X160922932Y-64702419D02*
X162065789Y-64702419D01*
X162065789Y-65750038D02*
X162065789Y-63750038D01*
X163018170Y-65750038D02*
X163018170Y-63750038D01*
X165113408Y-65559561D02*
X165018170Y-65654800D01*
X165018170Y-65654800D02*
X164732456Y-65750038D01*
X164732456Y-65750038D02*
X164541980Y-65750038D01*
X164541980Y-65750038D02*
X164256265Y-65654800D01*
X164256265Y-65654800D02*
X164065789Y-65464323D01*
X164065789Y-65464323D02*
X163970551Y-65273847D01*
X163970551Y-65273847D02*
X163875313Y-64892895D01*
X163875313Y-64892895D02*
X163875313Y-64607180D01*
X163875313Y-64607180D02*
X163970551Y-64226228D01*
X163970551Y-64226228D02*
X164065789Y-64035752D01*
X164065789Y-64035752D02*
X164256265Y-63845276D01*
X164256265Y-63845276D02*
X164541980Y-63750038D01*
X164541980Y-63750038D02*
X164732456Y-63750038D01*
X164732456Y-63750038D02*
X165018170Y-63845276D01*
X165018170Y-63845276D02*
X165113408Y-63940514D01*
X165970551Y-65750038D02*
X165970551Y-63750038D01*
X167113408Y-65750038D02*
X166256265Y-64607180D01*
X167113408Y-63750038D02*
X165970551Y-64892895D01*
X53684836Y-65559561D02*
X53589598Y-65654800D01*
X53589598Y-65654800D02*
X53303884Y-65750038D01*
X53303884Y-65750038D02*
X53113408Y-65750038D01*
X53113408Y-65750038D02*
X52827693Y-65654800D01*
X52827693Y-65654800D02*
X52637217Y-65464323D01*
X52637217Y-65464323D02*
X52541979Y-65273847D01*
X52541979Y-65273847D02*
X52446741Y-64892895D01*
X52446741Y-64892895D02*
X52446741Y-64607180D01*
X52446741Y-64607180D02*
X52541979Y-64226228D01*
X52541979Y-64226228D02*
X52637217Y-64035752D01*
X52637217Y-64035752D02*
X52827693Y-63845276D01*
X52827693Y-63845276D02*
X53113408Y-63750038D01*
X53113408Y-63750038D02*
X53303884Y-63750038D01*
X53303884Y-63750038D02*
X53589598Y-63845276D01*
X53589598Y-63845276D02*
X53684836Y-63940514D01*
X54922931Y-63750038D02*
X55303884Y-63750038D01*
X55303884Y-63750038D02*
X55494360Y-63845276D01*
X55494360Y-63845276D02*
X55684836Y-64035752D01*
X55684836Y-64035752D02*
X55780074Y-64416704D01*
X55780074Y-64416704D02*
X55780074Y-65083371D01*
X55780074Y-65083371D02*
X55684836Y-65464323D01*
X55684836Y-65464323D02*
X55494360Y-65654800D01*
X55494360Y-65654800D02*
X55303884Y-65750038D01*
X55303884Y-65750038D02*
X54922931Y-65750038D01*
X54922931Y-65750038D02*
X54732455Y-65654800D01*
X54732455Y-65654800D02*
X54541979Y-65464323D01*
X54541979Y-65464323D02*
X54446741Y-65083371D01*
X54446741Y-65083371D02*
X54446741Y-64416704D01*
X54446741Y-64416704D02*
X54541979Y-64035752D01*
X54541979Y-64035752D02*
X54732455Y-63845276D01*
X54732455Y-63845276D02*
X54922931Y-63750038D01*
X56637217Y-65750038D02*
X56637217Y-63750038D01*
X56637217Y-63750038D02*
X57399122Y-63750038D01*
X57399122Y-63750038D02*
X57589598Y-63845276D01*
X57589598Y-63845276D02*
X57684836Y-63940514D01*
X57684836Y-63940514D02*
X57780074Y-64130990D01*
X57780074Y-64130990D02*
X57780074Y-64416704D01*
X57780074Y-64416704D02*
X57684836Y-64607180D01*
X57684836Y-64607180D02*
X57589598Y-64702419D01*
X57589598Y-64702419D02*
X57399122Y-64797657D01*
X57399122Y-64797657D02*
X56637217Y-64797657D01*
X58637217Y-65750038D02*
X58637217Y-63750038D01*
X58637217Y-63750038D02*
X59399122Y-63750038D01*
X59399122Y-63750038D02*
X59589598Y-63845276D01*
X59589598Y-63845276D02*
X59684836Y-63940514D01*
X59684836Y-63940514D02*
X59780074Y-64130990D01*
X59780074Y-64130990D02*
X59780074Y-64416704D01*
X59780074Y-64416704D02*
X59684836Y-64607180D01*
X59684836Y-64607180D02*
X59589598Y-64702419D01*
X59589598Y-64702419D02*
X59399122Y-64797657D01*
X59399122Y-64797657D02*
X58637217Y-64797657D01*
X60637217Y-64702419D02*
X61303884Y-64702419D01*
X61589598Y-65750038D02*
X60637217Y-65750038D01*
X60637217Y-65750038D02*
X60637217Y-63750038D01*
X60637217Y-63750038D02*
X61589598Y-63750038D01*
X63589598Y-65750038D02*
X62922931Y-64797657D01*
X62446741Y-65750038D02*
X62446741Y-63750038D01*
X62446741Y-63750038D02*
X63208646Y-63750038D01*
X63208646Y-63750038D02*
X63399122Y-63845276D01*
X63399122Y-63845276D02*
X63494360Y-63940514D01*
X63494360Y-63940514D02*
X63589598Y-64130990D01*
X63589598Y-64130990D02*
X63589598Y-64416704D01*
X63589598Y-64416704D02*
X63494360Y-64607180D01*
X63494360Y-64607180D02*
X63399122Y-64702419D01*
X63399122Y-64702419D02*
X63208646Y-64797657D01*
X63208646Y-64797657D02*
X62446741Y-64797657D01*
X65875313Y-65654800D02*
X66161027Y-65750038D01*
X66161027Y-65750038D02*
X66637218Y-65750038D01*
X66637218Y-65750038D02*
X66827694Y-65654800D01*
X66827694Y-65654800D02*
X66922932Y-65559561D01*
X66922932Y-65559561D02*
X67018170Y-65369085D01*
X67018170Y-65369085D02*
X67018170Y-65178609D01*
X67018170Y-65178609D02*
X66922932Y-64988133D01*
X66922932Y-64988133D02*
X66827694Y-64892895D01*
X66827694Y-64892895D02*
X66637218Y-64797657D01*
X66637218Y-64797657D02*
X66256265Y-64702419D01*
X66256265Y-64702419D02*
X66065789Y-64607180D01*
X66065789Y-64607180D02*
X65970551Y-64511942D01*
X65970551Y-64511942D02*
X65875313Y-64321466D01*
X65875313Y-64321466D02*
X65875313Y-64130990D01*
X65875313Y-64130990D02*
X65970551Y-63940514D01*
X65970551Y-63940514D02*
X66065789Y-63845276D01*
X66065789Y-63845276D02*
X66256265Y-63750038D01*
X66256265Y-63750038D02*
X66732456Y-63750038D01*
X66732456Y-63750038D02*
X67018170Y-63845276D01*
X67875313Y-65750038D02*
X67875313Y-63750038D01*
X67875313Y-64702419D02*
X69018170Y-64702419D01*
X69018170Y-65750038D02*
X69018170Y-63750038D01*
X69970551Y-64702419D02*
X70637218Y-64702419D01*
X70922932Y-65750038D02*
X69970551Y-65750038D01*
X69970551Y-65750038D02*
X69970551Y-63750038D01*
X69970551Y-63750038D02*
X70922932Y-63750038D01*
X71684837Y-65178609D02*
X72637218Y-65178609D01*
X71494361Y-65750038D02*
X72161027Y-63750038D01*
X72161027Y-63750038D02*
X72827694Y-65750038D01*
X73208647Y-63750038D02*
X74351504Y-63750038D01*
X73780075Y-65750038D02*
X73780075Y-63750038D01*
X76446743Y-65178609D02*
X77399124Y-65178609D01*
X76256267Y-65750038D02*
X76922933Y-63750038D01*
X76922933Y-63750038D02*
X77589600Y-65750038D01*
X78161029Y-65654800D02*
X78446743Y-65750038D01*
X78446743Y-65750038D02*
X78922934Y-65750038D01*
X78922934Y-65750038D02*
X79113410Y-65654800D01*
X79113410Y-65654800D02*
X79208648Y-65559561D01*
X79208648Y-65559561D02*
X79303886Y-65369085D01*
X79303886Y-65369085D02*
X79303886Y-65178609D01*
X79303886Y-65178609D02*
X79208648Y-64988133D01*
X79208648Y-64988133D02*
X79113410Y-64892895D01*
X79113410Y-64892895D02*
X78922934Y-64797657D01*
X78922934Y-64797657D02*
X78541981Y-64702419D01*
X78541981Y-64702419D02*
X78351505Y-64607180D01*
X78351505Y-64607180D02*
X78256267Y-64511942D01*
X78256267Y-64511942D02*
X78161029Y-64321466D01*
X78161029Y-64321466D02*
X78161029Y-64130990D01*
X78161029Y-64130990D02*
X78256267Y-63940514D01*
X78256267Y-63940514D02*
X78351505Y-63845276D01*
X78351505Y-63845276D02*
X78541981Y-63750038D01*
X78541981Y-63750038D02*
X79018172Y-63750038D01*
X79018172Y-63750038D02*
X79303886Y-63845276D01*
X81589601Y-65654800D02*
X81875315Y-65750038D01*
X81875315Y-65750038D02*
X82351506Y-65750038D01*
X82351506Y-65750038D02*
X82541982Y-65654800D01*
X82541982Y-65654800D02*
X82637220Y-65559561D01*
X82637220Y-65559561D02*
X82732458Y-65369085D01*
X82732458Y-65369085D02*
X82732458Y-65178609D01*
X82732458Y-65178609D02*
X82637220Y-64988133D01*
X82637220Y-64988133D02*
X82541982Y-64892895D01*
X82541982Y-64892895D02*
X82351506Y-64797657D01*
X82351506Y-64797657D02*
X81970553Y-64702419D01*
X81970553Y-64702419D02*
X81780077Y-64607180D01*
X81780077Y-64607180D02*
X81684839Y-64511942D01*
X81684839Y-64511942D02*
X81589601Y-64321466D01*
X81589601Y-64321466D02*
X81589601Y-64130990D01*
X81589601Y-64130990D02*
X81684839Y-63940514D01*
X81684839Y-63940514D02*
X81780077Y-63845276D01*
X81780077Y-63845276D02*
X81970553Y-63750038D01*
X81970553Y-63750038D02*
X82446744Y-63750038D01*
X82446744Y-63750038D02*
X82732458Y-63845276D01*
X83589601Y-65750038D02*
X83589601Y-63750038D01*
X83589601Y-64702419D02*
X84732458Y-64702419D01*
X84732458Y-65750038D02*
X84732458Y-63750038D01*
X85684839Y-65750038D02*
X85684839Y-63750038D01*
X86637220Y-64702419D02*
X87303887Y-64702419D01*
X87589601Y-65750038D02*
X86637220Y-65750038D01*
X86637220Y-65750038D02*
X86637220Y-63750038D01*
X86637220Y-63750038D02*
X87589601Y-63750038D01*
X89399125Y-65750038D02*
X88446744Y-65750038D01*
X88446744Y-65750038D02*
X88446744Y-63750038D01*
X90065792Y-65750038D02*
X90065792Y-63750038D01*
X90065792Y-63750038D02*
X90541982Y-63750038D01*
X90541982Y-63750038D02*
X90827697Y-63845276D01*
X90827697Y-63845276D02*
X91018173Y-64035752D01*
X91018173Y-64035752D02*
X91113411Y-64226228D01*
X91113411Y-64226228D02*
X91208649Y-64607180D01*
X91208649Y-64607180D02*
X91208649Y-64892895D01*
X91208649Y-64892895D02*
X91113411Y-65273847D01*
X91113411Y-65273847D02*
X91018173Y-65464323D01*
X91018173Y-65464323D02*
X90827697Y-65654800D01*
X90827697Y-65654800D02*
X90541982Y-65750038D01*
X90541982Y-65750038D02*
X90065792Y-65750038D01*
D11*
X48357142Y-80454819D02*
X47880952Y-80454819D01*
X47880952Y-80454819D02*
X47880952Y-79454819D01*
X49214285Y-80454819D02*
X48642857Y-80454819D01*
X48928571Y-80454819D02*
X48928571Y-79454819D01*
X48928571Y-79454819D02*
X48833333Y-79597676D01*
X48833333Y-79597676D02*
X48738095Y-79692914D01*
X48738095Y-79692914D02*
X48642857Y-79740533D01*
X49833333Y-79454819D02*
X49928571Y-79454819D01*
X49928571Y-79454819D02*
X50023809Y-79502438D01*
X50023809Y-79502438D02*
X50071428Y-79550057D01*
X50071428Y-79550057D02*
X50119047Y-79645295D01*
X50119047Y-79645295D02*
X50166666Y-79835771D01*
X50166666Y-79835771D02*
X50166666Y-80073866D01*
X50166666Y-80073866D02*
X50119047Y-80264342D01*
X50119047Y-80264342D02*
X50071428Y-80359580D01*
X50071428Y-80359580D02*
X50023809Y-80407200D01*
X50023809Y-80407200D02*
X49928571Y-80454819D01*
X49928571Y-80454819D02*
X49833333Y-80454819D01*
X49833333Y-80454819D02*
X49738095Y-80407200D01*
X49738095Y-80407200D02*
X49690476Y-80359580D01*
X49690476Y-80359580D02*
X49642857Y-80264342D01*
X49642857Y-80264342D02*
X49595238Y-80073866D01*
X49595238Y-80073866D02*
X49595238Y-79835771D01*
X49595238Y-79835771D02*
X49642857Y-79645295D01*
X49642857Y-79645295D02*
X49690476Y-79550057D01*
X49690476Y-79550057D02*
X49738095Y-79502438D01*
X49738095Y-79502438D02*
X49833333Y-79454819D01*
X65359580Y-85166666D02*
X65407200Y-85214285D01*
X65407200Y-85214285D02*
X65454819Y-85357142D01*
X65454819Y-85357142D02*
X65454819Y-85452380D01*
X65454819Y-85452380D02*
X65407200Y-85595237D01*
X65407200Y-85595237D02*
X65311961Y-85690475D01*
X65311961Y-85690475D02*
X65216723Y-85738094D01*
X65216723Y-85738094D02*
X65026247Y-85785713D01*
X65026247Y-85785713D02*
X64883390Y-85785713D01*
X64883390Y-85785713D02*
X64692914Y-85738094D01*
X64692914Y-85738094D02*
X64597676Y-85690475D01*
X64597676Y-85690475D02*
X64502438Y-85595237D01*
X64502438Y-85595237D02*
X64454819Y-85452380D01*
X64454819Y-85452380D02*
X64454819Y-85357142D01*
X64454819Y-85357142D02*
X64502438Y-85214285D01*
X64502438Y-85214285D02*
X64550057Y-85166666D01*
X64454819Y-84309523D02*
X64454819Y-84499999D01*
X64454819Y-84499999D02*
X64502438Y-84595237D01*
X64502438Y-84595237D02*
X64550057Y-84642856D01*
X64550057Y-84642856D02*
X64692914Y-84738094D01*
X64692914Y-84738094D02*
X64883390Y-84785713D01*
X64883390Y-84785713D02*
X65264342Y-84785713D01*
X65264342Y-84785713D02*
X65359580Y-84738094D01*
X65359580Y-84738094D02*
X65407200Y-84690475D01*
X65407200Y-84690475D02*
X65454819Y-84595237D01*
X65454819Y-84595237D02*
X65454819Y-84404761D01*
X65454819Y-84404761D02*
X65407200Y-84309523D01*
X65407200Y-84309523D02*
X65359580Y-84261904D01*
X65359580Y-84261904D02*
X65264342Y-84214285D01*
X65264342Y-84214285D02*
X65026247Y-84214285D01*
X65026247Y-84214285D02*
X64931009Y-84261904D01*
X64931009Y-84261904D02*
X64883390Y-84309523D01*
X64883390Y-84309523D02*
X64835771Y-84404761D01*
X64835771Y-84404761D02*
X64835771Y-84595237D01*
X64835771Y-84595237D02*
X64883390Y-84690475D01*
X64883390Y-84690475D02*
X64931009Y-84738094D01*
X64931009Y-84738094D02*
X65026247Y-84785713D01*
X119833333Y-49124580D02*
X119785714Y-49172200D01*
X119785714Y-49172200D02*
X119642857Y-49219819D01*
X119642857Y-49219819D02*
X119547619Y-49219819D01*
X119547619Y-49219819D02*
X119404762Y-49172200D01*
X119404762Y-49172200D02*
X119309524Y-49076961D01*
X119309524Y-49076961D02*
X119261905Y-48981723D01*
X119261905Y-48981723D02*
X119214286Y-48791247D01*
X119214286Y-48791247D02*
X119214286Y-48648390D01*
X119214286Y-48648390D02*
X119261905Y-48457914D01*
X119261905Y-48457914D02*
X119309524Y-48362676D01*
X119309524Y-48362676D02*
X119404762Y-48267438D01*
X119404762Y-48267438D02*
X119547619Y-48219819D01*
X119547619Y-48219819D02*
X119642857Y-48219819D01*
X119642857Y-48219819D02*
X119785714Y-48267438D01*
X119785714Y-48267438D02*
X119833333Y-48315057D01*
X120690476Y-48553152D02*
X120690476Y-49219819D01*
X120452381Y-48172200D02*
X120214286Y-48886485D01*
X120214286Y-48886485D02*
X120833333Y-48886485D01*
X35666666Y-28654819D02*
X35666666Y-29369104D01*
X35666666Y-29369104D02*
X35619047Y-29511961D01*
X35619047Y-29511961D02*
X35523809Y-29607200D01*
X35523809Y-29607200D02*
X35380952Y-29654819D01*
X35380952Y-29654819D02*
X35285714Y-29654819D01*
X36619047Y-28654819D02*
X36142857Y-28654819D01*
X36142857Y-28654819D02*
X36095238Y-29131009D01*
X36095238Y-29131009D02*
X36142857Y-29083390D01*
X36142857Y-29083390D02*
X36238095Y-29035771D01*
X36238095Y-29035771D02*
X36476190Y-29035771D01*
X36476190Y-29035771D02*
X36571428Y-29083390D01*
X36571428Y-29083390D02*
X36619047Y-29131009D01*
X36619047Y-29131009D02*
X36666666Y-29226247D01*
X36666666Y-29226247D02*
X36666666Y-29464342D01*
X36666666Y-29464342D02*
X36619047Y-29559580D01*
X36619047Y-29559580D02*
X36571428Y-29607200D01*
X36571428Y-29607200D02*
X36476190Y-29654819D01*
X36476190Y-29654819D02*
X36238095Y-29654819D01*
X36238095Y-29654819D02*
X36142857Y-29607200D01*
X36142857Y-29607200D02*
X36095238Y-29559580D01*
X83833333Y-43454819D02*
X83357143Y-43454819D01*
X83357143Y-43454819D02*
X83357143Y-42454819D01*
X84119048Y-42550057D02*
X84166667Y-42502438D01*
X84166667Y-42502438D02*
X84261905Y-42454819D01*
X84261905Y-42454819D02*
X84500000Y-42454819D01*
X84500000Y-42454819D02*
X84595238Y-42502438D01*
X84595238Y-42502438D02*
X84642857Y-42550057D01*
X84642857Y-42550057D02*
X84690476Y-42645295D01*
X84690476Y-42645295D02*
X84690476Y-42740533D01*
X84690476Y-42740533D02*
X84642857Y-42883390D01*
X84642857Y-42883390D02*
X84071429Y-43454819D01*
X84071429Y-43454819D02*
X84690476Y-43454819D01*
X184666666Y-69954819D02*
X184666666Y-70669104D01*
X184666666Y-70669104D02*
X184619047Y-70811961D01*
X184619047Y-70811961D02*
X184523809Y-70907200D01*
X184523809Y-70907200D02*
X184380952Y-70954819D01*
X184380952Y-70954819D02*
X184285714Y-70954819D01*
X185047619Y-69954819D02*
X185666666Y-69954819D01*
X185666666Y-69954819D02*
X185333333Y-70335771D01*
X185333333Y-70335771D02*
X185476190Y-70335771D01*
X185476190Y-70335771D02*
X185571428Y-70383390D01*
X185571428Y-70383390D02*
X185619047Y-70431009D01*
X185619047Y-70431009D02*
X185666666Y-70526247D01*
X185666666Y-70526247D02*
X185666666Y-70764342D01*
X185666666Y-70764342D02*
X185619047Y-70859580D01*
X185619047Y-70859580D02*
X185571428Y-70907200D01*
X185571428Y-70907200D02*
X185476190Y-70954819D01*
X185476190Y-70954819D02*
X185190476Y-70954819D01*
X185190476Y-70954819D02*
X185095238Y-70907200D01*
X185095238Y-70907200D02*
X185047619Y-70859580D01*
X132833333Y-43454819D02*
X132357143Y-43454819D01*
X132357143Y-43454819D02*
X132357143Y-42454819D01*
X133595238Y-42788152D02*
X133595238Y-43454819D01*
X133357143Y-42407200D02*
X133119048Y-43121485D01*
X133119048Y-43121485D02*
X133738095Y-43121485D01*
X184666666Y-40604819D02*
X184666666Y-41319104D01*
X184666666Y-41319104D02*
X184619047Y-41461961D01*
X184619047Y-41461961D02*
X184523809Y-41557200D01*
X184523809Y-41557200D02*
X184380952Y-41604819D01*
X184380952Y-41604819D02*
X184285714Y-41604819D01*
X185095238Y-40700057D02*
X185142857Y-40652438D01*
X185142857Y-40652438D02*
X185238095Y-40604819D01*
X185238095Y-40604819D02*
X185476190Y-40604819D01*
X185476190Y-40604819D02*
X185571428Y-40652438D01*
X185571428Y-40652438D02*
X185619047Y-40700057D01*
X185619047Y-40700057D02*
X185666666Y-40795295D01*
X185666666Y-40795295D02*
X185666666Y-40890533D01*
X185666666Y-40890533D02*
X185619047Y-41033390D01*
X185619047Y-41033390D02*
X185047619Y-41604819D01*
X185047619Y-41604819D02*
X185666666Y-41604819D01*
X150833333Y-80454819D02*
X150357143Y-80454819D01*
X150357143Y-80454819D02*
X150357143Y-79454819D01*
X151595238Y-79454819D02*
X151404762Y-79454819D01*
X151404762Y-79454819D02*
X151309524Y-79502438D01*
X151309524Y-79502438D02*
X151261905Y-79550057D01*
X151261905Y-79550057D02*
X151166667Y-79692914D01*
X151166667Y-79692914D02*
X151119048Y-79883390D01*
X151119048Y-79883390D02*
X151119048Y-80264342D01*
X151119048Y-80264342D02*
X151166667Y-80359580D01*
X151166667Y-80359580D02*
X151214286Y-80407200D01*
X151214286Y-80407200D02*
X151309524Y-80454819D01*
X151309524Y-80454819D02*
X151500000Y-80454819D01*
X151500000Y-80454819D02*
X151595238Y-80407200D01*
X151595238Y-80407200D02*
X151642857Y-80359580D01*
X151642857Y-80359580D02*
X151690476Y-80264342D01*
X151690476Y-80264342D02*
X151690476Y-80026247D01*
X151690476Y-80026247D02*
X151642857Y-79931009D01*
X151642857Y-79931009D02*
X151595238Y-79883390D01*
X151595238Y-79883390D02*
X151500000Y-79835771D01*
X151500000Y-79835771D02*
X151309524Y-79835771D01*
X151309524Y-79835771D02*
X151214286Y-79883390D01*
X151214286Y-79883390D02*
X151166667Y-79931009D01*
X151166667Y-79931009D02*
X151119048Y-80026247D01*
X184666666Y-28654819D02*
X184666666Y-29369104D01*
X184666666Y-29369104D02*
X184619047Y-29511961D01*
X184619047Y-29511961D02*
X184523809Y-29607200D01*
X184523809Y-29607200D02*
X184380952Y-29654819D01*
X184380952Y-29654819D02*
X184285714Y-29654819D01*
X185047619Y-28654819D02*
X185714285Y-28654819D01*
X185714285Y-28654819D02*
X185285714Y-29654819D01*
X126454819Y-84166666D02*
X126454819Y-84642856D01*
X126454819Y-84642856D02*
X125454819Y-84642856D01*
X125454819Y-83928570D02*
X125454819Y-83261904D01*
X125454819Y-83261904D02*
X126454819Y-83690475D01*
X50833333Y-53359580D02*
X50785714Y-53407200D01*
X50785714Y-53407200D02*
X50642857Y-53454819D01*
X50642857Y-53454819D02*
X50547619Y-53454819D01*
X50547619Y-53454819D02*
X50404762Y-53407200D01*
X50404762Y-53407200D02*
X50309524Y-53311961D01*
X50309524Y-53311961D02*
X50261905Y-53216723D01*
X50261905Y-53216723D02*
X50214286Y-53026247D01*
X50214286Y-53026247D02*
X50214286Y-52883390D01*
X50214286Y-52883390D02*
X50261905Y-52692914D01*
X50261905Y-52692914D02*
X50309524Y-52597676D01*
X50309524Y-52597676D02*
X50404762Y-52502438D01*
X50404762Y-52502438D02*
X50547619Y-52454819D01*
X50547619Y-52454819D02*
X50642857Y-52454819D01*
X50642857Y-52454819D02*
X50785714Y-52502438D01*
X50785714Y-52502438D02*
X50833333Y-52550057D01*
X51785714Y-53454819D02*
X51214286Y-53454819D01*
X51500000Y-53454819D02*
X51500000Y-52454819D01*
X51500000Y-52454819D02*
X51404762Y-52597676D01*
X51404762Y-52597676D02*
X51309524Y-52692914D01*
X51309524Y-52692914D02*
X51214286Y-52740533D01*
X86359580Y-85166666D02*
X86407200Y-85214285D01*
X86407200Y-85214285D02*
X86454819Y-85357142D01*
X86454819Y-85357142D02*
X86454819Y-85452380D01*
X86454819Y-85452380D02*
X86407200Y-85595237D01*
X86407200Y-85595237D02*
X86311961Y-85690475D01*
X86311961Y-85690475D02*
X86216723Y-85738094D01*
X86216723Y-85738094D02*
X86026247Y-85785713D01*
X86026247Y-85785713D02*
X85883390Y-85785713D01*
X85883390Y-85785713D02*
X85692914Y-85738094D01*
X85692914Y-85738094D02*
X85597676Y-85690475D01*
X85597676Y-85690475D02*
X85502438Y-85595237D01*
X85502438Y-85595237D02*
X85454819Y-85452380D01*
X85454819Y-85452380D02*
X85454819Y-85357142D01*
X85454819Y-85357142D02*
X85502438Y-85214285D01*
X85502438Y-85214285D02*
X85550057Y-85166666D01*
X85454819Y-84833332D02*
X85454819Y-84166666D01*
X85454819Y-84166666D02*
X86454819Y-84595237D01*
X77454819Y-84166666D02*
X77454819Y-84642856D01*
X77454819Y-84642856D02*
X76454819Y-84642856D01*
X77454819Y-83785713D02*
X77454819Y-83595237D01*
X77454819Y-83595237D02*
X77407200Y-83499999D01*
X77407200Y-83499999D02*
X77359580Y-83452380D01*
X77359580Y-83452380D02*
X77216723Y-83357142D01*
X77216723Y-83357142D02*
X77026247Y-83309523D01*
X77026247Y-83309523D02*
X76645295Y-83309523D01*
X76645295Y-83309523D02*
X76550057Y-83357142D01*
X76550057Y-83357142D02*
X76502438Y-83404761D01*
X76502438Y-83404761D02*
X76454819Y-83499999D01*
X76454819Y-83499999D02*
X76454819Y-83690475D01*
X76454819Y-83690475D02*
X76502438Y-83785713D01*
X76502438Y-83785713D02*
X76550057Y-83833332D01*
X76550057Y-83833332D02*
X76645295Y-83880951D01*
X76645295Y-83880951D02*
X76883390Y-83880951D01*
X76883390Y-83880951D02*
X76978628Y-83833332D01*
X76978628Y-83833332D02*
X77026247Y-83785713D01*
X77026247Y-83785713D02*
X77073866Y-83690475D01*
X77073866Y-83690475D02*
X77073866Y-83499999D01*
X77073866Y-83499999D02*
X77026247Y-83404761D01*
X77026247Y-83404761D02*
X76978628Y-83357142D01*
X76978628Y-83357142D02*
X76883390Y-83309523D01*
X184190476Y-60654819D02*
X184190476Y-61369104D01*
X184190476Y-61369104D02*
X184142857Y-61511961D01*
X184142857Y-61511961D02*
X184047619Y-61607200D01*
X184047619Y-61607200D02*
X183904762Y-61654819D01*
X183904762Y-61654819D02*
X183809524Y-61654819D01*
X185190476Y-61654819D02*
X184619048Y-61654819D01*
X184904762Y-61654819D02*
X184904762Y-60654819D01*
X184904762Y-60654819D02*
X184809524Y-60797676D01*
X184809524Y-60797676D02*
X184714286Y-60892914D01*
X184714286Y-60892914D02*
X184619048Y-60940533D01*
X186142857Y-61654819D02*
X185571429Y-61654819D01*
X185857143Y-61654819D02*
X185857143Y-60654819D01*
X185857143Y-60654819D02*
X185761905Y-60797676D01*
X185761905Y-60797676D02*
X185666667Y-60892914D01*
X185666667Y-60892914D02*
X185571429Y-60940533D01*
X133190476Y-60654819D02*
X133190476Y-61369104D01*
X133190476Y-61369104D02*
X133142857Y-61511961D01*
X133142857Y-61511961D02*
X133047619Y-61607200D01*
X133047619Y-61607200D02*
X132904762Y-61654819D01*
X132904762Y-61654819D02*
X132809524Y-61654819D01*
X134190476Y-61654819D02*
X133619048Y-61654819D01*
X133904762Y-61654819D02*
X133904762Y-60654819D01*
X133904762Y-60654819D02*
X133809524Y-60797676D01*
X133809524Y-60797676D02*
X133714286Y-60892914D01*
X133714286Y-60892914D02*
X133619048Y-60940533D01*
X134809524Y-60654819D02*
X134904762Y-60654819D01*
X134904762Y-60654819D02*
X135000000Y-60702438D01*
X135000000Y-60702438D02*
X135047619Y-60750057D01*
X135047619Y-60750057D02*
X135095238Y-60845295D01*
X135095238Y-60845295D02*
X135142857Y-61035771D01*
X135142857Y-61035771D02*
X135142857Y-61273866D01*
X135142857Y-61273866D02*
X135095238Y-61464342D01*
X135095238Y-61464342D02*
X135047619Y-61559580D01*
X135047619Y-61559580D02*
X135000000Y-61607200D01*
X135000000Y-61607200D02*
X134904762Y-61654819D01*
X134904762Y-61654819D02*
X134809524Y-61654819D01*
X134809524Y-61654819D02*
X134714286Y-61607200D01*
X134714286Y-61607200D02*
X134666667Y-61559580D01*
X134666667Y-61559580D02*
X134619048Y-61464342D01*
X134619048Y-61464342D02*
X134571429Y-61273866D01*
X134571429Y-61273866D02*
X134571429Y-61035771D01*
X134571429Y-61035771D02*
X134619048Y-60845295D01*
X134619048Y-60845295D02*
X134666667Y-60750057D01*
X134666667Y-60750057D02*
X134714286Y-60702438D01*
X134714286Y-60702438D02*
X134809524Y-60654819D01*
X49666666Y-60654819D02*
X49666666Y-61369104D01*
X49666666Y-61369104D02*
X49619047Y-61511961D01*
X49619047Y-61511961D02*
X49523809Y-61607200D01*
X49523809Y-61607200D02*
X49380952Y-61654819D01*
X49380952Y-61654819D02*
X49285714Y-61654819D01*
X50285714Y-61083390D02*
X50190476Y-61035771D01*
X50190476Y-61035771D02*
X50142857Y-60988152D01*
X50142857Y-60988152D02*
X50095238Y-60892914D01*
X50095238Y-60892914D02*
X50095238Y-60845295D01*
X50095238Y-60845295D02*
X50142857Y-60750057D01*
X50142857Y-60750057D02*
X50190476Y-60702438D01*
X50190476Y-60702438D02*
X50285714Y-60654819D01*
X50285714Y-60654819D02*
X50476190Y-60654819D01*
X50476190Y-60654819D02*
X50571428Y-60702438D01*
X50571428Y-60702438D02*
X50619047Y-60750057D01*
X50619047Y-60750057D02*
X50666666Y-60845295D01*
X50666666Y-60845295D02*
X50666666Y-60892914D01*
X50666666Y-60892914D02*
X50619047Y-60988152D01*
X50619047Y-60988152D02*
X50571428Y-61035771D01*
X50571428Y-61035771D02*
X50476190Y-61083390D01*
X50476190Y-61083390D02*
X50285714Y-61083390D01*
X50285714Y-61083390D02*
X50190476Y-61131009D01*
X50190476Y-61131009D02*
X50142857Y-61178628D01*
X50142857Y-61178628D02*
X50095238Y-61273866D01*
X50095238Y-61273866D02*
X50095238Y-61464342D01*
X50095238Y-61464342D02*
X50142857Y-61559580D01*
X50142857Y-61559580D02*
X50190476Y-61607200D01*
X50190476Y-61607200D02*
X50285714Y-61654819D01*
X50285714Y-61654819D02*
X50476190Y-61654819D01*
X50476190Y-61654819D02*
X50571428Y-61607200D01*
X50571428Y-61607200D02*
X50619047Y-61559580D01*
X50619047Y-61559580D02*
X50666666Y-61464342D01*
X50666666Y-61464342D02*
X50666666Y-61273866D01*
X50666666Y-61273866D02*
X50619047Y-61178628D01*
X50619047Y-61178628D02*
X50571428Y-61131009D01*
X50571428Y-61131009D02*
X50476190Y-61083390D01*
X100833333Y-81454819D02*
X100357143Y-81454819D01*
X100357143Y-81454819D02*
X100357143Y-80454819D01*
X101309524Y-80883390D02*
X101214286Y-80835771D01*
X101214286Y-80835771D02*
X101166667Y-80788152D01*
X101166667Y-80788152D02*
X101119048Y-80692914D01*
X101119048Y-80692914D02*
X101119048Y-80645295D01*
X101119048Y-80645295D02*
X101166667Y-80550057D01*
X101166667Y-80550057D02*
X101214286Y-80502438D01*
X101214286Y-80502438D02*
X101309524Y-80454819D01*
X101309524Y-80454819D02*
X101500000Y-80454819D01*
X101500000Y-80454819D02*
X101595238Y-80502438D01*
X101595238Y-80502438D02*
X101642857Y-80550057D01*
X101642857Y-80550057D02*
X101690476Y-80645295D01*
X101690476Y-80645295D02*
X101690476Y-80692914D01*
X101690476Y-80692914D02*
X101642857Y-80788152D01*
X101642857Y-80788152D02*
X101595238Y-80835771D01*
X101595238Y-80835771D02*
X101500000Y-80883390D01*
X101500000Y-80883390D02*
X101309524Y-80883390D01*
X101309524Y-80883390D02*
X101214286Y-80931009D01*
X101214286Y-80931009D02*
X101166667Y-80978628D01*
X101166667Y-80978628D02*
X101119048Y-81073866D01*
X101119048Y-81073866D02*
X101119048Y-81264342D01*
X101119048Y-81264342D02*
X101166667Y-81359580D01*
X101166667Y-81359580D02*
X101214286Y-81407200D01*
X101214286Y-81407200D02*
X101309524Y-81454819D01*
X101309524Y-81454819D02*
X101500000Y-81454819D01*
X101500000Y-81454819D02*
X101595238Y-81407200D01*
X101595238Y-81407200D02*
X101642857Y-81359580D01*
X101642857Y-81359580D02*
X101690476Y-81264342D01*
X101690476Y-81264342D02*
X101690476Y-81073866D01*
X101690476Y-81073866D02*
X101642857Y-80978628D01*
X101642857Y-80978628D02*
X101595238Y-80931009D01*
X101595238Y-80931009D02*
X101500000Y-80883390D01*
X60454819Y-46166666D02*
X60454819Y-46642856D01*
X60454819Y-46642856D02*
X59454819Y-46642856D01*
X60454819Y-45309523D02*
X60454819Y-45880951D01*
X60454819Y-45595237D02*
X59454819Y-45595237D01*
X59454819Y-45595237D02*
X59597676Y-45690475D01*
X59597676Y-45690475D02*
X59692914Y-45785713D01*
X59692914Y-45785713D02*
X59740533Y-45880951D01*
X41954819Y-52443333D02*
X42669104Y-52443333D01*
X42669104Y-52443333D02*
X42811961Y-52490952D01*
X42811961Y-52490952D02*
X42907200Y-52586190D01*
X42907200Y-52586190D02*
X42954819Y-52729047D01*
X42954819Y-52729047D02*
X42954819Y-52824285D01*
X42954819Y-51443333D02*
X42954819Y-52014761D01*
X42954819Y-51729047D02*
X41954819Y-51729047D01*
X41954819Y-51729047D02*
X42097676Y-51824285D01*
X42097676Y-51824285D02*
X42192914Y-51919523D01*
X42192914Y-51919523D02*
X42240533Y-52014761D01*
X147833333Y-53359580D02*
X147785714Y-53407200D01*
X147785714Y-53407200D02*
X147642857Y-53454819D01*
X147642857Y-53454819D02*
X147547619Y-53454819D01*
X147547619Y-53454819D02*
X147404762Y-53407200D01*
X147404762Y-53407200D02*
X147309524Y-53311961D01*
X147309524Y-53311961D02*
X147261905Y-53216723D01*
X147261905Y-53216723D02*
X147214286Y-53026247D01*
X147214286Y-53026247D02*
X147214286Y-52883390D01*
X147214286Y-52883390D02*
X147261905Y-52692914D01*
X147261905Y-52692914D02*
X147309524Y-52597676D01*
X147309524Y-52597676D02*
X147404762Y-52502438D01*
X147404762Y-52502438D02*
X147547619Y-52454819D01*
X147547619Y-52454819D02*
X147642857Y-52454819D01*
X147642857Y-52454819D02*
X147785714Y-52502438D01*
X147785714Y-52502438D02*
X147833333Y-52550057D01*
X148738095Y-52454819D02*
X148261905Y-52454819D01*
X148261905Y-52454819D02*
X148214286Y-52931009D01*
X148214286Y-52931009D02*
X148261905Y-52883390D01*
X148261905Y-52883390D02*
X148357143Y-52835771D01*
X148357143Y-52835771D02*
X148595238Y-52835771D01*
X148595238Y-52835771D02*
X148690476Y-52883390D01*
X148690476Y-52883390D02*
X148738095Y-52931009D01*
X148738095Y-52931009D02*
X148785714Y-53026247D01*
X148785714Y-53026247D02*
X148785714Y-53264342D01*
X148785714Y-53264342D02*
X148738095Y-53359580D01*
X148738095Y-53359580D02*
X148690476Y-53407200D01*
X148690476Y-53407200D02*
X148595238Y-53454819D01*
X148595238Y-53454819D02*
X148357143Y-53454819D01*
X148357143Y-53454819D02*
X148261905Y-53407200D01*
X148261905Y-53407200D02*
X148214286Y-53359580D01*
X167359580Y-84532857D02*
X167407200Y-84580476D01*
X167407200Y-84580476D02*
X167454819Y-84723333D01*
X167454819Y-84723333D02*
X167454819Y-84818571D01*
X167454819Y-84818571D02*
X167407200Y-84961428D01*
X167407200Y-84961428D02*
X167311961Y-85056666D01*
X167311961Y-85056666D02*
X167216723Y-85104285D01*
X167216723Y-85104285D02*
X167026247Y-85151904D01*
X167026247Y-85151904D02*
X166883390Y-85151904D01*
X166883390Y-85151904D02*
X166692914Y-85104285D01*
X166692914Y-85104285D02*
X166597676Y-85056666D01*
X166597676Y-85056666D02*
X166502438Y-84961428D01*
X166502438Y-84961428D02*
X166454819Y-84818571D01*
X166454819Y-84818571D02*
X166454819Y-84723333D01*
X166454819Y-84723333D02*
X166502438Y-84580476D01*
X166502438Y-84580476D02*
X166550057Y-84532857D01*
X167454819Y-83580476D02*
X167454819Y-84151904D01*
X167454819Y-83866190D02*
X166454819Y-83866190D01*
X166454819Y-83866190D02*
X166597676Y-83961428D01*
X166597676Y-83961428D02*
X166692914Y-84056666D01*
X166692914Y-84056666D02*
X166740533Y-84151904D01*
X166454819Y-82961428D02*
X166454819Y-82866190D01*
X166454819Y-82866190D02*
X166502438Y-82770952D01*
X166502438Y-82770952D02*
X166550057Y-82723333D01*
X166550057Y-82723333D02*
X166645295Y-82675714D01*
X166645295Y-82675714D02*
X166835771Y-82628095D01*
X166835771Y-82628095D02*
X167073866Y-82628095D01*
X167073866Y-82628095D02*
X167264342Y-82675714D01*
X167264342Y-82675714D02*
X167359580Y-82723333D01*
X167359580Y-82723333D02*
X167407200Y-82770952D01*
X167407200Y-82770952D02*
X167454819Y-82866190D01*
X167454819Y-82866190D02*
X167454819Y-82961428D01*
X167454819Y-82961428D02*
X167407200Y-83056666D01*
X167407200Y-83056666D02*
X167359580Y-83104285D01*
X167359580Y-83104285D02*
X167264342Y-83151904D01*
X167264342Y-83151904D02*
X167073866Y-83199523D01*
X167073866Y-83199523D02*
X166835771Y-83199523D01*
X166835771Y-83199523D02*
X166645295Y-83151904D01*
X166645295Y-83151904D02*
X166550057Y-83104285D01*
X166550057Y-83104285D02*
X166502438Y-83056666D01*
X166502438Y-83056666D02*
X166454819Y-82961428D01*
X184666666Y-92654819D02*
X184666666Y-93369104D01*
X184666666Y-93369104D02*
X184619047Y-93511961D01*
X184619047Y-93511961D02*
X184523809Y-93607200D01*
X184523809Y-93607200D02*
X184380952Y-93654819D01*
X184380952Y-93654819D02*
X184285714Y-93654819D01*
X185571428Y-92654819D02*
X185380952Y-92654819D01*
X185380952Y-92654819D02*
X185285714Y-92702438D01*
X185285714Y-92702438D02*
X185238095Y-92750057D01*
X185238095Y-92750057D02*
X185142857Y-92892914D01*
X185142857Y-92892914D02*
X185095238Y-93083390D01*
X185095238Y-93083390D02*
X185095238Y-93464342D01*
X185095238Y-93464342D02*
X185142857Y-93559580D01*
X185142857Y-93559580D02*
X185190476Y-93607200D01*
X185190476Y-93607200D02*
X185285714Y-93654819D01*
X185285714Y-93654819D02*
X185476190Y-93654819D01*
X185476190Y-93654819D02*
X185571428Y-93607200D01*
X185571428Y-93607200D02*
X185619047Y-93559580D01*
X185619047Y-93559580D02*
X185666666Y-93464342D01*
X185666666Y-93464342D02*
X185666666Y-93226247D01*
X185666666Y-93226247D02*
X185619047Y-93131009D01*
X185619047Y-93131009D02*
X185571428Y-93083390D01*
X185571428Y-93083390D02*
X185476190Y-93035771D01*
X185476190Y-93035771D02*
X185285714Y-93035771D01*
X185285714Y-93035771D02*
X185190476Y-93083390D01*
X185190476Y-93083390D02*
X185142857Y-93131009D01*
X185142857Y-93131009D02*
X185095238Y-93226247D01*
X69833333Y-53359580D02*
X69785714Y-53407200D01*
X69785714Y-53407200D02*
X69642857Y-53454819D01*
X69642857Y-53454819D02*
X69547619Y-53454819D01*
X69547619Y-53454819D02*
X69404762Y-53407200D01*
X69404762Y-53407200D02*
X69309524Y-53311961D01*
X69309524Y-53311961D02*
X69261905Y-53216723D01*
X69261905Y-53216723D02*
X69214286Y-53026247D01*
X69214286Y-53026247D02*
X69214286Y-52883390D01*
X69214286Y-52883390D02*
X69261905Y-52692914D01*
X69261905Y-52692914D02*
X69309524Y-52597676D01*
X69309524Y-52597676D02*
X69404762Y-52502438D01*
X69404762Y-52502438D02*
X69547619Y-52454819D01*
X69547619Y-52454819D02*
X69642857Y-52454819D01*
X69642857Y-52454819D02*
X69785714Y-52502438D01*
X69785714Y-52502438D02*
X69833333Y-52550057D01*
X70214286Y-52550057D02*
X70261905Y-52502438D01*
X70261905Y-52502438D02*
X70357143Y-52454819D01*
X70357143Y-52454819D02*
X70595238Y-52454819D01*
X70595238Y-52454819D02*
X70690476Y-52502438D01*
X70690476Y-52502438D02*
X70738095Y-52550057D01*
X70738095Y-52550057D02*
X70785714Y-52645295D01*
X70785714Y-52645295D02*
X70785714Y-52740533D01*
X70785714Y-52740533D02*
X70738095Y-52883390D01*
X70738095Y-52883390D02*
X70166667Y-53454819D01*
X70166667Y-53454819D02*
X70785714Y-53454819D01*
X116359580Y-83166666D02*
X116407200Y-83214285D01*
X116407200Y-83214285D02*
X116454819Y-83357142D01*
X116454819Y-83357142D02*
X116454819Y-83452380D01*
X116454819Y-83452380D02*
X116407200Y-83595237D01*
X116407200Y-83595237D02*
X116311961Y-83690475D01*
X116311961Y-83690475D02*
X116216723Y-83738094D01*
X116216723Y-83738094D02*
X116026247Y-83785713D01*
X116026247Y-83785713D02*
X115883390Y-83785713D01*
X115883390Y-83785713D02*
X115692914Y-83738094D01*
X115692914Y-83738094D02*
X115597676Y-83690475D01*
X115597676Y-83690475D02*
X115502438Y-83595237D01*
X115502438Y-83595237D02*
X115454819Y-83452380D01*
X115454819Y-83452380D02*
X115454819Y-83357142D01*
X115454819Y-83357142D02*
X115502438Y-83214285D01*
X115502438Y-83214285D02*
X115550057Y-83166666D01*
X115883390Y-82595237D02*
X115835771Y-82690475D01*
X115835771Y-82690475D02*
X115788152Y-82738094D01*
X115788152Y-82738094D02*
X115692914Y-82785713D01*
X115692914Y-82785713D02*
X115645295Y-82785713D01*
X115645295Y-82785713D02*
X115550057Y-82738094D01*
X115550057Y-82738094D02*
X115502438Y-82690475D01*
X115502438Y-82690475D02*
X115454819Y-82595237D01*
X115454819Y-82595237D02*
X115454819Y-82404761D01*
X115454819Y-82404761D02*
X115502438Y-82309523D01*
X115502438Y-82309523D02*
X115550057Y-82261904D01*
X115550057Y-82261904D02*
X115645295Y-82214285D01*
X115645295Y-82214285D02*
X115692914Y-82214285D01*
X115692914Y-82214285D02*
X115788152Y-82261904D01*
X115788152Y-82261904D02*
X115835771Y-82309523D01*
X115835771Y-82309523D02*
X115883390Y-82404761D01*
X115883390Y-82404761D02*
X115883390Y-82595237D01*
X115883390Y-82595237D02*
X115931009Y-82690475D01*
X115931009Y-82690475D02*
X115978628Y-82738094D01*
X115978628Y-82738094D02*
X116073866Y-82785713D01*
X116073866Y-82785713D02*
X116264342Y-82785713D01*
X116264342Y-82785713D02*
X116359580Y-82738094D01*
X116359580Y-82738094D02*
X116407200Y-82690475D01*
X116407200Y-82690475D02*
X116454819Y-82595237D01*
X116454819Y-82595237D02*
X116454819Y-82404761D01*
X116454819Y-82404761D02*
X116407200Y-82309523D01*
X116407200Y-82309523D02*
X116359580Y-82261904D01*
X116359580Y-82261904D02*
X116264342Y-82214285D01*
X116264342Y-82214285D02*
X116073866Y-82214285D01*
X116073866Y-82214285D02*
X115978628Y-82261904D01*
X115978628Y-82261904D02*
X115931009Y-82309523D01*
X115931009Y-82309523D02*
X115883390Y-82404761D01*
X137359580Y-83056666D02*
X137407200Y-83104285D01*
X137407200Y-83104285D02*
X137454819Y-83247142D01*
X137454819Y-83247142D02*
X137454819Y-83342380D01*
X137454819Y-83342380D02*
X137407200Y-83485237D01*
X137407200Y-83485237D02*
X137311961Y-83580475D01*
X137311961Y-83580475D02*
X137216723Y-83628094D01*
X137216723Y-83628094D02*
X137026247Y-83675713D01*
X137026247Y-83675713D02*
X136883390Y-83675713D01*
X136883390Y-83675713D02*
X136692914Y-83628094D01*
X136692914Y-83628094D02*
X136597676Y-83580475D01*
X136597676Y-83580475D02*
X136502438Y-83485237D01*
X136502438Y-83485237D02*
X136454819Y-83342380D01*
X136454819Y-83342380D02*
X136454819Y-83247142D01*
X136454819Y-83247142D02*
X136502438Y-83104285D01*
X136502438Y-83104285D02*
X136550057Y-83056666D01*
X137454819Y-82580475D02*
X137454819Y-82389999D01*
X137454819Y-82389999D02*
X137407200Y-82294761D01*
X137407200Y-82294761D02*
X137359580Y-82247142D01*
X137359580Y-82247142D02*
X137216723Y-82151904D01*
X137216723Y-82151904D02*
X137026247Y-82104285D01*
X137026247Y-82104285D02*
X136645295Y-82104285D01*
X136645295Y-82104285D02*
X136550057Y-82151904D01*
X136550057Y-82151904D02*
X136502438Y-82199523D01*
X136502438Y-82199523D02*
X136454819Y-82294761D01*
X136454819Y-82294761D02*
X136454819Y-82485237D01*
X136454819Y-82485237D02*
X136502438Y-82580475D01*
X136502438Y-82580475D02*
X136550057Y-82628094D01*
X136550057Y-82628094D02*
X136645295Y-82675713D01*
X136645295Y-82675713D02*
X136883390Y-82675713D01*
X136883390Y-82675713D02*
X136978628Y-82628094D01*
X136978628Y-82628094D02*
X137026247Y-82580475D01*
X137026247Y-82580475D02*
X137073866Y-82485237D01*
X137073866Y-82485237D02*
X137073866Y-82294761D01*
X137073866Y-82294761D02*
X137026247Y-82199523D01*
X137026247Y-82199523D02*
X136978628Y-82151904D01*
X136978628Y-82151904D02*
X136883390Y-82104285D01*
X158454819Y-45166666D02*
X158454819Y-45642856D01*
X158454819Y-45642856D02*
X157454819Y-45642856D01*
X157454819Y-44357142D02*
X157454819Y-44833332D01*
X157454819Y-44833332D02*
X157931009Y-44880951D01*
X157931009Y-44880951D02*
X157883390Y-44833332D01*
X157883390Y-44833332D02*
X157835771Y-44738094D01*
X157835771Y-44738094D02*
X157835771Y-44499999D01*
X157835771Y-44499999D02*
X157883390Y-44404761D01*
X157883390Y-44404761D02*
X157931009Y-44357142D01*
X157931009Y-44357142D02*
X158026247Y-44309523D01*
X158026247Y-44309523D02*
X158264342Y-44309523D01*
X158264342Y-44309523D02*
X158359580Y-44357142D01*
X158359580Y-44357142D02*
X158407200Y-44404761D01*
X158407200Y-44404761D02*
X158454819Y-44499999D01*
X158454819Y-44499999D02*
X158454819Y-44738094D01*
X158454819Y-44738094D02*
X158407200Y-44833332D01*
X158407200Y-44833332D02*
X158359580Y-44880951D01*
X110454819Y-46166666D02*
X110454819Y-46642856D01*
X110454819Y-46642856D02*
X109454819Y-46642856D01*
X109454819Y-45928570D02*
X109454819Y-45309523D01*
X109454819Y-45309523D02*
X109835771Y-45642856D01*
X109835771Y-45642856D02*
X109835771Y-45499999D01*
X109835771Y-45499999D02*
X109883390Y-45404761D01*
X109883390Y-45404761D02*
X109931009Y-45357142D01*
X109931009Y-45357142D02*
X110026247Y-45309523D01*
X110026247Y-45309523D02*
X110264342Y-45309523D01*
X110264342Y-45309523D02*
X110359580Y-45357142D01*
X110359580Y-45357142D02*
X110407200Y-45404761D01*
X110407200Y-45404761D02*
X110454819Y-45499999D01*
X110454819Y-45499999D02*
X110454819Y-45785713D01*
X110454819Y-45785713D02*
X110407200Y-45880951D01*
X110407200Y-45880951D02*
X110359580Y-45928570D01*
X98943333Y-53359580D02*
X98895714Y-53407200D01*
X98895714Y-53407200D02*
X98752857Y-53454819D01*
X98752857Y-53454819D02*
X98657619Y-53454819D01*
X98657619Y-53454819D02*
X98514762Y-53407200D01*
X98514762Y-53407200D02*
X98419524Y-53311961D01*
X98419524Y-53311961D02*
X98371905Y-53216723D01*
X98371905Y-53216723D02*
X98324286Y-53026247D01*
X98324286Y-53026247D02*
X98324286Y-52883390D01*
X98324286Y-52883390D02*
X98371905Y-52692914D01*
X98371905Y-52692914D02*
X98419524Y-52597676D01*
X98419524Y-52597676D02*
X98514762Y-52502438D01*
X98514762Y-52502438D02*
X98657619Y-52454819D01*
X98657619Y-52454819D02*
X98752857Y-52454819D01*
X98752857Y-52454819D02*
X98895714Y-52502438D01*
X98895714Y-52502438D02*
X98943333Y-52550057D01*
X99276667Y-52454819D02*
X99895714Y-52454819D01*
X99895714Y-52454819D02*
X99562381Y-52835771D01*
X99562381Y-52835771D02*
X99705238Y-52835771D01*
X99705238Y-52835771D02*
X99800476Y-52883390D01*
X99800476Y-52883390D02*
X99848095Y-52931009D01*
X99848095Y-52931009D02*
X99895714Y-53026247D01*
X99895714Y-53026247D02*
X99895714Y-53264342D01*
X99895714Y-53264342D02*
X99848095Y-53359580D01*
X99848095Y-53359580D02*
X99800476Y-53407200D01*
X99800476Y-53407200D02*
X99705238Y-53454819D01*
X99705238Y-53454819D02*
X99419524Y-53454819D01*
X99419524Y-53454819D02*
X99324286Y-53407200D01*
X99324286Y-53407200D02*
X99276667Y-53359580D01*
X35666666Y-92654819D02*
X35666666Y-93369104D01*
X35666666Y-93369104D02*
X35619047Y-93511961D01*
X35619047Y-93511961D02*
X35523809Y-93607200D01*
X35523809Y-93607200D02*
X35380952Y-93654819D01*
X35380952Y-93654819D02*
X35285714Y-93654819D01*
X36571428Y-92988152D02*
X36571428Y-93654819D01*
X36333333Y-92607200D02*
X36095238Y-93321485D01*
X36095238Y-93321485D02*
X36714285Y-93321485D01*
X95666666Y-60654819D02*
X95666666Y-61369104D01*
X95666666Y-61369104D02*
X95619047Y-61511961D01*
X95619047Y-61511961D02*
X95523809Y-61607200D01*
X95523809Y-61607200D02*
X95380952Y-61654819D01*
X95380952Y-61654819D02*
X95285714Y-61654819D01*
X96190476Y-61654819D02*
X96380952Y-61654819D01*
X96380952Y-61654819D02*
X96476190Y-61607200D01*
X96476190Y-61607200D02*
X96523809Y-61559580D01*
X96523809Y-61559580D02*
X96619047Y-61416723D01*
X96619047Y-61416723D02*
X96666666Y-61226247D01*
X96666666Y-61226247D02*
X96666666Y-60845295D01*
X96666666Y-60845295D02*
X96619047Y-60750057D01*
X96619047Y-60750057D02*
X96571428Y-60702438D01*
X96571428Y-60702438D02*
X96476190Y-60654819D01*
X96476190Y-60654819D02*
X96285714Y-60654819D01*
X96285714Y-60654819D02*
X96190476Y-60702438D01*
X96190476Y-60702438D02*
X96142857Y-60750057D01*
X96142857Y-60750057D02*
X96095238Y-60845295D01*
X96095238Y-60845295D02*
X96095238Y-61083390D01*
X96095238Y-61083390D02*
X96142857Y-61178628D01*
X96142857Y-61178628D02*
X96190476Y-61226247D01*
X96190476Y-61226247D02*
X96285714Y-61273866D01*
X96285714Y-61273866D02*
X96476190Y-61273866D01*
X96476190Y-61273866D02*
X96571428Y-61226247D01*
X96571428Y-61226247D02*
X96619047Y-61178628D01*
X96619047Y-61178628D02*
X96666666Y-61083390D01*
D12*
%TO.C,L10*%
X43640000Y-80000000D02*
X44440000Y-80000000D01*
X44440000Y-75130000D02*
X44440000Y-84870000D01*
X44440000Y-84870000D02*
X53900000Y-84870000D01*
X53900000Y-75130000D02*
X44440000Y-75130000D01*
X53900000Y-84870000D02*
X53900000Y-75130000D01*
X54800000Y-80000000D02*
X54000000Y-80000000D01*
%TO.C,C6*%
D10*
X61600000Y-81290000D02*
X68400000Y-81290000D01*
X68400000Y-88490000D01*
X61600000Y-88490000D01*
X61600000Y-81290000D01*
%TO.C,C4*%
X123600000Y-50040000D02*
X116400000Y-50040000D01*
X116400000Y-56840000D01*
X123600000Y-56840000D01*
X123600000Y-50040000D01*
D12*
%TO.C,L2*%
X78080000Y-43440000D02*
X78880000Y-43440000D01*
X78880000Y-38570000D02*
X78880000Y-48310000D01*
X78880000Y-48310000D02*
X88340000Y-48310000D01*
X88340000Y-38570000D02*
X78880000Y-38570000D01*
X88340000Y-48310000D02*
X88340000Y-38570000D01*
X89240000Y-43440000D02*
X88440000Y-43440000D01*
%TO.C,J3*%
X188500000Y-71500000D02*
X188500000Y-89200000D01*
X174000000Y-71500000D02*
X188500000Y-71500000D01*
X188500000Y-89200000D02*
X174000000Y-89200000D01*
X174000000Y-89200000D02*
X174000000Y-71500000D01*
%TO.C,L4*%
X127727500Y-43440000D02*
X128527500Y-43440000D01*
X128527500Y-38570000D02*
X128527500Y-48310000D01*
X128527500Y-48310000D02*
X137987500Y-48310000D01*
X137987500Y-38570000D02*
X128527500Y-38570000D01*
X137987500Y-48310000D02*
X137987500Y-38570000D01*
X138887500Y-43440000D02*
X138087500Y-43440000D01*
%TO.C,J2*%
X188500000Y-42150000D02*
X188500000Y-59850000D01*
X174000000Y-42150000D02*
X188500000Y-42150000D01*
X188500000Y-59850000D02*
X174000000Y-59850000D01*
X174000000Y-59850000D02*
X174000000Y-42150000D01*
%TO.C,L6*%
X145727500Y-80000000D02*
X146527500Y-80000000D01*
X146527500Y-75130000D02*
X146527500Y-84870000D01*
X146527500Y-84870000D02*
X155987500Y-84870000D01*
X155987500Y-75130000D02*
X146527500Y-75130000D01*
X155987500Y-84870000D02*
X155987500Y-75130000D01*
X156887500Y-80000000D02*
X156087500Y-80000000D01*
%TO.C,L7*%
X126000000Y-89272500D02*
X126000000Y-88472500D01*
X121130000Y-88472500D02*
X130870000Y-88472500D01*
X130870000Y-88472500D02*
X130870000Y-79012500D01*
X121130000Y-79012500D02*
X121130000Y-88472500D01*
X130870000Y-79012500D02*
X121130000Y-79012500D01*
X126000000Y-78112500D02*
X126000000Y-78912500D01*
%TO.C,C1*%
D10*
X54600000Y-50040000D02*
X47400000Y-50040000D01*
X47400000Y-56840000D01*
X54600000Y-56840000D01*
X54600000Y-50040000D01*
%TO.C,C7*%
X82587500Y-81290000D02*
X89387500Y-81290000D01*
X89387500Y-88490000D01*
X82587500Y-88490000D01*
X82587500Y-81290000D01*
D12*
%TO.C,L9*%
X77000000Y-90360000D02*
X77000000Y-89560000D01*
X72130000Y-89560000D02*
X81870000Y-89560000D01*
X81870000Y-89560000D02*
X81870000Y-80100000D01*
X72130000Y-80100000D02*
X72130000Y-89560000D01*
X81870000Y-80100000D02*
X72130000Y-80100000D01*
X77000000Y-79200000D02*
X77000000Y-80000000D01*
%TO.C,L8*%
X95727500Y-81000000D02*
X96527500Y-81000000D01*
X96527500Y-76130000D02*
X96527500Y-85870000D01*
X96527500Y-85870000D02*
X105987500Y-85870000D01*
X105987500Y-76130000D02*
X96527500Y-76130000D01*
X105987500Y-85870000D02*
X105987500Y-76130000D01*
X106887500Y-81000000D02*
X106087500Y-81000000D01*
%TO.C,L1*%
X60000000Y-52360000D02*
X60000000Y-51560000D01*
X55130000Y-51560000D02*
X64870000Y-51560000D01*
X64870000Y-51560000D02*
X64870000Y-42100000D01*
X55130000Y-42100000D02*
X55130000Y-51560000D01*
X64870000Y-42100000D02*
X55130000Y-42100000D01*
X60000000Y-41200000D02*
X60000000Y-42000000D01*
%TO.C,J1*%
X45000000Y-39610000D02*
X32000000Y-39610000D01*
X32000000Y-39610000D02*
X32000000Y-64610000D01*
X45000000Y-64610000D02*
X45000000Y-39610000D01*
X32000000Y-64610000D02*
X45000000Y-64610000D01*
%TO.C,C5*%
D10*
X151710000Y-50040000D02*
X144510000Y-50040000D01*
X144510000Y-56840000D01*
X151710000Y-56840000D01*
X151710000Y-50040000D01*
%TO.C,C10*%
X163587500Y-80290000D02*
X170387500Y-80290000D01*
X170387500Y-87490000D01*
X163587500Y-87490000D01*
X163587500Y-80290000D01*
%TO.C,C2*%
X73600000Y-50040000D02*
X66400000Y-50040000D01*
X66400000Y-56840000D01*
X73600000Y-56840000D01*
X73600000Y-50040000D01*
%TO.C,C8*%
X112600000Y-79290000D02*
X119400000Y-79290000D01*
X119400000Y-86490000D01*
X112600000Y-86490000D01*
X112600000Y-79290000D01*
%TO.C,C9*%
X133587500Y-79290000D02*
X140387500Y-79290000D01*
X140387500Y-86490000D01*
X133587500Y-86490000D01*
X133587500Y-79290000D01*
D12*
%TO.C,L5*%
X158000000Y-51272500D02*
X158000000Y-50472500D01*
X153130000Y-50472500D02*
X162870000Y-50472500D01*
X162870000Y-50472500D02*
X162870000Y-41012500D01*
X153130000Y-41012500D02*
X153130000Y-50472500D01*
X162870000Y-41012500D02*
X153130000Y-41012500D01*
X158000000Y-40112500D02*
X158000000Y-40912500D01*
%TO.C,L3*%
X110000000Y-52360000D02*
X110000000Y-51560000D01*
X105130000Y-51560000D02*
X114870000Y-51560000D01*
X114870000Y-51560000D02*
X114870000Y-42100000D01*
X105130000Y-42100000D02*
X105130000Y-51560000D01*
X114870000Y-42100000D02*
X105130000Y-42100000D01*
X110000000Y-41200000D02*
X110000000Y-42000000D01*
%TO.C,C3*%
D10*
X102710000Y-50040000D02*
X95510000Y-50040000D01*
X95510000Y-56840000D01*
X102710000Y-56840000D01*
X102710000Y-50040000D01*
%TD*%
M02*
