%TF.GenerationSoftware,KiCad,Pcbnew,8.0.6-8.0.6-0~ubuntu24.04.1*%
%TF.CreationDate,2024-10-29T10:15:36+01:00*%
%TF.ProjectId,diplexer,6469706c-6578-4657-922e-6b696361645f,rev?*%
%TF.SameCoordinates,Original*%
%TF.FileFunction,Copper,L1,Top*%
%TF.FilePolarity,Positive*%
%FSLAX46Y46*%
G04 Gerber Fmt 4.6, Leading zero omitted, Abs format (unit mm)*
G04 Created by KiCad (PCBNEW 8.0.6-8.0.6-0~ubuntu24.04.1) date 2024-10-29 10:15:36*
%MOMM*%
%LPD*%
G01*
G04 APERTURE LIST*
%TA.AperFunction,SMDPad,CuDef*%
%ADD10R,3.180000X1.190000*%
%TD*%
%TA.AperFunction,ComponentPad*%
%ADD11C,3.000000*%
%TD*%
%TA.AperFunction,SMDPad,CuDef*%
%ADD12R,1.190000X3.180000*%
%TD*%
%TA.AperFunction,ComponentPad*%
%ADD13C,5.600000*%
%TD*%
%TA.AperFunction,SMDPad,CuDef*%
%ADD14R,5.000000X5.000000*%
%TD*%
%TA.AperFunction,SMDPad,CuDef*%
%ADD15R,4.000000X4.000000*%
%TD*%
%TA.AperFunction,Conductor*%
%ADD16C,2.390000*%
%TD*%
%TA.AperFunction,Conductor*%
%ADD17C,1.189800*%
%TD*%
G04 APERTURE END LIST*
D10*
%TO.P,C17,1*%
%TO.N,Net-(C17-Pad1)*%
X90425000Y-99267000D03*
%TO.P,C17,2*%
%TO.N,GND*%
X90425000Y-102089000D03*
%TD*%
D11*
%TO.P,L10,1,1*%
%TO.N,Net-(J1-In)*%
X45225000Y-98075000D03*
%TO.P,L10,2,2*%
%TO.N,Net-(C16-Pad1)*%
X59825000Y-98075000D03*
%TD*%
D10*
%TO.P,C6,1*%
%TO.N,GND*%
X65175000Y-101708000D03*
%TO.P,C6,2*%
%TO.N,Net-(C16-Pad1)*%
X65175000Y-98886000D03*
%TD*%
D12*
%TO.P,C14,1*%
%TO.N,Net-(C13-Pad2)*%
X121339000Y-65775000D03*
%TO.P,C14,2*%
%TO.N,Net-(C14-Pad2)*%
X124161000Y-65775000D03*
%TD*%
%TO.P,C4,1*%
%TO.N,Net-(C13-Pad2)*%
X121279000Y-70200000D03*
%TO.P,C4,2*%
%TO.N,Net-(C14-Pad2)*%
X124101000Y-70200000D03*
%TD*%
D13*
%TO.P,J5,1,Pin_1*%
%TO.N,GND*%
X36500000Y-47500000D03*
%TD*%
D10*
%TO.P,C19,1*%
%TO.N,Net-(C19-Pad1)*%
X140275000Y-99385000D03*
%TO.P,C19,2*%
%TO.N,GND*%
X140275000Y-102207000D03*
%TD*%
D11*
%TO.P,L2,1,1*%
%TO.N,Net-(C12-Pad2)*%
X77340000Y-57940000D03*
%TO.P,L2,2,2*%
%TO.N,GND*%
X91940000Y-57940000D03*
%TD*%
D14*
%TO.P,J3,1,In*%
%TO.N,Net-(J3-In)*%
X184000000Y-94850000D03*
%TO.P,J3,2,Ext*%
%TO.N,GND*%
X184000000Y-103960000D03*
%TO.P,J3,3*%
X184000000Y-85750000D03*
%TD*%
D11*
%TO.P,L4,1,1*%
%TO.N,Net-(C14-Pad2)*%
X126987500Y-57940000D03*
%TO.P,L4,2,2*%
%TO.N,GND*%
X141587500Y-57940000D03*
%TD*%
D15*
%TO.P,J2,1,In*%
%TO.N,Net-(J2-In)*%
X176500000Y-63890000D03*
%TO.P,J2,2,Ext*%
%TO.N,GND*%
X185500000Y-57540000D03*
%TO.P,J2,3*%
X185500000Y-70240000D03*
%TD*%
D12*
%TO.P,C13,1*%
%TO.N,Net-(C12-Pad2)*%
X95603000Y-69764000D03*
%TO.P,C13,2*%
%TO.N,Net-(C13-Pad2)*%
X98425000Y-69764000D03*
%TD*%
D11*
%TO.P,L6,1,1*%
%TO.N,Net-(C19-Pad1)*%
X144900000Y-98825000D03*
%TO.P,L6,2,2*%
%TO.N,Net-(J3-In)*%
X159500000Y-98825000D03*
%TD*%
D13*
%TO.P,J7,1,Pin_1*%
%TO.N,GND*%
X185500000Y-47500000D03*
%TD*%
D11*
%TO.P,L7,1,1*%
%TO.N,Net-(C18-Pad1)*%
X128000000Y-105012500D03*
%TO.P,L7,2,2*%
%TO.N,Net-(C19-Pad1)*%
X128000000Y-90412500D03*
%TD*%
D12*
%TO.P,C1,1*%
%TO.N,Net-(J1-In)*%
X49125000Y-66122000D03*
%TO.P,C1,2*%
%TO.N,Net-(C1-Pad2)*%
X51947000Y-66122000D03*
%TD*%
D10*
%TO.P,C7,1*%
%TO.N,GND*%
X85625000Y-101989000D03*
%TO.P,C7,2*%
%TO.N,Net-(C17-Pad1)*%
X85625000Y-99167000D03*
%TD*%
D11*
%TO.P,L9,1,1*%
%TO.N,Net-(C16-Pad1)*%
X77500000Y-106100000D03*
%TO.P,L9,2,2*%
%TO.N,Net-(C17-Pad1)*%
X77500000Y-91500000D03*
%TD*%
D13*
%TO.P,J11,1,Pin_1*%
%TO.N,GND*%
X185500000Y-79500000D03*
%TD*%
%TO.P,J10,1,Pin_1*%
%TO.N,GND*%
X134500000Y-79500000D03*
%TD*%
%TO.P,J8,1,Pin_1*%
%TO.N,GND*%
X50500000Y-79500000D03*
%TD*%
D11*
%TO.P,L8,1,1*%
%TO.N,Net-(C17-Pad1)*%
X95250000Y-97875000D03*
%TO.P,L8,2,2*%
%TO.N,Net-(C18-Pad1)*%
X109850000Y-97875000D03*
%TD*%
D12*
%TO.P,C15,1*%
%TO.N,Net-(C14-Pad2)*%
X145975000Y-69825000D03*
%TO.P,C15,2*%
%TO.N,Net-(J2-In)*%
X148797000Y-69825000D03*
%TD*%
D10*
%TO.P,C20,1*%
%TO.N,Net-(J3-In)*%
X169900000Y-99003000D03*
%TO.P,C20,2*%
%TO.N,GND*%
X169900000Y-101825000D03*
%TD*%
D12*
%TO.P,C11,1*%
%TO.N,Net-(J1-In)*%
X49035000Y-70322000D03*
%TO.P,C11,2*%
%TO.N,Net-(C1-Pad2)*%
X51857000Y-70322000D03*
%TD*%
D11*
%TO.P,L1,1,1*%
%TO.N,Net-(C1-Pad2)*%
X60500000Y-68100000D03*
%TO.P,L1,2,2*%
%TO.N,GND*%
X60500000Y-53500000D03*
%TD*%
D14*
%TO.P,J1,1,In*%
%TO.N,Net-(J1-In)*%
X37400000Y-80110000D03*
%TO.P,J1,2,Ext*%
%TO.N,GND*%
X37400000Y-71000000D03*
%TO.P,J1,3*%
X37400000Y-89210000D03*
%TD*%
D12*
%TO.P,C5,1*%
%TO.N,Net-(C14-Pad2)*%
X146050000Y-65250000D03*
%TO.P,C5,2*%
%TO.N,Net-(J2-In)*%
X148872000Y-65250000D03*
%TD*%
D10*
%TO.P,C10,1*%
%TO.N,GND*%
X165025000Y-101786000D03*
%TO.P,C10,2*%
%TO.N,Net-(J3-In)*%
X165025000Y-98964000D03*
%TD*%
D13*
%TO.P,J6,1,Pin_1*%
%TO.N,GND*%
X185500000Y-111500000D03*
%TD*%
D12*
%TO.P,C2,1*%
%TO.N,Net-(C1-Pad2)*%
X71229000Y-70200000D03*
%TO.P,C2,2*%
%TO.N,Net-(C12-Pad2)*%
X74051000Y-70200000D03*
%TD*%
D10*
%TO.P,C18,1*%
%TO.N,Net-(C18-Pad1)*%
X119575000Y-99339000D03*
%TO.P,C18,2*%
%TO.N,GND*%
X119575000Y-102161000D03*
%TD*%
%TO.P,C8,1*%
%TO.N,GND*%
X114775000Y-101961000D03*
%TO.P,C8,2*%
%TO.N,Net-(C18-Pad1)*%
X114775000Y-99139000D03*
%TD*%
%TO.P,C9,1*%
%TO.N,GND*%
X135500000Y-102186000D03*
%TO.P,C9,2*%
%TO.N,Net-(C19-Pad1)*%
X135500000Y-99364000D03*
%TD*%
D12*
%TO.P,C12,1*%
%TO.N,Net-(C1-Pad2)*%
X71325000Y-65800000D03*
%TO.P,C12,2*%
%TO.N,Net-(C12-Pad2)*%
X74147000Y-65800000D03*
%TD*%
D11*
%TO.P,L5,1,1*%
%TO.N,Net-(J2-In)*%
X158500000Y-67012500D03*
%TO.P,L5,2,2*%
%TO.N,GND*%
X158500000Y-52412500D03*
%TD*%
D10*
%TO.P,C16,1*%
%TO.N,Net-(C16-Pad1)*%
X69800000Y-98900000D03*
%TO.P,C16,2*%
%TO.N,GND*%
X69800000Y-101722000D03*
%TD*%
D11*
%TO.P,L3,1,1*%
%TO.N,Net-(C13-Pad2)*%
X110500000Y-68100000D03*
%TO.P,L3,2,2*%
%TO.N,GND*%
X110500000Y-53500000D03*
%TD*%
D12*
%TO.P,C3,1*%
%TO.N,Net-(C12-Pad2)*%
X95618000Y-65329000D03*
%TO.P,C3,2*%
%TO.N,Net-(C13-Pad2)*%
X98440000Y-65329000D03*
%TD*%
D13*
%TO.P,J4,1,Pin_1*%
%TO.N,GND*%
X36500000Y-111500000D03*
%TD*%
%TO.P,J9,1,Pin_1*%
%TO.N,GND*%
X96500000Y-79500000D03*
%TD*%
D16*
%TO.N,Net-(C16-Pad1)*%
X64840000Y-98486000D02*
X60236000Y-98486000D01*
X60236000Y-98486000D02*
X59825000Y-98075000D01*
X77500000Y-106100000D02*
X77500000Y-102555000D01*
X77500000Y-102555000D02*
X73335000Y-98390000D01*
X73335000Y-98390000D02*
X70310000Y-98390000D01*
X70310000Y-98390000D02*
X69800000Y-98900000D01*
%TO.N,Net-(C14-Pad2)*%
X125055500Y-68050000D02*
X127146000Y-65959500D01*
X127146000Y-65959500D02*
X127146000Y-61635200D01*
D17*
X124161000Y-65775000D02*
X125055500Y-66669500D01*
X125055500Y-66669500D02*
X125055500Y-69245500D01*
X125055500Y-69245500D02*
X124101000Y-70200000D01*
D16*
%TO.N,Net-(C13-Pad2)*%
X121279000Y-70200000D02*
X119179000Y-68100000D01*
X119179000Y-68100000D02*
X118294000Y-68100000D01*
X118294000Y-68100000D02*
X119014000Y-68100000D01*
X119014000Y-68100000D02*
X120807000Y-66307000D01*
%TO.N,Net-(C17-Pad1)*%
X85600000Y-98578000D02*
X85600000Y-97085500D01*
%TO.N,Net-(J1-In)*%
X48556800Y-70322000D02*
X48556800Y-66690200D01*
%TO.N,Net-(C12-Pad2)*%
X78974300Y-65733800D02*
X75705700Y-65733800D01*
X75705700Y-65733800D02*
X75639500Y-65800000D01*
%TO.N,Net-(C14-Pad2)*%
X141242800Y-61635200D02*
X128300800Y-61635200D01*
X144857600Y-65250000D02*
X141242800Y-61635200D01*
%TO.N,Net-(J2-In)*%
X148872000Y-65250000D02*
X151857000Y-65250000D01*
X151782000Y-68850000D02*
X151782000Y-69825000D01*
X153619500Y-67012500D02*
X151782000Y-68850000D01*
X153619500Y-67012500D02*
X151857000Y-65250000D01*
X148797000Y-69825000D02*
X151782000Y-69825000D01*
X153619500Y-67012500D02*
X158500000Y-67012500D01*
X168987500Y-67012500D02*
X172110000Y-63890000D01*
X158500000Y-67012500D02*
X168987500Y-67012500D01*
X176500000Y-63890000D02*
X172110000Y-63890000D01*
%TO.N,Net-(C19-Pad1)*%
X135475000Y-98775000D02*
X135475000Y-97282500D01*
X136270000Y-98077500D02*
X136270000Y-98796000D01*
X135475000Y-97282500D02*
X136270000Y-98077500D01*
X140250000Y-98796000D02*
X136270000Y-98796000D01*
X144871000Y-98796000D02*
X140250000Y-98796000D01*
X144900000Y-98825000D02*
X144871000Y-98796000D01*
X128605000Y-90412500D02*
X135475000Y-97282500D01*
X128000000Y-90412500D02*
X128605000Y-90412500D01*
%TO.N,Net-(C18-Pad1)*%
X119350000Y-98550000D02*
X119550000Y-98750000D01*
X114750000Y-98550000D02*
X119350000Y-98550000D01*
X110095000Y-97875000D02*
X110770000Y-98550000D01*
X109850000Y-97875000D02*
X110095000Y-97875000D01*
X114750000Y-98550000D02*
X110770000Y-98550000D01*
X128000000Y-103220000D02*
X123530000Y-98750000D01*
X128000000Y-105012500D02*
X128000000Y-103220000D01*
X119550000Y-98750000D02*
X123530000Y-98750000D01*
%TO.N,Net-(C17-Pad1)*%
X95250000Y-97875000D02*
X90400000Y-97875000D01*
X90400000Y-98678000D02*
X90400000Y-97875000D01*
X81507000Y-91500000D02*
X85600000Y-95593000D01*
X77500000Y-91500000D02*
X81507000Y-91500000D01*
X85600000Y-97085500D02*
X85600000Y-95593000D01*
X89610500Y-97085500D02*
X90400000Y-97875000D01*
X85600000Y-97085500D02*
X89610500Y-97085500D01*
%TO.N,Net-(C16-Pad1)*%
X69465000Y-98500000D02*
X65485000Y-98500000D01*
%TO.N,Net-(C14-Pad2)*%
X144857600Y-65250000D02*
X144857600Y-68707600D01*
D17*
X146050000Y-65250000D02*
X144857600Y-65250000D01*
X144857600Y-68707600D02*
X145975000Y-69825000D01*
X127146000Y-61635200D02*
X128300800Y-61635200D01*
D16*
X127146000Y-58098500D02*
X127146000Y-61635200D01*
X126987500Y-57940000D02*
X127146000Y-58098500D01*
D17*
%TO.N,Net-(C13-Pad2)*%
X98440000Y-69749000D02*
X98425000Y-69764000D01*
X98440000Y-68708900D02*
X98440000Y-69749000D01*
X98440000Y-65329000D02*
X98440000Y-68100000D01*
X98440000Y-68100000D02*
X98440000Y-68708900D01*
D16*
X98440000Y-68100000D02*
X110500000Y-68100000D01*
D17*
X119014000Y-68100000D02*
X121339000Y-65775000D01*
D16*
X110500000Y-68100000D02*
X118294000Y-68100000D01*
%TO.N,Net-(C12-Pad2)*%
X74147000Y-65800000D02*
X75639500Y-65800000D01*
X75639500Y-68611500D02*
X74051000Y-70200000D01*
X75639500Y-65800000D02*
X75639500Y-68611500D01*
X77340000Y-57940000D02*
X77340000Y-64099500D01*
X95618000Y-65329000D02*
X95213200Y-65733800D01*
D17*
X95603000Y-69764000D02*
X95603000Y-66384100D01*
D16*
X78974300Y-65733800D02*
X77340000Y-64099500D01*
X95213200Y-65733800D02*
X78974300Y-65733800D01*
D17*
X95213200Y-65994300D02*
X95603000Y-66384100D01*
X95213200Y-65733800D02*
X95213200Y-65994300D01*
D16*
%TO.N,Net-(J3-In)*%
X159500000Y-98825000D02*
X159500000Y-98406800D01*
D17*
X161588300Y-98406800D02*
X161620100Y-98375000D01*
X159500000Y-98406800D02*
X161588300Y-98406800D01*
D16*
X170454000Y-94850000D02*
X169875000Y-95429000D01*
X184000000Y-94850000D02*
X170454000Y-94850000D01*
D17*
X163310100Y-98375000D02*
X161620100Y-98375000D01*
D16*
X163310100Y-98375000D02*
X165000000Y-98375000D01*
X168980000Y-98180200D02*
X169875000Y-97285200D01*
X168980000Y-98375000D02*
X168980000Y-98180200D01*
X169875000Y-98414000D02*
X169875000Y-97285200D01*
X169875000Y-97285200D02*
X169875000Y-95429000D01*
X165000000Y-98375000D02*
X168980000Y-98375000D01*
%TO.N,Net-(J1-In)*%
X42290000Y-76320800D02*
X48288800Y-70322000D01*
X42290000Y-80110000D02*
X42290000Y-76320800D01*
X37400000Y-80110000D02*
X42290000Y-80110000D01*
X45225000Y-83045000D02*
X42290000Y-80110000D01*
X45225000Y-98075000D02*
X45225000Y-83045000D01*
X48661900Y-70322000D02*
X48556800Y-70322000D01*
X48556800Y-70322000D02*
X48288800Y-70322000D01*
D17*
X48556800Y-66690200D02*
X49125000Y-66122000D01*
X48556800Y-69132200D02*
X48556800Y-66690200D01*
%TO.N,Net-(C1-Pad2)*%
X51947000Y-66852100D02*
X51857000Y-66942100D01*
X51947000Y-66122000D02*
X51947000Y-66852100D01*
X51857000Y-70322000D02*
X51857000Y-66942100D01*
D16*
X60500000Y-68100000D02*
X60500000Y-67952300D01*
X58669700Y-66122000D02*
X51947000Y-66122000D01*
X60500000Y-67952300D02*
X58669700Y-66122000D01*
D17*
X69172700Y-67952300D02*
X71325000Y-65800000D01*
D16*
X60500000Y-67952300D02*
X69172700Y-67952300D01*
D17*
X69172700Y-68143700D02*
X71229000Y-70200000D01*
X69172700Y-67952300D02*
X69172700Y-68143700D01*
%TD*%
%TA.AperFunction,Conductor*%
%TO.N,GND*%
G36*
X188442539Y-29320185D02*
G01*
X188488294Y-29372989D01*
X188499500Y-29424500D01*
X188499500Y-90972078D01*
X188479815Y-91039117D01*
X188427011Y-91084872D01*
X188357853Y-91094816D01*
X188294297Y-91065791D01*
X188272111Y-91040538D01*
X188271170Y-91039117D01*
X188253414Y-91012301D01*
X188144273Y-90887499D01*
X188059471Y-90790528D01*
X187837700Y-90596587D01*
X187837699Y-90596586D01*
X187592057Y-90433933D01*
X187592055Y-90433932D01*
X187592052Y-90433930D01*
X187326930Y-90305474D01*
X187326926Y-90305472D01*
X187326922Y-90305470D01*
X187326918Y-90305469D01*
X187047049Y-90213498D01*
X187047039Y-90213496D01*
X186757385Y-90159645D01*
X186584112Y-90149500D01*
X181415888Y-90149500D01*
X181242614Y-90159645D01*
X180952960Y-90213496D01*
X180952950Y-90213498D01*
X180673081Y-90305469D01*
X180673069Y-90305474D01*
X180407947Y-90433930D01*
X180162299Y-90596587D01*
X179940528Y-90790528D01*
X179746587Y-91012299D01*
X179583930Y-91257947D01*
X179522580Y-91384568D01*
X179475634Y-91436316D01*
X179410989Y-91454500D01*
X170287190Y-91454500D01*
X170211466Y-91461957D01*
X169955176Y-91487199D01*
X169791571Y-91519743D01*
X169698537Y-91538248D01*
X169627973Y-91552284D01*
X169308705Y-91649133D01*
X169000492Y-91776800D01*
X169000478Y-91776807D01*
X168706258Y-91934070D01*
X168706249Y-91934075D01*
X168428880Y-92119406D01*
X168428857Y-92119423D01*
X168170966Y-92331070D01*
X167356070Y-93145965D01*
X167144422Y-93403858D01*
X167144413Y-93403870D01*
X167034839Y-93567862D01*
X167034839Y-93567863D01*
X166959074Y-93681252D01*
X166959063Y-93681270D01*
X166801807Y-93975478D01*
X166801800Y-93975492D01*
X166674132Y-94283709D01*
X166577286Y-94602969D01*
X166522242Y-94879692D01*
X166489857Y-94941603D01*
X166429141Y-94976177D01*
X166400625Y-94979500D01*
X165166810Y-94979500D01*
X163143290Y-94979500D01*
X163053988Y-94988295D01*
X162811278Y-95012199D01*
X162484069Y-95077286D01*
X162164809Y-95174132D01*
X161856592Y-95301800D01*
X161856578Y-95301807D01*
X161562363Y-95459067D01*
X161562349Y-95459075D01*
X161450143Y-95534049D01*
X161383466Y-95554926D01*
X161316086Y-95536441D01*
X161312363Y-95534048D01*
X161247750Y-95490875D01*
X161247741Y-95490870D01*
X161216297Y-95474063D01*
X160953514Y-95333603D01*
X160923624Y-95321222D01*
X160645290Y-95205932D01*
X160370722Y-95122643D01*
X160326034Y-95109087D01*
X160326031Y-95109086D01*
X160326030Y-95109086D01*
X159998821Y-95043999D01*
X159764907Y-95020961D01*
X159666810Y-95011300D01*
X159333190Y-95011300D01*
X159243888Y-95020095D01*
X159001178Y-95043999D01*
X158673969Y-95109086D01*
X158354709Y-95205932D01*
X158046492Y-95333600D01*
X158046478Y-95333607D01*
X157752270Y-95490863D01*
X157752252Y-95490874D01*
X157474872Y-95676214D01*
X157474858Y-95676224D01*
X157216972Y-95887865D01*
X157094127Y-96010708D01*
X157084484Y-96019391D01*
X157020490Y-96071213D01*
X157020479Y-96071223D01*
X156746222Y-96345480D01*
X156746215Y-96345488D01*
X156502122Y-96646917D01*
X156290877Y-96972206D01*
X156114787Y-97317802D01*
X155975788Y-97679905D01*
X155875397Y-98054570D01*
X155875397Y-98054572D01*
X155814722Y-98437660D01*
X155803833Y-98645427D01*
X155794422Y-98825000D01*
X155814722Y-99212338D01*
X155875398Y-99595433D01*
X155964453Y-99927793D01*
X155975788Y-99970094D01*
X156114787Y-100332197D01*
X156290877Y-100677793D01*
X156502122Y-101003082D01*
X156567752Y-101084128D01*
X156746219Y-101304516D01*
X157020484Y-101578781D01*
X157136480Y-101672713D01*
X157321917Y-101822877D01*
X157647206Y-102034122D01*
X157647211Y-102034125D01*
X157992806Y-102210214D01*
X158354913Y-102349214D01*
X158729567Y-102449602D01*
X159112662Y-102510278D01*
X159478576Y-102529455D01*
X159499999Y-102530578D01*
X159500000Y-102530578D01*
X159500001Y-102530578D01*
X159520301Y-102529514D01*
X159887338Y-102510278D01*
X160270433Y-102449602D01*
X160645087Y-102349214D01*
X161007194Y-102210214D01*
X161352789Y-102034125D01*
X161678084Y-101822876D01*
X161979516Y-101578781D01*
X161979522Y-101578775D01*
X161981943Y-101576596D01*
X161983312Y-101578117D01*
X162037090Y-101547885D01*
X162106838Y-101552009D01*
X162112396Y-101554157D01*
X162164800Y-101575864D01*
X162164805Y-101575865D01*
X162164811Y-101575868D01*
X162484066Y-101672713D01*
X162811276Y-101737800D01*
X163143290Y-101770500D01*
X164833190Y-101770500D01*
X167945149Y-101770500D01*
X167967812Y-101772588D01*
X168052610Y-101788354D01*
X168225888Y-101798500D01*
X169590411Y-101798500D01*
X169602564Y-101799096D01*
X169708190Y-101809500D01*
X169708193Y-101809500D01*
X170041807Y-101809500D01*
X170041810Y-101809500D01*
X170147435Y-101799096D01*
X170159589Y-101798500D01*
X171574112Y-101798500D01*
X171747390Y-101788354D01*
X172037039Y-101734504D01*
X172037046Y-101734501D01*
X172037049Y-101734501D01*
X172143253Y-101699600D01*
X172316926Y-101642528D01*
X172582057Y-101514067D01*
X172827699Y-101351414D01*
X173049471Y-101157471D01*
X173243414Y-100935699D01*
X173406067Y-100690057D01*
X173534528Y-100424926D01*
X173626504Y-100145039D01*
X173680354Y-99855390D01*
X173690500Y-99682112D01*
X173690500Y-98369500D01*
X173710185Y-98302461D01*
X173762989Y-98256706D01*
X173814500Y-98245500D01*
X179410989Y-98245500D01*
X179478028Y-98265185D01*
X179522580Y-98315432D01*
X179583930Y-98442052D01*
X179583932Y-98442055D01*
X179583933Y-98442057D01*
X179718599Y-98645433D01*
X179746587Y-98687700D01*
X179940528Y-98909471D01*
X180067017Y-99020087D01*
X180162301Y-99103414D01*
X180407943Y-99266067D01*
X180673074Y-99394528D01*
X180764928Y-99424713D01*
X180952950Y-99486501D01*
X180952954Y-99486501D01*
X180952961Y-99486504D01*
X181242610Y-99540354D01*
X181415888Y-99550500D01*
X186584112Y-99550500D01*
X186757390Y-99540354D01*
X187047039Y-99486504D01*
X187047046Y-99486501D01*
X187047049Y-99486501D01*
X187134570Y-99457739D01*
X187326926Y-99394528D01*
X187592057Y-99266067D01*
X187837699Y-99103414D01*
X188059471Y-98909471D01*
X188253414Y-98687699D01*
X188272112Y-98659459D01*
X188325535Y-98614433D01*
X188394823Y-98605436D01*
X188457976Y-98635327D01*
X188494943Y-98694615D01*
X188499500Y-98727921D01*
X188499500Y-129175500D01*
X188479815Y-129242539D01*
X188427011Y-129288294D01*
X188375500Y-129299500D01*
X32624500Y-129299500D01*
X32557461Y-129279815D01*
X32511706Y-129227011D01*
X32500500Y-129175500D01*
X32500500Y-83087805D01*
X32520185Y-83020766D01*
X32572989Y-82975011D01*
X32642147Y-82965067D01*
X32705703Y-82994092D01*
X32743477Y-83052870D01*
X32746409Y-83065132D01*
X32763496Y-83157039D01*
X32763498Y-83157049D01*
X32855469Y-83436918D01*
X32855474Y-83436930D01*
X32983930Y-83702052D01*
X33146587Y-83947700D01*
X33340528Y-84169471D01*
X33512846Y-84320165D01*
X33562301Y-84363414D01*
X33807943Y-84526067D01*
X34073074Y-84654528D01*
X34164928Y-84684713D01*
X34352950Y-84746501D01*
X34352954Y-84746501D01*
X34352961Y-84746504D01*
X34642610Y-84800354D01*
X34815888Y-84810500D01*
X39984112Y-84810500D01*
X40157390Y-84800354D01*
X40447039Y-84746504D01*
X40447046Y-84746501D01*
X40447049Y-84746501D01*
X40534570Y-84717739D01*
X40726926Y-84654528D01*
X40992057Y-84526067D01*
X41237699Y-84363414D01*
X41419137Y-84204743D01*
X41482556Y-84175431D01*
X41551760Y-84185059D01*
X41588444Y-84210406D01*
X41793181Y-84415143D01*
X41826666Y-84476466D01*
X41829500Y-84502824D01*
X41829500Y-96571618D01*
X41821264Y-96616056D01*
X41700788Y-96929905D01*
X41600397Y-97304570D01*
X41600397Y-97304572D01*
X41539722Y-97687660D01*
X41519422Y-98074999D01*
X41519422Y-98075000D01*
X41539722Y-98462339D01*
X41600397Y-98845427D01*
X41600397Y-98845429D01*
X41700788Y-99220094D01*
X41839787Y-99582197D01*
X42015877Y-99927793D01*
X42227122Y-100253082D01*
X42366279Y-100424926D01*
X42471219Y-100554516D01*
X42745484Y-100828781D01*
X42745488Y-100828784D01*
X43046917Y-101072877D01*
X43335388Y-101260212D01*
X43372211Y-101284125D01*
X43717806Y-101460214D01*
X44079913Y-101599214D01*
X44454567Y-101699602D01*
X44837662Y-101760278D01*
X45203576Y-101779455D01*
X45224999Y-101780578D01*
X45225000Y-101780578D01*
X45225001Y-101780578D01*
X45245301Y-101779514D01*
X45612338Y-101760278D01*
X45995433Y-101699602D01*
X46370087Y-101599214D01*
X46732194Y-101460214D01*
X47077789Y-101284125D01*
X47403084Y-101072876D01*
X47704516Y-100828781D01*
X47978781Y-100554516D01*
X48222876Y-100253084D01*
X48434125Y-99927789D01*
X48610214Y-99582194D01*
X48749214Y-99220087D01*
X48849602Y-98845433D01*
X48910278Y-98462338D01*
X48930578Y-98075000D01*
X48930578Y-98074999D01*
X56119422Y-98074999D01*
X56119422Y-98075000D01*
X56139722Y-98462339D01*
X56200397Y-98845427D01*
X56200397Y-98845429D01*
X56300788Y-99220094D01*
X56439787Y-99582197D01*
X56615877Y-99927793D01*
X56827122Y-100253082D01*
X56966279Y-100424926D01*
X57071219Y-100554516D01*
X57345484Y-100828781D01*
X57345488Y-100828784D01*
X57646917Y-101072877D01*
X57935388Y-101260212D01*
X57972211Y-101284125D01*
X58317806Y-101460214D01*
X58679913Y-101599214D01*
X59054567Y-101699602D01*
X59209630Y-101724160D01*
X59226201Y-101727968D01*
X59409966Y-101783714D01*
X59571925Y-101815929D01*
X59737176Y-101848800D01*
X60039420Y-101878568D01*
X60039419Y-101878568D01*
X60049343Y-101879545D01*
X60069189Y-101881500D01*
X60069190Y-101881500D01*
X60069191Y-101881500D01*
X65006807Y-101881500D01*
X65006810Y-101881500D01*
X65079273Y-101874363D01*
X65103579Y-101874363D01*
X65114494Y-101875438D01*
X65318190Y-101895500D01*
X68170065Y-101895500D01*
X68228518Y-101910142D01*
X68346478Y-101973193D01*
X68346480Y-101973193D01*
X68346486Y-101973197D01*
X68654711Y-102100868D01*
X68973966Y-102197713D01*
X68973972Y-102197714D01*
X68973975Y-102197715D01*
X68973986Y-102197718D01*
X69179158Y-102238528D01*
X69301176Y-102262799D01*
X69633189Y-102295500D01*
X69633192Y-102295500D01*
X69966808Y-102295500D01*
X69966811Y-102295500D01*
X70298824Y-102262799D01*
X70460782Y-102230583D01*
X70626013Y-102197718D01*
X70626024Y-102197715D01*
X70626024Y-102197714D01*
X70626034Y-102197713D01*
X70945289Y-102100868D01*
X71253514Y-101973197D01*
X71486244Y-101848800D01*
X71547745Y-101815927D01*
X71547745Y-101815925D01*
X71557363Y-101809500D01*
X71562008Y-101806397D01*
X71628686Y-101785520D01*
X71630897Y-101785500D01*
X71877175Y-101785500D01*
X71944214Y-101805185D01*
X71964856Y-101821819D01*
X74068181Y-103925143D01*
X74101666Y-103986466D01*
X74104500Y-104012824D01*
X74104500Y-104596618D01*
X74096264Y-104641056D01*
X73975788Y-104954905D01*
X73875397Y-105329570D01*
X73875397Y-105329572D01*
X73814722Y-105712662D01*
X73794422Y-106100000D01*
X73814722Y-106487338D01*
X73875398Y-106870433D01*
X73961181Y-107190582D01*
X73975788Y-107245094D01*
X74114787Y-107607197D01*
X74290877Y-107952793D01*
X74502122Y-108278082D01*
X74711556Y-108536711D01*
X74746219Y-108579516D01*
X75020484Y-108853781D01*
X75020488Y-108853784D01*
X75321917Y-109097877D01*
X75647206Y-109309122D01*
X75647211Y-109309125D01*
X75992806Y-109485214D01*
X76354913Y-109624214D01*
X76729567Y-109724602D01*
X77112662Y-109785278D01*
X77478576Y-109804455D01*
X77499999Y-109805578D01*
X77500000Y-109805578D01*
X77500001Y-109805578D01*
X77520301Y-109804514D01*
X77887338Y-109785278D01*
X78270433Y-109724602D01*
X78645087Y-109624214D01*
X79007194Y-109485214D01*
X79352789Y-109309125D01*
X79678084Y-109097876D01*
X79979516Y-108853781D01*
X80253781Y-108579516D01*
X80497876Y-108278084D01*
X80709125Y-107952789D01*
X80885214Y-107607194D01*
X81024214Y-107245087D01*
X81124602Y-106870433D01*
X81185278Y-106487338D01*
X81205578Y-106100000D01*
X81185278Y-105712662D01*
X81124602Y-105329567D01*
X81024214Y-104954913D01*
X80903736Y-104641056D01*
X80895500Y-104596618D01*
X80895500Y-102388193D01*
X80875174Y-102181819D01*
X80862800Y-102056176D01*
X80805176Y-101766486D01*
X80797713Y-101728965D01*
X80700868Y-101409711D01*
X80573197Y-101101486D01*
X80563917Y-101084125D01*
X80415930Y-100807259D01*
X80304820Y-100640972D01*
X80230580Y-100529863D01*
X80018933Y-100271971D01*
X80018932Y-100271970D01*
X80018928Y-100271965D01*
X75618034Y-95871070D01*
X75360141Y-95659422D01*
X75360129Y-95659413D01*
X75173568Y-95534758D01*
X75173567Y-95534758D01*
X75082747Y-95474074D01*
X75082746Y-95474073D01*
X75082741Y-95474070D01*
X75082736Y-95474067D01*
X75082729Y-95474063D01*
X74849052Y-95349161D01*
X74788514Y-95316803D01*
X74788507Y-95316800D01*
X74480290Y-95189132D01*
X74216416Y-95109087D01*
X74161034Y-95092287D01*
X74161031Y-95092286D01*
X74161030Y-95092286D01*
X73833826Y-95027200D01*
X73833813Y-95027198D01*
X73585041Y-95002696D01*
X73531579Y-94997431D01*
X73531577Y-94997430D01*
X73501811Y-94994500D01*
X73501810Y-94994500D01*
X70476811Y-94994500D01*
X70143189Y-94994500D01*
X70113421Y-94997430D01*
X70113420Y-94997431D01*
X70064301Y-95002268D01*
X69811186Y-95027198D01*
X69811173Y-95027200D01*
X69559380Y-95077286D01*
X69492950Y-95090500D01*
X69489071Y-95091271D01*
X69483967Y-95092286D01*
X69483960Y-95092288D01*
X69461304Y-95099161D01*
X69425311Y-95104500D01*
X65318190Y-95104500D01*
X65288444Y-95107429D01*
X65245725Y-95111636D01*
X65221420Y-95111636D01*
X65148962Y-95104500D01*
X65006810Y-95090500D01*
X65006807Y-95090500D01*
X62060412Y-95090500D01*
X61993373Y-95070815D01*
X61992877Y-95070495D01*
X61677793Y-94865877D01*
X61332197Y-94689787D01*
X60970094Y-94550788D01*
X60772627Y-94497877D01*
X60595433Y-94450398D01*
X60595429Y-94450397D01*
X60595428Y-94450397D01*
X60212339Y-94389722D01*
X59825001Y-94369422D01*
X59824999Y-94369422D01*
X59437660Y-94389722D01*
X59054572Y-94450397D01*
X59054570Y-94450397D01*
X58679905Y-94550788D01*
X58317802Y-94689787D01*
X57972206Y-94865877D01*
X57646917Y-95077122D01*
X57345488Y-95321215D01*
X57345480Y-95321222D01*
X57071222Y-95595480D01*
X57071215Y-95595488D01*
X56827122Y-95896917D01*
X56615877Y-96222206D01*
X56439787Y-96567802D01*
X56300788Y-96929905D01*
X56200397Y-97304570D01*
X56200397Y-97304572D01*
X56139722Y-97687660D01*
X56119422Y-98074999D01*
X48930578Y-98074999D01*
X48910278Y-97687662D01*
X48849602Y-97304567D01*
X48749214Y-96929913D01*
X48628736Y-96616056D01*
X48620500Y-96571618D01*
X48620500Y-91499999D01*
X73794422Y-91499999D01*
X73794422Y-91500000D01*
X73814722Y-91887339D01*
X73822124Y-91934075D01*
X73875398Y-92270433D01*
X73961181Y-92590582D01*
X73975788Y-92645094D01*
X74114787Y-93007197D01*
X74290877Y-93352793D01*
X74502122Y-93678082D01*
X74669383Y-93884632D01*
X74746219Y-93979516D01*
X75020484Y-94253781D01*
X75140275Y-94350786D01*
X75321917Y-94497877D01*
X75617433Y-94689787D01*
X75647211Y-94709125D01*
X75754058Y-94763566D01*
X75976924Y-94877122D01*
X75992806Y-94885214D01*
X76354913Y-95024214D01*
X76729567Y-95124602D01*
X77112662Y-95185278D01*
X77478576Y-95204455D01*
X77499999Y-95205578D01*
X77500000Y-95205578D01*
X77500001Y-95205578D01*
X77520301Y-95204514D01*
X77887338Y-95185278D01*
X78270433Y-95124602D01*
X78645087Y-95024214D01*
X78958943Y-94903736D01*
X79003381Y-94895500D01*
X80049175Y-94895500D01*
X80116214Y-94915185D01*
X80136856Y-94931819D01*
X82168181Y-96963143D01*
X82201666Y-97024466D01*
X82204500Y-97050824D01*
X82204500Y-97313385D01*
X82184815Y-97380424D01*
X82183889Y-97381844D01*
X82118933Y-97479941D01*
X82118930Y-97479946D01*
X81990474Y-97745069D01*
X81990469Y-97745081D01*
X81898498Y-98024950D01*
X81898496Y-98024960D01*
X81844645Y-98314614D01*
X81834500Y-98487887D01*
X81834500Y-99846112D01*
X81844645Y-100019385D01*
X81898496Y-100309039D01*
X81898498Y-100309049D01*
X81990469Y-100588918D01*
X81990474Y-100588930D01*
X82118930Y-100854052D01*
X82118932Y-100854055D01*
X82118933Y-100854057D01*
X82271272Y-101084123D01*
X82281587Y-101099700D01*
X82475528Y-101321471D01*
X82589878Y-101421471D01*
X82697301Y-101515414D01*
X82942943Y-101678067D01*
X83208074Y-101806528D01*
X83257822Y-101822876D01*
X83487950Y-101898501D01*
X83487954Y-101898501D01*
X83487961Y-101898504D01*
X83777610Y-101952354D01*
X83950888Y-101962500D01*
X85315411Y-101962500D01*
X85327564Y-101963096D01*
X85433190Y-101973500D01*
X85433193Y-101973500D01*
X85766807Y-101973500D01*
X85766810Y-101973500D01*
X85872435Y-101963096D01*
X85884589Y-101962500D01*
X87299112Y-101962500D01*
X87472390Y-101952354D01*
X87762039Y-101898504D01*
X87851129Y-101869226D01*
X87920960Y-101866998D01*
X87943902Y-101875435D01*
X88008074Y-101906528D01*
X88099928Y-101936713D01*
X88287950Y-101998501D01*
X88287954Y-101998501D01*
X88287961Y-101998504D01*
X88577610Y-102052354D01*
X88750888Y-102062500D01*
X90115411Y-102062500D01*
X90127564Y-102063096D01*
X90233190Y-102073500D01*
X90233193Y-102073500D01*
X90566807Y-102073500D01*
X90566810Y-102073500D01*
X90672435Y-102063096D01*
X90684589Y-102062500D01*
X92099112Y-102062500D01*
X92272390Y-102052354D01*
X92562039Y-101998504D01*
X92562046Y-101998501D01*
X92562049Y-101998501D01*
X92723332Y-101945500D01*
X92841926Y-101906528D01*
X93107057Y-101778067D01*
X93352699Y-101615414D01*
X93574471Y-101421471D01*
X93665381Y-101317515D01*
X93724329Y-101280010D01*
X93794198Y-101280328D01*
X93803143Y-101283375D01*
X94104913Y-101399214D01*
X94479567Y-101499602D01*
X94862662Y-101560278D01*
X95228576Y-101579455D01*
X95249999Y-101580578D01*
X95250000Y-101580578D01*
X95250001Y-101580578D01*
X95270301Y-101579514D01*
X95637338Y-101560278D01*
X96020433Y-101499602D01*
X96395087Y-101399214D01*
X96757194Y-101260214D01*
X97102789Y-101084125D01*
X97428084Y-100872876D01*
X97729516Y-100628781D01*
X98003781Y-100354516D01*
X98247876Y-100053084D01*
X98459125Y-99727789D01*
X98635214Y-99382194D01*
X98774214Y-99020087D01*
X98874602Y-98645433D01*
X98935278Y-98262338D01*
X98955578Y-97875000D01*
X98955578Y-97874999D01*
X106144422Y-97874999D01*
X106144422Y-97875000D01*
X106164722Y-98262339D01*
X106196399Y-98462338D01*
X106225398Y-98645433D01*
X106273512Y-98824999D01*
X106325788Y-99020094D01*
X106464787Y-99382197D01*
X106640877Y-99727793D01*
X106852122Y-100053082D01*
X106984367Y-100216390D01*
X107096219Y-100354516D01*
X107370484Y-100628781D01*
X107370488Y-100628784D01*
X107671917Y-100872877D01*
X107997206Y-101084122D01*
X107997211Y-101084125D01*
X108342806Y-101260214D01*
X108704913Y-101399214D01*
X109077199Y-101498967D01*
X109103550Y-101509381D01*
X109316486Y-101623197D01*
X109624711Y-101750868D01*
X109943966Y-101847713D01*
X110271176Y-101912800D01*
X110573420Y-101942568D01*
X110573419Y-101942568D01*
X110583343Y-101943545D01*
X110603189Y-101945500D01*
X110603190Y-101945500D01*
X114583190Y-101945500D01*
X117061449Y-101945500D01*
X117115516Y-101957908D01*
X117158074Y-101978528D01*
X117301161Y-102025549D01*
X117437950Y-102070501D01*
X117437954Y-102070501D01*
X117437961Y-102070504D01*
X117727610Y-102124354D01*
X117900888Y-102134500D01*
X119265411Y-102134500D01*
X119277565Y-102135097D01*
X119353420Y-102142568D01*
X119353419Y-102142568D01*
X119363343Y-102143545D01*
X119383189Y-102145500D01*
X119383190Y-102145500D01*
X122072175Y-102145500D01*
X122139214Y-102165185D01*
X122159856Y-102181819D01*
X124309489Y-104331451D01*
X124342974Y-104392774D01*
X124344281Y-104438530D01*
X124314722Y-104625160D01*
X124294422Y-105012499D01*
X124294422Y-105012500D01*
X124314722Y-105399839D01*
X124375397Y-105782927D01*
X124375397Y-105782929D01*
X124475788Y-106157594D01*
X124614787Y-106519697D01*
X124790877Y-106865293D01*
X125002122Y-107190582D01*
X125046265Y-107245094D01*
X125246219Y-107492016D01*
X125520484Y-107766281D01*
X125520488Y-107766284D01*
X125821917Y-108010377D01*
X126147206Y-108221622D01*
X126147211Y-108221625D01*
X126492806Y-108397714D01*
X126854913Y-108536714D01*
X127229567Y-108637102D01*
X127612662Y-108697778D01*
X127978576Y-108716955D01*
X127999999Y-108718078D01*
X128000000Y-108718078D01*
X128000001Y-108718078D01*
X128020301Y-108717014D01*
X128387338Y-108697778D01*
X128770433Y-108637102D01*
X129145087Y-108536714D01*
X129507194Y-108397714D01*
X129852789Y-108221625D01*
X130178084Y-108010376D01*
X130479516Y-107766281D01*
X130753781Y-107492016D01*
X130997876Y-107190584D01*
X131209125Y-106865289D01*
X131385214Y-106519694D01*
X131524214Y-106157587D01*
X131624602Y-105782933D01*
X131685278Y-105399838D01*
X131705578Y-105012500D01*
X131685278Y-104625162D01*
X131624602Y-104242067D01*
X131524214Y-103867413D01*
X131403736Y-103553556D01*
X131395500Y-103509118D01*
X131395500Y-103053193D01*
X131362800Y-102721178D01*
X131320849Y-102510280D01*
X131320849Y-102510278D01*
X131297715Y-102393971D01*
X131297714Y-102393970D01*
X131297714Y-102393966D01*
X131200868Y-102074711D01*
X131200366Y-102073500D01*
X131147347Y-101945500D01*
X131073197Y-101766486D01*
X130915930Y-101472259D01*
X130915927Y-101472255D01*
X130915924Y-101472249D01*
X130730593Y-101194880D01*
X130730586Y-101194870D01*
X130730581Y-101194863D01*
X130518934Y-100936972D01*
X130518933Y-100936971D01*
X130518929Y-100936966D01*
X125813034Y-96231070D01*
X125555141Y-96019422D01*
X125555129Y-96019413D01*
X125381705Y-95903536D01*
X125381704Y-95903536D01*
X125277747Y-95834074D01*
X125277746Y-95834073D01*
X125277741Y-95834070D01*
X125277736Y-95834067D01*
X125277729Y-95834063D01*
X124983521Y-95676807D01*
X124983514Y-95676803D01*
X124941553Y-95659422D01*
X124675290Y-95549132D01*
X124487869Y-95492278D01*
X124356034Y-95452287D01*
X124356031Y-95452286D01*
X124356030Y-95452286D01*
X124028826Y-95387200D01*
X124028813Y-95387198D01*
X123780041Y-95362696D01*
X123726579Y-95357431D01*
X123726577Y-95357430D01*
X123696811Y-95354500D01*
X123696810Y-95354500D01*
X120531379Y-95354500D01*
X120495384Y-95349161D01*
X120495290Y-95349132D01*
X120495289Y-95349132D01*
X120176034Y-95252287D01*
X120176031Y-95252286D01*
X120176030Y-95252286D01*
X119848826Y-95187200D01*
X119848813Y-95187198D01*
X119600041Y-95162696D01*
X119546579Y-95157431D01*
X119546577Y-95157430D01*
X119516811Y-95154500D01*
X119516810Y-95154500D01*
X114916810Y-95154500D01*
X112414077Y-95154500D01*
X112347038Y-95134815D01*
X112331097Y-95122643D01*
X112329519Y-95121222D01*
X112329516Y-95121219D01*
X112176651Y-94997431D01*
X112028082Y-94877122D01*
X111702793Y-94665877D01*
X111357197Y-94489787D01*
X110995094Y-94350788D01*
X110995087Y-94350786D01*
X110620433Y-94250398D01*
X110620429Y-94250397D01*
X110620428Y-94250397D01*
X110237339Y-94189722D01*
X109850001Y-94169422D01*
X109849999Y-94169422D01*
X109462660Y-94189722D01*
X109079572Y-94250397D01*
X109079570Y-94250397D01*
X108704905Y-94350788D01*
X108342802Y-94489787D01*
X107997206Y-94665877D01*
X107671917Y-94877122D01*
X107370488Y-95121215D01*
X107370480Y-95121222D01*
X107096222Y-95395480D01*
X107096215Y-95395488D01*
X106852122Y-95696917D01*
X106640877Y-96022206D01*
X106464787Y-96367802D01*
X106325788Y-96729905D01*
X106225397Y-97104570D01*
X106225397Y-97104572D01*
X106164722Y-97487660D01*
X106144422Y-97874999D01*
X98955578Y-97874999D01*
X98935278Y-97487662D01*
X98874602Y-97104567D01*
X98774214Y-96729913D01*
X98635214Y-96367806D01*
X98459125Y-96022211D01*
X98451655Y-96010708D01*
X98247877Y-95696917D01*
X98055272Y-95459070D01*
X98003781Y-95395484D01*
X97729516Y-95121219D01*
X97594888Y-95012199D01*
X97428082Y-94877122D01*
X97102793Y-94665877D01*
X96757197Y-94489787D01*
X96395094Y-94350788D01*
X96395087Y-94350786D01*
X96020433Y-94250398D01*
X96020429Y-94250397D01*
X96020428Y-94250397D01*
X95637339Y-94189722D01*
X95250001Y-94169422D01*
X95249999Y-94169422D01*
X94862660Y-94189722D01*
X94479572Y-94250397D01*
X94479570Y-94250397D01*
X94104905Y-94350788D01*
X93791057Y-94471264D01*
X93746619Y-94479500D01*
X91831807Y-94479500D01*
X91764768Y-94459815D01*
X91753142Y-94451353D01*
X91635641Y-94354922D01*
X91635629Y-94354913D01*
X91462205Y-94239036D01*
X91462204Y-94239036D01*
X91358247Y-94169574D01*
X91358246Y-94169573D01*
X91358241Y-94169570D01*
X91358236Y-94169567D01*
X91358229Y-94169563D01*
X91064021Y-94012307D01*
X91064014Y-94012303D01*
X91064007Y-94012300D01*
X90755790Y-93884632D01*
X90568369Y-93827778D01*
X90436534Y-93787787D01*
X90436531Y-93787786D01*
X90436530Y-93787786D01*
X90109326Y-93722700D01*
X90109313Y-93722698D01*
X89860541Y-93698196D01*
X89807079Y-93692931D01*
X89807077Y-93692930D01*
X89777311Y-93690000D01*
X89777310Y-93690000D01*
X88478468Y-93690000D01*
X88411429Y-93670315D01*
X88375366Y-93634891D01*
X88360985Y-93613368D01*
X88330580Y-93567863D01*
X88118933Y-93309971D01*
X88118932Y-93309970D01*
X88118928Y-93309965D01*
X85221463Y-90412499D01*
X124294422Y-90412499D01*
X124294422Y-90412500D01*
X124314722Y-90799839D01*
X124375397Y-91182927D01*
X124375397Y-91182929D01*
X124475788Y-91557594D01*
X124614787Y-91919697D01*
X124790877Y-92265293D01*
X125002122Y-92590582D01*
X125046265Y-92645094D01*
X125246219Y-92892016D01*
X125520484Y-93166281D01*
X125520488Y-93166284D01*
X125821917Y-93410377D01*
X126134496Y-93613368D01*
X126147211Y-93621625D01*
X126492806Y-93797714D01*
X126854913Y-93936714D01*
X127229567Y-94037102D01*
X127425120Y-94068074D01*
X127488254Y-94098003D01*
X127493403Y-94102866D01*
X131702093Y-98311555D01*
X131735578Y-98372878D01*
X131736323Y-98421899D01*
X131719646Y-98511607D01*
X131719645Y-98511614D01*
X131709500Y-98684887D01*
X131709500Y-100043112D01*
X131719645Y-100216385D01*
X131773496Y-100506039D01*
X131773498Y-100506049D01*
X131865469Y-100785918D01*
X131865474Y-100785930D01*
X131993930Y-101051052D01*
X131993932Y-101051055D01*
X131993933Y-101051057D01*
X132147767Y-101283381D01*
X132156587Y-101296700D01*
X132350528Y-101518471D01*
X132492387Y-101642528D01*
X132572301Y-101712414D01*
X132817943Y-101875067D01*
X133083074Y-102003528D01*
X133174928Y-102033713D01*
X133362950Y-102095501D01*
X133362954Y-102095501D01*
X133362961Y-102095504D01*
X133652610Y-102149354D01*
X133825888Y-102159500D01*
X135190411Y-102159500D01*
X135202564Y-102160096D01*
X135308190Y-102170500D01*
X135308193Y-102170500D01*
X135641807Y-102170500D01*
X135641810Y-102170500D01*
X135747435Y-102160096D01*
X135759589Y-102159500D01*
X135772191Y-102159500D01*
X135784344Y-102160096D01*
X136103190Y-102191500D01*
X140083190Y-102191500D01*
X143326308Y-102191500D01*
X143382603Y-102205015D01*
X143392806Y-102210214D01*
X143754913Y-102349214D01*
X144129567Y-102449602D01*
X144512662Y-102510278D01*
X144878576Y-102529455D01*
X144899999Y-102530578D01*
X144900000Y-102530578D01*
X144900001Y-102530578D01*
X144920301Y-102529514D01*
X145287338Y-102510278D01*
X145670433Y-102449602D01*
X146045087Y-102349214D01*
X146407194Y-102210214D01*
X146752789Y-102034125D01*
X147078084Y-101822876D01*
X147379516Y-101578781D01*
X147653781Y-101304516D01*
X147897876Y-101003084D01*
X148109125Y-100677789D01*
X148285214Y-100332194D01*
X148424214Y-99970087D01*
X148524602Y-99595433D01*
X148585278Y-99212338D01*
X148605578Y-98825000D01*
X148585278Y-98437662D01*
X148524602Y-98054567D01*
X148424214Y-97679913D01*
X148285214Y-97317806D01*
X148109125Y-96972211D01*
X148103236Y-96963143D01*
X147897877Y-96646917D01*
X147653784Y-96345488D01*
X147653781Y-96345484D01*
X147379516Y-96071219D01*
X147078084Y-95827124D01*
X147078082Y-95827122D01*
X146752793Y-95615877D01*
X146407197Y-95439787D01*
X146045094Y-95300788D01*
X146045087Y-95300786D01*
X145670433Y-95200398D01*
X145670429Y-95200397D01*
X145670428Y-95200397D01*
X145287339Y-95139722D01*
X144900001Y-95119422D01*
X144899999Y-95119422D01*
X144512660Y-95139722D01*
X144129572Y-95200397D01*
X144129570Y-95200397D01*
X143754905Y-95300788D01*
X143516604Y-95392264D01*
X143472166Y-95400500D01*
X138446324Y-95400500D01*
X138379285Y-95380815D01*
X138358643Y-95364181D01*
X137756063Y-94761599D01*
X137756019Y-94761557D01*
X130888034Y-87893570D01*
X130630141Y-87681922D01*
X130630129Y-87681913D01*
X130456705Y-87566036D01*
X130456704Y-87566036D01*
X130352747Y-87496574D01*
X130352746Y-87496573D01*
X130352741Y-87496570D01*
X130352736Y-87496567D01*
X130352729Y-87496563D01*
X130083436Y-87352623D01*
X130074354Y-87347260D01*
X129852793Y-87203377D01*
X129507197Y-87027287D01*
X129145094Y-86888288D01*
X129145087Y-86888286D01*
X128770433Y-86787898D01*
X128770429Y-86787897D01*
X128770428Y-86787897D01*
X128387339Y-86727222D01*
X128000001Y-86706922D01*
X127999999Y-86706922D01*
X127612660Y-86727222D01*
X127229572Y-86787897D01*
X127229570Y-86787897D01*
X126854905Y-86888288D01*
X126492802Y-87027287D01*
X126147206Y-87203377D01*
X125821917Y-87414622D01*
X125520488Y-87658715D01*
X125520480Y-87658722D01*
X125246222Y-87932980D01*
X125246215Y-87932988D01*
X125002122Y-88234417D01*
X124790877Y-88559706D01*
X124614787Y-88905302D01*
X124475788Y-89267405D01*
X124375397Y-89642070D01*
X124375397Y-89642072D01*
X124314722Y-90025160D01*
X124294422Y-90412499D01*
X85221463Y-90412499D01*
X83790034Y-88981070D01*
X83532141Y-88769422D01*
X83532129Y-88769413D01*
X83358705Y-88653536D01*
X83358704Y-88653536D01*
X83254747Y-88584074D01*
X83254746Y-88584073D01*
X83254741Y-88584070D01*
X83254736Y-88584067D01*
X83254729Y-88584063D01*
X82960521Y-88426807D01*
X82960514Y-88426803D01*
X82960507Y-88426800D01*
X82652290Y-88299132D01*
X82438949Y-88234416D01*
X82333034Y-88202287D01*
X82333031Y-88202286D01*
X82333030Y-88202286D01*
X82005826Y-88137200D01*
X82005813Y-88137198D01*
X81757041Y-88112696D01*
X81703579Y-88107431D01*
X81703577Y-88107430D01*
X81673811Y-88104500D01*
X81673810Y-88104500D01*
X79003381Y-88104500D01*
X78958943Y-88096264D01*
X78645094Y-87975788D01*
X78485332Y-87932980D01*
X78270433Y-87875398D01*
X78270429Y-87875397D01*
X78270428Y-87875397D01*
X77887339Y-87814722D01*
X77500001Y-87794422D01*
X77499999Y-87794422D01*
X77112660Y-87814722D01*
X76729572Y-87875397D01*
X76729570Y-87875397D01*
X76354905Y-87975788D01*
X75992802Y-88114787D01*
X75647206Y-88290877D01*
X75321917Y-88502122D01*
X75020488Y-88746215D01*
X75020480Y-88746222D01*
X74746222Y-89020480D01*
X74746215Y-89020488D01*
X74502122Y-89321917D01*
X74290877Y-89647206D01*
X74114787Y-89992802D01*
X73975788Y-90354905D01*
X73875397Y-90729570D01*
X73875397Y-90729572D01*
X73814722Y-91112660D01*
X73794422Y-91499999D01*
X48620500Y-91499999D01*
X48620500Y-82878193D01*
X48587801Y-82546185D01*
X48587800Y-82546183D01*
X48587800Y-82546176D01*
X48555256Y-82382571D01*
X48522714Y-82218966D01*
X48425868Y-81899711D01*
X48298197Y-81591486D01*
X48140930Y-81297259D01*
X48140927Y-81297255D01*
X48140924Y-81297249D01*
X47955593Y-81019880D01*
X47955586Y-81019870D01*
X47955581Y-81019863D01*
X47743934Y-80761972D01*
X47743933Y-80761971D01*
X47743929Y-80761966D01*
X45721819Y-78739856D01*
X45688334Y-78678533D01*
X45685500Y-78652175D01*
X45685500Y-77778624D01*
X45705185Y-77711585D01*
X45721819Y-77690943D01*
X49263943Y-74148819D01*
X49325266Y-74115334D01*
X49351624Y-74112500D01*
X49714112Y-74112500D01*
X49887390Y-74102354D01*
X50177039Y-74048504D01*
X50407289Y-73972838D01*
X50477121Y-73970610D01*
X50484688Y-73972831D01*
X50714961Y-74048504D01*
X51004610Y-74102354D01*
X51177888Y-74112500D01*
X52536112Y-74112500D01*
X52709390Y-74102354D01*
X52999039Y-74048504D01*
X52999046Y-74048501D01*
X52999049Y-74048501D01*
X53086570Y-74019739D01*
X53278926Y-73956528D01*
X53544057Y-73828067D01*
X53789699Y-73665414D01*
X54011471Y-73471471D01*
X54205414Y-73249699D01*
X54368067Y-73004057D01*
X54496528Y-72738926D01*
X54559739Y-72546570D01*
X54588501Y-72459049D01*
X54588501Y-72459046D01*
X54588504Y-72459039D01*
X54642354Y-72169390D01*
X54652500Y-71996112D01*
X54652500Y-69641500D01*
X54672185Y-69574461D01*
X54724989Y-69528706D01*
X54776500Y-69517500D01*
X56995133Y-69517500D01*
X57062172Y-69537185D01*
X57107927Y-69589989D01*
X57110896Y-69597061D01*
X57114785Y-69607192D01*
X57290877Y-69952793D01*
X57502122Y-70278082D01*
X57607328Y-70408000D01*
X57746219Y-70579516D01*
X58020484Y-70853781D01*
X58070804Y-70894529D01*
X58321917Y-71097877D01*
X58520024Y-71226529D01*
X58647211Y-71309125D01*
X58992806Y-71485214D01*
X59220837Y-71572747D01*
X59311431Y-71607523D01*
X59354913Y-71624214D01*
X59729567Y-71724602D01*
X60112662Y-71785278D01*
X60478576Y-71804455D01*
X60499999Y-71805578D01*
X60500000Y-71805578D01*
X60500001Y-71805578D01*
X60520301Y-71804514D01*
X60887338Y-71785278D01*
X61270433Y-71724602D01*
X61645087Y-71624214D01*
X62007194Y-71485214D01*
X62250360Y-71361314D01*
X62306655Y-71347800D01*
X68309500Y-71347800D01*
X68376539Y-71367485D01*
X68422294Y-71420289D01*
X68433500Y-71471800D01*
X68433500Y-71874112D01*
X68443645Y-72047385D01*
X68497496Y-72337039D01*
X68497498Y-72337049D01*
X68589469Y-72616918D01*
X68589474Y-72616930D01*
X68717930Y-72882052D01*
X68717932Y-72882055D01*
X68717933Y-72882057D01*
X68877284Y-73122713D01*
X68880587Y-73127700D01*
X69074528Y-73349471D01*
X69235795Y-73490501D01*
X69296301Y-73543414D01*
X69541943Y-73706067D01*
X69807074Y-73834528D01*
X69898928Y-73864713D01*
X70086950Y-73926501D01*
X70086954Y-73926501D01*
X70086961Y-73926504D01*
X70376610Y-73980354D01*
X70549888Y-73990500D01*
X71908112Y-73990500D01*
X72081390Y-73980354D01*
X72371039Y-73926504D01*
X72601289Y-73850838D01*
X72671121Y-73848610D01*
X72678688Y-73850831D01*
X72908961Y-73926504D01*
X73198610Y-73980354D01*
X73371888Y-73990500D01*
X74730112Y-73990500D01*
X74903390Y-73980354D01*
X75193039Y-73926504D01*
X75193046Y-73926501D01*
X75193049Y-73926501D01*
X75280570Y-73897739D01*
X75472926Y-73834528D01*
X75738057Y-73706067D01*
X75983699Y-73543414D01*
X76205471Y-73349471D01*
X76399414Y-73127699D01*
X76562067Y-72882057D01*
X76690528Y-72616926D01*
X76780240Y-72343929D01*
X76782501Y-72337049D01*
X76782501Y-72337046D01*
X76782504Y-72337039D01*
X76790678Y-72293068D01*
X76822284Y-72230758D01*
X76824875Y-72228086D01*
X78158433Y-70894529D01*
X78173255Y-70876469D01*
X78206927Y-70835439D01*
X78370080Y-70636637D01*
X78470385Y-70486519D01*
X78555430Y-70359241D01*
X78712697Y-70065014D01*
X78840368Y-69756789D01*
X78870278Y-69658190D01*
X78937213Y-69437535D01*
X78963254Y-69306619D01*
X78978672Y-69229108D01*
X79011057Y-69167197D01*
X79071773Y-69132623D01*
X79100289Y-69129300D01*
X92683500Y-69129300D01*
X92750539Y-69148985D01*
X92796294Y-69201789D01*
X92807500Y-69253300D01*
X92807500Y-71438112D01*
X92817645Y-71611385D01*
X92871496Y-71901039D01*
X92871498Y-71901049D01*
X92963469Y-72180918D01*
X92963474Y-72180930D01*
X93091930Y-72446052D01*
X93091932Y-72446055D01*
X93091933Y-72446057D01*
X93205077Y-72616930D01*
X93254587Y-72691700D01*
X93448528Y-72913471D01*
X93552113Y-73004057D01*
X93670301Y-73107414D01*
X93915943Y-73270067D01*
X94181074Y-73398528D01*
X94272928Y-73428713D01*
X94460950Y-73490501D01*
X94460954Y-73490501D01*
X94460961Y-73490504D01*
X94750610Y-73544354D01*
X94923888Y-73554500D01*
X96282112Y-73554500D01*
X96455390Y-73544354D01*
X96745039Y-73490504D01*
X96975289Y-73414838D01*
X97045121Y-73412610D01*
X97052688Y-73414831D01*
X97282961Y-73490504D01*
X97572610Y-73544354D01*
X97745888Y-73554500D01*
X99104112Y-73554500D01*
X99277390Y-73544354D01*
X99567039Y-73490504D01*
X99567046Y-73490501D01*
X99567049Y-73490501D01*
X99661309Y-73459525D01*
X99846926Y-73398528D01*
X100112057Y-73270067D01*
X100357699Y-73107414D01*
X100579471Y-72913471D01*
X100773414Y-72691699D01*
X100936067Y-72446057D01*
X101064528Y-72180926D01*
X101156504Y-71901039D01*
X101210354Y-71611390D01*
X101210354Y-71611380D01*
X101210825Y-71607523D01*
X101211946Y-71607659D01*
X101233880Y-71546468D01*
X101289273Y-71503883D01*
X101334092Y-71495500D01*
X108996619Y-71495500D01*
X109041057Y-71503736D01*
X109311786Y-71607659D01*
X109354913Y-71624214D01*
X109729567Y-71724602D01*
X110112662Y-71785278D01*
X110478576Y-71804455D01*
X110499999Y-71805578D01*
X110500000Y-71805578D01*
X110500001Y-71805578D01*
X110520301Y-71804514D01*
X110887338Y-71785278D01*
X111270433Y-71724602D01*
X111645087Y-71624214D01*
X111958943Y-71503736D01*
X112003381Y-71495500D01*
X117721175Y-71495500D01*
X117788214Y-71515185D01*
X117808856Y-71531819D01*
X118505090Y-72228052D01*
X118538575Y-72289375D01*
X118539319Y-72293065D01*
X118547494Y-72337032D01*
X118547498Y-72337050D01*
X118639469Y-72616918D01*
X118639474Y-72616930D01*
X118767930Y-72882052D01*
X118767932Y-72882055D01*
X118767933Y-72882057D01*
X118927284Y-73122713D01*
X118930587Y-73127700D01*
X119124528Y-73349471D01*
X119285795Y-73490501D01*
X119346301Y-73543414D01*
X119591943Y-73706067D01*
X119857074Y-73834528D01*
X119948928Y-73864713D01*
X120136950Y-73926501D01*
X120136954Y-73926501D01*
X120136961Y-73926504D01*
X120426610Y-73980354D01*
X120599888Y-73990500D01*
X121958112Y-73990500D01*
X122131390Y-73980354D01*
X122421039Y-73926504D01*
X122651289Y-73850838D01*
X122721121Y-73848610D01*
X122728688Y-73850831D01*
X122958961Y-73926504D01*
X123248610Y-73980354D01*
X123421888Y-73990500D01*
X124780112Y-73990500D01*
X124953390Y-73980354D01*
X125243039Y-73926504D01*
X125243046Y-73926501D01*
X125243049Y-73926501D01*
X125330570Y-73897739D01*
X125522926Y-73834528D01*
X125788057Y-73706067D01*
X126033699Y-73543414D01*
X126255471Y-73349471D01*
X126449414Y-73127699D01*
X126612067Y-72882057D01*
X126740528Y-72616926D01*
X126830240Y-72343929D01*
X126832501Y-72337049D01*
X126832501Y-72337046D01*
X126832504Y-72337039D01*
X126886354Y-72047390D01*
X126896500Y-71874112D01*
X126896500Y-71409155D01*
X126916185Y-71342116D01*
X126932819Y-71321474D01*
X127027764Y-71226529D01*
X127143153Y-71111140D01*
X127258955Y-70965929D01*
X127338912Y-70865667D01*
X127505955Y-70599819D01*
X127642183Y-70316939D01*
X127644537Y-70310213D01*
X127660641Y-70264188D01*
X127690000Y-70217461D01*
X129664933Y-68242529D01*
X129876580Y-67984637D01*
X129974202Y-67838535D01*
X130061930Y-67707241D01*
X130219197Y-67413014D01*
X130346868Y-67104789D01*
X130385151Y-66978586D01*
X130443713Y-66785535D01*
X130476525Y-66620580D01*
X130508800Y-66458324D01*
X130541500Y-66126310D01*
X130541500Y-65154700D01*
X130561185Y-65087661D01*
X130613989Y-65041906D01*
X130665500Y-65030700D01*
X139784975Y-65030700D01*
X139852014Y-65050385D01*
X139872656Y-65067019D01*
X141425781Y-66620143D01*
X141459266Y-66681466D01*
X141462100Y-66707824D01*
X141462100Y-68874406D01*
X141494799Y-69206421D01*
X141559886Y-69533630D01*
X141656732Y-69852890D01*
X141784400Y-70161107D01*
X141784407Y-70161121D01*
X141941663Y-70455329D01*
X141941667Y-70455336D01*
X141941670Y-70455341D01*
X142062808Y-70636637D01*
X142127014Y-70732727D01*
X142127024Y-70732741D01*
X142338670Y-70990633D01*
X142574566Y-71226529D01*
X142574571Y-71226533D01*
X142574572Y-71226534D01*
X142832464Y-71438180D01*
X143109859Y-71623530D01*
X143135799Y-71637395D01*
X143185643Y-71686356D01*
X143199257Y-71724088D01*
X143243496Y-71962038D01*
X143243498Y-71962049D01*
X143335469Y-72241918D01*
X143335474Y-72241930D01*
X143463930Y-72507052D01*
X143463932Y-72507055D01*
X143463933Y-72507057D01*
X143586195Y-72691700D01*
X143626587Y-72752700D01*
X143820528Y-72974471D01*
X143972546Y-73107412D01*
X144042301Y-73168414D01*
X144287943Y-73331067D01*
X144553074Y-73459528D01*
X144644928Y-73489713D01*
X144832950Y-73551501D01*
X144832954Y-73551501D01*
X144832961Y-73551504D01*
X145122610Y-73605354D01*
X145295888Y-73615500D01*
X146654112Y-73615500D01*
X146827390Y-73605354D01*
X147117039Y-73551504D01*
X147347289Y-73475838D01*
X147417121Y-73473610D01*
X147424688Y-73475831D01*
X147654961Y-73551504D01*
X147944610Y-73605354D01*
X148117888Y-73615500D01*
X149476112Y-73615500D01*
X149649390Y-73605354D01*
X149939039Y-73551504D01*
X149939046Y-73551501D01*
X149939049Y-73551501D01*
X150026570Y-73522739D01*
X150218926Y-73459528D01*
X150484057Y-73331067D01*
X150619911Y-73241110D01*
X150686674Y-73220512D01*
X150688370Y-73220500D01*
X151948807Y-73220500D01*
X151948810Y-73220500D01*
X152280824Y-73187800D01*
X152608034Y-73122713D01*
X152927289Y-73025868D01*
X153235514Y-72898197D01*
X153529741Y-72740930D01*
X153807136Y-72555580D01*
X154065028Y-72343934D01*
X154300934Y-72108028D01*
X154512580Y-71850136D01*
X154697930Y-71572741D01*
X154855197Y-71278514D01*
X154982868Y-70970289D01*
X155079713Y-70651034D01*
X155108203Y-70507808D01*
X155140588Y-70445897D01*
X155201304Y-70411323D01*
X155229820Y-70408000D01*
X156996619Y-70408000D01*
X157041057Y-70416236D01*
X157279610Y-70507808D01*
X157354913Y-70536714D01*
X157729567Y-70637102D01*
X158112662Y-70697778D01*
X158478576Y-70716955D01*
X158499999Y-70718078D01*
X158500000Y-70718078D01*
X158500001Y-70718078D01*
X158520301Y-70717014D01*
X158887338Y-70697778D01*
X159270433Y-70637102D01*
X159645087Y-70536714D01*
X159958943Y-70416236D01*
X160003381Y-70408000D01*
X169154309Y-70408000D01*
X169154311Y-70408000D01*
X169184079Y-70405068D01*
X169486324Y-70375300D01*
X169813534Y-70310213D01*
X170132789Y-70213368D01*
X170441014Y-70085697D01*
X170735241Y-69928430D01*
X170848296Y-69852889D01*
X171012637Y-69743081D01*
X171270529Y-69531434D01*
X173088392Y-67713569D01*
X173149713Y-67680086D01*
X173219404Y-67685070D01*
X173244530Y-67697863D01*
X173407941Y-67806066D01*
X173407946Y-67806069D01*
X173536855Y-67868527D01*
X173673074Y-67934528D01*
X173764928Y-67964713D01*
X173952950Y-68026501D01*
X173952954Y-68026501D01*
X173952961Y-68026504D01*
X174242610Y-68080354D01*
X174415888Y-68090500D01*
X178584112Y-68090500D01*
X178757390Y-68080354D01*
X179047039Y-68026504D01*
X179047046Y-68026501D01*
X179047049Y-68026501D01*
X179174442Y-67984637D01*
X179326926Y-67934528D01*
X179592057Y-67806067D01*
X179837699Y-67643414D01*
X180059471Y-67449471D01*
X180253414Y-67227699D01*
X180416067Y-66982057D01*
X180544528Y-66716926D01*
X180608127Y-66523390D01*
X180636501Y-66437049D01*
X180636501Y-66437046D01*
X180636504Y-66437039D01*
X180690354Y-66147390D01*
X180700500Y-65974112D01*
X180700500Y-61805888D01*
X180690354Y-61632610D01*
X180636504Y-61342961D01*
X180636501Y-61342954D01*
X180636501Y-61342950D01*
X180544530Y-61063081D01*
X180544528Y-61063074D01*
X180416067Y-60797943D01*
X180253414Y-60552301D01*
X180205429Y-60497431D01*
X180059471Y-60330528D01*
X179837700Y-60136587D01*
X179837699Y-60136586D01*
X179592057Y-59973933D01*
X179592055Y-59973932D01*
X179592052Y-59973930D01*
X179326930Y-59845474D01*
X179326926Y-59845472D01*
X179326922Y-59845470D01*
X179326918Y-59845469D01*
X179047049Y-59753498D01*
X179047039Y-59753496D01*
X178757385Y-59699645D01*
X178584112Y-59689500D01*
X174415888Y-59689500D01*
X174242614Y-59699645D01*
X173952960Y-59753496D01*
X173952950Y-59753498D01*
X173673081Y-59845469D01*
X173673069Y-59845474D01*
X173407947Y-59973930D01*
X173162299Y-60136587D01*
X172940528Y-60330528D01*
X172834188Y-60452129D01*
X172775239Y-60489635D01*
X172740846Y-60494500D01*
X171943189Y-60494500D01*
X171913421Y-60497430D01*
X171913420Y-60497431D01*
X171864301Y-60502268D01*
X171611186Y-60527198D01*
X171611173Y-60527200D01*
X171283969Y-60592286D01*
X170964709Y-60689132D01*
X170656492Y-60816800D01*
X170656478Y-60816807D01*
X170362258Y-60974070D01*
X170362249Y-60974075D01*
X170084880Y-61159406D01*
X170084857Y-61159423D01*
X169826966Y-61371070D01*
X167617356Y-63580681D01*
X167556033Y-63614166D01*
X167529675Y-63617000D01*
X160003381Y-63617000D01*
X159958943Y-63608764D01*
X159645094Y-63488288D01*
X159645087Y-63488286D01*
X159270433Y-63387898D01*
X159270429Y-63387897D01*
X159270428Y-63387897D01*
X158887339Y-63327222D01*
X158500001Y-63306922D01*
X158499999Y-63306922D01*
X158112660Y-63327222D01*
X157729572Y-63387897D01*
X157729570Y-63387897D01*
X157354905Y-63488288D01*
X157041057Y-63608764D01*
X156996619Y-63617000D01*
X155077325Y-63617000D01*
X155010286Y-63597315D01*
X154989644Y-63580681D01*
X154140034Y-62731070D01*
X153882141Y-62519422D01*
X153882129Y-62519413D01*
X153696671Y-62395495D01*
X153696670Y-62395495D01*
X153604747Y-62334074D01*
X153604746Y-62334073D01*
X153604741Y-62334070D01*
X153604736Y-62334067D01*
X153604729Y-62334063D01*
X153310521Y-62176807D01*
X153310514Y-62176803D01*
X153310507Y-62176800D01*
X153002290Y-62049132D01*
X152789226Y-61984500D01*
X152683034Y-61952287D01*
X152683031Y-61952286D01*
X152683030Y-61952286D01*
X152355826Y-61887200D01*
X152355813Y-61887198D01*
X152107041Y-61862696D01*
X152053579Y-61857431D01*
X152053577Y-61857430D01*
X152023811Y-61854500D01*
X152023810Y-61854500D01*
X150763370Y-61854500D01*
X150696331Y-61834815D01*
X150694958Y-61833920D01*
X150559057Y-61743933D01*
X150559055Y-61743932D01*
X150559052Y-61743930D01*
X150293930Y-61615474D01*
X150293926Y-61615472D01*
X150293922Y-61615470D01*
X150293918Y-61615469D01*
X150014049Y-61523498D01*
X150014039Y-61523496D01*
X149724385Y-61469645D01*
X149551112Y-61459500D01*
X148192888Y-61459500D01*
X148019614Y-61469645D01*
X147729960Y-61523496D01*
X147729950Y-61523498D01*
X147499712Y-61599159D01*
X147429878Y-61601388D01*
X147422288Y-61599159D01*
X147192049Y-61523498D01*
X147192039Y-61523496D01*
X146902385Y-61469645D01*
X146729112Y-61459500D01*
X145920424Y-61459500D01*
X145853385Y-61439815D01*
X145832743Y-61423181D01*
X143525834Y-59116270D01*
X143267941Y-58904622D01*
X143267938Y-58904620D01*
X143060527Y-58766033D01*
X143060527Y-58766032D01*
X142990557Y-58719280D01*
X142990529Y-58719263D01*
X142696321Y-58562007D01*
X142696314Y-58562003D01*
X142696307Y-58562000D01*
X142388090Y-58434332D01*
X142200669Y-58377478D01*
X142068834Y-58337487D01*
X142068831Y-58337486D01*
X142068830Y-58337486D01*
X141741626Y-58272400D01*
X141741613Y-58272398D01*
X141492841Y-58247896D01*
X141439379Y-58242631D01*
X141439377Y-58242630D01*
X141409611Y-58239700D01*
X141409610Y-58239700D01*
X130808040Y-58239700D01*
X130741001Y-58220015D01*
X130695246Y-58167211D01*
X130684210Y-58109210D01*
X130693078Y-57940000D01*
X130693078Y-57939999D01*
X130691955Y-57918576D01*
X130672778Y-57552662D01*
X130612102Y-57169567D01*
X130511714Y-56794913D01*
X130372714Y-56432806D01*
X130196625Y-56087211D01*
X129985376Y-55761916D01*
X129741281Y-55460484D01*
X129467016Y-55186219D01*
X129165584Y-54942124D01*
X129165582Y-54942122D01*
X128840293Y-54730877D01*
X128494697Y-54554787D01*
X128132594Y-54415788D01*
X128132587Y-54415786D01*
X127757933Y-54315398D01*
X127757929Y-54315397D01*
X127757928Y-54315397D01*
X127374839Y-54254722D01*
X126987501Y-54234422D01*
X126987499Y-54234422D01*
X126600160Y-54254722D01*
X126217072Y-54315397D01*
X126217070Y-54315397D01*
X125842405Y-54415788D01*
X125480302Y-54554787D01*
X125134706Y-54730877D01*
X124809417Y-54942122D01*
X124507988Y-55186215D01*
X124507980Y-55186222D01*
X124233722Y-55460480D01*
X124233715Y-55460488D01*
X123989622Y-55761917D01*
X123778377Y-56087206D01*
X123602287Y-56432802D01*
X123463288Y-56794905D01*
X123362897Y-57169570D01*
X123362897Y-57169572D01*
X123302222Y-57552660D01*
X123281922Y-57939999D01*
X123281922Y-57940000D01*
X123302222Y-58327339D01*
X123362897Y-58710427D01*
X123362897Y-58710429D01*
X123463288Y-59085094D01*
X123602287Y-59447197D01*
X123709985Y-59658567D01*
X123730916Y-59699646D01*
X123736985Y-59711556D01*
X123750500Y-59767851D01*
X123750500Y-61860500D01*
X123730815Y-61927539D01*
X123678011Y-61973294D01*
X123626500Y-61984500D01*
X123481888Y-61984500D01*
X123308614Y-61994645D01*
X123018960Y-62048496D01*
X123018950Y-62048498D01*
X122788712Y-62124159D01*
X122718878Y-62126388D01*
X122711288Y-62124159D01*
X122481049Y-62048498D01*
X122481039Y-62048496D01*
X122191385Y-61994645D01*
X122018112Y-61984500D01*
X120659888Y-61984500D01*
X120486614Y-61994645D01*
X120196960Y-62048496D01*
X120196950Y-62048498D01*
X119917081Y-62140469D01*
X119917069Y-62140474D01*
X119651947Y-62268930D01*
X119406299Y-62431587D01*
X119184528Y-62625528D01*
X118990587Y-62847299D01*
X118827930Y-63092947D01*
X118699474Y-63358069D01*
X118699469Y-63358081D01*
X118607499Y-63637947D01*
X118607497Y-63637954D01*
X118597873Y-63689719D01*
X118566265Y-63752031D01*
X118554629Y-63762903D01*
X118523987Y-63788050D01*
X118523969Y-63788067D01*
X117643856Y-64668181D01*
X117582533Y-64701666D01*
X117556175Y-64704500D01*
X112003381Y-64704500D01*
X111958943Y-64696264D01*
X111645094Y-64575788D01*
X111574230Y-64556800D01*
X111270433Y-64475398D01*
X111270429Y-64475397D01*
X111270428Y-64475397D01*
X110887339Y-64414722D01*
X110500001Y-64394422D01*
X110499999Y-64394422D01*
X110112660Y-64414722D01*
X109729572Y-64475397D01*
X109729570Y-64475397D01*
X109354905Y-64575788D01*
X109041057Y-64696264D01*
X108996619Y-64704500D01*
X101359500Y-64704500D01*
X101292461Y-64684815D01*
X101246706Y-64632011D01*
X101235500Y-64580500D01*
X101235500Y-63654887D01*
X101225354Y-63481614D01*
X101225354Y-63481610D01*
X101171504Y-63191961D01*
X101171501Y-63191954D01*
X101171501Y-63191950D01*
X101099394Y-62972528D01*
X101079528Y-62912074D01*
X100963510Y-62672626D01*
X100951069Y-62646947D01*
X100951068Y-62646946D01*
X100951067Y-62646943D01*
X100788414Y-62401301D01*
X100729623Y-62334074D01*
X100594471Y-62179528D01*
X100372700Y-61985587D01*
X100372699Y-61985586D01*
X100127057Y-61822933D01*
X100127055Y-61822932D01*
X100127052Y-61822930D01*
X99861930Y-61694474D01*
X99861926Y-61694472D01*
X99861922Y-61694470D01*
X99861918Y-61694469D01*
X99582049Y-61602498D01*
X99582039Y-61602496D01*
X99292385Y-61548645D01*
X99119112Y-61538500D01*
X97760888Y-61538500D01*
X97587614Y-61548645D01*
X97297960Y-61602496D01*
X97297950Y-61602498D01*
X97067712Y-61678159D01*
X96997878Y-61680388D01*
X96990288Y-61678159D01*
X96760049Y-61602498D01*
X96760039Y-61602496D01*
X96470385Y-61548645D01*
X96297112Y-61538500D01*
X94938888Y-61538500D01*
X94765614Y-61548645D01*
X94475960Y-61602496D01*
X94475950Y-61602498D01*
X94196081Y-61694469D01*
X94196069Y-61694474D01*
X93930947Y-61822930D01*
X93685299Y-61985587D01*
X93463528Y-62179528D01*
X93361735Y-62295929D01*
X93302785Y-62333435D01*
X93268393Y-62338300D01*
X80859500Y-62338300D01*
X80792461Y-62318615D01*
X80746706Y-62265811D01*
X80735500Y-62214300D01*
X80735500Y-59443380D01*
X80743736Y-59398942D01*
X80864211Y-59085094D01*
X80864214Y-59085087D01*
X80964602Y-58710433D01*
X81025278Y-58327338D01*
X81045578Y-57940000D01*
X81025278Y-57552662D01*
X80964602Y-57169567D01*
X80864214Y-56794913D01*
X80725214Y-56432806D01*
X80549125Y-56087211D01*
X80337876Y-55761916D01*
X80093781Y-55460484D01*
X79819516Y-55186219D01*
X79518084Y-54942124D01*
X79518082Y-54942122D01*
X79192793Y-54730877D01*
X78847197Y-54554787D01*
X78485094Y-54415788D01*
X78485087Y-54415786D01*
X78110433Y-54315398D01*
X78110429Y-54315397D01*
X78110428Y-54315397D01*
X77727339Y-54254722D01*
X77340001Y-54234422D01*
X77339999Y-54234422D01*
X76952660Y-54254722D01*
X76569572Y-54315397D01*
X76569570Y-54315397D01*
X76194905Y-54415788D01*
X75832802Y-54554787D01*
X75487206Y-54730877D01*
X75161917Y-54942122D01*
X74860488Y-55186215D01*
X74860480Y-55186222D01*
X74586222Y-55460480D01*
X74586215Y-55460488D01*
X74342122Y-55761917D01*
X74130877Y-56087206D01*
X73954787Y-56432802D01*
X73815788Y-56794905D01*
X73715397Y-57169570D01*
X73715397Y-57169572D01*
X73654722Y-57552660D01*
X73634422Y-57939999D01*
X73634422Y-57940000D01*
X73654722Y-58327339D01*
X73715397Y-58710427D01*
X73715397Y-58710429D01*
X73815788Y-59085094D01*
X73936264Y-59398942D01*
X73944500Y-59443380D01*
X73944500Y-61885500D01*
X73924815Y-61952539D01*
X73872011Y-61998294D01*
X73820500Y-62009500D01*
X73467888Y-62009500D01*
X73294614Y-62019645D01*
X73004960Y-62073496D01*
X73004950Y-62073498D01*
X72774712Y-62149159D01*
X72704878Y-62151388D01*
X72697288Y-62149159D01*
X72467049Y-62073498D01*
X72467039Y-62073496D01*
X72177385Y-62019645D01*
X72004112Y-62009500D01*
X70645888Y-62009500D01*
X70472614Y-62019645D01*
X70182960Y-62073496D01*
X70182950Y-62073498D01*
X69903081Y-62165469D01*
X69903069Y-62165474D01*
X69637947Y-62293930D01*
X69392299Y-62456587D01*
X69170528Y-62650528D01*
X68976587Y-62872299D01*
X68813930Y-63117947D01*
X68685474Y-63383069D01*
X68685469Y-63383081D01*
X68593498Y-63662950D01*
X68593496Y-63662960D01*
X68539645Y-63952614D01*
X68529500Y-64125887D01*
X68529500Y-64432800D01*
X68509815Y-64499839D01*
X68457011Y-64545594D01*
X68405500Y-64556800D01*
X61957825Y-64556800D01*
X61890786Y-64537115D01*
X61870144Y-64520481D01*
X60952734Y-63603070D01*
X60694841Y-63391422D01*
X60694838Y-63391420D01*
X60689565Y-63387897D01*
X60491219Y-63255367D01*
X60491218Y-63255366D01*
X60491218Y-63255365D01*
X60417457Y-63206080D01*
X60417429Y-63206063D01*
X60123221Y-63048807D01*
X60123214Y-63048803D01*
X60123207Y-63048800D01*
X59814990Y-62921132D01*
X59571594Y-62847299D01*
X59495734Y-62824287D01*
X59495731Y-62824286D01*
X59495730Y-62824286D01*
X59168526Y-62759200D01*
X59168513Y-62759198D01*
X58919741Y-62734696D01*
X58866279Y-62729431D01*
X58866277Y-62729430D01*
X58836511Y-62726500D01*
X58836510Y-62726500D01*
X53838370Y-62726500D01*
X53771331Y-62706815D01*
X53769958Y-62705920D01*
X53634057Y-62615933D01*
X53634055Y-62615932D01*
X53634052Y-62615930D01*
X53368930Y-62487474D01*
X53368926Y-62487472D01*
X53368922Y-62487470D01*
X53368918Y-62487469D01*
X53089049Y-62395498D01*
X53089039Y-62395496D01*
X52799385Y-62341645D01*
X52626112Y-62331500D01*
X51267888Y-62331500D01*
X51094614Y-62341645D01*
X50804960Y-62395496D01*
X50804950Y-62395498D01*
X50574712Y-62471159D01*
X50504878Y-62473388D01*
X50497288Y-62471159D01*
X50267049Y-62395498D01*
X50267039Y-62395496D01*
X49977385Y-62341645D01*
X49804112Y-62331500D01*
X48445888Y-62331500D01*
X48272614Y-62341645D01*
X47982960Y-62395496D01*
X47982950Y-62395498D01*
X47703081Y-62487469D01*
X47703069Y-62487474D01*
X47437947Y-62615930D01*
X47192299Y-62778587D01*
X46970528Y-62972528D01*
X46776587Y-63194299D01*
X46613930Y-63439947D01*
X46485474Y-63705069D01*
X46485469Y-63705081D01*
X46393498Y-63984949D01*
X46393497Y-63984953D01*
X46382448Y-64044382D01*
X46350840Y-64106693D01*
X46339203Y-64117566D01*
X46273768Y-64171268D01*
X46037870Y-64407166D01*
X45826224Y-64665058D01*
X45826214Y-64665072D01*
X45640874Y-64942452D01*
X45640863Y-64942470D01*
X45483607Y-65236678D01*
X45483600Y-65236692D01*
X45355932Y-65544909D01*
X45259086Y-65864169D01*
X45193999Y-66191378D01*
X45161300Y-66523393D01*
X45161300Y-68596174D01*
X45141615Y-68663213D01*
X45124981Y-68683855D01*
X39771070Y-74037765D01*
X39559422Y-74295658D01*
X39559420Y-74295661D01*
X39443537Y-74469094D01*
X39443536Y-74469093D01*
X39374080Y-74573042D01*
X39374063Y-74573070D01*
X39216807Y-74867278D01*
X39216800Y-74867292D01*
X39089130Y-75175515D01*
X39044847Y-75321496D01*
X39006550Y-75379934D01*
X38942737Y-75408391D01*
X38926187Y-75409500D01*
X34815888Y-75409500D01*
X34642614Y-75419645D01*
X34352960Y-75473496D01*
X34352950Y-75473498D01*
X34073081Y-75565469D01*
X34073069Y-75565474D01*
X33807947Y-75693930D01*
X33562299Y-75856587D01*
X33340528Y-76050528D01*
X33146587Y-76272299D01*
X32983930Y-76517947D01*
X32855474Y-76783069D01*
X32855469Y-76783081D01*
X32763498Y-77062950D01*
X32763496Y-77062960D01*
X32746411Y-77154859D01*
X32714804Y-77217171D01*
X32654527Y-77252504D01*
X32584716Y-77249639D01*
X32527536Y-77209486D01*
X32501142Y-77144793D01*
X32500500Y-77132194D01*
X32500500Y-29424500D01*
X32520185Y-29357461D01*
X32572989Y-29311706D01*
X32624500Y-29300500D01*
X188375500Y-29300500D01*
X188442539Y-29320185D01*
G37*
%TD.AperFunction*%
%TD*%
M02*
