M48
; DRILL file {KiCad 8.0.6-8.0.6-0~ubuntu24.04.1} date 2024-11-29T14:51:28+0100
; FORMAT={-:-/ absolute / inch / decimal}
; #@! TF.CreationDate,2024-11-29T14:51:28+01:00
; #@! TF.GenerationSoftware,Kicad,Pcbnew,8.0.6-8.0.6-0~ubuntu24.04.1
; #@! TF.FileFunction,Plated,1,2,PTH
FMAT,2
INCH
; #@! TA.AperFunction,Plated,PTH,ViaDrill
T1C0.0118
; #@! TA.AperFunction,Plated,PTH,ComponentDrill
T2C0.0630
; #@! TA.AperFunction,Plated,PTH,ComponentDrill
T3C0.1260
%
G90
G05
T1
X1.7323Y-4.3661
X1.752Y-1.9055
X1.8504Y-4.3661
X1.8701Y-1.9055
X1.9488Y-4.3661
X1.9685Y-1.9055
X2.0669Y-2.9882
X2.0669Y-4.3661
X2.0866Y-1.9055
X2.1063Y-3.4016
X2.185Y-2.9882
X2.185Y-4.3661
X2.2047Y-1.9055
X2.2244Y-3.4016
X2.2835Y-2.9882
X2.3031Y-4.3661
X2.3228Y-1.9055
X2.3228Y-3.4016
X2.4016Y-2.9882
X2.4016Y-4.3661
X2.4213Y-1.9055
X2.4409Y-3.4016
X2.5Y-4.3661
X2.5197Y-1.9055
X2.5197Y-2.9882
X2.5591Y-3.4016
X2.5984Y-4.3661
X2.6181Y-1.9055
X2.6378Y-2.9882
X2.6772Y-3.4016
X2.6772Y-4.3661
X2.6969Y-1.9055
X2.7362Y-2.9882
X2.7559Y-4.3661
X2.7756Y-1.9055
X2.7756Y-3.4016
X2.8346Y-2.9882
X2.874Y-3.4016
X2.874Y-4.3661
X2.8937Y-1.9055
X2.9331Y-2.9882
X2.9724Y-3.4016
X2.9724Y-4.3661
X2.9921Y-1.9055
X3.0118Y-2.9882
X3.0512Y-3.4016
X3.0906Y-2.9882
X3.0906Y-4.3661
X3.1102Y-1.9055
X3.1299Y-3.4016
X3.2087Y-2.9882
X3.2087Y-4.3661
X3.2283Y-1.9055
X3.248Y-3.4016
X3.3071Y-2.9882
X3.3268Y-4.3661
X3.3465Y-1.9055
X3.3465Y-3.4016
X3.4252Y-2.9882
X3.4252Y-4.3661
X3.4449Y-1.9055
X3.4646Y-3.4016
X3.5236Y-4.3661
X3.5433Y-1.9055
X3.5433Y-2.9882
X3.5827Y-3.4016
X3.622Y-4.3661
X3.6417Y-1.9055
X3.6614Y-2.9882
X3.7008Y-3.4016
X3.7008Y-4.3661
X3.7205Y-1.9055
X3.7598Y-2.9882
X3.7795Y-4.3661
X3.7992Y-1.9055
X3.7992Y-3.4016
X3.8583Y-2.9882
X3.8976Y-3.4016
X3.8976Y-4.3661
X3.9173Y-1.9055
X3.9567Y-2.9882
X3.9961Y-3.4016
X3.9961Y-4.3661
X4.0157Y-1.9055
X4.0354Y-2.9882
X4.0748Y-3.4016
X4.1142Y-2.9882
X4.1142Y-4.3661
X4.1339Y-1.9055
X4.1535Y-3.4016
X4.2323Y-2.9882
X4.2323Y-4.3661
X4.252Y-1.9055
X4.2717Y-3.4016
X4.3307Y-2.9882
X4.3504Y-4.3661
X4.3701Y-1.9055
X4.3701Y-3.4016
X4.4488Y-2.9882
X4.4488Y-4.3661
X4.4685Y-1.9055
X4.4882Y-3.4016
X4.5472Y-4.3661
X4.5669Y-1.9055
X4.5669Y-2.9882
X4.6063Y-3.4016
X4.6457Y-4.3661
X4.6654Y-1.9055
X4.685Y-2.9882
X4.7244Y-3.4016
X4.7244Y-4.3661
X4.7441Y-1.9055
X4.7835Y-2.9882
X4.8031Y-4.3661
X4.8228Y-1.9055
X4.8228Y-3.4016
X4.8819Y-2.9882
X4.9213Y-3.4016
X4.9213Y-4.3661
X4.9409Y-1.9055
X4.9803Y-2.9882
X5.0197Y-3.4016
X5.0197Y-4.3661
X5.0394Y-1.9055
X5.0591Y-2.9882
X5.0984Y-3.4016
X5.1378Y-2.9882
X5.1378Y-4.3661
X5.1575Y-1.9055
X5.1772Y-3.4016
X5.2559Y-2.9882
X5.2559Y-4.3661
X5.2756Y-1.9055
X5.2953Y-3.4016
X5.3543Y-2.9882
X5.374Y-4.3661
X5.3937Y-1.9055
X5.3937Y-3.4016
X5.4724Y-2.9882
X5.4724Y-4.3661
X5.4921Y-1.9055
X5.5118Y-3.4016
X5.5709Y-4.3661
X5.5906Y-1.9055
X5.5906Y-2.9882
X5.6299Y-3.4016
X5.6693Y-4.3661
X5.689Y-1.9055
X5.7087Y-2.9882
X5.748Y-3.4016
X5.748Y-4.3661
X5.7677Y-1.9055
X5.8071Y-2.9882
X5.8465Y-3.4016
X5.8465Y-4.3661
X5.8661Y-1.9055
X5.9055Y-2.9882
X5.9449Y-3.4016
X5.9646Y-4.3661
X5.9843Y-1.9055
X6.0039Y-2.9882
X6.0433Y-3.4016
X6.063Y-4.3661
X6.0827Y-1.9055
X6.0827Y-2.9882
X6.122Y-3.4016
X6.1811Y-2.9882
X6.1811Y-4.3661
X6.2008Y-1.9055
X6.2205Y-3.4016
X6.2992Y-2.9882
X6.2992Y-4.3661
X6.3189Y-1.9055
X6.3386Y-3.4016
X6.3976Y-2.9882
X6.4173Y-4.3661
X6.437Y-1.9055
X6.437Y-3.4016
X6.5157Y-2.9882
X6.5157Y-4.3661
X6.5354Y-1.9055
X6.5551Y-3.4016
X6.6142Y-4.3661
X6.6339Y-1.9055
X6.6339Y-2.9882
X6.6732Y-3.4016
X6.7126Y-4.3661
X6.7323Y-1.9055
X6.752Y-2.9882
X6.7913Y-3.4016
X6.7913Y-4.3661
X6.811Y-1.9055
X6.8504Y-2.9882
X6.8701Y-4.3661
X6.8898Y-3.4016
X6.9094Y-1.9055
X6.9488Y-2.9882
X6.9685Y-4.3661
X6.9882Y-3.4016
X7.0079Y-1.9055
X7.0472Y-2.9882
X7.0669Y-4.3661
X7.0866Y-3.4016
X7.1063Y-1.9055
X7.126Y-2.9882
X7.1457Y-4.3661
X7.1654Y-3.4016
X7.185Y-1.9055
T2
X1.7805Y-3.8612
X2.3553Y-3.8612
X2.3819Y-2.1063
X2.3819Y-2.6811
X3.0449Y-2.2811
X3.0512Y-3.6024
X3.0512Y-4.1772
X3.6197Y-2.2811
X3.75Y-3.8533
X4.3248Y-3.8533
X4.3504Y-2.1063
X4.3504Y-2.6811
X4.9995Y-2.2811
X5.0394Y-3.5595
X5.0394Y-4.1344
X5.5743Y-2.2811
X5.7047Y-3.8907
X6.2402Y-2.0635
X6.2402Y-2.6383
X6.2795Y-3.8907
T3
X1.4331Y-1.6142
X1.4409Y-4.622
X3.7992Y-3.1299
X5.2953Y-3.1299
X7.2087Y-4.6102
X7.2638Y-1.5945
M30
