%TF.GenerationSoftware,KiCad,Pcbnew,8.0.5-8.0.5-0~ubuntu24.04.1*%
%TF.CreationDate,2024-10-11T03:00:47+02:00*%
%TF.ProjectId,diplexer,6469706c-6578-4657-922e-6b696361645f,rev?*%
%TF.SameCoordinates,Original*%
%TF.FileFunction,Copper,L1,Top*%
%TF.FilePolarity,Positive*%
%FSLAX46Y46*%
G04 Gerber Fmt 4.6, Leading zero omitted, Abs format (unit mm)*
G04 Created by KiCad (PCBNEW 8.0.5-8.0.5-0~ubuntu24.04.1) date 2024-10-11 03:00:47*
%MOMM*%
%LPD*%
G01*
G04 APERTURE LIST*
G04 Aperture macros list*
%AMRoundRect*
0 Rectangle with rounded corners*
0 $1 Rounding radius*
0 $2 $3 $4 $5 $6 $7 $8 $9 X,Y pos of 4 corners*
0 Add a 4 corners polygon primitive as box body*
4,1,4,$2,$3,$4,$5,$6,$7,$8,$9,$2,$3,0*
0 Add four circle primitives for the rounded corners*
1,1,$1+$1,$2,$3*
1,1,$1+$1,$4,$5*
1,1,$1+$1,$6,$7*
1,1,$1+$1,$8,$9*
0 Add four rect primitives between the rounded corners*
20,1,$1+$1,$2,$3,$4,$5,0*
20,1,$1+$1,$4,$5,$6,$7,0*
20,1,$1+$1,$6,$7,$8,$9,0*
20,1,$1+$1,$8,$9,$2,$3,0*%
G04 Aperture macros list end*
%TA.AperFunction,SMDPad,CuDef*%
%ADD10R,4.000000X4.000000*%
%TD*%
%TA.AperFunction,ComponentPad*%
%ADD11C,2.000000*%
%TD*%
%TA.AperFunction,ComponentPad*%
%ADD12C,3.000000*%
%TD*%
%TA.AperFunction,SMDPad,CuDef*%
%ADD13RoundRect,0.250000X-2.450000X0.650000X-2.450000X-0.650000X2.450000X-0.650000X2.450000X0.650000X0*%
%TD*%
%TA.AperFunction,SMDPad,CuDef*%
%ADD14RoundRect,0.250000X-0.650000X-2.450000X0.650000X-2.450000X0.650000X2.450000X-0.650000X2.450000X0*%
%TD*%
%TA.AperFunction,SMDPad,CuDef*%
%ADD15R,5.000000X5.000000*%
%TD*%
%TA.AperFunction,SMDPad,CuDef*%
%ADD16RoundRect,0.250000X2.450000X-0.650000X2.450000X0.650000X-2.450000X0.650000X-2.450000X-0.650000X0*%
%TD*%
%TA.AperFunction,ViaPad*%
%ADD17C,0.600000*%
%TD*%
%TA.AperFunction,Conductor*%
%ADD18C,3.000000*%
%TD*%
G04 APERTURE END LIST*
D10*
%TO.P,J2,1,In*%
%TO.N,Net-(J2-In)*%
X176000000Y-51000000D03*
%TO.P,J2,2,Ext*%
%TO.N,GND*%
X185000000Y-44650000D03*
%TO.P,J2,3*%
%TO.N,N/C*%
X185000000Y-57350000D03*
%TD*%
%TO.P,J3,1,In*%
%TO.N,Net-(J3-In)*%
X176000000Y-80350000D03*
%TO.P,J3,2,Ext*%
%TO.N,GND*%
X185000000Y-74000000D03*
%TO.P,J3,3*%
%TO.N,N/C*%
X185000000Y-86700000D03*
%TD*%
D11*
%TO.P,L10,1,1*%
%TO.N,Net-(J1-Ext)*%
X48340000Y-86500000D03*
D12*
%TO.P,L10,2,2*%
%TO.N,Net-(C6-Pad2)*%
X62940000Y-86500000D03*
%TD*%
D13*
%TO.P,C6,1*%
%TO.N,GND*%
X73000000Y-74450000D03*
%TO.P,C6,2*%
%TO.N,Net-(C6-Pad2)*%
X73000000Y-79550000D03*
%TD*%
D14*
%TO.P,C4,1*%
%TO.N,Net-(C3-Pad2)*%
X106450000Y-51500000D03*
%TO.P,C4,2*%
%TO.N,Net-(C4-Pad2)*%
X111550000Y-51500000D03*
%TD*%
D11*
%TO.P,L2,1,1*%
%TO.N,Net-(C2-Pad2)*%
X80000000Y-51500000D03*
D12*
%TO.P,L2,2,2*%
%TO.N,GND*%
X80000000Y-66100000D03*
%TD*%
D11*
%TO.P,L4,1,1*%
%TO.N,Net-(C4-Pad2)*%
X119000000Y-51340000D03*
D12*
%TO.P,L4,2,2*%
%TO.N,GND*%
X119000000Y-65940000D03*
%TD*%
D11*
%TO.P,L6,1,1*%
%TO.N,Net-(C9-Pad2)*%
X159000000Y-87160000D03*
D12*
%TO.P,L6,2,2*%
%TO.N,Net-(J3-In)*%
X159000000Y-72560000D03*
%TD*%
D11*
%TO.P,L7,1,1*%
%TO.N,Net-(C8-Pad2)*%
X128000000Y-86500000D03*
D12*
%TO.P,L7,2,2*%
%TO.N,Net-(C9-Pad2)*%
X142600000Y-86500000D03*
%TD*%
D14*
%TO.P,C1,1*%
%TO.N,Net-(J1-Ext)*%
X46950000Y-51500000D03*
%TO.P,C1,2*%
%TO.N,Net-(C1-Pad2)*%
X52050000Y-51500000D03*
%TD*%
D13*
%TO.P,C7,1*%
%TO.N,GND*%
X98000000Y-74450000D03*
%TO.P,C7,2*%
%TO.N,Net-(C7-Pad2)*%
X98000000Y-79550000D03*
%TD*%
D11*
%TO.P,L9,1,1*%
%TO.N,Net-(C6-Pad2)*%
X75000000Y-86500000D03*
D12*
%TO.P,L9,2,2*%
%TO.N,Net-(C7-Pad2)*%
X89600000Y-86500000D03*
%TD*%
D11*
%TO.P,L8,1,1*%
%TO.N,Net-(C7-Pad2)*%
X101000000Y-86500000D03*
D12*
%TO.P,L8,2,2*%
%TO.N,Net-(C8-Pad2)*%
X115600000Y-86500000D03*
%TD*%
D11*
%TO.P,L1,1,1*%
%TO.N,Net-(C1-Pad2)*%
X60000000Y-51840000D03*
D12*
%TO.P,L1,2,2*%
%TO.N,GND*%
X60000000Y-66440000D03*
%TD*%
D15*
%TO.P,J1,1,In*%
%TO.N,GND*%
X37000000Y-43000000D03*
%TO.P,J1,2,Ext*%
%TO.N,Net-(J1-Ext)*%
X37000000Y-52110000D03*
%TO.P,J1,3*%
%TO.N,N/C*%
X37000000Y-61210000D03*
%TD*%
D14*
%TO.P,C5,1*%
%TO.N,Net-(C4-Pad2)*%
X128950000Y-51500000D03*
%TO.P,C5,2*%
%TO.N,Net-(J2-In)*%
X134050000Y-51500000D03*
%TD*%
D16*
%TO.P,C10,1*%
%TO.N,GND*%
X168000000Y-77550000D03*
%TO.P,C10,2*%
%TO.N,Net-(J3-In)*%
X168000000Y-72450000D03*
%TD*%
D14*
%TO.P,C2,1*%
%TO.N,Net-(C1-Pad2)*%
X68450000Y-51500000D03*
%TO.P,C2,2*%
%TO.N,Net-(C2-Pad2)*%
X73550000Y-51500000D03*
%TD*%
D13*
%TO.P,C8,1*%
%TO.N,GND*%
X125000000Y-74450000D03*
%TO.P,C8,2*%
%TO.N,Net-(C8-Pad2)*%
X125000000Y-79550000D03*
%TD*%
%TO.P,C9,1*%
%TO.N,GND*%
X150000000Y-74450000D03*
%TO.P,C9,2*%
%TO.N,Net-(C9-Pad2)*%
X150000000Y-79550000D03*
%TD*%
D11*
%TO.P,L5,1,1*%
%TO.N,Net-(J2-In)*%
X141500000Y-51500000D03*
D12*
%TO.P,L5,2,2*%
%TO.N,GND*%
X141500000Y-66100000D03*
%TD*%
D11*
%TO.P,L3,1,1*%
%TO.N,Net-(C3-Pad2)*%
X97500000Y-51400000D03*
D12*
%TO.P,L3,2,2*%
%TO.N,GND*%
X97500000Y-66000000D03*
%TD*%
D14*
%TO.P,C3,1*%
%TO.N,Net-(C2-Pad2)*%
X85950000Y-51500000D03*
%TO.P,C3,2*%
%TO.N,Net-(C3-Pad2)*%
X91050000Y-51500000D03*
%TD*%
D17*
%TO.N,GND*%
X115000000Y-80000000D03*
X110000000Y-80000000D03*
X105000000Y-80000000D03*
X90000000Y-80000000D03*
X85000000Y-80000000D03*
X80000000Y-80000000D03*
X53000000Y-85000000D03*
X53000000Y-80000000D03*
X53000000Y-75000000D03*
X53000000Y-70000000D03*
X53000000Y-65000000D03*
X41000000Y-65000000D03*
X41000000Y-70000000D03*
X41000000Y-75000000D03*
X41000000Y-80000000D03*
X41000000Y-85000000D03*
X41000000Y-90000000D03*
X42000000Y-91000000D03*
X45000000Y-93000000D03*
X55000000Y-93000000D03*
X50000000Y-93000000D03*
X60000000Y-93000000D03*
X65000000Y-93000000D03*
X70000000Y-93000000D03*
X75000000Y-93000000D03*
X80000000Y-93000000D03*
X85000000Y-93000000D03*
X90000000Y-93000000D03*
X95000000Y-93000000D03*
X100000000Y-93000000D03*
X105000000Y-93000000D03*
X110000000Y-93000000D03*
X115000000Y-93000000D03*
X120000000Y-93000000D03*
X130000000Y-93000000D03*
X140000000Y-93000000D03*
X150000000Y-93000000D03*
X160000000Y-93000000D03*
X135000000Y-80000000D03*
X140000000Y-80000000D03*
X160000000Y-80000000D03*
X165000000Y-80000000D03*
X170000000Y-80000000D03*
X155000000Y-67000000D03*
X160000000Y-67000000D03*
X165000000Y-67000000D03*
X170000000Y-67000000D03*
X170000000Y-58000000D03*
X165000000Y-58000000D03*
X160000000Y-58000000D03*
X155000000Y-58000000D03*
X150000000Y-58000000D03*
X145000000Y-58000000D03*
X140000000Y-58000000D03*
X135000000Y-58000000D03*
X130000000Y-58000000D03*
X125000000Y-58000000D03*
X120000000Y-58000000D03*
X115000000Y-58000000D03*
X110000000Y-58000000D03*
X105000000Y-58000000D03*
X100000000Y-58000000D03*
X95000000Y-58000000D03*
X90000000Y-58000000D03*
X85000000Y-58000000D03*
X80000000Y-58000000D03*
X75000000Y-58000000D03*
X70000000Y-58000000D03*
X65000000Y-58000000D03*
X60000000Y-58000000D03*
X53000000Y-58000000D03*
X50000000Y-45000000D03*
X55000000Y-45000000D03*
X60000000Y-45000000D03*
X65000000Y-45000000D03*
X70000000Y-45000000D03*
X75000000Y-45000000D03*
X80000000Y-45000000D03*
X85000000Y-45000000D03*
X90000000Y-45000000D03*
X95000000Y-45000000D03*
X100000000Y-45000000D03*
X105000000Y-45000000D03*
X110000000Y-45000000D03*
X115000000Y-45000000D03*
X120000000Y-45000000D03*
X125000000Y-45000000D03*
X130000000Y-45000000D03*
X135000000Y-45000000D03*
X140000000Y-45000000D03*
X145000000Y-45000000D03*
X150000000Y-45000000D03*
X155000000Y-45000000D03*
X160000000Y-45000000D03*
X165000000Y-45000000D03*
X170000000Y-45000000D03*
%TD*%
D18*
%TO.N,Net-(C8-Pad2)*%
X124000000Y-86500000D02*
X124000000Y-80550000D01*
X124000000Y-80550000D02*
X125000000Y-79550000D01*
%TO.N,Net-(C9-Pad2)*%
X150000000Y-79550000D02*
X151000000Y-80550000D01*
X151000000Y-85500000D02*
X152000000Y-86500000D01*
X151000000Y-80550000D02*
X151000000Y-85500000D01*
%TO.N,Net-(J3-In)*%
X168000000Y-72450000D02*
X173550000Y-72450000D01*
X173550000Y-72450000D02*
X176000000Y-74900000D01*
X176000000Y-74900000D02*
X176000000Y-80350000D01*
%TO.N,Net-(C7-Pad2)*%
X98000000Y-79550000D02*
X98000000Y-86000000D01*
%TO.N,Net-(C6-Pad2)*%
X73000000Y-79550000D02*
X73000000Y-86500000D01*
%TO.N,Net-(C8-Pad2)*%
X115600000Y-86500000D02*
X124000000Y-86500000D01*
X124000000Y-86500000D02*
X128000000Y-86500000D01*
%TO.N,Net-(C9-Pad2)*%
X142600000Y-86500000D02*
X152000000Y-86500000D01*
X152000000Y-86500000D02*
X158340000Y-86500000D01*
%TO.N,Net-(J3-In)*%
X159000000Y-72560000D02*
X167890000Y-72560000D01*
X167890000Y-72560000D02*
X168000000Y-72450000D01*
%TO.N,Net-(J2-In)*%
X141500000Y-51500000D02*
X143500000Y-51500000D01*
X143500000Y-51500000D02*
X144000000Y-51000000D01*
X144000000Y-51000000D02*
X175000000Y-51000000D01*
%TO.N,Net-(C9-Pad2)*%
X158340000Y-86500000D02*
X159000000Y-87160000D01*
%TO.N,Net-(C7-Pad2)*%
X98000000Y-86000000D02*
X100500000Y-86000000D01*
X100500000Y-86000000D02*
X101000000Y-86500000D01*
X89600000Y-86500000D02*
X97500000Y-86500000D01*
X97500000Y-86500000D02*
X98000000Y-86000000D01*
%TO.N,Net-(C6-Pad2)*%
X62940000Y-86500000D02*
X73000000Y-86500000D01*
X73000000Y-86500000D02*
X75000000Y-86500000D01*
%TO.N,Net-(J1-Ext)*%
X46950000Y-51500000D02*
X46950000Y-85110000D01*
X46950000Y-85110000D02*
X48340000Y-86500000D01*
%TO.N,Net-(C3-Pad2)*%
X106450000Y-51500000D02*
X97500000Y-51500000D01*
%TO.N,Net-(C4-Pad2)*%
X111550000Y-51500000D02*
X118840000Y-51500000D01*
X118840000Y-51500000D02*
X119000000Y-51340000D01*
%TO.N,Net-(J1-Ext)*%
X37000000Y-52110000D02*
X37610000Y-51500000D01*
X37610000Y-51500000D02*
X46950000Y-51500000D01*
%TO.N,Net-(C1-Pad2)*%
X52050000Y-51500000D02*
X59160000Y-51500000D01*
X68110000Y-51840000D02*
X68450000Y-51500000D01*
X59160000Y-51500000D02*
X59500000Y-51840000D01*
X59500000Y-51840000D02*
X68110000Y-51840000D01*
%TO.N,Net-(C2-Pad2)*%
X73550000Y-51500000D02*
X80000000Y-51500000D01*
X80000000Y-51500000D02*
X85950000Y-51500000D01*
%TO.N,Net-(C3-Pad2)*%
X91050000Y-51500000D02*
X97500000Y-51500000D01*
%TO.N,Net-(C4-Pad2)*%
X119000000Y-51340000D02*
X128790000Y-51340000D01*
X128790000Y-51340000D02*
X128950000Y-51500000D01*
%TO.N,Net-(J2-In)*%
X134050000Y-51500000D02*
X141500000Y-51500000D01*
%TD*%
%TA.AperFunction,Conductor*%
%TO.N,GND*%
G36*
X188442539Y-29520185D02*
G01*
X188488294Y-29572989D01*
X188499500Y-29624500D01*
X188499500Y-53114355D01*
X188479815Y-53181394D01*
X188427011Y-53227149D01*
X188357853Y-53237093D01*
X188312379Y-53221087D01*
X188137453Y-53117635D01*
X188137449Y-53117633D01*
X187848684Y-52992674D01*
X187546551Y-52904895D01*
X187546543Y-52904893D01*
X187235782Y-52855674D01*
X187104844Y-52849500D01*
X187104840Y-52849500D01*
X182895160Y-52849500D01*
X182895156Y-52849500D01*
X182764219Y-52855674D01*
X182764214Y-52855674D01*
X182453456Y-52904893D01*
X182453448Y-52904895D01*
X182151315Y-52992674D01*
X181862552Y-53117632D01*
X181754738Y-53181394D01*
X181591732Y-53277796D01*
X181591728Y-53277798D01*
X181591723Y-53277802D01*
X181591722Y-53277802D01*
X181343120Y-53470637D01*
X181343120Y-53470638D01*
X181120638Y-53693120D01*
X181120637Y-53693120D01*
X180927802Y-53941722D01*
X180927802Y-53941723D01*
X180927798Y-53941728D01*
X180927796Y-53941732D01*
X180863119Y-54051094D01*
X180767632Y-54212552D01*
X180642674Y-54501315D01*
X180554895Y-54803448D01*
X180554893Y-54803456D01*
X180505674Y-55114214D01*
X180505674Y-55114219D01*
X180499500Y-55245155D01*
X180499500Y-59454844D01*
X180505674Y-59585780D01*
X180505674Y-59585785D01*
X180554893Y-59896543D01*
X180554895Y-59896551D01*
X180642674Y-60198684D01*
X180767632Y-60487447D01*
X180767633Y-60487448D01*
X180927796Y-60758268D01*
X180927801Y-60758274D01*
X180927802Y-60758276D01*
X180927802Y-60758277D01*
X181120637Y-61006879D01*
X181343120Y-61229362D01*
X181591722Y-61422197D01*
X181591726Y-61422199D01*
X181591732Y-61422204D01*
X181862552Y-61582367D01*
X182151311Y-61707324D01*
X182205419Y-61723043D01*
X182453448Y-61795104D01*
X182453456Y-61795106D01*
X182764217Y-61844325D01*
X182895156Y-61850500D01*
X182895160Y-61850500D01*
X187104844Y-61850500D01*
X187179664Y-61846971D01*
X187235783Y-61844325D01*
X187235785Y-61844325D01*
X187546543Y-61795106D01*
X187546551Y-61795104D01*
X187697617Y-61751214D01*
X187848689Y-61707324D01*
X188137448Y-61582367D01*
X188312382Y-61478910D01*
X188380102Y-61461729D01*
X188446365Y-61483888D01*
X188490128Y-61538354D01*
X188499500Y-61585644D01*
X188499500Y-82464355D01*
X188479815Y-82531394D01*
X188427011Y-82577149D01*
X188357853Y-82587093D01*
X188312379Y-82571087D01*
X188137453Y-82467635D01*
X188137449Y-82467633D01*
X187848684Y-82342674D01*
X187546551Y-82254895D01*
X187546543Y-82254893D01*
X187235782Y-82205674D01*
X187104844Y-82199500D01*
X187104840Y-82199500D01*
X182895160Y-82199500D01*
X182895156Y-82199500D01*
X182764219Y-82205674D01*
X182764214Y-82205674D01*
X182453456Y-82254893D01*
X182453448Y-82254895D01*
X182151315Y-82342674D01*
X181862552Y-82467632D01*
X181724319Y-82549384D01*
X181591732Y-82627796D01*
X181591728Y-82627798D01*
X181591723Y-82627802D01*
X181591722Y-82627802D01*
X181343120Y-82820637D01*
X181343120Y-82820638D01*
X181120638Y-83043120D01*
X181120637Y-83043120D01*
X180927802Y-83291722D01*
X180927802Y-83291723D01*
X180927798Y-83291728D01*
X180927796Y-83291732D01*
X180863119Y-83401094D01*
X180767632Y-83562552D01*
X180642674Y-83851315D01*
X180554895Y-84153448D01*
X180554893Y-84153456D01*
X180505674Y-84464214D01*
X180505674Y-84464219D01*
X180499500Y-84595155D01*
X180499500Y-88804844D01*
X180505674Y-88935780D01*
X180505674Y-88935785D01*
X180554893Y-89246543D01*
X180554895Y-89246551D01*
X180642674Y-89548684D01*
X180767632Y-89837447D01*
X180793301Y-89880850D01*
X180927796Y-90108268D01*
X180927801Y-90108274D01*
X180927802Y-90108276D01*
X180927802Y-90108277D01*
X181120637Y-90356879D01*
X181343120Y-90579362D01*
X181591722Y-90772197D01*
X181591726Y-90772199D01*
X181591732Y-90772204D01*
X181862552Y-90932367D01*
X182151311Y-91057324D01*
X182205419Y-91073043D01*
X182453448Y-91145104D01*
X182453456Y-91145106D01*
X182764217Y-91194325D01*
X182895156Y-91200500D01*
X182895160Y-91200500D01*
X187104844Y-91200500D01*
X187179664Y-91196971D01*
X187235783Y-91194325D01*
X187235785Y-91194325D01*
X187546543Y-91145106D01*
X187546551Y-91145104D01*
X187697617Y-91101214D01*
X187848689Y-91057324D01*
X188137448Y-90932367D01*
X188312382Y-90828910D01*
X188380102Y-90811729D01*
X188446365Y-90833888D01*
X188490128Y-90888354D01*
X188499500Y-90935644D01*
X188499500Y-100375500D01*
X188479815Y-100442539D01*
X188427011Y-100488294D01*
X188375500Y-100499500D01*
X32624500Y-100499500D01*
X32557461Y-100479815D01*
X32511706Y-100427011D01*
X32500500Y-100375500D01*
X32500500Y-96878711D01*
X34149500Y-96878711D01*
X34149500Y-97121288D01*
X34181161Y-97361785D01*
X34243947Y-97596104D01*
X34336773Y-97820205D01*
X34336776Y-97820212D01*
X34458064Y-98030289D01*
X34458066Y-98030292D01*
X34458067Y-98030293D01*
X34605733Y-98222736D01*
X34605739Y-98222743D01*
X34777256Y-98394260D01*
X34777262Y-98394265D01*
X34969711Y-98541936D01*
X35179788Y-98663224D01*
X35403900Y-98756054D01*
X35638211Y-98818838D01*
X35818586Y-98842584D01*
X35878711Y-98850500D01*
X35878712Y-98850500D01*
X36121289Y-98850500D01*
X36169388Y-98844167D01*
X36361789Y-98818838D01*
X36596100Y-98756054D01*
X36820212Y-98663224D01*
X37030289Y-98541936D01*
X37222738Y-98394265D01*
X37394265Y-98222738D01*
X37541936Y-98030289D01*
X37663224Y-97820212D01*
X37756054Y-97596100D01*
X37818838Y-97361789D01*
X37850500Y-97121288D01*
X37850500Y-96878712D01*
X37850500Y-96878711D01*
X183149500Y-96878711D01*
X183149500Y-97121288D01*
X183181161Y-97361785D01*
X183243947Y-97596104D01*
X183336773Y-97820205D01*
X183336776Y-97820212D01*
X183458064Y-98030289D01*
X183458066Y-98030292D01*
X183458067Y-98030293D01*
X183605733Y-98222736D01*
X183605739Y-98222743D01*
X183777256Y-98394260D01*
X183777262Y-98394265D01*
X183969711Y-98541936D01*
X184179788Y-98663224D01*
X184403900Y-98756054D01*
X184638211Y-98818838D01*
X184818586Y-98842584D01*
X184878711Y-98850500D01*
X184878712Y-98850500D01*
X185121289Y-98850500D01*
X185169388Y-98844167D01*
X185361789Y-98818838D01*
X185596100Y-98756054D01*
X185820212Y-98663224D01*
X186030289Y-98541936D01*
X186222738Y-98394265D01*
X186394265Y-98222738D01*
X186541936Y-98030289D01*
X186663224Y-97820212D01*
X186756054Y-97596100D01*
X186818838Y-97361789D01*
X186850500Y-97121288D01*
X186850500Y-96878712D01*
X186818838Y-96638211D01*
X186756054Y-96403900D01*
X186663224Y-96179788D01*
X186541936Y-95969711D01*
X186394265Y-95777262D01*
X186394260Y-95777256D01*
X186222743Y-95605739D01*
X186222736Y-95605733D01*
X186030293Y-95458067D01*
X186030292Y-95458066D01*
X186030289Y-95458064D01*
X185820212Y-95336776D01*
X185820205Y-95336773D01*
X185596104Y-95243947D01*
X185361785Y-95181161D01*
X185121289Y-95149500D01*
X185121288Y-95149500D01*
X184878712Y-95149500D01*
X184878711Y-95149500D01*
X184638214Y-95181161D01*
X184403895Y-95243947D01*
X184179794Y-95336773D01*
X184179785Y-95336777D01*
X183969706Y-95458067D01*
X183777263Y-95605733D01*
X183777256Y-95605739D01*
X183605739Y-95777256D01*
X183605733Y-95777263D01*
X183458067Y-95969706D01*
X183336777Y-96179785D01*
X183336773Y-96179794D01*
X183243947Y-96403895D01*
X183181161Y-96638214D01*
X183149500Y-96878711D01*
X37850500Y-96878711D01*
X37818838Y-96638211D01*
X37756054Y-96403900D01*
X37663224Y-96179788D01*
X37541936Y-95969711D01*
X37394265Y-95777262D01*
X37394260Y-95777256D01*
X37222743Y-95605739D01*
X37222736Y-95605733D01*
X37030293Y-95458067D01*
X37030292Y-95458066D01*
X37030289Y-95458064D01*
X36820212Y-95336776D01*
X36820205Y-95336773D01*
X36596104Y-95243947D01*
X36361785Y-95181161D01*
X36121289Y-95149500D01*
X36121288Y-95149500D01*
X35878712Y-95149500D01*
X35878711Y-95149500D01*
X35638214Y-95181161D01*
X35403895Y-95243947D01*
X35179794Y-95336773D01*
X35179785Y-95336777D01*
X34969706Y-95458067D01*
X34777263Y-95605733D01*
X34777256Y-95605739D01*
X34605739Y-95777256D01*
X34605733Y-95777263D01*
X34458067Y-95969706D01*
X34336777Y-96179785D01*
X34336773Y-96179794D01*
X34243947Y-96403895D01*
X34181161Y-96638214D01*
X34149500Y-96878711D01*
X32500500Y-96878711D01*
X32500500Y-65546104D01*
X32520185Y-65479065D01*
X32572989Y-65433310D01*
X32642147Y-65423366D01*
X32705703Y-65452391D01*
X32712181Y-65458423D01*
X32843120Y-65589362D01*
X33091722Y-65782197D01*
X33091726Y-65782199D01*
X33091732Y-65782204D01*
X33362552Y-65942367D01*
X33651311Y-66067324D01*
X33705419Y-66083043D01*
X33953448Y-66155104D01*
X33953456Y-66155106D01*
X34264217Y-66204325D01*
X34395156Y-66210500D01*
X34395160Y-66210500D01*
X39604844Y-66210500D01*
X39679664Y-66206971D01*
X39735783Y-66204325D01*
X39735785Y-66204325D01*
X40046543Y-66155106D01*
X40046551Y-66155104D01*
X40197617Y-66111214D01*
X40348689Y-66067324D01*
X40637448Y-65942367D01*
X40908268Y-65782204D01*
X41156879Y-65589362D01*
X41156880Y-65589362D01*
X41379362Y-65366880D01*
X41379362Y-65366879D01*
X41572197Y-65118277D01*
X41572204Y-65118268D01*
X41732367Y-64847448D01*
X41857324Y-64558689D01*
X41945105Y-64256546D01*
X41945106Y-64256543D01*
X41994325Y-63945785D01*
X41994325Y-63945780D01*
X42000500Y-63814844D01*
X42000500Y-58605155D01*
X41994325Y-58474219D01*
X41994325Y-58474214D01*
X41945106Y-58163456D01*
X41945104Y-58163448D01*
X41857325Y-57861315D01*
X41857324Y-57861311D01*
X41732367Y-57572552D01*
X41572204Y-57301732D01*
X41572197Y-57301722D01*
X41379362Y-57053120D01*
X41156884Y-56830642D01*
X41125230Y-56806089D01*
X41063205Y-56757977D01*
X41022300Y-56701337D01*
X41018510Y-56631571D01*
X41053040Y-56570830D01*
X41063195Y-56562030D01*
X41156880Y-56489361D01*
X41267176Y-56379065D01*
X41379362Y-56266880D01*
X41379362Y-56266879D01*
X41572197Y-56018277D01*
X41572204Y-56018268D01*
X41732367Y-55747448D01*
X41806882Y-55575253D01*
X41851573Y-55521546D01*
X41918205Y-55500525D01*
X41920684Y-55500500D01*
X42825500Y-55500500D01*
X42892539Y-55520185D01*
X42938294Y-55572989D01*
X42949500Y-55624500D01*
X42949500Y-84913468D01*
X42949500Y-85306532D01*
X42952532Y-85337315D01*
X42988025Y-85697691D01*
X42988028Y-85697708D01*
X43064703Y-86083193D01*
X43064706Y-86083204D01*
X43162267Y-86404819D01*
X43170272Y-86431206D01*
X43178810Y-86459353D01*
X43318838Y-86797412D01*
X43329230Y-86822499D01*
X43329232Y-86822504D01*
X43514511Y-87169137D01*
X43514522Y-87169155D01*
X43634927Y-87349353D01*
X43732887Y-87495960D01*
X43732897Y-87495974D01*
X43982254Y-87799817D01*
X45650183Y-89467745D01*
X45650188Y-89467749D01*
X45650189Y-89467750D01*
X45954031Y-89717107D01*
X46280852Y-89935482D01*
X46280861Y-89935487D01*
X46280863Y-89935488D01*
X46627495Y-90120767D01*
X46627497Y-90120767D01*
X46627503Y-90120771D01*
X46990647Y-90271190D01*
X47366786Y-90385291D01*
X47366792Y-90385292D01*
X47366795Y-90385293D01*
X47366806Y-90385296D01*
X47583331Y-90428364D01*
X47752297Y-90461973D01*
X48143468Y-90500501D01*
X48143471Y-90500501D01*
X48536529Y-90500501D01*
X48536532Y-90500501D01*
X48927703Y-90461973D01*
X49117199Y-90424280D01*
X49313194Y-90385296D01*
X49313205Y-90385293D01*
X49313205Y-90385292D01*
X49313215Y-90385291D01*
X49689354Y-90271190D01*
X50052497Y-90120771D01*
X50399148Y-89935482D01*
X50725969Y-89717107D01*
X51029812Y-89467750D01*
X51307750Y-89189812D01*
X51557107Y-88885969D01*
X51775482Y-88559148D01*
X51960771Y-88212497D01*
X52111190Y-87849354D01*
X52225291Y-87473215D01*
X52225293Y-87473205D01*
X52225296Y-87473194D01*
X52264280Y-87277199D01*
X52301973Y-87087703D01*
X52340501Y-86696532D01*
X52340501Y-86499999D01*
X58934675Y-86499999D01*
X58939351Y-86595180D01*
X58939500Y-86601264D01*
X58939500Y-86696528D01*
X58948838Y-86791343D01*
X58949286Y-86797412D01*
X58953962Y-86892591D01*
X58953962Y-86892596D01*
X58953963Y-86892601D01*
X58967943Y-86986848D01*
X58968688Y-86992888D01*
X58978025Y-87087691D01*
X58978025Y-87087693D01*
X58996611Y-87181133D01*
X58997651Y-87187127D01*
X59011637Y-87281410D01*
X59034790Y-87373839D01*
X59036123Y-87379775D01*
X59054710Y-87473216D01*
X59082367Y-87564391D01*
X59083989Y-87570254D01*
X59107141Y-87662680D01*
X59107142Y-87662682D01*
X59139243Y-87752400D01*
X59141151Y-87758177D01*
X59168808Y-87849348D01*
X59168810Y-87849354D01*
X59205274Y-87937387D01*
X59207456Y-87943043D01*
X59229188Y-88003778D01*
X59239561Y-88032770D01*
X59239566Y-88032780D01*
X59280304Y-88118915D01*
X59282770Y-88124478D01*
X59286389Y-88133214D01*
X59319229Y-88212497D01*
X59364148Y-88296535D01*
X59366869Y-88301939D01*
X59395325Y-88362105D01*
X59407620Y-88388100D01*
X59456598Y-88469813D01*
X59459598Y-88475109D01*
X59504511Y-88559137D01*
X59504515Y-88559144D01*
X59504517Y-88559148D01*
X59504522Y-88559155D01*
X59557459Y-88638380D01*
X59560715Y-88643522D01*
X59609695Y-88725242D01*
X59666456Y-88801775D01*
X59669960Y-88806750D01*
X59722890Y-88885965D01*
X59722893Y-88885970D01*
X59783344Y-88959630D01*
X59787087Y-88964427D01*
X59843840Y-89040949D01*
X59907830Y-89111551D01*
X59911801Y-89116154D01*
X59972250Y-89189812D01*
X60039649Y-89257211D01*
X60043827Y-89261600D01*
X60107807Y-89332192D01*
X60178398Y-89396171D01*
X60182786Y-89400348D01*
X60250188Y-89467750D01*
X60303081Y-89511158D01*
X60323838Y-89528193D01*
X60328446Y-89532168D01*
X60399049Y-89596159D01*
X60475573Y-89652913D01*
X60480371Y-89656657D01*
X60554027Y-89717105D01*
X60554032Y-89717109D01*
X60633247Y-89770038D01*
X60638220Y-89773539D01*
X60714761Y-89830306D01*
X60796511Y-89879305D01*
X60801576Y-89882511D01*
X60880851Y-89935482D01*
X60964927Y-89980421D01*
X60970143Y-89983376D01*
X61051903Y-90032381D01*
X61138043Y-90073122D01*
X61143461Y-90075849D01*
X61227503Y-90120771D01*
X61315529Y-90157232D01*
X61321077Y-90159691D01*
X61407228Y-90200438D01*
X61496962Y-90232544D01*
X61502606Y-90234721D01*
X61590647Y-90271190D01*
X61681832Y-90298850D01*
X61687609Y-90300759D01*
X61777316Y-90332857D01*
X61869771Y-90356015D01*
X61875576Y-90357621D01*
X61966785Y-90385290D01*
X62060242Y-90403879D01*
X62066154Y-90405207D01*
X62158600Y-90428364D01*
X62252887Y-90442349D01*
X62258823Y-90443379D01*
X62352297Y-90461973D01*
X62352304Y-90461973D01*
X62352306Y-90461974D01*
X62352302Y-90461974D01*
X62391747Y-90465858D01*
X62447131Y-90471312D01*
X62453111Y-90472049D01*
X62547409Y-90486038D01*
X62642607Y-90490714D01*
X62648622Y-90491157D01*
X62743468Y-90500500D01*
X62838735Y-90500500D01*
X62844818Y-90500648D01*
X62940000Y-90505325D01*
X63035181Y-90500648D01*
X63041265Y-90500500D01*
X75196529Y-90500500D01*
X75196532Y-90500500D01*
X75587703Y-90461973D01*
X75662748Y-90447045D01*
X75973194Y-90385295D01*
X75973205Y-90385292D01*
X75973205Y-90385291D01*
X75973215Y-90385290D01*
X76349353Y-90271190D01*
X76712497Y-90120771D01*
X77059149Y-89935482D01*
X77385969Y-89717107D01*
X77689812Y-89467750D01*
X77967750Y-89189812D01*
X78217107Y-88885969D01*
X78435482Y-88559149D01*
X78620771Y-88212497D01*
X78771190Y-87849353D01*
X78885290Y-87473215D01*
X78885292Y-87473205D01*
X78885295Y-87473194D01*
X78961973Y-87087702D01*
X78988093Y-86822499D01*
X79000500Y-86696532D01*
X79000500Y-86499999D01*
X85594675Y-86499999D01*
X85599351Y-86595180D01*
X85599500Y-86601264D01*
X85599500Y-86696528D01*
X85608838Y-86791343D01*
X85609286Y-86797412D01*
X85613962Y-86892591D01*
X85613962Y-86892596D01*
X85613963Y-86892601D01*
X85627943Y-86986848D01*
X85628688Y-86992888D01*
X85638025Y-87087691D01*
X85638025Y-87087693D01*
X85656611Y-87181133D01*
X85657651Y-87187127D01*
X85671637Y-87281410D01*
X85694790Y-87373839D01*
X85696123Y-87379775D01*
X85714710Y-87473216D01*
X85742367Y-87564391D01*
X85743989Y-87570254D01*
X85767141Y-87662680D01*
X85767142Y-87662682D01*
X85799243Y-87752400D01*
X85801151Y-87758177D01*
X85828808Y-87849348D01*
X85828810Y-87849354D01*
X85865274Y-87937387D01*
X85867456Y-87943043D01*
X85889188Y-88003778D01*
X85899561Y-88032770D01*
X85899566Y-88032780D01*
X85940304Y-88118915D01*
X85942770Y-88124478D01*
X85946389Y-88133214D01*
X85979229Y-88212497D01*
X86024148Y-88296535D01*
X86026869Y-88301939D01*
X86055325Y-88362105D01*
X86067620Y-88388100D01*
X86116598Y-88469813D01*
X86119598Y-88475109D01*
X86164511Y-88559137D01*
X86164515Y-88559144D01*
X86164517Y-88559148D01*
X86164522Y-88559155D01*
X86217459Y-88638380D01*
X86220715Y-88643522D01*
X86269695Y-88725242D01*
X86326456Y-88801775D01*
X86329960Y-88806750D01*
X86382890Y-88885965D01*
X86382893Y-88885970D01*
X86443344Y-88959630D01*
X86447087Y-88964427D01*
X86503840Y-89040949D01*
X86567830Y-89111551D01*
X86571801Y-89116154D01*
X86632250Y-89189812D01*
X86699649Y-89257211D01*
X86703827Y-89261600D01*
X86767807Y-89332192D01*
X86838398Y-89396171D01*
X86842786Y-89400348D01*
X86910188Y-89467750D01*
X86963081Y-89511158D01*
X86983838Y-89528193D01*
X86988446Y-89532168D01*
X87059049Y-89596159D01*
X87135573Y-89652913D01*
X87140371Y-89656657D01*
X87214027Y-89717105D01*
X87214032Y-89717109D01*
X87293247Y-89770038D01*
X87298220Y-89773539D01*
X87374761Y-89830306D01*
X87456511Y-89879305D01*
X87461576Y-89882511D01*
X87540851Y-89935482D01*
X87624927Y-89980421D01*
X87630143Y-89983376D01*
X87711903Y-90032381D01*
X87798043Y-90073122D01*
X87803461Y-90075849D01*
X87887503Y-90120771D01*
X87975529Y-90157232D01*
X87981077Y-90159691D01*
X88067228Y-90200438D01*
X88156962Y-90232544D01*
X88162606Y-90234721D01*
X88250647Y-90271190D01*
X88341832Y-90298850D01*
X88347609Y-90300759D01*
X88437316Y-90332857D01*
X88529771Y-90356015D01*
X88535576Y-90357621D01*
X88626785Y-90385290D01*
X88720242Y-90403879D01*
X88726154Y-90405207D01*
X88818600Y-90428364D01*
X88912887Y-90442349D01*
X88918823Y-90443379D01*
X89012297Y-90461973D01*
X89012304Y-90461973D01*
X89012306Y-90461974D01*
X89012302Y-90461974D01*
X89051747Y-90465858D01*
X89107131Y-90471312D01*
X89113111Y-90472049D01*
X89207409Y-90486038D01*
X89302607Y-90490714D01*
X89308622Y-90491157D01*
X89403468Y-90500500D01*
X89498735Y-90500500D01*
X89504818Y-90500648D01*
X89600000Y-90505325D01*
X89695181Y-90500648D01*
X89701265Y-90500500D01*
X97696529Y-90500500D01*
X97696532Y-90500500D01*
X98087703Y-90461973D01*
X98299695Y-90419805D01*
X98473193Y-90385296D01*
X98473204Y-90385293D01*
X98473204Y-90385292D01*
X98473214Y-90385291D01*
X98849353Y-90271190D01*
X99202548Y-90124891D01*
X99272017Y-90117423D01*
X99297449Y-90124890D01*
X99650647Y-90271190D01*
X100026786Y-90385291D01*
X100026792Y-90385292D01*
X100026795Y-90385293D01*
X100026806Y-90385296D01*
X100243331Y-90428364D01*
X100412297Y-90461973D01*
X100803468Y-90500501D01*
X100803471Y-90500501D01*
X101196529Y-90500501D01*
X101196532Y-90500501D01*
X101587703Y-90461973D01*
X101777199Y-90424280D01*
X101973194Y-90385296D01*
X101973205Y-90385293D01*
X101973205Y-90385292D01*
X101973215Y-90385291D01*
X102349354Y-90271190D01*
X102712498Y-90120771D01*
X103059148Y-89935482D01*
X103385969Y-89717107D01*
X103689812Y-89467750D01*
X103967750Y-89189812D01*
X104217107Y-88885969D01*
X104435482Y-88559148D01*
X104620771Y-88212498D01*
X104771190Y-87849354D01*
X104885291Y-87473215D01*
X104885293Y-87473205D01*
X104885296Y-87473194D01*
X104924280Y-87277199D01*
X104961973Y-87087703D01*
X105000501Y-86696532D01*
X105000501Y-86499999D01*
X111594675Y-86499999D01*
X111599351Y-86595180D01*
X111599500Y-86601264D01*
X111599500Y-86696528D01*
X111608838Y-86791343D01*
X111609286Y-86797412D01*
X111613962Y-86892591D01*
X111613962Y-86892596D01*
X111613963Y-86892601D01*
X111627943Y-86986848D01*
X111628688Y-86992888D01*
X111638025Y-87087691D01*
X111638025Y-87087693D01*
X111656611Y-87181133D01*
X111657651Y-87187127D01*
X111671637Y-87281410D01*
X111694790Y-87373839D01*
X111696123Y-87379775D01*
X111714710Y-87473216D01*
X111742367Y-87564391D01*
X111743989Y-87570254D01*
X111767141Y-87662680D01*
X111767142Y-87662682D01*
X111799243Y-87752400D01*
X111801151Y-87758177D01*
X111828808Y-87849348D01*
X111828810Y-87849354D01*
X111865274Y-87937387D01*
X111867456Y-87943043D01*
X111889188Y-88003778D01*
X111899561Y-88032770D01*
X111899566Y-88032780D01*
X111940304Y-88118915D01*
X111942770Y-88124478D01*
X111946389Y-88133214D01*
X111979229Y-88212497D01*
X112024148Y-88296535D01*
X112026869Y-88301939D01*
X112055325Y-88362105D01*
X112067620Y-88388100D01*
X112116598Y-88469813D01*
X112119598Y-88475109D01*
X112164511Y-88559137D01*
X112164515Y-88559144D01*
X112164517Y-88559148D01*
X112164522Y-88559155D01*
X112217459Y-88638380D01*
X112220715Y-88643522D01*
X112269695Y-88725242D01*
X112326456Y-88801775D01*
X112329960Y-88806750D01*
X112382890Y-88885965D01*
X112382893Y-88885970D01*
X112443344Y-88959630D01*
X112447087Y-88964427D01*
X112503840Y-89040949D01*
X112567830Y-89111551D01*
X112571801Y-89116154D01*
X112632250Y-89189812D01*
X112699649Y-89257211D01*
X112703827Y-89261600D01*
X112767807Y-89332192D01*
X112838398Y-89396171D01*
X112842786Y-89400348D01*
X112910188Y-89467750D01*
X112963081Y-89511158D01*
X112983838Y-89528193D01*
X112988446Y-89532168D01*
X113059049Y-89596159D01*
X113135573Y-89652913D01*
X113140371Y-89656657D01*
X113214027Y-89717105D01*
X113214032Y-89717109D01*
X113293247Y-89770038D01*
X113298220Y-89773539D01*
X113374761Y-89830306D01*
X113456511Y-89879305D01*
X113461576Y-89882511D01*
X113540851Y-89935482D01*
X113624927Y-89980421D01*
X113630143Y-89983376D01*
X113711903Y-90032381D01*
X113798043Y-90073122D01*
X113803461Y-90075849D01*
X113887503Y-90120771D01*
X113975529Y-90157232D01*
X113981077Y-90159691D01*
X114067228Y-90200438D01*
X114156962Y-90232544D01*
X114162606Y-90234721D01*
X114250647Y-90271190D01*
X114341832Y-90298850D01*
X114347609Y-90300759D01*
X114437316Y-90332857D01*
X114529771Y-90356015D01*
X114535576Y-90357621D01*
X114626785Y-90385290D01*
X114720242Y-90403879D01*
X114726154Y-90405207D01*
X114818600Y-90428364D01*
X114912887Y-90442349D01*
X114918823Y-90443379D01*
X115012297Y-90461973D01*
X115012304Y-90461973D01*
X115012306Y-90461974D01*
X115012302Y-90461974D01*
X115051747Y-90465858D01*
X115107131Y-90471312D01*
X115113111Y-90472049D01*
X115207409Y-90486038D01*
X115302607Y-90490714D01*
X115308622Y-90491157D01*
X115403468Y-90500500D01*
X115498735Y-90500500D01*
X115504818Y-90500648D01*
X115600000Y-90505325D01*
X115695181Y-90500648D01*
X115701265Y-90500500D01*
X128196529Y-90500500D01*
X128196532Y-90500500D01*
X128587703Y-90461973D01*
X128662748Y-90447045D01*
X128973194Y-90385295D01*
X128973205Y-90385292D01*
X128973205Y-90385291D01*
X128973215Y-90385290D01*
X129349353Y-90271190D01*
X129712497Y-90120771D01*
X130059149Y-89935482D01*
X130385969Y-89717107D01*
X130689812Y-89467750D01*
X130967750Y-89189812D01*
X131217107Y-88885969D01*
X131435482Y-88559149D01*
X131620771Y-88212497D01*
X131771190Y-87849353D01*
X131885290Y-87473215D01*
X131885292Y-87473205D01*
X131885295Y-87473194D01*
X131961973Y-87087702D01*
X131988093Y-86822499D01*
X132000500Y-86696532D01*
X132000500Y-86499999D01*
X138594675Y-86499999D01*
X138599351Y-86595180D01*
X138599500Y-86601264D01*
X138599500Y-86696528D01*
X138608838Y-86791343D01*
X138609286Y-86797412D01*
X138613962Y-86892591D01*
X138613962Y-86892596D01*
X138613963Y-86892601D01*
X138627943Y-86986848D01*
X138628688Y-86992888D01*
X138638025Y-87087691D01*
X138638025Y-87087693D01*
X138656611Y-87181133D01*
X138657651Y-87187127D01*
X138671637Y-87281410D01*
X138694790Y-87373839D01*
X138696123Y-87379775D01*
X138714710Y-87473216D01*
X138742367Y-87564391D01*
X138743989Y-87570254D01*
X138767141Y-87662680D01*
X138767142Y-87662682D01*
X138799243Y-87752400D01*
X138801151Y-87758177D01*
X138828808Y-87849348D01*
X138828810Y-87849354D01*
X138865274Y-87937387D01*
X138867456Y-87943043D01*
X138889188Y-88003778D01*
X138899561Y-88032770D01*
X138899566Y-88032780D01*
X138940304Y-88118915D01*
X138942770Y-88124478D01*
X138946389Y-88133214D01*
X138979229Y-88212497D01*
X139024148Y-88296535D01*
X139026869Y-88301939D01*
X139055325Y-88362105D01*
X139067620Y-88388100D01*
X139116598Y-88469813D01*
X139119598Y-88475109D01*
X139164511Y-88559137D01*
X139164515Y-88559144D01*
X139164517Y-88559148D01*
X139164522Y-88559155D01*
X139217459Y-88638380D01*
X139220715Y-88643522D01*
X139269695Y-88725242D01*
X139326456Y-88801775D01*
X139329960Y-88806750D01*
X139382890Y-88885965D01*
X139382893Y-88885970D01*
X139443344Y-88959630D01*
X139447087Y-88964427D01*
X139503840Y-89040949D01*
X139567830Y-89111551D01*
X139571801Y-89116154D01*
X139632250Y-89189812D01*
X139699649Y-89257211D01*
X139703827Y-89261600D01*
X139767807Y-89332192D01*
X139838398Y-89396171D01*
X139842786Y-89400348D01*
X139910188Y-89467750D01*
X139963081Y-89511158D01*
X139983838Y-89528193D01*
X139988446Y-89532168D01*
X140059049Y-89596159D01*
X140135573Y-89652913D01*
X140140371Y-89656657D01*
X140214027Y-89717105D01*
X140214032Y-89717109D01*
X140293247Y-89770038D01*
X140298220Y-89773539D01*
X140374761Y-89830306D01*
X140456511Y-89879305D01*
X140461576Y-89882511D01*
X140540851Y-89935482D01*
X140624927Y-89980421D01*
X140630143Y-89983376D01*
X140711903Y-90032381D01*
X140798043Y-90073122D01*
X140803461Y-90075849D01*
X140887503Y-90120771D01*
X140975529Y-90157232D01*
X140981077Y-90159691D01*
X141067228Y-90200438D01*
X141156962Y-90232544D01*
X141162606Y-90234721D01*
X141250647Y-90271190D01*
X141341832Y-90298850D01*
X141347609Y-90300759D01*
X141437316Y-90332857D01*
X141529771Y-90356015D01*
X141535576Y-90357621D01*
X141626785Y-90385290D01*
X141720242Y-90403879D01*
X141726154Y-90405207D01*
X141818600Y-90428364D01*
X141912887Y-90442349D01*
X141918823Y-90443379D01*
X142012297Y-90461973D01*
X142012304Y-90461973D01*
X142012306Y-90461974D01*
X142012302Y-90461974D01*
X142051747Y-90465858D01*
X142107131Y-90471312D01*
X142113111Y-90472049D01*
X142207409Y-90486038D01*
X142302607Y-90490714D01*
X142308622Y-90491157D01*
X142403468Y-90500500D01*
X142498735Y-90500500D01*
X142504818Y-90500648D01*
X142600000Y-90505325D01*
X142695181Y-90500648D01*
X142701265Y-90500500D01*
X151800358Y-90500500D01*
X151800398Y-90500501D01*
X151803468Y-90500501D01*
X152199602Y-90500501D01*
X152199642Y-90500500D01*
X156761087Y-90500500D01*
X156828126Y-90520185D01*
X156829974Y-90521395D01*
X156940852Y-90595482D01*
X156940861Y-90595487D01*
X156940863Y-90595488D01*
X157287495Y-90780767D01*
X157287497Y-90780767D01*
X157287503Y-90780771D01*
X157650647Y-90931190D01*
X158026786Y-91045291D01*
X158026792Y-91045292D01*
X158026795Y-91045293D01*
X158026806Y-91045296D01*
X158242241Y-91088147D01*
X158412297Y-91121973D01*
X158803468Y-91160500D01*
X158803471Y-91160500D01*
X159196529Y-91160500D01*
X159196532Y-91160500D01*
X159587703Y-91121973D01*
X159799695Y-91079805D01*
X159973193Y-91045296D01*
X159973204Y-91045293D01*
X159973204Y-91045292D01*
X159973214Y-91045291D01*
X160349354Y-90931190D01*
X160712497Y-90780771D01*
X161059148Y-90595482D01*
X161385969Y-90377107D01*
X161689812Y-90127750D01*
X161967750Y-89849812D01*
X162217107Y-89545969D01*
X162435482Y-89219148D01*
X162620771Y-88872497D01*
X162771190Y-88509354D01*
X162885291Y-88133214D01*
X162885293Y-88133204D01*
X162885296Y-88133193D01*
X162919805Y-87959695D01*
X162961973Y-87747703D01*
X163000500Y-87356532D01*
X163000500Y-86963468D01*
X162961973Y-86572297D01*
X162908501Y-86303470D01*
X162885296Y-86186806D01*
X162885293Y-86186795D01*
X162885292Y-86186792D01*
X162885291Y-86186786D01*
X162771190Y-85810647D01*
X162620771Y-85447503D01*
X162545420Y-85306532D01*
X162435488Y-85100863D01*
X162435487Y-85100861D01*
X162435482Y-85100852D01*
X162217107Y-84774031D01*
X161967750Y-84470188D01*
X161967749Y-84470187D01*
X161967745Y-84470182D01*
X161029817Y-83532254D01*
X160725974Y-83282897D01*
X160725970Y-83282894D01*
X160725969Y-83282893D01*
X160551413Y-83166258D01*
X160399149Y-83064518D01*
X160399144Y-83064515D01*
X160399137Y-83064511D01*
X160052504Y-82879232D01*
X160052499Y-82879230D01*
X160052494Y-82879228D01*
X159689353Y-82728810D01*
X159689352Y-82728809D01*
X159689348Y-82728808D01*
X159636460Y-82712764D01*
X159636460Y-82712765D01*
X159313214Y-82614709D01*
X159313213Y-82614708D01*
X159313204Y-82614706D01*
X159313193Y-82614703D01*
X158927708Y-82538028D01*
X158927703Y-82538027D01*
X158927701Y-82538026D01*
X158927691Y-82538025D01*
X158631342Y-82508838D01*
X158536532Y-82499500D01*
X158536529Y-82499500D01*
X155124500Y-82499500D01*
X155057461Y-82479815D01*
X155011706Y-82427011D01*
X155000500Y-82375500D01*
X155000500Y-81254127D01*
X155008558Y-81210156D01*
X155080757Y-81019783D01*
X155080756Y-81019783D01*
X155080759Y-81019778D01*
X155160391Y-80696698D01*
X155200500Y-80366375D01*
X155200499Y-78733626D01*
X155160391Y-78403302D01*
X155080759Y-78080222D01*
X154962765Y-77769096D01*
X154808128Y-77474462D01*
X154708512Y-77330143D01*
X154619107Y-77200616D01*
X154619102Y-77200610D01*
X154398453Y-76951548D01*
X154398451Y-76951546D01*
X154149389Y-76730897D01*
X154149383Y-76730892D01*
X153933769Y-76582066D01*
X153875538Y-76541872D01*
X153837624Y-76521973D01*
X153580911Y-76387238D01*
X153580906Y-76387236D01*
X153580904Y-76387235D01*
X153433125Y-76331190D01*
X153269783Y-76269242D01*
X153269778Y-76269241D01*
X152946698Y-76189609D01*
X152748504Y-76165543D01*
X152616377Y-76149500D01*
X152616375Y-76149500D01*
X152149117Y-76149500D01*
X152082078Y-76129815D01*
X152080226Y-76128602D01*
X152059154Y-76114522D01*
X152059153Y-76114521D01*
X152059148Y-76114518D01*
X152059139Y-76114513D01*
X152059136Y-76114511D01*
X151712504Y-75929232D01*
X151712499Y-75929230D01*
X151349354Y-75778810D01*
X150973204Y-75664706D01*
X150973193Y-75664703D01*
X150587708Y-75588028D01*
X150587703Y-75588027D01*
X150587701Y-75588026D01*
X150587691Y-75588025D01*
X150300319Y-75559722D01*
X150196532Y-75549500D01*
X149803468Y-75549500D01*
X149708114Y-75558891D01*
X149412308Y-75588025D01*
X149412291Y-75588028D01*
X149026806Y-75664703D01*
X149026795Y-75664706D01*
X148650645Y-75778810D01*
X148287500Y-75929230D01*
X148287495Y-75929232D01*
X147940852Y-76114518D01*
X147940851Y-76114518D01*
X147919770Y-76128604D01*
X147853092Y-76149480D01*
X147850882Y-76149500D01*
X147383623Y-76149500D01*
X147103216Y-76183548D01*
X147053302Y-76189609D01*
X146837915Y-76242697D01*
X146730221Y-76269241D01*
X146730216Y-76269242D01*
X146493941Y-76358850D01*
X146419096Y-76387235D01*
X146419093Y-76387236D01*
X146419089Y-76387238D01*
X146419088Y-76387238D01*
X146124474Y-76541865D01*
X146124463Y-76541871D01*
X145850616Y-76730892D01*
X145850610Y-76730897D01*
X145601548Y-76951546D01*
X145601546Y-76951548D01*
X145380897Y-77200610D01*
X145380892Y-77200616D01*
X145191871Y-77474463D01*
X145191865Y-77474474D01*
X145037238Y-77769088D01*
X145037238Y-77769089D01*
X144919242Y-78080216D01*
X144919241Y-78080221D01*
X144919241Y-78080222D01*
X144878588Y-78245160D01*
X144839609Y-78403304D01*
X144799500Y-78733622D01*
X144799500Y-80366376D01*
X144830518Y-80621825D01*
X144839609Y-80696698D01*
X144919241Y-81019778D01*
X144919242Y-81019783D01*
X144984491Y-81191829D01*
X145037235Y-81330904D01*
X145037237Y-81330908D01*
X145037238Y-81330910D01*
X145037238Y-81330911D01*
X145191865Y-81625525D01*
X145191871Y-81625536D01*
X145380892Y-81899383D01*
X145380897Y-81899389D01*
X145601546Y-82148451D01*
X145601548Y-82148453D01*
X145753065Y-82282685D01*
X145790192Y-82341874D01*
X145789424Y-82411739D01*
X145751007Y-82470099D01*
X145687136Y-82498424D01*
X145670838Y-82499500D01*
X142701265Y-82499500D01*
X142695181Y-82499351D01*
X142600000Y-82494675D01*
X142504819Y-82499351D01*
X142498735Y-82499500D01*
X142403468Y-82499500D01*
X142354301Y-82504342D01*
X142308654Y-82508838D01*
X142302586Y-82509286D01*
X142207409Y-82513962D01*
X142207404Y-82513962D01*
X142207398Y-82513963D01*
X142113153Y-82527943D01*
X142107113Y-82528688D01*
X142012308Y-82538025D01*
X142012298Y-82538026D01*
X142012297Y-82538027D01*
X142001029Y-82540268D01*
X141918844Y-82556614D01*
X141912852Y-82557654D01*
X141818589Y-82571637D01*
X141726158Y-82594790D01*
X141720223Y-82596123D01*
X141651635Y-82609766D01*
X141626785Y-82614710D01*
X141626783Y-82614710D01*
X141626781Y-82614711D01*
X141535606Y-82642367D01*
X141529745Y-82643989D01*
X141437315Y-82667143D01*
X141437310Y-82667144D01*
X141347585Y-82699247D01*
X141341809Y-82701155D01*
X141250651Y-82728808D01*
X141250645Y-82728810D01*
X141162625Y-82765269D01*
X141156948Y-82767459D01*
X141067242Y-82799556D01*
X141067224Y-82799563D01*
X140981091Y-82840301D01*
X140975530Y-82842766D01*
X140887503Y-82879229D01*
X140845502Y-82901678D01*
X140803461Y-82924149D01*
X140798029Y-82926883D01*
X140711898Y-82967621D01*
X140630185Y-83016597D01*
X140624893Y-83019595D01*
X140540853Y-83064516D01*
X140461612Y-83117463D01*
X140456484Y-83120710D01*
X140415266Y-83145415D01*
X140374762Y-83169693D01*
X140374759Y-83169695D01*
X140298241Y-83226444D01*
X140293268Y-83229946D01*
X140214040Y-83282886D01*
X140214029Y-83282894D01*
X140140378Y-83343337D01*
X140135582Y-83347080D01*
X140059045Y-83403844D01*
X139988454Y-83467824D01*
X139983848Y-83471797D01*
X139910189Y-83532248D01*
X139842793Y-83599642D01*
X139838389Y-83603836D01*
X139767808Y-83667808D01*
X139703836Y-83738389D01*
X139699642Y-83742793D01*
X139632248Y-83810189D01*
X139571797Y-83883848D01*
X139567824Y-83888454D01*
X139503844Y-83959045D01*
X139447080Y-84035582D01*
X139443337Y-84040378D01*
X139382894Y-84114029D01*
X139382886Y-84114040D01*
X139329946Y-84193268D01*
X139326444Y-84198241D01*
X139269695Y-84274759D01*
X139269693Y-84274762D01*
X139220718Y-84356472D01*
X139217463Y-84361612D01*
X139164516Y-84440853D01*
X139119595Y-84524893D01*
X139116597Y-84530185D01*
X139067621Y-84611898D01*
X139026883Y-84698029D01*
X139024149Y-84703461D01*
X139022084Y-84707325D01*
X138979229Y-84787503D01*
X138942767Y-84875529D01*
X138940301Y-84881091D01*
X138899563Y-84967224D01*
X138899556Y-84967242D01*
X138867459Y-85056948D01*
X138865269Y-85062625D01*
X138828810Y-85150645D01*
X138828808Y-85150651D01*
X138801155Y-85241809D01*
X138799247Y-85247585D01*
X138767144Y-85337310D01*
X138767143Y-85337315D01*
X138743989Y-85429745D01*
X138742367Y-85435606D01*
X138714711Y-85526781D01*
X138696123Y-85620223D01*
X138694790Y-85626158D01*
X138671637Y-85718589D01*
X138657654Y-85812852D01*
X138656614Y-85818844D01*
X138640268Y-85901029D01*
X138638029Y-85912290D01*
X138638027Y-85912298D01*
X138638025Y-85912308D01*
X138628688Y-86007113D01*
X138627943Y-86013153D01*
X138613963Y-86107398D01*
X138609286Y-86202587D01*
X138608838Y-86208654D01*
X138599500Y-86303470D01*
X138599500Y-86398735D01*
X138599351Y-86404819D01*
X138594675Y-86499999D01*
X132000500Y-86499999D01*
X132000500Y-86303468D01*
X131961973Y-85912297D01*
X131941753Y-85810645D01*
X131885295Y-85526805D01*
X131885292Y-85526794D01*
X131885290Y-85526786D01*
X131885290Y-85526785D01*
X131771190Y-85150647D01*
X131620771Y-84787503D01*
X131613574Y-84774039D01*
X131435488Y-84440862D01*
X131435487Y-84440860D01*
X131435482Y-84440851D01*
X131217107Y-84114031D01*
X130967750Y-83810188D01*
X130967749Y-83810187D01*
X130967745Y-83810182D01*
X130689817Y-83532254D01*
X130385974Y-83282897D01*
X130385970Y-83282894D01*
X130385969Y-83282893D01*
X130059149Y-83064518D01*
X130059144Y-83064515D01*
X130059137Y-83064511D01*
X129712504Y-82879232D01*
X129712499Y-82879230D01*
X129712494Y-82879228D01*
X129479931Y-82782897D01*
X129349354Y-82728810D01*
X129146067Y-82667144D01*
X129094474Y-82651493D01*
X129036036Y-82613196D01*
X129007580Y-82549384D01*
X129018140Y-82480317D01*
X129060031Y-82430783D01*
X129149376Y-82369113D01*
X129149383Y-82369107D01*
X129149386Y-82369105D01*
X129398452Y-82148452D01*
X129619105Y-81899386D01*
X129808128Y-81625538D01*
X129962765Y-81330904D01*
X130080759Y-81019778D01*
X130160391Y-80696698D01*
X130200500Y-80366375D01*
X130200499Y-78733626D01*
X130160391Y-78403302D01*
X130080759Y-78080222D01*
X129962765Y-77769096D01*
X129808128Y-77474462D01*
X129708512Y-77330143D01*
X129619107Y-77200616D01*
X129619102Y-77200610D01*
X129398453Y-76951548D01*
X129398451Y-76951546D01*
X129149389Y-76730897D01*
X129149383Y-76730892D01*
X128933769Y-76582066D01*
X128875538Y-76541872D01*
X128837624Y-76521973D01*
X128580911Y-76387238D01*
X128580906Y-76387236D01*
X128580904Y-76387235D01*
X128433125Y-76331190D01*
X128269783Y-76269242D01*
X128269778Y-76269241D01*
X127946698Y-76189609D01*
X127748504Y-76165543D01*
X127616377Y-76149500D01*
X127616375Y-76149500D01*
X127149117Y-76149500D01*
X127082078Y-76129815D01*
X127080226Y-76128602D01*
X127059154Y-76114522D01*
X127059153Y-76114521D01*
X127059148Y-76114518D01*
X127059139Y-76114513D01*
X127059136Y-76114511D01*
X126712505Y-75929232D01*
X126712500Y-75929230D01*
X126349355Y-75778810D01*
X125973205Y-75664706D01*
X125973194Y-75664703D01*
X125587710Y-75588028D01*
X125587693Y-75588025D01*
X125291889Y-75558891D01*
X125196532Y-75549499D01*
X124803468Y-75549499D01*
X124715277Y-75558185D01*
X124412307Y-75588025D01*
X124412290Y-75588028D01*
X124026806Y-75664703D01*
X124026795Y-75664706D01*
X123650645Y-75778810D01*
X123287500Y-75929230D01*
X123287495Y-75929232D01*
X122940852Y-76114518D01*
X122940851Y-76114518D01*
X122919770Y-76128604D01*
X122853092Y-76149480D01*
X122850882Y-76149500D01*
X122383623Y-76149500D01*
X122103216Y-76183548D01*
X122053302Y-76189609D01*
X121837915Y-76242697D01*
X121730221Y-76269241D01*
X121730216Y-76269242D01*
X121493941Y-76358850D01*
X121419096Y-76387235D01*
X121419093Y-76387236D01*
X121419089Y-76387238D01*
X121419088Y-76387238D01*
X121124474Y-76541865D01*
X121124463Y-76541871D01*
X120850616Y-76730892D01*
X120850610Y-76730897D01*
X120601548Y-76951546D01*
X120601546Y-76951548D01*
X120380897Y-77200610D01*
X120380892Y-77200616D01*
X120191871Y-77474463D01*
X120191865Y-77474474D01*
X120037238Y-77769088D01*
X120037238Y-77769089D01*
X119919242Y-78080216D01*
X119919241Y-78080221D01*
X119919241Y-78080222D01*
X119878588Y-78245160D01*
X119839609Y-78403304D01*
X119799500Y-78733622D01*
X119799500Y-80366376D01*
X119830518Y-80621825D01*
X119839609Y-80696698D01*
X119900199Y-80942524D01*
X119919242Y-81019783D01*
X119991442Y-81210156D01*
X119999500Y-81254127D01*
X119999500Y-82375500D01*
X119979815Y-82442539D01*
X119927011Y-82488294D01*
X119875500Y-82499500D01*
X115701265Y-82499500D01*
X115695181Y-82499351D01*
X115600000Y-82494675D01*
X115504819Y-82499351D01*
X115498735Y-82499500D01*
X115403468Y-82499500D01*
X115354301Y-82504342D01*
X115308654Y-82508838D01*
X115302586Y-82509286D01*
X115207409Y-82513962D01*
X115207404Y-82513962D01*
X115207398Y-82513963D01*
X115113153Y-82527943D01*
X115107113Y-82528688D01*
X115012308Y-82538025D01*
X115012298Y-82538026D01*
X115012297Y-82538027D01*
X115001029Y-82540268D01*
X114918844Y-82556614D01*
X114912852Y-82557654D01*
X114818589Y-82571637D01*
X114726158Y-82594790D01*
X114720223Y-82596123D01*
X114651635Y-82609766D01*
X114626785Y-82614710D01*
X114626783Y-82614710D01*
X114626781Y-82614711D01*
X114535606Y-82642367D01*
X114529745Y-82643989D01*
X114437315Y-82667143D01*
X114437310Y-82667144D01*
X114347585Y-82699247D01*
X114341809Y-82701155D01*
X114250651Y-82728808D01*
X114250645Y-82728810D01*
X114162625Y-82765269D01*
X114156948Y-82767459D01*
X114067242Y-82799556D01*
X114067224Y-82799563D01*
X113981091Y-82840301D01*
X113975530Y-82842766D01*
X113887503Y-82879229D01*
X113845502Y-82901678D01*
X113803461Y-82924149D01*
X113798029Y-82926883D01*
X113711898Y-82967621D01*
X113630185Y-83016597D01*
X113624893Y-83019595D01*
X113540853Y-83064516D01*
X113461612Y-83117463D01*
X113456484Y-83120710D01*
X113415266Y-83145415D01*
X113374762Y-83169693D01*
X113374759Y-83169695D01*
X113298241Y-83226444D01*
X113293268Y-83229946D01*
X113214040Y-83282886D01*
X113214029Y-83282894D01*
X113140378Y-83343337D01*
X113135582Y-83347080D01*
X113059045Y-83403844D01*
X112988454Y-83467824D01*
X112983848Y-83471797D01*
X112910189Y-83532248D01*
X112842793Y-83599642D01*
X112838389Y-83603836D01*
X112767808Y-83667808D01*
X112703836Y-83738389D01*
X112699642Y-83742793D01*
X112632248Y-83810189D01*
X112571797Y-83883848D01*
X112567824Y-83888454D01*
X112503844Y-83959045D01*
X112447080Y-84035582D01*
X112443337Y-84040378D01*
X112382894Y-84114029D01*
X112382886Y-84114040D01*
X112329946Y-84193268D01*
X112326444Y-84198241D01*
X112269695Y-84274759D01*
X112269693Y-84274762D01*
X112220718Y-84356472D01*
X112217463Y-84361612D01*
X112164516Y-84440853D01*
X112119595Y-84524893D01*
X112116597Y-84530185D01*
X112067621Y-84611898D01*
X112026883Y-84698029D01*
X112024149Y-84703461D01*
X112022084Y-84707325D01*
X111979229Y-84787503D01*
X111942767Y-84875529D01*
X111940301Y-84881091D01*
X111899563Y-84967224D01*
X111899556Y-84967242D01*
X111867459Y-85056948D01*
X111865269Y-85062625D01*
X111828810Y-85150645D01*
X111828808Y-85150651D01*
X111801155Y-85241809D01*
X111799247Y-85247585D01*
X111767144Y-85337310D01*
X111767143Y-85337315D01*
X111743989Y-85429745D01*
X111742367Y-85435606D01*
X111714711Y-85526781D01*
X111696123Y-85620223D01*
X111694790Y-85626158D01*
X111671637Y-85718589D01*
X111657654Y-85812852D01*
X111656614Y-85818844D01*
X111640268Y-85901029D01*
X111638029Y-85912290D01*
X111638027Y-85912298D01*
X111638025Y-85912308D01*
X111628688Y-86007113D01*
X111627943Y-86013153D01*
X111613963Y-86107398D01*
X111609286Y-86202587D01*
X111608838Y-86208654D01*
X111599500Y-86303470D01*
X111599500Y-86398735D01*
X111599351Y-86404819D01*
X111594675Y-86499999D01*
X105000501Y-86499999D01*
X105000501Y-86303468D01*
X104961973Y-85912297D01*
X104919286Y-85697691D01*
X104885296Y-85526806D01*
X104885293Y-85526795D01*
X104885292Y-85526792D01*
X104885291Y-85526786D01*
X104771190Y-85150647D01*
X104620771Y-84787503D01*
X104613574Y-84774039D01*
X104435488Y-84440863D01*
X104435487Y-84440861D01*
X104435482Y-84440852D01*
X104217107Y-84114031D01*
X103967750Y-83810189D01*
X103967749Y-83810188D01*
X103967745Y-83810183D01*
X103189817Y-83032254D01*
X102885974Y-82782897D01*
X102885973Y-82782896D01*
X102885969Y-82782893D01*
X102559149Y-82564518D01*
X102559144Y-82564515D01*
X102559137Y-82564511D01*
X102323167Y-82438383D01*
X102273323Y-82389421D01*
X102257862Y-82321283D01*
X102281694Y-82255604D01*
X102299394Y-82236209D01*
X102398453Y-82148451D01*
X102619102Y-81899389D01*
X102619105Y-81899386D01*
X102808128Y-81625538D01*
X102962765Y-81330904D01*
X103080759Y-81019778D01*
X103160391Y-80696698D01*
X103200500Y-80366375D01*
X103200499Y-78733626D01*
X103160391Y-78403302D01*
X103080759Y-78080222D01*
X102962765Y-77769096D01*
X102808128Y-77474462D01*
X102708512Y-77330143D01*
X102619107Y-77200616D01*
X102619102Y-77200610D01*
X102398453Y-76951548D01*
X102398451Y-76951546D01*
X102149389Y-76730897D01*
X102149383Y-76730892D01*
X101933769Y-76582066D01*
X101875538Y-76541872D01*
X101837624Y-76521973D01*
X101580911Y-76387238D01*
X101580906Y-76387236D01*
X101580904Y-76387235D01*
X101433125Y-76331190D01*
X101269783Y-76269242D01*
X101269778Y-76269241D01*
X100946698Y-76189609D01*
X100748504Y-76165543D01*
X100616377Y-76149500D01*
X100616375Y-76149500D01*
X100149118Y-76149500D01*
X100082079Y-76129815D01*
X100080227Y-76128602D01*
X100059155Y-76114522D01*
X100059154Y-76114521D01*
X100059149Y-76114518D01*
X100059140Y-76114513D01*
X100059137Y-76114511D01*
X99712504Y-75929232D01*
X99712499Y-75929230D01*
X99349354Y-75778810D01*
X98973205Y-75664707D01*
X98973194Y-75664704D01*
X98587702Y-75588026D01*
X98293089Y-75559010D01*
X98196532Y-75549500D01*
X97803468Y-75549500D01*
X97714251Y-75558287D01*
X97412297Y-75588026D01*
X97026805Y-75664704D01*
X97026794Y-75664707D01*
X96650645Y-75778810D01*
X96287500Y-75929230D01*
X96287495Y-75929232D01*
X95940858Y-76114513D01*
X95919769Y-76128604D01*
X95853091Y-76149480D01*
X95850881Y-76149500D01*
X95383623Y-76149500D01*
X95103216Y-76183548D01*
X95053302Y-76189609D01*
X94837915Y-76242697D01*
X94730221Y-76269241D01*
X94730216Y-76269242D01*
X94493941Y-76358850D01*
X94419096Y-76387235D01*
X94419093Y-76387236D01*
X94419089Y-76387238D01*
X94419088Y-76387238D01*
X94124474Y-76541865D01*
X94124463Y-76541871D01*
X93850616Y-76730892D01*
X93850610Y-76730897D01*
X93601548Y-76951546D01*
X93601546Y-76951548D01*
X93380897Y-77200610D01*
X93380892Y-77200616D01*
X93191871Y-77474463D01*
X93191865Y-77474474D01*
X93037238Y-77769088D01*
X93037238Y-77769089D01*
X92919242Y-78080216D01*
X92919241Y-78080221D01*
X92919241Y-78080222D01*
X92878588Y-78245160D01*
X92839609Y-78403304D01*
X92799500Y-78733622D01*
X92799500Y-80366376D01*
X92830518Y-80621825D01*
X92839609Y-80696698D01*
X92919241Y-81019778D01*
X92919242Y-81019783D01*
X92984491Y-81191829D01*
X93037235Y-81330904D01*
X93037237Y-81330908D01*
X93037238Y-81330910D01*
X93037238Y-81330911D01*
X93191865Y-81625525D01*
X93191871Y-81625536D01*
X93380892Y-81899383D01*
X93380897Y-81899389D01*
X93601546Y-82148451D01*
X93601548Y-82148453D01*
X93753065Y-82282685D01*
X93790192Y-82341874D01*
X93789424Y-82411739D01*
X93751007Y-82470099D01*
X93687136Y-82498424D01*
X93670838Y-82499500D01*
X89701265Y-82499500D01*
X89695181Y-82499351D01*
X89600000Y-82494675D01*
X89504819Y-82499351D01*
X89498735Y-82499500D01*
X89403468Y-82499500D01*
X89354301Y-82504342D01*
X89308654Y-82508838D01*
X89302586Y-82509286D01*
X89207409Y-82513962D01*
X89207404Y-82513962D01*
X89207398Y-82513963D01*
X89113153Y-82527943D01*
X89107113Y-82528688D01*
X89012308Y-82538025D01*
X89012298Y-82538026D01*
X89012297Y-82538027D01*
X89001029Y-82540268D01*
X88918844Y-82556614D01*
X88912852Y-82557654D01*
X88818589Y-82571637D01*
X88726158Y-82594790D01*
X88720223Y-82596123D01*
X88651635Y-82609766D01*
X88626785Y-82614710D01*
X88626783Y-82614710D01*
X88626781Y-82614711D01*
X88535606Y-82642367D01*
X88529745Y-82643989D01*
X88437315Y-82667143D01*
X88437310Y-82667144D01*
X88347585Y-82699247D01*
X88341809Y-82701155D01*
X88250651Y-82728808D01*
X88250645Y-82728810D01*
X88162625Y-82765269D01*
X88156948Y-82767459D01*
X88067242Y-82799556D01*
X88067224Y-82799563D01*
X87981091Y-82840301D01*
X87975530Y-82842766D01*
X87887503Y-82879229D01*
X87845502Y-82901678D01*
X87803461Y-82924149D01*
X87798029Y-82926883D01*
X87711898Y-82967621D01*
X87630185Y-83016597D01*
X87624893Y-83019595D01*
X87540853Y-83064516D01*
X87461612Y-83117463D01*
X87456484Y-83120710D01*
X87415266Y-83145415D01*
X87374762Y-83169693D01*
X87374759Y-83169695D01*
X87298241Y-83226444D01*
X87293268Y-83229946D01*
X87214040Y-83282886D01*
X87214029Y-83282894D01*
X87140378Y-83343337D01*
X87135582Y-83347080D01*
X87059045Y-83403844D01*
X86988454Y-83467824D01*
X86983848Y-83471797D01*
X86910189Y-83532248D01*
X86842793Y-83599642D01*
X86838389Y-83603836D01*
X86767808Y-83667808D01*
X86703836Y-83738389D01*
X86699642Y-83742793D01*
X86632248Y-83810189D01*
X86571797Y-83883848D01*
X86567824Y-83888454D01*
X86503844Y-83959045D01*
X86447080Y-84035582D01*
X86443337Y-84040378D01*
X86382894Y-84114029D01*
X86382886Y-84114040D01*
X86329946Y-84193268D01*
X86326444Y-84198241D01*
X86269695Y-84274759D01*
X86269693Y-84274762D01*
X86220718Y-84356472D01*
X86217463Y-84361612D01*
X86164516Y-84440853D01*
X86119595Y-84524893D01*
X86116597Y-84530185D01*
X86067621Y-84611898D01*
X86026883Y-84698029D01*
X86024149Y-84703461D01*
X86022084Y-84707325D01*
X85979229Y-84787503D01*
X85942767Y-84875529D01*
X85940301Y-84881091D01*
X85899563Y-84967224D01*
X85899556Y-84967242D01*
X85867459Y-85056948D01*
X85865269Y-85062625D01*
X85828810Y-85150645D01*
X85828808Y-85150651D01*
X85801155Y-85241809D01*
X85799247Y-85247585D01*
X85767144Y-85337310D01*
X85767143Y-85337315D01*
X85743989Y-85429745D01*
X85742367Y-85435606D01*
X85714711Y-85526781D01*
X85696123Y-85620223D01*
X85694790Y-85626158D01*
X85671637Y-85718589D01*
X85657654Y-85812852D01*
X85656614Y-85818844D01*
X85640268Y-85901029D01*
X85638029Y-85912290D01*
X85638027Y-85912298D01*
X85638025Y-85912308D01*
X85628688Y-86007113D01*
X85627943Y-86013153D01*
X85613963Y-86107398D01*
X85609286Y-86202587D01*
X85608838Y-86208654D01*
X85599500Y-86303470D01*
X85599500Y-86398735D01*
X85599351Y-86404819D01*
X85594675Y-86499999D01*
X79000500Y-86499999D01*
X79000500Y-86303468D01*
X78961973Y-85912297D01*
X78941753Y-85810645D01*
X78885295Y-85526805D01*
X78885292Y-85526794D01*
X78885290Y-85526786D01*
X78885290Y-85526785D01*
X78771190Y-85150647D01*
X78620771Y-84787503D01*
X78613574Y-84774039D01*
X78435488Y-84440862D01*
X78435487Y-84440860D01*
X78435482Y-84440851D01*
X78217107Y-84114031D01*
X77967750Y-83810188D01*
X77967749Y-83810187D01*
X77967745Y-83810182D01*
X77689817Y-83532254D01*
X77385974Y-83282897D01*
X77385970Y-83282894D01*
X77385969Y-83282893D01*
X77059149Y-83064518D01*
X77059147Y-83064517D01*
X77056618Y-83062827D01*
X77057323Y-83061770D01*
X77013360Y-83014111D01*
X77000500Y-82959120D01*
X77000500Y-82536953D01*
X77020185Y-82469914D01*
X77054061Y-82434903D01*
X77119953Y-82389421D01*
X77149386Y-82369105D01*
X77398452Y-82148452D01*
X77619105Y-81899386D01*
X77808128Y-81625538D01*
X77962765Y-81330904D01*
X78080759Y-81019778D01*
X78160391Y-80696698D01*
X78200500Y-80366375D01*
X78200499Y-78733626D01*
X78160391Y-78403302D01*
X78080759Y-78080222D01*
X77962765Y-77769096D01*
X77808128Y-77474462D01*
X77708512Y-77330143D01*
X77619107Y-77200616D01*
X77619102Y-77200610D01*
X77398453Y-76951548D01*
X77398451Y-76951546D01*
X77149389Y-76730897D01*
X77149383Y-76730892D01*
X76933769Y-76582066D01*
X76875538Y-76541872D01*
X76837624Y-76521973D01*
X76580911Y-76387238D01*
X76580906Y-76387236D01*
X76580904Y-76387235D01*
X76433125Y-76331190D01*
X76269783Y-76269242D01*
X76269778Y-76269241D01*
X75946698Y-76189609D01*
X75748504Y-76165543D01*
X75616377Y-76149500D01*
X75616375Y-76149500D01*
X75149118Y-76149500D01*
X75082079Y-76129815D01*
X75080227Y-76128602D01*
X75059155Y-76114522D01*
X75059154Y-76114521D01*
X75059149Y-76114518D01*
X75059140Y-76114513D01*
X75059137Y-76114511D01*
X74712504Y-75929232D01*
X74712499Y-75929230D01*
X74349354Y-75778810D01*
X73973205Y-75664707D01*
X73973194Y-75664704D01*
X73587702Y-75588026D01*
X73293089Y-75559010D01*
X73196532Y-75549500D01*
X72803468Y-75549500D01*
X72714251Y-75558287D01*
X72412297Y-75588026D01*
X72026805Y-75664704D01*
X72026794Y-75664707D01*
X71650645Y-75778810D01*
X71287500Y-75929230D01*
X71287495Y-75929232D01*
X70940858Y-76114513D01*
X70919769Y-76128604D01*
X70853091Y-76149480D01*
X70850881Y-76149500D01*
X70383623Y-76149500D01*
X70103216Y-76183548D01*
X70053302Y-76189609D01*
X69837915Y-76242697D01*
X69730221Y-76269241D01*
X69730216Y-76269242D01*
X69493941Y-76358850D01*
X69419096Y-76387235D01*
X69419093Y-76387236D01*
X69419089Y-76387238D01*
X69419088Y-76387238D01*
X69124474Y-76541865D01*
X69124463Y-76541871D01*
X68850616Y-76730892D01*
X68850610Y-76730897D01*
X68601548Y-76951546D01*
X68601546Y-76951548D01*
X68380897Y-77200610D01*
X68380892Y-77200616D01*
X68191871Y-77474463D01*
X68191865Y-77474474D01*
X68037238Y-77769088D01*
X68037238Y-77769089D01*
X67919242Y-78080216D01*
X67919241Y-78080221D01*
X67919241Y-78080222D01*
X67878588Y-78245160D01*
X67839609Y-78403304D01*
X67799500Y-78733622D01*
X67799500Y-80366376D01*
X67830518Y-80621825D01*
X67839609Y-80696698D01*
X67919241Y-81019778D01*
X67919242Y-81019783D01*
X67984491Y-81191829D01*
X68037235Y-81330904D01*
X68037237Y-81330908D01*
X68037238Y-81330910D01*
X68037238Y-81330911D01*
X68191865Y-81625525D01*
X68191871Y-81625536D01*
X68380892Y-81899383D01*
X68380897Y-81899389D01*
X68601546Y-82148451D01*
X68601548Y-82148453D01*
X68753065Y-82282685D01*
X68790192Y-82341874D01*
X68789424Y-82411739D01*
X68751007Y-82470099D01*
X68687136Y-82498424D01*
X68670838Y-82499500D01*
X63041265Y-82499500D01*
X63035181Y-82499351D01*
X62940000Y-82494675D01*
X62844819Y-82499351D01*
X62838735Y-82499500D01*
X62743468Y-82499500D01*
X62694301Y-82504342D01*
X62648654Y-82508838D01*
X62642586Y-82509286D01*
X62547409Y-82513962D01*
X62547404Y-82513962D01*
X62547398Y-82513963D01*
X62453153Y-82527943D01*
X62447113Y-82528688D01*
X62352308Y-82538025D01*
X62352298Y-82538026D01*
X62352297Y-82538027D01*
X62341029Y-82540268D01*
X62258844Y-82556614D01*
X62252852Y-82557654D01*
X62158589Y-82571637D01*
X62066158Y-82594790D01*
X62060223Y-82596123D01*
X61991635Y-82609766D01*
X61966785Y-82614710D01*
X61966783Y-82614710D01*
X61966781Y-82614711D01*
X61875606Y-82642367D01*
X61869745Y-82643989D01*
X61777315Y-82667143D01*
X61777310Y-82667144D01*
X61687585Y-82699247D01*
X61681809Y-82701155D01*
X61590651Y-82728808D01*
X61590645Y-82728810D01*
X61502625Y-82765269D01*
X61496948Y-82767459D01*
X61407242Y-82799556D01*
X61407224Y-82799563D01*
X61321091Y-82840301D01*
X61315530Y-82842766D01*
X61227503Y-82879229D01*
X61185502Y-82901678D01*
X61143461Y-82924149D01*
X61138029Y-82926883D01*
X61051898Y-82967621D01*
X60970185Y-83016597D01*
X60964893Y-83019595D01*
X60880853Y-83064516D01*
X60801612Y-83117463D01*
X60796484Y-83120710D01*
X60755266Y-83145415D01*
X60714762Y-83169693D01*
X60714759Y-83169695D01*
X60638241Y-83226444D01*
X60633268Y-83229946D01*
X60554040Y-83282886D01*
X60554029Y-83282894D01*
X60480378Y-83343337D01*
X60475582Y-83347080D01*
X60399045Y-83403844D01*
X60328454Y-83467824D01*
X60323848Y-83471797D01*
X60250189Y-83532248D01*
X60182793Y-83599642D01*
X60178389Y-83603836D01*
X60107808Y-83667808D01*
X60043836Y-83738389D01*
X60039642Y-83742793D01*
X59972248Y-83810189D01*
X59911797Y-83883848D01*
X59907824Y-83888454D01*
X59843844Y-83959045D01*
X59787080Y-84035582D01*
X59783337Y-84040378D01*
X59722894Y-84114029D01*
X59722886Y-84114040D01*
X59669946Y-84193268D01*
X59666444Y-84198241D01*
X59609695Y-84274759D01*
X59609693Y-84274762D01*
X59560718Y-84356472D01*
X59557463Y-84361612D01*
X59504516Y-84440853D01*
X59459595Y-84524893D01*
X59456597Y-84530185D01*
X59407621Y-84611898D01*
X59366883Y-84698029D01*
X59364149Y-84703461D01*
X59362084Y-84707325D01*
X59319229Y-84787503D01*
X59282767Y-84875529D01*
X59280301Y-84881091D01*
X59239563Y-84967224D01*
X59239556Y-84967242D01*
X59207459Y-85056948D01*
X59205269Y-85062625D01*
X59168810Y-85150645D01*
X59168808Y-85150651D01*
X59141155Y-85241809D01*
X59139247Y-85247585D01*
X59107144Y-85337310D01*
X59107143Y-85337315D01*
X59083989Y-85429745D01*
X59082367Y-85435606D01*
X59054711Y-85526781D01*
X59036123Y-85620223D01*
X59034790Y-85626158D01*
X59011637Y-85718589D01*
X58997654Y-85812852D01*
X58996614Y-85818844D01*
X58980268Y-85901029D01*
X58978029Y-85912290D01*
X58978027Y-85912298D01*
X58978025Y-85912308D01*
X58968688Y-86007113D01*
X58967943Y-86013153D01*
X58953963Y-86107398D01*
X58949286Y-86202587D01*
X58948838Y-86208654D01*
X58939500Y-86303470D01*
X58939500Y-86398735D01*
X58939351Y-86404819D01*
X58934675Y-86499999D01*
X52340501Y-86499999D01*
X52340501Y-86303468D01*
X52301973Y-85912297D01*
X52259286Y-85697691D01*
X52225296Y-85526806D01*
X52225293Y-85526795D01*
X52225292Y-85526792D01*
X52225291Y-85526786D01*
X52111190Y-85150647D01*
X51960771Y-84787503D01*
X51953574Y-84774039D01*
X51775488Y-84440863D01*
X51775487Y-84440861D01*
X51775482Y-84440852D01*
X51557107Y-84114031D01*
X51307750Y-83810189D01*
X51307749Y-83810188D01*
X51307745Y-83810183D01*
X50986819Y-83489257D01*
X50953334Y-83427934D01*
X50950500Y-83401576D01*
X50950500Y-72559999D01*
X154994675Y-72559999D01*
X154999351Y-72655180D01*
X154999500Y-72661264D01*
X154999500Y-72756528D01*
X155008838Y-72851343D01*
X155009286Y-72857412D01*
X155013962Y-72952591D01*
X155013962Y-72952596D01*
X155013963Y-72952601D01*
X155027943Y-73046848D01*
X155028688Y-73052888D01*
X155038025Y-73147691D01*
X155038025Y-73147693D01*
X155056611Y-73241133D01*
X155057651Y-73247127D01*
X155071637Y-73341410D01*
X155094790Y-73433839D01*
X155096123Y-73439775D01*
X155114710Y-73533216D01*
X155142367Y-73624391D01*
X155143989Y-73630254D01*
X155167141Y-73722680D01*
X155167142Y-73722682D01*
X155199243Y-73812400D01*
X155201151Y-73818177D01*
X155228808Y-73909348D01*
X155228810Y-73909354D01*
X155265274Y-73997387D01*
X155267456Y-74003043D01*
X155289188Y-74063778D01*
X155299561Y-74092770D01*
X155299566Y-74092780D01*
X155340304Y-74178915D01*
X155342770Y-74184478D01*
X155379229Y-74272497D01*
X155424148Y-74356535D01*
X155426869Y-74361939D01*
X155455325Y-74422105D01*
X155467620Y-74448100D01*
X155516598Y-74529813D01*
X155519598Y-74535109D01*
X155564511Y-74619137D01*
X155564522Y-74619155D01*
X155617459Y-74698380D01*
X155620715Y-74703522D01*
X155669695Y-74785242D01*
X155726456Y-74861775D01*
X155729960Y-74866750D01*
X155782890Y-74945965D01*
X155782893Y-74945970D01*
X155843344Y-75019630D01*
X155847087Y-75024427D01*
X155903840Y-75100949D01*
X155967830Y-75171551D01*
X155971801Y-75176154D01*
X156032250Y-75249812D01*
X156099649Y-75317211D01*
X156103827Y-75321600D01*
X156167807Y-75392192D01*
X156238398Y-75456171D01*
X156242786Y-75460348D01*
X156310188Y-75527750D01*
X156363081Y-75571158D01*
X156383838Y-75588193D01*
X156388446Y-75592168D01*
X156459049Y-75656159D01*
X156535573Y-75712913D01*
X156540371Y-75716657D01*
X156614027Y-75777105D01*
X156614032Y-75777109D01*
X156693247Y-75830038D01*
X156698220Y-75833539D01*
X156774761Y-75890306D01*
X156856511Y-75939305D01*
X156861576Y-75942511D01*
X156940851Y-75995482D01*
X157024927Y-76040421D01*
X157030143Y-76043376D01*
X157111903Y-76092381D01*
X157191051Y-76129815D01*
X157198043Y-76133122D01*
X157203461Y-76135849D01*
X157287503Y-76180771D01*
X157375529Y-76217232D01*
X157381077Y-76219691D01*
X157467228Y-76260438D01*
X157556962Y-76292544D01*
X157562606Y-76294721D01*
X157650647Y-76331190D01*
X157741832Y-76358850D01*
X157747609Y-76360759D01*
X157837316Y-76392857D01*
X157929771Y-76416015D01*
X157935576Y-76417621D01*
X158026785Y-76445290D01*
X158120242Y-76463879D01*
X158126154Y-76465207D01*
X158218600Y-76488364D01*
X158312887Y-76502349D01*
X158318823Y-76503379D01*
X158412297Y-76521973D01*
X158412304Y-76521973D01*
X158412306Y-76521974D01*
X158412302Y-76521974D01*
X158451747Y-76525858D01*
X158507131Y-76531312D01*
X158513111Y-76532049D01*
X158607409Y-76546038D01*
X158702607Y-76550714D01*
X158708622Y-76551157D01*
X158803468Y-76560500D01*
X158898735Y-76560500D01*
X158904818Y-76560648D01*
X159000000Y-76565325D01*
X159095181Y-76560648D01*
X159101265Y-76560500D01*
X168086529Y-76560500D01*
X168086532Y-76560500D01*
X168477703Y-76521973D01*
X168825046Y-76452883D01*
X168849237Y-76450500D01*
X171841576Y-76450500D01*
X171908615Y-76470185D01*
X171929257Y-76486819D01*
X171963181Y-76520743D01*
X171996666Y-76582066D01*
X171999500Y-76608424D01*
X171999500Y-76806836D01*
X171979815Y-76873875D01*
X171973480Y-76882836D01*
X171927799Y-76941727D01*
X171767632Y-77212552D01*
X171642674Y-77501315D01*
X171554895Y-77803448D01*
X171554893Y-77803456D01*
X171505674Y-78114214D01*
X171505674Y-78114219D01*
X171499500Y-78245155D01*
X171499500Y-82454844D01*
X171505674Y-82585780D01*
X171505674Y-82585785D01*
X171554893Y-82896543D01*
X171554895Y-82896551D01*
X171642674Y-83198684D01*
X171767632Y-83487447D01*
X171794128Y-83532248D01*
X171927796Y-83758268D01*
X171927801Y-83758274D01*
X171927802Y-83758276D01*
X171927802Y-83758277D01*
X172120637Y-84006879D01*
X172343120Y-84229362D01*
X172591722Y-84422197D01*
X172591726Y-84422199D01*
X172591732Y-84422204D01*
X172862552Y-84582367D01*
X173151311Y-84707324D01*
X173205419Y-84723043D01*
X173453448Y-84795104D01*
X173453456Y-84795106D01*
X173764217Y-84844325D01*
X173895156Y-84850500D01*
X173895160Y-84850500D01*
X178104844Y-84850500D01*
X178179664Y-84846971D01*
X178235783Y-84844325D01*
X178235785Y-84844325D01*
X178546543Y-84795106D01*
X178546551Y-84795104D01*
X178697617Y-84751214D01*
X178848689Y-84707324D01*
X179137448Y-84582367D01*
X179408268Y-84422204D01*
X179486383Y-84361612D01*
X179656879Y-84229362D01*
X179656880Y-84229362D01*
X179879362Y-84006880D01*
X179879362Y-84006879D01*
X180072197Y-83758277D01*
X180072204Y-83758268D01*
X180232367Y-83487448D01*
X180357324Y-83198689D01*
X180424456Y-82967621D01*
X180445104Y-82896551D01*
X180445106Y-82896543D01*
X180494325Y-82585785D01*
X180494325Y-82585780D01*
X180494359Y-82585070D01*
X180497932Y-82509286D01*
X180500500Y-82454844D01*
X180500500Y-78245155D01*
X180494325Y-78114219D01*
X180494325Y-78114214D01*
X180445106Y-77803456D01*
X180445104Y-77803448D01*
X180357325Y-77501315D01*
X180357324Y-77501311D01*
X180232367Y-77212552D01*
X180072204Y-76941732D01*
X180026520Y-76882836D01*
X180000986Y-76817799D01*
X180000500Y-76806836D01*
X180000500Y-74703471D01*
X179983653Y-74532423D01*
X179961973Y-74312297D01*
X179945783Y-74230904D01*
X179885291Y-73926785D01*
X179771190Y-73550646D01*
X179620771Y-73187502D01*
X179495208Y-72952591D01*
X179435482Y-72840851D01*
X179217107Y-72514031D01*
X178967750Y-72210188D01*
X178967749Y-72210187D01*
X178967745Y-72210182D01*
X178689812Y-71932250D01*
X176239817Y-69482254D01*
X175935974Y-69232897D01*
X175935973Y-69232896D01*
X175935969Y-69232893D01*
X175840707Y-69169241D01*
X175609149Y-69014518D01*
X175609144Y-69014515D01*
X175609137Y-69014511D01*
X175262504Y-68829232D01*
X175262499Y-68829230D01*
X175262497Y-68829229D01*
X174899353Y-68678810D01*
X174899350Y-68678809D01*
X174885837Y-68674709D01*
X174885837Y-68674710D01*
X174523214Y-68564709D01*
X174523213Y-68564708D01*
X174523204Y-68564706D01*
X174523193Y-68564703D01*
X174137708Y-68488028D01*
X174137703Y-68488027D01*
X174137701Y-68488026D01*
X174137691Y-68488025D01*
X173850319Y-68459722D01*
X173746532Y-68449500D01*
X168196531Y-68449500D01*
X167803468Y-68449500D01*
X167714251Y-68458287D01*
X167412296Y-68488026D01*
X167064957Y-68557117D01*
X167040766Y-68559500D01*
X159101265Y-68559500D01*
X159095181Y-68559351D01*
X159000000Y-68554675D01*
X158904819Y-68559351D01*
X158898735Y-68559500D01*
X158803468Y-68559500D01*
X158754301Y-68564342D01*
X158708654Y-68568838D01*
X158702586Y-68569286D01*
X158607409Y-68573962D01*
X158607404Y-68573962D01*
X158607398Y-68573963D01*
X158513153Y-68587943D01*
X158507113Y-68588688D01*
X158412308Y-68598025D01*
X158412298Y-68598026D01*
X158412297Y-68598027D01*
X158401029Y-68600268D01*
X158318844Y-68616614D01*
X158312852Y-68617654D01*
X158218589Y-68631637D01*
X158126158Y-68654790D01*
X158120223Y-68656123D01*
X158051635Y-68669766D01*
X158026785Y-68674710D01*
X158026783Y-68674710D01*
X158026781Y-68674711D01*
X157935606Y-68702367D01*
X157929745Y-68703989D01*
X157837315Y-68727143D01*
X157837310Y-68727144D01*
X157747585Y-68759247D01*
X157741809Y-68761155D01*
X157650651Y-68788808D01*
X157650645Y-68788810D01*
X157562625Y-68825269D01*
X157556948Y-68827459D01*
X157467242Y-68859556D01*
X157467224Y-68859563D01*
X157381091Y-68900301D01*
X157375530Y-68902766D01*
X157287503Y-68939229D01*
X157245502Y-68961678D01*
X157203461Y-68984149D01*
X157198029Y-68986883D01*
X157111898Y-69027621D01*
X157030185Y-69076597D01*
X157024893Y-69079595D01*
X156940853Y-69124516D01*
X156861612Y-69177463D01*
X156856484Y-69180710D01*
X156815266Y-69205415D01*
X156774762Y-69229693D01*
X156774759Y-69229695D01*
X156698241Y-69286444D01*
X156693268Y-69289946D01*
X156614040Y-69342886D01*
X156614029Y-69342894D01*
X156540378Y-69403337D01*
X156535582Y-69407080D01*
X156459045Y-69463844D01*
X156388454Y-69527824D01*
X156383848Y-69531797D01*
X156310189Y-69592248D01*
X156242793Y-69659642D01*
X156238389Y-69663836D01*
X156167808Y-69727808D01*
X156103836Y-69798389D01*
X156099642Y-69802793D01*
X156032248Y-69870189D01*
X155971797Y-69943848D01*
X155967824Y-69948454D01*
X155903844Y-70019045D01*
X155847080Y-70095582D01*
X155843337Y-70100378D01*
X155782894Y-70174029D01*
X155782886Y-70174040D01*
X155729946Y-70253268D01*
X155726444Y-70258241D01*
X155669695Y-70334759D01*
X155669693Y-70334762D01*
X155620718Y-70416472D01*
X155617463Y-70421612D01*
X155564516Y-70500853D01*
X155519595Y-70584893D01*
X155516597Y-70590185D01*
X155467621Y-70671898D01*
X155426883Y-70758029D01*
X155424149Y-70763461D01*
X155401678Y-70805502D01*
X155379229Y-70847503D01*
X155379228Y-70847506D01*
X155342767Y-70935529D01*
X155340301Y-70941091D01*
X155299563Y-71027224D01*
X155299556Y-71027242D01*
X155267459Y-71116948D01*
X155265269Y-71122625D01*
X155228810Y-71210645D01*
X155228808Y-71210651D01*
X155201155Y-71301809D01*
X155199247Y-71307585D01*
X155167144Y-71397310D01*
X155167143Y-71397315D01*
X155143989Y-71489745D01*
X155142367Y-71495606D01*
X155114711Y-71586781D01*
X155096123Y-71680223D01*
X155094790Y-71686158D01*
X155071637Y-71778589D01*
X155057654Y-71872852D01*
X155056614Y-71878844D01*
X155038027Y-71972298D01*
X155038025Y-71972308D01*
X155028688Y-72067113D01*
X155027943Y-72073153D01*
X155013963Y-72167398D01*
X155013962Y-72167404D01*
X155013962Y-72167409D01*
X155009366Y-72260957D01*
X155009286Y-72262587D01*
X155008838Y-72268654D01*
X154999500Y-72363470D01*
X154999500Y-72458735D01*
X154999351Y-72464819D01*
X154994675Y-72559999D01*
X50950500Y-72559999D01*
X50950500Y-56806089D01*
X50970185Y-56739050D01*
X51022989Y-56693295D01*
X51089447Y-56682993D01*
X51107698Y-56685209D01*
X51233625Y-56700500D01*
X52866374Y-56700499D01*
X52866376Y-56700499D01*
X52925705Y-56693295D01*
X53196698Y-56660391D01*
X53519778Y-56580759D01*
X53830904Y-56462765D01*
X54125538Y-56308128D01*
X54399386Y-56119105D01*
X54648452Y-55898452D01*
X54662785Y-55882274D01*
X54733925Y-55801973D01*
X54869105Y-55649386D01*
X54934903Y-55554061D01*
X54989185Y-55510070D01*
X55036953Y-55500500D01*
X57858752Y-55500500D01*
X57906204Y-55509938D01*
X58150647Y-55611190D01*
X58526786Y-55725291D01*
X58526792Y-55725292D01*
X58526795Y-55725293D01*
X58526806Y-55725296D01*
X58768539Y-55773378D01*
X58912297Y-55801973D01*
X59303468Y-55840501D01*
X59303471Y-55840501D01*
X59699602Y-55840501D01*
X59699642Y-55840500D01*
X65744399Y-55840500D01*
X65811438Y-55860185D01*
X65837215Y-55882274D01*
X65851548Y-55898453D01*
X66100610Y-56119102D01*
X66100616Y-56119107D01*
X66230143Y-56208512D01*
X66374462Y-56308128D01*
X66669096Y-56462765D01*
X66911176Y-56554573D01*
X66980216Y-56580757D01*
X66980217Y-56580757D01*
X66980222Y-56580759D01*
X67303302Y-56660391D01*
X67633625Y-56700500D01*
X69266374Y-56700499D01*
X69266376Y-56700499D01*
X69325705Y-56693295D01*
X69596698Y-56660391D01*
X69919778Y-56580759D01*
X70230904Y-56462765D01*
X70525538Y-56308128D01*
X70799386Y-56119105D01*
X70917774Y-56014222D01*
X70981005Y-55984501D01*
X71050269Y-55993684D01*
X71082224Y-56014220D01*
X71166864Y-56089205D01*
X71200617Y-56119108D01*
X71357747Y-56227565D01*
X71474462Y-56308128D01*
X71769096Y-56462765D01*
X72011176Y-56554573D01*
X72080216Y-56580757D01*
X72080217Y-56580757D01*
X72080222Y-56580759D01*
X72403302Y-56660391D01*
X72733625Y-56700500D01*
X74366374Y-56700499D01*
X74366376Y-56700499D01*
X74425705Y-56693295D01*
X74696698Y-56660391D01*
X75019778Y-56580759D01*
X75330904Y-56462765D01*
X75625538Y-56308128D01*
X75899386Y-56119105D01*
X76148452Y-55898452D01*
X76162785Y-55882274D01*
X76233925Y-55801973D01*
X76369105Y-55649386D01*
X76434903Y-55554061D01*
X76489185Y-55510070D01*
X76536953Y-55500500D01*
X79803468Y-55500500D01*
X82963047Y-55500500D01*
X83030086Y-55520185D01*
X83065097Y-55554061D01*
X83130884Y-55649371D01*
X83130888Y-55649377D01*
X83130895Y-55649386D01*
X83130898Y-55649389D01*
X83130907Y-55649400D01*
X83351546Y-55898451D01*
X83351548Y-55898453D01*
X83600610Y-56119102D01*
X83600616Y-56119107D01*
X83730143Y-56208512D01*
X83874462Y-56308128D01*
X84169096Y-56462765D01*
X84411176Y-56554573D01*
X84480216Y-56580757D01*
X84480217Y-56580757D01*
X84480222Y-56580759D01*
X84803302Y-56660391D01*
X85133625Y-56700500D01*
X86766374Y-56700499D01*
X86766376Y-56700499D01*
X86825705Y-56693295D01*
X87096698Y-56660391D01*
X87419778Y-56580759D01*
X87730904Y-56462765D01*
X88025538Y-56308128D01*
X88299386Y-56119105D01*
X88417774Y-56014222D01*
X88481005Y-55984501D01*
X88550269Y-55993684D01*
X88582224Y-56014220D01*
X88666864Y-56089205D01*
X88700617Y-56119108D01*
X88857747Y-56227565D01*
X88974462Y-56308128D01*
X89269096Y-56462765D01*
X89511176Y-56554573D01*
X89580216Y-56580757D01*
X89580217Y-56580757D01*
X89580222Y-56580759D01*
X89903302Y-56660391D01*
X90233625Y-56700500D01*
X91866374Y-56700499D01*
X91866376Y-56700499D01*
X91925705Y-56693295D01*
X92196698Y-56660391D01*
X92519778Y-56580759D01*
X92830904Y-56462765D01*
X93125538Y-56308128D01*
X93399386Y-56119105D01*
X93648452Y-55898452D01*
X93662785Y-55882274D01*
X93733925Y-55801973D01*
X93869105Y-55649386D01*
X93934903Y-55554061D01*
X93989185Y-55510070D01*
X94036953Y-55500500D01*
X97303468Y-55500500D01*
X103463047Y-55500500D01*
X103530086Y-55520185D01*
X103565097Y-55554061D01*
X103630884Y-55649371D01*
X103630888Y-55649377D01*
X103630895Y-55649386D01*
X103630898Y-55649389D01*
X103630907Y-55649400D01*
X103851546Y-55898451D01*
X103851548Y-55898453D01*
X104100610Y-56119102D01*
X104100616Y-56119107D01*
X104230143Y-56208512D01*
X104374462Y-56308128D01*
X104669096Y-56462765D01*
X104911176Y-56554573D01*
X104980216Y-56580757D01*
X104980217Y-56580757D01*
X104980222Y-56580759D01*
X105303302Y-56660391D01*
X105633625Y-56700500D01*
X107266374Y-56700499D01*
X107266376Y-56700499D01*
X107325705Y-56693295D01*
X107596698Y-56660391D01*
X107919778Y-56580759D01*
X108230904Y-56462765D01*
X108525538Y-56308128D01*
X108799386Y-56119105D01*
X108917774Y-56014222D01*
X108981005Y-55984501D01*
X109050269Y-55993684D01*
X109082224Y-56014220D01*
X109166864Y-56089205D01*
X109200617Y-56119108D01*
X109357747Y-56227565D01*
X109474462Y-56308128D01*
X109769096Y-56462765D01*
X110011176Y-56554573D01*
X110080216Y-56580757D01*
X110080217Y-56580757D01*
X110080222Y-56580759D01*
X110403302Y-56660391D01*
X110733625Y-56700500D01*
X112366374Y-56700499D01*
X112366376Y-56700499D01*
X112425705Y-56693295D01*
X112696698Y-56660391D01*
X113019778Y-56580759D01*
X113330904Y-56462765D01*
X113625538Y-56308128D01*
X113899386Y-56119105D01*
X114148452Y-55898452D01*
X114162785Y-55882274D01*
X114233925Y-55801973D01*
X114369105Y-55649386D01*
X114434903Y-55554061D01*
X114489185Y-55510070D01*
X114536953Y-55500500D01*
X119036529Y-55500500D01*
X119036532Y-55500500D01*
X119427703Y-55461973D01*
X119639695Y-55419805D01*
X119813193Y-55385296D01*
X119813204Y-55385293D01*
X119813204Y-55385292D01*
X119813214Y-55385291D01*
X119943270Y-55345838D01*
X119979264Y-55340500D01*
X125852606Y-55340500D01*
X125919645Y-55360185D01*
X125954656Y-55394060D01*
X126130892Y-55649383D01*
X126130897Y-55649389D01*
X126351546Y-55898451D01*
X126351548Y-55898453D01*
X126600610Y-56119102D01*
X126600616Y-56119107D01*
X126730143Y-56208512D01*
X126874462Y-56308128D01*
X127169096Y-56462765D01*
X127411176Y-56554573D01*
X127480216Y-56580757D01*
X127480217Y-56580757D01*
X127480222Y-56580759D01*
X127803302Y-56660391D01*
X128133625Y-56700500D01*
X129766374Y-56700499D01*
X129766376Y-56700499D01*
X129825705Y-56693295D01*
X130096698Y-56660391D01*
X130419778Y-56580759D01*
X130730904Y-56462765D01*
X131025538Y-56308128D01*
X131299386Y-56119105D01*
X131417774Y-56014222D01*
X131481005Y-55984501D01*
X131550269Y-55993684D01*
X131582224Y-56014220D01*
X131666864Y-56089205D01*
X131700617Y-56119108D01*
X131857747Y-56227565D01*
X131974462Y-56308128D01*
X132269096Y-56462765D01*
X132511176Y-56554573D01*
X132580216Y-56580757D01*
X132580217Y-56580757D01*
X132580222Y-56580759D01*
X132903302Y-56660391D01*
X133233625Y-56700500D01*
X134866374Y-56700499D01*
X134866376Y-56700499D01*
X134925705Y-56693295D01*
X135196698Y-56660391D01*
X135519778Y-56580759D01*
X135830904Y-56462765D01*
X136125538Y-56308128D01*
X136399386Y-56119105D01*
X136648452Y-55898452D01*
X136662785Y-55882274D01*
X136733925Y-55801973D01*
X136869105Y-55649386D01*
X136934903Y-55554061D01*
X136989185Y-55510070D01*
X137036953Y-55500500D01*
X143696529Y-55500500D01*
X143696532Y-55500500D01*
X144087703Y-55461973D01*
X144299695Y-55419805D01*
X144473193Y-55385296D01*
X144473204Y-55385293D01*
X144473204Y-55385292D01*
X144473214Y-55385291D01*
X144849353Y-55271190D01*
X145212497Y-55120771D01*
X145292984Y-55077750D01*
X145410116Y-55015142D01*
X145468569Y-55000500D01*
X172456837Y-55000500D01*
X172523876Y-55020185D01*
X172532837Y-55026520D01*
X172591732Y-55072204D01*
X172862552Y-55232367D01*
X173151311Y-55357324D01*
X173161159Y-55360185D01*
X173453448Y-55445104D01*
X173453456Y-55445106D01*
X173764217Y-55494325D01*
X173895156Y-55500500D01*
X173895160Y-55500500D01*
X178104844Y-55500500D01*
X178179664Y-55496971D01*
X178235783Y-55494325D01*
X178235785Y-55494325D01*
X178546543Y-55445106D01*
X178546551Y-55445104D01*
X178752426Y-55385291D01*
X178848689Y-55357324D01*
X179137448Y-55232367D01*
X179408268Y-55072204D01*
X179656879Y-54879362D01*
X179656880Y-54879362D01*
X179879362Y-54656880D01*
X179879362Y-54656879D01*
X180072197Y-54408277D01*
X180072204Y-54408268D01*
X180232367Y-54137448D01*
X180357324Y-53848689D01*
X180445105Y-53546546D01*
X180445106Y-53546543D01*
X180494325Y-53235785D01*
X180494325Y-53235780D01*
X180500500Y-53104844D01*
X180500500Y-48895155D01*
X180494325Y-48764219D01*
X180494325Y-48764214D01*
X180445106Y-48453456D01*
X180445104Y-48453448D01*
X180357325Y-48151315D01*
X180357324Y-48151311D01*
X180232367Y-47862552D01*
X180072204Y-47591732D01*
X180072197Y-47591722D01*
X179879362Y-47343120D01*
X179656879Y-47120637D01*
X179408277Y-46927802D01*
X179408271Y-46927798D01*
X179408268Y-46927796D01*
X179239345Y-46827894D01*
X179137447Y-46767632D01*
X178848684Y-46642674D01*
X178546551Y-46554895D01*
X178546543Y-46554893D01*
X178235782Y-46505674D01*
X178104844Y-46499500D01*
X178104840Y-46499500D01*
X173895160Y-46499500D01*
X173895156Y-46499500D01*
X173764219Y-46505674D01*
X173764214Y-46505674D01*
X173453456Y-46554893D01*
X173453448Y-46554895D01*
X173151315Y-46642674D01*
X172862552Y-46767632D01*
X172675981Y-46877971D01*
X172591732Y-46927796D01*
X172591729Y-46927797D01*
X172591726Y-46927800D01*
X172532838Y-46973479D01*
X172467801Y-46999014D01*
X172456837Y-46999500D01*
X144199642Y-46999500D01*
X144199602Y-46999499D01*
X144196532Y-46999499D01*
X143803468Y-46999499D01*
X143715277Y-47008185D01*
X143412307Y-47038025D01*
X143412290Y-47038028D01*
X143026806Y-47114703D01*
X143026795Y-47114706D01*
X142650645Y-47228810D01*
X142287509Y-47379226D01*
X142287495Y-47379233D01*
X142089884Y-47484858D01*
X142031431Y-47499500D01*
X137036953Y-47499500D01*
X136969914Y-47479815D01*
X136934903Y-47445939D01*
X136869115Y-47350628D01*
X136869112Y-47350624D01*
X136869105Y-47350614D01*
X136855143Y-47334854D01*
X136648453Y-47101548D01*
X136648451Y-47101546D01*
X136399389Y-46880897D01*
X136399383Y-46880892D01*
X136205091Y-46746783D01*
X136125538Y-46691872D01*
X136031800Y-46642674D01*
X135830911Y-46537238D01*
X135830906Y-46537236D01*
X135830904Y-46537235D01*
X135731405Y-46499500D01*
X135519783Y-46419242D01*
X135519778Y-46419241D01*
X135196698Y-46339609D01*
X134998504Y-46315543D01*
X134866377Y-46299500D01*
X133233623Y-46299500D01*
X132953216Y-46333548D01*
X132903302Y-46339609D01*
X132687915Y-46392697D01*
X132580221Y-46419241D01*
X132580216Y-46419242D01*
X132368595Y-46499500D01*
X132269096Y-46537235D01*
X132269093Y-46537236D01*
X132269089Y-46537238D01*
X132269088Y-46537238D01*
X131974474Y-46691865D01*
X131974463Y-46691871D01*
X131700623Y-46880887D01*
X131700621Y-46880888D01*
X131647669Y-46927800D01*
X131582225Y-46985777D01*
X131518994Y-47015498D01*
X131449730Y-47006314D01*
X131417775Y-46985778D01*
X131299386Y-46880895D01*
X131299385Y-46880894D01*
X131299378Y-46880888D01*
X131299376Y-46880887D01*
X131096032Y-46740530D01*
X131025538Y-46691872D01*
X130931800Y-46642674D01*
X130730911Y-46537238D01*
X130730906Y-46537236D01*
X130730904Y-46537235D01*
X130631405Y-46499500D01*
X130419783Y-46419242D01*
X130419778Y-46419241D01*
X130096698Y-46339609D01*
X129898504Y-46315543D01*
X129766377Y-46299500D01*
X128133623Y-46299500D01*
X127853216Y-46333548D01*
X127803302Y-46339609D01*
X127587915Y-46392697D01*
X127480221Y-46419241D01*
X127480216Y-46419242D01*
X127268595Y-46499500D01*
X127169096Y-46537235D01*
X127169093Y-46537236D01*
X127169089Y-46537238D01*
X127169088Y-46537238D01*
X126874474Y-46691865D01*
X126874463Y-46691871D01*
X126600616Y-46880892D01*
X126600610Y-46880897D01*
X126351548Y-47101546D01*
X126351546Y-47101548D01*
X126177748Y-47297727D01*
X126118559Y-47334854D01*
X126084933Y-47339500D01*
X119196532Y-47339500D01*
X118803468Y-47339500D01*
X118708114Y-47348891D01*
X118412308Y-47378025D01*
X118412291Y-47378028D01*
X118026804Y-47454704D01*
X118026792Y-47454707D01*
X118026786Y-47454708D01*
X118026785Y-47454709D01*
X117896728Y-47494161D01*
X117860735Y-47499500D01*
X114536953Y-47499500D01*
X114469914Y-47479815D01*
X114434903Y-47445939D01*
X114369115Y-47350628D01*
X114369112Y-47350624D01*
X114369105Y-47350614D01*
X114355143Y-47334854D01*
X114148453Y-47101548D01*
X114148451Y-47101546D01*
X113899389Y-46880897D01*
X113899383Y-46880892D01*
X113705091Y-46746783D01*
X113625538Y-46691872D01*
X113531800Y-46642674D01*
X113330911Y-46537238D01*
X113330906Y-46537236D01*
X113330904Y-46537235D01*
X113231405Y-46499500D01*
X113019783Y-46419242D01*
X113019778Y-46419241D01*
X112696698Y-46339609D01*
X112498504Y-46315543D01*
X112366377Y-46299500D01*
X110733623Y-46299500D01*
X110453216Y-46333548D01*
X110403302Y-46339609D01*
X110187915Y-46392697D01*
X110080221Y-46419241D01*
X110080216Y-46419242D01*
X109868595Y-46499500D01*
X109769096Y-46537235D01*
X109769093Y-46537236D01*
X109769089Y-46537238D01*
X109769088Y-46537238D01*
X109474474Y-46691865D01*
X109474463Y-46691871D01*
X109200623Y-46880887D01*
X109200621Y-46880888D01*
X109147669Y-46927800D01*
X109082225Y-46985777D01*
X109018994Y-47015498D01*
X108949730Y-47006314D01*
X108917775Y-46985778D01*
X108799386Y-46880895D01*
X108799385Y-46880894D01*
X108799378Y-46880888D01*
X108799376Y-46880887D01*
X108596032Y-46740530D01*
X108525538Y-46691872D01*
X108431800Y-46642674D01*
X108230911Y-46537238D01*
X108230906Y-46537236D01*
X108230904Y-46537235D01*
X108131405Y-46499500D01*
X107919783Y-46419242D01*
X107919778Y-46419241D01*
X107596698Y-46339609D01*
X107398504Y-46315543D01*
X107266377Y-46299500D01*
X105633623Y-46299500D01*
X105353216Y-46333548D01*
X105303302Y-46339609D01*
X105087915Y-46392697D01*
X104980221Y-46419241D01*
X104980216Y-46419242D01*
X104768595Y-46499500D01*
X104669096Y-46537235D01*
X104669093Y-46537236D01*
X104669089Y-46537238D01*
X104669088Y-46537238D01*
X104374474Y-46691865D01*
X104374463Y-46691871D01*
X104100616Y-46880892D01*
X104100610Y-46880897D01*
X103851548Y-47101546D01*
X103851546Y-47101548D01*
X103630907Y-47350599D01*
X103630884Y-47350628D01*
X103565097Y-47445939D01*
X103510815Y-47489930D01*
X103463047Y-47499500D01*
X94036953Y-47499500D01*
X93969914Y-47479815D01*
X93934903Y-47445939D01*
X93869115Y-47350628D01*
X93869112Y-47350624D01*
X93869105Y-47350614D01*
X93855143Y-47334854D01*
X93648453Y-47101548D01*
X93648451Y-47101546D01*
X93399389Y-46880897D01*
X93399383Y-46880892D01*
X93205091Y-46746783D01*
X93125538Y-46691872D01*
X93031800Y-46642674D01*
X92830911Y-46537238D01*
X92830906Y-46537236D01*
X92830904Y-46537235D01*
X92731405Y-46499500D01*
X92519783Y-46419242D01*
X92519778Y-46419241D01*
X92196698Y-46339609D01*
X91998504Y-46315543D01*
X91866377Y-46299500D01*
X90233623Y-46299500D01*
X89953216Y-46333548D01*
X89903302Y-46339609D01*
X89687915Y-46392697D01*
X89580221Y-46419241D01*
X89580216Y-46419242D01*
X89368595Y-46499500D01*
X89269096Y-46537235D01*
X89269093Y-46537236D01*
X89269089Y-46537238D01*
X89269088Y-46537238D01*
X88974474Y-46691865D01*
X88974463Y-46691871D01*
X88700623Y-46880887D01*
X88700621Y-46880888D01*
X88647669Y-46927800D01*
X88582225Y-46985777D01*
X88518994Y-47015498D01*
X88449730Y-47006314D01*
X88417775Y-46985778D01*
X88299386Y-46880895D01*
X88299385Y-46880894D01*
X88299378Y-46880888D01*
X88299376Y-46880887D01*
X88096032Y-46740530D01*
X88025538Y-46691872D01*
X87931800Y-46642674D01*
X87730911Y-46537238D01*
X87730906Y-46537236D01*
X87730904Y-46537235D01*
X87631405Y-46499500D01*
X87419783Y-46419242D01*
X87419778Y-46419241D01*
X87096698Y-46339609D01*
X86898504Y-46315543D01*
X86766377Y-46299500D01*
X85133623Y-46299500D01*
X84853216Y-46333548D01*
X84803302Y-46339609D01*
X84587915Y-46392697D01*
X84480221Y-46419241D01*
X84480216Y-46419242D01*
X84268595Y-46499500D01*
X84169096Y-46537235D01*
X84169093Y-46537236D01*
X84169089Y-46537238D01*
X84169088Y-46537238D01*
X83874474Y-46691865D01*
X83874463Y-46691871D01*
X83600616Y-46880892D01*
X83600610Y-46880897D01*
X83351548Y-47101546D01*
X83351546Y-47101548D01*
X83130907Y-47350599D01*
X83130884Y-47350628D01*
X83065097Y-47445939D01*
X83010815Y-47489930D01*
X82963047Y-47499500D01*
X76536953Y-47499500D01*
X76469914Y-47479815D01*
X76434903Y-47445939D01*
X76369115Y-47350628D01*
X76369112Y-47350624D01*
X76369105Y-47350614D01*
X76355143Y-47334854D01*
X76148453Y-47101548D01*
X76148451Y-47101546D01*
X75899389Y-46880897D01*
X75899383Y-46880892D01*
X75705091Y-46746783D01*
X75625538Y-46691872D01*
X75531800Y-46642674D01*
X75330911Y-46537238D01*
X75330906Y-46537236D01*
X75330904Y-46537235D01*
X75231405Y-46499500D01*
X75019783Y-46419242D01*
X75019778Y-46419241D01*
X74696698Y-46339609D01*
X74498504Y-46315543D01*
X74366377Y-46299500D01*
X72733623Y-46299500D01*
X72453216Y-46333548D01*
X72403302Y-46339609D01*
X72187915Y-46392697D01*
X72080221Y-46419241D01*
X72080216Y-46419242D01*
X71868595Y-46499500D01*
X71769096Y-46537235D01*
X71769093Y-46537236D01*
X71769089Y-46537238D01*
X71769088Y-46537238D01*
X71474474Y-46691865D01*
X71474463Y-46691871D01*
X71200623Y-46880887D01*
X71200621Y-46880888D01*
X71147669Y-46927800D01*
X71082225Y-46985777D01*
X71018994Y-47015498D01*
X70949730Y-47006314D01*
X70917775Y-46985778D01*
X70799386Y-46880895D01*
X70799385Y-46880894D01*
X70799378Y-46880888D01*
X70799376Y-46880887D01*
X70596032Y-46740530D01*
X70525538Y-46691872D01*
X70431800Y-46642674D01*
X70230911Y-46537238D01*
X70230906Y-46537236D01*
X70230904Y-46537235D01*
X70131405Y-46499500D01*
X69919783Y-46419242D01*
X69919778Y-46419241D01*
X69596698Y-46339609D01*
X69398504Y-46315543D01*
X69266377Y-46299500D01*
X67633623Y-46299500D01*
X67353216Y-46333548D01*
X67303302Y-46339609D01*
X67087915Y-46392697D01*
X66980221Y-46419241D01*
X66980216Y-46419242D01*
X66768595Y-46499500D01*
X66669096Y-46537235D01*
X66669093Y-46537236D01*
X66669089Y-46537238D01*
X66669088Y-46537238D01*
X66374474Y-46691865D01*
X66374463Y-46691871D01*
X66100616Y-46880892D01*
X66100610Y-46880897D01*
X65851548Y-47101546D01*
X65851546Y-47101548D01*
X65630897Y-47350610D01*
X65630892Y-47350616D01*
X65441876Y-47624455D01*
X65441871Y-47624463D01*
X65363847Y-47773126D01*
X65315263Y-47823338D01*
X65254051Y-47839500D01*
X60801248Y-47839500D01*
X60753795Y-47830061D01*
X60618200Y-47773896D01*
X60509353Y-47728810D01*
X60477770Y-47719229D01*
X60133204Y-47614706D01*
X60133193Y-47614703D01*
X59747708Y-47538028D01*
X59747703Y-47538027D01*
X59747701Y-47538026D01*
X59747691Y-47538025D01*
X59460319Y-47509722D01*
X59356532Y-47499500D01*
X59356529Y-47499500D01*
X55036953Y-47499500D01*
X54969914Y-47479815D01*
X54934903Y-47445939D01*
X54869115Y-47350628D01*
X54869112Y-47350624D01*
X54869105Y-47350614D01*
X54855143Y-47334854D01*
X54648453Y-47101548D01*
X54648451Y-47101546D01*
X54399389Y-46880897D01*
X54399383Y-46880892D01*
X54205091Y-46746783D01*
X54125538Y-46691872D01*
X54031800Y-46642674D01*
X53830911Y-46537238D01*
X53830906Y-46537236D01*
X53830904Y-46537235D01*
X53731405Y-46499500D01*
X53519783Y-46419242D01*
X53519778Y-46419241D01*
X53196698Y-46339609D01*
X52998504Y-46315543D01*
X52866377Y-46299500D01*
X51233623Y-46299500D01*
X50953216Y-46333548D01*
X50903302Y-46339609D01*
X50687915Y-46392697D01*
X50580221Y-46419241D01*
X50580216Y-46419242D01*
X50368595Y-46499500D01*
X50269096Y-46537235D01*
X50269093Y-46537236D01*
X50269089Y-46537238D01*
X50269088Y-46537238D01*
X49974474Y-46691865D01*
X49974463Y-46691871D01*
X49700623Y-46880887D01*
X49700621Y-46880888D01*
X49647669Y-46927800D01*
X49582225Y-46985777D01*
X49518994Y-47015498D01*
X49449730Y-47006314D01*
X49417775Y-46985778D01*
X49299386Y-46880895D01*
X49299385Y-46880894D01*
X49299378Y-46880888D01*
X49299376Y-46880887D01*
X49096032Y-46740530D01*
X49025538Y-46691872D01*
X48931800Y-46642674D01*
X48730911Y-46537238D01*
X48730906Y-46537236D01*
X48730904Y-46537235D01*
X48631405Y-46499500D01*
X48419783Y-46419242D01*
X48419778Y-46419241D01*
X48096698Y-46339609D01*
X47898504Y-46315543D01*
X47766377Y-46299500D01*
X46133623Y-46299500D01*
X45853216Y-46333548D01*
X45803302Y-46339609D01*
X45587915Y-46392697D01*
X45480221Y-46419241D01*
X45480216Y-46419242D01*
X45268595Y-46499500D01*
X45169096Y-46537235D01*
X45169093Y-46537236D01*
X45169089Y-46537238D01*
X45169088Y-46537238D01*
X44874474Y-46691865D01*
X44874463Y-46691871D01*
X44600616Y-46880892D01*
X44600610Y-46880897D01*
X44351548Y-47101546D01*
X44351546Y-47101548D01*
X44130907Y-47350599D01*
X44130884Y-47350628D01*
X44065097Y-47445939D01*
X44010815Y-47489930D01*
X43963047Y-47499500D01*
X40877436Y-47499500D01*
X40814315Y-47482232D01*
X40637453Y-47377635D01*
X40637449Y-47377633D01*
X40348684Y-47252674D01*
X40046551Y-47164895D01*
X40046543Y-47164893D01*
X39735782Y-47115674D01*
X39604844Y-47109500D01*
X39604840Y-47109500D01*
X34395160Y-47109500D01*
X34395156Y-47109500D01*
X34264219Y-47115674D01*
X34264214Y-47115674D01*
X33953456Y-47164893D01*
X33953448Y-47164895D01*
X33651315Y-47252674D01*
X33362552Y-47377632D01*
X33247053Y-47445939D01*
X33091732Y-47537796D01*
X33091728Y-47537798D01*
X33091723Y-47537802D01*
X33091722Y-47537802D01*
X32843120Y-47730637D01*
X32843120Y-47730638D01*
X32712181Y-47861577D01*
X32650858Y-47895062D01*
X32581166Y-47890078D01*
X32525233Y-47848206D01*
X32500816Y-47782742D01*
X32500500Y-47773896D01*
X32500500Y-32878711D01*
X34149500Y-32878711D01*
X34149500Y-33121288D01*
X34181161Y-33361785D01*
X34243947Y-33596104D01*
X34336773Y-33820205D01*
X34336776Y-33820212D01*
X34458064Y-34030289D01*
X34458066Y-34030292D01*
X34458067Y-34030293D01*
X34605733Y-34222736D01*
X34605739Y-34222743D01*
X34777256Y-34394260D01*
X34777262Y-34394265D01*
X34969711Y-34541936D01*
X35179788Y-34663224D01*
X35403900Y-34756054D01*
X35638211Y-34818838D01*
X35818586Y-34842584D01*
X35878711Y-34850500D01*
X35878712Y-34850500D01*
X36121289Y-34850500D01*
X36169388Y-34844167D01*
X36361789Y-34818838D01*
X36596100Y-34756054D01*
X36820212Y-34663224D01*
X37030289Y-34541936D01*
X37222738Y-34394265D01*
X37394265Y-34222738D01*
X37541936Y-34030289D01*
X37663224Y-33820212D01*
X37756054Y-33596100D01*
X37818838Y-33361789D01*
X37850500Y-33121288D01*
X37850500Y-32878712D01*
X37850500Y-32878711D01*
X183149500Y-32878711D01*
X183149500Y-33121288D01*
X183181161Y-33361785D01*
X183243947Y-33596104D01*
X183336773Y-33820205D01*
X183336776Y-33820212D01*
X183458064Y-34030289D01*
X183458066Y-34030292D01*
X183458067Y-34030293D01*
X183605733Y-34222736D01*
X183605739Y-34222743D01*
X183777256Y-34394260D01*
X183777262Y-34394265D01*
X183969711Y-34541936D01*
X184179788Y-34663224D01*
X184403900Y-34756054D01*
X184638211Y-34818838D01*
X184818586Y-34842584D01*
X184878711Y-34850500D01*
X184878712Y-34850500D01*
X185121289Y-34850500D01*
X185169388Y-34844167D01*
X185361789Y-34818838D01*
X185596100Y-34756054D01*
X185820212Y-34663224D01*
X186030289Y-34541936D01*
X186222738Y-34394265D01*
X186394265Y-34222738D01*
X186541936Y-34030289D01*
X186663224Y-33820212D01*
X186756054Y-33596100D01*
X186818838Y-33361789D01*
X186850500Y-33121288D01*
X186850500Y-32878712D01*
X186818838Y-32638211D01*
X186756054Y-32403900D01*
X186663224Y-32179788D01*
X186541936Y-31969711D01*
X186394265Y-31777262D01*
X186394260Y-31777256D01*
X186222743Y-31605739D01*
X186222736Y-31605733D01*
X186030293Y-31458067D01*
X186030292Y-31458066D01*
X186030289Y-31458064D01*
X185820212Y-31336776D01*
X185820205Y-31336773D01*
X185596104Y-31243947D01*
X185361785Y-31181161D01*
X185121289Y-31149500D01*
X185121288Y-31149500D01*
X184878712Y-31149500D01*
X184878711Y-31149500D01*
X184638214Y-31181161D01*
X184403895Y-31243947D01*
X184179794Y-31336773D01*
X184179785Y-31336777D01*
X183969706Y-31458067D01*
X183777263Y-31605733D01*
X183777256Y-31605739D01*
X183605739Y-31777256D01*
X183605733Y-31777263D01*
X183458067Y-31969706D01*
X183336777Y-32179785D01*
X183336773Y-32179794D01*
X183243947Y-32403895D01*
X183181161Y-32638214D01*
X183149500Y-32878711D01*
X37850500Y-32878711D01*
X37818838Y-32638211D01*
X37756054Y-32403900D01*
X37663224Y-32179788D01*
X37541936Y-31969711D01*
X37394265Y-31777262D01*
X37394260Y-31777256D01*
X37222743Y-31605739D01*
X37222736Y-31605733D01*
X37030293Y-31458067D01*
X37030292Y-31458066D01*
X37030289Y-31458064D01*
X36820212Y-31336776D01*
X36820205Y-31336773D01*
X36596104Y-31243947D01*
X36361785Y-31181161D01*
X36121289Y-31149500D01*
X36121288Y-31149500D01*
X35878712Y-31149500D01*
X35878711Y-31149500D01*
X35638214Y-31181161D01*
X35403895Y-31243947D01*
X35179794Y-31336773D01*
X35179785Y-31336777D01*
X34969706Y-31458067D01*
X34777263Y-31605733D01*
X34777256Y-31605739D01*
X34605739Y-31777256D01*
X34605733Y-31777263D01*
X34458067Y-31969706D01*
X34336777Y-32179785D01*
X34336773Y-32179794D01*
X34243947Y-32403895D01*
X34181161Y-32638214D01*
X34149500Y-32878711D01*
X32500500Y-32878711D01*
X32500500Y-29624500D01*
X32520185Y-29557461D01*
X32572989Y-29511706D01*
X32624500Y-29500500D01*
X188375500Y-29500500D01*
X188442539Y-29520185D01*
G37*
%TD.AperFunction*%
%TD*%
M02*
