%TF.GenerationSoftware,KiCad,Pcbnew,8.0.5-8.0.5-0~ubuntu24.04.1*%
%TF.CreationDate,2024-10-15T10:30:05+02:00*%
%TF.ProjectId,diplexer,6469706c-6578-4657-922e-6b696361645f,rev?*%
%TF.SameCoordinates,Original*%
%TF.FileFunction,Paste,Top*%
%TF.FilePolarity,Positive*%
%FSLAX46Y46*%
G04 Gerber Fmt 4.6, Leading zero omitted, Abs format (unit mm)*
G04 Created by KiCad (PCBNEW 8.0.5-8.0.5-0~ubuntu24.04.1) date 2024-10-15 10:30:05*
%MOMM*%
%LPD*%
G01*
G04 APERTURE LIST*
%ADD10R,5.000000X5.000000*%
%ADD11R,4.000000X4.000000*%
%ADD12R,1.780000X1.780000*%
G04 APERTURE END LIST*
D10*
%TO.C,J3*%
X185000000Y-80350000D03*
X185000000Y-89460000D03*
X185000000Y-71250000D03*
%TD*%
D11*
%TO.C,J2*%
X175000000Y-49390000D03*
X184000000Y-43040000D03*
X184000000Y-55740000D03*
%TD*%
D12*
%TO.C,C17*%
X90100000Y-83300000D03*
X90100000Y-87800000D03*
%TD*%
%TO.C,C6*%
X63000000Y-87590000D03*
X63000000Y-83090000D03*
%TD*%
%TO.C,C14*%
X117300000Y-48900000D03*
X121800000Y-48900000D03*
%TD*%
%TO.C,C4*%
X117300000Y-54340000D03*
X121800000Y-54340000D03*
%TD*%
%TO.C,C19*%
X140100000Y-81300000D03*
X140100000Y-85800000D03*
%TD*%
%TO.C,C13*%
X96300000Y-48900000D03*
X100800000Y-48900000D03*
%TD*%
%TO.C,C1*%
X48300000Y-54340000D03*
X52800000Y-54340000D03*
%TD*%
%TO.C,C7*%
X86000000Y-87590000D03*
X86000000Y-83090000D03*
%TD*%
%TO.C,C15*%
X145300000Y-49900000D03*
X149800000Y-49900000D03*
%TD*%
%TO.C,C20*%
X169600000Y-80825000D03*
X169600000Y-85325000D03*
%TD*%
%TO.C,C11*%
X48500000Y-49000000D03*
X53000000Y-49000000D03*
%TD*%
D10*
%TO.C,J1*%
X37000000Y-52110000D03*
X37000000Y-43000000D03*
X37000000Y-61210000D03*
%TD*%
D12*
%TO.C,C5*%
X145410000Y-54340000D03*
X149910000Y-54340000D03*
%TD*%
%TO.C,C10*%
X164400000Y-85200000D03*
X164400000Y-80700000D03*
%TD*%
%TO.C,C2*%
X67300000Y-54340000D03*
X71800000Y-54340000D03*
%TD*%
%TO.C,C18*%
X119100000Y-81300000D03*
X119100000Y-85800000D03*
%TD*%
%TO.C,C8*%
X114900000Y-85700000D03*
X114900000Y-81200000D03*
%TD*%
%TO.C,C9*%
X135900000Y-85590000D03*
X135900000Y-81090000D03*
%TD*%
%TO.C,C12*%
X67300000Y-48900000D03*
X71800000Y-48900000D03*
%TD*%
%TO.C,C16*%
X68100000Y-83300000D03*
X68100000Y-87800000D03*
%TD*%
%TO.C,C3*%
X96410000Y-54340000D03*
X100910000Y-54340000D03*
%TD*%
M02*
