%TF.GenerationSoftware,KiCad,Pcbnew,8.0.6-8.0.6-0~ubuntu24.04.1*%
%TF.CreationDate,2024-10-18T14:07:28+02:00*%
%TF.ProjectId,diplexer,6469706c-6578-4657-922e-6b696361645f,rev?*%
%TF.SameCoordinates,Original*%
%TF.FileFunction,Drillmap*%
%TF.FilePolarity,Positive*%
%FSLAX45Y45*%
G04 Gerber Fmt 4.5, Leading zero omitted, Abs format (unit mm)*
G04 Created by KiCad (PCBNEW 8.0.6-8.0.6-0~ubuntu24.04.1) date 2024-10-18 14:07:28*
%MOMM*%
%LPD*%
G01*
G04 APERTURE LIST*
%ADD10C,0.050000*%
%ADD11C,0.200000*%
%ADD12C,0.160000*%
%ADD13C,0.320000*%
G04 APERTURE END LIST*
D10*
X3200000Y-2880000D02*
X18900000Y-2880000D01*
X18900000Y-12980000D01*
X3200000Y-12980000D01*
X3200000Y-2880000D01*
D11*
D12*
X4468750Y-9720000D02*
X4628750Y-9880000D01*
X4628750Y-9720000D02*
X4468750Y-9880000D01*
X5928750Y-9720000D02*
X6088750Y-9880000D01*
X6088750Y-9720000D02*
X5928750Y-9880000D01*
X5970000Y-5270000D02*
X6130000Y-5430000D01*
X6130000Y-5270000D02*
X5970000Y-5430000D01*
X5970000Y-6730000D02*
X6130000Y-6890000D01*
X6130000Y-6730000D02*
X5970000Y-6890000D01*
X7654000Y-5714000D02*
X7814000Y-5874000D01*
X7814000Y-5714000D02*
X7654000Y-5874000D01*
X7670000Y-9070000D02*
X7830000Y-9230000D01*
X7830000Y-9070000D02*
X7670000Y-9230000D01*
X7670000Y-10530000D02*
X7830000Y-10690000D01*
X7830000Y-10530000D02*
X7670000Y-10690000D01*
X9114000Y-5714000D02*
X9274000Y-5874000D01*
X9274000Y-5714000D02*
X9114000Y-5874000D01*
X9418750Y-9470000D02*
X9578750Y-9630000D01*
X9578750Y-9470000D02*
X9418750Y-9630000D01*
X10878750Y-9470000D02*
X11038750Y-9630000D01*
X11038750Y-9470000D02*
X10878750Y-9630000D01*
X10970000Y-5270000D02*
X11130000Y-5430000D01*
X11130000Y-5270000D02*
X10970000Y-5430000D01*
X10970000Y-6730000D02*
X11130000Y-6890000D01*
X11130000Y-6730000D02*
X10970000Y-6890000D01*
X12618750Y-5714000D02*
X12778750Y-5874000D01*
X12778750Y-5714000D02*
X12618750Y-5874000D01*
X12720000Y-8961250D02*
X12880000Y-9121250D01*
X12880000Y-8961250D02*
X12720000Y-9121250D01*
X12720000Y-10421250D02*
X12880000Y-10581250D01*
X12880000Y-10421250D02*
X12720000Y-10581250D01*
X14078750Y-5714000D02*
X14238750Y-5874000D01*
X14238750Y-5714000D02*
X14078750Y-5874000D01*
X14418750Y-9370000D02*
X14578750Y-9530000D01*
X14578750Y-9370000D02*
X14418750Y-9530000D01*
X15770000Y-5161250D02*
X15930000Y-5321250D01*
X15930000Y-5161250D02*
X15770000Y-5321250D01*
X15770000Y-6621250D02*
X15930000Y-6781250D01*
X15930000Y-6621250D02*
X15770000Y-6781250D01*
X15878750Y-9370000D02*
X16038750Y-9530000D01*
X16038750Y-9370000D02*
X15878750Y-9530000D01*
D13*
X3810000Y-4750000D02*
G75*
G02*
X3490000Y-4750000I-160000J0D01*
G01*
X3490000Y-4750000D02*
G75*
G02*
X3810000Y-4750000I160000J0D01*
G01*
X3810000Y-11150000D02*
G75*
G02*
X3490000Y-11150000I-160000J0D01*
G01*
X3490000Y-11150000D02*
G75*
G02*
X3810000Y-11150000I160000J0D01*
G01*
X5210000Y-7950000D02*
G75*
G02*
X4890000Y-7950000I-160000J0D01*
G01*
X4890000Y-7950000D02*
G75*
G02*
X5210000Y-7950000I160000J0D01*
G01*
X9810000Y-7950000D02*
G75*
G02*
X9490000Y-7950000I-160000J0D01*
G01*
X9490000Y-7950000D02*
G75*
G02*
X9810000Y-7950000I160000J0D01*
G01*
X13610000Y-7950000D02*
G75*
G02*
X13290000Y-7950000I-160000J0D01*
G01*
X13290000Y-7950000D02*
G75*
G02*
X13610000Y-7950000I160000J0D01*
G01*
X18710000Y-4750000D02*
G75*
G02*
X18390000Y-4750000I-160000J0D01*
G01*
X18390000Y-4750000D02*
G75*
G02*
X18710000Y-4750000I160000J0D01*
G01*
X18710000Y-7950000D02*
G75*
G02*
X18390000Y-7950000I-160000J0D01*
G01*
X18390000Y-7950000D02*
G75*
G02*
X18710000Y-7950000I160000J0D01*
G01*
X18710000Y-11150000D02*
G75*
G02*
X18390000Y-11150000I-160000J0D01*
G01*
X18390000Y-11150000D02*
G75*
G02*
X18710000Y-11150000I160000J0D01*
G01*
D11*
X3458277Y-13293984D02*
X3458277Y-13093984D01*
X3458277Y-13093984D02*
X3505896Y-13093984D01*
X3505896Y-13093984D02*
X3534467Y-13103508D01*
X3534467Y-13103508D02*
X3553515Y-13122555D01*
X3553515Y-13122555D02*
X3563039Y-13141603D01*
X3563039Y-13141603D02*
X3572562Y-13179698D01*
X3572562Y-13179698D02*
X3572562Y-13208269D01*
X3572562Y-13208269D02*
X3563039Y-13246365D01*
X3563039Y-13246365D02*
X3553515Y-13265412D01*
X3553515Y-13265412D02*
X3534467Y-13284460D01*
X3534467Y-13284460D02*
X3505896Y-13293984D01*
X3505896Y-13293984D02*
X3458277Y-13293984D01*
X3658277Y-13293984D02*
X3658277Y-13160650D01*
X3658277Y-13198746D02*
X3667801Y-13179698D01*
X3667801Y-13179698D02*
X3677324Y-13170174D01*
X3677324Y-13170174D02*
X3696372Y-13160650D01*
X3696372Y-13160650D02*
X3715420Y-13160650D01*
X3782086Y-13293984D02*
X3782086Y-13160650D01*
X3782086Y-13093984D02*
X3772562Y-13103508D01*
X3772562Y-13103508D02*
X3782086Y-13113031D01*
X3782086Y-13113031D02*
X3791610Y-13103508D01*
X3791610Y-13103508D02*
X3782086Y-13093984D01*
X3782086Y-13093984D02*
X3782086Y-13113031D01*
X3905896Y-13293984D02*
X3886848Y-13284460D01*
X3886848Y-13284460D02*
X3877324Y-13265412D01*
X3877324Y-13265412D02*
X3877324Y-13093984D01*
X4010658Y-13293984D02*
X3991610Y-13284460D01*
X3991610Y-13284460D02*
X3982086Y-13265412D01*
X3982086Y-13265412D02*
X3982086Y-13093984D01*
X4239229Y-13293984D02*
X4239229Y-13093984D01*
X4239229Y-13093984D02*
X4305896Y-13236841D01*
X4305896Y-13236841D02*
X4372563Y-13093984D01*
X4372563Y-13093984D02*
X4372563Y-13293984D01*
X4553515Y-13293984D02*
X4553515Y-13189222D01*
X4553515Y-13189222D02*
X4543991Y-13170174D01*
X4543991Y-13170174D02*
X4524944Y-13160650D01*
X4524944Y-13160650D02*
X4486848Y-13160650D01*
X4486848Y-13160650D02*
X4467801Y-13170174D01*
X4553515Y-13284460D02*
X4534467Y-13293984D01*
X4534467Y-13293984D02*
X4486848Y-13293984D01*
X4486848Y-13293984D02*
X4467801Y-13284460D01*
X4467801Y-13284460D02*
X4458277Y-13265412D01*
X4458277Y-13265412D02*
X4458277Y-13246365D01*
X4458277Y-13246365D02*
X4467801Y-13227317D01*
X4467801Y-13227317D02*
X4486848Y-13217793D01*
X4486848Y-13217793D02*
X4534467Y-13217793D01*
X4534467Y-13217793D02*
X4553515Y-13208269D01*
X4648753Y-13160650D02*
X4648753Y-13360650D01*
X4648753Y-13170174D02*
X4667801Y-13160650D01*
X4667801Y-13160650D02*
X4705896Y-13160650D01*
X4705896Y-13160650D02*
X4724944Y-13170174D01*
X4724944Y-13170174D02*
X4734467Y-13179698D01*
X4734467Y-13179698D02*
X4743991Y-13198746D01*
X4743991Y-13198746D02*
X4743991Y-13255888D01*
X4743991Y-13255888D02*
X4734467Y-13274936D01*
X4734467Y-13274936D02*
X4724944Y-13284460D01*
X4724944Y-13284460D02*
X4705896Y-13293984D01*
X4705896Y-13293984D02*
X4667801Y-13293984D01*
X4667801Y-13293984D02*
X4648753Y-13284460D01*
X4829705Y-13274936D02*
X4839229Y-13284460D01*
X4839229Y-13284460D02*
X4829705Y-13293984D01*
X4829705Y-13293984D02*
X4820182Y-13284460D01*
X4820182Y-13284460D02*
X4829705Y-13274936D01*
X4829705Y-13274936D02*
X4829705Y-13293984D01*
X4829705Y-13170174D02*
X4839229Y-13179698D01*
X4839229Y-13179698D02*
X4829705Y-13189222D01*
X4829705Y-13189222D02*
X4820182Y-13179698D01*
X4820182Y-13179698D02*
X4829705Y-13170174D01*
X4829705Y-13170174D02*
X4829705Y-13189222D01*
D12*
X3037500Y-13542500D02*
X3197500Y-13702500D01*
X3197500Y-13542500D02*
X3037500Y-13702500D01*
D11*
X3563039Y-13713984D02*
X3448753Y-13713984D01*
X3505896Y-13713984D02*
X3505896Y-13513984D01*
X3505896Y-13513984D02*
X3486848Y-13542555D01*
X3486848Y-13542555D02*
X3467801Y-13561603D01*
X3467801Y-13561603D02*
X3448753Y-13571127D01*
X3648753Y-13694936D02*
X3658277Y-13704460D01*
X3658277Y-13704460D02*
X3648753Y-13713984D01*
X3648753Y-13713984D02*
X3639229Y-13704460D01*
X3639229Y-13704460D02*
X3648753Y-13694936D01*
X3648753Y-13694936D02*
X3648753Y-13713984D01*
X3829705Y-13513984D02*
X3791610Y-13513984D01*
X3791610Y-13513984D02*
X3772562Y-13523508D01*
X3772562Y-13523508D02*
X3763039Y-13533031D01*
X3763039Y-13533031D02*
X3743991Y-13561603D01*
X3743991Y-13561603D02*
X3734467Y-13599698D01*
X3734467Y-13599698D02*
X3734467Y-13675888D01*
X3734467Y-13675888D02*
X3743991Y-13694936D01*
X3743991Y-13694936D02*
X3753515Y-13704460D01*
X3753515Y-13704460D02*
X3772562Y-13713984D01*
X3772562Y-13713984D02*
X3810658Y-13713984D01*
X3810658Y-13713984D02*
X3829705Y-13704460D01*
X3829705Y-13704460D02*
X3839229Y-13694936D01*
X3839229Y-13694936D02*
X3848753Y-13675888D01*
X3848753Y-13675888D02*
X3848753Y-13628269D01*
X3848753Y-13628269D02*
X3839229Y-13609222D01*
X3839229Y-13609222D02*
X3829705Y-13599698D01*
X3829705Y-13599698D02*
X3810658Y-13590174D01*
X3810658Y-13590174D02*
X3772562Y-13590174D01*
X3772562Y-13590174D02*
X3753515Y-13599698D01*
X3753515Y-13599698D02*
X3743991Y-13609222D01*
X3743991Y-13609222D02*
X3734467Y-13628269D01*
X3972562Y-13513984D02*
X3991610Y-13513984D01*
X3991610Y-13513984D02*
X4010658Y-13523508D01*
X4010658Y-13523508D02*
X4020182Y-13533031D01*
X4020182Y-13533031D02*
X4029705Y-13552079D01*
X4029705Y-13552079D02*
X4039229Y-13590174D01*
X4039229Y-13590174D02*
X4039229Y-13637793D01*
X4039229Y-13637793D02*
X4029705Y-13675888D01*
X4029705Y-13675888D02*
X4020182Y-13694936D01*
X4020182Y-13694936D02*
X4010658Y-13704460D01*
X4010658Y-13704460D02*
X3991610Y-13713984D01*
X3991610Y-13713984D02*
X3972562Y-13713984D01*
X3972562Y-13713984D02*
X3953515Y-13704460D01*
X3953515Y-13704460D02*
X3943991Y-13694936D01*
X3943991Y-13694936D02*
X3934467Y-13675888D01*
X3934467Y-13675888D02*
X3924943Y-13637793D01*
X3924943Y-13637793D02*
X3924943Y-13590174D01*
X3924943Y-13590174D02*
X3934467Y-13552079D01*
X3934467Y-13552079D02*
X3943991Y-13533031D01*
X3943991Y-13533031D02*
X3953515Y-13523508D01*
X3953515Y-13523508D02*
X3972562Y-13513984D01*
X4163039Y-13513984D02*
X4182086Y-13513984D01*
X4182086Y-13513984D02*
X4201134Y-13523508D01*
X4201134Y-13523508D02*
X4210658Y-13533031D01*
X4210658Y-13533031D02*
X4220182Y-13552079D01*
X4220182Y-13552079D02*
X4229705Y-13590174D01*
X4229705Y-13590174D02*
X4229705Y-13637793D01*
X4229705Y-13637793D02*
X4220182Y-13675888D01*
X4220182Y-13675888D02*
X4210658Y-13694936D01*
X4210658Y-13694936D02*
X4201134Y-13704460D01*
X4201134Y-13704460D02*
X4182086Y-13713984D01*
X4182086Y-13713984D02*
X4163039Y-13713984D01*
X4163039Y-13713984D02*
X4143991Y-13704460D01*
X4143991Y-13704460D02*
X4134467Y-13694936D01*
X4134467Y-13694936D02*
X4124943Y-13675888D01*
X4124943Y-13675888D02*
X4115420Y-13637793D01*
X4115420Y-13637793D02*
X4115420Y-13590174D01*
X4115420Y-13590174D02*
X4124943Y-13552079D01*
X4124943Y-13552079D02*
X4134467Y-13533031D01*
X4134467Y-13533031D02*
X4143991Y-13523508D01*
X4143991Y-13523508D02*
X4163039Y-13513984D01*
X4315420Y-13713984D02*
X4315420Y-13580650D01*
X4315420Y-13599698D02*
X4324944Y-13590174D01*
X4324944Y-13590174D02*
X4343991Y-13580650D01*
X4343991Y-13580650D02*
X4372563Y-13580650D01*
X4372563Y-13580650D02*
X4391610Y-13590174D01*
X4391610Y-13590174D02*
X4401134Y-13609222D01*
X4401134Y-13609222D02*
X4401134Y-13713984D01*
X4401134Y-13609222D02*
X4410658Y-13590174D01*
X4410658Y-13590174D02*
X4429705Y-13580650D01*
X4429705Y-13580650D02*
X4458277Y-13580650D01*
X4458277Y-13580650D02*
X4477325Y-13590174D01*
X4477325Y-13590174D02*
X4486848Y-13609222D01*
X4486848Y-13609222D02*
X4486848Y-13713984D01*
X4582086Y-13713984D02*
X4582086Y-13580650D01*
X4582086Y-13599698D02*
X4591610Y-13590174D01*
X4591610Y-13590174D02*
X4610658Y-13580650D01*
X4610658Y-13580650D02*
X4639229Y-13580650D01*
X4639229Y-13580650D02*
X4658277Y-13590174D01*
X4658277Y-13590174D02*
X4667801Y-13609222D01*
X4667801Y-13609222D02*
X4667801Y-13713984D01*
X4667801Y-13609222D02*
X4677325Y-13590174D01*
X4677325Y-13590174D02*
X4696372Y-13580650D01*
X4696372Y-13580650D02*
X4724944Y-13580650D01*
X4724944Y-13580650D02*
X4743991Y-13590174D01*
X4743991Y-13590174D02*
X4753515Y-13609222D01*
X4753515Y-13609222D02*
X4753515Y-13713984D01*
X5143991Y-13504460D02*
X4972563Y-13761603D01*
X5401134Y-13513984D02*
X5420182Y-13513984D01*
X5420182Y-13513984D02*
X5439229Y-13523508D01*
X5439229Y-13523508D02*
X5448753Y-13533031D01*
X5448753Y-13533031D02*
X5458277Y-13552079D01*
X5458277Y-13552079D02*
X5467801Y-13590174D01*
X5467801Y-13590174D02*
X5467801Y-13637793D01*
X5467801Y-13637793D02*
X5458277Y-13675888D01*
X5458277Y-13675888D02*
X5448753Y-13694936D01*
X5448753Y-13694936D02*
X5439229Y-13704460D01*
X5439229Y-13704460D02*
X5420182Y-13713984D01*
X5420182Y-13713984D02*
X5401134Y-13713984D01*
X5401134Y-13713984D02*
X5382087Y-13704460D01*
X5382087Y-13704460D02*
X5372563Y-13694936D01*
X5372563Y-13694936D02*
X5363039Y-13675888D01*
X5363039Y-13675888D02*
X5353515Y-13637793D01*
X5353515Y-13637793D02*
X5353515Y-13590174D01*
X5353515Y-13590174D02*
X5363039Y-13552079D01*
X5363039Y-13552079D02*
X5372563Y-13533031D01*
X5372563Y-13533031D02*
X5382087Y-13523508D01*
X5382087Y-13523508D02*
X5401134Y-13513984D01*
X5553515Y-13694936D02*
X5563039Y-13704460D01*
X5563039Y-13704460D02*
X5553515Y-13713984D01*
X5553515Y-13713984D02*
X5543991Y-13704460D01*
X5543991Y-13704460D02*
X5553515Y-13694936D01*
X5553515Y-13694936D02*
X5553515Y-13713984D01*
X5686848Y-13513984D02*
X5705896Y-13513984D01*
X5705896Y-13513984D02*
X5724944Y-13523508D01*
X5724944Y-13523508D02*
X5734467Y-13533031D01*
X5734467Y-13533031D02*
X5743991Y-13552079D01*
X5743991Y-13552079D02*
X5753515Y-13590174D01*
X5753515Y-13590174D02*
X5753515Y-13637793D01*
X5753515Y-13637793D02*
X5743991Y-13675888D01*
X5743991Y-13675888D02*
X5734467Y-13694936D01*
X5734467Y-13694936D02*
X5724944Y-13704460D01*
X5724944Y-13704460D02*
X5705896Y-13713984D01*
X5705896Y-13713984D02*
X5686848Y-13713984D01*
X5686848Y-13713984D02*
X5667801Y-13704460D01*
X5667801Y-13704460D02*
X5658277Y-13694936D01*
X5658277Y-13694936D02*
X5648753Y-13675888D01*
X5648753Y-13675888D02*
X5639229Y-13637793D01*
X5639229Y-13637793D02*
X5639229Y-13590174D01*
X5639229Y-13590174D02*
X5648753Y-13552079D01*
X5648753Y-13552079D02*
X5658277Y-13533031D01*
X5658277Y-13533031D02*
X5667801Y-13523508D01*
X5667801Y-13523508D02*
X5686848Y-13513984D01*
X5924944Y-13513984D02*
X5886848Y-13513984D01*
X5886848Y-13513984D02*
X5867801Y-13523508D01*
X5867801Y-13523508D02*
X5858277Y-13533031D01*
X5858277Y-13533031D02*
X5839229Y-13561603D01*
X5839229Y-13561603D02*
X5829706Y-13599698D01*
X5829706Y-13599698D02*
X5829706Y-13675888D01*
X5829706Y-13675888D02*
X5839229Y-13694936D01*
X5839229Y-13694936D02*
X5848753Y-13704460D01*
X5848753Y-13704460D02*
X5867801Y-13713984D01*
X5867801Y-13713984D02*
X5905896Y-13713984D01*
X5905896Y-13713984D02*
X5924944Y-13704460D01*
X5924944Y-13704460D02*
X5934467Y-13694936D01*
X5934467Y-13694936D02*
X5943991Y-13675888D01*
X5943991Y-13675888D02*
X5943991Y-13628269D01*
X5943991Y-13628269D02*
X5934467Y-13609222D01*
X5934467Y-13609222D02*
X5924944Y-13599698D01*
X5924944Y-13599698D02*
X5905896Y-13590174D01*
X5905896Y-13590174D02*
X5867801Y-13590174D01*
X5867801Y-13590174D02*
X5848753Y-13599698D01*
X5848753Y-13599698D02*
X5839229Y-13609222D01*
X5839229Y-13609222D02*
X5829706Y-13628269D01*
X6010658Y-13513984D02*
X6134467Y-13513984D01*
X6134467Y-13513984D02*
X6067801Y-13590174D01*
X6067801Y-13590174D02*
X6096372Y-13590174D01*
X6096372Y-13590174D02*
X6115420Y-13599698D01*
X6115420Y-13599698D02*
X6124944Y-13609222D01*
X6124944Y-13609222D02*
X6134467Y-13628269D01*
X6134467Y-13628269D02*
X6134467Y-13675888D01*
X6134467Y-13675888D02*
X6124944Y-13694936D01*
X6124944Y-13694936D02*
X6115420Y-13704460D01*
X6115420Y-13704460D02*
X6096372Y-13713984D01*
X6096372Y-13713984D02*
X6039229Y-13713984D01*
X6039229Y-13713984D02*
X6020182Y-13704460D01*
X6020182Y-13704460D02*
X6010658Y-13694936D01*
X6258277Y-13513984D02*
X6277325Y-13513984D01*
X6277325Y-13513984D02*
X6296372Y-13523508D01*
X6296372Y-13523508D02*
X6305896Y-13533031D01*
X6305896Y-13533031D02*
X6315420Y-13552079D01*
X6315420Y-13552079D02*
X6324944Y-13590174D01*
X6324944Y-13590174D02*
X6324944Y-13637793D01*
X6324944Y-13637793D02*
X6315420Y-13675888D01*
X6315420Y-13675888D02*
X6305896Y-13694936D01*
X6305896Y-13694936D02*
X6296372Y-13704460D01*
X6296372Y-13704460D02*
X6277325Y-13713984D01*
X6277325Y-13713984D02*
X6258277Y-13713984D01*
X6258277Y-13713984D02*
X6239229Y-13704460D01*
X6239229Y-13704460D02*
X6229706Y-13694936D01*
X6229706Y-13694936D02*
X6220182Y-13675888D01*
X6220182Y-13675888D02*
X6210658Y-13637793D01*
X6210658Y-13637793D02*
X6210658Y-13590174D01*
X6210658Y-13590174D02*
X6220182Y-13552079D01*
X6220182Y-13552079D02*
X6229706Y-13533031D01*
X6229706Y-13533031D02*
X6239229Y-13523508D01*
X6239229Y-13523508D02*
X6258277Y-13513984D01*
X6401134Y-13513984D02*
X6401134Y-13552079D01*
X6477325Y-13513984D02*
X6477325Y-13552079D01*
X6772563Y-13790174D02*
X6763039Y-13780650D01*
X6763039Y-13780650D02*
X6743991Y-13752079D01*
X6743991Y-13752079D02*
X6734468Y-13733031D01*
X6734468Y-13733031D02*
X6724944Y-13704460D01*
X6724944Y-13704460D02*
X6715420Y-13656841D01*
X6715420Y-13656841D02*
X6715420Y-13618746D01*
X6715420Y-13618746D02*
X6724944Y-13571127D01*
X6724944Y-13571127D02*
X6734468Y-13542555D01*
X6734468Y-13542555D02*
X6743991Y-13523508D01*
X6743991Y-13523508D02*
X6763039Y-13494936D01*
X6763039Y-13494936D02*
X6772563Y-13485412D01*
X6839229Y-13533031D02*
X6848753Y-13523508D01*
X6848753Y-13523508D02*
X6867801Y-13513984D01*
X6867801Y-13513984D02*
X6915420Y-13513984D01*
X6915420Y-13513984D02*
X6934468Y-13523508D01*
X6934468Y-13523508D02*
X6943991Y-13533031D01*
X6943991Y-13533031D02*
X6953515Y-13552079D01*
X6953515Y-13552079D02*
X6953515Y-13571127D01*
X6953515Y-13571127D02*
X6943991Y-13599698D01*
X6943991Y-13599698D02*
X6829706Y-13713984D01*
X6829706Y-13713984D02*
X6953515Y-13713984D01*
X7077325Y-13513984D02*
X7096372Y-13513984D01*
X7096372Y-13513984D02*
X7115420Y-13523508D01*
X7115420Y-13523508D02*
X7124944Y-13533031D01*
X7124944Y-13533031D02*
X7134468Y-13552079D01*
X7134468Y-13552079D02*
X7143991Y-13590174D01*
X7143991Y-13590174D02*
X7143991Y-13637793D01*
X7143991Y-13637793D02*
X7134468Y-13675888D01*
X7134468Y-13675888D02*
X7124944Y-13694936D01*
X7124944Y-13694936D02*
X7115420Y-13704460D01*
X7115420Y-13704460D02*
X7096372Y-13713984D01*
X7096372Y-13713984D02*
X7077325Y-13713984D01*
X7077325Y-13713984D02*
X7058277Y-13704460D01*
X7058277Y-13704460D02*
X7048753Y-13694936D01*
X7048753Y-13694936D02*
X7039229Y-13675888D01*
X7039229Y-13675888D02*
X7029706Y-13637793D01*
X7029706Y-13637793D02*
X7029706Y-13590174D01*
X7029706Y-13590174D02*
X7039229Y-13552079D01*
X7039229Y-13552079D02*
X7048753Y-13533031D01*
X7048753Y-13533031D02*
X7058277Y-13523508D01*
X7058277Y-13523508D02*
X7077325Y-13513984D01*
X7382087Y-13713984D02*
X7382087Y-13513984D01*
X7467801Y-13713984D02*
X7467801Y-13609222D01*
X7467801Y-13609222D02*
X7458277Y-13590174D01*
X7458277Y-13590174D02*
X7439230Y-13580650D01*
X7439230Y-13580650D02*
X7410658Y-13580650D01*
X7410658Y-13580650D02*
X7391610Y-13590174D01*
X7391610Y-13590174D02*
X7382087Y-13599698D01*
X7591610Y-13713984D02*
X7572563Y-13704460D01*
X7572563Y-13704460D02*
X7563039Y-13694936D01*
X7563039Y-13694936D02*
X7553515Y-13675888D01*
X7553515Y-13675888D02*
X7553515Y-13618746D01*
X7553515Y-13618746D02*
X7563039Y-13599698D01*
X7563039Y-13599698D02*
X7572563Y-13590174D01*
X7572563Y-13590174D02*
X7591610Y-13580650D01*
X7591610Y-13580650D02*
X7620182Y-13580650D01*
X7620182Y-13580650D02*
X7639230Y-13590174D01*
X7639230Y-13590174D02*
X7648753Y-13599698D01*
X7648753Y-13599698D02*
X7658277Y-13618746D01*
X7658277Y-13618746D02*
X7658277Y-13675888D01*
X7658277Y-13675888D02*
X7648753Y-13694936D01*
X7648753Y-13694936D02*
X7639230Y-13704460D01*
X7639230Y-13704460D02*
X7620182Y-13713984D01*
X7620182Y-13713984D02*
X7591610Y-13713984D01*
X7772563Y-13713984D02*
X7753515Y-13704460D01*
X7753515Y-13704460D02*
X7743991Y-13685412D01*
X7743991Y-13685412D02*
X7743991Y-13513984D01*
X7924944Y-13704460D02*
X7905896Y-13713984D01*
X7905896Y-13713984D02*
X7867801Y-13713984D01*
X7867801Y-13713984D02*
X7848753Y-13704460D01*
X7848753Y-13704460D02*
X7839230Y-13685412D01*
X7839230Y-13685412D02*
X7839230Y-13609222D01*
X7839230Y-13609222D02*
X7848753Y-13590174D01*
X7848753Y-13590174D02*
X7867801Y-13580650D01*
X7867801Y-13580650D02*
X7905896Y-13580650D01*
X7905896Y-13580650D02*
X7924944Y-13590174D01*
X7924944Y-13590174D02*
X7934468Y-13609222D01*
X7934468Y-13609222D02*
X7934468Y-13628269D01*
X7934468Y-13628269D02*
X7839230Y-13647317D01*
X8010658Y-13704460D02*
X8029706Y-13713984D01*
X8029706Y-13713984D02*
X8067801Y-13713984D01*
X8067801Y-13713984D02*
X8086849Y-13704460D01*
X8086849Y-13704460D02*
X8096372Y-13685412D01*
X8096372Y-13685412D02*
X8096372Y-13675888D01*
X8096372Y-13675888D02*
X8086849Y-13656841D01*
X8086849Y-13656841D02*
X8067801Y-13647317D01*
X8067801Y-13647317D02*
X8039230Y-13647317D01*
X8039230Y-13647317D02*
X8020182Y-13637793D01*
X8020182Y-13637793D02*
X8010658Y-13618746D01*
X8010658Y-13618746D02*
X8010658Y-13609222D01*
X8010658Y-13609222D02*
X8020182Y-13590174D01*
X8020182Y-13590174D02*
X8039230Y-13580650D01*
X8039230Y-13580650D02*
X8067801Y-13580650D01*
X8067801Y-13580650D02*
X8086849Y-13590174D01*
X8163039Y-13790174D02*
X8172563Y-13780650D01*
X8172563Y-13780650D02*
X8191611Y-13752079D01*
X8191611Y-13752079D02*
X8201134Y-13733031D01*
X8201134Y-13733031D02*
X8210658Y-13704460D01*
X8210658Y-13704460D02*
X8220182Y-13656841D01*
X8220182Y-13656841D02*
X8220182Y-13618746D01*
X8220182Y-13618746D02*
X8210658Y-13571127D01*
X8210658Y-13571127D02*
X8201134Y-13542555D01*
X8201134Y-13542555D02*
X8191611Y-13523508D01*
X8191611Y-13523508D02*
X8172563Y-13494936D01*
X8172563Y-13494936D02*
X8163039Y-13485412D01*
X3197500Y-13902500D02*
G75*
G02*
X2997500Y-13902500I-100000J0D01*
G01*
X2997500Y-13902500D02*
G75*
G02*
X3197500Y-13902500I100000J0D01*
G01*
X3439229Y-13793984D02*
X3563039Y-13793984D01*
X3563039Y-13793984D02*
X3496372Y-13870174D01*
X3496372Y-13870174D02*
X3524943Y-13870174D01*
X3524943Y-13870174D02*
X3543991Y-13879698D01*
X3543991Y-13879698D02*
X3553515Y-13889222D01*
X3553515Y-13889222D02*
X3563039Y-13908269D01*
X3563039Y-13908269D02*
X3563039Y-13955888D01*
X3563039Y-13955888D02*
X3553515Y-13974936D01*
X3553515Y-13974936D02*
X3543991Y-13984460D01*
X3543991Y-13984460D02*
X3524943Y-13993984D01*
X3524943Y-13993984D02*
X3467801Y-13993984D01*
X3467801Y-13993984D02*
X3448753Y-13984460D01*
X3448753Y-13984460D02*
X3439229Y-13974936D01*
X3648753Y-13974936D02*
X3658277Y-13984460D01*
X3658277Y-13984460D02*
X3648753Y-13993984D01*
X3648753Y-13993984D02*
X3639229Y-13984460D01*
X3639229Y-13984460D02*
X3648753Y-13974936D01*
X3648753Y-13974936D02*
X3648753Y-13993984D01*
X3734467Y-13813031D02*
X3743991Y-13803508D01*
X3743991Y-13803508D02*
X3763039Y-13793984D01*
X3763039Y-13793984D02*
X3810658Y-13793984D01*
X3810658Y-13793984D02*
X3829705Y-13803508D01*
X3829705Y-13803508D02*
X3839229Y-13813031D01*
X3839229Y-13813031D02*
X3848753Y-13832079D01*
X3848753Y-13832079D02*
X3848753Y-13851127D01*
X3848753Y-13851127D02*
X3839229Y-13879698D01*
X3839229Y-13879698D02*
X3724943Y-13993984D01*
X3724943Y-13993984D02*
X3848753Y-13993984D01*
X3972562Y-13793984D02*
X3991610Y-13793984D01*
X3991610Y-13793984D02*
X4010658Y-13803508D01*
X4010658Y-13803508D02*
X4020182Y-13813031D01*
X4020182Y-13813031D02*
X4029705Y-13832079D01*
X4029705Y-13832079D02*
X4039229Y-13870174D01*
X4039229Y-13870174D02*
X4039229Y-13917793D01*
X4039229Y-13917793D02*
X4029705Y-13955888D01*
X4029705Y-13955888D02*
X4020182Y-13974936D01*
X4020182Y-13974936D02*
X4010658Y-13984460D01*
X4010658Y-13984460D02*
X3991610Y-13993984D01*
X3991610Y-13993984D02*
X3972562Y-13993984D01*
X3972562Y-13993984D02*
X3953515Y-13984460D01*
X3953515Y-13984460D02*
X3943991Y-13974936D01*
X3943991Y-13974936D02*
X3934467Y-13955888D01*
X3934467Y-13955888D02*
X3924943Y-13917793D01*
X3924943Y-13917793D02*
X3924943Y-13870174D01*
X3924943Y-13870174D02*
X3934467Y-13832079D01*
X3934467Y-13832079D02*
X3943991Y-13813031D01*
X3943991Y-13813031D02*
X3953515Y-13803508D01*
X3953515Y-13803508D02*
X3972562Y-13793984D01*
X4163039Y-13793984D02*
X4182086Y-13793984D01*
X4182086Y-13793984D02*
X4201134Y-13803508D01*
X4201134Y-13803508D02*
X4210658Y-13813031D01*
X4210658Y-13813031D02*
X4220182Y-13832079D01*
X4220182Y-13832079D02*
X4229705Y-13870174D01*
X4229705Y-13870174D02*
X4229705Y-13917793D01*
X4229705Y-13917793D02*
X4220182Y-13955888D01*
X4220182Y-13955888D02*
X4210658Y-13974936D01*
X4210658Y-13974936D02*
X4201134Y-13984460D01*
X4201134Y-13984460D02*
X4182086Y-13993984D01*
X4182086Y-13993984D02*
X4163039Y-13993984D01*
X4163039Y-13993984D02*
X4143991Y-13984460D01*
X4143991Y-13984460D02*
X4134467Y-13974936D01*
X4134467Y-13974936D02*
X4124943Y-13955888D01*
X4124943Y-13955888D02*
X4115420Y-13917793D01*
X4115420Y-13917793D02*
X4115420Y-13870174D01*
X4115420Y-13870174D02*
X4124943Y-13832079D01*
X4124943Y-13832079D02*
X4134467Y-13813031D01*
X4134467Y-13813031D02*
X4143991Y-13803508D01*
X4143991Y-13803508D02*
X4163039Y-13793984D01*
X4315420Y-13993984D02*
X4315420Y-13860650D01*
X4315420Y-13879698D02*
X4324944Y-13870174D01*
X4324944Y-13870174D02*
X4343991Y-13860650D01*
X4343991Y-13860650D02*
X4372563Y-13860650D01*
X4372563Y-13860650D02*
X4391610Y-13870174D01*
X4391610Y-13870174D02*
X4401134Y-13889222D01*
X4401134Y-13889222D02*
X4401134Y-13993984D01*
X4401134Y-13889222D02*
X4410658Y-13870174D01*
X4410658Y-13870174D02*
X4429705Y-13860650D01*
X4429705Y-13860650D02*
X4458277Y-13860650D01*
X4458277Y-13860650D02*
X4477325Y-13870174D01*
X4477325Y-13870174D02*
X4486848Y-13889222D01*
X4486848Y-13889222D02*
X4486848Y-13993984D01*
X4582086Y-13993984D02*
X4582086Y-13860650D01*
X4582086Y-13879698D02*
X4591610Y-13870174D01*
X4591610Y-13870174D02*
X4610658Y-13860650D01*
X4610658Y-13860650D02*
X4639229Y-13860650D01*
X4639229Y-13860650D02*
X4658277Y-13870174D01*
X4658277Y-13870174D02*
X4667801Y-13889222D01*
X4667801Y-13889222D02*
X4667801Y-13993984D01*
X4667801Y-13889222D02*
X4677325Y-13870174D01*
X4677325Y-13870174D02*
X4696372Y-13860650D01*
X4696372Y-13860650D02*
X4724944Y-13860650D01*
X4724944Y-13860650D02*
X4743991Y-13870174D01*
X4743991Y-13870174D02*
X4753515Y-13889222D01*
X4753515Y-13889222D02*
X4753515Y-13993984D01*
X5143991Y-13784460D02*
X4972563Y-14041603D01*
X5401134Y-13793984D02*
X5420182Y-13793984D01*
X5420182Y-13793984D02*
X5439229Y-13803508D01*
X5439229Y-13803508D02*
X5448753Y-13813031D01*
X5448753Y-13813031D02*
X5458277Y-13832079D01*
X5458277Y-13832079D02*
X5467801Y-13870174D01*
X5467801Y-13870174D02*
X5467801Y-13917793D01*
X5467801Y-13917793D02*
X5458277Y-13955888D01*
X5458277Y-13955888D02*
X5448753Y-13974936D01*
X5448753Y-13974936D02*
X5439229Y-13984460D01*
X5439229Y-13984460D02*
X5420182Y-13993984D01*
X5420182Y-13993984D02*
X5401134Y-13993984D01*
X5401134Y-13993984D02*
X5382087Y-13984460D01*
X5382087Y-13984460D02*
X5372563Y-13974936D01*
X5372563Y-13974936D02*
X5363039Y-13955888D01*
X5363039Y-13955888D02*
X5353515Y-13917793D01*
X5353515Y-13917793D02*
X5353515Y-13870174D01*
X5353515Y-13870174D02*
X5363039Y-13832079D01*
X5363039Y-13832079D02*
X5372563Y-13813031D01*
X5372563Y-13813031D02*
X5382087Y-13803508D01*
X5382087Y-13803508D02*
X5401134Y-13793984D01*
X5553515Y-13974936D02*
X5563039Y-13984460D01*
X5563039Y-13984460D02*
X5553515Y-13993984D01*
X5553515Y-13993984D02*
X5543991Y-13984460D01*
X5543991Y-13984460D02*
X5553515Y-13974936D01*
X5553515Y-13974936D02*
X5553515Y-13993984D01*
X5753515Y-13993984D02*
X5639229Y-13993984D01*
X5696372Y-13993984D02*
X5696372Y-13793984D01*
X5696372Y-13793984D02*
X5677325Y-13822555D01*
X5677325Y-13822555D02*
X5658277Y-13841603D01*
X5658277Y-13841603D02*
X5639229Y-13851127D01*
X5829706Y-13813031D02*
X5839229Y-13803508D01*
X5839229Y-13803508D02*
X5858277Y-13793984D01*
X5858277Y-13793984D02*
X5905896Y-13793984D01*
X5905896Y-13793984D02*
X5924944Y-13803508D01*
X5924944Y-13803508D02*
X5934467Y-13813031D01*
X5934467Y-13813031D02*
X5943991Y-13832079D01*
X5943991Y-13832079D02*
X5943991Y-13851127D01*
X5943991Y-13851127D02*
X5934467Y-13879698D01*
X5934467Y-13879698D02*
X5820182Y-13993984D01*
X5820182Y-13993984D02*
X5943991Y-13993984D01*
X6115420Y-13793984D02*
X6077325Y-13793984D01*
X6077325Y-13793984D02*
X6058277Y-13803508D01*
X6058277Y-13803508D02*
X6048753Y-13813031D01*
X6048753Y-13813031D02*
X6029706Y-13841603D01*
X6029706Y-13841603D02*
X6020182Y-13879698D01*
X6020182Y-13879698D02*
X6020182Y-13955888D01*
X6020182Y-13955888D02*
X6029706Y-13974936D01*
X6029706Y-13974936D02*
X6039229Y-13984460D01*
X6039229Y-13984460D02*
X6058277Y-13993984D01*
X6058277Y-13993984D02*
X6096372Y-13993984D01*
X6096372Y-13993984D02*
X6115420Y-13984460D01*
X6115420Y-13984460D02*
X6124944Y-13974936D01*
X6124944Y-13974936D02*
X6134467Y-13955888D01*
X6134467Y-13955888D02*
X6134467Y-13908269D01*
X6134467Y-13908269D02*
X6124944Y-13889222D01*
X6124944Y-13889222D02*
X6115420Y-13879698D01*
X6115420Y-13879698D02*
X6096372Y-13870174D01*
X6096372Y-13870174D02*
X6058277Y-13870174D01*
X6058277Y-13870174D02*
X6039229Y-13879698D01*
X6039229Y-13879698D02*
X6029706Y-13889222D01*
X6029706Y-13889222D02*
X6020182Y-13908269D01*
X6258277Y-13793984D02*
X6277325Y-13793984D01*
X6277325Y-13793984D02*
X6296372Y-13803508D01*
X6296372Y-13803508D02*
X6305896Y-13813031D01*
X6305896Y-13813031D02*
X6315420Y-13832079D01*
X6315420Y-13832079D02*
X6324944Y-13870174D01*
X6324944Y-13870174D02*
X6324944Y-13917793D01*
X6324944Y-13917793D02*
X6315420Y-13955888D01*
X6315420Y-13955888D02*
X6305896Y-13974936D01*
X6305896Y-13974936D02*
X6296372Y-13984460D01*
X6296372Y-13984460D02*
X6277325Y-13993984D01*
X6277325Y-13993984D02*
X6258277Y-13993984D01*
X6258277Y-13993984D02*
X6239229Y-13984460D01*
X6239229Y-13984460D02*
X6229706Y-13974936D01*
X6229706Y-13974936D02*
X6220182Y-13955888D01*
X6220182Y-13955888D02*
X6210658Y-13917793D01*
X6210658Y-13917793D02*
X6210658Y-13870174D01*
X6210658Y-13870174D02*
X6220182Y-13832079D01*
X6220182Y-13832079D02*
X6229706Y-13813031D01*
X6229706Y-13813031D02*
X6239229Y-13803508D01*
X6239229Y-13803508D02*
X6258277Y-13793984D01*
X6401134Y-13793984D02*
X6401134Y-13832079D01*
X6477325Y-13793984D02*
X6477325Y-13832079D01*
X6772563Y-14070174D02*
X6763039Y-14060650D01*
X6763039Y-14060650D02*
X6743991Y-14032079D01*
X6743991Y-14032079D02*
X6734468Y-14013031D01*
X6734468Y-14013031D02*
X6724944Y-13984460D01*
X6724944Y-13984460D02*
X6715420Y-13936841D01*
X6715420Y-13936841D02*
X6715420Y-13898746D01*
X6715420Y-13898746D02*
X6724944Y-13851127D01*
X6724944Y-13851127D02*
X6734468Y-13822555D01*
X6734468Y-13822555D02*
X6743991Y-13803508D01*
X6743991Y-13803508D02*
X6763039Y-13774936D01*
X6763039Y-13774936D02*
X6772563Y-13765412D01*
X6877325Y-13879698D02*
X6858277Y-13870174D01*
X6858277Y-13870174D02*
X6848753Y-13860650D01*
X6848753Y-13860650D02*
X6839229Y-13841603D01*
X6839229Y-13841603D02*
X6839229Y-13832079D01*
X6839229Y-13832079D02*
X6848753Y-13813031D01*
X6848753Y-13813031D02*
X6858277Y-13803508D01*
X6858277Y-13803508D02*
X6877325Y-13793984D01*
X6877325Y-13793984D02*
X6915420Y-13793984D01*
X6915420Y-13793984D02*
X6934468Y-13803508D01*
X6934468Y-13803508D02*
X6943991Y-13813031D01*
X6943991Y-13813031D02*
X6953515Y-13832079D01*
X6953515Y-13832079D02*
X6953515Y-13841603D01*
X6953515Y-13841603D02*
X6943991Y-13860650D01*
X6943991Y-13860650D02*
X6934468Y-13870174D01*
X6934468Y-13870174D02*
X6915420Y-13879698D01*
X6915420Y-13879698D02*
X6877325Y-13879698D01*
X6877325Y-13879698D02*
X6858277Y-13889222D01*
X6858277Y-13889222D02*
X6848753Y-13898746D01*
X6848753Y-13898746D02*
X6839229Y-13917793D01*
X6839229Y-13917793D02*
X6839229Y-13955888D01*
X6839229Y-13955888D02*
X6848753Y-13974936D01*
X6848753Y-13974936D02*
X6858277Y-13984460D01*
X6858277Y-13984460D02*
X6877325Y-13993984D01*
X6877325Y-13993984D02*
X6915420Y-13993984D01*
X6915420Y-13993984D02*
X6934468Y-13984460D01*
X6934468Y-13984460D02*
X6943991Y-13974936D01*
X6943991Y-13974936D02*
X6953515Y-13955888D01*
X6953515Y-13955888D02*
X6953515Y-13917793D01*
X6953515Y-13917793D02*
X6943991Y-13898746D01*
X6943991Y-13898746D02*
X6934468Y-13889222D01*
X6934468Y-13889222D02*
X6915420Y-13879698D01*
X7191610Y-13993984D02*
X7191610Y-13793984D01*
X7277325Y-13993984D02*
X7277325Y-13889222D01*
X7277325Y-13889222D02*
X7267801Y-13870174D01*
X7267801Y-13870174D02*
X7248753Y-13860650D01*
X7248753Y-13860650D02*
X7220182Y-13860650D01*
X7220182Y-13860650D02*
X7201134Y-13870174D01*
X7201134Y-13870174D02*
X7191610Y-13879698D01*
X7401134Y-13993984D02*
X7382087Y-13984460D01*
X7382087Y-13984460D02*
X7372563Y-13974936D01*
X7372563Y-13974936D02*
X7363039Y-13955888D01*
X7363039Y-13955888D02*
X7363039Y-13898746D01*
X7363039Y-13898746D02*
X7372563Y-13879698D01*
X7372563Y-13879698D02*
X7382087Y-13870174D01*
X7382087Y-13870174D02*
X7401134Y-13860650D01*
X7401134Y-13860650D02*
X7429706Y-13860650D01*
X7429706Y-13860650D02*
X7448753Y-13870174D01*
X7448753Y-13870174D02*
X7458277Y-13879698D01*
X7458277Y-13879698D02*
X7467801Y-13898746D01*
X7467801Y-13898746D02*
X7467801Y-13955888D01*
X7467801Y-13955888D02*
X7458277Y-13974936D01*
X7458277Y-13974936D02*
X7448753Y-13984460D01*
X7448753Y-13984460D02*
X7429706Y-13993984D01*
X7429706Y-13993984D02*
X7401134Y-13993984D01*
X7582087Y-13993984D02*
X7563039Y-13984460D01*
X7563039Y-13984460D02*
X7553515Y-13965412D01*
X7553515Y-13965412D02*
X7553515Y-13793984D01*
X7734468Y-13984460D02*
X7715420Y-13993984D01*
X7715420Y-13993984D02*
X7677325Y-13993984D01*
X7677325Y-13993984D02*
X7658277Y-13984460D01*
X7658277Y-13984460D02*
X7648753Y-13965412D01*
X7648753Y-13965412D02*
X7648753Y-13889222D01*
X7648753Y-13889222D02*
X7658277Y-13870174D01*
X7658277Y-13870174D02*
X7677325Y-13860650D01*
X7677325Y-13860650D02*
X7715420Y-13860650D01*
X7715420Y-13860650D02*
X7734468Y-13870174D01*
X7734468Y-13870174D02*
X7743991Y-13889222D01*
X7743991Y-13889222D02*
X7743991Y-13908269D01*
X7743991Y-13908269D02*
X7648753Y-13927317D01*
X7820182Y-13984460D02*
X7839230Y-13993984D01*
X7839230Y-13993984D02*
X7877325Y-13993984D01*
X7877325Y-13993984D02*
X7896372Y-13984460D01*
X7896372Y-13984460D02*
X7905896Y-13965412D01*
X7905896Y-13965412D02*
X7905896Y-13955888D01*
X7905896Y-13955888D02*
X7896372Y-13936841D01*
X7896372Y-13936841D02*
X7877325Y-13927317D01*
X7877325Y-13927317D02*
X7848753Y-13927317D01*
X7848753Y-13927317D02*
X7829706Y-13917793D01*
X7829706Y-13917793D02*
X7820182Y-13898746D01*
X7820182Y-13898746D02*
X7820182Y-13889222D01*
X7820182Y-13889222D02*
X7829706Y-13870174D01*
X7829706Y-13870174D02*
X7848753Y-13860650D01*
X7848753Y-13860650D02*
X7877325Y-13860650D01*
X7877325Y-13860650D02*
X7896372Y-13870174D01*
X7972563Y-14070174D02*
X7982087Y-14060650D01*
X7982087Y-14060650D02*
X8001134Y-14032079D01*
X8001134Y-14032079D02*
X8010658Y-14013031D01*
X8010658Y-14013031D02*
X8020182Y-13984460D01*
X8020182Y-13984460D02*
X8029706Y-13936841D01*
X8029706Y-13936841D02*
X8029706Y-13898746D01*
X8029706Y-13898746D02*
X8020182Y-13851127D01*
X8020182Y-13851127D02*
X8010658Y-13822555D01*
X8010658Y-13822555D02*
X8001134Y-13803508D01*
X8001134Y-13803508D02*
X7982087Y-13774936D01*
X7982087Y-13774936D02*
X7972563Y-13765412D01*
M02*
