%TF.GenerationSoftware,KiCad,Pcbnew,8.0.5-8.0.5-0~ubuntu24.04.1*%
%TF.CreationDate,2024-10-15T10:42:27+02:00*%
%TF.ProjectId,diplexer,6469706c-6578-4657-922e-6b696361645f,rev?*%
%TF.SameCoordinates,Original*%
%TF.FileFunction,Copper,L1,Top*%
%TF.FilePolarity,Positive*%
%FSLAX46Y46*%
G04 Gerber Fmt 4.6, Leading zero omitted, Abs format (unit mm)*
G04 Created by KiCad (PCBNEW 8.0.5-8.0.5-0~ubuntu24.04.1) date 2024-10-15 10:42:27*
%MOMM*%
%LPD*%
G01*
G04 APERTURE LIST*
%TA.AperFunction,SMDPad,CuDef*%
%ADD10R,1.780000X1.780000*%
%TD*%
%TA.AperFunction,ComponentPad*%
%ADD11C,3.000000*%
%TD*%
%TA.AperFunction,ComponentPad*%
%ADD12C,5.600000*%
%TD*%
%TA.AperFunction,SMDPad,CuDef*%
%ADD13R,5.000000X5.000000*%
%TD*%
%TA.AperFunction,SMDPad,CuDef*%
%ADD14R,4.000000X4.000000*%
%TD*%
%TA.AperFunction,Conductor*%
%ADD15C,2.390000*%
%TD*%
%TA.AperFunction,Conductor*%
%ADD16C,2.700000*%
%TD*%
%TA.AperFunction,Conductor*%
%ADD17C,1.779800*%
%TD*%
G04 APERTURE END LIST*
D10*
%TO.P,C17,1*%
%TO.N,Net-(C17-Pad1)*%
X90100000Y-83300000D03*
%TO.P,C17,2*%
%TO.N,GND*%
X90100000Y-87800000D03*
%TD*%
D11*
%TO.P,L10,1,1*%
%TO.N,Net-(J1-In)*%
X44987500Y-83500000D03*
%TO.P,L10,2,2*%
%TO.N,Net-(C16-Pad1)*%
X59587500Y-83500000D03*
%TD*%
D10*
%TO.P,C6,1*%
%TO.N,GND*%
X63900000Y-87590000D03*
%TO.P,C6,2*%
%TO.N,Net-(C16-Pad1)*%
X63900000Y-83090000D03*
%TD*%
%TO.P,C14,1*%
%TO.N,Net-(C13-Pad2)*%
X117300000Y-48900000D03*
%TO.P,C14,2*%
%TO.N,Net-(C14-Pad2)*%
X121800000Y-48900000D03*
%TD*%
%TO.P,C4,1*%
%TO.N,Net-(C13-Pad2)*%
X117300000Y-54340000D03*
%TO.P,C4,2*%
%TO.N,Net-(C14-Pad2)*%
X121800000Y-54340000D03*
%TD*%
D12*
%TO.P,J5,1,Pin_1*%
%TO.N,GND*%
X36000000Y-33000000D03*
%TD*%
D10*
%TO.P,C19,1*%
%TO.N,Net-(C19-Pad1)*%
X140100000Y-81300000D03*
%TO.P,C19,2*%
%TO.N,GND*%
X140100000Y-85800000D03*
%TD*%
D11*
%TO.P,L2,1,1*%
%TO.N,Net-(C12-Pad2)*%
X76840000Y-43440000D03*
%TO.P,L2,2,2*%
%TO.N,GND*%
X91440000Y-43440000D03*
%TD*%
D13*
%TO.P,J3,1,In*%
%TO.N,Net-(J3-In)*%
X183500000Y-80350000D03*
%TO.P,J3,2,Ext*%
%TO.N,GND*%
X183500000Y-89460000D03*
%TO.P,J3,3*%
X183500000Y-71250000D03*
%TD*%
D11*
%TO.P,L4,1,1*%
%TO.N,Net-(C14-Pad2)*%
X126487500Y-43440000D03*
%TO.P,L4,2,2*%
%TO.N,GND*%
X141087500Y-43440000D03*
%TD*%
D14*
%TO.P,J2,1,In*%
%TO.N,Net-(J2-In)*%
X176000000Y-49390000D03*
%TO.P,J2,2,Ext*%
%TO.N,GND*%
X185000000Y-43040000D03*
%TO.P,J2,3*%
X185000000Y-55740000D03*
%TD*%
D10*
%TO.P,C13,1*%
%TO.N,Net-(C12-Pad2)*%
X96300000Y-48900000D03*
%TO.P,C13,2*%
%TO.N,Net-(C13-Pad2)*%
X100800000Y-48900000D03*
%TD*%
D11*
%TO.P,L6,1,1*%
%TO.N,Net-(C19-Pad1)*%
X144487500Y-80000000D03*
%TO.P,L6,2,2*%
%TO.N,Net-(J3-In)*%
X159087500Y-80000000D03*
%TD*%
D12*
%TO.P,J7,1,Pin_1*%
%TO.N,GND*%
X185000000Y-33000000D03*
%TD*%
D11*
%TO.P,L7,1,1*%
%TO.N,Net-(C18-Pad1)*%
X127500000Y-90512500D03*
%TO.P,L7,2,2*%
%TO.N,Net-(C19-Pad1)*%
X127500000Y-75912500D03*
%TD*%
D10*
%TO.P,C1,1*%
%TO.N,Net-(J1-In)*%
X48300000Y-54340000D03*
%TO.P,C1,2*%
%TO.N,Net-(C1-Pad2)*%
X52800000Y-54340000D03*
%TD*%
%TO.P,C7,1*%
%TO.N,GND*%
X86000000Y-87590000D03*
%TO.P,C7,2*%
%TO.N,Net-(C17-Pad1)*%
X86000000Y-83090000D03*
%TD*%
D11*
%TO.P,L9,1,1*%
%TO.N,Net-(C16-Pad1)*%
X77000000Y-91600000D03*
%TO.P,L9,2,2*%
%TO.N,Net-(C17-Pad1)*%
X77000000Y-77000000D03*
%TD*%
D12*
%TO.P,J11,1,Pin_1*%
%TO.N,GND*%
X185000000Y-65000000D03*
%TD*%
%TO.P,J10,1,Pin_1*%
%TO.N,GND*%
X134000000Y-65000000D03*
%TD*%
%TO.P,J8,1,Pin_1*%
%TO.N,GND*%
X50000000Y-65000000D03*
%TD*%
D11*
%TO.P,L8,1,1*%
%TO.N,Net-(C17-Pad1)*%
X94487500Y-81000000D03*
%TO.P,L8,2,2*%
%TO.N,Net-(C18-Pad1)*%
X109087500Y-81000000D03*
%TD*%
D10*
%TO.P,C15,1*%
%TO.N,Net-(C14-Pad2)*%
X145300000Y-49900000D03*
%TO.P,C15,2*%
%TO.N,Net-(J2-In)*%
X149800000Y-49900000D03*
%TD*%
%TO.P,C20,1*%
%TO.N,Net-(J3-In)*%
X169600000Y-80825000D03*
%TO.P,C20,2*%
%TO.N,GND*%
X169600000Y-85325000D03*
%TD*%
%TO.P,C11,1*%
%TO.N,Net-(J1-In)*%
X48500000Y-49000000D03*
%TO.P,C11,2*%
%TO.N,Net-(C1-Pad2)*%
X53000000Y-49000000D03*
%TD*%
D11*
%TO.P,L1,1,1*%
%TO.N,Net-(C1-Pad2)*%
X60000000Y-53600000D03*
%TO.P,L1,2,2*%
%TO.N,GND*%
X60000000Y-39000000D03*
%TD*%
D13*
%TO.P,J1,1,In*%
%TO.N,Net-(J1-In)*%
X37500000Y-65610000D03*
%TO.P,J1,2,Ext*%
%TO.N,GND*%
X37500000Y-56500000D03*
%TO.P,J1,3*%
X37500000Y-74710000D03*
%TD*%
D10*
%TO.P,C5,1*%
%TO.N,Net-(C14-Pad2)*%
X145410000Y-54340000D03*
%TO.P,C5,2*%
%TO.N,Net-(J2-In)*%
X149910000Y-54340000D03*
%TD*%
%TO.P,C10,1*%
%TO.N,GND*%
X164400000Y-85200000D03*
%TO.P,C10,2*%
%TO.N,Net-(J3-In)*%
X164400000Y-80700000D03*
%TD*%
D12*
%TO.P,J6,1,Pin_1*%
%TO.N,GND*%
X185000000Y-97000000D03*
%TD*%
D10*
%TO.P,C2,1*%
%TO.N,Net-(C1-Pad2)*%
X67300000Y-54340000D03*
%TO.P,C2,2*%
%TO.N,Net-(C12-Pad2)*%
X71800000Y-54340000D03*
%TD*%
%TO.P,C18,1*%
%TO.N,Net-(C18-Pad1)*%
X119100000Y-81300000D03*
%TO.P,C18,2*%
%TO.N,GND*%
X119100000Y-85800000D03*
%TD*%
%TO.P,C8,1*%
%TO.N,GND*%
X114900000Y-85700000D03*
%TO.P,C8,2*%
%TO.N,Net-(C18-Pad1)*%
X114900000Y-81200000D03*
%TD*%
%TO.P,C9,1*%
%TO.N,GND*%
X135900000Y-85590000D03*
%TO.P,C9,2*%
%TO.N,Net-(C19-Pad1)*%
X135900000Y-81090000D03*
%TD*%
%TO.P,C12,1*%
%TO.N,Net-(C1-Pad2)*%
X67300000Y-48900000D03*
%TO.P,C12,2*%
%TO.N,Net-(C12-Pad2)*%
X71800000Y-48900000D03*
%TD*%
D11*
%TO.P,L5,1,1*%
%TO.N,Net-(J2-In)*%
X158000000Y-52512500D03*
%TO.P,L5,2,2*%
%TO.N,GND*%
X158000000Y-37912500D03*
%TD*%
D10*
%TO.P,C16,1*%
%TO.N,Net-(C16-Pad1)*%
X68100000Y-83300000D03*
%TO.P,C16,2*%
%TO.N,GND*%
X68100000Y-87800000D03*
%TD*%
D11*
%TO.P,L3,1,1*%
%TO.N,Net-(C13-Pad2)*%
X110000000Y-53600000D03*
%TO.P,L3,2,2*%
%TO.N,GND*%
X110000000Y-39000000D03*
%TD*%
D10*
%TO.P,C3,1*%
%TO.N,Net-(C12-Pad2)*%
X96410000Y-54340000D03*
%TO.P,C3,2*%
%TO.N,Net-(C13-Pad2)*%
X100910000Y-54340000D03*
%TD*%
D12*
%TO.P,J4,1,Pin_1*%
%TO.N,GND*%
X36000000Y-97000000D03*
%TD*%
%TO.P,J9,1,Pin_1*%
%TO.N,GND*%
X96000000Y-65000000D03*
%TD*%
D15*
%TO.N,Net-(C12-Pad2)*%
X76840000Y-43440000D02*
X75766700Y-44513300D01*
X75766700Y-44513300D02*
X71800000Y-44513300D01*
X71800000Y-44513300D02*
X71800000Y-48900000D01*
D16*
%TO.N,Net-(J1-In)*%
X37500000Y-65610000D02*
X42886700Y-65610000D01*
X42886700Y-65610000D02*
X42996700Y-65500000D01*
D15*
%TO.N,Net-(C16-Pad1)*%
X68100000Y-83300000D02*
X67890000Y-83090000D01*
X67890000Y-83090000D02*
X59997500Y-83090000D01*
X59997500Y-83090000D02*
X59587500Y-83500000D01*
%TO.N,Net-(J1-In)*%
X44987500Y-83500000D02*
X42996700Y-81509200D01*
X42996700Y-81509200D02*
X42996700Y-65500000D01*
X42996700Y-65500000D02*
X42996700Y-57195800D01*
%TO.N,Net-(C1-Pad2)*%
X62173300Y-53600000D02*
X62913300Y-54340000D01*
X53540000Y-53600000D02*
X56770000Y-53600000D01*
X67300000Y-54340000D02*
X62913300Y-54340000D01*
X56770000Y-53600000D02*
X60000000Y-53600000D01*
D17*
X52800000Y-54340000D02*
X52800000Y-49200000D01*
D15*
X67300000Y-54340000D02*
X67300000Y-48900000D01*
D17*
X53540000Y-53600000D02*
X52800000Y-54340000D01*
X52800000Y-49200000D02*
X53000000Y-49000000D01*
D15*
X60000000Y-53600000D02*
X62173300Y-53600000D01*
%TO.N,Net-(J1-In)*%
X48300000Y-49200000D02*
X48500000Y-49000000D01*
X48300000Y-54340000D02*
X48300000Y-49200000D01*
X48300000Y-54340000D02*
X45852500Y-54340000D01*
X42996700Y-57195800D02*
X45852500Y-54340000D01*
%TO.N,Net-(J3-In)*%
X159087500Y-80000000D02*
X159200400Y-80000000D01*
X173986700Y-80825000D02*
X169600000Y-80825000D01*
X164400000Y-80700000D02*
X160013300Y-80700000D01*
X159200400Y-80000000D02*
X168785200Y-80000000D01*
X174461700Y-80350000D02*
X173986700Y-80825000D01*
X159313300Y-80000000D02*
X160013300Y-80700000D01*
X159200400Y-80000000D02*
X159313300Y-80000000D01*
X169600000Y-80814800D02*
X169600000Y-80825000D01*
X185000000Y-80350000D02*
X174461700Y-80350000D01*
X168785200Y-80000000D02*
X169600000Y-80814800D01*
%TO.N,Net-(C12-Pad2)*%
X95343600Y-53273600D02*
X95343600Y-53273500D01*
D17*
X95343700Y-53273700D02*
X96410000Y-54340000D01*
X72866300Y-53273700D02*
X72479200Y-53660800D01*
X71800000Y-52981600D02*
X72479200Y-53660800D01*
X72479200Y-53660800D02*
X71800000Y-54340000D01*
X95635500Y-52981600D02*
X95343600Y-53273500D01*
X96300000Y-48900000D02*
X96300000Y-52981600D01*
X96300000Y-52981600D02*
X95635500Y-52981600D01*
D15*
X95343700Y-53273700D02*
X95343600Y-53273600D01*
X72866400Y-53273600D02*
X95343600Y-53273600D01*
X72866300Y-53273700D02*
X72866400Y-53273600D01*
D17*
X71800000Y-48900000D02*
X71800000Y-52981600D01*
D15*
%TO.N,Net-(C13-Pad2)*%
X109260000Y-53600000D02*
X105186700Y-49526700D01*
X104760100Y-49953300D02*
X105186700Y-49526700D01*
X100910000Y-54340000D02*
X100910000Y-49953300D01*
X100800000Y-48900000D02*
X105186700Y-48900000D01*
X105186700Y-49213300D02*
X105186700Y-48900000D01*
X117300000Y-54340000D02*
X117300000Y-48900000D01*
X110000000Y-53600000D02*
X109260000Y-53600000D01*
X105186700Y-49526700D02*
X105186700Y-49213300D01*
X117300000Y-54340000D02*
X112913300Y-54340000D01*
X110000000Y-53600000D02*
X112173300Y-53600000D01*
D17*
X116986700Y-49213300D02*
X117300000Y-48900000D01*
D15*
X112173300Y-53600000D02*
X112913300Y-54340000D01*
D17*
%TO.N,Net-(C14-Pad2)*%
X145300000Y-49900000D02*
X132947500Y-49900000D01*
X121800000Y-48900000D02*
X121800000Y-52981600D01*
D15*
X126487500Y-43440000D02*
X125414200Y-44513300D01*
D17*
X121800000Y-52981600D02*
X121800000Y-54340000D01*
D15*
X125414200Y-44513300D02*
X121800000Y-44513300D01*
D17*
X145300000Y-49900000D02*
X145300000Y-53981600D01*
X145300000Y-54230000D02*
X145410000Y-54340000D01*
X132947500Y-49900000D02*
X126487500Y-43440000D01*
D15*
X121800000Y-48900000D02*
X121800000Y-44513300D01*
D17*
X145300000Y-53981600D02*
X145300000Y-54230000D01*
D15*
%TO.N,Net-(C16-Pad1)*%
X71800000Y-83300000D02*
X77000000Y-88500000D01*
X77000000Y-88500000D02*
X77000000Y-91600000D01*
X68100000Y-83300000D02*
X71800000Y-83300000D01*
%TO.N,Net-(C17-Pad1)*%
X77000000Y-77000000D02*
X81613300Y-81613300D01*
X94487500Y-81000000D02*
X94486700Y-81000800D01*
X81613300Y-81613300D02*
X81613300Y-83090000D01*
X86000000Y-83090000D02*
X89890000Y-83090000D01*
X89890000Y-83090000D02*
X90100000Y-83300000D01*
X83806700Y-83090000D02*
X86000000Y-83090000D01*
X83806700Y-83090000D02*
X81613300Y-83090000D01*
X94486700Y-81000800D02*
X94486700Y-83300000D01*
X90100000Y-83300000D02*
X94486700Y-83300000D01*
D16*
%TO.N,Net-(C18-Pad1)*%
X127500000Y-86000000D02*
X122800000Y-81300000D01*
D15*
X119100000Y-81300000D02*
X115000000Y-81300000D01*
X109087500Y-81000000D02*
X110313300Y-81000000D01*
X114900000Y-81200000D02*
X110513300Y-81200000D01*
X110313300Y-81000000D02*
X110513300Y-81200000D01*
D16*
X127500000Y-90512500D02*
X127500000Y-86000000D01*
D15*
X115000000Y-81300000D02*
X114900000Y-81200000D01*
D16*
X122800000Y-81300000D02*
X119100000Y-81300000D01*
D15*
%TO.N,Net-(C19-Pad1)*%
X135900000Y-81090000D02*
X139890000Y-81090000D01*
X144486700Y-80000800D02*
X144486700Y-81300000D01*
X131513300Y-79925800D02*
X131513300Y-81090000D01*
X127500000Y-75912500D02*
X131513300Y-79925800D01*
X133706700Y-81090000D02*
X131513300Y-81090000D01*
X140100000Y-81300000D02*
X144486700Y-81300000D01*
X144487500Y-80000000D02*
X144486700Y-80000800D01*
X133706700Y-81090000D02*
X135900000Y-81090000D01*
X139890000Y-81090000D02*
X140100000Y-81300000D01*
%TO.N,Net-(J2-In)*%
X149800000Y-49900000D02*
X154186700Y-49900000D01*
X159512500Y-51000000D02*
X158000000Y-52512500D01*
X158000000Y-52512500D02*
X155387500Y-49900000D01*
X149910000Y-54340000D02*
X149910000Y-50010000D01*
X173390000Y-51000000D02*
X159512500Y-51000000D01*
X175000000Y-49390000D02*
X173390000Y-51000000D01*
X149910000Y-50010000D02*
X149800000Y-49900000D01*
X155387500Y-49900000D02*
X154186700Y-49900000D01*
%TD*%
%TA.AperFunction,Conductor*%
%TO.N,GND*%
G36*
X188442539Y-29520185D02*
G01*
X188488294Y-29572989D01*
X188499500Y-29624500D01*
X188499500Y-76731086D01*
X188479815Y-76798125D01*
X188427011Y-76843880D01*
X188357853Y-76853824D01*
X188294297Y-76824799D01*
X188261698Y-76780332D01*
X188232367Y-76712552D01*
X188207021Y-76669694D01*
X188072204Y-76441732D01*
X188072197Y-76441722D01*
X187879362Y-76193120D01*
X187656879Y-75970637D01*
X187408277Y-75777802D01*
X187408271Y-75777798D01*
X187408268Y-75777796D01*
X187239345Y-75677894D01*
X187137447Y-75617632D01*
X186911600Y-75519900D01*
X186848689Y-75492676D01*
X186848687Y-75492675D01*
X186848684Y-75492674D01*
X186546551Y-75404895D01*
X186546543Y-75404893D01*
X186235782Y-75355674D01*
X186104844Y-75349500D01*
X186104840Y-75349500D01*
X180895160Y-75349500D01*
X180895156Y-75349500D01*
X180764219Y-75355674D01*
X180764214Y-75355674D01*
X180453456Y-75404893D01*
X180453448Y-75404895D01*
X180151315Y-75492674D01*
X179862552Y-75617632D01*
X179701094Y-75713119D01*
X179591732Y-75777796D01*
X179591728Y-75777798D01*
X179591723Y-75777802D01*
X179591722Y-75777802D01*
X179343120Y-75970637D01*
X179343120Y-75970638D01*
X179120638Y-76193120D01*
X179120637Y-76193120D01*
X178927802Y-76441722D01*
X178927797Y-76441729D01*
X178837969Y-76593621D01*
X178786900Y-76641305D01*
X178731237Y-76654500D01*
X174280151Y-76654500D01*
X174247753Y-76657689D01*
X174247752Y-76657690D01*
X174194294Y-76662955D01*
X173918814Y-76690087D01*
X173918797Y-76690090D01*
X173621767Y-76749172D01*
X173621767Y-76749173D01*
X173562683Y-76760926D01*
X173562681Y-76760926D01*
X173562679Y-76760927D01*
X173457282Y-76792899D01*
X173215216Y-76866328D01*
X173018714Y-76947721D01*
X173018715Y-76947722D01*
X172879761Y-77005279D01*
X172879756Y-77005281D01*
X172674754Y-77114858D01*
X172616301Y-77129500D01*
X171157104Y-77129500D01*
X171090065Y-77109815D01*
X171078439Y-77101353D01*
X170989267Y-77028171D01*
X170989266Y-77028170D01*
X170989262Y-77028167D01*
X170687358Y-76826441D01*
X170687353Y-76826438D01*
X170687346Y-76826434D01*
X170367143Y-76655281D01*
X170367138Y-76655279D01*
X170365257Y-76654500D01*
X170218283Y-76593621D01*
X170031680Y-76516327D01*
X169684206Y-76410923D01*
X169684195Y-76410920D01*
X169328095Y-76340088D01*
X169055942Y-76313284D01*
X168966748Y-76304500D01*
X168966745Y-76304500D01*
X160655589Y-76304500D01*
X160613816Y-76297252D01*
X160250184Y-76167143D01*
X159868906Y-76071637D01*
X159868901Y-76071636D01*
X159868900Y-76071636D01*
X159724756Y-76050254D01*
X159480099Y-76013963D01*
X159480097Y-76013962D01*
X159480091Y-76013962D01*
X159087500Y-75994675D01*
X158694909Y-76013962D01*
X158694903Y-76013962D01*
X158694900Y-76013963D01*
X158306093Y-76071637D01*
X157924815Y-76167143D01*
X157554729Y-76299561D01*
X157554727Y-76299562D01*
X157199399Y-76467620D01*
X156862263Y-76669692D01*
X156546543Y-76903846D01*
X156255307Y-77167807D01*
X155991346Y-77459043D01*
X155757192Y-77774763D01*
X155555120Y-78111899D01*
X155387062Y-78467227D01*
X155387061Y-78467229D01*
X155254643Y-78837315D01*
X155159137Y-79218593D01*
X155101894Y-79604500D01*
X155101462Y-79607409D01*
X155082175Y-80000000D01*
X155101462Y-80392591D01*
X155101462Y-80392597D01*
X155101463Y-80392599D01*
X155122197Y-80532379D01*
X155147126Y-80700438D01*
X155159137Y-80781406D01*
X155254643Y-81162684D01*
X155387061Y-81532770D01*
X155387062Y-81532772D01*
X155555120Y-81888100D01*
X155757192Y-82225236D01*
X155757194Y-82225239D01*
X155887535Y-82400984D01*
X155991346Y-82540956D01*
X156255307Y-82832192D01*
X156546543Y-83096153D01*
X156546549Y-83096158D01*
X156862261Y-83330306D01*
X156862263Y-83330307D01*
X157199399Y-83532379D01*
X157199402Y-83532380D01*
X157199403Y-83532381D01*
X157554728Y-83700438D01*
X157924816Y-83832857D01*
X158117326Y-83881078D01*
X158145649Y-83892004D01*
X158238226Y-83941487D01*
X158431357Y-84044718D01*
X158431359Y-84044718D01*
X158431365Y-84044722D01*
X158766822Y-84183673D01*
X159008882Y-84257100D01*
X159114283Y-84289074D01*
X159114289Y-84289075D01*
X159114292Y-84289076D01*
X159130458Y-84292291D01*
X159161531Y-84298472D01*
X159470404Y-84359911D01*
X159831752Y-84395500D01*
X159831755Y-84395500D01*
X164581545Y-84395500D01*
X164581548Y-84395500D01*
X164942896Y-84359911D01*
X165012221Y-84346121D01*
X165298995Y-84289079D01*
X165299006Y-84289076D01*
X165299006Y-84289075D01*
X165299016Y-84289074D01*
X165646478Y-84183673D01*
X165981935Y-84044722D01*
X166267936Y-83891850D01*
X166277097Y-83887428D01*
X166427448Y-83822367D01*
X166611926Y-83713267D01*
X166612770Y-83712768D01*
X166675891Y-83695500D01*
X167141053Y-83695500D01*
X167208092Y-83715185D01*
X167217053Y-83721521D01*
X167301722Y-83787197D01*
X167301726Y-83787199D01*
X167301732Y-83787204D01*
X167572552Y-83947367D01*
X167722891Y-84012424D01*
X167732081Y-84016860D01*
X167860823Y-84085674D01*
X168018057Y-84169718D01*
X168018059Y-84169718D01*
X168018065Y-84169722D01*
X168353522Y-84308673D01*
X168700984Y-84414074D01*
X168700990Y-84414075D01*
X168700993Y-84414076D01*
X168701004Y-84414079D01*
X169057104Y-84484911D01*
X169418452Y-84520500D01*
X169418455Y-84520500D01*
X174168245Y-84520500D01*
X174168248Y-84520500D01*
X174529596Y-84484911D01*
X174598921Y-84471121D01*
X174885695Y-84414079D01*
X174885706Y-84414076D01*
X174885706Y-84414075D01*
X174885716Y-84414074D01*
X175019277Y-84373559D01*
X175233179Y-84308673D01*
X175568636Y-84169722D01*
X175773645Y-84060141D01*
X175832098Y-84045500D01*
X178731237Y-84045500D01*
X178798276Y-84065185D01*
X178837969Y-84106379D01*
X178927797Y-84258270D01*
X178927802Y-84258277D01*
X179120637Y-84506879D01*
X179343120Y-84729362D01*
X179591722Y-84922197D01*
X179591726Y-84922199D01*
X179591732Y-84922204D01*
X179862552Y-85082367D01*
X180151311Y-85207324D01*
X180205419Y-85223043D01*
X180453448Y-85295104D01*
X180453456Y-85295106D01*
X180764217Y-85344325D01*
X180895156Y-85350500D01*
X180895160Y-85350500D01*
X186104844Y-85350500D01*
X186179664Y-85346971D01*
X186235783Y-85344325D01*
X186235785Y-85344325D01*
X186546543Y-85295106D01*
X186546551Y-85295104D01*
X186697617Y-85251214D01*
X186848689Y-85207324D01*
X187137448Y-85082367D01*
X187408268Y-84922204D01*
X187460183Y-84881935D01*
X187656879Y-84729362D01*
X187656880Y-84729362D01*
X187879362Y-84506880D01*
X187879362Y-84506879D01*
X188072197Y-84258277D01*
X188072204Y-84258268D01*
X188232367Y-83987448D01*
X188261698Y-83919665D01*
X188306388Y-83865959D01*
X188373021Y-83844938D01*
X188440440Y-83863278D01*
X188487242Y-83915157D01*
X188499500Y-83968913D01*
X188499500Y-100375500D01*
X188479815Y-100442539D01*
X188427011Y-100488294D01*
X188375500Y-100499500D01*
X32624500Y-100499500D01*
X32557461Y-100479815D01*
X32511706Y-100427011D01*
X32500500Y-100375500D01*
X32500500Y-69228913D01*
X32520185Y-69161874D01*
X32572989Y-69116119D01*
X32642147Y-69106175D01*
X32705703Y-69135200D01*
X32738302Y-69179667D01*
X32767632Y-69247447D01*
X32767633Y-69247448D01*
X32927796Y-69518268D01*
X32927801Y-69518274D01*
X32927802Y-69518276D01*
X32927802Y-69518277D01*
X33120637Y-69766879D01*
X33343120Y-69989362D01*
X33591722Y-70182197D01*
X33591726Y-70182199D01*
X33591732Y-70182204D01*
X33862552Y-70342367D01*
X34151311Y-70467324D01*
X34205419Y-70483043D01*
X34453448Y-70555104D01*
X34453456Y-70555106D01*
X34764217Y-70604325D01*
X34895156Y-70610500D01*
X34895160Y-70610500D01*
X39177200Y-70610500D01*
X39244239Y-70630185D01*
X39289994Y-70682989D01*
X39301200Y-70734500D01*
X39301200Y-81690744D01*
X39336788Y-82052095D01*
X39406184Y-82400973D01*
X39407623Y-82408204D01*
X39407627Y-82408219D01*
X39513027Y-82755680D01*
X39651979Y-83091138D01*
X39651981Y-83091143D01*
X39823134Y-83411346D01*
X39823145Y-83411364D01*
X40024861Y-83713253D01*
X40024871Y-83713267D01*
X40255217Y-83993944D01*
X41265580Y-85004306D01*
X41289992Y-85038967D01*
X41352054Y-85170185D01*
X41455120Y-85388100D01*
X41657192Y-85725236D01*
X41657194Y-85725239D01*
X41681872Y-85758514D01*
X41891346Y-86040956D01*
X42155307Y-86332192D01*
X42437571Y-86588021D01*
X42446549Y-86596158D01*
X42762261Y-86830306D01*
X42762263Y-86830307D01*
X43099399Y-87032379D01*
X43099402Y-87032380D01*
X43099403Y-87032381D01*
X43454728Y-87200438D01*
X43824816Y-87332857D01*
X44206100Y-87428364D01*
X44594909Y-87486038D01*
X44987500Y-87505325D01*
X45380091Y-87486038D01*
X45768900Y-87428364D01*
X46150184Y-87332857D01*
X46520272Y-87200438D01*
X46875597Y-87032381D01*
X47212739Y-86830306D01*
X47528451Y-86596158D01*
X47819692Y-86332192D01*
X48083658Y-86040951D01*
X48317806Y-85725239D01*
X48519881Y-85388097D01*
X48687938Y-85032772D01*
X48820357Y-84662684D01*
X48915864Y-84281400D01*
X48973538Y-83892591D01*
X48992825Y-83500000D01*
X55582175Y-83500000D01*
X55601462Y-83892591D01*
X55601462Y-83892597D01*
X55601463Y-83892599D01*
X55633174Y-84106379D01*
X55655531Y-84257100D01*
X55659137Y-84281406D01*
X55754643Y-84662684D01*
X55887061Y-85032770D01*
X55887062Y-85032772D01*
X56055120Y-85388100D01*
X56257192Y-85725236D01*
X56257194Y-85725239D01*
X56281872Y-85758514D01*
X56491346Y-86040956D01*
X56755307Y-86332192D01*
X57037571Y-86588021D01*
X57046549Y-86596158D01*
X57362261Y-86830306D01*
X57362263Y-86830307D01*
X57699399Y-87032379D01*
X57699402Y-87032380D01*
X57699403Y-87032381D01*
X58054728Y-87200438D01*
X58424816Y-87332857D01*
X58806100Y-87428364D01*
X59194909Y-87486038D01*
X59587500Y-87505325D01*
X59980091Y-87486038D01*
X60368900Y-87428364D01*
X60750184Y-87332857D01*
X61120272Y-87200438D01*
X61475597Y-87032381D01*
X61812739Y-86830306D01*
X61840251Y-86809901D01*
X61905823Y-86785778D01*
X61914117Y-86785500D01*
X66841149Y-86785500D01*
X66877144Y-86790839D01*
X67007254Y-86830307D01*
X67054774Y-86844722D01*
X67200984Y-86889074D01*
X67200990Y-86889075D01*
X67200993Y-86889076D01*
X67201004Y-86889079D01*
X67557104Y-86959911D01*
X67918452Y-86995500D01*
X70217912Y-86995500D01*
X70284951Y-87015185D01*
X70305593Y-87031819D01*
X73254958Y-89981184D01*
X73288443Y-90042507D01*
X73284029Y-90110639D01*
X73167143Y-90437315D01*
X73071637Y-90818593D01*
X73071636Y-90818600D01*
X73013962Y-91207409D01*
X72994675Y-91600000D01*
X73013962Y-91992591D01*
X73013962Y-91992597D01*
X73013963Y-91992599D01*
X73071637Y-92381406D01*
X73167143Y-92762684D01*
X73299561Y-93132770D01*
X73299562Y-93132772D01*
X73467620Y-93488100D01*
X73539877Y-93608653D01*
X73669694Y-93825239D01*
X73682723Y-93842807D01*
X73903846Y-94140956D01*
X74167807Y-94432192D01*
X74459043Y-94696153D01*
X74459049Y-94696158D01*
X74774761Y-94930306D01*
X74774763Y-94930307D01*
X75111899Y-95132379D01*
X75111902Y-95132380D01*
X75111903Y-95132381D01*
X75467228Y-95300438D01*
X75837316Y-95432857D01*
X76218600Y-95528364D01*
X76607409Y-95586038D01*
X77000000Y-95605325D01*
X77392591Y-95586038D01*
X77781400Y-95528364D01*
X78162684Y-95432857D01*
X78532772Y-95300438D01*
X78888097Y-95132381D01*
X79225239Y-94930306D01*
X79540951Y-94696158D01*
X79832192Y-94432192D01*
X80096158Y-94140951D01*
X80330306Y-93825239D01*
X80532381Y-93488097D01*
X80700438Y-93132772D01*
X80832857Y-92762684D01*
X80928364Y-92381400D01*
X80986038Y-91992591D01*
X81005325Y-91600000D01*
X80986038Y-91207409D01*
X80928364Y-90818600D01*
X80832857Y-90437316D01*
X80702747Y-90073683D01*
X80695500Y-90031911D01*
X80695500Y-88318455D01*
X80659911Y-87957104D01*
X80589079Y-87601004D01*
X80589076Y-87600993D01*
X80589075Y-87600990D01*
X80589074Y-87600984D01*
X80483673Y-87253522D01*
X80344722Y-86918065D01*
X80261857Y-86763036D01*
X80247616Y-86694636D01*
X80272616Y-86629392D01*
X80328921Y-86588021D01*
X80398654Y-86583659D01*
X80407189Y-86585918D01*
X80714284Y-86679074D01*
X80714290Y-86679075D01*
X80714293Y-86679076D01*
X80714304Y-86679079D01*
X81070404Y-86749911D01*
X81431752Y-86785500D01*
X83625152Y-86785500D01*
X85818452Y-86785500D01*
X88841149Y-86785500D01*
X88877144Y-86790839D01*
X89007254Y-86830307D01*
X89054774Y-86844722D01*
X89200984Y-86889074D01*
X89200990Y-86889075D01*
X89200993Y-86889076D01*
X89201004Y-86889079D01*
X89557104Y-86959911D01*
X89918452Y-86995500D01*
X89918455Y-86995500D01*
X94668245Y-86995500D01*
X94668248Y-86995500D01*
X95029596Y-86959911D01*
X95098921Y-86946121D01*
X95385695Y-86889079D01*
X95385706Y-86889076D01*
X95385706Y-86889075D01*
X95385716Y-86889074D01*
X95733178Y-86783673D01*
X96068635Y-86644722D01*
X96388858Y-86473559D01*
X96690762Y-86271833D01*
X96971439Y-86041487D01*
X97228187Y-85784739D01*
X97458533Y-85504062D01*
X97660259Y-85202158D01*
X97831422Y-84881935D01*
X97970373Y-84546478D01*
X98075774Y-84199016D01*
X98075776Y-84199006D01*
X98075779Y-84198995D01*
X98146611Y-83842895D01*
X98159378Y-83713267D01*
X98182200Y-83481548D01*
X98182200Y-82570325D01*
X98189448Y-82528551D01*
X98320357Y-82162684D01*
X98415864Y-81781400D01*
X98473538Y-81392591D01*
X98492825Y-81000000D01*
X105082175Y-81000000D01*
X105101462Y-81392591D01*
X105101462Y-81392597D01*
X105101463Y-81392599D01*
X105159137Y-81781406D01*
X105254643Y-82162684D01*
X105387061Y-82532770D01*
X105387062Y-82532772D01*
X105555120Y-82888100D01*
X105743360Y-83202158D01*
X105757194Y-83225239D01*
X105963983Y-83504062D01*
X105991346Y-83540956D01*
X106255307Y-83832192D01*
X106546543Y-84096153D01*
X106546549Y-84096158D01*
X106862261Y-84330306D01*
X106911654Y-84359911D01*
X107199399Y-84532379D01*
X107199402Y-84532380D01*
X107199403Y-84532381D01*
X107554728Y-84700438D01*
X107924816Y-84832857D01*
X108306100Y-84928364D01*
X108694909Y-84986038D01*
X109087500Y-85005325D01*
X109480091Y-84986038D01*
X109868900Y-84928364D01*
X110072833Y-84877280D01*
X110115105Y-84874162D01*
X110331752Y-84895500D01*
X110694848Y-84895500D01*
X114121076Y-84895500D01*
X114145265Y-84897882D01*
X114160067Y-84900826D01*
X114457104Y-84959911D01*
X114786052Y-84992309D01*
X114786051Y-84992309D01*
X114796851Y-84993372D01*
X114818451Y-84995500D01*
X114818452Y-84995500D01*
X117999471Y-84995500D01*
X118035464Y-85000838D01*
X118163276Y-85039610D01*
X118163282Y-85039611D01*
X118163285Y-85039612D01*
X118163296Y-85039615D01*
X118534333Y-85113418D01*
X118910837Y-85150500D01*
X121153709Y-85150500D01*
X121220748Y-85170185D01*
X121241390Y-85186819D01*
X123613181Y-87558610D01*
X123646666Y-87619933D01*
X123649500Y-87646291D01*
X123649500Y-89404955D01*
X123645784Y-89435085D01*
X123571637Y-89731093D01*
X123520819Y-90073685D01*
X123513962Y-90119909D01*
X123494675Y-90512500D01*
X123513962Y-90905091D01*
X123513962Y-90905097D01*
X123513963Y-90905099D01*
X123571637Y-91293906D01*
X123667143Y-91675184D01*
X123799561Y-92045270D01*
X123799562Y-92045272D01*
X123967620Y-92400600D01*
X124169692Y-92737736D01*
X124169694Y-92737739D01*
X124188194Y-92762684D01*
X124403846Y-93053456D01*
X124667807Y-93344692D01*
X124959043Y-93608653D01*
X124959049Y-93608658D01*
X125274761Y-93842806D01*
X125274763Y-93842807D01*
X125611899Y-94044879D01*
X125611902Y-94044880D01*
X125611903Y-94044881D01*
X125967228Y-94212938D01*
X126337316Y-94345357D01*
X126718600Y-94440864D01*
X127107409Y-94498538D01*
X127500000Y-94517825D01*
X127892591Y-94498538D01*
X128281400Y-94440864D01*
X128662684Y-94345357D01*
X129032772Y-94212938D01*
X129388097Y-94044881D01*
X129725239Y-93842806D01*
X130040951Y-93608658D01*
X130332192Y-93344692D01*
X130596158Y-93053451D01*
X130830306Y-92737739D01*
X131032381Y-92400597D01*
X131200438Y-92045272D01*
X131332857Y-91675184D01*
X131428364Y-91293900D01*
X131486038Y-90905091D01*
X131505325Y-90512500D01*
X131486038Y-90119909D01*
X131428364Y-89731100D01*
X131354216Y-89435085D01*
X131350500Y-89404955D01*
X131350500Y-85810838D01*
X131345347Y-85758514D01*
X131342070Y-85725239D01*
X131313419Y-85434333D01*
X131251855Y-85124839D01*
X131239610Y-85063276D01*
X131203784Y-84945176D01*
X131203162Y-84875311D01*
X131240410Y-84816198D01*
X131303705Y-84786607D01*
X131328687Y-84785950D01*
X131328708Y-84785534D01*
X131328708Y-84785500D01*
X131328710Y-84785500D01*
X131328717Y-84785351D01*
X131331747Y-84785500D01*
X131331752Y-84785500D01*
X133525152Y-84785500D01*
X135718452Y-84785500D01*
X138841150Y-84785500D01*
X138877143Y-84790838D01*
X139200984Y-84889074D01*
X139200990Y-84889075D01*
X139200993Y-84889076D01*
X139201004Y-84889079D01*
X139557104Y-84959911D01*
X139918452Y-84995500D01*
X139918455Y-84995500D01*
X144668245Y-84995500D01*
X144668248Y-84995500D01*
X145029596Y-84959911D01*
X145098921Y-84946121D01*
X145385695Y-84889079D01*
X145385706Y-84889076D01*
X145385706Y-84889075D01*
X145385716Y-84889074D01*
X145733178Y-84783673D01*
X146068635Y-84644722D01*
X146388858Y-84473559D01*
X146690762Y-84271833D01*
X146971439Y-84041487D01*
X147228187Y-83784739D01*
X147458533Y-83504062D01*
X147660259Y-83202158D01*
X147831422Y-82881935D01*
X147970373Y-82546478D01*
X148075774Y-82199016D01*
X148075776Y-82199006D01*
X148075779Y-82198995D01*
X148146611Y-81842895D01*
X148146611Y-81842893D01*
X148172209Y-81582977D01*
X148183521Y-81542109D01*
X148187938Y-81532772D01*
X148320357Y-81162684D01*
X148415864Y-80781400D01*
X148473538Y-80392591D01*
X148492825Y-80000000D01*
X148473538Y-79607409D01*
X148415864Y-79218600D01*
X148320357Y-78837316D01*
X148187938Y-78467228D01*
X148019881Y-78111903D01*
X147817806Y-77774761D01*
X147583658Y-77459049D01*
X147583653Y-77459043D01*
X147319692Y-77167807D01*
X147028456Y-76903846D01*
X146961009Y-76853824D01*
X146712739Y-76669694D01*
X146692710Y-76657689D01*
X146375600Y-76467620D01*
X146020272Y-76299562D01*
X146020270Y-76299561D01*
X145650184Y-76167143D01*
X145268906Y-76071637D01*
X145268901Y-76071636D01*
X145268900Y-76071636D01*
X145124756Y-76050254D01*
X144880099Y-76013963D01*
X144880097Y-76013962D01*
X144880091Y-76013962D01*
X144487500Y-75994675D01*
X144094909Y-76013962D01*
X144094903Y-76013962D01*
X144094900Y-76013963D01*
X143706093Y-76071637D01*
X143324815Y-76167143D01*
X142954729Y-76299561D01*
X142954727Y-76299562D01*
X142599399Y-76467620D01*
X142262263Y-76669692D01*
X141946543Y-76903846D01*
X141655307Y-77167807D01*
X141391340Y-77459050D01*
X141320648Y-77554367D01*
X141264902Y-77596488D01*
X141221051Y-77604500D01*
X141148850Y-77604500D01*
X141112856Y-77599161D01*
X140789016Y-77500926D01*
X140789015Y-77500925D01*
X140789006Y-77500923D01*
X140788995Y-77500920D01*
X140432895Y-77430088D01*
X140160742Y-77403284D01*
X140071548Y-77394500D01*
X140071545Y-77394500D01*
X134259588Y-77394500D01*
X134192549Y-77374815D01*
X134171907Y-77358181D01*
X131221919Y-74408193D01*
X131197508Y-74373533D01*
X131032381Y-74024403D01*
X130830306Y-73687261D01*
X130596158Y-73371549D01*
X130530912Y-73299561D01*
X130332192Y-73080307D01*
X130040956Y-72816346D01*
X129725236Y-72582192D01*
X129388100Y-72380120D01*
X129032772Y-72212062D01*
X129032770Y-72212061D01*
X128662684Y-72079643D01*
X128281406Y-71984137D01*
X128281401Y-71984136D01*
X128281400Y-71984136D01*
X128137256Y-71962754D01*
X127892599Y-71926463D01*
X127892597Y-71926462D01*
X127892591Y-71926462D01*
X127500000Y-71907175D01*
X127107409Y-71926462D01*
X127107403Y-71926462D01*
X127107400Y-71926463D01*
X126718593Y-71984137D01*
X126337315Y-72079643D01*
X125967229Y-72212061D01*
X125967227Y-72212062D01*
X125611899Y-72380120D01*
X125274763Y-72582192D01*
X124959043Y-72816346D01*
X124667807Y-73080307D01*
X124403846Y-73371543D01*
X124169692Y-73687263D01*
X123967620Y-74024399D01*
X123799562Y-74379727D01*
X123799561Y-74379729D01*
X123667143Y-74749815D01*
X123571637Y-75131093D01*
X123518002Y-75492676D01*
X123513962Y-75519909D01*
X123494675Y-75912500D01*
X123513962Y-76305091D01*
X123513962Y-76305097D01*
X123513963Y-76305099D01*
X123529661Y-76410926D01*
X123571070Y-76690087D01*
X123571637Y-76693906D01*
X123604834Y-76826434D01*
X123667143Y-77075184D01*
X123768400Y-77358181D01*
X123774981Y-77376572D01*
X123779031Y-77446324D01*
X123744728Y-77507193D01*
X123682962Y-77539854D01*
X123634038Y-77539963D01*
X123365666Y-77486581D01*
X123082099Y-77458653D01*
X122989163Y-77449500D01*
X118910837Y-77449500D01*
X118824966Y-77457957D01*
X118534333Y-77486581D01*
X118163296Y-77560384D01*
X118163285Y-77560387D01*
X118091652Y-77582116D01*
X118035464Y-77599161D01*
X117999471Y-77604500D01*
X115778921Y-77604500D01*
X115754730Y-77602117D01*
X115442894Y-77540088D01*
X115442895Y-77540088D01*
X115170742Y-77513284D01*
X115081548Y-77504500D01*
X115081545Y-77504500D01*
X111539184Y-77504500D01*
X111503190Y-77499161D01*
X111212316Y-77410926D01*
X111212315Y-77410925D01*
X111212306Y-77410923D01*
X111212295Y-77410920D01*
X110856202Y-77340090D01*
X110856187Y-77340087D01*
X110687855Y-77323508D01*
X110646995Y-77312201D01*
X110620272Y-77299562D01*
X110620270Y-77299561D01*
X110250184Y-77167143D01*
X109868906Y-77071637D01*
X109868901Y-77071636D01*
X109868900Y-77071636D01*
X109724756Y-77050254D01*
X109480099Y-77013963D01*
X109480097Y-77013962D01*
X109480091Y-77013962D01*
X109087500Y-76994675D01*
X108694909Y-77013962D01*
X108694903Y-77013962D01*
X108694900Y-77013963D01*
X108306093Y-77071637D01*
X107924815Y-77167143D01*
X107554729Y-77299561D01*
X107554727Y-77299562D01*
X107199399Y-77467620D01*
X106862263Y-77669692D01*
X106546543Y-77903846D01*
X106255307Y-78167807D01*
X105991346Y-78459043D01*
X105757192Y-78774763D01*
X105555120Y-79111899D01*
X105387062Y-79467227D01*
X105387061Y-79467229D01*
X105254643Y-79837315D01*
X105159137Y-80218593D01*
X105112592Y-80532379D01*
X105101462Y-80607409D01*
X105082175Y-81000000D01*
X98492825Y-81000000D01*
X98473538Y-80607409D01*
X98415864Y-80218600D01*
X98320357Y-79837316D01*
X98187938Y-79467228D01*
X98019881Y-79111903D01*
X97817806Y-78774761D01*
X97583658Y-78459049D01*
X97583653Y-78459043D01*
X97319692Y-78167807D01*
X97028456Y-77903846D01*
X96712736Y-77669692D01*
X96375600Y-77467620D01*
X96020272Y-77299562D01*
X96020270Y-77299561D01*
X95650184Y-77167143D01*
X95268906Y-77071637D01*
X95268901Y-77071636D01*
X95268900Y-77071636D01*
X95124756Y-77050254D01*
X94880099Y-77013963D01*
X94880097Y-77013962D01*
X94880091Y-77013962D01*
X94487500Y-76994675D01*
X94094909Y-77013962D01*
X94094903Y-77013962D01*
X94094900Y-77013963D01*
X93706093Y-77071637D01*
X93324815Y-77167143D01*
X92954729Y-77299561D01*
X92954727Y-77299562D01*
X92599399Y-77467620D01*
X92262263Y-77669692D01*
X91946543Y-77903846D01*
X91655307Y-78167807D01*
X91391346Y-78459043D01*
X91157192Y-78774763D01*
X90955118Y-79111904D01*
X90955114Y-79111910D01*
X90814036Y-79410193D01*
X90767578Y-79462380D01*
X90700281Y-79481165D01*
X90677751Y-79478793D01*
X90432895Y-79430088D01*
X90160742Y-79403284D01*
X90071548Y-79394500D01*
X90071545Y-79394500D01*
X84631686Y-79394500D01*
X84564647Y-79374815D01*
X84535833Y-79349165D01*
X84434129Y-79225239D01*
X84354787Y-79128560D01*
X84354786Y-79128559D01*
X84354782Y-79128554D01*
X80721919Y-75495692D01*
X80697506Y-75461030D01*
X80532381Y-75111903D01*
X80330306Y-74774761D01*
X80096158Y-74459049D01*
X80050065Y-74408193D01*
X79832192Y-74167807D01*
X79540956Y-73903846D01*
X79225236Y-73669692D01*
X78888100Y-73467620D01*
X78532772Y-73299562D01*
X78532770Y-73299561D01*
X78162684Y-73167143D01*
X77781406Y-73071637D01*
X77781401Y-73071636D01*
X77781400Y-73071636D01*
X77637256Y-73050254D01*
X77392599Y-73013963D01*
X77392597Y-73013962D01*
X77392591Y-73013962D01*
X77000000Y-72994675D01*
X76607409Y-73013962D01*
X76607403Y-73013962D01*
X76607400Y-73013963D01*
X76218593Y-73071637D01*
X75837315Y-73167143D01*
X75467229Y-73299561D01*
X75467227Y-73299562D01*
X75111899Y-73467620D01*
X74774763Y-73669692D01*
X74459043Y-73903846D01*
X74167807Y-74167807D01*
X73903846Y-74459043D01*
X73669692Y-74774763D01*
X73467620Y-75111899D01*
X73299562Y-75467227D01*
X73299561Y-75467229D01*
X73167143Y-75837315D01*
X73071637Y-76218593D01*
X73027473Y-76516327D01*
X73013962Y-76607409D01*
X72994675Y-77000000D01*
X73013962Y-77392591D01*
X73013962Y-77392597D01*
X73013963Y-77392599D01*
X73071637Y-77781406D01*
X73167143Y-78162684D01*
X73299561Y-78532770D01*
X73299562Y-78532772D01*
X73467620Y-78888100D01*
X73665715Y-79218600D01*
X73669694Y-79225239D01*
X73874157Y-79500926D01*
X73903846Y-79540956D01*
X74167807Y-79832192D01*
X74317227Y-79967618D01*
X74459049Y-80096158D01*
X74774761Y-80330306D01*
X74774763Y-80330307D01*
X75111899Y-80532379D01*
X75111902Y-80532380D01*
X75111903Y-80532381D01*
X75461030Y-80697506D01*
X75495692Y-80721919D01*
X77881481Y-83107707D01*
X77914966Y-83169030D01*
X77917800Y-83195388D01*
X77917800Y-83271544D01*
X77953388Y-83632895D01*
X78021198Y-83973802D01*
X78014971Y-84043394D01*
X77972107Y-84098571D01*
X77906218Y-84121815D01*
X77838221Y-84105747D01*
X77811900Y-84085674D01*
X74284744Y-80558517D01*
X74004067Y-80328171D01*
X74004066Y-80328170D01*
X74004062Y-80328167D01*
X73702158Y-80126441D01*
X73702153Y-80126438D01*
X73702146Y-80126434D01*
X73381943Y-79955281D01*
X73381938Y-79955279D01*
X73046480Y-79816327D01*
X72699006Y-79710923D01*
X72698995Y-79710920D01*
X72342895Y-79640088D01*
X72070742Y-79613284D01*
X71981548Y-79604500D01*
X71981545Y-79604500D01*
X69148850Y-79604500D01*
X69112856Y-79599161D01*
X68789016Y-79500926D01*
X68789012Y-79500925D01*
X68789005Y-79500923D01*
X68768016Y-79496749D01*
X68757590Y-79494675D01*
X68432894Y-79430088D01*
X68432895Y-79430088D01*
X68160742Y-79403284D01*
X68071548Y-79394500D01*
X60179049Y-79394500D01*
X59815952Y-79394500D01*
X59733538Y-79402616D01*
X59454604Y-79430088D01*
X59098504Y-79500920D01*
X59098487Y-79500925D01*
X58930863Y-79551772D01*
X58913064Y-79555769D01*
X58806103Y-79571635D01*
X58424815Y-79667143D01*
X58054729Y-79799561D01*
X58054727Y-79799562D01*
X57699399Y-79967620D01*
X57362263Y-80169692D01*
X57046543Y-80403846D01*
X56755307Y-80667807D01*
X56491346Y-80959043D01*
X56257192Y-81274763D01*
X56055120Y-81611899D01*
X55887062Y-81967227D01*
X55887061Y-81967229D01*
X55754643Y-82337315D01*
X55659137Y-82718593D01*
X55603132Y-83096153D01*
X55601462Y-83107409D01*
X55582175Y-83500000D01*
X48992825Y-83500000D01*
X48973538Y-83107409D01*
X48915864Y-82718600D01*
X48820357Y-82337316D01*
X48687938Y-81967228D01*
X48519881Y-81611903D01*
X48502546Y-81582982D01*
X48317807Y-81274763D01*
X48114029Y-81000000D01*
X48083658Y-80959049D01*
X48083653Y-80959043D01*
X47819692Y-80667807D01*
X47528456Y-80403846D01*
X47513291Y-80392599D01*
X47212739Y-80169694D01*
X47140582Y-80126445D01*
X46929621Y-80000000D01*
X46875597Y-79967619D01*
X46875595Y-79967618D01*
X46875596Y-79967618D01*
X46763182Y-79914449D01*
X46710996Y-79867991D01*
X46692200Y-79802355D01*
X46692200Y-66600529D01*
X46697539Y-66564534D01*
X46699009Y-66559684D01*
X46736310Y-66436724D01*
X46810118Y-66065667D01*
X46847199Y-65689163D01*
X46847199Y-65310837D01*
X46810118Y-64934333D01*
X46736310Y-64563277D01*
X46697539Y-64435466D01*
X46692200Y-64399471D01*
X46692200Y-58777888D01*
X46711885Y-58710849D01*
X46728519Y-58690207D01*
X47346907Y-58071819D01*
X47408230Y-58038334D01*
X47434588Y-58035500D01*
X48481545Y-58035500D01*
X48481548Y-58035500D01*
X48842896Y-57999911D01*
X48912221Y-57986121D01*
X49198995Y-57929079D01*
X49199006Y-57929076D01*
X49199006Y-57929075D01*
X49199016Y-57929074D01*
X49546478Y-57823673D01*
X49881935Y-57684722D01*
X50167936Y-57531850D01*
X50177107Y-57527424D01*
X50327448Y-57462367D01*
X50486879Y-57368078D01*
X50554602Y-57350896D01*
X50613120Y-57368078D01*
X50772552Y-57462367D01*
X51061311Y-57587324D01*
X51115419Y-57603043D01*
X51363448Y-57675104D01*
X51363456Y-57675106D01*
X51674217Y-57724325D01*
X51805156Y-57730500D01*
X51805160Y-57730500D01*
X53794844Y-57730500D01*
X53869664Y-57726971D01*
X53925783Y-57724325D01*
X53925785Y-57724325D01*
X54236543Y-57675106D01*
X54236551Y-57675104D01*
X54387617Y-57631214D01*
X54538689Y-57587324D01*
X54827448Y-57462367D01*
X55015935Y-57350896D01*
X55080406Y-57312768D01*
X55143527Y-57295500D01*
X56588452Y-57295500D01*
X58431911Y-57295500D01*
X58473683Y-57302747D01*
X58837316Y-57432857D01*
X59218600Y-57528364D01*
X59607409Y-57586038D01*
X60000000Y-57605325D01*
X60392591Y-57586038D01*
X60781400Y-57528364D01*
X60911299Y-57495825D01*
X60981108Y-57498630D01*
X61008458Y-57512094D01*
X61008522Y-57511989D01*
X61009801Y-57512755D01*
X61010328Y-57513015D01*
X61011142Y-57513559D01*
X61331356Y-57684718D01*
X61331358Y-57684718D01*
X61331364Y-57684722D01*
X61666821Y-57823673D01*
X62014284Y-57929074D01*
X62014290Y-57929075D01*
X62014293Y-57929076D01*
X62014304Y-57929079D01*
X62370404Y-57999911D01*
X62731752Y-58035500D01*
X62731755Y-58035500D01*
X67481545Y-58035500D01*
X67481548Y-58035500D01*
X67842896Y-57999911D01*
X67912221Y-57986121D01*
X68198995Y-57929079D01*
X68199006Y-57929076D01*
X68199006Y-57929075D01*
X68199016Y-57929074D01*
X68546478Y-57823673D01*
X68881935Y-57684722D01*
X69167936Y-57531850D01*
X69177107Y-57527424D01*
X69327448Y-57462367D01*
X69486879Y-57368078D01*
X69554602Y-57350896D01*
X69613120Y-57368078D01*
X69772552Y-57462367D01*
X70061311Y-57587324D01*
X70115419Y-57603043D01*
X70363448Y-57675104D01*
X70363456Y-57675106D01*
X70674217Y-57724325D01*
X70805156Y-57730500D01*
X70805160Y-57730500D01*
X72794844Y-57730500D01*
X72869664Y-57726971D01*
X72925783Y-57724325D01*
X72925785Y-57724325D01*
X73236543Y-57675106D01*
X73236551Y-57675104D01*
X73387617Y-57631214D01*
X73538689Y-57587324D01*
X73827448Y-57462367D01*
X74098268Y-57302204D01*
X74346880Y-57109361D01*
X74450823Y-57005417D01*
X74512144Y-56971934D01*
X74538503Y-56969100D01*
X93671497Y-56969100D01*
X93738536Y-56988785D01*
X93759173Y-57005414D01*
X93837430Y-57083671D01*
X93863124Y-57109365D01*
X94111722Y-57302197D01*
X94111726Y-57302199D01*
X94111732Y-57302204D01*
X94382552Y-57462367D01*
X94671311Y-57587324D01*
X94725419Y-57603043D01*
X94973448Y-57675104D01*
X94973456Y-57675106D01*
X95284217Y-57724325D01*
X95415156Y-57730500D01*
X95415160Y-57730500D01*
X97404844Y-57730500D01*
X97479664Y-57726971D01*
X97535783Y-57724325D01*
X97535785Y-57724325D01*
X97846543Y-57675106D01*
X97846551Y-57675104D01*
X97997617Y-57631214D01*
X98148689Y-57587324D01*
X98437448Y-57462367D01*
X98596879Y-57368078D01*
X98664602Y-57350896D01*
X98723120Y-57368078D01*
X98882552Y-57462367D01*
X99032891Y-57527424D01*
X99042081Y-57531860D01*
X99179522Y-57605324D01*
X99328057Y-57684718D01*
X99328059Y-57684718D01*
X99328065Y-57684722D01*
X99663522Y-57823673D01*
X100010984Y-57929074D01*
X100010990Y-57929075D01*
X100010993Y-57929076D01*
X100011004Y-57929079D01*
X100367104Y-57999911D01*
X100728452Y-58035500D01*
X100728455Y-58035500D01*
X101091545Y-58035500D01*
X101091548Y-58035500D01*
X101452896Y-57999911D01*
X101522221Y-57986121D01*
X101808995Y-57929079D01*
X101809006Y-57929076D01*
X101809006Y-57929075D01*
X101809016Y-57929074D01*
X102156478Y-57823673D01*
X102491935Y-57684722D01*
X102777936Y-57531850D01*
X102787097Y-57527428D01*
X102937448Y-57462367D01*
X103208268Y-57302204D01*
X103456879Y-57109362D01*
X103456880Y-57109362D01*
X103679362Y-56886880D01*
X103679362Y-56886879D01*
X103872197Y-56638277D01*
X103872204Y-56638268D01*
X104032367Y-56367448D01*
X104097428Y-56217097D01*
X104101850Y-56207936D01*
X104254722Y-55921935D01*
X104393673Y-55586478D01*
X104499074Y-55239016D01*
X104499076Y-55239006D01*
X104499079Y-55238995D01*
X104569911Y-54882895D01*
X104586835Y-54711061D01*
X104605500Y-54521548D01*
X104605500Y-54471088D01*
X104625185Y-54404049D01*
X104677989Y-54358294D01*
X104747147Y-54348350D01*
X104810703Y-54377375D01*
X104817181Y-54383407D01*
X106775255Y-56341482D01*
X106775260Y-56341486D01*
X106775261Y-56341487D01*
X107055937Y-56571833D01*
X107357842Y-56773559D01*
X107357851Y-56773564D01*
X107357853Y-56773565D01*
X107678056Y-56944718D01*
X107678058Y-56944718D01*
X107678064Y-56944722D01*
X108013521Y-57083673D01*
X108033546Y-57089747D01*
X108061295Y-57102048D01*
X108111903Y-57132381D01*
X108467228Y-57300438D01*
X108837316Y-57432857D01*
X109218600Y-57528364D01*
X109607409Y-57586038D01*
X110000000Y-57605325D01*
X110392591Y-57586038D01*
X110781400Y-57528364D01*
X110911299Y-57495825D01*
X110981108Y-57498630D01*
X111008458Y-57512094D01*
X111008522Y-57511989D01*
X111009801Y-57512755D01*
X111010328Y-57513015D01*
X111011142Y-57513559D01*
X111331356Y-57684718D01*
X111331358Y-57684718D01*
X111331364Y-57684722D01*
X111666821Y-57823673D01*
X112014284Y-57929074D01*
X112014290Y-57929075D01*
X112014293Y-57929076D01*
X112014304Y-57929079D01*
X112370404Y-57999911D01*
X112731752Y-58035500D01*
X112731755Y-58035500D01*
X117481545Y-58035500D01*
X117481548Y-58035500D01*
X117842896Y-57999911D01*
X117912221Y-57986121D01*
X118198995Y-57929079D01*
X118199006Y-57929076D01*
X118199006Y-57929075D01*
X118199016Y-57929074D01*
X118546478Y-57823673D01*
X118881935Y-57684722D01*
X119167936Y-57531850D01*
X119177107Y-57527424D01*
X119327448Y-57462367D01*
X119486879Y-57368078D01*
X119554602Y-57350896D01*
X119613120Y-57368078D01*
X119772552Y-57462367D01*
X120061311Y-57587324D01*
X120115419Y-57603043D01*
X120363448Y-57675104D01*
X120363456Y-57675106D01*
X120674217Y-57724325D01*
X120805156Y-57730500D01*
X120805160Y-57730500D01*
X122794844Y-57730500D01*
X122869664Y-57726971D01*
X122925783Y-57724325D01*
X122925785Y-57724325D01*
X123236543Y-57675106D01*
X123236551Y-57675104D01*
X123387617Y-57631214D01*
X123538689Y-57587324D01*
X123827448Y-57462367D01*
X124098268Y-57302204D01*
X124346879Y-57109362D01*
X124346880Y-57109362D01*
X124569362Y-56886880D01*
X124569362Y-56886879D01*
X124762197Y-56638277D01*
X124762204Y-56638268D01*
X124922367Y-56367448D01*
X125047324Y-56078689D01*
X125092865Y-55921935D01*
X125135104Y-55776551D01*
X125135106Y-55776543D01*
X125184325Y-55465785D01*
X125184325Y-55465780D01*
X125190500Y-55334844D01*
X125190500Y-53345146D01*
X125190466Y-53343708D01*
X125190484Y-53343707D01*
X125190400Y-53340122D01*
X125190400Y-50396323D01*
X125199839Y-50348870D01*
X125283671Y-50146483D01*
X125283673Y-50146478D01*
X125389074Y-49799016D01*
X125389076Y-49799006D01*
X125389079Y-49798995D01*
X125459911Y-49442895D01*
X125495500Y-49081548D01*
X125495500Y-48331060D01*
X125515185Y-48264021D01*
X125567989Y-48218266D01*
X125607341Y-48207658D01*
X125957096Y-48173211D01*
X126283166Y-48108351D01*
X126352756Y-48114578D01*
X126395037Y-48142287D01*
X130667895Y-52415146D01*
X130667900Y-52415150D01*
X130667901Y-52415151D01*
X130925405Y-52626480D01*
X130925412Y-52626485D01*
X130925422Y-52626492D01*
X131202375Y-52811545D01*
X131202381Y-52811548D01*
X131202385Y-52811551D01*
X131377386Y-52905091D01*
X131496169Y-52968582D01*
X131803931Y-53096061D01*
X132122706Y-53192760D01*
X132449425Y-53257749D01*
X132780940Y-53290400D01*
X132780941Y-53290400D01*
X133114060Y-53290400D01*
X141785600Y-53290400D01*
X141852639Y-53310085D01*
X141898394Y-53362889D01*
X141909600Y-53414400D01*
X141909600Y-54396556D01*
X141942250Y-54728074D01*
X142007238Y-55054785D01*
X142007242Y-55054803D01*
X142014160Y-55077605D01*
X142019500Y-55113602D01*
X142019500Y-55334844D01*
X142025674Y-55465780D01*
X142025674Y-55465785D01*
X142074893Y-55776543D01*
X142074895Y-55776551D01*
X142162674Y-56078684D01*
X142287632Y-56367447D01*
X142287633Y-56367448D01*
X142447796Y-56638268D01*
X142447801Y-56638274D01*
X142447802Y-56638276D01*
X142447802Y-56638277D01*
X142640637Y-56886879D01*
X142863120Y-57109362D01*
X143111722Y-57302197D01*
X143111726Y-57302199D01*
X143111732Y-57302204D01*
X143382552Y-57462367D01*
X143671311Y-57587324D01*
X143725419Y-57603043D01*
X143973448Y-57675104D01*
X143973456Y-57675106D01*
X144284217Y-57724325D01*
X144415156Y-57730500D01*
X144415160Y-57730500D01*
X146404844Y-57730500D01*
X146479664Y-57726971D01*
X146535783Y-57724325D01*
X146535785Y-57724325D01*
X146846543Y-57675106D01*
X146846551Y-57675104D01*
X146997617Y-57631214D01*
X147148689Y-57587324D01*
X147437448Y-57462367D01*
X147596879Y-57368078D01*
X147664602Y-57350896D01*
X147723120Y-57368078D01*
X147882552Y-57462367D01*
X148032891Y-57527424D01*
X148042081Y-57531860D01*
X148179522Y-57605324D01*
X148328057Y-57684718D01*
X148328059Y-57684718D01*
X148328065Y-57684722D01*
X148663522Y-57823673D01*
X149010984Y-57929074D01*
X149010990Y-57929075D01*
X149010993Y-57929076D01*
X149011004Y-57929079D01*
X149367104Y-57999911D01*
X149728452Y-58035500D01*
X149728455Y-58035500D01*
X150091545Y-58035500D01*
X150091548Y-58035500D01*
X150452896Y-57999911D01*
X150522221Y-57986121D01*
X150808995Y-57929079D01*
X150809006Y-57929076D01*
X150809006Y-57929075D01*
X150809016Y-57929074D01*
X151156478Y-57823673D01*
X151491935Y-57684722D01*
X151777936Y-57531850D01*
X151787097Y-57527428D01*
X151937448Y-57462367D01*
X152208268Y-57302204D01*
X152456879Y-57109362D01*
X152456880Y-57109362D01*
X152679362Y-56886880D01*
X152679362Y-56886879D01*
X152872197Y-56638277D01*
X152872204Y-56638268D01*
X153032367Y-56367448D01*
X153097428Y-56217097D01*
X153101850Y-56207936D01*
X153254722Y-55921935D01*
X153393673Y-55586478D01*
X153499074Y-55239016D01*
X153499076Y-55239006D01*
X153499079Y-55238995D01*
X153569911Y-54882895D01*
X153586835Y-54711061D01*
X153605500Y-54521548D01*
X153605500Y-53719500D01*
X153625185Y-53652461D01*
X153677989Y-53606706D01*
X153729500Y-53595500D01*
X153805412Y-53595500D01*
X153872451Y-53615185D01*
X153893093Y-53631819D01*
X154278079Y-54016805D01*
X154302493Y-54051469D01*
X154467620Y-54400600D01*
X154669692Y-54737736D01*
X154669694Y-54737739D01*
X154858078Y-54991746D01*
X154903846Y-55053456D01*
X155167807Y-55344692D01*
X155434577Y-55586478D01*
X155459049Y-55608658D01*
X155774761Y-55842806D01*
X155774763Y-55842807D01*
X156111899Y-56044879D01*
X156111902Y-56044880D01*
X156111903Y-56044881D01*
X156467228Y-56212938D01*
X156837316Y-56345357D01*
X157218600Y-56440864D01*
X157607409Y-56498538D01*
X158000000Y-56517825D01*
X158392591Y-56498538D01*
X158781400Y-56440864D01*
X159162684Y-56345357D01*
X159532772Y-56212938D01*
X159888097Y-56044881D01*
X160225239Y-55842806D01*
X160540951Y-55608658D01*
X160832192Y-55344692D01*
X161096158Y-55053451D01*
X161324451Y-54745632D01*
X161380197Y-54703513D01*
X161424049Y-54695500D01*
X173571545Y-54695500D01*
X173571548Y-54695500D01*
X173932896Y-54659911D01*
X174002221Y-54646121D01*
X174288995Y-54589079D01*
X174289006Y-54589076D01*
X174289006Y-54589075D01*
X174289016Y-54589074D01*
X174636479Y-54483673D01*
X174971936Y-54344722D01*
X175292158Y-54173559D01*
X175594062Y-53971833D01*
X175658869Y-53918647D01*
X175723179Y-53891334D01*
X175737534Y-53890500D01*
X178104844Y-53890500D01*
X178179664Y-53886971D01*
X178235783Y-53884325D01*
X178235785Y-53884325D01*
X178546543Y-53835106D01*
X178546551Y-53835104D01*
X178697617Y-53791214D01*
X178848689Y-53747324D01*
X179137448Y-53622367D01*
X179408268Y-53462204D01*
X179536304Y-53362889D01*
X179656879Y-53269362D01*
X179656880Y-53269362D01*
X179879362Y-53046880D01*
X179879362Y-53046879D01*
X180072197Y-52798277D01*
X180072204Y-52798268D01*
X180232367Y-52527448D01*
X180357324Y-52238689D01*
X180445105Y-51936546D01*
X180445106Y-51936543D01*
X180494325Y-51625785D01*
X180494325Y-51625780D01*
X180500500Y-51494844D01*
X180500500Y-47285155D01*
X180494660Y-47161315D01*
X180494325Y-47154217D01*
X180492143Y-47140438D01*
X180445106Y-46843456D01*
X180445104Y-46843448D01*
X180357325Y-46541315D01*
X180357324Y-46541311D01*
X180232367Y-46252552D01*
X180072204Y-45981732D01*
X180072197Y-45981722D01*
X179879362Y-45733120D01*
X179656879Y-45510637D01*
X179408277Y-45317802D01*
X179408271Y-45317798D01*
X179408268Y-45317796D01*
X179216696Y-45204500D01*
X179137447Y-45157632D01*
X178848684Y-45032674D01*
X178546551Y-44944895D01*
X178546543Y-44944893D01*
X178235782Y-44895674D01*
X178104844Y-44889500D01*
X178104840Y-44889500D01*
X173895160Y-44889500D01*
X173895156Y-44889500D01*
X173764219Y-44895674D01*
X173764214Y-44895674D01*
X173453456Y-44944893D01*
X173453448Y-44944895D01*
X173151315Y-45032674D01*
X172862552Y-45157632D01*
X172723127Y-45240089D01*
X172591732Y-45317796D01*
X172591728Y-45317798D01*
X172591723Y-45317802D01*
X172591722Y-45317802D01*
X172343120Y-45510637D01*
X172343120Y-45510638D01*
X172120638Y-45733120D01*
X172120637Y-45733120D01*
X171927802Y-45981722D01*
X171927802Y-45981723D01*
X171927798Y-45981728D01*
X171927796Y-45981732D01*
X171863119Y-46091094D01*
X171767632Y-46252552D01*
X171642674Y-46541315D01*
X171554895Y-46843448D01*
X171554893Y-46843456D01*
X171505674Y-47154214D01*
X171505674Y-47154220D01*
X171504160Y-47186339D01*
X171481341Y-47252377D01*
X171426441Y-47295595D01*
X171380298Y-47304500D01*
X159330952Y-47304500D01*
X159248538Y-47312616D01*
X158969604Y-47340088D01*
X158613504Y-47410920D01*
X158613493Y-47410923D01*
X158309546Y-47503124D01*
X158239679Y-47503747D01*
X158185870Y-47472144D01*
X157872244Y-47158517D01*
X157591567Y-46928171D01*
X157591566Y-46928170D01*
X157591562Y-46928167D01*
X157289658Y-46726441D01*
X157289653Y-46726438D01*
X157289646Y-46726434D01*
X156969443Y-46555281D01*
X156969438Y-46555279D01*
X156935716Y-46541311D01*
X156859000Y-46509534D01*
X156633980Y-46416327D01*
X156286506Y-46310923D01*
X156286495Y-46310920D01*
X155930395Y-46240088D01*
X155658242Y-46213284D01*
X155569048Y-46204500D01*
X154368248Y-46204500D01*
X149618452Y-46204500D01*
X149536038Y-46212616D01*
X149257104Y-46240088D01*
X148901004Y-46310920D01*
X148900993Y-46310923D01*
X148553519Y-46416327D01*
X148218061Y-46555279D01*
X148218056Y-46555281D01*
X147932083Y-46708138D01*
X147922881Y-46712579D01*
X147890865Y-46726434D01*
X147772550Y-46777633D01*
X147772546Y-46777635D01*
X147613121Y-46871920D01*
X147545397Y-46889103D01*
X147486879Y-46871920D01*
X147327453Y-46777635D01*
X147327449Y-46777633D01*
X147038684Y-46652674D01*
X146736551Y-46564895D01*
X146736543Y-46564893D01*
X146425782Y-46515674D01*
X146294844Y-46509500D01*
X146294840Y-46509500D01*
X144305160Y-46509500D01*
X144305147Y-46509500D01*
X144303708Y-46509534D01*
X144303707Y-46509515D01*
X144300122Y-46509600D01*
X134403212Y-46509600D01*
X134336173Y-46489915D01*
X134315531Y-46473281D01*
X130411726Y-42569476D01*
X130379123Y-42511925D01*
X130320357Y-42277316D01*
X130187938Y-41907228D01*
X130019881Y-41551903D01*
X130013628Y-41541471D01*
X129817807Y-41214763D01*
X129817806Y-41214761D01*
X129583658Y-40899049D01*
X129583653Y-40899043D01*
X129319692Y-40607807D01*
X129028456Y-40343846D01*
X128712736Y-40109692D01*
X128375600Y-39907620D01*
X128020272Y-39739562D01*
X128020270Y-39739561D01*
X127650184Y-39607143D01*
X127268906Y-39511637D01*
X127268901Y-39511636D01*
X127268900Y-39511636D01*
X127124756Y-39490254D01*
X126880099Y-39453963D01*
X126880097Y-39453962D01*
X126880091Y-39453962D01*
X126487500Y-39434675D01*
X126094909Y-39453962D01*
X126094903Y-39453962D01*
X126094900Y-39453963D01*
X125706093Y-39511637D01*
X125324815Y-39607143D01*
X124954729Y-39739561D01*
X124954727Y-39739562D01*
X124599399Y-39907620D01*
X124262263Y-40109692D01*
X123946543Y-40343846D01*
X123655307Y-40607807D01*
X123501895Y-40777073D01*
X123442289Y-40813527D01*
X123410017Y-40817800D01*
X121981548Y-40817800D01*
X121618452Y-40817800D01*
X121536038Y-40825916D01*
X121257104Y-40853388D01*
X120901004Y-40924220D01*
X120900993Y-40924223D01*
X120553520Y-41029627D01*
X120218062Y-41168579D01*
X120218057Y-41168581D01*
X119897853Y-41339734D01*
X119897835Y-41339745D01*
X119595946Y-41541461D01*
X119595932Y-41541471D01*
X119315255Y-41771817D01*
X119058517Y-42028555D01*
X118828171Y-42309232D01*
X118828161Y-42309246D01*
X118626445Y-42611135D01*
X118626434Y-42611153D01*
X118455281Y-42931357D01*
X118455279Y-42931362D01*
X118316327Y-43266820D01*
X118210923Y-43614293D01*
X118210920Y-43614304D01*
X118140088Y-43970404D01*
X118104500Y-44331755D01*
X118104500Y-45141030D01*
X118084815Y-45208069D01*
X118032011Y-45253824D01*
X117962853Y-45263768D01*
X117956310Y-45262648D01*
X117842887Y-45240087D01*
X117557315Y-45211962D01*
X117481548Y-45204500D01*
X117118452Y-45204500D01*
X117036038Y-45212616D01*
X116757104Y-45240088D01*
X116401004Y-45310920D01*
X116400993Y-45310923D01*
X116053520Y-45416327D01*
X115718071Y-45555275D01*
X115718057Y-45555282D01*
X115432084Y-45708137D01*
X115422878Y-45712580D01*
X115272558Y-45777629D01*
X115272554Y-45777631D01*
X115124472Y-45865207D01*
X115001732Y-45937796D01*
X115001728Y-45937798D01*
X115001723Y-45937802D01*
X115001722Y-45937802D01*
X114753120Y-46130637D01*
X114753120Y-46130638D01*
X114530638Y-46353120D01*
X114530637Y-46353120D01*
X114337802Y-46601722D01*
X114337802Y-46601723D01*
X114337798Y-46601728D01*
X114337796Y-46601732D01*
X114273441Y-46710550D01*
X114177631Y-46872554D01*
X114177629Y-46872558D01*
X114112580Y-47022878D01*
X114108137Y-47032084D01*
X113955282Y-47318057D01*
X113955275Y-47318071D01*
X113816327Y-47653520D01*
X113710923Y-48000993D01*
X113710920Y-48001004D01*
X113640088Y-48357104D01*
X113604500Y-48718455D01*
X113604500Y-48957390D01*
X113603903Y-48969543D01*
X113596300Y-49046740D01*
X113596300Y-49379860D01*
X113602509Y-49442896D01*
X113603903Y-49457054D01*
X113604500Y-49469208D01*
X113604500Y-50007261D01*
X113584815Y-50074300D01*
X113532011Y-50120055D01*
X113462853Y-50129999D01*
X113433053Y-50121825D01*
X113419777Y-50116326D01*
X113072306Y-50010923D01*
X113072295Y-50010920D01*
X112716195Y-49940088D01*
X112444042Y-49913284D01*
X112354848Y-49904500D01*
X112354845Y-49904500D01*
X111568089Y-49904500D01*
X111526316Y-49897252D01*
X111162684Y-49767143D01*
X110781400Y-49671636D01*
X110781399Y-49671635D01*
X110781396Y-49671635D01*
X110559447Y-49638712D01*
X110496022Y-49609403D01*
X110489961Y-49603735D01*
X108749214Y-47862988D01*
X108718235Y-47811304D01*
X108670373Y-47653522D01*
X108531422Y-47318065D01*
X108524171Y-47304500D01*
X108360265Y-46997853D01*
X108360264Y-46997851D01*
X108360259Y-46997842D01*
X108158533Y-46695938D01*
X107928187Y-46415261D01*
X107928186Y-46415260D01*
X107928182Y-46415255D01*
X107671444Y-46158517D01*
X107390767Y-45928171D01*
X107390766Y-45928170D01*
X107390762Y-45928167D01*
X107088858Y-45726441D01*
X107088853Y-45726438D01*
X107088846Y-45726434D01*
X106768642Y-45555281D01*
X106768637Y-45555279D01*
X106768627Y-45555275D01*
X106658117Y-45509500D01*
X106433179Y-45416327D01*
X106085706Y-45310923D01*
X106085695Y-45310920D01*
X105729595Y-45240088D01*
X105457442Y-45213284D01*
X105368248Y-45204500D01*
X100618452Y-45204500D01*
X100536038Y-45212616D01*
X100257104Y-45240088D01*
X99901004Y-45310920D01*
X99900993Y-45310923D01*
X99553520Y-45416327D01*
X99218071Y-45555275D01*
X99218057Y-45555282D01*
X98932084Y-45708137D01*
X98922878Y-45712580D01*
X98772558Y-45777629D01*
X98772546Y-45777635D01*
X98613121Y-45871920D01*
X98545397Y-45889103D01*
X98486879Y-45871920D01*
X98327453Y-45777635D01*
X98327449Y-45777633D01*
X98066921Y-45664893D01*
X98038689Y-45652676D01*
X98038687Y-45652675D01*
X98038684Y-45652674D01*
X97736551Y-45564895D01*
X97736543Y-45564893D01*
X97425782Y-45515674D01*
X97294844Y-45509500D01*
X97294840Y-45509500D01*
X95305160Y-45509500D01*
X95305156Y-45509500D01*
X95174219Y-45515674D01*
X95174214Y-45515674D01*
X94863456Y-45564893D01*
X94863448Y-45564895D01*
X94561315Y-45652674D01*
X94272552Y-45777632D01*
X94113122Y-45871920D01*
X94001732Y-45937796D01*
X94001728Y-45937798D01*
X94001723Y-45937802D01*
X94001722Y-45937802D01*
X93753120Y-46130637D01*
X93753120Y-46130638D01*
X93530638Y-46353120D01*
X93530637Y-46353120D01*
X93337802Y-46601722D01*
X93337802Y-46601723D01*
X93337798Y-46601728D01*
X93337796Y-46601732D01*
X93307669Y-46652674D01*
X93177632Y-46872552D01*
X93052674Y-47161315D01*
X92964895Y-47463448D01*
X92964893Y-47463456D01*
X92915674Y-47774214D01*
X92915674Y-47774219D01*
X92909500Y-47905155D01*
X92909500Y-49454100D01*
X92889815Y-49521139D01*
X92837011Y-49566894D01*
X92785500Y-49578100D01*
X75583408Y-49578100D01*
X75516369Y-49558415D01*
X75470614Y-49505611D01*
X75460005Y-49441946D01*
X75495500Y-49081544D01*
X75495500Y-48332800D01*
X75515185Y-48265761D01*
X75567989Y-48220006D01*
X75619500Y-48208800D01*
X75948245Y-48208800D01*
X75948248Y-48208800D01*
X76309596Y-48173211D01*
X76378921Y-48159421D01*
X76665695Y-48102379D01*
X76665703Y-48102376D01*
X76665716Y-48102374D01*
X76755274Y-48075207D01*
X77013179Y-47996973D01*
X77348636Y-47858022D01*
X77668858Y-47686859D01*
X77970762Y-47485133D01*
X78251439Y-47254787D01*
X78344307Y-47161917D01*
X78378964Y-47137509D01*
X78728097Y-46972381D01*
X79065239Y-46770306D01*
X79380951Y-46536158D01*
X79672192Y-46272192D01*
X79936158Y-45980951D01*
X80170306Y-45665239D01*
X80372381Y-45328097D01*
X80540438Y-44972772D01*
X80672857Y-44602684D01*
X80768364Y-44221400D01*
X80826038Y-43832591D01*
X80845325Y-43440000D01*
X80826038Y-43047409D01*
X80768364Y-42658600D01*
X80672857Y-42277316D01*
X80540438Y-41907228D01*
X80372381Y-41551903D01*
X80366128Y-41541471D01*
X80170307Y-41214763D01*
X80170306Y-41214761D01*
X79936158Y-40899049D01*
X79936153Y-40899043D01*
X79672192Y-40607807D01*
X79380956Y-40343846D01*
X79065236Y-40109692D01*
X78728100Y-39907620D01*
X78372772Y-39739562D01*
X78372770Y-39739561D01*
X78002684Y-39607143D01*
X77621406Y-39511637D01*
X77621401Y-39511636D01*
X77621400Y-39511636D01*
X77477256Y-39490254D01*
X77232599Y-39453963D01*
X77232597Y-39453962D01*
X77232591Y-39453962D01*
X76840000Y-39434675D01*
X76447409Y-39453962D01*
X76447403Y-39453962D01*
X76447400Y-39453963D01*
X76058593Y-39511637D01*
X75677315Y-39607143D01*
X75307229Y-39739561D01*
X75307227Y-39739562D01*
X74951899Y-39907620D01*
X74614763Y-40109692D01*
X74299043Y-40343846D01*
X74007807Y-40607807D01*
X73854395Y-40777073D01*
X73794789Y-40813527D01*
X73762517Y-40817800D01*
X71981548Y-40817800D01*
X71618452Y-40817800D01*
X71536038Y-40825916D01*
X71257104Y-40853388D01*
X70901004Y-40924220D01*
X70900993Y-40924223D01*
X70553520Y-41029627D01*
X70218062Y-41168579D01*
X70218057Y-41168581D01*
X69897853Y-41339734D01*
X69897835Y-41339745D01*
X69595946Y-41541461D01*
X69595932Y-41541471D01*
X69315255Y-41771817D01*
X69058517Y-42028555D01*
X68828171Y-42309232D01*
X68828161Y-42309246D01*
X68626445Y-42611135D01*
X68626434Y-42611153D01*
X68455281Y-42931357D01*
X68455279Y-42931362D01*
X68316327Y-43266820D01*
X68210923Y-43614293D01*
X68210920Y-43614304D01*
X68140088Y-43970404D01*
X68104500Y-44331755D01*
X68104500Y-45141030D01*
X68084815Y-45208069D01*
X68032011Y-45253824D01*
X67962853Y-45263768D01*
X67956310Y-45262648D01*
X67842887Y-45240087D01*
X67557315Y-45211962D01*
X67481548Y-45204500D01*
X67118452Y-45204500D01*
X67036038Y-45212616D01*
X66757104Y-45240088D01*
X66401004Y-45310920D01*
X66400993Y-45310923D01*
X66053520Y-45416327D01*
X65718071Y-45555275D01*
X65718057Y-45555282D01*
X65432084Y-45708137D01*
X65422878Y-45712580D01*
X65272558Y-45777629D01*
X65272554Y-45777631D01*
X65124472Y-45865207D01*
X65001732Y-45937796D01*
X65001728Y-45937798D01*
X65001723Y-45937802D01*
X65001722Y-45937802D01*
X64753120Y-46130637D01*
X64753120Y-46130638D01*
X64530638Y-46353120D01*
X64530637Y-46353120D01*
X64337802Y-46601722D01*
X64337802Y-46601723D01*
X64337798Y-46601728D01*
X64337796Y-46601732D01*
X64273441Y-46710550D01*
X64177631Y-46872554D01*
X64177629Y-46872558D01*
X64112580Y-47022878D01*
X64108137Y-47032084D01*
X63955282Y-47318057D01*
X63955275Y-47318071D01*
X63816327Y-47653520D01*
X63710923Y-48000993D01*
X63710920Y-48001004D01*
X63640088Y-48357104D01*
X63604500Y-48718455D01*
X63604500Y-50007261D01*
X63584815Y-50074300D01*
X63532011Y-50120055D01*
X63462853Y-50129999D01*
X63433053Y-50121825D01*
X63419777Y-50116326D01*
X63072306Y-50010923D01*
X63072295Y-50010920D01*
X62716195Y-49940088D01*
X62444042Y-49913284D01*
X62354848Y-49904500D01*
X62354845Y-49904500D01*
X61568089Y-49904500D01*
X61526316Y-49897252D01*
X61162684Y-49767143D01*
X60781406Y-49671637D01*
X60781401Y-49671636D01*
X60781400Y-49671636D01*
X60518927Y-49632702D01*
X60392599Y-49613963D01*
X60392597Y-49613962D01*
X60392591Y-49613962D01*
X60000000Y-49594675D01*
X59607409Y-49613962D01*
X59607403Y-49613962D01*
X59607400Y-49613963D01*
X59218593Y-49671637D01*
X58837315Y-49767143D01*
X58656021Y-49832011D01*
X58473683Y-49897252D01*
X58431911Y-49904500D01*
X56514500Y-49904500D01*
X56447461Y-49884815D01*
X56401706Y-49832011D01*
X56390500Y-49780500D01*
X56390500Y-48005155D01*
X56384325Y-47874219D01*
X56384325Y-47874214D01*
X56335106Y-47563456D01*
X56335104Y-47563448D01*
X56247325Y-47261315D01*
X56247324Y-47261311D01*
X56122367Y-46972552D01*
X55962204Y-46701732D01*
X55962197Y-46701722D01*
X55769362Y-46453120D01*
X55546879Y-46230637D01*
X55298277Y-46037802D01*
X55298271Y-46037798D01*
X55298268Y-46037796D01*
X55112886Y-45928161D01*
X55027447Y-45877632D01*
X54738684Y-45752674D01*
X54436551Y-45664895D01*
X54436543Y-45664893D01*
X54125782Y-45615674D01*
X53994844Y-45609500D01*
X53994840Y-45609500D01*
X52005160Y-45609500D01*
X52005156Y-45609500D01*
X51874219Y-45615674D01*
X51874214Y-45615674D01*
X51563456Y-45664893D01*
X51563448Y-45664895D01*
X51261315Y-45752674D01*
X50972550Y-45877633D01*
X50972546Y-45877635D01*
X50813121Y-45971920D01*
X50745397Y-45989103D01*
X50686879Y-45971920D01*
X50527453Y-45877635D01*
X50527449Y-45877633D01*
X50377117Y-45812579D01*
X50367915Y-45808138D01*
X50081936Y-45655278D01*
X49986324Y-45615674D01*
X49746480Y-45516327D01*
X49399006Y-45410923D01*
X49398995Y-45410920D01*
X49042895Y-45340088D01*
X48770742Y-45313284D01*
X48681548Y-45304500D01*
X48318452Y-45304500D01*
X48236038Y-45312616D01*
X47957104Y-45340088D01*
X47601004Y-45410920D01*
X47600993Y-45410923D01*
X47253520Y-45516327D01*
X46918061Y-45655279D01*
X46918056Y-45655281D01*
X46632083Y-45808138D01*
X46622881Y-45812579D01*
X46589687Y-45826943D01*
X46472552Y-45877632D01*
X46313122Y-45971920D01*
X46201732Y-46037796D01*
X46201728Y-46037798D01*
X46201723Y-46037802D01*
X46201722Y-46037802D01*
X45953120Y-46230637D01*
X45953120Y-46230638D01*
X45730638Y-46453120D01*
X45730637Y-46453120D01*
X45537800Y-46701725D01*
X45460563Y-46832325D01*
X45449685Y-46847867D01*
X45328169Y-46995934D01*
X45328161Y-46995946D01*
X45126445Y-47297835D01*
X45126434Y-47297853D01*
X44955281Y-47618056D01*
X44955279Y-47618061D01*
X44816327Y-47953519D01*
X44779415Y-48075206D01*
X44710924Y-48300989D01*
X44640088Y-48657104D01*
X44604500Y-49018455D01*
X44604500Y-50774102D01*
X44584815Y-50841141D01*
X44532011Y-50886896D01*
X44527953Y-50888663D01*
X44270561Y-50995279D01*
X44270556Y-50995281D01*
X43950353Y-51166434D01*
X43950335Y-51166445D01*
X43648445Y-51368161D01*
X43648431Y-51368171D01*
X43367755Y-51598517D01*
X40255217Y-54711055D01*
X40024871Y-54991732D01*
X40024861Y-54991746D01*
X39823145Y-55293635D01*
X39823134Y-55293653D01*
X39651981Y-55613856D01*
X39651979Y-55613861D01*
X39513027Y-55949319D01*
X39423203Y-56245433D01*
X39407625Y-56296787D01*
X39407620Y-56296804D01*
X39336788Y-56652904D01*
X39301200Y-57014255D01*
X39301200Y-60485500D01*
X39281515Y-60552539D01*
X39228711Y-60598294D01*
X39177200Y-60609500D01*
X34895156Y-60609500D01*
X34764219Y-60615674D01*
X34764214Y-60615674D01*
X34453456Y-60664893D01*
X34453448Y-60664895D01*
X34151315Y-60752674D01*
X33862552Y-60877632D01*
X33701094Y-60973119D01*
X33591732Y-61037796D01*
X33591728Y-61037798D01*
X33591723Y-61037802D01*
X33591722Y-61037802D01*
X33343120Y-61230637D01*
X33343120Y-61230638D01*
X33120638Y-61453120D01*
X33120637Y-61453120D01*
X32927802Y-61701722D01*
X32927802Y-61701723D01*
X32927798Y-61701728D01*
X32927796Y-61701732D01*
X32863119Y-61811094D01*
X32767632Y-61972552D01*
X32738302Y-62040332D01*
X32693611Y-62094040D01*
X32626979Y-62115061D01*
X32559559Y-62096721D01*
X32512758Y-62044842D01*
X32500500Y-61991086D01*
X32500500Y-29624500D01*
X32520185Y-29557461D01*
X32572989Y-29511706D01*
X32624500Y-29500500D01*
X188375500Y-29500500D01*
X188442539Y-29520185D01*
G37*
%TD.AperFunction*%
%TD*%
M02*
