M48
; DRILL file {KiCad 8.0.5-8.0.5-0~ubuntu24.04.1} date 2024-10-11T03:00:45+0200
; FORMAT={-:-/ absolute / inch / decimal}
; #@! TF.CreationDate,2024-10-11T03:00:45+02:00
; #@! TF.GenerationSoftware,Kicad,Pcbnew,8.0.5-8.0.5-0~ubuntu24.04.1
; #@! TF.FileFunction,Plated,1,2,PTH
FMAT,2
INCH
; #@! TA.AperFunction,Plated,PTH,ViaDrill
T1C0.0118
; #@! TA.AperFunction,Plated,PTH,ComponentDrill
T2C0.0394
; #@! TA.AperFunction,Plated,PTH,ComponentDrill
T3C0.0630
%
G90
G05
T1
X1.6142Y-2.5591
X1.6142Y-2.7559
X1.6142Y-2.9528
X1.6142Y-3.1496
X1.6142Y-3.3465
X1.6142Y-3.5433
X1.6535Y-3.5827
X1.7717Y-3.6614
X1.9685Y-1.7717
X1.9685Y-3.6614
X2.0866Y-2.2835
X2.0866Y-2.5591
X2.0866Y-2.7559
X2.0866Y-2.9528
X2.0866Y-3.1496
X2.0866Y-3.3465
X2.1654Y-1.7717
X2.1654Y-3.6614
X2.3622Y-1.7717
X2.3622Y-2.2835
X2.3622Y-3.6614
X2.5591Y-1.7717
X2.5591Y-2.2835
X2.5591Y-3.6614
X2.7559Y-1.7717
X2.7559Y-2.2835
X2.7559Y-3.6614
X2.9528Y-1.7717
X2.9528Y-2.2835
X2.9528Y-3.6614
X3.1496Y-1.7717
X3.1496Y-2.2835
X3.1496Y-3.1496
X3.1496Y-3.6614
X3.3465Y-1.7717
X3.3465Y-2.2835
X3.3465Y-3.1496
X3.3465Y-3.6614
X3.5433Y-1.7717
X3.5433Y-2.2835
X3.5433Y-3.1496
X3.5433Y-3.6614
X3.7402Y-1.7717
X3.7402Y-2.2835
X3.7402Y-3.6614
X3.937Y-1.7717
X3.937Y-2.2835
X3.937Y-3.6614
X4.1339Y-1.7717
X4.1339Y-2.2835
X4.1339Y-3.1496
X4.1339Y-3.6614
X4.3307Y-1.7717
X4.3307Y-2.2835
X4.3307Y-3.1496
X4.3307Y-3.6614
X4.5276Y-1.7717
X4.5276Y-2.2835
X4.5276Y-3.1496
X4.5276Y-3.6614
X4.7244Y-1.7717
X4.7244Y-2.2835
X4.7244Y-3.6614
X4.9213Y-1.7717
X4.9213Y-2.2835
X5.1181Y-1.7717
X5.1181Y-2.2835
X5.1181Y-3.6614
X5.315Y-1.7717
X5.315Y-2.2835
X5.315Y-3.1496
X5.5118Y-1.7717
X5.5118Y-2.2835
X5.5118Y-3.1496
X5.5118Y-3.6614
X5.7087Y-1.7717
X5.7087Y-2.2835
X5.9055Y-1.7717
X5.9055Y-2.2835
X5.9055Y-3.6614
X6.1024Y-1.7717
X6.1024Y-2.2835
X6.1024Y-2.6378
X6.2992Y-1.7717
X6.2992Y-2.2835
X6.2992Y-2.6378
X6.2992Y-3.1496
X6.2992Y-3.6614
X6.4961Y-1.7717
X6.4961Y-2.2835
X6.4961Y-2.6378
X6.4961Y-3.1496
X6.6929Y-1.7717
X6.6929Y-2.2835
X6.6929Y-2.6378
X6.6929Y-3.1496
T2
X1.9031Y-3.4055
X2.3622Y-2.0409
X2.9528Y-3.4055
X3.1496Y-2.0276
X3.8386Y-2.0236
X3.9764Y-3.4055
X4.685Y-2.0213
X5.0394Y-3.4055
X5.5709Y-2.0276
X6.2598Y-3.4315
T3
X2.3622Y-2.6157
X2.478Y-3.4055
X3.1496Y-2.6024
X3.5276Y-3.4055
X3.8386Y-2.5984
X4.5512Y-3.4055
X4.685Y-2.5961
X5.5709Y-2.6024
X5.6142Y-3.4055
X6.2598Y-2.8567
M30
