%TF.GenerationSoftware,KiCad,Pcbnew,8.0.5-8.0.5-0~ubuntu24.04.1*%
%TF.CreationDate,2024-10-12T11:33:38+02:00*%
%TF.ProjectId,diplexer,6469706c-6578-4657-922e-6b696361645f,rev?*%
%TF.SameCoordinates,Original*%
%TF.FileFunction,Copper,L2,Bot*%
%TF.FilePolarity,Positive*%
%FSLAX46Y46*%
G04 Gerber Fmt 4.6, Leading zero omitted, Abs format (unit mm)*
G04 Created by KiCad (PCBNEW 8.0.5-8.0.5-0~ubuntu24.04.1) date 2024-10-12 11:33:38*
%MOMM*%
%LPD*%
G01*
G04 APERTURE LIST*
%TA.AperFunction,ComponentPad*%
%ADD10C,3.000000*%
%TD*%
%TA.AperFunction,ComponentPad*%
%ADD11C,5.600000*%
%TD*%
%TA.AperFunction,ComponentPad*%
%ADD12C,2.000000*%
%TD*%
G04 APERTURE END LIST*
D10*
%TO.P,L10,1,1*%
%TO.N,Net-(J1-In)*%
X42400000Y-83000000D03*
%TO.P,L10,2,2*%
%TO.N,Net-(C6-Pad2)*%
X57000000Y-83000000D03*
%TD*%
%TO.P,L2,1,1*%
%TO.N,Net-(C2-Pad2)*%
X76840000Y-43440000D03*
%TO.P,L2,2,2*%
%TO.N,GND*%
X91440000Y-43440000D03*
%TD*%
%TO.P,L4,1,1*%
%TO.N,Net-(C4-Pad2)*%
X120840000Y-43440000D03*
%TO.P,L4,2,2*%
%TO.N,GND*%
X135440000Y-43440000D03*
%TD*%
%TO.P,L6,1,1*%
%TO.N,Net-(C9-Pad2)*%
X139400000Y-83000000D03*
%TO.P,L6,2,2*%
%TO.N,Net-(J3-In)*%
X154000000Y-83000000D03*
%TD*%
%TO.P,L7,1,1*%
%TO.N,Net-(C8-Pad2)*%
X127000000Y-94160000D03*
%TO.P,L7,2,2*%
%TO.N,Net-(C9-Pad2)*%
X127000000Y-79560000D03*
%TD*%
%TO.P,L9,1,1*%
%TO.N,Net-(C6-Pad2)*%
X77000000Y-94600000D03*
%TO.P,L9,2,2*%
%TO.N,Net-(C7-Pad2)*%
X77000000Y-80000000D03*
%TD*%
%TO.P,L8,1,1*%
%TO.N,Net-(C7-Pad2)*%
X91000000Y-84000000D03*
%TO.P,L8,2,2*%
%TO.N,Net-(C8-Pad2)*%
X105600000Y-84000000D03*
%TD*%
%TO.P,L3,1,1*%
%TO.N,Net-(C3-Pad2)*%
X110000000Y-53600000D03*
%TO.P,L3,2,2*%
%TO.N,GND*%
X110000000Y-39000000D03*
%TD*%
%TO.P,L1,1,1*%
%TO.N,Net-(C1-Pad2)*%
X60000000Y-53600000D03*
%TO.P,L1,2,2*%
%TO.N,GND*%
X60000000Y-39000000D03*
%TD*%
D11*
%TO.P,J5,1,Pin_1*%
%TO.N,GND*%
X36000000Y-33000000D03*
%TD*%
%TO.P,J7,1,Pin_1*%
%TO.N,GND*%
X185000000Y-33000000D03*
%TD*%
%TO.P,J11,1,Pin_1*%
%TO.N,GND*%
X185000000Y-65000000D03*
%TD*%
%TO.P,J10,1,Pin_1*%
%TO.N,GND*%
X134000000Y-65000000D03*
%TD*%
%TO.P,J8,1,Pin_1*%
%TO.N,GND*%
X50000000Y-65000000D03*
%TD*%
%TO.P,J6,1,Pin_1*%
%TO.N,GND*%
X185000000Y-97000000D03*
%TD*%
D12*
%TO.P,L5,1,1*%
%TO.N,Net-(J2-In)*%
X151000000Y-52600000D03*
D10*
%TO.P,L5,2,2*%
%TO.N,GND*%
X151000000Y-38000000D03*
%TD*%
D11*
%TO.P,J4,1,Pin_1*%
%TO.N,GND*%
X36000000Y-97000000D03*
%TD*%
%TO.P,J9,1,Pin_1*%
%TO.N,GND*%
X96000000Y-65000000D03*
%TD*%
%TA.AperFunction,Conductor*%
%TO.N,GND*%
G36*
X188442539Y-29520185D02*
G01*
X188488294Y-29572989D01*
X188499500Y-29624500D01*
X188499500Y-100375500D01*
X188479815Y-100442539D01*
X188427011Y-100488294D01*
X188375500Y-100499500D01*
X32624500Y-100499500D01*
X32557461Y-100479815D01*
X32511706Y-100427011D01*
X32500500Y-100375500D01*
X32500500Y-94600000D01*
X72994675Y-94600000D01*
X73013962Y-94992591D01*
X73013962Y-94992597D01*
X73013963Y-94992599D01*
X73071637Y-95381406D01*
X73167143Y-95762684D01*
X73299561Y-96132770D01*
X73299562Y-96132772D01*
X73467620Y-96488100D01*
X73669692Y-96825236D01*
X73903846Y-97140956D01*
X74167807Y-97432192D01*
X74459043Y-97696153D01*
X74459049Y-97696158D01*
X74774761Y-97930306D01*
X74774763Y-97930307D01*
X75111899Y-98132379D01*
X75111902Y-98132380D01*
X75111903Y-98132381D01*
X75467228Y-98300438D01*
X75837316Y-98432857D01*
X76218600Y-98528364D01*
X76607409Y-98586038D01*
X77000000Y-98605325D01*
X77392591Y-98586038D01*
X77781400Y-98528364D01*
X78162684Y-98432857D01*
X78532772Y-98300438D01*
X78888097Y-98132381D01*
X79225239Y-97930306D01*
X79540951Y-97696158D01*
X79832192Y-97432192D01*
X80096158Y-97140951D01*
X80330306Y-96825239D01*
X80532381Y-96488097D01*
X80700438Y-96132772D01*
X80832857Y-95762684D01*
X80928364Y-95381400D01*
X80986038Y-94992591D01*
X81005325Y-94600000D01*
X80986038Y-94207409D01*
X80979006Y-94160000D01*
X122994675Y-94160000D01*
X123013962Y-94552591D01*
X123013962Y-94552597D01*
X123013963Y-94552599D01*
X123071637Y-94941406D01*
X123167143Y-95322684D01*
X123299561Y-95692770D01*
X123299562Y-95692772D01*
X123467620Y-96048100D01*
X123669692Y-96385236D01*
X123903846Y-96700956D01*
X124167807Y-96992192D01*
X124331943Y-97140956D01*
X124459049Y-97256158D01*
X124774761Y-97490306D01*
X124774763Y-97490307D01*
X125111899Y-97692379D01*
X125111902Y-97692380D01*
X125111903Y-97692381D01*
X125467228Y-97860438D01*
X125837316Y-97992857D01*
X126218600Y-98088364D01*
X126607409Y-98146038D01*
X127000000Y-98165325D01*
X127392591Y-98146038D01*
X127781400Y-98088364D01*
X128162684Y-97992857D01*
X128532772Y-97860438D01*
X128888097Y-97692381D01*
X129225239Y-97490306D01*
X129540951Y-97256158D01*
X129832192Y-96992192D01*
X130096158Y-96700951D01*
X130330306Y-96385239D01*
X130532381Y-96048097D01*
X130700438Y-95692772D01*
X130832857Y-95322684D01*
X130928364Y-94941400D01*
X130986038Y-94552591D01*
X131005325Y-94160000D01*
X130986038Y-93767409D01*
X130928364Y-93378600D01*
X130832857Y-92997316D01*
X130700438Y-92627228D01*
X130532381Y-92271903D01*
X130330306Y-91934761D01*
X130096158Y-91619049D01*
X129991744Y-91503846D01*
X129832192Y-91327807D01*
X129540956Y-91063846D01*
X129319443Y-90899561D01*
X129225239Y-90829694D01*
X129225236Y-90829692D01*
X128888100Y-90627620D01*
X128532772Y-90459562D01*
X128532770Y-90459561D01*
X128162684Y-90327143D01*
X127781406Y-90231637D01*
X127781401Y-90231636D01*
X127781400Y-90231636D01*
X127637256Y-90210254D01*
X127392599Y-90173963D01*
X127392597Y-90173962D01*
X127392591Y-90173962D01*
X127000000Y-90154675D01*
X126607409Y-90173962D01*
X126607403Y-90173962D01*
X126607400Y-90173963D01*
X126218593Y-90231637D01*
X125837315Y-90327143D01*
X125467229Y-90459561D01*
X125467227Y-90459562D01*
X125111899Y-90627620D01*
X124774763Y-90829692D01*
X124459043Y-91063846D01*
X124167807Y-91327807D01*
X123903846Y-91619043D01*
X123669692Y-91934763D01*
X123467620Y-92271899D01*
X123299562Y-92627227D01*
X123299561Y-92627229D01*
X123167143Y-92997315D01*
X123071637Y-93378593D01*
X123062927Y-93437315D01*
X123013962Y-93767409D01*
X122994675Y-94160000D01*
X80979006Y-94160000D01*
X80928364Y-93818600D01*
X80832857Y-93437316D01*
X80700438Y-93067228D01*
X80532381Y-92711903D01*
X80481629Y-92627229D01*
X80330307Y-92374763D01*
X80254018Y-92271899D01*
X80096158Y-92059049D01*
X79983510Y-91934761D01*
X79832192Y-91767807D01*
X79540956Y-91503846D01*
X79303596Y-91327808D01*
X79225239Y-91269694D01*
X79225236Y-91269692D01*
X78888100Y-91067620D01*
X78532772Y-90899562D01*
X78532770Y-90899561D01*
X78162684Y-90767143D01*
X77781406Y-90671637D01*
X77781401Y-90671636D01*
X77781400Y-90671636D01*
X77637256Y-90650254D01*
X77392599Y-90613963D01*
X77392597Y-90613962D01*
X77392591Y-90613962D01*
X77000000Y-90594675D01*
X76607409Y-90613962D01*
X76607403Y-90613962D01*
X76607400Y-90613963D01*
X76218593Y-90671637D01*
X75837315Y-90767143D01*
X75467229Y-90899561D01*
X75467227Y-90899562D01*
X75111899Y-91067620D01*
X74774763Y-91269692D01*
X74459043Y-91503846D01*
X74167807Y-91767807D01*
X73903846Y-92059043D01*
X73669692Y-92374763D01*
X73467620Y-92711899D01*
X73299562Y-93067227D01*
X73299561Y-93067229D01*
X73167143Y-93437315D01*
X73071637Y-93818593D01*
X73071636Y-93818600D01*
X73013962Y-94207409D01*
X72994675Y-94600000D01*
X32500500Y-94600000D01*
X32500500Y-83000000D01*
X38394675Y-83000000D01*
X38413962Y-83392591D01*
X38413962Y-83392597D01*
X38413963Y-83392599D01*
X38445826Y-83607400D01*
X38459626Y-83700438D01*
X38471637Y-83781406D01*
X38567143Y-84162684D01*
X38699561Y-84532770D01*
X38699562Y-84532772D01*
X38867620Y-84888100D01*
X39069692Y-85225236D01*
X39303846Y-85540956D01*
X39567807Y-85832192D01*
X39859043Y-86096153D01*
X39859049Y-86096158D01*
X40174761Y-86330306D01*
X40174763Y-86330307D01*
X40511899Y-86532379D01*
X40511902Y-86532380D01*
X40511903Y-86532381D01*
X40867228Y-86700438D01*
X41237316Y-86832857D01*
X41618600Y-86928364D01*
X42007409Y-86986038D01*
X42400000Y-87005325D01*
X42792591Y-86986038D01*
X43181400Y-86928364D01*
X43562684Y-86832857D01*
X43932772Y-86700438D01*
X44288097Y-86532381D01*
X44625239Y-86330306D01*
X44940951Y-86096158D01*
X45232192Y-85832192D01*
X45496158Y-85540951D01*
X45730306Y-85225239D01*
X45932381Y-84888097D01*
X46100438Y-84532772D01*
X46232857Y-84162684D01*
X46328364Y-83781400D01*
X46386038Y-83392591D01*
X46405325Y-83000000D01*
X52994675Y-83000000D01*
X53013962Y-83392591D01*
X53013962Y-83392597D01*
X53013963Y-83392599D01*
X53045826Y-83607400D01*
X53059626Y-83700438D01*
X53071637Y-83781406D01*
X53167143Y-84162684D01*
X53299561Y-84532770D01*
X53299562Y-84532772D01*
X53467620Y-84888100D01*
X53669692Y-85225236D01*
X53903846Y-85540956D01*
X54167807Y-85832192D01*
X54459043Y-86096153D01*
X54459049Y-86096158D01*
X54774761Y-86330306D01*
X54774763Y-86330307D01*
X55111899Y-86532379D01*
X55111902Y-86532380D01*
X55111903Y-86532381D01*
X55467228Y-86700438D01*
X55837316Y-86832857D01*
X56218600Y-86928364D01*
X56607409Y-86986038D01*
X57000000Y-87005325D01*
X57392591Y-86986038D01*
X57781400Y-86928364D01*
X58162684Y-86832857D01*
X58532772Y-86700438D01*
X58888097Y-86532381D01*
X59225239Y-86330306D01*
X59540951Y-86096158D01*
X59832192Y-85832192D01*
X60096158Y-85540951D01*
X60330306Y-85225239D01*
X60532381Y-84888097D01*
X60700438Y-84532772D01*
X60832857Y-84162684D01*
X60928364Y-83781400D01*
X60986038Y-83392591D01*
X61005325Y-83000000D01*
X60986038Y-82607409D01*
X60928364Y-82218600D01*
X60832857Y-81837316D01*
X60700438Y-81467228D01*
X60532381Y-81111903D01*
X60520914Y-81092772D01*
X60330307Y-80774763D01*
X60291683Y-80722684D01*
X60096158Y-80459049D01*
X60096153Y-80459043D01*
X59832192Y-80167807D01*
X59647046Y-80000000D01*
X72994675Y-80000000D01*
X73013962Y-80392591D01*
X73013962Y-80392597D01*
X73013963Y-80392599D01*
X73071637Y-80781406D01*
X73167143Y-81162684D01*
X73299561Y-81532770D01*
X73299562Y-81532772D01*
X73467620Y-81888100D01*
X73665715Y-82218600D01*
X73669694Y-82225239D01*
X73849165Y-82467228D01*
X73903846Y-82540956D01*
X74167807Y-82832192D01*
X74459043Y-83096153D01*
X74459049Y-83096158D01*
X74774761Y-83330306D01*
X74774763Y-83330307D01*
X75111899Y-83532379D01*
X75111902Y-83532380D01*
X75111903Y-83532381D01*
X75467228Y-83700438D01*
X75837316Y-83832857D01*
X76218600Y-83928364D01*
X76607409Y-83986038D01*
X77000000Y-84005325D01*
X77108392Y-84000000D01*
X86994675Y-84000000D01*
X87013962Y-84392591D01*
X87013962Y-84392597D01*
X87013963Y-84392599D01*
X87071637Y-84781406D01*
X87167143Y-85162684D01*
X87299561Y-85532770D01*
X87299562Y-85532772D01*
X87467620Y-85888100D01*
X87669692Y-86225236D01*
X87903846Y-86540956D01*
X88167807Y-86832192D01*
X88358829Y-87005324D01*
X88459049Y-87096158D01*
X88774761Y-87330306D01*
X88774763Y-87330307D01*
X89111899Y-87532379D01*
X89111902Y-87532380D01*
X89111903Y-87532381D01*
X89467228Y-87700438D01*
X89837316Y-87832857D01*
X90218600Y-87928364D01*
X90607409Y-87986038D01*
X91000000Y-88005325D01*
X91392591Y-87986038D01*
X91781400Y-87928364D01*
X92162684Y-87832857D01*
X92532772Y-87700438D01*
X92888097Y-87532381D01*
X93225239Y-87330306D01*
X93540951Y-87096158D01*
X93832192Y-86832192D01*
X94096158Y-86540951D01*
X94330306Y-86225239D01*
X94532381Y-85888097D01*
X94700438Y-85532772D01*
X94832857Y-85162684D01*
X94928364Y-84781400D01*
X94986038Y-84392591D01*
X95005325Y-84000000D01*
X101594675Y-84000000D01*
X101613962Y-84392591D01*
X101613962Y-84392597D01*
X101613963Y-84392599D01*
X101671637Y-84781406D01*
X101767143Y-85162684D01*
X101899561Y-85532770D01*
X101899562Y-85532772D01*
X102067620Y-85888100D01*
X102269692Y-86225236D01*
X102503846Y-86540956D01*
X102767807Y-86832192D01*
X102958829Y-87005324D01*
X103059049Y-87096158D01*
X103374761Y-87330306D01*
X103374763Y-87330307D01*
X103711899Y-87532379D01*
X103711902Y-87532380D01*
X103711903Y-87532381D01*
X104067228Y-87700438D01*
X104437316Y-87832857D01*
X104818600Y-87928364D01*
X105207409Y-87986038D01*
X105600000Y-88005325D01*
X105992591Y-87986038D01*
X106381400Y-87928364D01*
X106762684Y-87832857D01*
X107132772Y-87700438D01*
X107488097Y-87532381D01*
X107825239Y-87330306D01*
X108140951Y-87096158D01*
X108432192Y-86832192D01*
X108696158Y-86540951D01*
X108930306Y-86225239D01*
X109132381Y-85888097D01*
X109300438Y-85532772D01*
X109432857Y-85162684D01*
X109528364Y-84781400D01*
X109586038Y-84392591D01*
X109605325Y-84000000D01*
X109586038Y-83607409D01*
X109528364Y-83218600D01*
X109432857Y-82837316D01*
X109300438Y-82467228D01*
X109132381Y-82111903D01*
X108930306Y-81774761D01*
X108696158Y-81459049D01*
X108696153Y-81459043D01*
X108432192Y-81167807D01*
X108140956Y-80903846D01*
X107896687Y-80722684D01*
X107825239Y-80669694D01*
X107825236Y-80669692D01*
X107488100Y-80467620D01*
X107132772Y-80299562D01*
X107132770Y-80299561D01*
X106762684Y-80167143D01*
X106381406Y-80071637D01*
X106381401Y-80071636D01*
X106381400Y-80071636D01*
X106237256Y-80050254D01*
X105992599Y-80013963D01*
X105992597Y-80013962D01*
X105992591Y-80013962D01*
X105600000Y-79994675D01*
X105207409Y-80013962D01*
X105207403Y-80013962D01*
X105207400Y-80013963D01*
X104818593Y-80071637D01*
X104437315Y-80167143D01*
X104067229Y-80299561D01*
X104067227Y-80299562D01*
X103711899Y-80467620D01*
X103374763Y-80669692D01*
X103059043Y-80903846D01*
X102767807Y-81167807D01*
X102503846Y-81459043D01*
X102269692Y-81774763D01*
X102067620Y-82111899D01*
X101899562Y-82467227D01*
X101899561Y-82467229D01*
X101767143Y-82837315D01*
X101671637Y-83218593D01*
X101620205Y-83565325D01*
X101613962Y-83607409D01*
X101594675Y-84000000D01*
X95005325Y-84000000D01*
X94986038Y-83607409D01*
X94928364Y-83218600D01*
X94832857Y-82837316D01*
X94700438Y-82467228D01*
X94532381Y-82111903D01*
X94330306Y-81774761D01*
X94096158Y-81459049D01*
X94096153Y-81459043D01*
X93832192Y-81167807D01*
X93540956Y-80903846D01*
X93296687Y-80722684D01*
X93225239Y-80669694D01*
X93225236Y-80669692D01*
X92888100Y-80467620D01*
X92532772Y-80299562D01*
X92532770Y-80299561D01*
X92162684Y-80167143D01*
X91781406Y-80071637D01*
X91781401Y-80071636D01*
X91781400Y-80071636D01*
X91637256Y-80050254D01*
X91392599Y-80013963D01*
X91392597Y-80013962D01*
X91392591Y-80013962D01*
X91000000Y-79994675D01*
X90607409Y-80013962D01*
X90607403Y-80013962D01*
X90607400Y-80013963D01*
X90218593Y-80071637D01*
X89837315Y-80167143D01*
X89467229Y-80299561D01*
X89467227Y-80299562D01*
X89111899Y-80467620D01*
X88774763Y-80669692D01*
X88459043Y-80903846D01*
X88167807Y-81167807D01*
X87903846Y-81459043D01*
X87669692Y-81774763D01*
X87467620Y-82111899D01*
X87299562Y-82467227D01*
X87299561Y-82467229D01*
X87167143Y-82837315D01*
X87071637Y-83218593D01*
X87020205Y-83565325D01*
X87013962Y-83607409D01*
X86994675Y-84000000D01*
X77108392Y-84000000D01*
X77392591Y-83986038D01*
X77781400Y-83928364D01*
X78162684Y-83832857D01*
X78532772Y-83700438D01*
X78888097Y-83532381D01*
X79225239Y-83330306D01*
X79540951Y-83096158D01*
X79832192Y-82832192D01*
X80096158Y-82540951D01*
X80330306Y-82225239D01*
X80532381Y-81888097D01*
X80700438Y-81532772D01*
X80832857Y-81162684D01*
X80928364Y-80781400D01*
X80986038Y-80392591D01*
X81005325Y-80000000D01*
X80986038Y-79607409D01*
X80979006Y-79560000D01*
X122994675Y-79560000D01*
X123013962Y-79952591D01*
X123013962Y-79952597D01*
X123013963Y-79952599D01*
X123071637Y-80341406D01*
X123167143Y-80722684D01*
X123299561Y-81092770D01*
X123299562Y-81092772D01*
X123467620Y-81448100D01*
X123669692Y-81785236D01*
X123903846Y-82100956D01*
X124167807Y-82392192D01*
X124459043Y-82656153D01*
X124459049Y-82656158D01*
X124774761Y-82890306D01*
X124774763Y-82890307D01*
X125111899Y-83092379D01*
X125111902Y-83092380D01*
X125111903Y-83092381D01*
X125467228Y-83260438D01*
X125837316Y-83392857D01*
X126218600Y-83488364D01*
X126607409Y-83546038D01*
X127000000Y-83565325D01*
X127392591Y-83546038D01*
X127781400Y-83488364D01*
X128162684Y-83392857D01*
X128532772Y-83260438D01*
X128888097Y-83092381D01*
X129042225Y-83000000D01*
X135394675Y-83000000D01*
X135413962Y-83392591D01*
X135413962Y-83392597D01*
X135413963Y-83392599D01*
X135445826Y-83607400D01*
X135459626Y-83700438D01*
X135471637Y-83781406D01*
X135567143Y-84162684D01*
X135699561Y-84532770D01*
X135699562Y-84532772D01*
X135867620Y-84888100D01*
X136069692Y-85225236D01*
X136303846Y-85540956D01*
X136567807Y-85832192D01*
X136859043Y-86096153D01*
X136859049Y-86096158D01*
X137174761Y-86330306D01*
X137174763Y-86330307D01*
X137511899Y-86532379D01*
X137511902Y-86532380D01*
X137511903Y-86532381D01*
X137867228Y-86700438D01*
X138237316Y-86832857D01*
X138618600Y-86928364D01*
X139007409Y-86986038D01*
X139400000Y-87005325D01*
X139792591Y-86986038D01*
X140181400Y-86928364D01*
X140562684Y-86832857D01*
X140932772Y-86700438D01*
X141288097Y-86532381D01*
X141625239Y-86330306D01*
X141940951Y-86096158D01*
X142232192Y-85832192D01*
X142496158Y-85540951D01*
X142730306Y-85225239D01*
X142932381Y-84888097D01*
X143100438Y-84532772D01*
X143232857Y-84162684D01*
X143328364Y-83781400D01*
X143386038Y-83392591D01*
X143405325Y-83000000D01*
X149994675Y-83000000D01*
X150013962Y-83392591D01*
X150013962Y-83392597D01*
X150013963Y-83392599D01*
X150045826Y-83607400D01*
X150059626Y-83700438D01*
X150071637Y-83781406D01*
X150167143Y-84162684D01*
X150299561Y-84532770D01*
X150299562Y-84532772D01*
X150467620Y-84888100D01*
X150669692Y-85225236D01*
X150903846Y-85540956D01*
X151167807Y-85832192D01*
X151459043Y-86096153D01*
X151459049Y-86096158D01*
X151774761Y-86330306D01*
X151774763Y-86330307D01*
X152111899Y-86532379D01*
X152111902Y-86532380D01*
X152111903Y-86532381D01*
X152467228Y-86700438D01*
X152837316Y-86832857D01*
X153218600Y-86928364D01*
X153607409Y-86986038D01*
X154000000Y-87005325D01*
X154392591Y-86986038D01*
X154781400Y-86928364D01*
X155162684Y-86832857D01*
X155532772Y-86700438D01*
X155888097Y-86532381D01*
X156225239Y-86330306D01*
X156540951Y-86096158D01*
X156832192Y-85832192D01*
X157096158Y-85540951D01*
X157330306Y-85225239D01*
X157532381Y-84888097D01*
X157700438Y-84532772D01*
X157832857Y-84162684D01*
X157928364Y-83781400D01*
X157986038Y-83392591D01*
X158005325Y-83000000D01*
X157986038Y-82607409D01*
X157928364Y-82218600D01*
X157832857Y-81837316D01*
X157700438Y-81467228D01*
X157532381Y-81111903D01*
X157520914Y-81092772D01*
X157330307Y-80774763D01*
X157291683Y-80722684D01*
X157096158Y-80459049D01*
X157096153Y-80459043D01*
X156832192Y-80167807D01*
X156540956Y-79903846D01*
X156225236Y-79669692D01*
X155888100Y-79467620D01*
X155532772Y-79299562D01*
X155532770Y-79299561D01*
X155162684Y-79167143D01*
X154781406Y-79071637D01*
X154781401Y-79071636D01*
X154781400Y-79071636D01*
X154637256Y-79050254D01*
X154392599Y-79013963D01*
X154392597Y-79013962D01*
X154392591Y-79013962D01*
X154000000Y-78994675D01*
X153607409Y-79013962D01*
X153607403Y-79013962D01*
X153607400Y-79013963D01*
X153218593Y-79071637D01*
X152837315Y-79167143D01*
X152467229Y-79299561D01*
X152467227Y-79299562D01*
X152111899Y-79467620D01*
X151774763Y-79669692D01*
X151459043Y-79903846D01*
X151167807Y-80167807D01*
X150903846Y-80459043D01*
X150669692Y-80774763D01*
X150467620Y-81111899D01*
X150299562Y-81467227D01*
X150299561Y-81467229D01*
X150167143Y-81837315D01*
X150071637Y-82218593D01*
X150034756Y-82467229D01*
X150013962Y-82607409D01*
X149994675Y-83000000D01*
X143405325Y-83000000D01*
X143386038Y-82607409D01*
X143328364Y-82218600D01*
X143232857Y-81837316D01*
X143100438Y-81467228D01*
X142932381Y-81111903D01*
X142920914Y-81092772D01*
X142730307Y-80774763D01*
X142691683Y-80722684D01*
X142496158Y-80459049D01*
X142496153Y-80459043D01*
X142232192Y-80167807D01*
X141940956Y-79903846D01*
X141625236Y-79669692D01*
X141288100Y-79467620D01*
X140932772Y-79299562D01*
X140932770Y-79299561D01*
X140562684Y-79167143D01*
X140181406Y-79071637D01*
X140181401Y-79071636D01*
X140181400Y-79071636D01*
X140037256Y-79050254D01*
X139792599Y-79013963D01*
X139792597Y-79013962D01*
X139792591Y-79013962D01*
X139400000Y-78994675D01*
X139007409Y-79013962D01*
X139007403Y-79013962D01*
X139007400Y-79013963D01*
X138618593Y-79071637D01*
X138237315Y-79167143D01*
X137867229Y-79299561D01*
X137867227Y-79299562D01*
X137511899Y-79467620D01*
X137174763Y-79669692D01*
X136859043Y-79903846D01*
X136567807Y-80167807D01*
X136303846Y-80459043D01*
X136069692Y-80774763D01*
X135867620Y-81111899D01*
X135699562Y-81467227D01*
X135699561Y-81467229D01*
X135567143Y-81837315D01*
X135471637Y-82218593D01*
X135434756Y-82467229D01*
X135413962Y-82607409D01*
X135394675Y-83000000D01*
X129042225Y-83000000D01*
X129225239Y-82890306D01*
X129540951Y-82656158D01*
X129832192Y-82392192D01*
X130096158Y-82100951D01*
X130330306Y-81785239D01*
X130532381Y-81448097D01*
X130700438Y-81092772D01*
X130832857Y-80722684D01*
X130928364Y-80341400D01*
X130986038Y-79952591D01*
X131005325Y-79560000D01*
X130986038Y-79167409D01*
X130928364Y-78778600D01*
X130832857Y-78397316D01*
X130700438Y-78027228D01*
X130532381Y-77671903D01*
X130330306Y-77334761D01*
X130096158Y-77019049D01*
X129991744Y-76903846D01*
X129832192Y-76727807D01*
X129540956Y-76463846D01*
X129319443Y-76299561D01*
X129225239Y-76229694D01*
X129225236Y-76229692D01*
X128888100Y-76027620D01*
X128532772Y-75859562D01*
X128532770Y-75859561D01*
X128162684Y-75727143D01*
X127781406Y-75631637D01*
X127781401Y-75631636D01*
X127781400Y-75631636D01*
X127637256Y-75610254D01*
X127392599Y-75573963D01*
X127392597Y-75573962D01*
X127392591Y-75573962D01*
X127000000Y-75554675D01*
X126607409Y-75573962D01*
X126607403Y-75573962D01*
X126607400Y-75573963D01*
X126218593Y-75631637D01*
X125837315Y-75727143D01*
X125467229Y-75859561D01*
X125467227Y-75859562D01*
X125111899Y-76027620D01*
X124774763Y-76229692D01*
X124459043Y-76463846D01*
X124167807Y-76727807D01*
X123903846Y-77019043D01*
X123669692Y-77334763D01*
X123467620Y-77671899D01*
X123299562Y-78027227D01*
X123299561Y-78027229D01*
X123167143Y-78397315D01*
X123071637Y-78778593D01*
X123036724Y-79013962D01*
X123013962Y-79167409D01*
X122994675Y-79560000D01*
X80979006Y-79560000D01*
X80928364Y-79218600D01*
X80832857Y-78837316D01*
X80700438Y-78467228D01*
X80532381Y-78111903D01*
X80481629Y-78027229D01*
X80330307Y-77774763D01*
X80254018Y-77671899D01*
X80096158Y-77459049D01*
X79983510Y-77334761D01*
X79832192Y-77167807D01*
X79540956Y-76903846D01*
X79303596Y-76727808D01*
X79225239Y-76669694D01*
X79225236Y-76669692D01*
X78888100Y-76467620D01*
X78532772Y-76299562D01*
X78532770Y-76299561D01*
X78162684Y-76167143D01*
X77781406Y-76071637D01*
X77781401Y-76071636D01*
X77781400Y-76071636D01*
X77637256Y-76050254D01*
X77392599Y-76013963D01*
X77392597Y-76013962D01*
X77392591Y-76013962D01*
X77000000Y-75994675D01*
X76607409Y-76013962D01*
X76607403Y-76013962D01*
X76607400Y-76013963D01*
X76218593Y-76071637D01*
X75837315Y-76167143D01*
X75467229Y-76299561D01*
X75467227Y-76299562D01*
X75111899Y-76467620D01*
X74774763Y-76669692D01*
X74459043Y-76903846D01*
X74167807Y-77167807D01*
X73903846Y-77459043D01*
X73669692Y-77774763D01*
X73467620Y-78111899D01*
X73299562Y-78467227D01*
X73299561Y-78467229D01*
X73167143Y-78837315D01*
X73071637Y-79218593D01*
X73034698Y-79467620D01*
X73013962Y-79607409D01*
X72994675Y-80000000D01*
X59647046Y-80000000D01*
X59540956Y-79903846D01*
X59225236Y-79669692D01*
X58888100Y-79467620D01*
X58532772Y-79299562D01*
X58532770Y-79299561D01*
X58162684Y-79167143D01*
X57781406Y-79071637D01*
X57781401Y-79071636D01*
X57781400Y-79071636D01*
X57637256Y-79050254D01*
X57392599Y-79013963D01*
X57392597Y-79013962D01*
X57392591Y-79013962D01*
X57000000Y-78994675D01*
X56607409Y-79013962D01*
X56607403Y-79013962D01*
X56607400Y-79013963D01*
X56218593Y-79071637D01*
X55837315Y-79167143D01*
X55467229Y-79299561D01*
X55467227Y-79299562D01*
X55111899Y-79467620D01*
X54774763Y-79669692D01*
X54459043Y-79903846D01*
X54167807Y-80167807D01*
X53903846Y-80459043D01*
X53669692Y-80774763D01*
X53467620Y-81111899D01*
X53299562Y-81467227D01*
X53299561Y-81467229D01*
X53167143Y-81837315D01*
X53071637Y-82218593D01*
X53034756Y-82467229D01*
X53013962Y-82607409D01*
X52994675Y-83000000D01*
X46405325Y-83000000D01*
X46386038Y-82607409D01*
X46328364Y-82218600D01*
X46232857Y-81837316D01*
X46100438Y-81467228D01*
X45932381Y-81111903D01*
X45920914Y-81092772D01*
X45730307Y-80774763D01*
X45691683Y-80722684D01*
X45496158Y-80459049D01*
X45496153Y-80459043D01*
X45232192Y-80167807D01*
X44940956Y-79903846D01*
X44625236Y-79669692D01*
X44288100Y-79467620D01*
X43932772Y-79299562D01*
X43932770Y-79299561D01*
X43562684Y-79167143D01*
X43181406Y-79071637D01*
X43181401Y-79071636D01*
X43181400Y-79071636D01*
X43037256Y-79050254D01*
X42792599Y-79013963D01*
X42792597Y-79013962D01*
X42792591Y-79013962D01*
X42400000Y-78994675D01*
X42007409Y-79013962D01*
X42007403Y-79013962D01*
X42007400Y-79013963D01*
X41618593Y-79071637D01*
X41237315Y-79167143D01*
X40867229Y-79299561D01*
X40867227Y-79299562D01*
X40511899Y-79467620D01*
X40174763Y-79669692D01*
X39859043Y-79903846D01*
X39567807Y-80167807D01*
X39303846Y-80459043D01*
X39069692Y-80774763D01*
X38867620Y-81111899D01*
X38699562Y-81467227D01*
X38699561Y-81467229D01*
X38567143Y-81837315D01*
X38471637Y-82218593D01*
X38434756Y-82467229D01*
X38413962Y-82607409D01*
X38394675Y-83000000D01*
X32500500Y-83000000D01*
X32500500Y-53600000D01*
X55994675Y-53600000D01*
X56013962Y-53992591D01*
X56013962Y-53992597D01*
X56013963Y-53992599D01*
X56071637Y-54381406D01*
X56167143Y-54762684D01*
X56299561Y-55132770D01*
X56299562Y-55132772D01*
X56467620Y-55488100D01*
X56655918Y-55802255D01*
X56669694Y-55825239D01*
X56877404Y-56105304D01*
X56903846Y-56140956D01*
X57167807Y-56432192D01*
X57459043Y-56696153D01*
X57459049Y-56696158D01*
X57774761Y-56930306D01*
X57774763Y-56930307D01*
X58111899Y-57132379D01*
X58111902Y-57132380D01*
X58111903Y-57132381D01*
X58467228Y-57300438D01*
X58837316Y-57432857D01*
X59218600Y-57528364D01*
X59607409Y-57586038D01*
X60000000Y-57605325D01*
X60392591Y-57586038D01*
X60781400Y-57528364D01*
X61162684Y-57432857D01*
X61532772Y-57300438D01*
X61888097Y-57132381D01*
X62225239Y-56930306D01*
X62540951Y-56696158D01*
X62832192Y-56432192D01*
X63096158Y-56140951D01*
X63330306Y-55825239D01*
X63532381Y-55488097D01*
X63700438Y-55132772D01*
X63832857Y-54762684D01*
X63928364Y-54381400D01*
X63986038Y-53992591D01*
X64005325Y-53600000D01*
X105994675Y-53600000D01*
X106013962Y-53992591D01*
X106013962Y-53992597D01*
X106013963Y-53992599D01*
X106071637Y-54381406D01*
X106167143Y-54762684D01*
X106299561Y-55132770D01*
X106299562Y-55132772D01*
X106467620Y-55488100D01*
X106655918Y-55802255D01*
X106669694Y-55825239D01*
X106877404Y-56105304D01*
X106903846Y-56140956D01*
X107167807Y-56432192D01*
X107459043Y-56696153D01*
X107459049Y-56696158D01*
X107774761Y-56930306D01*
X107774763Y-56930307D01*
X108111899Y-57132379D01*
X108111902Y-57132380D01*
X108111903Y-57132381D01*
X108467228Y-57300438D01*
X108837316Y-57432857D01*
X109218600Y-57528364D01*
X109607409Y-57586038D01*
X110000000Y-57605325D01*
X110392591Y-57586038D01*
X110781400Y-57528364D01*
X111162684Y-57432857D01*
X111532772Y-57300438D01*
X111888097Y-57132381D01*
X112225239Y-56930306D01*
X112540951Y-56696158D01*
X112832192Y-56432192D01*
X113096158Y-56140951D01*
X113330306Y-55825239D01*
X113532381Y-55488097D01*
X113700438Y-55132772D01*
X113832857Y-54762684D01*
X113928364Y-54381400D01*
X113986038Y-53992591D01*
X114005325Y-53600000D01*
X113986038Y-53207409D01*
X113928364Y-52818600D01*
X113873607Y-52599999D01*
X147494696Y-52599999D01*
X147494696Y-52600000D01*
X147513898Y-52966405D01*
X147571294Y-53328788D01*
X147571294Y-53328790D01*
X147666260Y-53683206D01*
X147797746Y-54025739D01*
X147964320Y-54352656D01*
X148164147Y-54660364D01*
X148368736Y-54913010D01*
X148395051Y-54945506D01*
X148654494Y-55204949D01*
X148654498Y-55204952D01*
X148939635Y-55435852D01*
X149247343Y-55635679D01*
X149247348Y-55635682D01*
X149574264Y-55802255D01*
X149916801Y-55933742D01*
X150271206Y-56028705D01*
X150633596Y-56086102D01*
X150979734Y-56104241D01*
X150999999Y-56105304D01*
X151000000Y-56105304D01*
X151000001Y-56105304D01*
X151019203Y-56104297D01*
X151366404Y-56086102D01*
X151728794Y-56028705D01*
X152083199Y-55933742D01*
X152425736Y-55802255D01*
X152752652Y-55635682D01*
X153060366Y-55435851D01*
X153345506Y-55204949D01*
X153604949Y-54945506D01*
X153835851Y-54660366D01*
X154035682Y-54352652D01*
X154202255Y-54025736D01*
X154333742Y-53683199D01*
X154428705Y-53328794D01*
X154486102Y-52966404D01*
X154505304Y-52600000D01*
X154486102Y-52233596D01*
X154428705Y-51871206D01*
X154333742Y-51516801D01*
X154202255Y-51174264D01*
X154035682Y-50847348D01*
X154035679Y-50847343D01*
X153835852Y-50539635D01*
X153604952Y-50254498D01*
X153604949Y-50254494D01*
X153345506Y-49995051D01*
X153227586Y-49899561D01*
X153060364Y-49764147D01*
X152752656Y-49564320D01*
X152425739Y-49397746D01*
X152083206Y-49266260D01*
X152083199Y-49266258D01*
X151728794Y-49171295D01*
X151728790Y-49171294D01*
X151728789Y-49171294D01*
X151366405Y-49113898D01*
X151000001Y-49094696D01*
X150999999Y-49094696D01*
X150633594Y-49113898D01*
X150271211Y-49171294D01*
X150271209Y-49171294D01*
X149916793Y-49266260D01*
X149574260Y-49397746D01*
X149247343Y-49564320D01*
X148939635Y-49764147D01*
X148654498Y-49995047D01*
X148654490Y-49995054D01*
X148395054Y-50254490D01*
X148395047Y-50254498D01*
X148164147Y-50539635D01*
X147964320Y-50847343D01*
X147797746Y-51174260D01*
X147666260Y-51516793D01*
X147571294Y-51871209D01*
X147571294Y-51871211D01*
X147513898Y-52233594D01*
X147494696Y-52599999D01*
X113873607Y-52599999D01*
X113832857Y-52437316D01*
X113700438Y-52067228D01*
X113532381Y-51711903D01*
X113330306Y-51374761D01*
X113096158Y-51059049D01*
X113096153Y-51059043D01*
X112832192Y-50767807D01*
X112540956Y-50503846D01*
X112225236Y-50269692D01*
X111888100Y-50067620D01*
X111532772Y-49899562D01*
X111532770Y-49899561D01*
X111162684Y-49767143D01*
X110781406Y-49671637D01*
X110781401Y-49671636D01*
X110781400Y-49671636D01*
X110637256Y-49650254D01*
X110392599Y-49613963D01*
X110392597Y-49613962D01*
X110392591Y-49613962D01*
X110000000Y-49594675D01*
X109607409Y-49613962D01*
X109607403Y-49613962D01*
X109607400Y-49613963D01*
X109218593Y-49671637D01*
X108837315Y-49767143D01*
X108467229Y-49899561D01*
X108467227Y-49899562D01*
X108111899Y-50067620D01*
X107774763Y-50269692D01*
X107459043Y-50503846D01*
X107167807Y-50767807D01*
X106903846Y-51059043D01*
X106669692Y-51374763D01*
X106467620Y-51711899D01*
X106299562Y-52067227D01*
X106299561Y-52067229D01*
X106167143Y-52437315D01*
X106071637Y-52818593D01*
X106071636Y-52818600D01*
X106013962Y-53207409D01*
X105994675Y-53600000D01*
X64005325Y-53600000D01*
X63986038Y-53207409D01*
X63928364Y-52818600D01*
X63832857Y-52437316D01*
X63700438Y-52067228D01*
X63532381Y-51711903D01*
X63330306Y-51374761D01*
X63096158Y-51059049D01*
X63096153Y-51059043D01*
X62832192Y-50767807D01*
X62540956Y-50503846D01*
X62225236Y-50269692D01*
X61888100Y-50067620D01*
X61532772Y-49899562D01*
X61532770Y-49899561D01*
X61162684Y-49767143D01*
X60781406Y-49671637D01*
X60781401Y-49671636D01*
X60781400Y-49671636D01*
X60637256Y-49650254D01*
X60392599Y-49613963D01*
X60392597Y-49613962D01*
X60392591Y-49613962D01*
X60000000Y-49594675D01*
X59607409Y-49613962D01*
X59607403Y-49613962D01*
X59607400Y-49613963D01*
X59218593Y-49671637D01*
X58837315Y-49767143D01*
X58467229Y-49899561D01*
X58467227Y-49899562D01*
X58111899Y-50067620D01*
X57774763Y-50269692D01*
X57459043Y-50503846D01*
X57167807Y-50767807D01*
X56903846Y-51059043D01*
X56669692Y-51374763D01*
X56467620Y-51711899D01*
X56299562Y-52067227D01*
X56299561Y-52067229D01*
X56167143Y-52437315D01*
X56071637Y-52818593D01*
X56071636Y-52818600D01*
X56013962Y-53207409D01*
X55994675Y-53600000D01*
X32500500Y-53600000D01*
X32500500Y-43440000D01*
X72834675Y-43440000D01*
X72853962Y-43832591D01*
X72853962Y-43832597D01*
X72853963Y-43832599D01*
X72911637Y-44221406D01*
X73007143Y-44602684D01*
X73139561Y-44972770D01*
X73139562Y-44972772D01*
X73307620Y-45328100D01*
X73509692Y-45665236D01*
X73743846Y-45980956D01*
X74007807Y-46272192D01*
X74299043Y-46536153D01*
X74299049Y-46536158D01*
X74614761Y-46770306D01*
X74614763Y-46770307D01*
X74951899Y-46972379D01*
X74951902Y-46972380D01*
X74951903Y-46972381D01*
X75307228Y-47140438D01*
X75677316Y-47272857D01*
X76058600Y-47368364D01*
X76447409Y-47426038D01*
X76840000Y-47445325D01*
X77232591Y-47426038D01*
X77621400Y-47368364D01*
X78002684Y-47272857D01*
X78372772Y-47140438D01*
X78728097Y-46972381D01*
X79065239Y-46770306D01*
X79380951Y-46536158D01*
X79672192Y-46272192D01*
X79936158Y-45980951D01*
X80170306Y-45665239D01*
X80372381Y-45328097D01*
X80540438Y-44972772D01*
X80672857Y-44602684D01*
X80768364Y-44221400D01*
X80826038Y-43832591D01*
X80845325Y-43440000D01*
X116834675Y-43440000D01*
X116853962Y-43832591D01*
X116853962Y-43832597D01*
X116853963Y-43832599D01*
X116911637Y-44221406D01*
X117007143Y-44602684D01*
X117139561Y-44972770D01*
X117139562Y-44972772D01*
X117307620Y-45328100D01*
X117509692Y-45665236D01*
X117743846Y-45980956D01*
X118007807Y-46272192D01*
X118299043Y-46536153D01*
X118299049Y-46536158D01*
X118614761Y-46770306D01*
X118614763Y-46770307D01*
X118951899Y-46972379D01*
X118951902Y-46972380D01*
X118951903Y-46972381D01*
X119307228Y-47140438D01*
X119677316Y-47272857D01*
X120058600Y-47368364D01*
X120447409Y-47426038D01*
X120840000Y-47445325D01*
X121232591Y-47426038D01*
X121621400Y-47368364D01*
X122002684Y-47272857D01*
X122372772Y-47140438D01*
X122728097Y-46972381D01*
X123065239Y-46770306D01*
X123380951Y-46536158D01*
X123672192Y-46272192D01*
X123936158Y-45980951D01*
X124170306Y-45665239D01*
X124372381Y-45328097D01*
X124540438Y-44972772D01*
X124672857Y-44602684D01*
X124768364Y-44221400D01*
X124826038Y-43832591D01*
X124845325Y-43440000D01*
X124826038Y-43047409D01*
X124768364Y-42658600D01*
X124672857Y-42277316D01*
X124540438Y-41907228D01*
X124372381Y-41551903D01*
X124170306Y-41214761D01*
X123936158Y-40899049D01*
X123936153Y-40899043D01*
X123672192Y-40607807D01*
X123380956Y-40343846D01*
X123065236Y-40109692D01*
X122728100Y-39907620D01*
X122372772Y-39739562D01*
X122372770Y-39739561D01*
X122002684Y-39607143D01*
X121621406Y-39511637D01*
X121621401Y-39511636D01*
X121621400Y-39511636D01*
X121477256Y-39490254D01*
X121232599Y-39453963D01*
X121232597Y-39453962D01*
X121232591Y-39453962D01*
X120840000Y-39434675D01*
X120447409Y-39453962D01*
X120447403Y-39453962D01*
X120447400Y-39453963D01*
X120058593Y-39511637D01*
X119677315Y-39607143D01*
X119307229Y-39739561D01*
X119307227Y-39739562D01*
X118951899Y-39907620D01*
X118614763Y-40109692D01*
X118299043Y-40343846D01*
X118007807Y-40607807D01*
X117743846Y-40899043D01*
X117509692Y-41214763D01*
X117307620Y-41551899D01*
X117139562Y-41907227D01*
X117139561Y-41907229D01*
X117007143Y-42277315D01*
X116911637Y-42658593D01*
X116911636Y-42658600D01*
X116853962Y-43047409D01*
X116834675Y-43440000D01*
X80845325Y-43440000D01*
X80826038Y-43047409D01*
X80768364Y-42658600D01*
X80672857Y-42277316D01*
X80540438Y-41907228D01*
X80372381Y-41551903D01*
X80170306Y-41214761D01*
X79936158Y-40899049D01*
X79936153Y-40899043D01*
X79672192Y-40607807D01*
X79380956Y-40343846D01*
X79065236Y-40109692D01*
X78728100Y-39907620D01*
X78372772Y-39739562D01*
X78372770Y-39739561D01*
X78002684Y-39607143D01*
X77621406Y-39511637D01*
X77621401Y-39511636D01*
X77621400Y-39511636D01*
X77477256Y-39490254D01*
X77232599Y-39453963D01*
X77232597Y-39453962D01*
X77232591Y-39453962D01*
X76840000Y-39434675D01*
X76447409Y-39453962D01*
X76447403Y-39453962D01*
X76447400Y-39453963D01*
X76058593Y-39511637D01*
X75677315Y-39607143D01*
X75307229Y-39739561D01*
X75307227Y-39739562D01*
X74951899Y-39907620D01*
X74614763Y-40109692D01*
X74299043Y-40343846D01*
X74007807Y-40607807D01*
X73743846Y-40899043D01*
X73509692Y-41214763D01*
X73307620Y-41551899D01*
X73139562Y-41907227D01*
X73139561Y-41907229D01*
X73007143Y-42277315D01*
X72911637Y-42658593D01*
X72911636Y-42658600D01*
X72853962Y-43047409D01*
X72834675Y-43440000D01*
X32500500Y-43440000D01*
X32500500Y-29624500D01*
X32520185Y-29557461D01*
X32572989Y-29511706D01*
X32624500Y-29500500D01*
X188375500Y-29500500D01*
X188442539Y-29520185D01*
G37*
%TD.AperFunction*%
%TD*%
M02*
