%TF.GenerationSoftware,KiCad,Pcbnew,8.0.5-8.0.5-0~ubuntu24.04.1*%
%TF.CreationDate,2024-10-11T03:00:44+02:00*%
%TF.ProjectId,diplexer,6469706c-6578-4657-922e-6b696361645f,rev?*%
%TF.SameCoordinates,Original*%
%TF.FileFunction,Drillmap*%
%TF.FilePolarity,Positive*%
%FSLAX45Y45*%
G04 Gerber Fmt 4.5, Leading zero omitted, Abs format (unit mm)*
G04 Created by KiCad (PCBNEW 8.0.5-8.0.5-0~ubuntu24.04.1) date 2024-10-11 03:00:44*
%MOMM*%
%LPD*%
G01*
G04 APERTURE LIST*
%ADD10C,0.050000*%
%ADD11C,0.200000*%
%ADD12C,0.100000*%
%ADD13C,0.160000*%
G04 APERTURE END LIST*
D10*
X3200000Y-2900000D02*
X18900000Y-2900000D01*
X18900000Y-10100000D01*
X3200000Y-10100000D01*
X3200000Y-2900000D01*
D11*
D12*
X4085000Y-6485000D02*
X4115000Y-6515000D01*
X4115000Y-6485000D02*
X4085000Y-6515000D01*
X4085000Y-6985000D02*
X4115000Y-7015000D01*
X4115000Y-6985000D02*
X4085000Y-7015000D01*
X4085000Y-7485000D02*
X4115000Y-7515000D01*
X4115000Y-7485000D02*
X4085000Y-7515000D01*
X4085000Y-7985000D02*
X4115000Y-8015000D01*
X4115000Y-7985000D02*
X4085000Y-8015000D01*
X4085000Y-8485000D02*
X4115000Y-8515000D01*
X4115000Y-8485000D02*
X4085000Y-8515000D01*
X4085000Y-8985000D02*
X4115000Y-9015000D01*
X4115000Y-8985000D02*
X4085000Y-9015000D01*
X4185000Y-9085000D02*
X4215000Y-9115000D01*
X4215000Y-9085000D02*
X4185000Y-9115000D01*
X4485000Y-9285000D02*
X4515000Y-9315000D01*
X4515000Y-9285000D02*
X4485000Y-9315000D01*
X4985000Y-4485000D02*
X5015000Y-4515000D01*
X5015000Y-4485000D02*
X4985000Y-4515000D01*
X4985000Y-9285000D02*
X5015000Y-9315000D01*
X5015000Y-9285000D02*
X4985000Y-9315000D01*
X5285000Y-5785000D02*
X5315000Y-5815000D01*
X5315000Y-5785000D02*
X5285000Y-5815000D01*
X5285000Y-6485000D02*
X5315000Y-6515000D01*
X5315000Y-6485000D02*
X5285000Y-6515000D01*
X5285000Y-6985000D02*
X5315000Y-7015000D01*
X5315000Y-6985000D02*
X5285000Y-7015000D01*
X5285000Y-7485000D02*
X5315000Y-7515000D01*
X5315000Y-7485000D02*
X5285000Y-7515000D01*
X5285000Y-7985000D02*
X5315000Y-8015000D01*
X5315000Y-7985000D02*
X5285000Y-8015000D01*
X5285000Y-8485000D02*
X5315000Y-8515000D01*
X5315000Y-8485000D02*
X5285000Y-8515000D01*
X5485000Y-4485000D02*
X5515000Y-4515000D01*
X5515000Y-4485000D02*
X5485000Y-4515000D01*
X5485000Y-9285000D02*
X5515000Y-9315000D01*
X5515000Y-9285000D02*
X5485000Y-9315000D01*
X5985000Y-4485000D02*
X6015000Y-4515000D01*
X6015000Y-4485000D02*
X5985000Y-4515000D01*
X5985000Y-5785000D02*
X6015000Y-5815000D01*
X6015000Y-5785000D02*
X5985000Y-5815000D01*
X5985000Y-9285000D02*
X6015000Y-9315000D01*
X6015000Y-9285000D02*
X5985000Y-9315000D01*
X6485000Y-4485000D02*
X6515000Y-4515000D01*
X6515000Y-4485000D02*
X6485000Y-4515000D01*
X6485000Y-5785000D02*
X6515000Y-5815000D01*
X6515000Y-5785000D02*
X6485000Y-5815000D01*
X6485000Y-9285000D02*
X6515000Y-9315000D01*
X6515000Y-9285000D02*
X6485000Y-9315000D01*
X6985000Y-4485000D02*
X7015000Y-4515000D01*
X7015000Y-4485000D02*
X6985000Y-4515000D01*
X6985000Y-5785000D02*
X7015000Y-5815000D01*
X7015000Y-5785000D02*
X6985000Y-5815000D01*
X6985000Y-9285000D02*
X7015000Y-9315000D01*
X7015000Y-9285000D02*
X6985000Y-9315000D01*
X7485000Y-4485000D02*
X7515000Y-4515000D01*
X7515000Y-4485000D02*
X7485000Y-4515000D01*
X7485000Y-5785000D02*
X7515000Y-5815000D01*
X7515000Y-5785000D02*
X7485000Y-5815000D01*
X7485000Y-9285000D02*
X7515000Y-9315000D01*
X7515000Y-9285000D02*
X7485000Y-9315000D01*
X7985000Y-4485000D02*
X8015000Y-4515000D01*
X8015000Y-4485000D02*
X7985000Y-4515000D01*
X7985000Y-5785000D02*
X8015000Y-5815000D01*
X8015000Y-5785000D02*
X7985000Y-5815000D01*
X7985000Y-7985000D02*
X8015000Y-8015000D01*
X8015000Y-7985000D02*
X7985000Y-8015000D01*
X7985000Y-9285000D02*
X8015000Y-9315000D01*
X8015000Y-9285000D02*
X7985000Y-9315000D01*
X8485000Y-4485000D02*
X8515000Y-4515000D01*
X8515000Y-4485000D02*
X8485000Y-4515000D01*
X8485000Y-5785000D02*
X8515000Y-5815000D01*
X8515000Y-5785000D02*
X8485000Y-5815000D01*
X8485000Y-7985000D02*
X8515000Y-8015000D01*
X8515000Y-7985000D02*
X8485000Y-8015000D01*
X8485000Y-9285000D02*
X8515000Y-9315000D01*
X8515000Y-9285000D02*
X8485000Y-9315000D01*
X8985000Y-4485000D02*
X9015000Y-4515000D01*
X9015000Y-4485000D02*
X8985000Y-4515000D01*
X8985000Y-5785000D02*
X9015000Y-5815000D01*
X9015000Y-5785000D02*
X8985000Y-5815000D01*
X8985000Y-7985000D02*
X9015000Y-8015000D01*
X9015000Y-7985000D02*
X8985000Y-8015000D01*
X8985000Y-9285000D02*
X9015000Y-9315000D01*
X9015000Y-9285000D02*
X8985000Y-9315000D01*
X9485000Y-4485000D02*
X9515000Y-4515000D01*
X9515000Y-4485000D02*
X9485000Y-4515000D01*
X9485000Y-5785000D02*
X9515000Y-5815000D01*
X9515000Y-5785000D02*
X9485000Y-5815000D01*
X9485000Y-9285000D02*
X9515000Y-9315000D01*
X9515000Y-9285000D02*
X9485000Y-9315000D01*
X9985000Y-4485000D02*
X10015000Y-4515000D01*
X10015000Y-4485000D02*
X9985000Y-4515000D01*
X9985000Y-5785000D02*
X10015000Y-5815000D01*
X10015000Y-5785000D02*
X9985000Y-5815000D01*
X9985000Y-9285000D02*
X10015000Y-9315000D01*
X10015000Y-9285000D02*
X9985000Y-9315000D01*
X10485000Y-4485000D02*
X10515000Y-4515000D01*
X10515000Y-4485000D02*
X10485000Y-4515000D01*
X10485000Y-5785000D02*
X10515000Y-5815000D01*
X10515000Y-5785000D02*
X10485000Y-5815000D01*
X10485000Y-7985000D02*
X10515000Y-8015000D01*
X10515000Y-7985000D02*
X10485000Y-8015000D01*
X10485000Y-9285000D02*
X10515000Y-9315000D01*
X10515000Y-9285000D02*
X10485000Y-9315000D01*
X10985000Y-4485000D02*
X11015000Y-4515000D01*
X11015000Y-4485000D02*
X10985000Y-4515000D01*
X10985000Y-5785000D02*
X11015000Y-5815000D01*
X11015000Y-5785000D02*
X10985000Y-5815000D01*
X10985000Y-7985000D02*
X11015000Y-8015000D01*
X11015000Y-7985000D02*
X10985000Y-8015000D01*
X10985000Y-9285000D02*
X11015000Y-9315000D01*
X11015000Y-9285000D02*
X10985000Y-9315000D01*
X11485000Y-4485000D02*
X11515000Y-4515000D01*
X11515000Y-4485000D02*
X11485000Y-4515000D01*
X11485000Y-5785000D02*
X11515000Y-5815000D01*
X11515000Y-5785000D02*
X11485000Y-5815000D01*
X11485000Y-7985000D02*
X11515000Y-8015000D01*
X11515000Y-7985000D02*
X11485000Y-8015000D01*
X11485000Y-9285000D02*
X11515000Y-9315000D01*
X11515000Y-9285000D02*
X11485000Y-9315000D01*
X11985000Y-4485000D02*
X12015000Y-4515000D01*
X12015000Y-4485000D02*
X11985000Y-4515000D01*
X11985000Y-5785000D02*
X12015000Y-5815000D01*
X12015000Y-5785000D02*
X11985000Y-5815000D01*
X11985000Y-9285000D02*
X12015000Y-9315000D01*
X12015000Y-9285000D02*
X11985000Y-9315000D01*
X12485000Y-4485000D02*
X12515000Y-4515000D01*
X12515000Y-4485000D02*
X12485000Y-4515000D01*
X12485000Y-5785000D02*
X12515000Y-5815000D01*
X12515000Y-5785000D02*
X12485000Y-5815000D01*
X12985000Y-4485000D02*
X13015000Y-4515000D01*
X13015000Y-4485000D02*
X12985000Y-4515000D01*
X12985000Y-5785000D02*
X13015000Y-5815000D01*
X13015000Y-5785000D02*
X12985000Y-5815000D01*
X12985000Y-9285000D02*
X13015000Y-9315000D01*
X13015000Y-9285000D02*
X12985000Y-9315000D01*
X13485000Y-4485000D02*
X13515000Y-4515000D01*
X13515000Y-4485000D02*
X13485000Y-4515000D01*
X13485000Y-5785000D02*
X13515000Y-5815000D01*
X13515000Y-5785000D02*
X13485000Y-5815000D01*
X13485000Y-7985000D02*
X13515000Y-8015000D01*
X13515000Y-7985000D02*
X13485000Y-8015000D01*
X13985000Y-4485000D02*
X14015000Y-4515000D01*
X14015000Y-4485000D02*
X13985000Y-4515000D01*
X13985000Y-5785000D02*
X14015000Y-5815000D01*
X14015000Y-5785000D02*
X13985000Y-5815000D01*
X13985000Y-7985000D02*
X14015000Y-8015000D01*
X14015000Y-7985000D02*
X13985000Y-8015000D01*
X13985000Y-9285000D02*
X14015000Y-9315000D01*
X14015000Y-9285000D02*
X13985000Y-9315000D01*
X14485000Y-4485000D02*
X14515000Y-4515000D01*
X14515000Y-4485000D02*
X14485000Y-4515000D01*
X14485000Y-5785000D02*
X14515000Y-5815000D01*
X14515000Y-5785000D02*
X14485000Y-5815000D01*
X14985000Y-4485000D02*
X15015000Y-4515000D01*
X15015000Y-4485000D02*
X14985000Y-4515000D01*
X14985000Y-5785000D02*
X15015000Y-5815000D01*
X15015000Y-5785000D02*
X14985000Y-5815000D01*
X14985000Y-9285000D02*
X15015000Y-9315000D01*
X15015000Y-9285000D02*
X14985000Y-9315000D01*
X15485000Y-4485000D02*
X15515000Y-4515000D01*
X15515000Y-4485000D02*
X15485000Y-4515000D01*
X15485000Y-5785000D02*
X15515000Y-5815000D01*
X15515000Y-5785000D02*
X15485000Y-5815000D01*
X15485000Y-6685000D02*
X15515000Y-6715000D01*
X15515000Y-6685000D02*
X15485000Y-6715000D01*
X15985000Y-4485000D02*
X16015000Y-4515000D01*
X16015000Y-4485000D02*
X15985000Y-4515000D01*
X15985000Y-5785000D02*
X16015000Y-5815000D01*
X16015000Y-5785000D02*
X15985000Y-5815000D01*
X15985000Y-6685000D02*
X16015000Y-6715000D01*
X16015000Y-6685000D02*
X15985000Y-6715000D01*
X15985000Y-7985000D02*
X16015000Y-8015000D01*
X16015000Y-7985000D02*
X15985000Y-8015000D01*
X15985000Y-9285000D02*
X16015000Y-9315000D01*
X16015000Y-9285000D02*
X15985000Y-9315000D01*
X16485000Y-4485000D02*
X16515000Y-4515000D01*
X16515000Y-4485000D02*
X16485000Y-4515000D01*
X16485000Y-5785000D02*
X16515000Y-5815000D01*
X16515000Y-5785000D02*
X16485000Y-5815000D01*
X16485000Y-6685000D02*
X16515000Y-6715000D01*
X16515000Y-6685000D02*
X16485000Y-6715000D01*
X16485000Y-7985000D02*
X16515000Y-8015000D01*
X16515000Y-7985000D02*
X16485000Y-8015000D01*
X16985000Y-4485000D02*
X17015000Y-4515000D01*
X17015000Y-4485000D02*
X16985000Y-4515000D01*
X16985000Y-5785000D02*
X17015000Y-5815000D01*
X17015000Y-5785000D02*
X16985000Y-5815000D01*
X16985000Y-6685000D02*
X17015000Y-6715000D01*
X17015000Y-6685000D02*
X16985000Y-6715000D01*
X16985000Y-7985000D02*
X17015000Y-8015000D01*
X17015000Y-7985000D02*
X16985000Y-8015000D01*
X4884000Y-8650000D02*
G75*
G02*
X4784000Y-8650000I-50000J0D01*
G01*
X4784000Y-8650000D02*
G75*
G02*
X4884000Y-8650000I50000J0D01*
G01*
X6050000Y-5184000D02*
G75*
G02*
X5950000Y-5184000I-50000J0D01*
G01*
X5950000Y-5184000D02*
G75*
G02*
X6050000Y-5184000I50000J0D01*
G01*
X7550000Y-8650000D02*
G75*
G02*
X7450000Y-8650000I-50000J0D01*
G01*
X7450000Y-8650000D02*
G75*
G02*
X7550000Y-8650000I50000J0D01*
G01*
X8050000Y-5150000D02*
G75*
G02*
X7950000Y-5150000I-50000J0D01*
G01*
X7950000Y-5150000D02*
G75*
G02*
X8050000Y-5150000I50000J0D01*
G01*
X9800000Y-5140000D02*
G75*
G02*
X9700000Y-5140000I-50000J0D01*
G01*
X9700000Y-5140000D02*
G75*
G02*
X9800000Y-5140000I50000J0D01*
G01*
X10150000Y-8650000D02*
G75*
G02*
X10050000Y-8650000I-50000J0D01*
G01*
X10050000Y-8650000D02*
G75*
G02*
X10150000Y-8650000I50000J0D01*
G01*
X11950000Y-5134000D02*
G75*
G02*
X11850000Y-5134000I-50000J0D01*
G01*
X11850000Y-5134000D02*
G75*
G02*
X11950000Y-5134000I50000J0D01*
G01*
X12850000Y-8650000D02*
G75*
G02*
X12750000Y-8650000I-50000J0D01*
G01*
X12750000Y-8650000D02*
G75*
G02*
X12850000Y-8650000I50000J0D01*
G01*
X14200000Y-5150000D02*
G75*
G02*
X14100000Y-5150000I-50000J0D01*
G01*
X14100000Y-5150000D02*
G75*
G02*
X14200000Y-5150000I50000J0D01*
G01*
X15950000Y-8716000D02*
G75*
G02*
X15850000Y-8716000I-50000J0D01*
G01*
X15850000Y-8716000D02*
G75*
G02*
X15950000Y-8716000I50000J0D01*
G01*
D13*
X6000000Y-6564000D02*
X6000000Y-6724000D01*
X5920000Y-6644000D02*
X6080000Y-6644000D01*
X6294000Y-8570000D02*
X6294000Y-8730000D01*
X6214000Y-8650000D02*
X6374000Y-8650000D01*
X8000000Y-6530000D02*
X8000000Y-6690000D01*
X7920000Y-6610000D02*
X8080000Y-6610000D01*
X8960000Y-8570000D02*
X8960000Y-8730000D01*
X8880000Y-8650000D02*
X9040000Y-8650000D01*
X9750000Y-6520000D02*
X9750000Y-6680000D01*
X9670000Y-6600000D02*
X9830000Y-6600000D01*
X11560000Y-8570000D02*
X11560000Y-8730000D01*
X11480000Y-8650000D02*
X11640000Y-8650000D01*
X11900000Y-6514000D02*
X11900000Y-6674000D01*
X11820000Y-6594000D02*
X11980000Y-6594000D01*
X14150000Y-6530000D02*
X14150000Y-6690000D01*
X14070000Y-6610000D02*
X14230000Y-6610000D01*
X14260000Y-8570000D02*
X14260000Y-8730000D01*
X14180000Y-8650000D02*
X14340000Y-8650000D01*
X15900000Y-7176000D02*
X15900000Y-7336000D01*
X15820000Y-7256000D02*
X15980000Y-7256000D01*
D11*
X3458277Y-10413984D02*
X3458277Y-10213984D01*
X3458277Y-10213984D02*
X3505896Y-10213984D01*
X3505896Y-10213984D02*
X3534467Y-10223508D01*
X3534467Y-10223508D02*
X3553515Y-10242555D01*
X3553515Y-10242555D02*
X3563039Y-10261603D01*
X3563039Y-10261603D02*
X3572562Y-10299698D01*
X3572562Y-10299698D02*
X3572562Y-10328270D01*
X3572562Y-10328270D02*
X3563039Y-10366365D01*
X3563039Y-10366365D02*
X3553515Y-10385412D01*
X3553515Y-10385412D02*
X3534467Y-10404460D01*
X3534467Y-10404460D02*
X3505896Y-10413984D01*
X3505896Y-10413984D02*
X3458277Y-10413984D01*
X3658277Y-10413984D02*
X3658277Y-10280650D01*
X3658277Y-10318746D02*
X3667801Y-10299698D01*
X3667801Y-10299698D02*
X3677324Y-10290174D01*
X3677324Y-10290174D02*
X3696372Y-10280650D01*
X3696372Y-10280650D02*
X3715420Y-10280650D01*
X3782086Y-10413984D02*
X3782086Y-10280650D01*
X3782086Y-10213984D02*
X3772562Y-10223508D01*
X3772562Y-10223508D02*
X3782086Y-10233031D01*
X3782086Y-10233031D02*
X3791610Y-10223508D01*
X3791610Y-10223508D02*
X3782086Y-10213984D01*
X3782086Y-10213984D02*
X3782086Y-10233031D01*
X3905896Y-10413984D02*
X3886848Y-10404460D01*
X3886848Y-10404460D02*
X3877324Y-10385412D01*
X3877324Y-10385412D02*
X3877324Y-10213984D01*
X4010658Y-10413984D02*
X3991610Y-10404460D01*
X3991610Y-10404460D02*
X3982086Y-10385412D01*
X3982086Y-10385412D02*
X3982086Y-10213984D01*
X4239229Y-10413984D02*
X4239229Y-10213984D01*
X4239229Y-10213984D02*
X4305896Y-10356841D01*
X4305896Y-10356841D02*
X4372563Y-10213984D01*
X4372563Y-10213984D02*
X4372563Y-10413984D01*
X4553515Y-10413984D02*
X4553515Y-10309222D01*
X4553515Y-10309222D02*
X4543991Y-10290174D01*
X4543991Y-10290174D02*
X4524944Y-10280650D01*
X4524944Y-10280650D02*
X4486848Y-10280650D01*
X4486848Y-10280650D02*
X4467801Y-10290174D01*
X4553515Y-10404460D02*
X4534467Y-10413984D01*
X4534467Y-10413984D02*
X4486848Y-10413984D01*
X4486848Y-10413984D02*
X4467801Y-10404460D01*
X4467801Y-10404460D02*
X4458277Y-10385412D01*
X4458277Y-10385412D02*
X4458277Y-10366365D01*
X4458277Y-10366365D02*
X4467801Y-10347317D01*
X4467801Y-10347317D02*
X4486848Y-10337793D01*
X4486848Y-10337793D02*
X4534467Y-10337793D01*
X4534467Y-10337793D02*
X4553515Y-10328270D01*
X4648753Y-10280650D02*
X4648753Y-10480650D01*
X4648753Y-10290174D02*
X4667801Y-10280650D01*
X4667801Y-10280650D02*
X4705896Y-10280650D01*
X4705896Y-10280650D02*
X4724944Y-10290174D01*
X4724944Y-10290174D02*
X4734467Y-10299698D01*
X4734467Y-10299698D02*
X4743991Y-10318746D01*
X4743991Y-10318746D02*
X4743991Y-10375889D01*
X4743991Y-10375889D02*
X4734467Y-10394936D01*
X4734467Y-10394936D02*
X4724944Y-10404460D01*
X4724944Y-10404460D02*
X4705896Y-10413984D01*
X4705896Y-10413984D02*
X4667801Y-10413984D01*
X4667801Y-10413984D02*
X4648753Y-10404460D01*
X4829705Y-10394936D02*
X4839229Y-10404460D01*
X4839229Y-10404460D02*
X4829705Y-10413984D01*
X4829705Y-10413984D02*
X4820182Y-10404460D01*
X4820182Y-10404460D02*
X4829705Y-10394936D01*
X4829705Y-10394936D02*
X4829705Y-10413984D01*
X4829705Y-10290174D02*
X4839229Y-10299698D01*
X4839229Y-10299698D02*
X4829705Y-10309222D01*
X4829705Y-10309222D02*
X4820182Y-10299698D01*
X4820182Y-10299698D02*
X4829705Y-10290174D01*
X4829705Y-10290174D02*
X4829705Y-10309222D01*
D12*
X3167500Y-10727500D02*
X3197500Y-10757500D01*
X3197500Y-10727500D02*
X3167500Y-10757500D01*
D11*
X3496372Y-10633984D02*
X3515420Y-10633984D01*
X3515420Y-10633984D02*
X3534467Y-10643508D01*
X3534467Y-10643508D02*
X3543991Y-10653031D01*
X3543991Y-10653031D02*
X3553515Y-10672079D01*
X3553515Y-10672079D02*
X3563039Y-10710174D01*
X3563039Y-10710174D02*
X3563039Y-10757793D01*
X3563039Y-10757793D02*
X3553515Y-10795889D01*
X3553515Y-10795889D02*
X3543991Y-10814936D01*
X3543991Y-10814936D02*
X3534467Y-10824460D01*
X3534467Y-10824460D02*
X3515420Y-10833984D01*
X3515420Y-10833984D02*
X3496372Y-10833984D01*
X3496372Y-10833984D02*
X3477324Y-10824460D01*
X3477324Y-10824460D02*
X3467801Y-10814936D01*
X3467801Y-10814936D02*
X3458277Y-10795889D01*
X3458277Y-10795889D02*
X3448753Y-10757793D01*
X3448753Y-10757793D02*
X3448753Y-10710174D01*
X3448753Y-10710174D02*
X3458277Y-10672079D01*
X3458277Y-10672079D02*
X3467801Y-10653031D01*
X3467801Y-10653031D02*
X3477324Y-10643508D01*
X3477324Y-10643508D02*
X3496372Y-10633984D01*
X3648753Y-10814936D02*
X3658277Y-10824460D01*
X3658277Y-10824460D02*
X3648753Y-10833984D01*
X3648753Y-10833984D02*
X3639229Y-10824460D01*
X3639229Y-10824460D02*
X3648753Y-10814936D01*
X3648753Y-10814936D02*
X3648753Y-10833984D01*
X3724943Y-10633984D02*
X3848753Y-10633984D01*
X3848753Y-10633984D02*
X3782086Y-10710174D01*
X3782086Y-10710174D02*
X3810658Y-10710174D01*
X3810658Y-10710174D02*
X3829705Y-10719698D01*
X3829705Y-10719698D02*
X3839229Y-10729222D01*
X3839229Y-10729222D02*
X3848753Y-10748270D01*
X3848753Y-10748270D02*
X3848753Y-10795889D01*
X3848753Y-10795889D02*
X3839229Y-10814936D01*
X3839229Y-10814936D02*
X3829705Y-10824460D01*
X3829705Y-10824460D02*
X3810658Y-10833984D01*
X3810658Y-10833984D02*
X3753515Y-10833984D01*
X3753515Y-10833984D02*
X3734467Y-10824460D01*
X3734467Y-10824460D02*
X3724943Y-10814936D01*
X3972562Y-10633984D02*
X3991610Y-10633984D01*
X3991610Y-10633984D02*
X4010658Y-10643508D01*
X4010658Y-10643508D02*
X4020182Y-10653031D01*
X4020182Y-10653031D02*
X4029705Y-10672079D01*
X4029705Y-10672079D02*
X4039229Y-10710174D01*
X4039229Y-10710174D02*
X4039229Y-10757793D01*
X4039229Y-10757793D02*
X4029705Y-10795889D01*
X4029705Y-10795889D02*
X4020182Y-10814936D01*
X4020182Y-10814936D02*
X4010658Y-10824460D01*
X4010658Y-10824460D02*
X3991610Y-10833984D01*
X3991610Y-10833984D02*
X3972562Y-10833984D01*
X3972562Y-10833984D02*
X3953515Y-10824460D01*
X3953515Y-10824460D02*
X3943991Y-10814936D01*
X3943991Y-10814936D02*
X3934467Y-10795889D01*
X3934467Y-10795889D02*
X3924943Y-10757793D01*
X3924943Y-10757793D02*
X3924943Y-10710174D01*
X3924943Y-10710174D02*
X3934467Y-10672079D01*
X3934467Y-10672079D02*
X3943991Y-10653031D01*
X3943991Y-10653031D02*
X3953515Y-10643508D01*
X3953515Y-10643508D02*
X3972562Y-10633984D01*
X4163039Y-10633984D02*
X4182086Y-10633984D01*
X4182086Y-10633984D02*
X4201134Y-10643508D01*
X4201134Y-10643508D02*
X4210658Y-10653031D01*
X4210658Y-10653031D02*
X4220182Y-10672079D01*
X4220182Y-10672079D02*
X4229705Y-10710174D01*
X4229705Y-10710174D02*
X4229705Y-10757793D01*
X4229705Y-10757793D02*
X4220182Y-10795889D01*
X4220182Y-10795889D02*
X4210658Y-10814936D01*
X4210658Y-10814936D02*
X4201134Y-10824460D01*
X4201134Y-10824460D02*
X4182086Y-10833984D01*
X4182086Y-10833984D02*
X4163039Y-10833984D01*
X4163039Y-10833984D02*
X4143991Y-10824460D01*
X4143991Y-10824460D02*
X4134467Y-10814936D01*
X4134467Y-10814936D02*
X4124943Y-10795889D01*
X4124943Y-10795889D02*
X4115420Y-10757793D01*
X4115420Y-10757793D02*
X4115420Y-10710174D01*
X4115420Y-10710174D02*
X4124943Y-10672079D01*
X4124943Y-10672079D02*
X4134467Y-10653031D01*
X4134467Y-10653031D02*
X4143991Y-10643508D01*
X4143991Y-10643508D02*
X4163039Y-10633984D01*
X4315420Y-10833984D02*
X4315420Y-10700650D01*
X4315420Y-10719698D02*
X4324944Y-10710174D01*
X4324944Y-10710174D02*
X4343991Y-10700650D01*
X4343991Y-10700650D02*
X4372563Y-10700650D01*
X4372563Y-10700650D02*
X4391610Y-10710174D01*
X4391610Y-10710174D02*
X4401134Y-10729222D01*
X4401134Y-10729222D02*
X4401134Y-10833984D01*
X4401134Y-10729222D02*
X4410658Y-10710174D01*
X4410658Y-10710174D02*
X4429705Y-10700650D01*
X4429705Y-10700650D02*
X4458277Y-10700650D01*
X4458277Y-10700650D02*
X4477325Y-10710174D01*
X4477325Y-10710174D02*
X4486848Y-10729222D01*
X4486848Y-10729222D02*
X4486848Y-10833984D01*
X4582086Y-10833984D02*
X4582086Y-10700650D01*
X4582086Y-10719698D02*
X4591610Y-10710174D01*
X4591610Y-10710174D02*
X4610658Y-10700650D01*
X4610658Y-10700650D02*
X4639229Y-10700650D01*
X4639229Y-10700650D02*
X4658277Y-10710174D01*
X4658277Y-10710174D02*
X4667801Y-10729222D01*
X4667801Y-10729222D02*
X4667801Y-10833984D01*
X4667801Y-10729222D02*
X4677325Y-10710174D01*
X4677325Y-10710174D02*
X4696372Y-10700650D01*
X4696372Y-10700650D02*
X4724944Y-10700650D01*
X4724944Y-10700650D02*
X4743991Y-10710174D01*
X4743991Y-10710174D02*
X4753515Y-10729222D01*
X4753515Y-10729222D02*
X4753515Y-10833984D01*
X5143991Y-10624460D02*
X4972563Y-10881603D01*
X5401134Y-10633984D02*
X5420182Y-10633984D01*
X5420182Y-10633984D02*
X5439229Y-10643508D01*
X5439229Y-10643508D02*
X5448753Y-10653031D01*
X5448753Y-10653031D02*
X5458277Y-10672079D01*
X5458277Y-10672079D02*
X5467801Y-10710174D01*
X5467801Y-10710174D02*
X5467801Y-10757793D01*
X5467801Y-10757793D02*
X5458277Y-10795889D01*
X5458277Y-10795889D02*
X5448753Y-10814936D01*
X5448753Y-10814936D02*
X5439229Y-10824460D01*
X5439229Y-10824460D02*
X5420182Y-10833984D01*
X5420182Y-10833984D02*
X5401134Y-10833984D01*
X5401134Y-10833984D02*
X5382087Y-10824460D01*
X5382087Y-10824460D02*
X5372563Y-10814936D01*
X5372563Y-10814936D02*
X5363039Y-10795889D01*
X5363039Y-10795889D02*
X5353515Y-10757793D01*
X5353515Y-10757793D02*
X5353515Y-10710174D01*
X5353515Y-10710174D02*
X5363039Y-10672079D01*
X5363039Y-10672079D02*
X5372563Y-10653031D01*
X5372563Y-10653031D02*
X5382087Y-10643508D01*
X5382087Y-10643508D02*
X5401134Y-10633984D01*
X5553515Y-10814936D02*
X5563039Y-10824460D01*
X5563039Y-10824460D02*
X5553515Y-10833984D01*
X5553515Y-10833984D02*
X5543991Y-10824460D01*
X5543991Y-10824460D02*
X5553515Y-10814936D01*
X5553515Y-10814936D02*
X5553515Y-10833984D01*
X5686848Y-10633984D02*
X5705896Y-10633984D01*
X5705896Y-10633984D02*
X5724944Y-10643508D01*
X5724944Y-10643508D02*
X5734467Y-10653031D01*
X5734467Y-10653031D02*
X5743991Y-10672079D01*
X5743991Y-10672079D02*
X5753515Y-10710174D01*
X5753515Y-10710174D02*
X5753515Y-10757793D01*
X5753515Y-10757793D02*
X5743991Y-10795889D01*
X5743991Y-10795889D02*
X5734467Y-10814936D01*
X5734467Y-10814936D02*
X5724944Y-10824460D01*
X5724944Y-10824460D02*
X5705896Y-10833984D01*
X5705896Y-10833984D02*
X5686848Y-10833984D01*
X5686848Y-10833984D02*
X5667801Y-10824460D01*
X5667801Y-10824460D02*
X5658277Y-10814936D01*
X5658277Y-10814936D02*
X5648753Y-10795889D01*
X5648753Y-10795889D02*
X5639229Y-10757793D01*
X5639229Y-10757793D02*
X5639229Y-10710174D01*
X5639229Y-10710174D02*
X5648753Y-10672079D01*
X5648753Y-10672079D02*
X5658277Y-10653031D01*
X5658277Y-10653031D02*
X5667801Y-10643508D01*
X5667801Y-10643508D02*
X5686848Y-10633984D01*
X5943991Y-10833984D02*
X5829706Y-10833984D01*
X5886848Y-10833984D02*
X5886848Y-10633984D01*
X5886848Y-10633984D02*
X5867801Y-10662555D01*
X5867801Y-10662555D02*
X5848753Y-10681603D01*
X5848753Y-10681603D02*
X5829706Y-10691127D01*
X6134467Y-10833984D02*
X6020182Y-10833984D01*
X6077325Y-10833984D02*
X6077325Y-10633984D01*
X6077325Y-10633984D02*
X6058277Y-10662555D01*
X6058277Y-10662555D02*
X6039229Y-10681603D01*
X6039229Y-10681603D02*
X6020182Y-10691127D01*
X6248753Y-10719698D02*
X6229706Y-10710174D01*
X6229706Y-10710174D02*
X6220182Y-10700650D01*
X6220182Y-10700650D02*
X6210658Y-10681603D01*
X6210658Y-10681603D02*
X6210658Y-10672079D01*
X6210658Y-10672079D02*
X6220182Y-10653031D01*
X6220182Y-10653031D02*
X6229706Y-10643508D01*
X6229706Y-10643508D02*
X6248753Y-10633984D01*
X6248753Y-10633984D02*
X6286848Y-10633984D01*
X6286848Y-10633984D02*
X6305896Y-10643508D01*
X6305896Y-10643508D02*
X6315420Y-10653031D01*
X6315420Y-10653031D02*
X6324944Y-10672079D01*
X6324944Y-10672079D02*
X6324944Y-10681603D01*
X6324944Y-10681603D02*
X6315420Y-10700650D01*
X6315420Y-10700650D02*
X6305896Y-10710174D01*
X6305896Y-10710174D02*
X6286848Y-10719698D01*
X6286848Y-10719698D02*
X6248753Y-10719698D01*
X6248753Y-10719698D02*
X6229706Y-10729222D01*
X6229706Y-10729222D02*
X6220182Y-10738746D01*
X6220182Y-10738746D02*
X6210658Y-10757793D01*
X6210658Y-10757793D02*
X6210658Y-10795889D01*
X6210658Y-10795889D02*
X6220182Y-10814936D01*
X6220182Y-10814936D02*
X6229706Y-10824460D01*
X6229706Y-10824460D02*
X6248753Y-10833984D01*
X6248753Y-10833984D02*
X6286848Y-10833984D01*
X6286848Y-10833984D02*
X6305896Y-10824460D01*
X6305896Y-10824460D02*
X6315420Y-10814936D01*
X6315420Y-10814936D02*
X6324944Y-10795889D01*
X6324944Y-10795889D02*
X6324944Y-10757793D01*
X6324944Y-10757793D02*
X6315420Y-10738746D01*
X6315420Y-10738746D02*
X6305896Y-10729222D01*
X6305896Y-10729222D02*
X6286848Y-10719698D01*
X6401134Y-10633984D02*
X6401134Y-10672079D01*
X6477325Y-10633984D02*
X6477325Y-10672079D01*
X6772563Y-10910174D02*
X6763039Y-10900650D01*
X6763039Y-10900650D02*
X6743991Y-10872079D01*
X6743991Y-10872079D02*
X6734468Y-10853031D01*
X6734468Y-10853031D02*
X6724944Y-10824460D01*
X6724944Y-10824460D02*
X6715420Y-10776841D01*
X6715420Y-10776841D02*
X6715420Y-10738746D01*
X6715420Y-10738746D02*
X6724944Y-10691127D01*
X6724944Y-10691127D02*
X6734468Y-10662555D01*
X6734468Y-10662555D02*
X6743991Y-10643508D01*
X6743991Y-10643508D02*
X6763039Y-10614936D01*
X6763039Y-10614936D02*
X6772563Y-10605412D01*
X6858277Y-10833984D02*
X6896372Y-10833984D01*
X6896372Y-10833984D02*
X6915420Y-10824460D01*
X6915420Y-10824460D02*
X6924944Y-10814936D01*
X6924944Y-10814936D02*
X6943991Y-10786365D01*
X6943991Y-10786365D02*
X6953515Y-10748270D01*
X6953515Y-10748270D02*
X6953515Y-10672079D01*
X6953515Y-10672079D02*
X6943991Y-10653031D01*
X6943991Y-10653031D02*
X6934468Y-10643508D01*
X6934468Y-10643508D02*
X6915420Y-10633984D01*
X6915420Y-10633984D02*
X6877325Y-10633984D01*
X6877325Y-10633984D02*
X6858277Y-10643508D01*
X6858277Y-10643508D02*
X6848753Y-10653031D01*
X6848753Y-10653031D02*
X6839229Y-10672079D01*
X6839229Y-10672079D02*
X6839229Y-10719698D01*
X6839229Y-10719698D02*
X6848753Y-10738746D01*
X6848753Y-10738746D02*
X6858277Y-10748270D01*
X6858277Y-10748270D02*
X6877325Y-10757793D01*
X6877325Y-10757793D02*
X6915420Y-10757793D01*
X6915420Y-10757793D02*
X6934468Y-10748270D01*
X6934468Y-10748270D02*
X6943991Y-10738746D01*
X6943991Y-10738746D02*
X6953515Y-10719698D01*
X7124944Y-10633984D02*
X7086848Y-10633984D01*
X7086848Y-10633984D02*
X7067801Y-10643508D01*
X7067801Y-10643508D02*
X7058277Y-10653031D01*
X7058277Y-10653031D02*
X7039229Y-10681603D01*
X7039229Y-10681603D02*
X7029706Y-10719698D01*
X7029706Y-10719698D02*
X7029706Y-10795889D01*
X7029706Y-10795889D02*
X7039229Y-10814936D01*
X7039229Y-10814936D02*
X7048753Y-10824460D01*
X7048753Y-10824460D02*
X7067801Y-10833984D01*
X7067801Y-10833984D02*
X7105896Y-10833984D01*
X7105896Y-10833984D02*
X7124944Y-10824460D01*
X7124944Y-10824460D02*
X7134468Y-10814936D01*
X7134468Y-10814936D02*
X7143991Y-10795889D01*
X7143991Y-10795889D02*
X7143991Y-10748270D01*
X7143991Y-10748270D02*
X7134468Y-10729222D01*
X7134468Y-10729222D02*
X7124944Y-10719698D01*
X7124944Y-10719698D02*
X7105896Y-10710174D01*
X7105896Y-10710174D02*
X7067801Y-10710174D01*
X7067801Y-10710174D02*
X7048753Y-10719698D01*
X7048753Y-10719698D02*
X7039229Y-10729222D01*
X7039229Y-10729222D02*
X7029706Y-10748270D01*
X7382087Y-10833984D02*
X7382087Y-10633984D01*
X7467801Y-10833984D02*
X7467801Y-10729222D01*
X7467801Y-10729222D02*
X7458277Y-10710174D01*
X7458277Y-10710174D02*
X7439230Y-10700650D01*
X7439230Y-10700650D02*
X7410658Y-10700650D01*
X7410658Y-10700650D02*
X7391610Y-10710174D01*
X7391610Y-10710174D02*
X7382087Y-10719698D01*
X7591610Y-10833984D02*
X7572563Y-10824460D01*
X7572563Y-10824460D02*
X7563039Y-10814936D01*
X7563039Y-10814936D02*
X7553515Y-10795889D01*
X7553515Y-10795889D02*
X7553515Y-10738746D01*
X7553515Y-10738746D02*
X7563039Y-10719698D01*
X7563039Y-10719698D02*
X7572563Y-10710174D01*
X7572563Y-10710174D02*
X7591610Y-10700650D01*
X7591610Y-10700650D02*
X7620182Y-10700650D01*
X7620182Y-10700650D02*
X7639230Y-10710174D01*
X7639230Y-10710174D02*
X7648753Y-10719698D01*
X7648753Y-10719698D02*
X7658277Y-10738746D01*
X7658277Y-10738746D02*
X7658277Y-10795889D01*
X7658277Y-10795889D02*
X7648753Y-10814936D01*
X7648753Y-10814936D02*
X7639230Y-10824460D01*
X7639230Y-10824460D02*
X7620182Y-10833984D01*
X7620182Y-10833984D02*
X7591610Y-10833984D01*
X7772563Y-10833984D02*
X7753515Y-10824460D01*
X7753515Y-10824460D02*
X7743991Y-10805412D01*
X7743991Y-10805412D02*
X7743991Y-10633984D01*
X7924944Y-10824460D02*
X7905896Y-10833984D01*
X7905896Y-10833984D02*
X7867801Y-10833984D01*
X7867801Y-10833984D02*
X7848753Y-10824460D01*
X7848753Y-10824460D02*
X7839230Y-10805412D01*
X7839230Y-10805412D02*
X7839230Y-10729222D01*
X7839230Y-10729222D02*
X7848753Y-10710174D01*
X7848753Y-10710174D02*
X7867801Y-10700650D01*
X7867801Y-10700650D02*
X7905896Y-10700650D01*
X7905896Y-10700650D02*
X7924944Y-10710174D01*
X7924944Y-10710174D02*
X7934468Y-10729222D01*
X7934468Y-10729222D02*
X7934468Y-10748270D01*
X7934468Y-10748270D02*
X7839230Y-10767317D01*
X8010658Y-10824460D02*
X8029706Y-10833984D01*
X8029706Y-10833984D02*
X8067801Y-10833984D01*
X8067801Y-10833984D02*
X8086849Y-10824460D01*
X8086849Y-10824460D02*
X8096372Y-10805412D01*
X8096372Y-10805412D02*
X8096372Y-10795889D01*
X8096372Y-10795889D02*
X8086849Y-10776841D01*
X8086849Y-10776841D02*
X8067801Y-10767317D01*
X8067801Y-10767317D02*
X8039230Y-10767317D01*
X8039230Y-10767317D02*
X8020182Y-10757793D01*
X8020182Y-10757793D02*
X8010658Y-10738746D01*
X8010658Y-10738746D02*
X8010658Y-10729222D01*
X8010658Y-10729222D02*
X8020182Y-10710174D01*
X8020182Y-10710174D02*
X8039230Y-10700650D01*
X8039230Y-10700650D02*
X8067801Y-10700650D01*
X8067801Y-10700650D02*
X8086849Y-10710174D01*
X8163039Y-10910174D02*
X8172563Y-10900650D01*
X8172563Y-10900650D02*
X8191611Y-10872079D01*
X8191611Y-10872079D02*
X8201134Y-10853031D01*
X8201134Y-10853031D02*
X8210658Y-10824460D01*
X8210658Y-10824460D02*
X8220182Y-10776841D01*
X8220182Y-10776841D02*
X8220182Y-10738746D01*
X8220182Y-10738746D02*
X8210658Y-10691127D01*
X8210658Y-10691127D02*
X8201134Y-10662555D01*
X8201134Y-10662555D02*
X8191611Y-10643508D01*
X8191611Y-10643508D02*
X8172563Y-10614936D01*
X8172563Y-10614936D02*
X8163039Y-10605412D01*
D12*
X3197500Y-11006500D02*
G75*
G02*
X3097500Y-11006500I-50000J0D01*
G01*
X3097500Y-11006500D02*
G75*
G02*
X3197500Y-11006500I50000J0D01*
G01*
D11*
X3563039Y-11097984D02*
X3448753Y-11097984D01*
X3505896Y-11097984D02*
X3505896Y-10897984D01*
X3505896Y-10897984D02*
X3486848Y-10926555D01*
X3486848Y-10926555D02*
X3467801Y-10945603D01*
X3467801Y-10945603D02*
X3448753Y-10955127D01*
X3648753Y-11078936D02*
X3658277Y-11088460D01*
X3658277Y-11088460D02*
X3648753Y-11097984D01*
X3648753Y-11097984D02*
X3639229Y-11088460D01*
X3639229Y-11088460D02*
X3648753Y-11078936D01*
X3648753Y-11078936D02*
X3648753Y-11097984D01*
X3782086Y-10897984D02*
X3801134Y-10897984D01*
X3801134Y-10897984D02*
X3820182Y-10907508D01*
X3820182Y-10907508D02*
X3829705Y-10917031D01*
X3829705Y-10917031D02*
X3839229Y-10936079D01*
X3839229Y-10936079D02*
X3848753Y-10974174D01*
X3848753Y-10974174D02*
X3848753Y-11021793D01*
X3848753Y-11021793D02*
X3839229Y-11059889D01*
X3839229Y-11059889D02*
X3829705Y-11078936D01*
X3829705Y-11078936D02*
X3820182Y-11088460D01*
X3820182Y-11088460D02*
X3801134Y-11097984D01*
X3801134Y-11097984D02*
X3782086Y-11097984D01*
X3782086Y-11097984D02*
X3763039Y-11088460D01*
X3763039Y-11088460D02*
X3753515Y-11078936D01*
X3753515Y-11078936D02*
X3743991Y-11059889D01*
X3743991Y-11059889D02*
X3734467Y-11021793D01*
X3734467Y-11021793D02*
X3734467Y-10974174D01*
X3734467Y-10974174D02*
X3743991Y-10936079D01*
X3743991Y-10936079D02*
X3753515Y-10917031D01*
X3753515Y-10917031D02*
X3763039Y-10907508D01*
X3763039Y-10907508D02*
X3782086Y-10897984D01*
X3972562Y-10897984D02*
X3991610Y-10897984D01*
X3991610Y-10897984D02*
X4010658Y-10907508D01*
X4010658Y-10907508D02*
X4020182Y-10917031D01*
X4020182Y-10917031D02*
X4029705Y-10936079D01*
X4029705Y-10936079D02*
X4039229Y-10974174D01*
X4039229Y-10974174D02*
X4039229Y-11021793D01*
X4039229Y-11021793D02*
X4029705Y-11059889D01*
X4029705Y-11059889D02*
X4020182Y-11078936D01*
X4020182Y-11078936D02*
X4010658Y-11088460D01*
X4010658Y-11088460D02*
X3991610Y-11097984D01*
X3991610Y-11097984D02*
X3972562Y-11097984D01*
X3972562Y-11097984D02*
X3953515Y-11088460D01*
X3953515Y-11088460D02*
X3943991Y-11078936D01*
X3943991Y-11078936D02*
X3934467Y-11059889D01*
X3934467Y-11059889D02*
X3924943Y-11021793D01*
X3924943Y-11021793D02*
X3924943Y-10974174D01*
X3924943Y-10974174D02*
X3934467Y-10936079D01*
X3934467Y-10936079D02*
X3943991Y-10917031D01*
X3943991Y-10917031D02*
X3953515Y-10907508D01*
X3953515Y-10907508D02*
X3972562Y-10897984D01*
X4163039Y-10897984D02*
X4182086Y-10897984D01*
X4182086Y-10897984D02*
X4201134Y-10907508D01*
X4201134Y-10907508D02*
X4210658Y-10917031D01*
X4210658Y-10917031D02*
X4220182Y-10936079D01*
X4220182Y-10936079D02*
X4229705Y-10974174D01*
X4229705Y-10974174D02*
X4229705Y-11021793D01*
X4229705Y-11021793D02*
X4220182Y-11059889D01*
X4220182Y-11059889D02*
X4210658Y-11078936D01*
X4210658Y-11078936D02*
X4201134Y-11088460D01*
X4201134Y-11088460D02*
X4182086Y-11097984D01*
X4182086Y-11097984D02*
X4163039Y-11097984D01*
X4163039Y-11097984D02*
X4143991Y-11088460D01*
X4143991Y-11088460D02*
X4134467Y-11078936D01*
X4134467Y-11078936D02*
X4124943Y-11059889D01*
X4124943Y-11059889D02*
X4115420Y-11021793D01*
X4115420Y-11021793D02*
X4115420Y-10974174D01*
X4115420Y-10974174D02*
X4124943Y-10936079D01*
X4124943Y-10936079D02*
X4134467Y-10917031D01*
X4134467Y-10917031D02*
X4143991Y-10907508D01*
X4143991Y-10907508D02*
X4163039Y-10897984D01*
X4315420Y-11097984D02*
X4315420Y-10964650D01*
X4315420Y-10983698D02*
X4324944Y-10974174D01*
X4324944Y-10974174D02*
X4343991Y-10964650D01*
X4343991Y-10964650D02*
X4372563Y-10964650D01*
X4372563Y-10964650D02*
X4391610Y-10974174D01*
X4391610Y-10974174D02*
X4401134Y-10993222D01*
X4401134Y-10993222D02*
X4401134Y-11097984D01*
X4401134Y-10993222D02*
X4410658Y-10974174D01*
X4410658Y-10974174D02*
X4429705Y-10964650D01*
X4429705Y-10964650D02*
X4458277Y-10964650D01*
X4458277Y-10964650D02*
X4477325Y-10974174D01*
X4477325Y-10974174D02*
X4486848Y-10993222D01*
X4486848Y-10993222D02*
X4486848Y-11097984D01*
X4582086Y-11097984D02*
X4582086Y-10964650D01*
X4582086Y-10983698D02*
X4591610Y-10974174D01*
X4591610Y-10974174D02*
X4610658Y-10964650D01*
X4610658Y-10964650D02*
X4639229Y-10964650D01*
X4639229Y-10964650D02*
X4658277Y-10974174D01*
X4658277Y-10974174D02*
X4667801Y-10993222D01*
X4667801Y-10993222D02*
X4667801Y-11097984D01*
X4667801Y-10993222D02*
X4677325Y-10974174D01*
X4677325Y-10974174D02*
X4696372Y-10964650D01*
X4696372Y-10964650D02*
X4724944Y-10964650D01*
X4724944Y-10964650D02*
X4743991Y-10974174D01*
X4743991Y-10974174D02*
X4753515Y-10993222D01*
X4753515Y-10993222D02*
X4753515Y-11097984D01*
X5143991Y-10888460D02*
X4972563Y-11145603D01*
X5401134Y-10897984D02*
X5420182Y-10897984D01*
X5420182Y-10897984D02*
X5439229Y-10907508D01*
X5439229Y-10907508D02*
X5448753Y-10917031D01*
X5448753Y-10917031D02*
X5458277Y-10936079D01*
X5458277Y-10936079D02*
X5467801Y-10974174D01*
X5467801Y-10974174D02*
X5467801Y-11021793D01*
X5467801Y-11021793D02*
X5458277Y-11059889D01*
X5458277Y-11059889D02*
X5448753Y-11078936D01*
X5448753Y-11078936D02*
X5439229Y-11088460D01*
X5439229Y-11088460D02*
X5420182Y-11097984D01*
X5420182Y-11097984D02*
X5401134Y-11097984D01*
X5401134Y-11097984D02*
X5382087Y-11088460D01*
X5382087Y-11088460D02*
X5372563Y-11078936D01*
X5372563Y-11078936D02*
X5363039Y-11059889D01*
X5363039Y-11059889D02*
X5353515Y-11021793D01*
X5353515Y-11021793D02*
X5353515Y-10974174D01*
X5353515Y-10974174D02*
X5363039Y-10936079D01*
X5363039Y-10936079D02*
X5372563Y-10917031D01*
X5372563Y-10917031D02*
X5382087Y-10907508D01*
X5382087Y-10907508D02*
X5401134Y-10897984D01*
X5553515Y-11078936D02*
X5563039Y-11088460D01*
X5563039Y-11088460D02*
X5553515Y-11097984D01*
X5553515Y-11097984D02*
X5543991Y-11088460D01*
X5543991Y-11088460D02*
X5553515Y-11078936D01*
X5553515Y-11078936D02*
X5553515Y-11097984D01*
X5686848Y-10897984D02*
X5705896Y-10897984D01*
X5705896Y-10897984D02*
X5724944Y-10907508D01*
X5724944Y-10907508D02*
X5734467Y-10917031D01*
X5734467Y-10917031D02*
X5743991Y-10936079D01*
X5743991Y-10936079D02*
X5753515Y-10974174D01*
X5753515Y-10974174D02*
X5753515Y-11021793D01*
X5753515Y-11021793D02*
X5743991Y-11059889D01*
X5743991Y-11059889D02*
X5734467Y-11078936D01*
X5734467Y-11078936D02*
X5724944Y-11088460D01*
X5724944Y-11088460D02*
X5705896Y-11097984D01*
X5705896Y-11097984D02*
X5686848Y-11097984D01*
X5686848Y-11097984D02*
X5667801Y-11088460D01*
X5667801Y-11088460D02*
X5658277Y-11078936D01*
X5658277Y-11078936D02*
X5648753Y-11059889D01*
X5648753Y-11059889D02*
X5639229Y-11021793D01*
X5639229Y-11021793D02*
X5639229Y-10974174D01*
X5639229Y-10974174D02*
X5648753Y-10936079D01*
X5648753Y-10936079D02*
X5658277Y-10917031D01*
X5658277Y-10917031D02*
X5667801Y-10907508D01*
X5667801Y-10907508D02*
X5686848Y-10897984D01*
X5820182Y-10897984D02*
X5943991Y-10897984D01*
X5943991Y-10897984D02*
X5877325Y-10974174D01*
X5877325Y-10974174D02*
X5905896Y-10974174D01*
X5905896Y-10974174D02*
X5924944Y-10983698D01*
X5924944Y-10983698D02*
X5934467Y-10993222D01*
X5934467Y-10993222D02*
X5943991Y-11012270D01*
X5943991Y-11012270D02*
X5943991Y-11059889D01*
X5943991Y-11059889D02*
X5934467Y-11078936D01*
X5934467Y-11078936D02*
X5924944Y-11088460D01*
X5924944Y-11088460D02*
X5905896Y-11097984D01*
X5905896Y-11097984D02*
X5848753Y-11097984D01*
X5848753Y-11097984D02*
X5829706Y-11088460D01*
X5829706Y-11088460D02*
X5820182Y-11078936D01*
X6039229Y-11097984D02*
X6077325Y-11097984D01*
X6077325Y-11097984D02*
X6096372Y-11088460D01*
X6096372Y-11088460D02*
X6105896Y-11078936D01*
X6105896Y-11078936D02*
X6124944Y-11050365D01*
X6124944Y-11050365D02*
X6134467Y-11012270D01*
X6134467Y-11012270D02*
X6134467Y-10936079D01*
X6134467Y-10936079D02*
X6124944Y-10917031D01*
X6124944Y-10917031D02*
X6115420Y-10907508D01*
X6115420Y-10907508D02*
X6096372Y-10897984D01*
X6096372Y-10897984D02*
X6058277Y-10897984D01*
X6058277Y-10897984D02*
X6039229Y-10907508D01*
X6039229Y-10907508D02*
X6029706Y-10917031D01*
X6029706Y-10917031D02*
X6020182Y-10936079D01*
X6020182Y-10936079D02*
X6020182Y-10983698D01*
X6020182Y-10983698D02*
X6029706Y-11002746D01*
X6029706Y-11002746D02*
X6039229Y-11012270D01*
X6039229Y-11012270D02*
X6058277Y-11021793D01*
X6058277Y-11021793D02*
X6096372Y-11021793D01*
X6096372Y-11021793D02*
X6115420Y-11012270D01*
X6115420Y-11012270D02*
X6124944Y-11002746D01*
X6124944Y-11002746D02*
X6134467Y-10983698D01*
X6305896Y-10964650D02*
X6305896Y-11097984D01*
X6258277Y-10888460D02*
X6210658Y-11031317D01*
X6210658Y-11031317D02*
X6334467Y-11031317D01*
X6401134Y-10897984D02*
X6401134Y-10936079D01*
X6477325Y-10897984D02*
X6477325Y-10936079D01*
X6772563Y-11174174D02*
X6763039Y-11164650D01*
X6763039Y-11164650D02*
X6743991Y-11136079D01*
X6743991Y-11136079D02*
X6734468Y-11117031D01*
X6734468Y-11117031D02*
X6724944Y-11088460D01*
X6724944Y-11088460D02*
X6715420Y-11040841D01*
X6715420Y-11040841D02*
X6715420Y-11002746D01*
X6715420Y-11002746D02*
X6724944Y-10955127D01*
X6724944Y-10955127D02*
X6734468Y-10926555D01*
X6734468Y-10926555D02*
X6743991Y-10907508D01*
X6743991Y-10907508D02*
X6763039Y-10878936D01*
X6763039Y-10878936D02*
X6772563Y-10869412D01*
X6953515Y-11097984D02*
X6839229Y-11097984D01*
X6896372Y-11097984D02*
X6896372Y-10897984D01*
X6896372Y-10897984D02*
X6877325Y-10926555D01*
X6877325Y-10926555D02*
X6858277Y-10945603D01*
X6858277Y-10945603D02*
X6839229Y-10955127D01*
X7077325Y-10897984D02*
X7096372Y-10897984D01*
X7096372Y-10897984D02*
X7115420Y-10907508D01*
X7115420Y-10907508D02*
X7124944Y-10917031D01*
X7124944Y-10917031D02*
X7134468Y-10936079D01*
X7134468Y-10936079D02*
X7143991Y-10974174D01*
X7143991Y-10974174D02*
X7143991Y-11021793D01*
X7143991Y-11021793D02*
X7134468Y-11059889D01*
X7134468Y-11059889D02*
X7124944Y-11078936D01*
X7124944Y-11078936D02*
X7115420Y-11088460D01*
X7115420Y-11088460D02*
X7096372Y-11097984D01*
X7096372Y-11097984D02*
X7077325Y-11097984D01*
X7077325Y-11097984D02*
X7058277Y-11088460D01*
X7058277Y-11088460D02*
X7048753Y-11078936D01*
X7048753Y-11078936D02*
X7039229Y-11059889D01*
X7039229Y-11059889D02*
X7029706Y-11021793D01*
X7029706Y-11021793D02*
X7029706Y-10974174D01*
X7029706Y-10974174D02*
X7039229Y-10936079D01*
X7039229Y-10936079D02*
X7048753Y-10917031D01*
X7048753Y-10917031D02*
X7058277Y-10907508D01*
X7058277Y-10907508D02*
X7077325Y-10897984D01*
X7382087Y-11097984D02*
X7382087Y-10897984D01*
X7467801Y-11097984D02*
X7467801Y-10993222D01*
X7467801Y-10993222D02*
X7458277Y-10974174D01*
X7458277Y-10974174D02*
X7439230Y-10964650D01*
X7439230Y-10964650D02*
X7410658Y-10964650D01*
X7410658Y-10964650D02*
X7391610Y-10974174D01*
X7391610Y-10974174D02*
X7382087Y-10983698D01*
X7591610Y-11097984D02*
X7572563Y-11088460D01*
X7572563Y-11088460D02*
X7563039Y-11078936D01*
X7563039Y-11078936D02*
X7553515Y-11059889D01*
X7553515Y-11059889D02*
X7553515Y-11002746D01*
X7553515Y-11002746D02*
X7563039Y-10983698D01*
X7563039Y-10983698D02*
X7572563Y-10974174D01*
X7572563Y-10974174D02*
X7591610Y-10964650D01*
X7591610Y-10964650D02*
X7620182Y-10964650D01*
X7620182Y-10964650D02*
X7639230Y-10974174D01*
X7639230Y-10974174D02*
X7648753Y-10983698D01*
X7648753Y-10983698D02*
X7658277Y-11002746D01*
X7658277Y-11002746D02*
X7658277Y-11059889D01*
X7658277Y-11059889D02*
X7648753Y-11078936D01*
X7648753Y-11078936D02*
X7639230Y-11088460D01*
X7639230Y-11088460D02*
X7620182Y-11097984D01*
X7620182Y-11097984D02*
X7591610Y-11097984D01*
X7772563Y-11097984D02*
X7753515Y-11088460D01*
X7753515Y-11088460D02*
X7743991Y-11069412D01*
X7743991Y-11069412D02*
X7743991Y-10897984D01*
X7924944Y-11088460D02*
X7905896Y-11097984D01*
X7905896Y-11097984D02*
X7867801Y-11097984D01*
X7867801Y-11097984D02*
X7848753Y-11088460D01*
X7848753Y-11088460D02*
X7839230Y-11069412D01*
X7839230Y-11069412D02*
X7839230Y-10993222D01*
X7839230Y-10993222D02*
X7848753Y-10974174D01*
X7848753Y-10974174D02*
X7867801Y-10964650D01*
X7867801Y-10964650D02*
X7905896Y-10964650D01*
X7905896Y-10964650D02*
X7924944Y-10974174D01*
X7924944Y-10974174D02*
X7934468Y-10993222D01*
X7934468Y-10993222D02*
X7934468Y-11012270D01*
X7934468Y-11012270D02*
X7839230Y-11031317D01*
X8010658Y-11088460D02*
X8029706Y-11097984D01*
X8029706Y-11097984D02*
X8067801Y-11097984D01*
X8067801Y-11097984D02*
X8086849Y-11088460D01*
X8086849Y-11088460D02*
X8096372Y-11069412D01*
X8096372Y-11069412D02*
X8096372Y-11059889D01*
X8096372Y-11059889D02*
X8086849Y-11040841D01*
X8086849Y-11040841D02*
X8067801Y-11031317D01*
X8067801Y-11031317D02*
X8039230Y-11031317D01*
X8039230Y-11031317D02*
X8020182Y-11021793D01*
X8020182Y-11021793D02*
X8010658Y-11002746D01*
X8010658Y-11002746D02*
X8010658Y-10993222D01*
X8010658Y-10993222D02*
X8020182Y-10974174D01*
X8020182Y-10974174D02*
X8039230Y-10964650D01*
X8039230Y-10964650D02*
X8067801Y-10964650D01*
X8067801Y-10964650D02*
X8086849Y-10974174D01*
X8163039Y-11174174D02*
X8172563Y-11164650D01*
X8172563Y-11164650D02*
X8191611Y-11136079D01*
X8191611Y-11136079D02*
X8201134Y-11117031D01*
X8201134Y-11117031D02*
X8210658Y-11088460D01*
X8210658Y-11088460D02*
X8220182Y-11040841D01*
X8220182Y-11040841D02*
X8220182Y-11002746D01*
X8220182Y-11002746D02*
X8210658Y-10955127D01*
X8210658Y-10955127D02*
X8201134Y-10926555D01*
X8201134Y-10926555D02*
X8191611Y-10907508D01*
X8191611Y-10907508D02*
X8172563Y-10878936D01*
X8172563Y-10878936D02*
X8163039Y-10869412D01*
D13*
X3117500Y-11190500D02*
X3117500Y-11350500D01*
X3037500Y-11270500D02*
X3197500Y-11270500D01*
D11*
X3563039Y-11361984D02*
X3448753Y-11361984D01*
X3505896Y-11361984D02*
X3505896Y-11161984D01*
X3505896Y-11161984D02*
X3486848Y-11190555D01*
X3486848Y-11190555D02*
X3467801Y-11209603D01*
X3467801Y-11209603D02*
X3448753Y-11219127D01*
X3648753Y-11342936D02*
X3658277Y-11352460D01*
X3658277Y-11352460D02*
X3648753Y-11361984D01*
X3648753Y-11361984D02*
X3639229Y-11352460D01*
X3639229Y-11352460D02*
X3648753Y-11342936D01*
X3648753Y-11342936D02*
X3648753Y-11361984D01*
X3829705Y-11161984D02*
X3791610Y-11161984D01*
X3791610Y-11161984D02*
X3772562Y-11171508D01*
X3772562Y-11171508D02*
X3763039Y-11181031D01*
X3763039Y-11181031D02*
X3743991Y-11209603D01*
X3743991Y-11209603D02*
X3734467Y-11247698D01*
X3734467Y-11247698D02*
X3734467Y-11323888D01*
X3734467Y-11323888D02*
X3743991Y-11342936D01*
X3743991Y-11342936D02*
X3753515Y-11352460D01*
X3753515Y-11352460D02*
X3772562Y-11361984D01*
X3772562Y-11361984D02*
X3810658Y-11361984D01*
X3810658Y-11361984D02*
X3829705Y-11352460D01*
X3829705Y-11352460D02*
X3839229Y-11342936D01*
X3839229Y-11342936D02*
X3848753Y-11323888D01*
X3848753Y-11323888D02*
X3848753Y-11276269D01*
X3848753Y-11276269D02*
X3839229Y-11257222D01*
X3839229Y-11257222D02*
X3829705Y-11247698D01*
X3829705Y-11247698D02*
X3810658Y-11238174D01*
X3810658Y-11238174D02*
X3772562Y-11238174D01*
X3772562Y-11238174D02*
X3753515Y-11247698D01*
X3753515Y-11247698D02*
X3743991Y-11257222D01*
X3743991Y-11257222D02*
X3734467Y-11276269D01*
X3972562Y-11161984D02*
X3991610Y-11161984D01*
X3991610Y-11161984D02*
X4010658Y-11171508D01*
X4010658Y-11171508D02*
X4020182Y-11181031D01*
X4020182Y-11181031D02*
X4029705Y-11200079D01*
X4029705Y-11200079D02*
X4039229Y-11238174D01*
X4039229Y-11238174D02*
X4039229Y-11285793D01*
X4039229Y-11285793D02*
X4029705Y-11323888D01*
X4029705Y-11323888D02*
X4020182Y-11342936D01*
X4020182Y-11342936D02*
X4010658Y-11352460D01*
X4010658Y-11352460D02*
X3991610Y-11361984D01*
X3991610Y-11361984D02*
X3972562Y-11361984D01*
X3972562Y-11361984D02*
X3953515Y-11352460D01*
X3953515Y-11352460D02*
X3943991Y-11342936D01*
X3943991Y-11342936D02*
X3934467Y-11323888D01*
X3934467Y-11323888D02*
X3924943Y-11285793D01*
X3924943Y-11285793D02*
X3924943Y-11238174D01*
X3924943Y-11238174D02*
X3934467Y-11200079D01*
X3934467Y-11200079D02*
X3943991Y-11181031D01*
X3943991Y-11181031D02*
X3953515Y-11171508D01*
X3953515Y-11171508D02*
X3972562Y-11161984D01*
X4163039Y-11161984D02*
X4182086Y-11161984D01*
X4182086Y-11161984D02*
X4201134Y-11171508D01*
X4201134Y-11171508D02*
X4210658Y-11181031D01*
X4210658Y-11181031D02*
X4220182Y-11200079D01*
X4220182Y-11200079D02*
X4229705Y-11238174D01*
X4229705Y-11238174D02*
X4229705Y-11285793D01*
X4229705Y-11285793D02*
X4220182Y-11323888D01*
X4220182Y-11323888D02*
X4210658Y-11342936D01*
X4210658Y-11342936D02*
X4201134Y-11352460D01*
X4201134Y-11352460D02*
X4182086Y-11361984D01*
X4182086Y-11361984D02*
X4163039Y-11361984D01*
X4163039Y-11361984D02*
X4143991Y-11352460D01*
X4143991Y-11352460D02*
X4134467Y-11342936D01*
X4134467Y-11342936D02*
X4124943Y-11323888D01*
X4124943Y-11323888D02*
X4115420Y-11285793D01*
X4115420Y-11285793D02*
X4115420Y-11238174D01*
X4115420Y-11238174D02*
X4124943Y-11200079D01*
X4124943Y-11200079D02*
X4134467Y-11181031D01*
X4134467Y-11181031D02*
X4143991Y-11171508D01*
X4143991Y-11171508D02*
X4163039Y-11161984D01*
X4315420Y-11361984D02*
X4315420Y-11228650D01*
X4315420Y-11247698D02*
X4324944Y-11238174D01*
X4324944Y-11238174D02*
X4343991Y-11228650D01*
X4343991Y-11228650D02*
X4372563Y-11228650D01*
X4372563Y-11228650D02*
X4391610Y-11238174D01*
X4391610Y-11238174D02*
X4401134Y-11257222D01*
X4401134Y-11257222D02*
X4401134Y-11361984D01*
X4401134Y-11257222D02*
X4410658Y-11238174D01*
X4410658Y-11238174D02*
X4429705Y-11228650D01*
X4429705Y-11228650D02*
X4458277Y-11228650D01*
X4458277Y-11228650D02*
X4477325Y-11238174D01*
X4477325Y-11238174D02*
X4486848Y-11257222D01*
X4486848Y-11257222D02*
X4486848Y-11361984D01*
X4582086Y-11361984D02*
X4582086Y-11228650D01*
X4582086Y-11247698D02*
X4591610Y-11238174D01*
X4591610Y-11238174D02*
X4610658Y-11228650D01*
X4610658Y-11228650D02*
X4639229Y-11228650D01*
X4639229Y-11228650D02*
X4658277Y-11238174D01*
X4658277Y-11238174D02*
X4667801Y-11257222D01*
X4667801Y-11257222D02*
X4667801Y-11361984D01*
X4667801Y-11257222D02*
X4677325Y-11238174D01*
X4677325Y-11238174D02*
X4696372Y-11228650D01*
X4696372Y-11228650D02*
X4724944Y-11228650D01*
X4724944Y-11228650D02*
X4743991Y-11238174D01*
X4743991Y-11238174D02*
X4753515Y-11257222D01*
X4753515Y-11257222D02*
X4753515Y-11361984D01*
X5143991Y-11152460D02*
X4972563Y-11409603D01*
X5401134Y-11161984D02*
X5420182Y-11161984D01*
X5420182Y-11161984D02*
X5439229Y-11171508D01*
X5439229Y-11171508D02*
X5448753Y-11181031D01*
X5448753Y-11181031D02*
X5458277Y-11200079D01*
X5458277Y-11200079D02*
X5467801Y-11238174D01*
X5467801Y-11238174D02*
X5467801Y-11285793D01*
X5467801Y-11285793D02*
X5458277Y-11323888D01*
X5458277Y-11323888D02*
X5448753Y-11342936D01*
X5448753Y-11342936D02*
X5439229Y-11352460D01*
X5439229Y-11352460D02*
X5420182Y-11361984D01*
X5420182Y-11361984D02*
X5401134Y-11361984D01*
X5401134Y-11361984D02*
X5382087Y-11352460D01*
X5382087Y-11352460D02*
X5372563Y-11342936D01*
X5372563Y-11342936D02*
X5363039Y-11323888D01*
X5363039Y-11323888D02*
X5353515Y-11285793D01*
X5353515Y-11285793D02*
X5353515Y-11238174D01*
X5353515Y-11238174D02*
X5363039Y-11200079D01*
X5363039Y-11200079D02*
X5372563Y-11181031D01*
X5372563Y-11181031D02*
X5382087Y-11171508D01*
X5382087Y-11171508D02*
X5401134Y-11161984D01*
X5553515Y-11342936D02*
X5563039Y-11352460D01*
X5563039Y-11352460D02*
X5553515Y-11361984D01*
X5553515Y-11361984D02*
X5543991Y-11352460D01*
X5543991Y-11352460D02*
X5553515Y-11342936D01*
X5553515Y-11342936D02*
X5553515Y-11361984D01*
X5686848Y-11161984D02*
X5705896Y-11161984D01*
X5705896Y-11161984D02*
X5724944Y-11171508D01*
X5724944Y-11171508D02*
X5734467Y-11181031D01*
X5734467Y-11181031D02*
X5743991Y-11200079D01*
X5743991Y-11200079D02*
X5753515Y-11238174D01*
X5753515Y-11238174D02*
X5753515Y-11285793D01*
X5753515Y-11285793D02*
X5743991Y-11323888D01*
X5743991Y-11323888D02*
X5734467Y-11342936D01*
X5734467Y-11342936D02*
X5724944Y-11352460D01*
X5724944Y-11352460D02*
X5705896Y-11361984D01*
X5705896Y-11361984D02*
X5686848Y-11361984D01*
X5686848Y-11361984D02*
X5667801Y-11352460D01*
X5667801Y-11352460D02*
X5658277Y-11342936D01*
X5658277Y-11342936D02*
X5648753Y-11323888D01*
X5648753Y-11323888D02*
X5639229Y-11285793D01*
X5639229Y-11285793D02*
X5639229Y-11238174D01*
X5639229Y-11238174D02*
X5648753Y-11200079D01*
X5648753Y-11200079D02*
X5658277Y-11181031D01*
X5658277Y-11181031D02*
X5667801Y-11171508D01*
X5667801Y-11171508D02*
X5686848Y-11161984D01*
X5924944Y-11161984D02*
X5886848Y-11161984D01*
X5886848Y-11161984D02*
X5867801Y-11171508D01*
X5867801Y-11171508D02*
X5858277Y-11181031D01*
X5858277Y-11181031D02*
X5839229Y-11209603D01*
X5839229Y-11209603D02*
X5829706Y-11247698D01*
X5829706Y-11247698D02*
X5829706Y-11323888D01*
X5829706Y-11323888D02*
X5839229Y-11342936D01*
X5839229Y-11342936D02*
X5848753Y-11352460D01*
X5848753Y-11352460D02*
X5867801Y-11361984D01*
X5867801Y-11361984D02*
X5905896Y-11361984D01*
X5905896Y-11361984D02*
X5924944Y-11352460D01*
X5924944Y-11352460D02*
X5934467Y-11342936D01*
X5934467Y-11342936D02*
X5943991Y-11323888D01*
X5943991Y-11323888D02*
X5943991Y-11276269D01*
X5943991Y-11276269D02*
X5934467Y-11257222D01*
X5934467Y-11257222D02*
X5924944Y-11247698D01*
X5924944Y-11247698D02*
X5905896Y-11238174D01*
X5905896Y-11238174D02*
X5867801Y-11238174D01*
X5867801Y-11238174D02*
X5848753Y-11247698D01*
X5848753Y-11247698D02*
X5839229Y-11257222D01*
X5839229Y-11257222D02*
X5829706Y-11276269D01*
X6010658Y-11161984D02*
X6134467Y-11161984D01*
X6134467Y-11161984D02*
X6067801Y-11238174D01*
X6067801Y-11238174D02*
X6096372Y-11238174D01*
X6096372Y-11238174D02*
X6115420Y-11247698D01*
X6115420Y-11247698D02*
X6124944Y-11257222D01*
X6124944Y-11257222D02*
X6134467Y-11276269D01*
X6134467Y-11276269D02*
X6134467Y-11323888D01*
X6134467Y-11323888D02*
X6124944Y-11342936D01*
X6124944Y-11342936D02*
X6115420Y-11352460D01*
X6115420Y-11352460D02*
X6096372Y-11361984D01*
X6096372Y-11361984D02*
X6039229Y-11361984D01*
X6039229Y-11361984D02*
X6020182Y-11352460D01*
X6020182Y-11352460D02*
X6010658Y-11342936D01*
X6258277Y-11161984D02*
X6277325Y-11161984D01*
X6277325Y-11161984D02*
X6296372Y-11171508D01*
X6296372Y-11171508D02*
X6305896Y-11181031D01*
X6305896Y-11181031D02*
X6315420Y-11200079D01*
X6315420Y-11200079D02*
X6324944Y-11238174D01*
X6324944Y-11238174D02*
X6324944Y-11285793D01*
X6324944Y-11285793D02*
X6315420Y-11323888D01*
X6315420Y-11323888D02*
X6305896Y-11342936D01*
X6305896Y-11342936D02*
X6296372Y-11352460D01*
X6296372Y-11352460D02*
X6277325Y-11361984D01*
X6277325Y-11361984D02*
X6258277Y-11361984D01*
X6258277Y-11361984D02*
X6239229Y-11352460D01*
X6239229Y-11352460D02*
X6229706Y-11342936D01*
X6229706Y-11342936D02*
X6220182Y-11323888D01*
X6220182Y-11323888D02*
X6210658Y-11285793D01*
X6210658Y-11285793D02*
X6210658Y-11238174D01*
X6210658Y-11238174D02*
X6220182Y-11200079D01*
X6220182Y-11200079D02*
X6229706Y-11181031D01*
X6229706Y-11181031D02*
X6239229Y-11171508D01*
X6239229Y-11171508D02*
X6258277Y-11161984D01*
X6401134Y-11161984D02*
X6401134Y-11200079D01*
X6477325Y-11161984D02*
X6477325Y-11200079D01*
X6772563Y-11438174D02*
X6763039Y-11428650D01*
X6763039Y-11428650D02*
X6743991Y-11400079D01*
X6743991Y-11400079D02*
X6734468Y-11381031D01*
X6734468Y-11381031D02*
X6724944Y-11352460D01*
X6724944Y-11352460D02*
X6715420Y-11304841D01*
X6715420Y-11304841D02*
X6715420Y-11266746D01*
X6715420Y-11266746D02*
X6724944Y-11219127D01*
X6724944Y-11219127D02*
X6734468Y-11190555D01*
X6734468Y-11190555D02*
X6743991Y-11171508D01*
X6743991Y-11171508D02*
X6763039Y-11142936D01*
X6763039Y-11142936D02*
X6772563Y-11133412D01*
X6953515Y-11361984D02*
X6839229Y-11361984D01*
X6896372Y-11361984D02*
X6896372Y-11161984D01*
X6896372Y-11161984D02*
X6877325Y-11190555D01*
X6877325Y-11190555D02*
X6858277Y-11209603D01*
X6858277Y-11209603D02*
X6839229Y-11219127D01*
X7077325Y-11161984D02*
X7096372Y-11161984D01*
X7096372Y-11161984D02*
X7115420Y-11171508D01*
X7115420Y-11171508D02*
X7124944Y-11181031D01*
X7124944Y-11181031D02*
X7134468Y-11200079D01*
X7134468Y-11200079D02*
X7143991Y-11238174D01*
X7143991Y-11238174D02*
X7143991Y-11285793D01*
X7143991Y-11285793D02*
X7134468Y-11323888D01*
X7134468Y-11323888D02*
X7124944Y-11342936D01*
X7124944Y-11342936D02*
X7115420Y-11352460D01*
X7115420Y-11352460D02*
X7096372Y-11361984D01*
X7096372Y-11361984D02*
X7077325Y-11361984D01*
X7077325Y-11361984D02*
X7058277Y-11352460D01*
X7058277Y-11352460D02*
X7048753Y-11342936D01*
X7048753Y-11342936D02*
X7039229Y-11323888D01*
X7039229Y-11323888D02*
X7029706Y-11285793D01*
X7029706Y-11285793D02*
X7029706Y-11238174D01*
X7029706Y-11238174D02*
X7039229Y-11200079D01*
X7039229Y-11200079D02*
X7048753Y-11181031D01*
X7048753Y-11181031D02*
X7058277Y-11171508D01*
X7058277Y-11171508D02*
X7077325Y-11161984D01*
X7382087Y-11361984D02*
X7382087Y-11161984D01*
X7467801Y-11361984D02*
X7467801Y-11257222D01*
X7467801Y-11257222D02*
X7458277Y-11238174D01*
X7458277Y-11238174D02*
X7439230Y-11228650D01*
X7439230Y-11228650D02*
X7410658Y-11228650D01*
X7410658Y-11228650D02*
X7391610Y-11238174D01*
X7391610Y-11238174D02*
X7382087Y-11247698D01*
X7591610Y-11361984D02*
X7572563Y-11352460D01*
X7572563Y-11352460D02*
X7563039Y-11342936D01*
X7563039Y-11342936D02*
X7553515Y-11323888D01*
X7553515Y-11323888D02*
X7553515Y-11266746D01*
X7553515Y-11266746D02*
X7563039Y-11247698D01*
X7563039Y-11247698D02*
X7572563Y-11238174D01*
X7572563Y-11238174D02*
X7591610Y-11228650D01*
X7591610Y-11228650D02*
X7620182Y-11228650D01*
X7620182Y-11228650D02*
X7639230Y-11238174D01*
X7639230Y-11238174D02*
X7648753Y-11247698D01*
X7648753Y-11247698D02*
X7658277Y-11266746D01*
X7658277Y-11266746D02*
X7658277Y-11323888D01*
X7658277Y-11323888D02*
X7648753Y-11342936D01*
X7648753Y-11342936D02*
X7639230Y-11352460D01*
X7639230Y-11352460D02*
X7620182Y-11361984D01*
X7620182Y-11361984D02*
X7591610Y-11361984D01*
X7772563Y-11361984D02*
X7753515Y-11352460D01*
X7753515Y-11352460D02*
X7743991Y-11333412D01*
X7743991Y-11333412D02*
X7743991Y-11161984D01*
X7924944Y-11352460D02*
X7905896Y-11361984D01*
X7905896Y-11361984D02*
X7867801Y-11361984D01*
X7867801Y-11361984D02*
X7848753Y-11352460D01*
X7848753Y-11352460D02*
X7839230Y-11333412D01*
X7839230Y-11333412D02*
X7839230Y-11257222D01*
X7839230Y-11257222D02*
X7848753Y-11238174D01*
X7848753Y-11238174D02*
X7867801Y-11228650D01*
X7867801Y-11228650D02*
X7905896Y-11228650D01*
X7905896Y-11228650D02*
X7924944Y-11238174D01*
X7924944Y-11238174D02*
X7934468Y-11257222D01*
X7934468Y-11257222D02*
X7934468Y-11276269D01*
X7934468Y-11276269D02*
X7839230Y-11295317D01*
X8010658Y-11352460D02*
X8029706Y-11361984D01*
X8029706Y-11361984D02*
X8067801Y-11361984D01*
X8067801Y-11361984D02*
X8086849Y-11352460D01*
X8086849Y-11352460D02*
X8096372Y-11333412D01*
X8096372Y-11333412D02*
X8096372Y-11323888D01*
X8096372Y-11323888D02*
X8086849Y-11304841D01*
X8086849Y-11304841D02*
X8067801Y-11295317D01*
X8067801Y-11295317D02*
X8039230Y-11295317D01*
X8039230Y-11295317D02*
X8020182Y-11285793D01*
X8020182Y-11285793D02*
X8010658Y-11266746D01*
X8010658Y-11266746D02*
X8010658Y-11257222D01*
X8010658Y-11257222D02*
X8020182Y-11238174D01*
X8020182Y-11238174D02*
X8039230Y-11228650D01*
X8039230Y-11228650D02*
X8067801Y-11228650D01*
X8067801Y-11228650D02*
X8086849Y-11238174D01*
X8163039Y-11438174D02*
X8172563Y-11428650D01*
X8172563Y-11428650D02*
X8191611Y-11400079D01*
X8191611Y-11400079D02*
X8201134Y-11381031D01*
X8201134Y-11381031D02*
X8210658Y-11352460D01*
X8210658Y-11352460D02*
X8220182Y-11304841D01*
X8220182Y-11304841D02*
X8220182Y-11266746D01*
X8220182Y-11266746D02*
X8210658Y-11219127D01*
X8210658Y-11219127D02*
X8201134Y-11190555D01*
X8201134Y-11190555D02*
X8191611Y-11171508D01*
X8191611Y-11171508D02*
X8172563Y-11142936D01*
X8172563Y-11142936D02*
X8163039Y-11133412D01*
M02*
