%TF.GenerationSoftware,KiCad,Pcbnew,8.0.6-8.0.6-0~ubuntu24.04.1*%
%TF.CreationDate,2024-10-18T14:07:35+02:00*%
%TF.ProjectId,diplexer,6469706c-6578-4657-922e-6b696361645f,rev?*%
%TF.SameCoordinates,Original*%
%TF.FileFunction,Paste,Top*%
%TF.FilePolarity,Positive*%
%FSLAX46Y46*%
G04 Gerber Fmt 4.6, Leading zero omitted, Abs format (unit mm)*
G04 Created by KiCad (PCBNEW 8.0.6-8.0.6-0~ubuntu24.04.1) date 2024-10-18 14:07:35*
%MOMM*%
%LPD*%
G01*
G04 APERTURE LIST*
%ADD10R,1.780000X1.780000*%
%ADD11R,5.000000X5.000000*%
%ADD12R,4.000000X4.000000*%
G04 APERTURE END LIST*
D10*
%TO.C,C17*%
X90600000Y-97800000D03*
X90600000Y-102300000D03*
%TD*%
%TO.C,C6*%
X64400000Y-102090000D03*
X64400000Y-97590000D03*
%TD*%
%TO.C,C14*%
X122300000Y-63400000D03*
X117800000Y-63400000D03*
%TD*%
%TO.C,C4*%
X122300000Y-68840000D03*
X117800000Y-68840000D03*
%TD*%
%TO.C,C19*%
X140600000Y-95800000D03*
X140600000Y-100300000D03*
%TD*%
D11*
%TO.C,J3*%
X184000000Y-94850000D03*
X184000000Y-103960000D03*
X184000000Y-85750000D03*
%TD*%
D12*
%TO.C,J2*%
X185500000Y-70240000D03*
X185500000Y-57540000D03*
X176500000Y-63890000D03*
%TD*%
D10*
%TO.C,C13*%
X101300000Y-63400000D03*
X96800000Y-63400000D03*
%TD*%
%TO.C,C1*%
X53300000Y-68840000D03*
X48800000Y-68840000D03*
%TD*%
%TO.C,C7*%
X86500000Y-102090000D03*
X86500000Y-97590000D03*
%TD*%
%TO.C,C15*%
X150300000Y-64400000D03*
X145800000Y-64400000D03*
%TD*%
%TO.C,C20*%
X170100000Y-95325000D03*
X170100000Y-99825000D03*
%TD*%
%TO.C,C11*%
X53500000Y-63500000D03*
X49000000Y-63500000D03*
%TD*%
D11*
%TO.C,J1*%
X37400000Y-80110000D03*
X37400000Y-71000000D03*
X37400000Y-89210000D03*
%TD*%
D10*
%TO.C,C5*%
X150410000Y-68840000D03*
X145910000Y-68840000D03*
%TD*%
%TO.C,C10*%
X164900000Y-99700000D03*
X164900000Y-95200000D03*
%TD*%
%TO.C,C2*%
X72300000Y-68840000D03*
X67800000Y-68840000D03*
%TD*%
%TO.C,C18*%
X119600000Y-95800000D03*
X119600000Y-100300000D03*
%TD*%
%TO.C,C8*%
X115400000Y-100200000D03*
X115400000Y-95700000D03*
%TD*%
%TO.C,C9*%
X136400000Y-100090000D03*
X136400000Y-95590000D03*
%TD*%
%TO.C,C12*%
X72300000Y-63400000D03*
X67800000Y-63400000D03*
%TD*%
%TO.C,C16*%
X68600000Y-97800000D03*
X68600000Y-102300000D03*
%TD*%
%TO.C,C3*%
X101410000Y-68840000D03*
X96910000Y-68840000D03*
%TD*%
M02*
