M48
; DRILL file {KiCad 8.0.6-8.0.6-0~ubuntu24.04.1} date 2024-10-19T16:34:31+0200
; FORMAT={-:-/ absolute / inch / decimal}
; #@! TF.CreationDate,2024-10-19T16:34:31+02:00
; #@! TF.GenerationSoftware,Kicad,Pcbnew,8.0.6-8.0.6-0~ubuntu24.04.1
; #@! TF.FileFunction,Plated,1,2,PTH
FMAT,2
INCH
; #@! TA.AperFunction,Plated,PTH,ViaDrill
T1C0.0118
; #@! TA.AperFunction,Plated,PTH,ComponentDrill
T2C0.0630
; #@! TA.AperFunction,Plated,PTH,ComponentDrill
T3C0.1260
%
G90
G05
T1
X1.7323Y-1.8898
X1.7874Y-4.3937
X1.9291Y-1.8898
X1.9685Y-2.9134
X1.9685Y-3.3858
X1.9843Y-4.3937
X2.0866Y-1.8898
X2.1417Y-4.3937
X2.1654Y-2.9134
X2.1654Y-3.3858
X2.2835Y-1.8898
X2.3228Y-2.9134
X2.3228Y-3.3858
X2.3386Y-4.3937
X2.4803Y-1.8898
X2.5197Y-2.9134
X2.5197Y-3.3858
X2.5354Y-4.3937
X2.6772Y-1.8898
X2.7165Y-2.9134
X2.7165Y-3.3858
X2.7323Y-4.3937
X2.8346Y-1.8898
X2.8898Y-4.3937
X2.9134Y-2.9134
X2.9134Y-3.3858
X3.0315Y-1.8898
X3.0709Y-2.9134
X3.0709Y-3.3858
X3.0866Y-4.3937
X3.189Y-1.8898
X3.2441Y-4.3937
X3.2677Y-2.9134
X3.2677Y-3.3858
X3.3858Y-1.8898
X3.4252Y-2.9134
X3.4252Y-3.3858
X3.4409Y-4.3937
X3.5827Y-1.8898
X3.622Y-2.9134
X3.622Y-3.3858
X3.6378Y-4.3937
X3.7795Y-1.8898
X3.8189Y-2.9134
X3.8189Y-3.3858
X3.8346Y-4.3937
X3.937Y-1.8898
X3.9921Y-4.3937
X4.0157Y-2.9134
X4.0157Y-3.3858
X4.1339Y-1.8898
X4.1732Y-2.9134
X4.1732Y-3.3858
X4.189Y-4.3937
X4.2913Y-1.8898
X4.3465Y-4.3937
X4.3701Y-2.9134
X4.3701Y-3.3858
X4.4882Y-1.8898
X4.5276Y-2.9134
X4.5276Y-3.3858
X4.5433Y-4.3937
X4.685Y-1.8898
X4.7244Y-2.9134
X4.7244Y-3.3858
X4.7402Y-4.3937
X4.8819Y-1.8898
X4.9213Y-2.9134
X4.9213Y-3.3858
X4.937Y-4.3937
X5.0787Y-1.8898
X5.1181Y-2.9134
X5.1181Y-3.3858
X5.1339Y-4.3937
X5.2756Y-1.8898
X5.315Y-2.9134
X5.315Y-3.3858
X5.3307Y-4.3937
X5.4724Y-1.8898
X5.5118Y-2.9134
X5.5118Y-3.3858
X5.5276Y-4.3937
X5.6693Y-1.8898
X5.7087Y-2.9134
X5.7087Y-3.3858
X5.7244Y-4.3937
X5.8661Y-1.8898
X5.9055Y-2.9134
X5.9055Y-3.3858
X5.9213Y-4.3937
X6.063Y-1.8898
X6.1024Y-2.9134
X6.1024Y-3.3858
X6.1181Y-4.3937
X6.2205Y-1.8898
X6.2756Y-4.3937
X6.2992Y-2.9134
X6.2992Y-3.3858
X6.4173Y-1.8898
X6.4567Y-2.9134
X6.4567Y-3.3858
X6.4724Y-4.3937
X6.6142Y-1.8898
X6.6535Y-2.9134
X6.6535Y-3.3858
X6.6693Y-4.3937
X6.811Y-1.8898
X6.8504Y-2.9134
X6.8504Y-3.3858
X6.8661Y-4.3937
X7.0079Y-1.8898
X7.0472Y-2.9134
X7.0472Y-3.3858
X7.063Y-4.3937
T2
X1.7908Y-3.8583
X2.3656Y-3.8583
X2.3819Y-2.1063
X2.3819Y-2.6811
X3.0449Y-2.2811
X3.0512Y-3.6024
X3.0512Y-4.1772
X3.6197Y-2.2811
X3.7397Y-3.7598
X4.3145Y-3.7598
X4.3504Y-2.1063
X4.3504Y-2.6811
X4.9995Y-2.2811
X5.0394Y-3.5595
X5.0394Y-4.1344
X5.5743Y-2.2811
X5.7082Y-3.7205
X6.2402Y-2.0635
X6.2402Y-2.6383
X6.283Y-3.7205
T3
X1.437Y-1.8701
X1.437Y-4.3898
X1.9882Y-3.1299
X3.7992Y-3.1299
X5.2953Y-3.1299
X7.3031Y-1.8701
X7.3031Y-3.1299
X7.3031Y-4.3898
M30
