%TF.GenerationSoftware,KiCad,Pcbnew,8.0.6-8.0.6-0~ubuntu24.04.1*%
%TF.CreationDate,2024-11-29T15:02:11+01:00*%
%TF.ProjectId,diplexer,6469706c-6578-4657-922e-6b696361645f,rev?*%
%TF.SameCoordinates,Original*%
%TF.FileFunction,Paste,Top*%
%TF.FilePolarity,Positive*%
%FSLAX46Y46*%
G04 Gerber Fmt 4.6, Leading zero omitted, Abs format (unit mm)*
G04 Created by KiCad (PCBNEW 8.0.6-8.0.6-0~ubuntu24.04.1) date 2024-11-29 15:02:11*
%MOMM*%
%LPD*%
G01*
G04 APERTURE LIST*
%ADD10R,3.180000X1.190000*%
%ADD11R,1.190000X3.180000*%
%ADD12R,5.000000X5.000000*%
G04 APERTURE END LIST*
D10*
%TO.C,C17*%
X90425000Y-99267000D03*
X90425000Y-102089000D03*
%TD*%
%TO.C,C6*%
X65175000Y-101708000D03*
X65175000Y-98886000D03*
%TD*%
D11*
%TO.C,C14*%
X121339000Y-65775000D03*
X124161000Y-65775000D03*
%TD*%
%TO.C,C4*%
X121279000Y-70200000D03*
X124101000Y-70200000D03*
%TD*%
D10*
%TO.C,C19*%
X140275000Y-99385000D03*
X140275000Y-102207000D03*
%TD*%
D12*
%TO.C,J3*%
X178025000Y-98600000D03*
X186425000Y-85800000D03*
X186425000Y-111400000D03*
%TD*%
%TO.C,J2*%
X177425000Y-63900000D03*
X186525000Y-72800000D03*
X186525000Y-55000000D03*
%TD*%
D11*
%TO.C,C13*%
X95603000Y-69764000D03*
X98425000Y-69764000D03*
%TD*%
%TO.C,C1*%
X49125000Y-66122000D03*
X51947000Y-66122000D03*
%TD*%
D10*
%TO.C,C7*%
X85625000Y-101989000D03*
X85625000Y-99167000D03*
%TD*%
D11*
%TO.C,C15*%
X145975000Y-69825000D03*
X148797000Y-69825000D03*
%TD*%
D10*
%TO.C,C20*%
X169900000Y-99003000D03*
X169900000Y-101825000D03*
%TD*%
D11*
%TO.C,C11*%
X49035000Y-70322000D03*
X51857000Y-70322000D03*
%TD*%
D12*
%TO.C,J1*%
X43000000Y-80200000D03*
X34600000Y-93000000D03*
X34600000Y-67400000D03*
%TD*%
D11*
%TO.C,C5*%
X146050000Y-65250000D03*
X148872000Y-65250000D03*
%TD*%
D10*
%TO.C,C10*%
X165025000Y-101786000D03*
X165025000Y-98964000D03*
%TD*%
D11*
%TO.C,C2*%
X71229000Y-70200000D03*
X74051000Y-70200000D03*
%TD*%
D10*
%TO.C,C18*%
X119575000Y-99339000D03*
X119575000Y-102161000D03*
%TD*%
%TO.C,C8*%
X114775000Y-101961000D03*
X114775000Y-99139000D03*
%TD*%
%TO.C,C9*%
X135500000Y-102186000D03*
X135500000Y-99364000D03*
%TD*%
D11*
%TO.C,C12*%
X71325000Y-65800000D03*
X74147000Y-65800000D03*
%TD*%
D10*
%TO.C,C16*%
X69800000Y-98900000D03*
X69800000Y-101722000D03*
%TD*%
D11*
%TO.C,C3*%
X95618000Y-65329000D03*
X98440000Y-65329000D03*
%TD*%
M02*
