%TF.GenerationSoftware,KiCad,Pcbnew,8.0.6-8.0.6-0~ubuntu24.04.1*%
%TF.CreationDate,2024-11-29T15:02:11+01:00*%
%TF.ProjectId,diplexer,6469706c-6578-4657-922e-6b696361645f,rev?*%
%TF.SameCoordinates,Original*%
%TF.FileFunction,Copper,L2,Bot*%
%TF.FilePolarity,Positive*%
%FSLAX46Y46*%
G04 Gerber Fmt 4.6, Leading zero omitted, Abs format (unit mm)*
G04 Created by KiCad (PCBNEW 8.0.6-8.0.6-0~ubuntu24.04.1) date 2024-11-29 15:02:11*
%MOMM*%
%LPD*%
G01*
G04 APERTURE LIST*
%TA.AperFunction,ComponentPad*%
%ADD10C,3.000000*%
%TD*%
%TA.AperFunction,ComponentPad*%
%ADD11C,5.600000*%
%TD*%
%TA.AperFunction,ViaPad*%
%ADD12C,0.600000*%
%TD*%
G04 APERTURE END LIST*
D10*
%TO.P,L10,1,1*%
%TO.N,Net-(J1-In)*%
X45225000Y-98075000D03*
%TO.P,L10,2,2*%
%TO.N,Net-(C16-Pad1)*%
X59825000Y-98075000D03*
%TD*%
D11*
%TO.P,J5,1,Pin_1*%
%TO.N,GND*%
X36400000Y-41000000D03*
%TD*%
D10*
%TO.P,L2,1,1*%
%TO.N,Net-(C12-Pad2)*%
X77340000Y-57940000D03*
%TO.P,L2,2,2*%
%TO.N,GND*%
X91940000Y-57940000D03*
%TD*%
%TO.P,L4,1,1*%
%TO.N,Net-(C14-Pad2)*%
X126987500Y-57940000D03*
%TO.P,L4,2,2*%
%TO.N,GND*%
X141587500Y-57940000D03*
%TD*%
%TO.P,L6,1,1*%
%TO.N,Net-(C19-Pad1)*%
X144900000Y-98825000D03*
%TO.P,L6,2,2*%
%TO.N,Net-(J3-In)*%
X159500000Y-98825000D03*
%TD*%
D11*
%TO.P,J7,1,Pin_1*%
%TO.N,GND*%
X184500000Y-40500000D03*
%TD*%
D10*
%TO.P,L7,1,1*%
%TO.N,Net-(C18-Pad1)*%
X128000000Y-105012500D03*
%TO.P,L7,2,2*%
%TO.N,Net-(C19-Pad1)*%
X128000000Y-90412500D03*
%TD*%
%TO.P,L9,1,1*%
%TO.N,Net-(C16-Pad1)*%
X77500000Y-106100000D03*
%TO.P,L9,2,2*%
%TO.N,Net-(C17-Pad1)*%
X77500000Y-91500000D03*
%TD*%
D11*
%TO.P,J10,1,Pin_1*%
%TO.N,GND*%
X134500000Y-79500000D03*
%TD*%
D10*
%TO.P,L8,1,1*%
%TO.N,Net-(C17-Pad1)*%
X95250000Y-97875000D03*
%TO.P,L8,2,2*%
%TO.N,Net-(C18-Pad1)*%
X109850000Y-97875000D03*
%TD*%
%TO.P,L1,1,1*%
%TO.N,Net-(C1-Pad2)*%
X60500000Y-68100000D03*
%TO.P,L1,2,2*%
%TO.N,GND*%
X60500000Y-53500000D03*
%TD*%
D11*
%TO.P,J6,1,Pin_1*%
%TO.N,GND*%
X183100000Y-117100000D03*
%TD*%
D10*
%TO.P,L5,1,1*%
%TO.N,Net-(J2-In)*%
X158500000Y-67012500D03*
%TO.P,L5,2,2*%
%TO.N,GND*%
X158500000Y-52412500D03*
%TD*%
%TO.P,L3,1,1*%
%TO.N,Net-(C13-Pad2)*%
X110500000Y-68100000D03*
%TO.P,L3,2,2*%
%TO.N,GND*%
X110500000Y-53500000D03*
%TD*%
D11*
%TO.P,J4,1,Pin_1*%
%TO.N,GND*%
X36600000Y-117400000D03*
%TD*%
%TO.P,J9,1,Pin_1*%
%TO.N,GND*%
X96500000Y-79500000D03*
%TD*%
D12*
%TO.N,GND*%
X79000000Y-48400000D03*
X90000000Y-48400000D03*
X116000000Y-75900000D03*
X122500000Y-48400000D03*
X173000000Y-48400000D03*
X118500000Y-48400000D03*
X131000000Y-48400000D03*
X85000000Y-86400000D03*
X61000000Y-110900000D03*
X96000000Y-110900000D03*
X47500000Y-48400000D03*
X113000000Y-75900000D03*
X84500000Y-110900000D03*
X91000000Y-86400000D03*
X66000000Y-110900000D03*
X85000000Y-48400000D03*
X76000000Y-48400000D03*
X119000000Y-75900000D03*
X73000000Y-86400000D03*
X92500000Y-48400000D03*
X120000000Y-86400000D03*
X177000000Y-110900000D03*
X166500000Y-86400000D03*
X141500000Y-110900000D03*
X136500000Y-110900000D03*
X151500000Y-110900000D03*
X181000000Y-75900000D03*
X172500000Y-86400000D03*
X181500000Y-110900000D03*
X144500000Y-48400000D03*
X108500000Y-86400000D03*
X120000000Y-110900000D03*
X157000000Y-110900000D03*
X127500000Y-110900000D03*
X96500000Y-48400000D03*
X169500000Y-86400000D03*
X134500000Y-86400000D03*
X96500000Y-86400000D03*
X52500000Y-110900000D03*
X175500000Y-48400000D03*
X49500000Y-110900000D03*
X66500000Y-48400000D03*
X157000000Y-75900000D03*
X70500000Y-86400000D03*
X105000000Y-48400000D03*
X58500000Y-110900000D03*
X182000000Y-86400000D03*
X126500000Y-75900000D03*
X165500000Y-75900000D03*
X154000000Y-110900000D03*
X146000000Y-110900000D03*
X116000000Y-48400000D03*
X67000000Y-75900000D03*
X92000000Y-110900000D03*
X75500000Y-86400000D03*
X68500000Y-48400000D03*
X70500000Y-48400000D03*
X88000000Y-86400000D03*
X131500000Y-86400000D03*
X172500000Y-110900000D03*
X44500000Y-48400000D03*
X77500000Y-86400000D03*
X152500000Y-75900000D03*
X61000000Y-75900000D03*
X99500000Y-48400000D03*
X161000000Y-86400000D03*
X107500000Y-75900000D03*
X59000000Y-86400000D03*
X146500000Y-48400000D03*
X73000000Y-110900000D03*
X113500000Y-48400000D03*
X121500000Y-75900000D03*
X117000000Y-86400000D03*
X149000000Y-48400000D03*
X180000000Y-86400000D03*
X87000000Y-110900000D03*
X165500000Y-110900000D03*
X122500000Y-86400000D03*
X110500000Y-110900000D03*
X168500000Y-48400000D03*
X110000000Y-75900000D03*
X79500000Y-86400000D03*
X175000000Y-86400000D03*
X55500000Y-110900000D03*
X68000000Y-110900000D03*
X115500000Y-110900000D03*
X55500000Y-75900000D03*
X113000000Y-110900000D03*
X139000000Y-110900000D03*
X168000000Y-110900000D03*
X62000000Y-86400000D03*
X81500000Y-110900000D03*
X53000000Y-48400000D03*
X176500000Y-75900000D03*
X56000000Y-48400000D03*
X124000000Y-75900000D03*
X160000000Y-75900000D03*
X102500000Y-75900000D03*
X95500000Y-75900000D03*
X178000000Y-48400000D03*
X157500000Y-48400000D03*
X94000000Y-86400000D03*
X120500000Y-48400000D03*
X143000000Y-86400000D03*
X162500000Y-75900000D03*
X144000000Y-110900000D03*
X118000000Y-110900000D03*
X151000000Y-86400000D03*
X168500000Y-75900000D03*
X128500000Y-75900000D03*
X93000000Y-75900000D03*
X174000000Y-75900000D03*
X129500000Y-86400000D03*
X163000000Y-110900000D03*
X125000000Y-86400000D03*
X122000000Y-110900000D03*
X139000000Y-75900000D03*
X103500000Y-86400000D03*
X155500000Y-86400000D03*
X125500000Y-48400000D03*
X163500000Y-86400000D03*
X111000000Y-48400000D03*
X101500000Y-110900000D03*
X84000000Y-75900000D03*
X163500000Y-48400000D03*
X87000000Y-75900000D03*
X101500000Y-86400000D03*
X166000000Y-48400000D03*
X152000000Y-48400000D03*
X137000000Y-86400000D03*
X61500000Y-48400000D03*
X72000000Y-75900000D03*
X133500000Y-75900000D03*
X107500000Y-110900000D03*
X63500000Y-110900000D03*
X68000000Y-86400000D03*
X74500000Y-75900000D03*
X44000000Y-110900000D03*
X108000000Y-48400000D03*
X47000000Y-110900000D03*
X150000000Y-75900000D03*
X78500000Y-75900000D03*
X148500000Y-86400000D03*
X174500000Y-110900000D03*
X170500000Y-110900000D03*
X142000000Y-75900000D03*
X99000000Y-86400000D03*
X82500000Y-86400000D03*
X147500000Y-75900000D03*
X111000000Y-86400000D03*
X105500000Y-86400000D03*
X154500000Y-75900000D03*
X160500000Y-48400000D03*
X180500000Y-48400000D03*
X94500000Y-48400000D03*
X52500000Y-75900000D03*
X142000000Y-48400000D03*
X76500000Y-75900000D03*
X65000000Y-86400000D03*
X134000000Y-48400000D03*
X146000000Y-86400000D03*
X87500000Y-48400000D03*
X145000000Y-75900000D03*
X130500000Y-110900000D03*
X154500000Y-48400000D03*
X64000000Y-75900000D03*
X90000000Y-75900000D03*
X128000000Y-48400000D03*
X104500000Y-75900000D03*
X53500000Y-86400000D03*
X94000000Y-110900000D03*
X75500000Y-110900000D03*
X179500000Y-110900000D03*
X73500000Y-48400000D03*
X171500000Y-75900000D03*
X98000000Y-75900000D03*
X81500000Y-75900000D03*
X100500000Y-75900000D03*
X78500000Y-110900000D03*
X177500000Y-86400000D03*
X59000000Y-48400000D03*
X69500000Y-75900000D03*
X136000000Y-75900000D03*
X89500000Y-110900000D03*
X160000000Y-110900000D03*
X139500000Y-48400000D03*
X148500000Y-110900000D03*
X140000000Y-86400000D03*
X58000000Y-75900000D03*
X171000000Y-48400000D03*
X182500000Y-48400000D03*
X64000000Y-48400000D03*
X114000000Y-86400000D03*
X179000000Y-75900000D03*
X50000000Y-48400000D03*
X153500000Y-86400000D03*
X56500000Y-86400000D03*
X133500000Y-110900000D03*
X137000000Y-48400000D03*
X104500000Y-110900000D03*
X158000000Y-86400000D03*
X125000000Y-110900000D03*
X102000000Y-48400000D03*
X130500000Y-75900000D03*
X127500000Y-86400000D03*
X70000000Y-110900000D03*
X99000000Y-110900000D03*
X82000000Y-48400000D03*
%TD*%
%TA.AperFunction,Conductor*%
%TO.N,GND*%
G36*
X188442539Y-29420185D02*
G01*
X188488294Y-29472989D01*
X188499500Y-29524500D01*
X188499500Y-60875500D01*
X188479815Y-60942539D01*
X188427011Y-60988294D01*
X188375500Y-60999500D01*
X180034108Y-60999500D01*
X179906812Y-61033608D01*
X179792686Y-61099500D01*
X179792683Y-61099502D01*
X179699502Y-61192683D01*
X179699500Y-61192686D01*
X179633608Y-61306812D01*
X179599500Y-61434108D01*
X179599500Y-66465891D01*
X179633608Y-66593187D01*
X179652068Y-66625160D01*
X179699500Y-66707314D01*
X179792686Y-66800500D01*
X179906814Y-66866392D01*
X180034108Y-66900500D01*
X188375500Y-66900500D01*
X188442539Y-66920185D01*
X188488294Y-66972989D01*
X188499500Y-67024500D01*
X188499500Y-89975500D01*
X188479815Y-90042539D01*
X188427011Y-90088294D01*
X188375500Y-90099500D01*
X182534108Y-90099500D01*
X182406812Y-90133608D01*
X182292686Y-90199500D01*
X182292683Y-90199502D01*
X182199502Y-90292683D01*
X182199500Y-90292686D01*
X182133608Y-90406812D01*
X182099500Y-90534108D01*
X182099500Y-106665891D01*
X182133608Y-106793187D01*
X182166554Y-106850250D01*
X182199500Y-106907314D01*
X182292686Y-107000500D01*
X182406814Y-107066392D01*
X182534108Y-107100500D01*
X188375500Y-107100500D01*
X188442539Y-107120185D01*
X188488294Y-107172989D01*
X188499500Y-107224500D01*
X188499500Y-129275500D01*
X188479815Y-129342539D01*
X188427011Y-129388294D01*
X188375500Y-129399500D01*
X32526000Y-129399500D01*
X32458961Y-129379815D01*
X32413206Y-129327011D01*
X32402000Y-129275203D01*
X32449458Y-109485212D01*
X32457576Y-106099999D01*
X73794422Y-106099999D01*
X73794422Y-106100000D01*
X73814722Y-106487339D01*
X73843002Y-106665891D01*
X73875398Y-106870433D01*
X73961181Y-107190582D01*
X73975788Y-107245094D01*
X74114787Y-107607197D01*
X74290877Y-107952793D01*
X74502122Y-108278082D01*
X74711556Y-108536711D01*
X74746219Y-108579516D01*
X75020484Y-108853781D01*
X75020488Y-108853784D01*
X75321917Y-109097877D01*
X75647206Y-109309122D01*
X75647211Y-109309125D01*
X75992806Y-109485214D01*
X76354913Y-109624214D01*
X76729567Y-109724602D01*
X77112662Y-109785278D01*
X77478576Y-109804455D01*
X77499999Y-109805578D01*
X77500000Y-109805578D01*
X77500001Y-109805578D01*
X77520301Y-109804514D01*
X77887338Y-109785278D01*
X78270433Y-109724602D01*
X78645087Y-109624214D01*
X79007194Y-109485214D01*
X79352789Y-109309125D01*
X79678084Y-109097876D01*
X79979516Y-108853781D01*
X80253781Y-108579516D01*
X80497876Y-108278084D01*
X80709125Y-107952789D01*
X80885214Y-107607194D01*
X81024214Y-107245087D01*
X81124602Y-106870433D01*
X81185278Y-106487338D01*
X81205578Y-106100000D01*
X81185278Y-105712662D01*
X81124602Y-105329567D01*
X81039644Y-105012499D01*
X124294422Y-105012499D01*
X124294422Y-105012500D01*
X124314722Y-105399839D01*
X124375397Y-105782927D01*
X124375397Y-105782929D01*
X124475788Y-106157594D01*
X124614787Y-106519697D01*
X124790877Y-106865293D01*
X125002122Y-107190582D01*
X125046265Y-107245094D01*
X125246219Y-107492016D01*
X125520484Y-107766281D01*
X125520488Y-107766284D01*
X125821917Y-108010377D01*
X126147206Y-108221622D01*
X126147211Y-108221625D01*
X126492806Y-108397714D01*
X126854913Y-108536714D01*
X127229567Y-108637102D01*
X127612662Y-108697778D01*
X127978576Y-108716955D01*
X127999999Y-108718078D01*
X128000000Y-108718078D01*
X128000001Y-108718078D01*
X128020301Y-108717014D01*
X128387338Y-108697778D01*
X128770433Y-108637102D01*
X129145087Y-108536714D01*
X129507194Y-108397714D01*
X129852789Y-108221625D01*
X130178084Y-108010376D01*
X130479516Y-107766281D01*
X130753781Y-107492016D01*
X130997876Y-107190584D01*
X131209125Y-106865289D01*
X131385214Y-106519694D01*
X131524214Y-106157587D01*
X131624602Y-105782933D01*
X131685278Y-105399838D01*
X131705578Y-105012500D01*
X131685278Y-104625162D01*
X131624602Y-104242067D01*
X131524214Y-103867413D01*
X131385214Y-103505306D01*
X131209125Y-103159711D01*
X131171728Y-103102124D01*
X130997877Y-102834417D01*
X130753784Y-102532988D01*
X130753781Y-102532984D01*
X130479516Y-102258719D01*
X130178084Y-102014624D01*
X130178082Y-102014622D01*
X129852793Y-101803377D01*
X129507197Y-101627287D01*
X129145094Y-101488288D01*
X129145087Y-101488286D01*
X128770433Y-101387898D01*
X128770429Y-101387897D01*
X128770428Y-101387897D01*
X128387339Y-101327222D01*
X128000001Y-101306922D01*
X127999999Y-101306922D01*
X127612660Y-101327222D01*
X127229572Y-101387897D01*
X127229570Y-101387897D01*
X126854905Y-101488288D01*
X126492802Y-101627287D01*
X126147206Y-101803377D01*
X125821917Y-102014622D01*
X125520488Y-102258715D01*
X125520480Y-102258722D01*
X125246222Y-102532980D01*
X125246215Y-102532988D01*
X125002122Y-102834417D01*
X124790877Y-103159706D01*
X124614787Y-103505302D01*
X124475788Y-103867405D01*
X124375397Y-104242070D01*
X124375397Y-104242072D01*
X124314722Y-104625160D01*
X124294422Y-105012499D01*
X81039644Y-105012499D01*
X81024214Y-104954913D01*
X80885214Y-104592806D01*
X80709125Y-104247211D01*
X80705788Y-104242072D01*
X80497877Y-103921917D01*
X80253784Y-103620488D01*
X80253781Y-103620484D01*
X79979516Y-103346219D01*
X79678084Y-103102124D01*
X79678082Y-103102122D01*
X79352793Y-102890877D01*
X79007197Y-102714787D01*
X78645094Y-102575788D01*
X78485332Y-102532980D01*
X78270433Y-102475398D01*
X78270429Y-102475397D01*
X78270428Y-102475397D01*
X77887339Y-102414722D01*
X77500001Y-102394422D01*
X77499999Y-102394422D01*
X77112660Y-102414722D01*
X76729572Y-102475397D01*
X76729570Y-102475397D01*
X76354905Y-102575788D01*
X75992802Y-102714787D01*
X75647206Y-102890877D01*
X75321917Y-103102122D01*
X75020488Y-103346215D01*
X75020480Y-103346222D01*
X74746222Y-103620480D01*
X74746215Y-103620488D01*
X74502122Y-103921917D01*
X74290877Y-104247206D01*
X74114787Y-104592802D01*
X73975788Y-104954905D01*
X73875397Y-105329570D01*
X73875397Y-105329572D01*
X73814722Y-105712660D01*
X73794422Y-106099999D01*
X32457576Y-106099999D01*
X32476821Y-98074999D01*
X41519422Y-98074999D01*
X41519422Y-98075000D01*
X41539722Y-98462339D01*
X41600397Y-98845427D01*
X41600397Y-98845429D01*
X41700788Y-99220094D01*
X41839787Y-99582197D01*
X42015877Y-99927793D01*
X42227122Y-100253082D01*
X42443401Y-100520164D01*
X42471219Y-100554516D01*
X42745484Y-100828781D01*
X42745488Y-100828784D01*
X43046917Y-101072877D01*
X43335388Y-101260212D01*
X43372211Y-101284125D01*
X43717806Y-101460214D01*
X44079913Y-101599214D01*
X44454567Y-101699602D01*
X44837662Y-101760278D01*
X45203576Y-101779455D01*
X45224999Y-101780578D01*
X45225000Y-101780578D01*
X45225001Y-101780578D01*
X45245301Y-101779514D01*
X45612338Y-101760278D01*
X45995433Y-101699602D01*
X46370087Y-101599214D01*
X46732194Y-101460214D01*
X47077789Y-101284125D01*
X47403084Y-101072876D01*
X47704516Y-100828781D01*
X47978781Y-100554516D01*
X48222876Y-100253084D01*
X48434125Y-99927789D01*
X48610214Y-99582194D01*
X48749214Y-99220087D01*
X48849602Y-98845433D01*
X48910278Y-98462338D01*
X48930578Y-98075000D01*
X48930578Y-98074999D01*
X56119422Y-98074999D01*
X56119422Y-98075000D01*
X56139722Y-98462339D01*
X56200397Y-98845427D01*
X56200397Y-98845429D01*
X56300788Y-99220094D01*
X56439787Y-99582197D01*
X56615877Y-99927793D01*
X56827122Y-100253082D01*
X57043401Y-100520164D01*
X57071219Y-100554516D01*
X57345484Y-100828781D01*
X57345488Y-100828784D01*
X57646917Y-101072877D01*
X57935388Y-101260212D01*
X57972211Y-101284125D01*
X58317806Y-101460214D01*
X58679913Y-101599214D01*
X59054567Y-101699602D01*
X59437662Y-101760278D01*
X59803576Y-101779455D01*
X59824999Y-101780578D01*
X59825000Y-101780578D01*
X59825001Y-101780578D01*
X59845301Y-101779514D01*
X60212338Y-101760278D01*
X60595433Y-101699602D01*
X60970087Y-101599214D01*
X61332194Y-101460214D01*
X61677789Y-101284125D01*
X62003084Y-101072876D01*
X62304516Y-100828781D01*
X62578781Y-100554516D01*
X62822876Y-100253084D01*
X63034125Y-99927789D01*
X63210214Y-99582194D01*
X63349214Y-99220087D01*
X63449602Y-98845433D01*
X63510278Y-98462338D01*
X63530578Y-98075000D01*
X63520096Y-97875000D01*
X91544422Y-97875000D01*
X91564722Y-98262338D01*
X91625398Y-98645433D01*
X91673512Y-98824999D01*
X91725788Y-99020094D01*
X91864787Y-99382197D01*
X92040877Y-99727793D01*
X92252122Y-100053082D01*
X92252124Y-100053084D01*
X92496219Y-100354516D01*
X92770484Y-100628781D01*
X92770488Y-100628784D01*
X93071917Y-100872877D01*
X93397206Y-101084122D01*
X93397211Y-101084125D01*
X93742806Y-101260214D01*
X94104913Y-101399214D01*
X94479567Y-101499602D01*
X94862662Y-101560278D01*
X95228576Y-101579455D01*
X95249999Y-101580578D01*
X95250000Y-101580578D01*
X95250001Y-101580578D01*
X95270301Y-101579514D01*
X95637338Y-101560278D01*
X96020433Y-101499602D01*
X96395087Y-101399214D01*
X96757194Y-101260214D01*
X97102789Y-101084125D01*
X97428084Y-100872876D01*
X97729516Y-100628781D01*
X98003781Y-100354516D01*
X98247876Y-100053084D01*
X98459125Y-99727789D01*
X98635214Y-99382194D01*
X98774214Y-99020087D01*
X98874602Y-98645433D01*
X98935278Y-98262338D01*
X98955578Y-97875000D01*
X106144422Y-97875000D01*
X106164722Y-98262338D01*
X106225398Y-98645433D01*
X106273512Y-98824999D01*
X106325788Y-99020094D01*
X106464787Y-99382197D01*
X106640877Y-99727793D01*
X106852122Y-100053082D01*
X106852124Y-100053084D01*
X107096219Y-100354516D01*
X107370484Y-100628781D01*
X107370488Y-100628784D01*
X107671917Y-100872877D01*
X107997206Y-101084122D01*
X107997211Y-101084125D01*
X108342806Y-101260214D01*
X108704913Y-101399214D01*
X109079567Y-101499602D01*
X109462662Y-101560278D01*
X109828576Y-101579455D01*
X109849999Y-101580578D01*
X109850000Y-101580578D01*
X109850001Y-101580578D01*
X109870301Y-101579514D01*
X110237338Y-101560278D01*
X110620433Y-101499602D01*
X110995087Y-101399214D01*
X111357194Y-101260214D01*
X111702789Y-101084125D01*
X112028084Y-100872876D01*
X112329516Y-100628781D01*
X112603781Y-100354516D01*
X112847876Y-100053084D01*
X113059125Y-99727789D01*
X113235214Y-99382194D01*
X113374214Y-99020087D01*
X113426487Y-98825000D01*
X141194422Y-98825000D01*
X141214722Y-99212338D01*
X141275398Y-99595433D01*
X141364453Y-99927793D01*
X141375788Y-99970094D01*
X141514787Y-100332197D01*
X141690877Y-100677793D01*
X141902122Y-101003082D01*
X142110342Y-101260212D01*
X142146219Y-101304516D01*
X142420484Y-101578781D01*
X142420488Y-101578784D01*
X142721917Y-101822877D01*
X143017179Y-102014622D01*
X143047211Y-102034125D01*
X143392806Y-102210214D01*
X143754913Y-102349214D01*
X144129567Y-102449602D01*
X144512662Y-102510278D01*
X144878576Y-102529455D01*
X144899999Y-102530578D01*
X144900000Y-102530578D01*
X144900001Y-102530578D01*
X144920301Y-102529514D01*
X145287338Y-102510278D01*
X145670433Y-102449602D01*
X146045087Y-102349214D01*
X146407194Y-102210214D01*
X146752789Y-102034125D01*
X147078084Y-101822876D01*
X147379516Y-101578781D01*
X147653781Y-101304516D01*
X147897876Y-101003084D01*
X148109125Y-100677789D01*
X148285214Y-100332194D01*
X148424214Y-99970087D01*
X148524602Y-99595433D01*
X148585278Y-99212338D01*
X148605578Y-98825000D01*
X155794422Y-98825000D01*
X155814722Y-99212338D01*
X155875398Y-99595433D01*
X155964453Y-99927793D01*
X155975788Y-99970094D01*
X156114787Y-100332197D01*
X156290877Y-100677793D01*
X156502122Y-101003082D01*
X156710342Y-101260212D01*
X156746219Y-101304516D01*
X157020484Y-101578781D01*
X157020488Y-101578784D01*
X157321917Y-101822877D01*
X157617179Y-102014622D01*
X157647211Y-102034125D01*
X157992806Y-102210214D01*
X158354913Y-102349214D01*
X158729567Y-102449602D01*
X159112662Y-102510278D01*
X159478576Y-102529455D01*
X159499999Y-102530578D01*
X159500000Y-102530578D01*
X159500001Y-102530578D01*
X159520301Y-102529514D01*
X159887338Y-102510278D01*
X160270433Y-102449602D01*
X160645087Y-102349214D01*
X161007194Y-102210214D01*
X161352789Y-102034125D01*
X161678084Y-101822876D01*
X161979516Y-101578781D01*
X162253781Y-101304516D01*
X162497876Y-101003084D01*
X162709125Y-100677789D01*
X162885214Y-100332194D01*
X163024214Y-99970087D01*
X163124602Y-99595433D01*
X163185278Y-99212338D01*
X163205578Y-98825000D01*
X163185278Y-98437662D01*
X163124602Y-98054567D01*
X163024214Y-97679913D01*
X162885214Y-97317806D01*
X162709125Y-96972211D01*
X162709122Y-96972206D01*
X162497877Y-96646917D01*
X162253784Y-96345488D01*
X162253781Y-96345484D01*
X161979516Y-96071219D01*
X161678084Y-95827124D01*
X161678082Y-95827122D01*
X161352793Y-95615877D01*
X161007197Y-95439787D01*
X160645094Y-95300788D01*
X160645087Y-95300786D01*
X160270433Y-95200398D01*
X160270429Y-95200397D01*
X160270428Y-95200397D01*
X159887339Y-95139722D01*
X159500001Y-95119422D01*
X159499999Y-95119422D01*
X159112660Y-95139722D01*
X158729572Y-95200397D01*
X158729570Y-95200397D01*
X158354905Y-95300788D01*
X157992802Y-95439787D01*
X157647206Y-95615877D01*
X157321917Y-95827122D01*
X157020488Y-96071215D01*
X157020480Y-96071222D01*
X156746222Y-96345480D01*
X156746215Y-96345488D01*
X156502122Y-96646917D01*
X156290877Y-96972206D01*
X156114787Y-97317802D01*
X155975788Y-97679905D01*
X155875397Y-98054570D01*
X155875397Y-98054572D01*
X155814722Y-98437662D01*
X155794422Y-98825000D01*
X148605578Y-98825000D01*
X148585278Y-98437662D01*
X148524602Y-98054567D01*
X148424214Y-97679913D01*
X148285214Y-97317806D01*
X148109125Y-96972211D01*
X148109122Y-96972206D01*
X147897877Y-96646917D01*
X147653784Y-96345488D01*
X147653781Y-96345484D01*
X147379516Y-96071219D01*
X147078084Y-95827124D01*
X147078082Y-95827122D01*
X146752793Y-95615877D01*
X146407197Y-95439787D01*
X146045094Y-95300788D01*
X146045087Y-95300786D01*
X145670433Y-95200398D01*
X145670429Y-95200397D01*
X145670428Y-95200397D01*
X145287339Y-95139722D01*
X144900001Y-95119422D01*
X144899999Y-95119422D01*
X144512660Y-95139722D01*
X144129572Y-95200397D01*
X144129570Y-95200397D01*
X143754905Y-95300788D01*
X143392802Y-95439787D01*
X143047206Y-95615877D01*
X142721917Y-95827122D01*
X142420488Y-96071215D01*
X142420480Y-96071222D01*
X142146222Y-96345480D01*
X142146215Y-96345488D01*
X141902122Y-96646917D01*
X141690877Y-96972206D01*
X141514787Y-97317802D01*
X141375788Y-97679905D01*
X141275397Y-98054570D01*
X141275397Y-98054572D01*
X141214722Y-98437662D01*
X141194422Y-98825000D01*
X113426487Y-98825000D01*
X113474602Y-98645433D01*
X113535278Y-98262338D01*
X113555578Y-97875000D01*
X113535278Y-97487662D01*
X113474602Y-97104567D01*
X113374214Y-96729913D01*
X113235214Y-96367806D01*
X113059125Y-96022211D01*
X112977758Y-95896917D01*
X112847877Y-95696917D01*
X112603784Y-95395488D01*
X112603781Y-95395484D01*
X112329516Y-95121219D01*
X112209721Y-95024211D01*
X112028082Y-94877122D01*
X111702793Y-94665877D01*
X111357197Y-94489787D01*
X110995094Y-94350788D01*
X110995087Y-94350786D01*
X110620433Y-94250398D01*
X110620429Y-94250397D01*
X110620428Y-94250397D01*
X110237339Y-94189722D01*
X109850001Y-94169422D01*
X109849999Y-94169422D01*
X109462660Y-94189722D01*
X109079572Y-94250397D01*
X109079570Y-94250397D01*
X108704905Y-94350788D01*
X108342802Y-94489787D01*
X107997206Y-94665877D01*
X107671917Y-94877122D01*
X107370488Y-95121215D01*
X107370480Y-95121222D01*
X107096222Y-95395480D01*
X107096215Y-95395488D01*
X106852122Y-95696917D01*
X106640877Y-96022206D01*
X106464787Y-96367802D01*
X106325788Y-96729905D01*
X106225397Y-97104570D01*
X106225397Y-97104572D01*
X106164722Y-97487662D01*
X106144422Y-97875000D01*
X98955578Y-97875000D01*
X98935278Y-97487662D01*
X98874602Y-97104567D01*
X98774214Y-96729913D01*
X98635214Y-96367806D01*
X98459125Y-96022211D01*
X98377758Y-95896917D01*
X98247877Y-95696917D01*
X98003784Y-95395488D01*
X98003781Y-95395484D01*
X97729516Y-95121219D01*
X97609721Y-95024211D01*
X97428082Y-94877122D01*
X97102793Y-94665877D01*
X96757197Y-94489787D01*
X96395094Y-94350788D01*
X96395087Y-94350786D01*
X96020433Y-94250398D01*
X96020429Y-94250397D01*
X96020428Y-94250397D01*
X95637339Y-94189722D01*
X95250001Y-94169422D01*
X95249999Y-94169422D01*
X94862660Y-94189722D01*
X94479572Y-94250397D01*
X94479570Y-94250397D01*
X94104905Y-94350788D01*
X93742802Y-94489787D01*
X93397206Y-94665877D01*
X93071917Y-94877122D01*
X92770488Y-95121215D01*
X92770480Y-95121222D01*
X92496222Y-95395480D01*
X92496215Y-95395488D01*
X92252122Y-95696917D01*
X92040877Y-96022206D01*
X91864787Y-96367802D01*
X91725788Y-96729905D01*
X91625397Y-97104570D01*
X91625397Y-97104572D01*
X91564722Y-97487662D01*
X91544422Y-97875000D01*
X63520096Y-97875000D01*
X63510278Y-97687662D01*
X63449602Y-97304567D01*
X63349214Y-96929913D01*
X63210214Y-96567806D01*
X63034125Y-96222211D01*
X62904244Y-96022211D01*
X62822877Y-95896917D01*
X62578784Y-95595488D01*
X62578781Y-95595484D01*
X62304516Y-95321219D01*
X62270164Y-95293401D01*
X62003082Y-95077122D01*
X61677793Y-94865877D01*
X61332197Y-94689787D01*
X60970094Y-94550788D01*
X60772627Y-94497877D01*
X60595433Y-94450398D01*
X60595429Y-94450397D01*
X60595428Y-94450397D01*
X60212339Y-94389722D01*
X59825001Y-94369422D01*
X59824999Y-94369422D01*
X59437660Y-94389722D01*
X59054572Y-94450397D01*
X59054570Y-94450397D01*
X58679905Y-94550788D01*
X58317802Y-94689787D01*
X57972206Y-94865877D01*
X57646917Y-95077122D01*
X57345488Y-95321215D01*
X57345480Y-95321222D01*
X57071222Y-95595480D01*
X57071215Y-95595488D01*
X56827122Y-95896917D01*
X56615877Y-96222206D01*
X56439787Y-96567802D01*
X56300788Y-96929905D01*
X56200397Y-97304570D01*
X56200397Y-97304572D01*
X56139722Y-97687660D01*
X56119422Y-98074999D01*
X48930578Y-98074999D01*
X48910278Y-97687662D01*
X48849602Y-97304567D01*
X48749214Y-96929913D01*
X48610214Y-96567806D01*
X48434125Y-96222211D01*
X48304244Y-96022211D01*
X48222877Y-95896917D01*
X47978784Y-95595488D01*
X47978781Y-95595484D01*
X47704516Y-95321219D01*
X47670164Y-95293401D01*
X47403082Y-95077122D01*
X47077793Y-94865877D01*
X46732197Y-94689787D01*
X46370094Y-94550788D01*
X46172627Y-94497877D01*
X45995433Y-94450398D01*
X45995429Y-94450397D01*
X45995428Y-94450397D01*
X45612339Y-94389722D01*
X45225001Y-94369422D01*
X45224999Y-94369422D01*
X44837660Y-94389722D01*
X44454572Y-94450397D01*
X44454570Y-94450397D01*
X44079905Y-94550788D01*
X43717802Y-94689787D01*
X43372206Y-94865877D01*
X43046917Y-95077122D01*
X42745488Y-95321215D01*
X42745480Y-95321222D01*
X42471222Y-95595480D01*
X42471215Y-95595488D01*
X42227122Y-95896917D01*
X42015877Y-96222206D01*
X41839787Y-96567802D01*
X41700788Y-96929905D01*
X41600397Y-97304570D01*
X41600397Y-97304572D01*
X41539722Y-97687660D01*
X41519422Y-98074999D01*
X32476821Y-98074999D01*
X32492588Y-91500000D01*
X73794422Y-91500000D01*
X73814722Y-91887338D01*
X73875398Y-92270433D01*
X73961181Y-92590582D01*
X73975788Y-92645094D01*
X74114787Y-93007197D01*
X74290877Y-93352793D01*
X74502122Y-93678082D01*
X74711556Y-93936711D01*
X74746219Y-93979516D01*
X75020484Y-94253781D01*
X75020488Y-94253784D01*
X75321917Y-94497877D01*
X75617433Y-94689787D01*
X75647211Y-94709125D01*
X75954851Y-94865875D01*
X75976924Y-94877122D01*
X75992806Y-94885214D01*
X76354913Y-95024214D01*
X76729567Y-95124602D01*
X77112662Y-95185278D01*
X77478576Y-95204455D01*
X77499999Y-95205578D01*
X77500000Y-95205578D01*
X77500001Y-95205578D01*
X77520301Y-95204514D01*
X77887338Y-95185278D01*
X78270433Y-95124602D01*
X78645087Y-95024214D01*
X79007194Y-94885214D01*
X79352789Y-94709125D01*
X79678084Y-94497876D01*
X79979516Y-94253781D01*
X80253781Y-93979516D01*
X80497876Y-93678084D01*
X80709125Y-93352789D01*
X80885214Y-93007194D01*
X81024214Y-92645087D01*
X81124602Y-92270433D01*
X81185278Y-91887338D01*
X81205578Y-91500000D01*
X81185278Y-91112662D01*
X81124602Y-90729567D01*
X81039644Y-90412499D01*
X124294422Y-90412499D01*
X124294422Y-90412500D01*
X124314722Y-90799839D01*
X124375397Y-91182927D01*
X124375397Y-91182929D01*
X124475788Y-91557594D01*
X124614787Y-91919697D01*
X124790877Y-92265293D01*
X125002122Y-92590582D01*
X125046265Y-92645094D01*
X125246219Y-92892016D01*
X125520484Y-93166281D01*
X125520488Y-93166284D01*
X125821917Y-93410377D01*
X126147206Y-93621622D01*
X126147211Y-93621625D01*
X126492806Y-93797714D01*
X126854913Y-93936714D01*
X127229567Y-94037102D01*
X127612662Y-94097778D01*
X127978576Y-94116955D01*
X127999999Y-94118078D01*
X128000000Y-94118078D01*
X128000001Y-94118078D01*
X128020301Y-94117014D01*
X128387338Y-94097778D01*
X128770433Y-94037102D01*
X129145087Y-93936714D01*
X129507194Y-93797714D01*
X129852789Y-93621625D01*
X130178084Y-93410376D01*
X130479516Y-93166281D01*
X130753781Y-92892016D01*
X130997876Y-92590584D01*
X131209125Y-92265289D01*
X131385214Y-91919694D01*
X131524214Y-91557587D01*
X131624602Y-91182933D01*
X131685278Y-90799838D01*
X131705578Y-90412500D01*
X131685278Y-90025162D01*
X131624602Y-89642067D01*
X131524214Y-89267413D01*
X131385214Y-88905306D01*
X131209125Y-88559711D01*
X131209122Y-88559706D01*
X130997877Y-88234417D01*
X130753784Y-87932988D01*
X130753781Y-87932984D01*
X130479516Y-87658719D01*
X130178084Y-87414624D01*
X130178082Y-87414622D01*
X129852793Y-87203377D01*
X129507197Y-87027287D01*
X129145094Y-86888288D01*
X129145087Y-86888286D01*
X128770433Y-86787898D01*
X128770429Y-86787897D01*
X128770428Y-86787897D01*
X128387339Y-86727222D01*
X128000001Y-86706922D01*
X127999999Y-86706922D01*
X127612660Y-86727222D01*
X127229572Y-86787897D01*
X127229570Y-86787897D01*
X126854905Y-86888288D01*
X126492802Y-87027287D01*
X126147206Y-87203377D01*
X125821917Y-87414622D01*
X125520488Y-87658715D01*
X125520480Y-87658722D01*
X125246222Y-87932980D01*
X125246215Y-87932988D01*
X125002122Y-88234417D01*
X124790877Y-88559706D01*
X124614787Y-88905302D01*
X124475788Y-89267405D01*
X124375397Y-89642070D01*
X124375397Y-89642072D01*
X124314722Y-90025160D01*
X124294422Y-90412499D01*
X81039644Y-90412499D01*
X81024214Y-90354913D01*
X80885214Y-89992806D01*
X80709125Y-89647211D01*
X80705788Y-89642072D01*
X80497877Y-89321917D01*
X80253784Y-89020488D01*
X80253781Y-89020484D01*
X79979516Y-88746219D01*
X79799567Y-88600499D01*
X79678082Y-88502122D01*
X79352793Y-88290877D01*
X79007197Y-88114787D01*
X78645094Y-87975788D01*
X78645087Y-87975786D01*
X78270433Y-87875398D01*
X78270429Y-87875397D01*
X78270428Y-87875397D01*
X77887339Y-87814722D01*
X77500001Y-87794422D01*
X77499999Y-87794422D01*
X77112660Y-87814722D01*
X76729572Y-87875397D01*
X76729570Y-87875397D01*
X76354905Y-87975788D01*
X75992802Y-88114787D01*
X75647206Y-88290877D01*
X75321917Y-88502122D01*
X75020488Y-88746215D01*
X75020480Y-88746222D01*
X74746222Y-89020480D01*
X74746215Y-89020488D01*
X74502122Y-89321917D01*
X74290877Y-89647206D01*
X74114787Y-89992802D01*
X73975788Y-90354905D01*
X73875397Y-90729570D01*
X73875397Y-90729572D01*
X73832487Y-91000500D01*
X73814722Y-91112662D01*
X73794422Y-91500000D01*
X32492588Y-91500000D01*
X32499005Y-88824201D01*
X32518851Y-88757211D01*
X32571764Y-88711582D01*
X32623005Y-88700500D01*
X38565890Y-88700500D01*
X38565892Y-88700500D01*
X38693186Y-88666392D01*
X38807314Y-88600500D01*
X38900500Y-88507314D01*
X38966392Y-88393186D01*
X39000500Y-88265892D01*
X39000500Y-72134108D01*
X38966392Y-72006814D01*
X38900500Y-71892686D01*
X38807314Y-71799500D01*
X38750250Y-71766554D01*
X38693187Y-71733608D01*
X38629539Y-71716554D01*
X38565892Y-71699500D01*
X38565891Y-71699500D01*
X32624500Y-71699500D01*
X32557461Y-71679815D01*
X32511706Y-71627011D01*
X32500500Y-71575500D01*
X32500500Y-68100000D01*
X56794422Y-68100000D01*
X56814722Y-68487338D01*
X56875398Y-68870433D01*
X56961181Y-69190582D01*
X56975788Y-69245094D01*
X57114787Y-69607197D01*
X57290877Y-69952793D01*
X57502122Y-70278082D01*
X57711556Y-70536711D01*
X57746219Y-70579516D01*
X58020484Y-70853781D01*
X58020488Y-70853784D01*
X58321917Y-71097877D01*
X58647206Y-71309122D01*
X58647211Y-71309125D01*
X58992806Y-71485214D01*
X59354913Y-71624214D01*
X59729567Y-71724602D01*
X60112662Y-71785278D01*
X60478576Y-71804455D01*
X60499999Y-71805578D01*
X60500000Y-71805578D01*
X60500001Y-71805578D01*
X60520301Y-71804514D01*
X60887338Y-71785278D01*
X61270433Y-71724602D01*
X61645087Y-71624214D01*
X62007194Y-71485214D01*
X62352789Y-71309125D01*
X62678084Y-71097876D01*
X62979516Y-70853781D01*
X63253781Y-70579516D01*
X63497876Y-70278084D01*
X63709125Y-69952789D01*
X63885214Y-69607194D01*
X64024214Y-69245087D01*
X64124602Y-68870433D01*
X64185278Y-68487338D01*
X64205578Y-68100000D01*
X106794422Y-68100000D01*
X106814722Y-68487338D01*
X106875398Y-68870433D01*
X106961181Y-69190582D01*
X106975788Y-69245094D01*
X107114787Y-69607197D01*
X107290877Y-69952793D01*
X107502122Y-70278082D01*
X107711556Y-70536711D01*
X107746219Y-70579516D01*
X108020484Y-70853781D01*
X108020488Y-70853784D01*
X108321917Y-71097877D01*
X108647206Y-71309122D01*
X108647211Y-71309125D01*
X108992806Y-71485214D01*
X109354913Y-71624214D01*
X109729567Y-71724602D01*
X110112662Y-71785278D01*
X110478576Y-71804455D01*
X110499999Y-71805578D01*
X110500000Y-71805578D01*
X110500001Y-71805578D01*
X110520301Y-71804514D01*
X110887338Y-71785278D01*
X111270433Y-71724602D01*
X111645087Y-71624214D01*
X112007194Y-71485214D01*
X112352789Y-71309125D01*
X112678084Y-71097876D01*
X112979516Y-70853781D01*
X113253781Y-70579516D01*
X113497876Y-70278084D01*
X113709125Y-69952789D01*
X113885214Y-69607194D01*
X114024214Y-69245087D01*
X114124602Y-68870433D01*
X114185278Y-68487338D01*
X114205578Y-68100000D01*
X114185278Y-67712662D01*
X114124602Y-67329567D01*
X114039644Y-67012499D01*
X154794422Y-67012499D01*
X154794422Y-67012500D01*
X154814722Y-67399839D01*
X154875397Y-67782927D01*
X154875397Y-67782929D01*
X154975788Y-68157594D01*
X155114787Y-68519697D01*
X155290877Y-68865293D01*
X155502122Y-69190582D01*
X155546265Y-69245094D01*
X155746219Y-69492016D01*
X156020484Y-69766281D01*
X156020488Y-69766284D01*
X156321917Y-70010377D01*
X156647206Y-70221622D01*
X156647211Y-70221625D01*
X156992806Y-70397714D01*
X157354913Y-70536714D01*
X157729567Y-70637102D01*
X158112662Y-70697778D01*
X158478576Y-70716955D01*
X158499999Y-70718078D01*
X158500000Y-70718078D01*
X158500001Y-70718078D01*
X158520301Y-70717014D01*
X158887338Y-70697778D01*
X159270433Y-70637102D01*
X159645087Y-70536714D01*
X160007194Y-70397714D01*
X160352789Y-70221625D01*
X160678084Y-70010376D01*
X160979516Y-69766281D01*
X161253781Y-69492016D01*
X161497876Y-69190584D01*
X161709125Y-68865289D01*
X161885214Y-68519694D01*
X162024214Y-68157587D01*
X162124602Y-67782933D01*
X162185278Y-67399838D01*
X162205578Y-67012500D01*
X162185278Y-66625162D01*
X162124602Y-66242067D01*
X162024214Y-65867413D01*
X161885214Y-65505306D01*
X161709125Y-65159711D01*
X161671728Y-65102124D01*
X161497877Y-64834417D01*
X161253784Y-64532988D01*
X161253781Y-64532984D01*
X160979516Y-64258719D01*
X160678084Y-64014624D01*
X160678082Y-64014622D01*
X160352793Y-63803377D01*
X160007197Y-63627287D01*
X159645094Y-63488288D01*
X159645087Y-63488286D01*
X159270433Y-63387898D01*
X159270429Y-63387897D01*
X159270428Y-63387897D01*
X158887339Y-63327222D01*
X158500001Y-63306922D01*
X158499999Y-63306922D01*
X158112660Y-63327222D01*
X157729572Y-63387897D01*
X157729570Y-63387897D01*
X157354905Y-63488288D01*
X156992802Y-63627287D01*
X156647206Y-63803377D01*
X156321917Y-64014622D01*
X156020488Y-64258715D01*
X156020480Y-64258722D01*
X155746222Y-64532980D01*
X155746215Y-64532988D01*
X155502122Y-64834417D01*
X155290877Y-65159706D01*
X155114787Y-65505302D01*
X154975788Y-65867405D01*
X154875397Y-66242070D01*
X154875397Y-66242072D01*
X154814722Y-66625160D01*
X154794422Y-67012499D01*
X114039644Y-67012499D01*
X114024214Y-66954913D01*
X113885214Y-66592806D01*
X113709125Y-66247211D01*
X113705788Y-66242072D01*
X113497877Y-65921917D01*
X113253784Y-65620488D01*
X113253781Y-65620484D01*
X112979516Y-65346219D01*
X112678084Y-65102124D01*
X112678082Y-65102122D01*
X112352793Y-64890877D01*
X112007197Y-64714787D01*
X111645094Y-64575788D01*
X111485332Y-64532980D01*
X111270433Y-64475398D01*
X111270429Y-64475397D01*
X111270428Y-64475397D01*
X110887339Y-64414722D01*
X110500001Y-64394422D01*
X110499999Y-64394422D01*
X110112660Y-64414722D01*
X109729572Y-64475397D01*
X109729570Y-64475397D01*
X109354905Y-64575788D01*
X108992802Y-64714787D01*
X108647206Y-64890877D01*
X108321917Y-65102122D01*
X108020488Y-65346215D01*
X108020480Y-65346222D01*
X107746222Y-65620480D01*
X107746215Y-65620488D01*
X107502122Y-65921917D01*
X107290877Y-66247206D01*
X107114787Y-66592802D01*
X106975788Y-66954905D01*
X106875397Y-67329570D01*
X106875397Y-67329572D01*
X106814722Y-67712662D01*
X106794422Y-68100000D01*
X64205578Y-68100000D01*
X64185278Y-67712662D01*
X64124602Y-67329567D01*
X64024214Y-66954913D01*
X63885214Y-66592806D01*
X63709125Y-66247211D01*
X63705788Y-66242072D01*
X63497877Y-65921917D01*
X63253784Y-65620488D01*
X63253781Y-65620484D01*
X62979516Y-65346219D01*
X62678084Y-65102124D01*
X62678082Y-65102122D01*
X62352793Y-64890877D01*
X62007197Y-64714787D01*
X61645094Y-64575788D01*
X61485332Y-64532980D01*
X61270433Y-64475398D01*
X61270429Y-64475397D01*
X61270428Y-64475397D01*
X60887339Y-64414722D01*
X60500001Y-64394422D01*
X60499999Y-64394422D01*
X60112660Y-64414722D01*
X59729572Y-64475397D01*
X59729570Y-64475397D01*
X59354905Y-64575788D01*
X58992802Y-64714787D01*
X58647206Y-64890877D01*
X58321917Y-65102122D01*
X58020488Y-65346215D01*
X58020480Y-65346222D01*
X57746222Y-65620480D01*
X57746215Y-65620488D01*
X57502122Y-65921917D01*
X57290877Y-66247206D01*
X57114787Y-66592802D01*
X56975788Y-66954905D01*
X56875397Y-67329570D01*
X56875397Y-67329572D01*
X56814722Y-67712662D01*
X56794422Y-68100000D01*
X32500500Y-68100000D01*
X32500500Y-57939999D01*
X73634422Y-57939999D01*
X73634422Y-57940000D01*
X73654722Y-58327339D01*
X73715397Y-58710427D01*
X73715397Y-58710429D01*
X73815788Y-59085094D01*
X73954787Y-59447197D01*
X74130877Y-59792793D01*
X74342122Y-60118082D01*
X74342124Y-60118084D01*
X74586219Y-60419516D01*
X74860484Y-60693781D01*
X74860488Y-60693784D01*
X75161917Y-60937877D01*
X75309330Y-61033608D01*
X75487211Y-61149125D01*
X75832806Y-61325214D01*
X76194913Y-61464214D01*
X76569567Y-61564602D01*
X76952662Y-61625278D01*
X77318576Y-61644455D01*
X77339999Y-61645578D01*
X77340000Y-61645578D01*
X77340001Y-61645578D01*
X77360301Y-61644514D01*
X77727338Y-61625278D01*
X78110433Y-61564602D01*
X78485087Y-61464214D01*
X78847194Y-61325214D01*
X79192789Y-61149125D01*
X79518084Y-60937876D01*
X79819516Y-60693781D01*
X80093781Y-60419516D01*
X80337876Y-60118084D01*
X80549125Y-59792789D01*
X80725214Y-59447194D01*
X80864214Y-59085087D01*
X80964602Y-58710433D01*
X81025278Y-58327338D01*
X81045578Y-57940000D01*
X81045578Y-57939999D01*
X123281922Y-57939999D01*
X123281922Y-57940000D01*
X123302222Y-58327339D01*
X123362897Y-58710427D01*
X123362897Y-58710429D01*
X123463288Y-59085094D01*
X123602287Y-59447197D01*
X123778377Y-59792793D01*
X123989622Y-60118082D01*
X123989624Y-60118084D01*
X124233719Y-60419516D01*
X124507984Y-60693781D01*
X124507988Y-60693784D01*
X124809417Y-60937877D01*
X124956830Y-61033608D01*
X125134711Y-61149125D01*
X125480306Y-61325214D01*
X125842413Y-61464214D01*
X126217067Y-61564602D01*
X126600162Y-61625278D01*
X126966076Y-61644455D01*
X126987499Y-61645578D01*
X126987500Y-61645578D01*
X126987501Y-61645578D01*
X127007801Y-61644514D01*
X127374838Y-61625278D01*
X127757933Y-61564602D01*
X128132587Y-61464214D01*
X128494694Y-61325214D01*
X128840289Y-61149125D01*
X129165584Y-60937876D01*
X129467016Y-60693781D01*
X129741281Y-60419516D01*
X129985376Y-60118084D01*
X130196625Y-59792789D01*
X130372714Y-59447194D01*
X130511714Y-59085087D01*
X130612102Y-58710433D01*
X130672778Y-58327338D01*
X130693078Y-57940000D01*
X130672778Y-57552662D01*
X130612102Y-57169567D01*
X130511714Y-56794913D01*
X130372714Y-56432806D01*
X130196625Y-56087211D01*
X129985376Y-55761916D01*
X129741281Y-55460484D01*
X129467016Y-55186219D01*
X129165584Y-54942124D01*
X129165582Y-54942122D01*
X128840293Y-54730877D01*
X128494697Y-54554787D01*
X128132594Y-54415788D01*
X128132587Y-54415786D01*
X127757933Y-54315398D01*
X127757929Y-54315397D01*
X127757928Y-54315397D01*
X127374839Y-54254722D01*
X126987501Y-54234422D01*
X126987499Y-54234422D01*
X126600160Y-54254722D01*
X126217072Y-54315397D01*
X126217070Y-54315397D01*
X125842405Y-54415788D01*
X125480302Y-54554787D01*
X125134706Y-54730877D01*
X124809417Y-54942122D01*
X124507988Y-55186215D01*
X124507980Y-55186222D01*
X124233722Y-55460480D01*
X124233715Y-55460488D01*
X123989622Y-55761917D01*
X123778377Y-56087206D01*
X123602287Y-56432802D01*
X123463288Y-56794905D01*
X123362897Y-57169570D01*
X123362897Y-57169572D01*
X123302222Y-57552660D01*
X123281922Y-57939999D01*
X81045578Y-57939999D01*
X81025278Y-57552662D01*
X80964602Y-57169567D01*
X80864214Y-56794913D01*
X80725214Y-56432806D01*
X80549125Y-56087211D01*
X80337876Y-55761916D01*
X80093781Y-55460484D01*
X79819516Y-55186219D01*
X79518084Y-54942124D01*
X79518082Y-54942122D01*
X79192793Y-54730877D01*
X78847197Y-54554787D01*
X78485094Y-54415788D01*
X78485087Y-54415786D01*
X78110433Y-54315398D01*
X78110429Y-54315397D01*
X78110428Y-54315397D01*
X77727339Y-54254722D01*
X77340001Y-54234422D01*
X77339999Y-54234422D01*
X76952660Y-54254722D01*
X76569572Y-54315397D01*
X76569570Y-54315397D01*
X76194905Y-54415788D01*
X75832802Y-54554787D01*
X75487206Y-54730877D01*
X75161917Y-54942122D01*
X74860488Y-55186215D01*
X74860480Y-55186222D01*
X74586222Y-55460480D01*
X74586215Y-55460488D01*
X74342122Y-55761917D01*
X74130877Y-56087206D01*
X73954787Y-56432802D01*
X73815788Y-56794905D01*
X73715397Y-57169570D01*
X73715397Y-57169572D01*
X73654722Y-57552660D01*
X73634422Y-57939999D01*
X32500500Y-57939999D01*
X32500500Y-29524500D01*
X32520185Y-29457461D01*
X32572989Y-29411706D01*
X32624500Y-29400500D01*
X188375500Y-29400500D01*
X188442539Y-29420185D01*
G37*
%TD.AperFunction*%
%TD*%
M02*
