%TF.GenerationSoftware,KiCad,Pcbnew,8.0.6-8.0.6-0~ubuntu24.04.1*%
%TF.CreationDate,2024-11-29T15:02:06+01:00*%
%TF.ProjectId,diplexer,6469706c-6578-4657-922e-6b696361645f,rev?*%
%TF.SameCoordinates,Original*%
%TF.FileFunction,Drillmap*%
%TF.FilePolarity,Positive*%
%FSLAX45Y45*%
G04 Gerber Fmt 4.5, Leading zero omitted, Abs format (unit mm)*
G04 Created by KiCad (PCBNEW 8.0.6-8.0.6-0~ubuntu24.04.1) date 2024-11-29 15:02:06*
%MOMM*%
%LPD*%
G01*
G04 APERTURE LIST*
%ADD10C,0.050000*%
%ADD11C,0.200000*%
%ADD12C,0.100000*%
%ADD13C,0.160000*%
%ADD14C,0.320000*%
G04 APERTURE END LIST*
D10*
X18900000Y-6150000D02*
X18010000Y-6150000D01*
X18010000Y-6640000D01*
X18900000Y-6640000D01*
X18900000Y-9060000D01*
X18260000Y-9060000D01*
X18260000Y-10660000D01*
X18900000Y-10660000D01*
X18900000Y-12990000D01*
X3190000Y-12990000D01*
X3200000Y-8820000D01*
X3850000Y-8820000D01*
X3850000Y-7220000D01*
X3200000Y-7220000D01*
X3200000Y-2890000D01*
X18900000Y-2890000D01*
X18900000Y-6150000D01*
D11*
D12*
X4385000Y-11075000D02*
X4415000Y-11105000D01*
X4415000Y-11075000D02*
X4385000Y-11105000D01*
X4435000Y-4825000D02*
X4465000Y-4855000D01*
X4465000Y-4825000D02*
X4435000Y-4855000D01*
X4685000Y-11075000D02*
X4715000Y-11105000D01*
X4715000Y-11075000D02*
X4685000Y-11105000D01*
X4735000Y-4825000D02*
X4765000Y-4855000D01*
X4765000Y-4825000D02*
X4735000Y-4855000D01*
X4935000Y-11075000D02*
X4965000Y-11105000D01*
X4965000Y-11075000D02*
X4935000Y-11105000D01*
X4985000Y-4825000D02*
X5015000Y-4855000D01*
X5015000Y-4825000D02*
X4985000Y-4855000D01*
X5235000Y-7575000D02*
X5265000Y-7605000D01*
X5265000Y-7575000D02*
X5235000Y-7605000D01*
X5235000Y-11075000D02*
X5265000Y-11105000D01*
X5265000Y-11075000D02*
X5235000Y-11105000D01*
X5285000Y-4825000D02*
X5315000Y-4855000D01*
X5315000Y-4825000D02*
X5285000Y-4855000D01*
X5335000Y-8625000D02*
X5365000Y-8655000D01*
X5365000Y-8625000D02*
X5335000Y-8655000D01*
X5535000Y-7575000D02*
X5565000Y-7605000D01*
X5565000Y-7575000D02*
X5535000Y-7605000D01*
X5535000Y-11075000D02*
X5565000Y-11105000D01*
X5565000Y-11075000D02*
X5535000Y-11105000D01*
X5585000Y-4825000D02*
X5615000Y-4855000D01*
X5615000Y-4825000D02*
X5585000Y-4855000D01*
X5635000Y-8625000D02*
X5665000Y-8655000D01*
X5665000Y-8625000D02*
X5635000Y-8655000D01*
X5785000Y-7575000D02*
X5815000Y-7605000D01*
X5815000Y-7575000D02*
X5785000Y-7605000D01*
X5835000Y-11075000D02*
X5865000Y-11105000D01*
X5865000Y-11075000D02*
X5835000Y-11105000D01*
X5885000Y-4825000D02*
X5915000Y-4855000D01*
X5915000Y-4825000D02*
X5885000Y-4855000D01*
X5885000Y-8625000D02*
X5915000Y-8655000D01*
X5915000Y-8625000D02*
X5885000Y-8655000D01*
X6085000Y-7575000D02*
X6115000Y-7605000D01*
X6115000Y-7575000D02*
X6085000Y-7605000D01*
X6085000Y-11075000D02*
X6115000Y-11105000D01*
X6115000Y-11075000D02*
X6085000Y-11105000D01*
X6135000Y-4825000D02*
X6165000Y-4855000D01*
X6165000Y-4825000D02*
X6135000Y-4855000D01*
X6185000Y-8625000D02*
X6215000Y-8655000D01*
X6215000Y-8625000D02*
X6185000Y-8655000D01*
X6335000Y-11075000D02*
X6365000Y-11105000D01*
X6365000Y-11075000D02*
X6335000Y-11105000D01*
X6385000Y-4825000D02*
X6415000Y-4855000D01*
X6415000Y-4825000D02*
X6385000Y-4855000D01*
X6385000Y-7575000D02*
X6415000Y-7605000D01*
X6415000Y-7575000D02*
X6385000Y-7605000D01*
X6485000Y-8625000D02*
X6515000Y-8655000D01*
X6515000Y-8625000D02*
X6485000Y-8655000D01*
X6585000Y-11075000D02*
X6615000Y-11105000D01*
X6615000Y-11075000D02*
X6585000Y-11105000D01*
X6635000Y-4825000D02*
X6665000Y-4855000D01*
X6665000Y-4825000D02*
X6635000Y-4855000D01*
X6685000Y-7575000D02*
X6715000Y-7605000D01*
X6715000Y-7575000D02*
X6685000Y-7605000D01*
X6785000Y-8625000D02*
X6815000Y-8655000D01*
X6815000Y-8625000D02*
X6785000Y-8655000D01*
X6785000Y-11075000D02*
X6815000Y-11105000D01*
X6815000Y-11075000D02*
X6785000Y-11105000D01*
X6835000Y-4825000D02*
X6865000Y-4855000D01*
X6865000Y-4825000D02*
X6835000Y-4855000D01*
X6935000Y-7575000D02*
X6965000Y-7605000D01*
X6965000Y-7575000D02*
X6935000Y-7605000D01*
X6985000Y-11075000D02*
X7015000Y-11105000D01*
X7015000Y-11075000D02*
X6985000Y-11105000D01*
X7035000Y-4825000D02*
X7065000Y-4855000D01*
X7065000Y-4825000D02*
X7035000Y-4855000D01*
X7035000Y-8625000D02*
X7065000Y-8655000D01*
X7065000Y-8625000D02*
X7035000Y-8655000D01*
X7185000Y-7575000D02*
X7215000Y-7605000D01*
X7215000Y-7575000D02*
X7185000Y-7605000D01*
X7285000Y-8625000D02*
X7315000Y-8655000D01*
X7315000Y-8625000D02*
X7285000Y-8655000D01*
X7285000Y-11075000D02*
X7315000Y-11105000D01*
X7315000Y-11075000D02*
X7285000Y-11105000D01*
X7335000Y-4825000D02*
X7365000Y-4855000D01*
X7365000Y-4825000D02*
X7335000Y-4855000D01*
X7435000Y-7575000D02*
X7465000Y-7605000D01*
X7465000Y-7575000D02*
X7435000Y-7605000D01*
X7535000Y-8625000D02*
X7565000Y-8655000D01*
X7565000Y-8625000D02*
X7535000Y-8655000D01*
X7535000Y-11075000D02*
X7565000Y-11105000D01*
X7565000Y-11075000D02*
X7535000Y-11105000D01*
X7585000Y-4825000D02*
X7615000Y-4855000D01*
X7615000Y-4825000D02*
X7585000Y-4855000D01*
X7635000Y-7575000D02*
X7665000Y-7605000D01*
X7665000Y-7575000D02*
X7635000Y-7605000D01*
X7735000Y-8625000D02*
X7765000Y-8655000D01*
X7765000Y-8625000D02*
X7735000Y-8655000D01*
X7835000Y-7575000D02*
X7865000Y-7605000D01*
X7865000Y-7575000D02*
X7835000Y-7605000D01*
X7835000Y-11075000D02*
X7865000Y-11105000D01*
X7865000Y-11075000D02*
X7835000Y-11105000D01*
X7885000Y-4825000D02*
X7915000Y-4855000D01*
X7915000Y-4825000D02*
X7885000Y-4855000D01*
X7935000Y-8625000D02*
X7965000Y-8655000D01*
X7965000Y-8625000D02*
X7935000Y-8655000D01*
X8135000Y-7575000D02*
X8165000Y-7605000D01*
X8165000Y-7575000D02*
X8135000Y-7605000D01*
X8135000Y-11075000D02*
X8165000Y-11105000D01*
X8165000Y-11075000D02*
X8135000Y-11105000D01*
X8185000Y-4825000D02*
X8215000Y-4855000D01*
X8215000Y-4825000D02*
X8185000Y-4855000D01*
X8235000Y-8625000D02*
X8265000Y-8655000D01*
X8265000Y-8625000D02*
X8235000Y-8655000D01*
X8385000Y-7575000D02*
X8415000Y-7605000D01*
X8415000Y-7575000D02*
X8385000Y-7605000D01*
X8435000Y-11075000D02*
X8465000Y-11105000D01*
X8465000Y-11075000D02*
X8435000Y-11105000D01*
X8485000Y-4825000D02*
X8515000Y-4855000D01*
X8515000Y-4825000D02*
X8485000Y-4855000D01*
X8485000Y-8625000D02*
X8515000Y-8655000D01*
X8515000Y-8625000D02*
X8485000Y-8655000D01*
X8685000Y-7575000D02*
X8715000Y-7605000D01*
X8715000Y-7575000D02*
X8685000Y-7605000D01*
X8685000Y-11075000D02*
X8715000Y-11105000D01*
X8715000Y-11075000D02*
X8685000Y-11105000D01*
X8735000Y-4825000D02*
X8765000Y-4855000D01*
X8765000Y-4825000D02*
X8735000Y-4855000D01*
X8785000Y-8625000D02*
X8815000Y-8655000D01*
X8815000Y-8625000D02*
X8785000Y-8655000D01*
X8935000Y-11075000D02*
X8965000Y-11105000D01*
X8965000Y-11075000D02*
X8935000Y-11105000D01*
X8985000Y-4825000D02*
X9015000Y-4855000D01*
X9015000Y-4825000D02*
X8985000Y-4855000D01*
X8985000Y-7575000D02*
X9015000Y-7605000D01*
X9015000Y-7575000D02*
X8985000Y-7605000D01*
X9085000Y-8625000D02*
X9115000Y-8655000D01*
X9115000Y-8625000D02*
X9085000Y-8655000D01*
X9185000Y-11075000D02*
X9215000Y-11105000D01*
X9215000Y-11075000D02*
X9185000Y-11105000D01*
X9235000Y-4825000D02*
X9265000Y-4855000D01*
X9265000Y-4825000D02*
X9235000Y-4855000D01*
X9285000Y-7575000D02*
X9315000Y-7605000D01*
X9315000Y-7575000D02*
X9285000Y-7605000D01*
X9385000Y-8625000D02*
X9415000Y-8655000D01*
X9415000Y-8625000D02*
X9385000Y-8655000D01*
X9385000Y-11075000D02*
X9415000Y-11105000D01*
X9415000Y-11075000D02*
X9385000Y-11105000D01*
X9435000Y-4825000D02*
X9465000Y-4855000D01*
X9465000Y-4825000D02*
X9435000Y-4855000D01*
X9535000Y-7575000D02*
X9565000Y-7605000D01*
X9565000Y-7575000D02*
X9535000Y-7605000D01*
X9585000Y-11075000D02*
X9615000Y-11105000D01*
X9615000Y-11075000D02*
X9585000Y-11105000D01*
X9635000Y-4825000D02*
X9665000Y-4855000D01*
X9665000Y-4825000D02*
X9635000Y-4855000D01*
X9635000Y-8625000D02*
X9665000Y-8655000D01*
X9665000Y-8625000D02*
X9635000Y-8655000D01*
X9785000Y-7575000D02*
X9815000Y-7605000D01*
X9815000Y-7575000D02*
X9785000Y-7605000D01*
X9885000Y-8625000D02*
X9915000Y-8655000D01*
X9915000Y-8625000D02*
X9885000Y-8655000D01*
X9885000Y-11075000D02*
X9915000Y-11105000D01*
X9915000Y-11075000D02*
X9885000Y-11105000D01*
X9935000Y-4825000D02*
X9965000Y-4855000D01*
X9965000Y-4825000D02*
X9935000Y-4855000D01*
X10035000Y-7575000D02*
X10065000Y-7605000D01*
X10065000Y-7575000D02*
X10035000Y-7605000D01*
X10135000Y-8625000D02*
X10165000Y-8655000D01*
X10165000Y-8625000D02*
X10135000Y-8655000D01*
X10135000Y-11075000D02*
X10165000Y-11105000D01*
X10165000Y-11075000D02*
X10135000Y-11105000D01*
X10185000Y-4825000D02*
X10215000Y-4855000D01*
X10215000Y-4825000D02*
X10185000Y-4855000D01*
X10235000Y-7575000D02*
X10265000Y-7605000D01*
X10265000Y-7575000D02*
X10235000Y-7605000D01*
X10335000Y-8625000D02*
X10365000Y-8655000D01*
X10365000Y-8625000D02*
X10335000Y-8655000D01*
X10435000Y-7575000D02*
X10465000Y-7605000D01*
X10465000Y-7575000D02*
X10435000Y-7605000D01*
X10435000Y-11075000D02*
X10465000Y-11105000D01*
X10465000Y-11075000D02*
X10435000Y-11105000D01*
X10485000Y-4825000D02*
X10515000Y-4855000D01*
X10515000Y-4825000D02*
X10485000Y-4855000D01*
X10535000Y-8625000D02*
X10565000Y-8655000D01*
X10565000Y-8625000D02*
X10535000Y-8655000D01*
X10735000Y-7575000D02*
X10765000Y-7605000D01*
X10765000Y-7575000D02*
X10735000Y-7605000D01*
X10735000Y-11075000D02*
X10765000Y-11105000D01*
X10765000Y-11075000D02*
X10735000Y-11105000D01*
X10785000Y-4825000D02*
X10815000Y-4855000D01*
X10815000Y-4825000D02*
X10785000Y-4855000D01*
X10835000Y-8625000D02*
X10865000Y-8655000D01*
X10865000Y-8625000D02*
X10835000Y-8655000D01*
X10985000Y-7575000D02*
X11015000Y-7605000D01*
X11015000Y-7575000D02*
X10985000Y-7605000D01*
X11035000Y-11075000D02*
X11065000Y-11105000D01*
X11065000Y-11075000D02*
X11035000Y-11105000D01*
X11085000Y-4825000D02*
X11115000Y-4855000D01*
X11115000Y-4825000D02*
X11085000Y-4855000D01*
X11085000Y-8625000D02*
X11115000Y-8655000D01*
X11115000Y-8625000D02*
X11085000Y-8655000D01*
X11285000Y-7575000D02*
X11315000Y-7605000D01*
X11315000Y-7575000D02*
X11285000Y-7605000D01*
X11285000Y-11075000D02*
X11315000Y-11105000D01*
X11315000Y-11075000D02*
X11285000Y-11105000D01*
X11335000Y-4825000D02*
X11365000Y-4855000D01*
X11365000Y-4825000D02*
X11335000Y-4855000D01*
X11385000Y-8625000D02*
X11415000Y-8655000D01*
X11415000Y-8625000D02*
X11385000Y-8655000D01*
X11535000Y-11075000D02*
X11565000Y-11105000D01*
X11565000Y-11075000D02*
X11535000Y-11105000D01*
X11585000Y-4825000D02*
X11615000Y-4855000D01*
X11615000Y-4825000D02*
X11585000Y-4855000D01*
X11585000Y-7575000D02*
X11615000Y-7605000D01*
X11615000Y-7575000D02*
X11585000Y-7605000D01*
X11685000Y-8625000D02*
X11715000Y-8655000D01*
X11715000Y-8625000D02*
X11685000Y-8655000D01*
X11785000Y-11075000D02*
X11815000Y-11105000D01*
X11815000Y-11075000D02*
X11785000Y-11105000D01*
X11835000Y-4825000D02*
X11865000Y-4855000D01*
X11865000Y-4825000D02*
X11835000Y-4855000D01*
X11885000Y-7575000D02*
X11915000Y-7605000D01*
X11915000Y-7575000D02*
X11885000Y-7605000D01*
X11985000Y-8625000D02*
X12015000Y-8655000D01*
X12015000Y-8625000D02*
X11985000Y-8655000D01*
X11985000Y-11075000D02*
X12015000Y-11105000D01*
X12015000Y-11075000D02*
X11985000Y-11105000D01*
X12035000Y-4825000D02*
X12065000Y-4855000D01*
X12065000Y-4825000D02*
X12035000Y-4855000D01*
X12135000Y-7575000D02*
X12165000Y-7605000D01*
X12165000Y-7575000D02*
X12135000Y-7605000D01*
X12185000Y-11075000D02*
X12215000Y-11105000D01*
X12215000Y-11075000D02*
X12185000Y-11105000D01*
X12235000Y-4825000D02*
X12265000Y-4855000D01*
X12265000Y-4825000D02*
X12235000Y-4855000D01*
X12235000Y-8625000D02*
X12265000Y-8655000D01*
X12265000Y-8625000D02*
X12235000Y-8655000D01*
X12385000Y-7575000D02*
X12415000Y-7605000D01*
X12415000Y-7575000D02*
X12385000Y-7605000D01*
X12485000Y-8625000D02*
X12515000Y-8655000D01*
X12515000Y-8625000D02*
X12485000Y-8655000D01*
X12485000Y-11075000D02*
X12515000Y-11105000D01*
X12515000Y-11075000D02*
X12485000Y-11105000D01*
X12535000Y-4825000D02*
X12565000Y-4855000D01*
X12565000Y-4825000D02*
X12535000Y-4855000D01*
X12635000Y-7575000D02*
X12665000Y-7605000D01*
X12665000Y-7575000D02*
X12635000Y-7605000D01*
X12735000Y-8625000D02*
X12765000Y-8655000D01*
X12765000Y-8625000D02*
X12735000Y-8655000D01*
X12735000Y-11075000D02*
X12765000Y-11105000D01*
X12765000Y-11075000D02*
X12735000Y-11105000D01*
X12785000Y-4825000D02*
X12815000Y-4855000D01*
X12815000Y-4825000D02*
X12785000Y-4855000D01*
X12835000Y-7575000D02*
X12865000Y-7605000D01*
X12865000Y-7575000D02*
X12835000Y-7605000D01*
X12935000Y-8625000D02*
X12965000Y-8655000D01*
X12965000Y-8625000D02*
X12935000Y-8655000D01*
X13035000Y-7575000D02*
X13065000Y-7605000D01*
X13065000Y-7575000D02*
X13035000Y-7605000D01*
X13035000Y-11075000D02*
X13065000Y-11105000D01*
X13065000Y-11075000D02*
X13035000Y-11105000D01*
X13085000Y-4825000D02*
X13115000Y-4855000D01*
X13115000Y-4825000D02*
X13085000Y-4855000D01*
X13135000Y-8625000D02*
X13165000Y-8655000D01*
X13165000Y-8625000D02*
X13135000Y-8655000D01*
X13335000Y-7575000D02*
X13365000Y-7605000D01*
X13365000Y-7575000D02*
X13335000Y-7605000D01*
X13335000Y-11075000D02*
X13365000Y-11105000D01*
X13365000Y-11075000D02*
X13335000Y-11105000D01*
X13385000Y-4825000D02*
X13415000Y-4855000D01*
X13415000Y-4825000D02*
X13385000Y-4855000D01*
X13435000Y-8625000D02*
X13465000Y-8655000D01*
X13465000Y-8625000D02*
X13435000Y-8655000D01*
X13585000Y-7575000D02*
X13615000Y-7605000D01*
X13615000Y-7575000D02*
X13585000Y-7605000D01*
X13635000Y-11075000D02*
X13665000Y-11105000D01*
X13665000Y-11075000D02*
X13635000Y-11105000D01*
X13685000Y-4825000D02*
X13715000Y-4855000D01*
X13715000Y-4825000D02*
X13685000Y-4855000D01*
X13685000Y-8625000D02*
X13715000Y-8655000D01*
X13715000Y-8625000D02*
X13685000Y-8655000D01*
X13885000Y-7575000D02*
X13915000Y-7605000D01*
X13915000Y-7575000D02*
X13885000Y-7605000D01*
X13885000Y-11075000D02*
X13915000Y-11105000D01*
X13915000Y-11075000D02*
X13885000Y-11105000D01*
X13935000Y-4825000D02*
X13965000Y-4855000D01*
X13965000Y-4825000D02*
X13935000Y-4855000D01*
X13985000Y-8625000D02*
X14015000Y-8655000D01*
X14015000Y-8625000D02*
X13985000Y-8655000D01*
X14135000Y-11075000D02*
X14165000Y-11105000D01*
X14165000Y-11075000D02*
X14135000Y-11105000D01*
X14185000Y-4825000D02*
X14215000Y-4855000D01*
X14215000Y-4825000D02*
X14185000Y-4855000D01*
X14185000Y-7575000D02*
X14215000Y-7605000D01*
X14215000Y-7575000D02*
X14185000Y-7605000D01*
X14285000Y-8625000D02*
X14315000Y-8655000D01*
X14315000Y-8625000D02*
X14285000Y-8655000D01*
X14385000Y-11075000D02*
X14415000Y-11105000D01*
X14415000Y-11075000D02*
X14385000Y-11105000D01*
X14435000Y-4825000D02*
X14465000Y-4855000D01*
X14465000Y-4825000D02*
X14435000Y-4855000D01*
X14485000Y-7575000D02*
X14515000Y-7605000D01*
X14515000Y-7575000D02*
X14485000Y-7605000D01*
X14585000Y-8625000D02*
X14615000Y-8655000D01*
X14615000Y-8625000D02*
X14585000Y-8655000D01*
X14585000Y-11075000D02*
X14615000Y-11105000D01*
X14615000Y-11075000D02*
X14585000Y-11105000D01*
X14635000Y-4825000D02*
X14665000Y-4855000D01*
X14665000Y-4825000D02*
X14635000Y-4855000D01*
X14735000Y-7575000D02*
X14765000Y-7605000D01*
X14765000Y-7575000D02*
X14735000Y-7605000D01*
X14835000Y-8625000D02*
X14865000Y-8655000D01*
X14865000Y-8625000D02*
X14835000Y-8655000D01*
X14835000Y-11075000D02*
X14865000Y-11105000D01*
X14865000Y-11075000D02*
X14835000Y-11105000D01*
X14885000Y-4825000D02*
X14915000Y-4855000D01*
X14915000Y-4825000D02*
X14885000Y-4855000D01*
X14985000Y-7575000D02*
X15015000Y-7605000D01*
X15015000Y-7575000D02*
X14985000Y-7605000D01*
X15085000Y-8625000D02*
X15115000Y-8655000D01*
X15115000Y-8625000D02*
X15085000Y-8655000D01*
X15135000Y-11075000D02*
X15165000Y-11105000D01*
X15165000Y-11075000D02*
X15135000Y-11105000D01*
X15185000Y-4825000D02*
X15215000Y-4855000D01*
X15215000Y-4825000D02*
X15185000Y-4855000D01*
X15235000Y-7575000D02*
X15265000Y-7605000D01*
X15265000Y-7575000D02*
X15235000Y-7605000D01*
X15335000Y-8625000D02*
X15365000Y-8655000D01*
X15365000Y-8625000D02*
X15335000Y-8655000D01*
X15385000Y-11075000D02*
X15415000Y-11105000D01*
X15415000Y-11075000D02*
X15385000Y-11105000D01*
X15435000Y-4825000D02*
X15465000Y-4855000D01*
X15465000Y-4825000D02*
X15435000Y-4855000D01*
X15435000Y-7575000D02*
X15465000Y-7605000D01*
X15465000Y-7575000D02*
X15435000Y-7605000D01*
X15535000Y-8625000D02*
X15565000Y-8655000D01*
X15565000Y-8625000D02*
X15535000Y-8655000D01*
X15685000Y-7575000D02*
X15715000Y-7605000D01*
X15715000Y-7575000D02*
X15685000Y-7605000D01*
X15685000Y-11075000D02*
X15715000Y-11105000D01*
X15715000Y-11075000D02*
X15685000Y-11105000D01*
X15735000Y-4825000D02*
X15765000Y-4855000D01*
X15765000Y-4825000D02*
X15735000Y-4855000D01*
X15785000Y-8625000D02*
X15815000Y-8655000D01*
X15815000Y-8625000D02*
X15785000Y-8655000D01*
X15985000Y-7575000D02*
X16015000Y-7605000D01*
X16015000Y-7575000D02*
X15985000Y-7605000D01*
X15985000Y-11075000D02*
X16015000Y-11105000D01*
X16015000Y-11075000D02*
X15985000Y-11105000D01*
X16035000Y-4825000D02*
X16065000Y-4855000D01*
X16065000Y-4825000D02*
X16035000Y-4855000D01*
X16085000Y-8625000D02*
X16115000Y-8655000D01*
X16115000Y-8625000D02*
X16085000Y-8655000D01*
X16235000Y-7575000D02*
X16265000Y-7605000D01*
X16265000Y-7575000D02*
X16235000Y-7605000D01*
X16285000Y-11075000D02*
X16315000Y-11105000D01*
X16315000Y-11075000D02*
X16285000Y-11105000D01*
X16335000Y-4825000D02*
X16365000Y-4855000D01*
X16365000Y-4825000D02*
X16335000Y-4855000D01*
X16335000Y-8625000D02*
X16365000Y-8655000D01*
X16365000Y-8625000D02*
X16335000Y-8655000D01*
X16535000Y-7575000D02*
X16565000Y-7605000D01*
X16565000Y-7575000D02*
X16535000Y-7605000D01*
X16535000Y-11075000D02*
X16565000Y-11105000D01*
X16565000Y-11075000D02*
X16535000Y-11105000D01*
X16585000Y-4825000D02*
X16615000Y-4855000D01*
X16615000Y-4825000D02*
X16585000Y-4855000D01*
X16635000Y-8625000D02*
X16665000Y-8655000D01*
X16665000Y-8625000D02*
X16635000Y-8655000D01*
X16785000Y-11075000D02*
X16815000Y-11105000D01*
X16815000Y-11075000D02*
X16785000Y-11105000D01*
X16835000Y-4825000D02*
X16865000Y-4855000D01*
X16865000Y-4825000D02*
X16835000Y-4855000D01*
X16835000Y-7575000D02*
X16865000Y-7605000D01*
X16865000Y-7575000D02*
X16835000Y-7605000D01*
X16935000Y-8625000D02*
X16965000Y-8655000D01*
X16965000Y-8625000D02*
X16935000Y-8655000D01*
X17035000Y-11075000D02*
X17065000Y-11105000D01*
X17065000Y-11075000D02*
X17035000Y-11105000D01*
X17085000Y-4825000D02*
X17115000Y-4855000D01*
X17115000Y-4825000D02*
X17085000Y-4855000D01*
X17135000Y-7575000D02*
X17165000Y-7605000D01*
X17165000Y-7575000D02*
X17135000Y-7605000D01*
X17235000Y-8625000D02*
X17265000Y-8655000D01*
X17265000Y-8625000D02*
X17235000Y-8655000D01*
X17235000Y-11075000D02*
X17265000Y-11105000D01*
X17265000Y-11075000D02*
X17235000Y-11105000D01*
X17285000Y-4825000D02*
X17315000Y-4855000D01*
X17315000Y-4825000D02*
X17285000Y-4855000D01*
X17385000Y-7575000D02*
X17415000Y-7605000D01*
X17415000Y-7575000D02*
X17385000Y-7605000D01*
X17435000Y-11075000D02*
X17465000Y-11105000D01*
X17465000Y-11075000D02*
X17435000Y-11105000D01*
X17485000Y-8625000D02*
X17515000Y-8655000D01*
X17515000Y-8625000D02*
X17485000Y-8655000D01*
X17535000Y-4825000D02*
X17565000Y-4855000D01*
X17565000Y-4825000D02*
X17535000Y-4855000D01*
X17635000Y-7575000D02*
X17665000Y-7605000D01*
X17665000Y-7575000D02*
X17635000Y-7605000D01*
X17685000Y-11075000D02*
X17715000Y-11105000D01*
X17715000Y-11075000D02*
X17685000Y-11105000D01*
X17735000Y-8625000D02*
X17765000Y-8655000D01*
X17765000Y-8625000D02*
X17735000Y-8655000D01*
X17785000Y-4825000D02*
X17815000Y-4855000D01*
X17815000Y-4825000D02*
X17785000Y-4855000D01*
X17885000Y-7575000D02*
X17915000Y-7605000D01*
X17915000Y-7575000D02*
X17885000Y-7605000D01*
X17935000Y-11075000D02*
X17965000Y-11105000D01*
X17965000Y-11075000D02*
X17935000Y-11105000D01*
X17985000Y-8625000D02*
X18015000Y-8655000D01*
X18015000Y-8625000D02*
X17985000Y-8655000D01*
X18035000Y-4825000D02*
X18065000Y-4855000D01*
X18065000Y-4825000D02*
X18035000Y-4855000D01*
X18085000Y-7575000D02*
X18115000Y-7605000D01*
X18115000Y-7575000D02*
X18085000Y-7605000D01*
X18135000Y-11075000D02*
X18165000Y-11105000D01*
X18165000Y-11075000D02*
X18135000Y-11105000D01*
X18185000Y-8625000D02*
X18215000Y-8655000D01*
X18215000Y-8625000D02*
X18185000Y-8655000D01*
X18235000Y-4825000D02*
X18265000Y-4855000D01*
X18265000Y-4825000D02*
X18235000Y-4855000D01*
D13*
X4602500Y-9807500D02*
G75*
G02*
X4442500Y-9807500I-80000J0D01*
G01*
X4442500Y-9807500D02*
G75*
G02*
X4602500Y-9807500I80000J0D01*
G01*
X6062500Y-9807500D02*
G75*
G02*
X5902500Y-9807500I-80000J0D01*
G01*
X5902500Y-9807500D02*
G75*
G02*
X6062500Y-9807500I80000J0D01*
G01*
X6130000Y-5350000D02*
G75*
G02*
X5970000Y-5350000I-80000J0D01*
G01*
X5970000Y-5350000D02*
G75*
G02*
X6130000Y-5350000I80000J0D01*
G01*
X6130000Y-6810000D02*
G75*
G02*
X5970000Y-6810000I-80000J0D01*
G01*
X5970000Y-6810000D02*
G75*
G02*
X6130000Y-6810000I80000J0D01*
G01*
X7814000Y-5794000D02*
G75*
G02*
X7654000Y-5794000I-80000J0D01*
G01*
X7654000Y-5794000D02*
G75*
G02*
X7814000Y-5794000I80000J0D01*
G01*
X7830000Y-9150000D02*
G75*
G02*
X7670000Y-9150000I-80000J0D01*
G01*
X7670000Y-9150000D02*
G75*
G02*
X7830000Y-9150000I80000J0D01*
G01*
X7830000Y-10610000D02*
G75*
G02*
X7670000Y-10610000I-80000J0D01*
G01*
X7670000Y-10610000D02*
G75*
G02*
X7830000Y-10610000I80000J0D01*
G01*
X9274000Y-5794000D02*
G75*
G02*
X9114000Y-5794000I-80000J0D01*
G01*
X9114000Y-5794000D02*
G75*
G02*
X9274000Y-5794000I80000J0D01*
G01*
X9605000Y-9787500D02*
G75*
G02*
X9445000Y-9787500I-80000J0D01*
G01*
X9445000Y-9787500D02*
G75*
G02*
X9605000Y-9787500I80000J0D01*
G01*
X11065000Y-9787500D02*
G75*
G02*
X10905000Y-9787500I-80000J0D01*
G01*
X10905000Y-9787500D02*
G75*
G02*
X11065000Y-9787500I80000J0D01*
G01*
X11130000Y-5350000D02*
G75*
G02*
X10970000Y-5350000I-80000J0D01*
G01*
X10970000Y-5350000D02*
G75*
G02*
X11130000Y-5350000I80000J0D01*
G01*
X11130000Y-6810000D02*
G75*
G02*
X10970000Y-6810000I-80000J0D01*
G01*
X10970000Y-6810000D02*
G75*
G02*
X11130000Y-6810000I80000J0D01*
G01*
X12778750Y-5794000D02*
G75*
G02*
X12618750Y-5794000I-80000J0D01*
G01*
X12618750Y-5794000D02*
G75*
G02*
X12778750Y-5794000I80000J0D01*
G01*
X12880000Y-9041250D02*
G75*
G02*
X12720000Y-9041250I-80000J0D01*
G01*
X12720000Y-9041250D02*
G75*
G02*
X12880000Y-9041250I80000J0D01*
G01*
X12880000Y-10501250D02*
G75*
G02*
X12720000Y-10501250I-80000J0D01*
G01*
X12720000Y-10501250D02*
G75*
G02*
X12880000Y-10501250I80000J0D01*
G01*
X14238750Y-5794000D02*
G75*
G02*
X14078750Y-5794000I-80000J0D01*
G01*
X14078750Y-5794000D02*
G75*
G02*
X14238750Y-5794000I80000J0D01*
G01*
X14570000Y-9882500D02*
G75*
G02*
X14410000Y-9882500I-80000J0D01*
G01*
X14410000Y-9882500D02*
G75*
G02*
X14570000Y-9882500I80000J0D01*
G01*
X15930000Y-5241250D02*
G75*
G02*
X15770000Y-5241250I-80000J0D01*
G01*
X15770000Y-5241250D02*
G75*
G02*
X15930000Y-5241250I80000J0D01*
G01*
X15930000Y-6701250D02*
G75*
G02*
X15770000Y-6701250I-80000J0D01*
G01*
X15770000Y-6701250D02*
G75*
G02*
X15930000Y-6701250I80000J0D01*
G01*
X16030000Y-9882500D02*
G75*
G02*
X15870000Y-9882500I-80000J0D01*
G01*
X15870000Y-9882500D02*
G75*
G02*
X16030000Y-9882500I80000J0D01*
G01*
D14*
X3640000Y-3940000D02*
X3640000Y-4260000D01*
X3480000Y-4100000D02*
X3800000Y-4100000D01*
X3660000Y-11580000D02*
X3660000Y-11900000D01*
X3500000Y-11740000D02*
X3820000Y-11740000D01*
X9650000Y-7790000D02*
X9650000Y-8110000D01*
X9490000Y-7950000D02*
X9810000Y-7950000D01*
X13450000Y-7790000D02*
X13450000Y-8110000D01*
X13290000Y-7950000D02*
X13610000Y-7950000D01*
X18310000Y-11550000D02*
X18310000Y-11870000D01*
X18150000Y-11710000D02*
X18470000Y-11710000D01*
X18450000Y-3890000D02*
X18450000Y-4210000D01*
X18290000Y-4050000D02*
X18610000Y-4050000D01*
D11*
X3448277Y-13303984D02*
X3448277Y-13103984D01*
X3448277Y-13103984D02*
X3495896Y-13103984D01*
X3495896Y-13103984D02*
X3524467Y-13113508D01*
X3524467Y-13113508D02*
X3543515Y-13132555D01*
X3543515Y-13132555D02*
X3553039Y-13151603D01*
X3553039Y-13151603D02*
X3562562Y-13189698D01*
X3562562Y-13189698D02*
X3562562Y-13218269D01*
X3562562Y-13218269D02*
X3553039Y-13256365D01*
X3553039Y-13256365D02*
X3543515Y-13275412D01*
X3543515Y-13275412D02*
X3524467Y-13294460D01*
X3524467Y-13294460D02*
X3495896Y-13303984D01*
X3495896Y-13303984D02*
X3448277Y-13303984D01*
X3648277Y-13303984D02*
X3648277Y-13170650D01*
X3648277Y-13208746D02*
X3657801Y-13189698D01*
X3657801Y-13189698D02*
X3667324Y-13180174D01*
X3667324Y-13180174D02*
X3686372Y-13170650D01*
X3686372Y-13170650D02*
X3705420Y-13170650D01*
X3772086Y-13303984D02*
X3772086Y-13170650D01*
X3772086Y-13103984D02*
X3762562Y-13113508D01*
X3762562Y-13113508D02*
X3772086Y-13123031D01*
X3772086Y-13123031D02*
X3781610Y-13113508D01*
X3781610Y-13113508D02*
X3772086Y-13103984D01*
X3772086Y-13103984D02*
X3772086Y-13123031D01*
X3895896Y-13303984D02*
X3876848Y-13294460D01*
X3876848Y-13294460D02*
X3867324Y-13275412D01*
X3867324Y-13275412D02*
X3867324Y-13103984D01*
X4000658Y-13303984D02*
X3981610Y-13294460D01*
X3981610Y-13294460D02*
X3972086Y-13275412D01*
X3972086Y-13275412D02*
X3972086Y-13103984D01*
X4229229Y-13303984D02*
X4229229Y-13103984D01*
X4229229Y-13103984D02*
X4295896Y-13246841D01*
X4295896Y-13246841D02*
X4362563Y-13103984D01*
X4362563Y-13103984D02*
X4362563Y-13303984D01*
X4543515Y-13303984D02*
X4543515Y-13199222D01*
X4543515Y-13199222D02*
X4533991Y-13180174D01*
X4533991Y-13180174D02*
X4514944Y-13170650D01*
X4514944Y-13170650D02*
X4476848Y-13170650D01*
X4476848Y-13170650D02*
X4457801Y-13180174D01*
X4543515Y-13294460D02*
X4524467Y-13303984D01*
X4524467Y-13303984D02*
X4476848Y-13303984D01*
X4476848Y-13303984D02*
X4457801Y-13294460D01*
X4457801Y-13294460D02*
X4448277Y-13275412D01*
X4448277Y-13275412D02*
X4448277Y-13256365D01*
X4448277Y-13256365D02*
X4457801Y-13237317D01*
X4457801Y-13237317D02*
X4476848Y-13227793D01*
X4476848Y-13227793D02*
X4524467Y-13227793D01*
X4524467Y-13227793D02*
X4543515Y-13218269D01*
X4638753Y-13170650D02*
X4638753Y-13370650D01*
X4638753Y-13180174D02*
X4657801Y-13170650D01*
X4657801Y-13170650D02*
X4695896Y-13170650D01*
X4695896Y-13170650D02*
X4714944Y-13180174D01*
X4714944Y-13180174D02*
X4724467Y-13189698D01*
X4724467Y-13189698D02*
X4733991Y-13208746D01*
X4733991Y-13208746D02*
X4733991Y-13265888D01*
X4733991Y-13265888D02*
X4724467Y-13284936D01*
X4724467Y-13284936D02*
X4714944Y-13294460D01*
X4714944Y-13294460D02*
X4695896Y-13303984D01*
X4695896Y-13303984D02*
X4657801Y-13303984D01*
X4657801Y-13303984D02*
X4638753Y-13294460D01*
X4819705Y-13284936D02*
X4829229Y-13294460D01*
X4829229Y-13294460D02*
X4819705Y-13303984D01*
X4819705Y-13303984D02*
X4810182Y-13294460D01*
X4810182Y-13294460D02*
X4819705Y-13284936D01*
X4819705Y-13284936D02*
X4819705Y-13303984D01*
X4819705Y-13180174D02*
X4829229Y-13189698D01*
X4829229Y-13189698D02*
X4819705Y-13199222D01*
X4819705Y-13199222D02*
X4810182Y-13189698D01*
X4810182Y-13189698D02*
X4819705Y-13180174D01*
X4819705Y-13180174D02*
X4819705Y-13199222D01*
D12*
X3157500Y-13617500D02*
X3187500Y-13647500D01*
X3187500Y-13617500D02*
X3157500Y-13647500D01*
D11*
X3486372Y-13523984D02*
X3505420Y-13523984D01*
X3505420Y-13523984D02*
X3524467Y-13533508D01*
X3524467Y-13533508D02*
X3533991Y-13543031D01*
X3533991Y-13543031D02*
X3543515Y-13562079D01*
X3543515Y-13562079D02*
X3553039Y-13600174D01*
X3553039Y-13600174D02*
X3553039Y-13647793D01*
X3553039Y-13647793D02*
X3543515Y-13685888D01*
X3543515Y-13685888D02*
X3533991Y-13704936D01*
X3533991Y-13704936D02*
X3524467Y-13714460D01*
X3524467Y-13714460D02*
X3505420Y-13723984D01*
X3505420Y-13723984D02*
X3486372Y-13723984D01*
X3486372Y-13723984D02*
X3467324Y-13714460D01*
X3467324Y-13714460D02*
X3457801Y-13704936D01*
X3457801Y-13704936D02*
X3448277Y-13685888D01*
X3448277Y-13685888D02*
X3438753Y-13647793D01*
X3438753Y-13647793D02*
X3438753Y-13600174D01*
X3438753Y-13600174D02*
X3448277Y-13562079D01*
X3448277Y-13562079D02*
X3457801Y-13543031D01*
X3457801Y-13543031D02*
X3467324Y-13533508D01*
X3467324Y-13533508D02*
X3486372Y-13523984D01*
X3638753Y-13704936D02*
X3648277Y-13714460D01*
X3648277Y-13714460D02*
X3638753Y-13723984D01*
X3638753Y-13723984D02*
X3629229Y-13714460D01*
X3629229Y-13714460D02*
X3638753Y-13704936D01*
X3638753Y-13704936D02*
X3638753Y-13723984D01*
X3714943Y-13523984D02*
X3838753Y-13523984D01*
X3838753Y-13523984D02*
X3772086Y-13600174D01*
X3772086Y-13600174D02*
X3800658Y-13600174D01*
X3800658Y-13600174D02*
X3819705Y-13609698D01*
X3819705Y-13609698D02*
X3829229Y-13619222D01*
X3829229Y-13619222D02*
X3838753Y-13638269D01*
X3838753Y-13638269D02*
X3838753Y-13685888D01*
X3838753Y-13685888D02*
X3829229Y-13704936D01*
X3829229Y-13704936D02*
X3819705Y-13714460D01*
X3819705Y-13714460D02*
X3800658Y-13723984D01*
X3800658Y-13723984D02*
X3743515Y-13723984D01*
X3743515Y-13723984D02*
X3724467Y-13714460D01*
X3724467Y-13714460D02*
X3714943Y-13704936D01*
X3962562Y-13523984D02*
X3981610Y-13523984D01*
X3981610Y-13523984D02*
X4000658Y-13533508D01*
X4000658Y-13533508D02*
X4010182Y-13543031D01*
X4010182Y-13543031D02*
X4019705Y-13562079D01*
X4019705Y-13562079D02*
X4029229Y-13600174D01*
X4029229Y-13600174D02*
X4029229Y-13647793D01*
X4029229Y-13647793D02*
X4019705Y-13685888D01*
X4019705Y-13685888D02*
X4010182Y-13704936D01*
X4010182Y-13704936D02*
X4000658Y-13714460D01*
X4000658Y-13714460D02*
X3981610Y-13723984D01*
X3981610Y-13723984D02*
X3962562Y-13723984D01*
X3962562Y-13723984D02*
X3943515Y-13714460D01*
X3943515Y-13714460D02*
X3933991Y-13704936D01*
X3933991Y-13704936D02*
X3924467Y-13685888D01*
X3924467Y-13685888D02*
X3914943Y-13647793D01*
X3914943Y-13647793D02*
X3914943Y-13600174D01*
X3914943Y-13600174D02*
X3924467Y-13562079D01*
X3924467Y-13562079D02*
X3933991Y-13543031D01*
X3933991Y-13543031D02*
X3943515Y-13533508D01*
X3943515Y-13533508D02*
X3962562Y-13523984D01*
X4153039Y-13523984D02*
X4172086Y-13523984D01*
X4172086Y-13523984D02*
X4191134Y-13533508D01*
X4191134Y-13533508D02*
X4200658Y-13543031D01*
X4200658Y-13543031D02*
X4210182Y-13562079D01*
X4210182Y-13562079D02*
X4219705Y-13600174D01*
X4219705Y-13600174D02*
X4219705Y-13647793D01*
X4219705Y-13647793D02*
X4210182Y-13685888D01*
X4210182Y-13685888D02*
X4200658Y-13704936D01*
X4200658Y-13704936D02*
X4191134Y-13714460D01*
X4191134Y-13714460D02*
X4172086Y-13723984D01*
X4172086Y-13723984D02*
X4153039Y-13723984D01*
X4153039Y-13723984D02*
X4133991Y-13714460D01*
X4133991Y-13714460D02*
X4124467Y-13704936D01*
X4124467Y-13704936D02*
X4114943Y-13685888D01*
X4114943Y-13685888D02*
X4105420Y-13647793D01*
X4105420Y-13647793D02*
X4105420Y-13600174D01*
X4105420Y-13600174D02*
X4114943Y-13562079D01*
X4114943Y-13562079D02*
X4124467Y-13543031D01*
X4124467Y-13543031D02*
X4133991Y-13533508D01*
X4133991Y-13533508D02*
X4153039Y-13523984D01*
X4305420Y-13723984D02*
X4305420Y-13590650D01*
X4305420Y-13609698D02*
X4314944Y-13600174D01*
X4314944Y-13600174D02*
X4333991Y-13590650D01*
X4333991Y-13590650D02*
X4362563Y-13590650D01*
X4362563Y-13590650D02*
X4381610Y-13600174D01*
X4381610Y-13600174D02*
X4391134Y-13619222D01*
X4391134Y-13619222D02*
X4391134Y-13723984D01*
X4391134Y-13619222D02*
X4400658Y-13600174D01*
X4400658Y-13600174D02*
X4419705Y-13590650D01*
X4419705Y-13590650D02*
X4448277Y-13590650D01*
X4448277Y-13590650D02*
X4467325Y-13600174D01*
X4467325Y-13600174D02*
X4476848Y-13619222D01*
X4476848Y-13619222D02*
X4476848Y-13723984D01*
X4572086Y-13723984D02*
X4572086Y-13590650D01*
X4572086Y-13609698D02*
X4581610Y-13600174D01*
X4581610Y-13600174D02*
X4600658Y-13590650D01*
X4600658Y-13590650D02*
X4629229Y-13590650D01*
X4629229Y-13590650D02*
X4648277Y-13600174D01*
X4648277Y-13600174D02*
X4657801Y-13619222D01*
X4657801Y-13619222D02*
X4657801Y-13723984D01*
X4657801Y-13619222D02*
X4667325Y-13600174D01*
X4667325Y-13600174D02*
X4686372Y-13590650D01*
X4686372Y-13590650D02*
X4714944Y-13590650D01*
X4714944Y-13590650D02*
X4733991Y-13600174D01*
X4733991Y-13600174D02*
X4743515Y-13619222D01*
X4743515Y-13619222D02*
X4743515Y-13723984D01*
X5133991Y-13514460D02*
X4962563Y-13771603D01*
X5391134Y-13523984D02*
X5410182Y-13523984D01*
X5410182Y-13523984D02*
X5429229Y-13533508D01*
X5429229Y-13533508D02*
X5438753Y-13543031D01*
X5438753Y-13543031D02*
X5448277Y-13562079D01*
X5448277Y-13562079D02*
X5457801Y-13600174D01*
X5457801Y-13600174D02*
X5457801Y-13647793D01*
X5457801Y-13647793D02*
X5448277Y-13685888D01*
X5448277Y-13685888D02*
X5438753Y-13704936D01*
X5438753Y-13704936D02*
X5429229Y-13714460D01*
X5429229Y-13714460D02*
X5410182Y-13723984D01*
X5410182Y-13723984D02*
X5391134Y-13723984D01*
X5391134Y-13723984D02*
X5372087Y-13714460D01*
X5372087Y-13714460D02*
X5362563Y-13704936D01*
X5362563Y-13704936D02*
X5353039Y-13685888D01*
X5353039Y-13685888D02*
X5343515Y-13647793D01*
X5343515Y-13647793D02*
X5343515Y-13600174D01*
X5343515Y-13600174D02*
X5353039Y-13562079D01*
X5353039Y-13562079D02*
X5362563Y-13543031D01*
X5362563Y-13543031D02*
X5372087Y-13533508D01*
X5372087Y-13533508D02*
X5391134Y-13523984D01*
X5543515Y-13704936D02*
X5553039Y-13714460D01*
X5553039Y-13714460D02*
X5543515Y-13723984D01*
X5543515Y-13723984D02*
X5533991Y-13714460D01*
X5533991Y-13714460D02*
X5543515Y-13704936D01*
X5543515Y-13704936D02*
X5543515Y-13723984D01*
X5676848Y-13523984D02*
X5695896Y-13523984D01*
X5695896Y-13523984D02*
X5714944Y-13533508D01*
X5714944Y-13533508D02*
X5724467Y-13543031D01*
X5724467Y-13543031D02*
X5733991Y-13562079D01*
X5733991Y-13562079D02*
X5743515Y-13600174D01*
X5743515Y-13600174D02*
X5743515Y-13647793D01*
X5743515Y-13647793D02*
X5733991Y-13685888D01*
X5733991Y-13685888D02*
X5724467Y-13704936D01*
X5724467Y-13704936D02*
X5714944Y-13714460D01*
X5714944Y-13714460D02*
X5695896Y-13723984D01*
X5695896Y-13723984D02*
X5676848Y-13723984D01*
X5676848Y-13723984D02*
X5657801Y-13714460D01*
X5657801Y-13714460D02*
X5648277Y-13704936D01*
X5648277Y-13704936D02*
X5638753Y-13685888D01*
X5638753Y-13685888D02*
X5629229Y-13647793D01*
X5629229Y-13647793D02*
X5629229Y-13600174D01*
X5629229Y-13600174D02*
X5638753Y-13562079D01*
X5638753Y-13562079D02*
X5648277Y-13543031D01*
X5648277Y-13543031D02*
X5657801Y-13533508D01*
X5657801Y-13533508D02*
X5676848Y-13523984D01*
X5933991Y-13723984D02*
X5819706Y-13723984D01*
X5876848Y-13723984D02*
X5876848Y-13523984D01*
X5876848Y-13523984D02*
X5857801Y-13552555D01*
X5857801Y-13552555D02*
X5838753Y-13571603D01*
X5838753Y-13571603D02*
X5819706Y-13581127D01*
X6124467Y-13723984D02*
X6010182Y-13723984D01*
X6067325Y-13723984D02*
X6067325Y-13523984D01*
X6067325Y-13523984D02*
X6048277Y-13552555D01*
X6048277Y-13552555D02*
X6029229Y-13571603D01*
X6029229Y-13571603D02*
X6010182Y-13581127D01*
X6238753Y-13609698D02*
X6219706Y-13600174D01*
X6219706Y-13600174D02*
X6210182Y-13590650D01*
X6210182Y-13590650D02*
X6200658Y-13571603D01*
X6200658Y-13571603D02*
X6200658Y-13562079D01*
X6200658Y-13562079D02*
X6210182Y-13543031D01*
X6210182Y-13543031D02*
X6219706Y-13533508D01*
X6219706Y-13533508D02*
X6238753Y-13523984D01*
X6238753Y-13523984D02*
X6276848Y-13523984D01*
X6276848Y-13523984D02*
X6295896Y-13533508D01*
X6295896Y-13533508D02*
X6305420Y-13543031D01*
X6305420Y-13543031D02*
X6314944Y-13562079D01*
X6314944Y-13562079D02*
X6314944Y-13571603D01*
X6314944Y-13571603D02*
X6305420Y-13590650D01*
X6305420Y-13590650D02*
X6295896Y-13600174D01*
X6295896Y-13600174D02*
X6276848Y-13609698D01*
X6276848Y-13609698D02*
X6238753Y-13609698D01*
X6238753Y-13609698D02*
X6219706Y-13619222D01*
X6219706Y-13619222D02*
X6210182Y-13628746D01*
X6210182Y-13628746D02*
X6200658Y-13647793D01*
X6200658Y-13647793D02*
X6200658Y-13685888D01*
X6200658Y-13685888D02*
X6210182Y-13704936D01*
X6210182Y-13704936D02*
X6219706Y-13714460D01*
X6219706Y-13714460D02*
X6238753Y-13723984D01*
X6238753Y-13723984D02*
X6276848Y-13723984D01*
X6276848Y-13723984D02*
X6295896Y-13714460D01*
X6295896Y-13714460D02*
X6305420Y-13704936D01*
X6305420Y-13704936D02*
X6314944Y-13685888D01*
X6314944Y-13685888D02*
X6314944Y-13647793D01*
X6314944Y-13647793D02*
X6305420Y-13628746D01*
X6305420Y-13628746D02*
X6295896Y-13619222D01*
X6295896Y-13619222D02*
X6276848Y-13609698D01*
X6391134Y-13523984D02*
X6391134Y-13562079D01*
X6467325Y-13523984D02*
X6467325Y-13562079D01*
X6762563Y-13800174D02*
X6753039Y-13790650D01*
X6753039Y-13790650D02*
X6733991Y-13762079D01*
X6733991Y-13762079D02*
X6724468Y-13743031D01*
X6724468Y-13743031D02*
X6714944Y-13714460D01*
X6714944Y-13714460D02*
X6705420Y-13666841D01*
X6705420Y-13666841D02*
X6705420Y-13628746D01*
X6705420Y-13628746D02*
X6714944Y-13581127D01*
X6714944Y-13581127D02*
X6724468Y-13552555D01*
X6724468Y-13552555D02*
X6733991Y-13533508D01*
X6733991Y-13533508D02*
X6753039Y-13504936D01*
X6753039Y-13504936D02*
X6762563Y-13495412D01*
X6829229Y-13543031D02*
X6838753Y-13533508D01*
X6838753Y-13533508D02*
X6857801Y-13523984D01*
X6857801Y-13523984D02*
X6905420Y-13523984D01*
X6905420Y-13523984D02*
X6924468Y-13533508D01*
X6924468Y-13533508D02*
X6933991Y-13543031D01*
X6933991Y-13543031D02*
X6943515Y-13562079D01*
X6943515Y-13562079D02*
X6943515Y-13581127D01*
X6943515Y-13581127D02*
X6933991Y-13609698D01*
X6933991Y-13609698D02*
X6819706Y-13723984D01*
X6819706Y-13723984D02*
X6943515Y-13723984D01*
X7067325Y-13523984D02*
X7086372Y-13523984D01*
X7086372Y-13523984D02*
X7105420Y-13533508D01*
X7105420Y-13533508D02*
X7114944Y-13543031D01*
X7114944Y-13543031D02*
X7124468Y-13562079D01*
X7124468Y-13562079D02*
X7133991Y-13600174D01*
X7133991Y-13600174D02*
X7133991Y-13647793D01*
X7133991Y-13647793D02*
X7124468Y-13685888D01*
X7124468Y-13685888D02*
X7114944Y-13704936D01*
X7114944Y-13704936D02*
X7105420Y-13714460D01*
X7105420Y-13714460D02*
X7086372Y-13723984D01*
X7086372Y-13723984D02*
X7067325Y-13723984D01*
X7067325Y-13723984D02*
X7048277Y-13714460D01*
X7048277Y-13714460D02*
X7038753Y-13704936D01*
X7038753Y-13704936D02*
X7029229Y-13685888D01*
X7029229Y-13685888D02*
X7019706Y-13647793D01*
X7019706Y-13647793D02*
X7019706Y-13600174D01*
X7019706Y-13600174D02*
X7029229Y-13562079D01*
X7029229Y-13562079D02*
X7038753Y-13543031D01*
X7038753Y-13543031D02*
X7048277Y-13533508D01*
X7048277Y-13533508D02*
X7067325Y-13523984D01*
X7248277Y-13609698D02*
X7229229Y-13600174D01*
X7229229Y-13600174D02*
X7219706Y-13590650D01*
X7219706Y-13590650D02*
X7210182Y-13571603D01*
X7210182Y-13571603D02*
X7210182Y-13562079D01*
X7210182Y-13562079D02*
X7219706Y-13543031D01*
X7219706Y-13543031D02*
X7229229Y-13533508D01*
X7229229Y-13533508D02*
X7248277Y-13523984D01*
X7248277Y-13523984D02*
X7286372Y-13523984D01*
X7286372Y-13523984D02*
X7305420Y-13533508D01*
X7305420Y-13533508D02*
X7314944Y-13543031D01*
X7314944Y-13543031D02*
X7324468Y-13562079D01*
X7324468Y-13562079D02*
X7324468Y-13571603D01*
X7324468Y-13571603D02*
X7314944Y-13590650D01*
X7314944Y-13590650D02*
X7305420Y-13600174D01*
X7305420Y-13600174D02*
X7286372Y-13609698D01*
X7286372Y-13609698D02*
X7248277Y-13609698D01*
X7248277Y-13609698D02*
X7229229Y-13619222D01*
X7229229Y-13619222D02*
X7219706Y-13628746D01*
X7219706Y-13628746D02*
X7210182Y-13647793D01*
X7210182Y-13647793D02*
X7210182Y-13685888D01*
X7210182Y-13685888D02*
X7219706Y-13704936D01*
X7219706Y-13704936D02*
X7229229Y-13714460D01*
X7229229Y-13714460D02*
X7248277Y-13723984D01*
X7248277Y-13723984D02*
X7286372Y-13723984D01*
X7286372Y-13723984D02*
X7305420Y-13714460D01*
X7305420Y-13714460D02*
X7314944Y-13704936D01*
X7314944Y-13704936D02*
X7324468Y-13685888D01*
X7324468Y-13685888D02*
X7324468Y-13647793D01*
X7324468Y-13647793D02*
X7314944Y-13628746D01*
X7314944Y-13628746D02*
X7305420Y-13619222D01*
X7305420Y-13619222D02*
X7286372Y-13609698D01*
X7562563Y-13723984D02*
X7562563Y-13523984D01*
X7648277Y-13723984D02*
X7648277Y-13619222D01*
X7648277Y-13619222D02*
X7638753Y-13600174D01*
X7638753Y-13600174D02*
X7619706Y-13590650D01*
X7619706Y-13590650D02*
X7591134Y-13590650D01*
X7591134Y-13590650D02*
X7572087Y-13600174D01*
X7572087Y-13600174D02*
X7562563Y-13609698D01*
X7772087Y-13723984D02*
X7753039Y-13714460D01*
X7753039Y-13714460D02*
X7743515Y-13704936D01*
X7743515Y-13704936D02*
X7733991Y-13685888D01*
X7733991Y-13685888D02*
X7733991Y-13628746D01*
X7733991Y-13628746D02*
X7743515Y-13609698D01*
X7743515Y-13609698D02*
X7753039Y-13600174D01*
X7753039Y-13600174D02*
X7772087Y-13590650D01*
X7772087Y-13590650D02*
X7800658Y-13590650D01*
X7800658Y-13590650D02*
X7819706Y-13600174D01*
X7819706Y-13600174D02*
X7829230Y-13609698D01*
X7829230Y-13609698D02*
X7838753Y-13628746D01*
X7838753Y-13628746D02*
X7838753Y-13685888D01*
X7838753Y-13685888D02*
X7829230Y-13704936D01*
X7829230Y-13704936D02*
X7819706Y-13714460D01*
X7819706Y-13714460D02*
X7800658Y-13723984D01*
X7800658Y-13723984D02*
X7772087Y-13723984D01*
X7953039Y-13723984D02*
X7933991Y-13714460D01*
X7933991Y-13714460D02*
X7924468Y-13695412D01*
X7924468Y-13695412D02*
X7924468Y-13523984D01*
X8105420Y-13714460D02*
X8086372Y-13723984D01*
X8086372Y-13723984D02*
X8048277Y-13723984D01*
X8048277Y-13723984D02*
X8029230Y-13714460D01*
X8029230Y-13714460D02*
X8019706Y-13695412D01*
X8019706Y-13695412D02*
X8019706Y-13619222D01*
X8019706Y-13619222D02*
X8029230Y-13600174D01*
X8029230Y-13600174D02*
X8048277Y-13590650D01*
X8048277Y-13590650D02*
X8086372Y-13590650D01*
X8086372Y-13590650D02*
X8105420Y-13600174D01*
X8105420Y-13600174D02*
X8114944Y-13619222D01*
X8114944Y-13619222D02*
X8114944Y-13638269D01*
X8114944Y-13638269D02*
X8019706Y-13657317D01*
X8191134Y-13714460D02*
X8210182Y-13723984D01*
X8210182Y-13723984D02*
X8248277Y-13723984D01*
X8248277Y-13723984D02*
X8267325Y-13714460D01*
X8267325Y-13714460D02*
X8276849Y-13695412D01*
X8276849Y-13695412D02*
X8276849Y-13685888D01*
X8276849Y-13685888D02*
X8267325Y-13666841D01*
X8267325Y-13666841D02*
X8248277Y-13657317D01*
X8248277Y-13657317D02*
X8219706Y-13657317D01*
X8219706Y-13657317D02*
X8200658Y-13647793D01*
X8200658Y-13647793D02*
X8191134Y-13628746D01*
X8191134Y-13628746D02*
X8191134Y-13619222D01*
X8191134Y-13619222D02*
X8200658Y-13600174D01*
X8200658Y-13600174D02*
X8219706Y-13590650D01*
X8219706Y-13590650D02*
X8248277Y-13590650D01*
X8248277Y-13590650D02*
X8267325Y-13600174D01*
X8343515Y-13800174D02*
X8353039Y-13790650D01*
X8353039Y-13790650D02*
X8372087Y-13762079D01*
X8372087Y-13762079D02*
X8381611Y-13743031D01*
X8381611Y-13743031D02*
X8391134Y-13714460D01*
X8391134Y-13714460D02*
X8400658Y-13666841D01*
X8400658Y-13666841D02*
X8400658Y-13628746D01*
X8400658Y-13628746D02*
X8391134Y-13581127D01*
X8391134Y-13581127D02*
X8381611Y-13552555D01*
X8381611Y-13552555D02*
X8372087Y-13533508D01*
X8372087Y-13533508D02*
X8353039Y-13504936D01*
X8353039Y-13504936D02*
X8343515Y-13495412D01*
D13*
X3187500Y-13896500D02*
G75*
G02*
X3027500Y-13896500I-80000J0D01*
G01*
X3027500Y-13896500D02*
G75*
G02*
X3187500Y-13896500I80000J0D01*
G01*
D11*
X3553039Y-13987984D02*
X3438753Y-13987984D01*
X3495896Y-13987984D02*
X3495896Y-13787984D01*
X3495896Y-13787984D02*
X3476848Y-13816555D01*
X3476848Y-13816555D02*
X3457801Y-13835603D01*
X3457801Y-13835603D02*
X3438753Y-13845127D01*
X3638753Y-13968936D02*
X3648277Y-13978460D01*
X3648277Y-13978460D02*
X3638753Y-13987984D01*
X3638753Y-13987984D02*
X3629229Y-13978460D01*
X3629229Y-13978460D02*
X3638753Y-13968936D01*
X3638753Y-13968936D02*
X3638753Y-13987984D01*
X3819705Y-13787984D02*
X3781610Y-13787984D01*
X3781610Y-13787984D02*
X3762562Y-13797508D01*
X3762562Y-13797508D02*
X3753039Y-13807031D01*
X3753039Y-13807031D02*
X3733991Y-13835603D01*
X3733991Y-13835603D02*
X3724467Y-13873698D01*
X3724467Y-13873698D02*
X3724467Y-13949888D01*
X3724467Y-13949888D02*
X3733991Y-13968936D01*
X3733991Y-13968936D02*
X3743515Y-13978460D01*
X3743515Y-13978460D02*
X3762562Y-13987984D01*
X3762562Y-13987984D02*
X3800658Y-13987984D01*
X3800658Y-13987984D02*
X3819705Y-13978460D01*
X3819705Y-13978460D02*
X3829229Y-13968936D01*
X3829229Y-13968936D02*
X3838753Y-13949888D01*
X3838753Y-13949888D02*
X3838753Y-13902269D01*
X3838753Y-13902269D02*
X3829229Y-13883222D01*
X3829229Y-13883222D02*
X3819705Y-13873698D01*
X3819705Y-13873698D02*
X3800658Y-13864174D01*
X3800658Y-13864174D02*
X3762562Y-13864174D01*
X3762562Y-13864174D02*
X3743515Y-13873698D01*
X3743515Y-13873698D02*
X3733991Y-13883222D01*
X3733991Y-13883222D02*
X3724467Y-13902269D01*
X3962562Y-13787984D02*
X3981610Y-13787984D01*
X3981610Y-13787984D02*
X4000658Y-13797508D01*
X4000658Y-13797508D02*
X4010182Y-13807031D01*
X4010182Y-13807031D02*
X4019705Y-13826079D01*
X4019705Y-13826079D02*
X4029229Y-13864174D01*
X4029229Y-13864174D02*
X4029229Y-13911793D01*
X4029229Y-13911793D02*
X4019705Y-13949888D01*
X4019705Y-13949888D02*
X4010182Y-13968936D01*
X4010182Y-13968936D02*
X4000658Y-13978460D01*
X4000658Y-13978460D02*
X3981610Y-13987984D01*
X3981610Y-13987984D02*
X3962562Y-13987984D01*
X3962562Y-13987984D02*
X3943515Y-13978460D01*
X3943515Y-13978460D02*
X3933991Y-13968936D01*
X3933991Y-13968936D02*
X3924467Y-13949888D01*
X3924467Y-13949888D02*
X3914943Y-13911793D01*
X3914943Y-13911793D02*
X3914943Y-13864174D01*
X3914943Y-13864174D02*
X3924467Y-13826079D01*
X3924467Y-13826079D02*
X3933991Y-13807031D01*
X3933991Y-13807031D02*
X3943515Y-13797508D01*
X3943515Y-13797508D02*
X3962562Y-13787984D01*
X4153039Y-13787984D02*
X4172086Y-13787984D01*
X4172086Y-13787984D02*
X4191134Y-13797508D01*
X4191134Y-13797508D02*
X4200658Y-13807031D01*
X4200658Y-13807031D02*
X4210182Y-13826079D01*
X4210182Y-13826079D02*
X4219705Y-13864174D01*
X4219705Y-13864174D02*
X4219705Y-13911793D01*
X4219705Y-13911793D02*
X4210182Y-13949888D01*
X4210182Y-13949888D02*
X4200658Y-13968936D01*
X4200658Y-13968936D02*
X4191134Y-13978460D01*
X4191134Y-13978460D02*
X4172086Y-13987984D01*
X4172086Y-13987984D02*
X4153039Y-13987984D01*
X4153039Y-13987984D02*
X4133991Y-13978460D01*
X4133991Y-13978460D02*
X4124467Y-13968936D01*
X4124467Y-13968936D02*
X4114943Y-13949888D01*
X4114943Y-13949888D02*
X4105420Y-13911793D01*
X4105420Y-13911793D02*
X4105420Y-13864174D01*
X4105420Y-13864174D02*
X4114943Y-13826079D01*
X4114943Y-13826079D02*
X4124467Y-13807031D01*
X4124467Y-13807031D02*
X4133991Y-13797508D01*
X4133991Y-13797508D02*
X4153039Y-13787984D01*
X4305420Y-13987984D02*
X4305420Y-13854650D01*
X4305420Y-13873698D02*
X4314944Y-13864174D01*
X4314944Y-13864174D02*
X4333991Y-13854650D01*
X4333991Y-13854650D02*
X4362563Y-13854650D01*
X4362563Y-13854650D02*
X4381610Y-13864174D01*
X4381610Y-13864174D02*
X4391134Y-13883222D01*
X4391134Y-13883222D02*
X4391134Y-13987984D01*
X4391134Y-13883222D02*
X4400658Y-13864174D01*
X4400658Y-13864174D02*
X4419705Y-13854650D01*
X4419705Y-13854650D02*
X4448277Y-13854650D01*
X4448277Y-13854650D02*
X4467325Y-13864174D01*
X4467325Y-13864174D02*
X4476848Y-13883222D01*
X4476848Y-13883222D02*
X4476848Y-13987984D01*
X4572086Y-13987984D02*
X4572086Y-13854650D01*
X4572086Y-13873698D02*
X4581610Y-13864174D01*
X4581610Y-13864174D02*
X4600658Y-13854650D01*
X4600658Y-13854650D02*
X4629229Y-13854650D01*
X4629229Y-13854650D02*
X4648277Y-13864174D01*
X4648277Y-13864174D02*
X4657801Y-13883222D01*
X4657801Y-13883222D02*
X4657801Y-13987984D01*
X4657801Y-13883222D02*
X4667325Y-13864174D01*
X4667325Y-13864174D02*
X4686372Y-13854650D01*
X4686372Y-13854650D02*
X4714944Y-13854650D01*
X4714944Y-13854650D02*
X4733991Y-13864174D01*
X4733991Y-13864174D02*
X4743515Y-13883222D01*
X4743515Y-13883222D02*
X4743515Y-13987984D01*
X5133991Y-13778460D02*
X4962563Y-14035603D01*
X5391134Y-13787984D02*
X5410182Y-13787984D01*
X5410182Y-13787984D02*
X5429229Y-13797508D01*
X5429229Y-13797508D02*
X5438753Y-13807031D01*
X5438753Y-13807031D02*
X5448277Y-13826079D01*
X5448277Y-13826079D02*
X5457801Y-13864174D01*
X5457801Y-13864174D02*
X5457801Y-13911793D01*
X5457801Y-13911793D02*
X5448277Y-13949888D01*
X5448277Y-13949888D02*
X5438753Y-13968936D01*
X5438753Y-13968936D02*
X5429229Y-13978460D01*
X5429229Y-13978460D02*
X5410182Y-13987984D01*
X5410182Y-13987984D02*
X5391134Y-13987984D01*
X5391134Y-13987984D02*
X5372087Y-13978460D01*
X5372087Y-13978460D02*
X5362563Y-13968936D01*
X5362563Y-13968936D02*
X5353039Y-13949888D01*
X5353039Y-13949888D02*
X5343515Y-13911793D01*
X5343515Y-13911793D02*
X5343515Y-13864174D01*
X5343515Y-13864174D02*
X5353039Y-13826079D01*
X5353039Y-13826079D02*
X5362563Y-13807031D01*
X5362563Y-13807031D02*
X5372087Y-13797508D01*
X5372087Y-13797508D02*
X5391134Y-13787984D01*
X5543515Y-13968936D02*
X5553039Y-13978460D01*
X5553039Y-13978460D02*
X5543515Y-13987984D01*
X5543515Y-13987984D02*
X5533991Y-13978460D01*
X5533991Y-13978460D02*
X5543515Y-13968936D01*
X5543515Y-13968936D02*
X5543515Y-13987984D01*
X5676848Y-13787984D02*
X5695896Y-13787984D01*
X5695896Y-13787984D02*
X5714944Y-13797508D01*
X5714944Y-13797508D02*
X5724467Y-13807031D01*
X5724467Y-13807031D02*
X5733991Y-13826079D01*
X5733991Y-13826079D02*
X5743515Y-13864174D01*
X5743515Y-13864174D02*
X5743515Y-13911793D01*
X5743515Y-13911793D02*
X5733991Y-13949888D01*
X5733991Y-13949888D02*
X5724467Y-13968936D01*
X5724467Y-13968936D02*
X5714944Y-13978460D01*
X5714944Y-13978460D02*
X5695896Y-13987984D01*
X5695896Y-13987984D02*
X5676848Y-13987984D01*
X5676848Y-13987984D02*
X5657801Y-13978460D01*
X5657801Y-13978460D02*
X5648277Y-13968936D01*
X5648277Y-13968936D02*
X5638753Y-13949888D01*
X5638753Y-13949888D02*
X5629229Y-13911793D01*
X5629229Y-13911793D02*
X5629229Y-13864174D01*
X5629229Y-13864174D02*
X5638753Y-13826079D01*
X5638753Y-13826079D02*
X5648277Y-13807031D01*
X5648277Y-13807031D02*
X5657801Y-13797508D01*
X5657801Y-13797508D02*
X5676848Y-13787984D01*
X5914944Y-13787984D02*
X5876848Y-13787984D01*
X5876848Y-13787984D02*
X5857801Y-13797508D01*
X5857801Y-13797508D02*
X5848277Y-13807031D01*
X5848277Y-13807031D02*
X5829229Y-13835603D01*
X5829229Y-13835603D02*
X5819706Y-13873698D01*
X5819706Y-13873698D02*
X5819706Y-13949888D01*
X5819706Y-13949888D02*
X5829229Y-13968936D01*
X5829229Y-13968936D02*
X5838753Y-13978460D01*
X5838753Y-13978460D02*
X5857801Y-13987984D01*
X5857801Y-13987984D02*
X5895896Y-13987984D01*
X5895896Y-13987984D02*
X5914944Y-13978460D01*
X5914944Y-13978460D02*
X5924467Y-13968936D01*
X5924467Y-13968936D02*
X5933991Y-13949888D01*
X5933991Y-13949888D02*
X5933991Y-13902269D01*
X5933991Y-13902269D02*
X5924467Y-13883222D01*
X5924467Y-13883222D02*
X5914944Y-13873698D01*
X5914944Y-13873698D02*
X5895896Y-13864174D01*
X5895896Y-13864174D02*
X5857801Y-13864174D01*
X5857801Y-13864174D02*
X5838753Y-13873698D01*
X5838753Y-13873698D02*
X5829229Y-13883222D01*
X5829229Y-13883222D02*
X5819706Y-13902269D01*
X6000658Y-13787984D02*
X6124467Y-13787984D01*
X6124467Y-13787984D02*
X6057801Y-13864174D01*
X6057801Y-13864174D02*
X6086372Y-13864174D01*
X6086372Y-13864174D02*
X6105420Y-13873698D01*
X6105420Y-13873698D02*
X6114944Y-13883222D01*
X6114944Y-13883222D02*
X6124467Y-13902269D01*
X6124467Y-13902269D02*
X6124467Y-13949888D01*
X6124467Y-13949888D02*
X6114944Y-13968936D01*
X6114944Y-13968936D02*
X6105420Y-13978460D01*
X6105420Y-13978460D02*
X6086372Y-13987984D01*
X6086372Y-13987984D02*
X6029229Y-13987984D01*
X6029229Y-13987984D02*
X6010182Y-13978460D01*
X6010182Y-13978460D02*
X6000658Y-13968936D01*
X6248277Y-13787984D02*
X6267325Y-13787984D01*
X6267325Y-13787984D02*
X6286372Y-13797508D01*
X6286372Y-13797508D02*
X6295896Y-13807031D01*
X6295896Y-13807031D02*
X6305420Y-13826079D01*
X6305420Y-13826079D02*
X6314944Y-13864174D01*
X6314944Y-13864174D02*
X6314944Y-13911793D01*
X6314944Y-13911793D02*
X6305420Y-13949888D01*
X6305420Y-13949888D02*
X6295896Y-13968936D01*
X6295896Y-13968936D02*
X6286372Y-13978460D01*
X6286372Y-13978460D02*
X6267325Y-13987984D01*
X6267325Y-13987984D02*
X6248277Y-13987984D01*
X6248277Y-13987984D02*
X6229229Y-13978460D01*
X6229229Y-13978460D02*
X6219706Y-13968936D01*
X6219706Y-13968936D02*
X6210182Y-13949888D01*
X6210182Y-13949888D02*
X6200658Y-13911793D01*
X6200658Y-13911793D02*
X6200658Y-13864174D01*
X6200658Y-13864174D02*
X6210182Y-13826079D01*
X6210182Y-13826079D02*
X6219706Y-13807031D01*
X6219706Y-13807031D02*
X6229229Y-13797508D01*
X6229229Y-13797508D02*
X6248277Y-13787984D01*
X6391134Y-13787984D02*
X6391134Y-13826079D01*
X6467325Y-13787984D02*
X6467325Y-13826079D01*
X6762563Y-14064174D02*
X6753039Y-14054650D01*
X6753039Y-14054650D02*
X6733991Y-14026079D01*
X6733991Y-14026079D02*
X6724468Y-14007031D01*
X6724468Y-14007031D02*
X6714944Y-13978460D01*
X6714944Y-13978460D02*
X6705420Y-13930841D01*
X6705420Y-13930841D02*
X6705420Y-13892746D01*
X6705420Y-13892746D02*
X6714944Y-13845127D01*
X6714944Y-13845127D02*
X6724468Y-13816555D01*
X6724468Y-13816555D02*
X6733991Y-13797508D01*
X6733991Y-13797508D02*
X6753039Y-13768936D01*
X6753039Y-13768936D02*
X6762563Y-13759412D01*
X6829229Y-13807031D02*
X6838753Y-13797508D01*
X6838753Y-13797508D02*
X6857801Y-13787984D01*
X6857801Y-13787984D02*
X6905420Y-13787984D01*
X6905420Y-13787984D02*
X6924468Y-13797508D01*
X6924468Y-13797508D02*
X6933991Y-13807031D01*
X6933991Y-13807031D02*
X6943515Y-13826079D01*
X6943515Y-13826079D02*
X6943515Y-13845127D01*
X6943515Y-13845127D02*
X6933991Y-13873698D01*
X6933991Y-13873698D02*
X6819706Y-13987984D01*
X6819706Y-13987984D02*
X6943515Y-13987984D01*
X7067325Y-13787984D02*
X7086372Y-13787984D01*
X7086372Y-13787984D02*
X7105420Y-13797508D01*
X7105420Y-13797508D02*
X7114944Y-13807031D01*
X7114944Y-13807031D02*
X7124468Y-13826079D01*
X7124468Y-13826079D02*
X7133991Y-13864174D01*
X7133991Y-13864174D02*
X7133991Y-13911793D01*
X7133991Y-13911793D02*
X7124468Y-13949888D01*
X7124468Y-13949888D02*
X7114944Y-13968936D01*
X7114944Y-13968936D02*
X7105420Y-13978460D01*
X7105420Y-13978460D02*
X7086372Y-13987984D01*
X7086372Y-13987984D02*
X7067325Y-13987984D01*
X7067325Y-13987984D02*
X7048277Y-13978460D01*
X7048277Y-13978460D02*
X7038753Y-13968936D01*
X7038753Y-13968936D02*
X7029229Y-13949888D01*
X7029229Y-13949888D02*
X7019706Y-13911793D01*
X7019706Y-13911793D02*
X7019706Y-13864174D01*
X7019706Y-13864174D02*
X7029229Y-13826079D01*
X7029229Y-13826079D02*
X7038753Y-13807031D01*
X7038753Y-13807031D02*
X7048277Y-13797508D01*
X7048277Y-13797508D02*
X7067325Y-13787984D01*
X7372087Y-13987984D02*
X7372087Y-13787984D01*
X7457801Y-13987984D02*
X7457801Y-13883222D01*
X7457801Y-13883222D02*
X7448277Y-13864174D01*
X7448277Y-13864174D02*
X7429230Y-13854650D01*
X7429230Y-13854650D02*
X7400658Y-13854650D01*
X7400658Y-13854650D02*
X7381610Y-13864174D01*
X7381610Y-13864174D02*
X7372087Y-13873698D01*
X7581610Y-13987984D02*
X7562563Y-13978460D01*
X7562563Y-13978460D02*
X7553039Y-13968936D01*
X7553039Y-13968936D02*
X7543515Y-13949888D01*
X7543515Y-13949888D02*
X7543515Y-13892746D01*
X7543515Y-13892746D02*
X7553039Y-13873698D01*
X7553039Y-13873698D02*
X7562563Y-13864174D01*
X7562563Y-13864174D02*
X7581610Y-13854650D01*
X7581610Y-13854650D02*
X7610182Y-13854650D01*
X7610182Y-13854650D02*
X7629230Y-13864174D01*
X7629230Y-13864174D02*
X7638753Y-13873698D01*
X7638753Y-13873698D02*
X7648277Y-13892746D01*
X7648277Y-13892746D02*
X7648277Y-13949888D01*
X7648277Y-13949888D02*
X7638753Y-13968936D01*
X7638753Y-13968936D02*
X7629230Y-13978460D01*
X7629230Y-13978460D02*
X7610182Y-13987984D01*
X7610182Y-13987984D02*
X7581610Y-13987984D01*
X7762563Y-13987984D02*
X7743515Y-13978460D01*
X7743515Y-13978460D02*
X7733991Y-13959412D01*
X7733991Y-13959412D02*
X7733991Y-13787984D01*
X7914944Y-13978460D02*
X7895896Y-13987984D01*
X7895896Y-13987984D02*
X7857801Y-13987984D01*
X7857801Y-13987984D02*
X7838753Y-13978460D01*
X7838753Y-13978460D02*
X7829230Y-13959412D01*
X7829230Y-13959412D02*
X7829230Y-13883222D01*
X7829230Y-13883222D02*
X7838753Y-13864174D01*
X7838753Y-13864174D02*
X7857801Y-13854650D01*
X7857801Y-13854650D02*
X7895896Y-13854650D01*
X7895896Y-13854650D02*
X7914944Y-13864174D01*
X7914944Y-13864174D02*
X7924468Y-13883222D01*
X7924468Y-13883222D02*
X7924468Y-13902269D01*
X7924468Y-13902269D02*
X7829230Y-13921317D01*
X8000658Y-13978460D02*
X8019706Y-13987984D01*
X8019706Y-13987984D02*
X8057801Y-13987984D01*
X8057801Y-13987984D02*
X8076849Y-13978460D01*
X8076849Y-13978460D02*
X8086372Y-13959412D01*
X8086372Y-13959412D02*
X8086372Y-13949888D01*
X8086372Y-13949888D02*
X8076849Y-13930841D01*
X8076849Y-13930841D02*
X8057801Y-13921317D01*
X8057801Y-13921317D02*
X8029230Y-13921317D01*
X8029230Y-13921317D02*
X8010182Y-13911793D01*
X8010182Y-13911793D02*
X8000658Y-13892746D01*
X8000658Y-13892746D02*
X8000658Y-13883222D01*
X8000658Y-13883222D02*
X8010182Y-13864174D01*
X8010182Y-13864174D02*
X8029230Y-13854650D01*
X8029230Y-13854650D02*
X8057801Y-13854650D01*
X8057801Y-13854650D02*
X8076849Y-13864174D01*
X8153039Y-14064174D02*
X8162563Y-14054650D01*
X8162563Y-14054650D02*
X8181611Y-14026079D01*
X8181611Y-14026079D02*
X8191134Y-14007031D01*
X8191134Y-14007031D02*
X8200658Y-13978460D01*
X8200658Y-13978460D02*
X8210182Y-13930841D01*
X8210182Y-13930841D02*
X8210182Y-13892746D01*
X8210182Y-13892746D02*
X8200658Y-13845127D01*
X8200658Y-13845127D02*
X8191134Y-13816555D01*
X8191134Y-13816555D02*
X8181611Y-13797508D01*
X8181611Y-13797508D02*
X8162563Y-13768936D01*
X8162563Y-13768936D02*
X8153039Y-13759412D01*
X3087500Y-14076500D02*
X3087500Y-14276500D01*
X2987500Y-14176500D02*
X3187500Y-14176500D01*
X3429229Y-14067984D02*
X3553039Y-14067984D01*
X3553039Y-14067984D02*
X3486372Y-14144174D01*
X3486372Y-14144174D02*
X3514943Y-14144174D01*
X3514943Y-14144174D02*
X3533991Y-14153698D01*
X3533991Y-14153698D02*
X3543515Y-14163222D01*
X3543515Y-14163222D02*
X3553039Y-14182269D01*
X3553039Y-14182269D02*
X3553039Y-14229888D01*
X3553039Y-14229888D02*
X3543515Y-14248936D01*
X3543515Y-14248936D02*
X3533991Y-14258460D01*
X3533991Y-14258460D02*
X3514943Y-14267984D01*
X3514943Y-14267984D02*
X3457801Y-14267984D01*
X3457801Y-14267984D02*
X3438753Y-14258460D01*
X3438753Y-14258460D02*
X3429229Y-14248936D01*
X3638753Y-14248936D02*
X3648277Y-14258460D01*
X3648277Y-14258460D02*
X3638753Y-14267984D01*
X3638753Y-14267984D02*
X3629229Y-14258460D01*
X3629229Y-14258460D02*
X3638753Y-14248936D01*
X3638753Y-14248936D02*
X3638753Y-14267984D01*
X3724467Y-14087031D02*
X3733991Y-14077508D01*
X3733991Y-14077508D02*
X3753039Y-14067984D01*
X3753039Y-14067984D02*
X3800658Y-14067984D01*
X3800658Y-14067984D02*
X3819705Y-14077508D01*
X3819705Y-14077508D02*
X3829229Y-14087031D01*
X3829229Y-14087031D02*
X3838753Y-14106079D01*
X3838753Y-14106079D02*
X3838753Y-14125127D01*
X3838753Y-14125127D02*
X3829229Y-14153698D01*
X3829229Y-14153698D02*
X3714943Y-14267984D01*
X3714943Y-14267984D02*
X3838753Y-14267984D01*
X3962562Y-14067984D02*
X3981610Y-14067984D01*
X3981610Y-14067984D02*
X4000658Y-14077508D01*
X4000658Y-14077508D02*
X4010182Y-14087031D01*
X4010182Y-14087031D02*
X4019705Y-14106079D01*
X4019705Y-14106079D02*
X4029229Y-14144174D01*
X4029229Y-14144174D02*
X4029229Y-14191793D01*
X4029229Y-14191793D02*
X4019705Y-14229888D01*
X4019705Y-14229888D02*
X4010182Y-14248936D01*
X4010182Y-14248936D02*
X4000658Y-14258460D01*
X4000658Y-14258460D02*
X3981610Y-14267984D01*
X3981610Y-14267984D02*
X3962562Y-14267984D01*
X3962562Y-14267984D02*
X3943515Y-14258460D01*
X3943515Y-14258460D02*
X3933991Y-14248936D01*
X3933991Y-14248936D02*
X3924467Y-14229888D01*
X3924467Y-14229888D02*
X3914943Y-14191793D01*
X3914943Y-14191793D02*
X3914943Y-14144174D01*
X3914943Y-14144174D02*
X3924467Y-14106079D01*
X3924467Y-14106079D02*
X3933991Y-14087031D01*
X3933991Y-14087031D02*
X3943515Y-14077508D01*
X3943515Y-14077508D02*
X3962562Y-14067984D01*
X4153039Y-14067984D02*
X4172086Y-14067984D01*
X4172086Y-14067984D02*
X4191134Y-14077508D01*
X4191134Y-14077508D02*
X4200658Y-14087031D01*
X4200658Y-14087031D02*
X4210182Y-14106079D01*
X4210182Y-14106079D02*
X4219705Y-14144174D01*
X4219705Y-14144174D02*
X4219705Y-14191793D01*
X4219705Y-14191793D02*
X4210182Y-14229888D01*
X4210182Y-14229888D02*
X4200658Y-14248936D01*
X4200658Y-14248936D02*
X4191134Y-14258460D01*
X4191134Y-14258460D02*
X4172086Y-14267984D01*
X4172086Y-14267984D02*
X4153039Y-14267984D01*
X4153039Y-14267984D02*
X4133991Y-14258460D01*
X4133991Y-14258460D02*
X4124467Y-14248936D01*
X4124467Y-14248936D02*
X4114943Y-14229888D01*
X4114943Y-14229888D02*
X4105420Y-14191793D01*
X4105420Y-14191793D02*
X4105420Y-14144174D01*
X4105420Y-14144174D02*
X4114943Y-14106079D01*
X4114943Y-14106079D02*
X4124467Y-14087031D01*
X4124467Y-14087031D02*
X4133991Y-14077508D01*
X4133991Y-14077508D02*
X4153039Y-14067984D01*
X4305420Y-14267984D02*
X4305420Y-14134650D01*
X4305420Y-14153698D02*
X4314944Y-14144174D01*
X4314944Y-14144174D02*
X4333991Y-14134650D01*
X4333991Y-14134650D02*
X4362563Y-14134650D01*
X4362563Y-14134650D02*
X4381610Y-14144174D01*
X4381610Y-14144174D02*
X4391134Y-14163222D01*
X4391134Y-14163222D02*
X4391134Y-14267984D01*
X4391134Y-14163222D02*
X4400658Y-14144174D01*
X4400658Y-14144174D02*
X4419705Y-14134650D01*
X4419705Y-14134650D02*
X4448277Y-14134650D01*
X4448277Y-14134650D02*
X4467325Y-14144174D01*
X4467325Y-14144174D02*
X4476848Y-14163222D01*
X4476848Y-14163222D02*
X4476848Y-14267984D01*
X4572086Y-14267984D02*
X4572086Y-14134650D01*
X4572086Y-14153698D02*
X4581610Y-14144174D01*
X4581610Y-14144174D02*
X4600658Y-14134650D01*
X4600658Y-14134650D02*
X4629229Y-14134650D01*
X4629229Y-14134650D02*
X4648277Y-14144174D01*
X4648277Y-14144174D02*
X4657801Y-14163222D01*
X4657801Y-14163222D02*
X4657801Y-14267984D01*
X4657801Y-14163222D02*
X4667325Y-14144174D01*
X4667325Y-14144174D02*
X4686372Y-14134650D01*
X4686372Y-14134650D02*
X4714944Y-14134650D01*
X4714944Y-14134650D02*
X4733991Y-14144174D01*
X4733991Y-14144174D02*
X4743515Y-14163222D01*
X4743515Y-14163222D02*
X4743515Y-14267984D01*
X5133991Y-14058460D02*
X4962563Y-14315603D01*
X5391134Y-14067984D02*
X5410182Y-14067984D01*
X5410182Y-14067984D02*
X5429229Y-14077508D01*
X5429229Y-14077508D02*
X5438753Y-14087031D01*
X5438753Y-14087031D02*
X5448277Y-14106079D01*
X5448277Y-14106079D02*
X5457801Y-14144174D01*
X5457801Y-14144174D02*
X5457801Y-14191793D01*
X5457801Y-14191793D02*
X5448277Y-14229888D01*
X5448277Y-14229888D02*
X5438753Y-14248936D01*
X5438753Y-14248936D02*
X5429229Y-14258460D01*
X5429229Y-14258460D02*
X5410182Y-14267984D01*
X5410182Y-14267984D02*
X5391134Y-14267984D01*
X5391134Y-14267984D02*
X5372087Y-14258460D01*
X5372087Y-14258460D02*
X5362563Y-14248936D01*
X5362563Y-14248936D02*
X5353039Y-14229888D01*
X5353039Y-14229888D02*
X5343515Y-14191793D01*
X5343515Y-14191793D02*
X5343515Y-14144174D01*
X5343515Y-14144174D02*
X5353039Y-14106079D01*
X5353039Y-14106079D02*
X5362563Y-14087031D01*
X5362563Y-14087031D02*
X5372087Y-14077508D01*
X5372087Y-14077508D02*
X5391134Y-14067984D01*
X5543515Y-14248936D02*
X5553039Y-14258460D01*
X5553039Y-14258460D02*
X5543515Y-14267984D01*
X5543515Y-14267984D02*
X5533991Y-14258460D01*
X5533991Y-14258460D02*
X5543515Y-14248936D01*
X5543515Y-14248936D02*
X5543515Y-14267984D01*
X5743515Y-14267984D02*
X5629229Y-14267984D01*
X5686372Y-14267984D02*
X5686372Y-14067984D01*
X5686372Y-14067984D02*
X5667325Y-14096555D01*
X5667325Y-14096555D02*
X5648277Y-14115603D01*
X5648277Y-14115603D02*
X5629229Y-14125127D01*
X5819706Y-14087031D02*
X5829229Y-14077508D01*
X5829229Y-14077508D02*
X5848277Y-14067984D01*
X5848277Y-14067984D02*
X5895896Y-14067984D01*
X5895896Y-14067984D02*
X5914944Y-14077508D01*
X5914944Y-14077508D02*
X5924467Y-14087031D01*
X5924467Y-14087031D02*
X5933991Y-14106079D01*
X5933991Y-14106079D02*
X5933991Y-14125127D01*
X5933991Y-14125127D02*
X5924467Y-14153698D01*
X5924467Y-14153698D02*
X5810182Y-14267984D01*
X5810182Y-14267984D02*
X5933991Y-14267984D01*
X6105420Y-14067984D02*
X6067325Y-14067984D01*
X6067325Y-14067984D02*
X6048277Y-14077508D01*
X6048277Y-14077508D02*
X6038753Y-14087031D01*
X6038753Y-14087031D02*
X6019706Y-14115603D01*
X6019706Y-14115603D02*
X6010182Y-14153698D01*
X6010182Y-14153698D02*
X6010182Y-14229888D01*
X6010182Y-14229888D02*
X6019706Y-14248936D01*
X6019706Y-14248936D02*
X6029229Y-14258460D01*
X6029229Y-14258460D02*
X6048277Y-14267984D01*
X6048277Y-14267984D02*
X6086372Y-14267984D01*
X6086372Y-14267984D02*
X6105420Y-14258460D01*
X6105420Y-14258460D02*
X6114944Y-14248936D01*
X6114944Y-14248936D02*
X6124467Y-14229888D01*
X6124467Y-14229888D02*
X6124467Y-14182269D01*
X6124467Y-14182269D02*
X6114944Y-14163222D01*
X6114944Y-14163222D02*
X6105420Y-14153698D01*
X6105420Y-14153698D02*
X6086372Y-14144174D01*
X6086372Y-14144174D02*
X6048277Y-14144174D01*
X6048277Y-14144174D02*
X6029229Y-14153698D01*
X6029229Y-14153698D02*
X6019706Y-14163222D01*
X6019706Y-14163222D02*
X6010182Y-14182269D01*
X6248277Y-14067984D02*
X6267325Y-14067984D01*
X6267325Y-14067984D02*
X6286372Y-14077508D01*
X6286372Y-14077508D02*
X6295896Y-14087031D01*
X6295896Y-14087031D02*
X6305420Y-14106079D01*
X6305420Y-14106079D02*
X6314944Y-14144174D01*
X6314944Y-14144174D02*
X6314944Y-14191793D01*
X6314944Y-14191793D02*
X6305420Y-14229888D01*
X6305420Y-14229888D02*
X6295896Y-14248936D01*
X6295896Y-14248936D02*
X6286372Y-14258460D01*
X6286372Y-14258460D02*
X6267325Y-14267984D01*
X6267325Y-14267984D02*
X6248277Y-14267984D01*
X6248277Y-14267984D02*
X6229229Y-14258460D01*
X6229229Y-14258460D02*
X6219706Y-14248936D01*
X6219706Y-14248936D02*
X6210182Y-14229888D01*
X6210182Y-14229888D02*
X6200658Y-14191793D01*
X6200658Y-14191793D02*
X6200658Y-14144174D01*
X6200658Y-14144174D02*
X6210182Y-14106079D01*
X6210182Y-14106079D02*
X6219706Y-14087031D01*
X6219706Y-14087031D02*
X6229229Y-14077508D01*
X6229229Y-14077508D02*
X6248277Y-14067984D01*
X6391134Y-14067984D02*
X6391134Y-14106079D01*
X6467325Y-14067984D02*
X6467325Y-14106079D01*
X6762563Y-14344174D02*
X6753039Y-14334650D01*
X6753039Y-14334650D02*
X6733991Y-14306079D01*
X6733991Y-14306079D02*
X6724468Y-14287031D01*
X6724468Y-14287031D02*
X6714944Y-14258460D01*
X6714944Y-14258460D02*
X6705420Y-14210841D01*
X6705420Y-14210841D02*
X6705420Y-14172746D01*
X6705420Y-14172746D02*
X6714944Y-14125127D01*
X6714944Y-14125127D02*
X6724468Y-14096555D01*
X6724468Y-14096555D02*
X6733991Y-14077508D01*
X6733991Y-14077508D02*
X6753039Y-14048936D01*
X6753039Y-14048936D02*
X6762563Y-14039412D01*
X6924468Y-14067984D02*
X6886372Y-14067984D01*
X6886372Y-14067984D02*
X6867325Y-14077508D01*
X6867325Y-14077508D02*
X6857801Y-14087031D01*
X6857801Y-14087031D02*
X6838753Y-14115603D01*
X6838753Y-14115603D02*
X6829229Y-14153698D01*
X6829229Y-14153698D02*
X6829229Y-14229888D01*
X6829229Y-14229888D02*
X6838753Y-14248936D01*
X6838753Y-14248936D02*
X6848277Y-14258460D01*
X6848277Y-14258460D02*
X6867325Y-14267984D01*
X6867325Y-14267984D02*
X6905420Y-14267984D01*
X6905420Y-14267984D02*
X6924468Y-14258460D01*
X6924468Y-14258460D02*
X6933991Y-14248936D01*
X6933991Y-14248936D02*
X6943515Y-14229888D01*
X6943515Y-14229888D02*
X6943515Y-14182269D01*
X6943515Y-14182269D02*
X6933991Y-14163222D01*
X6933991Y-14163222D02*
X6924468Y-14153698D01*
X6924468Y-14153698D02*
X6905420Y-14144174D01*
X6905420Y-14144174D02*
X6867325Y-14144174D01*
X6867325Y-14144174D02*
X6848277Y-14153698D01*
X6848277Y-14153698D02*
X6838753Y-14163222D01*
X6838753Y-14163222D02*
X6829229Y-14182269D01*
X7181610Y-14267984D02*
X7181610Y-14067984D01*
X7267325Y-14267984D02*
X7267325Y-14163222D01*
X7267325Y-14163222D02*
X7257801Y-14144174D01*
X7257801Y-14144174D02*
X7238753Y-14134650D01*
X7238753Y-14134650D02*
X7210182Y-14134650D01*
X7210182Y-14134650D02*
X7191134Y-14144174D01*
X7191134Y-14144174D02*
X7181610Y-14153698D01*
X7391134Y-14267984D02*
X7372087Y-14258460D01*
X7372087Y-14258460D02*
X7362563Y-14248936D01*
X7362563Y-14248936D02*
X7353039Y-14229888D01*
X7353039Y-14229888D02*
X7353039Y-14172746D01*
X7353039Y-14172746D02*
X7362563Y-14153698D01*
X7362563Y-14153698D02*
X7372087Y-14144174D01*
X7372087Y-14144174D02*
X7391134Y-14134650D01*
X7391134Y-14134650D02*
X7419706Y-14134650D01*
X7419706Y-14134650D02*
X7438753Y-14144174D01*
X7438753Y-14144174D02*
X7448277Y-14153698D01*
X7448277Y-14153698D02*
X7457801Y-14172746D01*
X7457801Y-14172746D02*
X7457801Y-14229888D01*
X7457801Y-14229888D02*
X7448277Y-14248936D01*
X7448277Y-14248936D02*
X7438753Y-14258460D01*
X7438753Y-14258460D02*
X7419706Y-14267984D01*
X7419706Y-14267984D02*
X7391134Y-14267984D01*
X7572087Y-14267984D02*
X7553039Y-14258460D01*
X7553039Y-14258460D02*
X7543515Y-14239412D01*
X7543515Y-14239412D02*
X7543515Y-14067984D01*
X7724468Y-14258460D02*
X7705420Y-14267984D01*
X7705420Y-14267984D02*
X7667325Y-14267984D01*
X7667325Y-14267984D02*
X7648277Y-14258460D01*
X7648277Y-14258460D02*
X7638753Y-14239412D01*
X7638753Y-14239412D02*
X7638753Y-14163222D01*
X7638753Y-14163222D02*
X7648277Y-14144174D01*
X7648277Y-14144174D02*
X7667325Y-14134650D01*
X7667325Y-14134650D02*
X7705420Y-14134650D01*
X7705420Y-14134650D02*
X7724468Y-14144174D01*
X7724468Y-14144174D02*
X7733991Y-14163222D01*
X7733991Y-14163222D02*
X7733991Y-14182269D01*
X7733991Y-14182269D02*
X7638753Y-14201317D01*
X7810182Y-14258460D02*
X7829230Y-14267984D01*
X7829230Y-14267984D02*
X7867325Y-14267984D01*
X7867325Y-14267984D02*
X7886372Y-14258460D01*
X7886372Y-14258460D02*
X7895896Y-14239412D01*
X7895896Y-14239412D02*
X7895896Y-14229888D01*
X7895896Y-14229888D02*
X7886372Y-14210841D01*
X7886372Y-14210841D02*
X7867325Y-14201317D01*
X7867325Y-14201317D02*
X7838753Y-14201317D01*
X7838753Y-14201317D02*
X7819706Y-14191793D01*
X7819706Y-14191793D02*
X7810182Y-14172746D01*
X7810182Y-14172746D02*
X7810182Y-14163222D01*
X7810182Y-14163222D02*
X7819706Y-14144174D01*
X7819706Y-14144174D02*
X7838753Y-14134650D01*
X7838753Y-14134650D02*
X7867325Y-14134650D01*
X7867325Y-14134650D02*
X7886372Y-14144174D01*
X7962563Y-14344174D02*
X7972087Y-14334650D01*
X7972087Y-14334650D02*
X7991134Y-14306079D01*
X7991134Y-14306079D02*
X8000658Y-14287031D01*
X8000658Y-14287031D02*
X8010182Y-14258460D01*
X8010182Y-14258460D02*
X8019706Y-14210841D01*
X8019706Y-14210841D02*
X8019706Y-14172746D01*
X8019706Y-14172746D02*
X8010182Y-14125127D01*
X8010182Y-14125127D02*
X8000658Y-14096555D01*
X8000658Y-14096555D02*
X7991134Y-14077508D01*
X7991134Y-14077508D02*
X7972087Y-14048936D01*
X7972087Y-14048936D02*
X7962563Y-14039412D01*
M02*
