%TF.GenerationSoftware,KiCad,Pcbnew,8.0.6-8.0.6-0~ubuntu24.04.1*%
%TF.CreationDate,2024-10-28T11:47:16+01:00*%
%TF.ProjectId,diplexer,6469706c-6578-4657-922e-6b696361645f,rev?*%
%TF.SameCoordinates,Original*%
%TF.FileFunction,Drillmap*%
%TF.FilePolarity,Positive*%
%FSLAX45Y45*%
G04 Gerber Fmt 4.5, Leading zero omitted, Abs format (unit mm)*
G04 Created by KiCad (PCBNEW 8.0.6-8.0.6-0~ubuntu24.04.1) date 2024-10-28 11:47:16*
%MOMM*%
%LPD*%
G01*
G04 APERTURE LIST*
%ADD10C,0.050000*%
%ADD11C,0.200000*%
G04 APERTURE END LIST*
D10*
X3200000Y-2880000D02*
X18900000Y-2880000D01*
X18900000Y-12980000D01*
X3200000Y-12980000D01*
X3200000Y-2880000D01*
D11*
X3458277Y-13293984D02*
X3458277Y-13093984D01*
X3458277Y-13093984D02*
X3505896Y-13093984D01*
X3505896Y-13093984D02*
X3534467Y-13103508D01*
X3534467Y-13103508D02*
X3553515Y-13122555D01*
X3553515Y-13122555D02*
X3563039Y-13141603D01*
X3563039Y-13141603D02*
X3572562Y-13179698D01*
X3572562Y-13179698D02*
X3572562Y-13208269D01*
X3572562Y-13208269D02*
X3563039Y-13246365D01*
X3563039Y-13246365D02*
X3553515Y-13265412D01*
X3553515Y-13265412D02*
X3534467Y-13284460D01*
X3534467Y-13284460D02*
X3505896Y-13293984D01*
X3505896Y-13293984D02*
X3458277Y-13293984D01*
X3658277Y-13293984D02*
X3658277Y-13160650D01*
X3658277Y-13198746D02*
X3667801Y-13179698D01*
X3667801Y-13179698D02*
X3677324Y-13170174D01*
X3677324Y-13170174D02*
X3696372Y-13160650D01*
X3696372Y-13160650D02*
X3715420Y-13160650D01*
X3782086Y-13293984D02*
X3782086Y-13160650D01*
X3782086Y-13093984D02*
X3772562Y-13103508D01*
X3772562Y-13103508D02*
X3782086Y-13113031D01*
X3782086Y-13113031D02*
X3791610Y-13103508D01*
X3791610Y-13103508D02*
X3782086Y-13093984D01*
X3782086Y-13093984D02*
X3782086Y-13113031D01*
X3905896Y-13293984D02*
X3886848Y-13284460D01*
X3886848Y-13284460D02*
X3877324Y-13265412D01*
X3877324Y-13265412D02*
X3877324Y-13093984D01*
X4010658Y-13293984D02*
X3991610Y-13284460D01*
X3991610Y-13284460D02*
X3982086Y-13265412D01*
X3982086Y-13265412D02*
X3982086Y-13093984D01*
X4239229Y-13293984D02*
X4239229Y-13093984D01*
X4239229Y-13093984D02*
X4305896Y-13236841D01*
X4305896Y-13236841D02*
X4372563Y-13093984D01*
X4372563Y-13093984D02*
X4372563Y-13293984D01*
X4553515Y-13293984D02*
X4553515Y-13189222D01*
X4553515Y-13189222D02*
X4543991Y-13170174D01*
X4543991Y-13170174D02*
X4524944Y-13160650D01*
X4524944Y-13160650D02*
X4486848Y-13160650D01*
X4486848Y-13160650D02*
X4467801Y-13170174D01*
X4553515Y-13284460D02*
X4534467Y-13293984D01*
X4534467Y-13293984D02*
X4486848Y-13293984D01*
X4486848Y-13293984D02*
X4467801Y-13284460D01*
X4467801Y-13284460D02*
X4458277Y-13265412D01*
X4458277Y-13265412D02*
X4458277Y-13246365D01*
X4458277Y-13246365D02*
X4467801Y-13227317D01*
X4467801Y-13227317D02*
X4486848Y-13217793D01*
X4486848Y-13217793D02*
X4534467Y-13217793D01*
X4534467Y-13217793D02*
X4553515Y-13208269D01*
X4648753Y-13160650D02*
X4648753Y-13360650D01*
X4648753Y-13170174D02*
X4667801Y-13160650D01*
X4667801Y-13160650D02*
X4705896Y-13160650D01*
X4705896Y-13160650D02*
X4724944Y-13170174D01*
X4724944Y-13170174D02*
X4734467Y-13179698D01*
X4734467Y-13179698D02*
X4743991Y-13198746D01*
X4743991Y-13198746D02*
X4743991Y-13255888D01*
X4743991Y-13255888D02*
X4734467Y-13274936D01*
X4734467Y-13274936D02*
X4724944Y-13284460D01*
X4724944Y-13284460D02*
X4705896Y-13293984D01*
X4705896Y-13293984D02*
X4667801Y-13293984D01*
X4667801Y-13293984D02*
X4648753Y-13284460D01*
X4829705Y-13274936D02*
X4839229Y-13284460D01*
X4839229Y-13284460D02*
X4829705Y-13293984D01*
X4829705Y-13293984D02*
X4820182Y-13284460D01*
X4820182Y-13284460D02*
X4829705Y-13274936D01*
X4829705Y-13274936D02*
X4829705Y-13293984D01*
X4829705Y-13170174D02*
X4839229Y-13179698D01*
X4839229Y-13179698D02*
X4829705Y-13189222D01*
X4829705Y-13189222D02*
X4820182Y-13179698D01*
X4820182Y-13179698D02*
X4829705Y-13170174D01*
X4829705Y-13170174D02*
X4829705Y-13189222D01*
M02*
