M48
; DRILL file {KiCad 8.0.5-8.0.5-0~ubuntu24.04.1} date 2024-10-12T11:41:19+0200
; FORMAT={-:-/ absolute / inch / decimal}
; #@! TF.CreationDate,2024-10-12T11:41:19+02:00
; #@! TF.GenerationSoftware,Kicad,Pcbnew,8.0.5-8.0.5-0~ubuntu24.04.1
; #@! TF.FileFunction,Plated,1,2,PTH
FMAT,2
INCH
; #@! TA.AperFunction,Plated,PTH,ComponentDrill
T1C0.0630
; #@! TA.AperFunction,Plated,PTH,ComponentDrill
T2C0.1260
%
G90
G05
T1
X1.6693Y-3.2677
X2.2441Y-3.2677
X2.3622Y-1.5354
X2.3622Y-2.1102
X3.0252Y-1.7102
X3.0315Y-3.1496
X3.0315Y-3.7244
X3.5827Y-3.3071
X3.6Y-1.7102
X4.1575Y-3.3071
X4.3307Y-1.5354
X4.3307Y-2.1102
X4.7575Y-1.7102
X5.0Y-3.1323
X5.0Y-3.7071
X5.3323Y-1.7102
X5.4882Y-3.2677
X5.9449Y-1.4961
X5.9449Y-2.0709
X6.063Y-3.2677
T2
X1.4173Y-1.2992
X1.4173Y-3.8189
X1.9685Y-2.5591
X3.7795Y-2.5591
X5.2756Y-2.5591
X7.2835Y-1.2992
X7.2835Y-2.5591
X7.2835Y-3.8189
M30
