M48
; DRILL file {KiCad 8.0.6-8.0.6-0~ubuntu24.04.1} date 2024-10-18T14:07:29+0200
; FORMAT={-:-/ absolute / inch / decimal}
; #@! TF.CreationDate,2024-10-18T14:07:29+02:00
; #@! TF.GenerationSoftware,Kicad,Pcbnew,8.0.6-8.0.6-0~ubuntu24.04.1
; #@! TF.FileFunction,Plated,1,2,PTH
FMAT,2
INCH
; #@! TA.AperFunction,Plated,PTH,ComponentDrill
T1C0.0630
; #@! TA.AperFunction,Plated,PTH,ComponentDrill
T2C0.1260
%
G90
G05
T1
X1.7908Y-3.8583
X2.3656Y-3.8583
X2.3819Y-2.1063
X2.3819Y-2.6811
X3.0449Y-2.2811
X3.0512Y-3.6024
X3.0512Y-4.1772
X3.6197Y-2.2811
X3.7397Y-3.7598
X4.3145Y-3.7598
X4.3504Y-2.1063
X4.3504Y-2.6811
X4.9995Y-2.2811
X5.0394Y-3.5595
X5.0394Y-4.1344
X5.5743Y-2.2811
X5.7082Y-3.7205
X6.2402Y-2.0635
X6.2402Y-2.6383
X6.283Y-3.7205
T2
X1.437Y-1.8701
X1.437Y-4.3898
X1.9882Y-3.1299
X3.7992Y-3.1299
X5.2953Y-3.1299
X7.3031Y-1.8701
X7.3031Y-3.1299
X7.3031Y-4.3898
M30
