%TF.GenerationSoftware,KiCad,Pcbnew,8.0.5-8.0.5-0~ubuntu24.04.1*%
%TF.CreationDate,2024-10-12T14:50:42+02:00*%
%TF.ProjectId,diplexer,6469706c-6578-4657-922e-6b696361645f,rev?*%
%TF.SameCoordinates,Original*%
%TF.FileFunction,Copper,L1,Top*%
%TF.FilePolarity,Positive*%
%FSLAX46Y46*%
G04 Gerber Fmt 4.6, Leading zero omitted, Abs format (unit mm)*
G04 Created by KiCad (PCBNEW 8.0.5-8.0.5-0~ubuntu24.04.1) date 2024-10-12 14:50:42*
%MOMM*%
%LPD*%
G01*
G04 APERTURE LIST*
%TA.AperFunction,ComponentPad*%
%ADD10C,3.000000*%
%TD*%
%TA.AperFunction,SMDPad,CuDef*%
%ADD11R,6.375000X0.980000*%
%TD*%
%TA.AperFunction,SMDPad,CuDef*%
%ADD12R,0.980000X6.375000*%
%TD*%
%TA.AperFunction,ComponentPad*%
%ADD13C,5.600000*%
%TD*%
%TA.AperFunction,SMDPad,CuDef*%
%ADD14R,4.000000X4.000000*%
%TD*%
%TA.AperFunction,SMDPad,CuDef*%
%ADD15R,5.000000X5.000000*%
%TD*%
%TA.AperFunction,Conductor*%
%ADD16C,2.390000*%
%TD*%
%TA.AperFunction,Conductor*%
%ADD17C,2.300000*%
%TD*%
%TA.AperFunction,Conductor*%
%ADD18C,0.979800*%
%TD*%
%TA.AperFunction,Conductor*%
%ADD19C,2.700000*%
%TD*%
G04 APERTURE END LIST*
D10*
%TO.P,L10,1,1*%
%TO.N,Net-(J1-In)*%
X42400000Y-80000000D03*
%TO.P,L10,2,2*%
%TO.N,Net-(C6-Pad2)*%
X57000000Y-80000000D03*
%TD*%
D11*
%TO.P,C6,1*%
%TO.N,GND*%
X64987500Y-87780000D03*
%TO.P,C6,2*%
%TO.N,Net-(C6-Pad2)*%
X65012500Y-82000000D03*
%TD*%
D12*
%TO.P,C4,1*%
%TO.N,Net-(C3-Pad2)*%
X117110000Y-53427500D03*
%TO.P,C4,2*%
%TO.N,Net-(C4-Pad2)*%
X122890000Y-53452500D03*
%TD*%
D13*
%TO.P,J5,1,Pin_1*%
%TO.N,GND*%
X36000000Y-33000000D03*
%TD*%
D10*
%TO.P,L2,1,1*%
%TO.N,Net-(C2-Pad2)*%
X76840000Y-43440000D03*
%TO.P,L2,2,2*%
%TO.N,GND*%
X91440000Y-43440000D03*
%TD*%
D14*
%TO.P,J3,1,In*%
%TO.N,Net-(J3-In)*%
X176000000Y-80350000D03*
%TO.P,J3,2,Ext*%
%TO.N,GND*%
X185000000Y-74000000D03*
%TO.P,J3,3*%
X185000000Y-86700000D03*
%TD*%
D10*
%TO.P,L4,1,1*%
%TO.N,Net-(C4-Pad2)*%
X126487500Y-43440000D03*
%TO.P,L4,2,2*%
%TO.N,GND*%
X141087500Y-43440000D03*
%TD*%
D14*
%TO.P,J2,1,In*%
%TO.N,Net-(J2-In)*%
X176000000Y-51000000D03*
%TO.P,J2,2,Ext*%
%TO.N,GND*%
X185000000Y-44650000D03*
%TO.P,J2,3*%
X185000000Y-57350000D03*
%TD*%
D10*
%TO.P,L6,1,1*%
%TO.N,Net-(C9-Pad2)*%
X144487500Y-80000000D03*
%TO.P,L6,2,2*%
%TO.N,Net-(J3-In)*%
X159087500Y-80000000D03*
%TD*%
D13*
%TO.P,J7,1,Pin_1*%
%TO.N,GND*%
X185000000Y-33000000D03*
%TD*%
D10*
%TO.P,L7,1,1*%
%TO.N,Net-(C8-Pad2)*%
X126000000Y-90512500D03*
%TO.P,L7,2,2*%
%TO.N,Net-(C9-Pad2)*%
X126000000Y-75912500D03*
%TD*%
D12*
%TO.P,C1,1*%
%TO.N,Net-(J1-In)*%
X48110000Y-53427500D03*
%TO.P,C1,2*%
%TO.N,Net-(C1-Pad2)*%
X53890000Y-53452500D03*
%TD*%
D11*
%TO.P,C7,1*%
%TO.N,GND*%
X85975000Y-87780000D03*
%TO.P,C7,2*%
%TO.N,Net-(C7-Pad2)*%
X86000000Y-82000000D03*
%TD*%
D10*
%TO.P,L9,1,1*%
%TO.N,Net-(C6-Pad2)*%
X77000000Y-91600000D03*
%TO.P,L9,2,2*%
%TO.N,Net-(C7-Pad2)*%
X77000000Y-77000000D03*
%TD*%
D13*
%TO.P,J11,1,Pin_1*%
%TO.N,GND*%
X185000000Y-65000000D03*
%TD*%
%TO.P,J10,1,Pin_1*%
%TO.N,GND*%
X134000000Y-65000000D03*
%TD*%
%TO.P,J8,1,Pin_1*%
%TO.N,GND*%
X50000000Y-65000000D03*
%TD*%
D10*
%TO.P,L8,1,1*%
%TO.N,Net-(C7-Pad2)*%
X94487500Y-81000000D03*
%TO.P,L8,2,2*%
%TO.N,Net-(C8-Pad2)*%
X109087500Y-81000000D03*
%TD*%
%TO.P,L1,1,1*%
%TO.N,Net-(C1-Pad2)*%
X60000000Y-53600000D03*
%TO.P,L1,2,2*%
%TO.N,GND*%
X60000000Y-39000000D03*
%TD*%
D15*
%TO.P,J1,1,In*%
%TO.N,Net-(J1-In)*%
X37000000Y-52110000D03*
%TO.P,J1,2,Ext*%
%TO.N,GND*%
X37000000Y-43000000D03*
%TO.P,J1,3*%
X37000000Y-61210000D03*
%TD*%
D12*
%TO.P,C5,1*%
%TO.N,Net-(C4-Pad2)*%
X145220000Y-53427500D03*
%TO.P,C5,2*%
%TO.N,Net-(J2-In)*%
X151000000Y-53452500D03*
%TD*%
D11*
%TO.P,C10,1*%
%TO.N,GND*%
X166975000Y-86780000D03*
%TO.P,C10,2*%
%TO.N,Net-(J3-In)*%
X167000000Y-81000000D03*
%TD*%
D13*
%TO.P,J6,1,Pin_1*%
%TO.N,GND*%
X185000000Y-97000000D03*
%TD*%
D12*
%TO.P,C2,1*%
%TO.N,Net-(C1-Pad2)*%
X67110000Y-53427500D03*
%TO.P,C2,2*%
%TO.N,Net-(C2-Pad2)*%
X72890000Y-53452500D03*
%TD*%
D11*
%TO.P,C8,1*%
%TO.N,GND*%
X115987500Y-85780000D03*
%TO.P,C8,2*%
%TO.N,Net-(C8-Pad2)*%
X116012500Y-80000000D03*
%TD*%
%TO.P,C9,1*%
%TO.N,GND*%
X136975000Y-85780000D03*
%TO.P,C9,2*%
%TO.N,Net-(C9-Pad2)*%
X137000000Y-80000000D03*
%TD*%
D10*
%TO.P,L5,1,1*%
%TO.N,Net-(J2-In)*%
X158000000Y-52512500D03*
%TO.P,L5,2,2*%
%TO.N,GND*%
X158000000Y-37912500D03*
%TD*%
%TO.P,L3,1,1*%
%TO.N,Net-(C3-Pad2)*%
X110000000Y-53600000D03*
%TO.P,L3,2,2*%
%TO.N,GND*%
X110000000Y-39000000D03*
%TD*%
D12*
%TO.P,C3,1*%
%TO.N,Net-(C2-Pad2)*%
X96220000Y-53427500D03*
%TO.P,C3,2*%
%TO.N,Net-(C3-Pad2)*%
X102000000Y-53452500D03*
%TD*%
D13*
%TO.P,J4,1,Pin_1*%
%TO.N,GND*%
X36000000Y-97000000D03*
%TD*%
%TO.P,J9,1,Pin_1*%
%TO.N,GND*%
X96000000Y-65000000D03*
%TD*%
D16*
%TO.N,Net-(C1-Pad2)*%
X54037500Y-53600000D02*
X60000000Y-53600000D01*
X66537500Y-54000000D02*
X67110000Y-53427500D01*
X53890000Y-53452500D02*
X54037500Y-53600000D01*
X60000000Y-53600000D02*
X60400000Y-54000000D01*
X60400000Y-54000000D02*
X66537500Y-54000000D01*
%TO.N,Net-(J1-In)*%
X42996700Y-49863200D02*
X46116600Y-46743300D01*
X48110000Y-53427500D02*
X48110000Y-46743300D01*
X37000000Y-52110000D02*
X42996700Y-52110000D01*
D17*
X42995200Y-59878300D02*
X44168700Y-58704800D01*
D16*
X48110000Y-54763500D02*
X48110000Y-53427500D01*
X44168700Y-58704800D02*
X48110000Y-54763500D01*
D17*
X42995200Y-65442800D02*
X42995200Y-59878300D01*
D16*
X42996700Y-52110000D02*
X42996700Y-49863200D01*
X42400000Y-80000000D02*
X42995200Y-79404800D01*
X42995200Y-79404800D02*
X42995200Y-65442800D01*
X46116600Y-46743300D02*
X48110000Y-46743300D01*
D17*
%TO.N,Net-(C2-Pad2)*%
X72890000Y-48435200D02*
X76454800Y-52000000D01*
D18*
X94792500Y-52000000D02*
X96220000Y-53427500D01*
D19*
X72890000Y-47390000D02*
X76840000Y-43440000D01*
X72890000Y-53452500D02*
X72890000Y-47390000D01*
D17*
X76454800Y-52000000D02*
X94792500Y-52000000D01*
D16*
%TO.N,Net-(C3-Pad2)*%
X104024500Y-55024500D02*
X102452500Y-53452500D01*
X110024500Y-55000000D02*
X114427500Y-55000000D01*
X114427500Y-55000000D02*
X116000000Y-53427500D01*
X110000000Y-55024500D02*
X104024500Y-55024500D01*
X110000000Y-55024500D02*
X110024500Y-55000000D01*
X110000000Y-53600000D02*
X110000000Y-55024500D01*
%TO.N,Net-(C4-Pad2)*%
X124000000Y-53452500D02*
X124000000Y-47100100D01*
X124501400Y-46598700D02*
X124501400Y-45426100D01*
X124501400Y-45426100D02*
X126487500Y-43440000D01*
X124501400Y-46598700D02*
X126337900Y-48435200D01*
X124000000Y-47100100D02*
X124501400Y-46598700D01*
D17*
X140227700Y-48435200D02*
X145220000Y-53427500D01*
X126337900Y-48435200D02*
X140227700Y-48435200D01*
D16*
%TO.N,Net-(J2-In)*%
X158000000Y-52512500D02*
X158000000Y-51794400D01*
X158794400Y-51000000D02*
X158000000Y-51794400D01*
X176000000Y-51000000D02*
X158794400Y-51000000D01*
X158000000Y-51794400D02*
X152658100Y-51794400D01*
X152658100Y-51794400D02*
X151000000Y-53452500D01*
D17*
%TO.N,Net-(C6-Pad2)*%
X70991600Y-82781600D02*
X70991600Y-82000000D01*
D16*
X77000000Y-91600000D02*
X77000000Y-88790000D01*
D17*
X65012500Y-82000000D02*
X70991600Y-82000000D01*
D16*
X57000000Y-80000000D02*
X58328300Y-81328300D01*
X58328300Y-81328300D02*
X58328300Y-82000000D01*
D18*
X72004800Y-83794800D02*
X70991600Y-82781600D01*
D16*
X77000000Y-88790000D02*
X72004800Y-83794800D01*
X65012500Y-82000000D02*
X58328300Y-82000000D01*
%TO.N,Net-(C7-Pad2)*%
X94487500Y-81000000D02*
X93684200Y-81000000D01*
X93684200Y-81000000D02*
X92684200Y-82000000D01*
X77000000Y-77000000D02*
X81000000Y-77000000D01*
X81000000Y-77000000D02*
X86000000Y-82000000D01*
X86000000Y-82000000D02*
X92684200Y-82000000D01*
%TO.N,Net-(C8-Pad2)*%
X126000000Y-90512500D02*
X126000000Y-83303300D01*
X126000000Y-83303300D02*
X122696700Y-80000000D01*
X116012500Y-80000000D02*
X109328300Y-80000000D01*
X109087500Y-81000000D02*
X109328300Y-80759200D01*
X116012500Y-80000000D02*
X122696700Y-80000000D01*
X109328300Y-80759200D02*
X109328300Y-80000000D01*
%TO.N,Net-(C9-Pad2)*%
X126000000Y-75912500D02*
X132912500Y-75912500D01*
X132912500Y-75912500D02*
X137000000Y-80000000D01*
X144487500Y-80000000D02*
X137000000Y-80000000D01*
%TO.N,Net-(J3-In)*%
X166987500Y-80595000D02*
X160303300Y-80595000D01*
X159708300Y-80000000D02*
X160303300Y-80595000D01*
X176000000Y-80350000D02*
X174334200Y-80350000D01*
X174334200Y-80350000D02*
X173684200Y-81000000D01*
X159087500Y-80000000D02*
X159708300Y-80000000D01*
X166987500Y-80595000D02*
X173671700Y-80595000D01*
%TD*%
%TA.AperFunction,Conductor*%
%TO.N,GND*%
G36*
X188442539Y-29520185D02*
G01*
X188488294Y-29572989D01*
X188499500Y-29624500D01*
X188499500Y-100375500D01*
X188479815Y-100442539D01*
X188427011Y-100488294D01*
X188375500Y-100499500D01*
X32624500Y-100499500D01*
X32557461Y-100479815D01*
X32511706Y-100427011D01*
X32500500Y-100375500D01*
X32500500Y-57111070D01*
X32520185Y-57044031D01*
X32572989Y-56998276D01*
X32642147Y-56988332D01*
X32695619Y-57009493D01*
X32922138Y-57168104D01*
X33229785Y-57333985D01*
X33229789Y-57333986D01*
X33229796Y-57333990D01*
X33470793Y-57429731D01*
X33554609Y-57463029D01*
X33892218Y-57553491D01*
X34238046Y-57604148D01*
X34383533Y-57610500D01*
X39294281Y-57610499D01*
X39361320Y-57630184D01*
X39407075Y-57682988D01*
X39417019Y-57752146D01*
X39403639Y-57792952D01*
X39317017Y-57955012D01*
X39277842Y-58028302D01*
X39238668Y-58101591D01*
X39082609Y-58478350D01*
X38964227Y-58868604D01*
X38964224Y-58868615D01*
X38884675Y-59268542D01*
X38884672Y-59268557D01*
X38884672Y-59268560D01*
X38879492Y-59321150D01*
X38848665Y-59634148D01*
X38844700Y-59674402D01*
X38844700Y-64791138D01*
X38842317Y-64815329D01*
X38840106Y-64826444D01*
X38840103Y-64826461D01*
X38799700Y-65236691D01*
X38799700Y-77253827D01*
X38780015Y-77320866D01*
X38778000Y-77323904D01*
X38569510Y-77628261D01*
X38569506Y-77628268D01*
X38367020Y-77991801D01*
X38367010Y-77991822D01*
X38198929Y-78372485D01*
X38066679Y-78767066D01*
X37971405Y-79172146D01*
X37971403Y-79172154D01*
X37913913Y-79584292D01*
X37913912Y-79584297D01*
X37913912Y-79584303D01*
X37894693Y-80000000D01*
X37913912Y-80415697D01*
X37913912Y-80415702D01*
X37913913Y-80415707D01*
X37971403Y-80827845D01*
X37971405Y-80827853D01*
X38066679Y-81232933D01*
X38198929Y-81627514D01*
X38367010Y-82008177D01*
X38367020Y-82008198D01*
X38569506Y-82371731D01*
X38569509Y-82371735D01*
X38569511Y-82371739D01*
X38804687Y-82715054D01*
X38804689Y-82715056D01*
X38804696Y-82715066D01*
X39048111Y-83008198D01*
X39070538Y-83035206D01*
X39364794Y-83329462D01*
X39381132Y-83343029D01*
X39684933Y-83595303D01*
X39684939Y-83595307D01*
X39684946Y-83595313D01*
X40028261Y-83830489D01*
X40028267Y-83830492D01*
X40028268Y-83830493D01*
X40203079Y-83927862D01*
X40391812Y-84032985D01*
X40582153Y-84117029D01*
X40772485Y-84201070D01*
X40772488Y-84201071D01*
X40772495Y-84201074D01*
X41167064Y-84333320D01*
X41572152Y-84428596D01*
X41984303Y-84486088D01*
X42400000Y-84505307D01*
X42815697Y-84486088D01*
X43227848Y-84428596D01*
X43632936Y-84333320D01*
X44027505Y-84201074D01*
X44408188Y-84032985D01*
X44771739Y-83830489D01*
X45115054Y-83595313D01*
X45435206Y-83329462D01*
X45729462Y-83035206D01*
X45995313Y-82715054D01*
X46230489Y-82371739D01*
X46432985Y-82008188D01*
X46601074Y-81627505D01*
X46646875Y-81490854D01*
X46659484Y-81453232D01*
X46667694Y-81434191D01*
X46792461Y-81200771D01*
X46950212Y-80819926D01*
X47069874Y-80425453D01*
X47069876Y-80425443D01*
X47069879Y-80425432D01*
X47150295Y-80021149D01*
X47150295Y-80021146D01*
X47152378Y-80000002D01*
X47152378Y-80000000D01*
X52494693Y-80000000D01*
X52513912Y-80415697D01*
X52513912Y-80415702D01*
X52513913Y-80415707D01*
X52571403Y-80827845D01*
X52571405Y-80827853D01*
X52666679Y-81232933D01*
X52798929Y-81627514D01*
X52967010Y-82008177D01*
X52967020Y-82008198D01*
X53169506Y-82371731D01*
X53169509Y-82371735D01*
X53169511Y-82371739D01*
X53404687Y-82715054D01*
X53404689Y-82715056D01*
X53404696Y-82715066D01*
X53648111Y-83008198D01*
X53670538Y-83035206D01*
X53964794Y-83329462D01*
X53981132Y-83343029D01*
X54284933Y-83595303D01*
X54284942Y-83595310D01*
X54284946Y-83595313D01*
X54482099Y-83730365D01*
X54526281Y-83784490D01*
X54526582Y-83785212D01*
X54531033Y-83795958D01*
X54531043Y-83795979D01*
X54725353Y-84159507D01*
X54725364Y-84159525D01*
X54954382Y-84502276D01*
X55215894Y-84820929D01*
X55507370Y-85112405D01*
X55826023Y-85373917D01*
X55826029Y-85373921D01*
X56168781Y-85602940D01*
X56168790Y-85602945D01*
X56168792Y-85602946D01*
X56532321Y-85797257D01*
X56532323Y-85797257D01*
X56532329Y-85797261D01*
X56913174Y-85955012D01*
X57307647Y-86074674D01*
X57307653Y-86074675D01*
X57307656Y-86074676D01*
X57307667Y-86074679D01*
X57561182Y-86125105D01*
X57711950Y-86155095D01*
X58122188Y-86195500D01*
X58122191Y-86195500D01*
X65218609Y-86195500D01*
X65218612Y-86195500D01*
X65628850Y-86155095D01*
X65639971Y-86152883D01*
X65664162Y-86150500D01*
X68466665Y-86150500D01*
X68533704Y-86170185D01*
X68569765Y-86205607D01*
X68614646Y-86272776D01*
X68630876Y-86297067D01*
X68630883Y-86297076D01*
X68892394Y-86615728D01*
X72613471Y-90336804D01*
X72646956Y-90398127D01*
X72646496Y-90452874D01*
X72571406Y-90772141D01*
X72571403Y-90772154D01*
X72513913Y-91184292D01*
X72513912Y-91184297D01*
X72513912Y-91184303D01*
X72494693Y-91600000D01*
X72513912Y-92015697D01*
X72513912Y-92015702D01*
X72513913Y-92015707D01*
X72571403Y-92427845D01*
X72571405Y-92427853D01*
X72666679Y-92832933D01*
X72798929Y-93227514D01*
X72967010Y-93608177D01*
X72967020Y-93608198D01*
X73169506Y-93971731D01*
X73169509Y-93971735D01*
X73169511Y-93971739D01*
X73404687Y-94315054D01*
X73404689Y-94315056D01*
X73404696Y-94315066D01*
X73596038Y-94545489D01*
X73670538Y-94635206D01*
X73964794Y-94929462D01*
X73964805Y-94929471D01*
X74284933Y-95195303D01*
X74284939Y-95195307D01*
X74284946Y-95195313D01*
X74628261Y-95430489D01*
X74991812Y-95632985D01*
X75182153Y-95717029D01*
X75372485Y-95801070D01*
X75372488Y-95801071D01*
X75372495Y-95801074D01*
X75767064Y-95933320D01*
X76172152Y-96028596D01*
X76584303Y-96086088D01*
X77000000Y-96105307D01*
X77415697Y-96086088D01*
X77827848Y-96028596D01*
X78232936Y-95933320D01*
X78627505Y-95801074D01*
X79008188Y-95632985D01*
X79371739Y-95430489D01*
X79715054Y-95195313D01*
X80035206Y-94929462D01*
X80329462Y-94635206D01*
X80595313Y-94315054D01*
X80830489Y-93971739D01*
X81032985Y-93608188D01*
X81201074Y-93227505D01*
X81333320Y-92832936D01*
X81428596Y-92427848D01*
X81486088Y-92015697D01*
X81505307Y-91600000D01*
X81486088Y-91184303D01*
X81428596Y-90772152D01*
X81333320Y-90367064D01*
X81201928Y-89975042D01*
X81195500Y-89935636D01*
X81195500Y-88999222D01*
X81195501Y-88999202D01*
X81195501Y-88583892D01*
X81155097Y-88173661D01*
X81155096Y-88173660D01*
X81155096Y-88173651D01*
X81080263Y-87797446D01*
X81074674Y-87769347D01*
X81038375Y-87649686D01*
X80955013Y-87374875D01*
X80834995Y-87085128D01*
X80797261Y-86994029D01*
X80666077Y-86748601D01*
X80602941Y-86630481D01*
X80459435Y-86415710D01*
X80373921Y-86287729D01*
X80373917Y-86287723D01*
X80112405Y-85969070D01*
X79818960Y-85675625D01*
X79818913Y-85675580D01*
X75695510Y-81552177D01*
X75662025Y-81490854D01*
X75667009Y-81421162D01*
X75708881Y-81365229D01*
X75774345Y-81340812D01*
X75811578Y-81343789D01*
X76172152Y-81428596D01*
X76584303Y-81486088D01*
X77000000Y-81505307D01*
X77415697Y-81486088D01*
X77827848Y-81428596D01*
X78232936Y-81333320D01*
X78535774Y-81231819D01*
X78624958Y-81201928D01*
X78664364Y-81195500D01*
X79210805Y-81195500D01*
X79277844Y-81215185D01*
X79298486Y-81231819D01*
X79775681Y-81709014D01*
X79809166Y-81770337D01*
X79812000Y-81796695D01*
X79812000Y-82606465D01*
X79815514Y-82686950D01*
X79818352Y-82751954D01*
X79848502Y-82957782D01*
X79869009Y-83097784D01*
X79959469Y-83435386D01*
X79959473Y-83435397D01*
X80088509Y-83760203D01*
X80088514Y-83760213D01*
X80235590Y-84032985D01*
X80254396Y-84067862D01*
X80440273Y-84333320D01*
X80454878Y-84354178D01*
X80687227Y-84615268D01*
X80687231Y-84615272D01*
X80948321Y-84847621D01*
X80948326Y-84847624D01*
X80948330Y-84847628D01*
X81234638Y-85048104D01*
X81542285Y-85213985D01*
X81542289Y-85213986D01*
X81542296Y-85213990D01*
X81742414Y-85293491D01*
X81867109Y-85343029D01*
X82204718Y-85433491D01*
X82550546Y-85484148D01*
X82696033Y-85490500D01*
X83634587Y-85490499D01*
X83701626Y-85510183D01*
X83703473Y-85511393D01*
X83840481Y-85602940D01*
X83840490Y-85602945D01*
X83840492Y-85602946D01*
X84204021Y-85797257D01*
X84204023Y-85797257D01*
X84204029Y-85797261D01*
X84584874Y-85955012D01*
X84979347Y-86074674D01*
X84979353Y-86074675D01*
X84979356Y-86074676D01*
X84979367Y-86074679D01*
X85204628Y-86119485D01*
X85383650Y-86155095D01*
X85420427Y-86158716D01*
X85420432Y-86158718D01*
X85420433Y-86158717D01*
X85793888Y-86195501D01*
X85793892Y-86195501D01*
X86209182Y-86195501D01*
X86209222Y-86195500D01*
X92474978Y-86195500D01*
X92475018Y-86195501D01*
X92478088Y-86195501D01*
X92890309Y-86195501D01*
X92890312Y-86195501D01*
X93300550Y-86155095D01*
X93500670Y-86115288D01*
X93704832Y-86074679D01*
X93704843Y-86074676D01*
X93704843Y-86074675D01*
X93704853Y-86074674D01*
X94099326Y-85955012D01*
X94480171Y-85797261D01*
X94843719Y-85602940D01*
X95025427Y-85481525D01*
X95077185Y-85461817D01*
X95315348Y-85428596D01*
X95720436Y-85333320D01*
X96115005Y-85201074D01*
X96495688Y-85032985D01*
X96859239Y-84830489D01*
X97202554Y-84595313D01*
X97522706Y-84329462D01*
X97816962Y-84035206D01*
X98082813Y-83715054D01*
X98317989Y-83371739D01*
X98520485Y-83008188D01*
X98688574Y-82627505D01*
X98820820Y-82232936D01*
X98916096Y-81827848D01*
X98973588Y-81415697D01*
X98992807Y-81000000D01*
X104582193Y-81000000D01*
X104601412Y-81415697D01*
X104601412Y-81415702D01*
X104601413Y-81415707D01*
X104658903Y-81827845D01*
X104658905Y-81827853D01*
X104754179Y-82232933D01*
X104886426Y-82627505D01*
X104886428Y-82627512D01*
X105054510Y-83008177D01*
X105054520Y-83008198D01*
X105257006Y-83371731D01*
X105257009Y-83371735D01*
X105257011Y-83371739D01*
X105492187Y-83715054D01*
X105492189Y-83715056D01*
X105492196Y-83715066D01*
X105756189Y-84032979D01*
X105758038Y-84035206D01*
X106052294Y-84329462D01*
X106052305Y-84329471D01*
X106372433Y-84595303D01*
X106372439Y-84595307D01*
X106372446Y-84595313D01*
X106715761Y-84830489D01*
X107079312Y-85032985D01*
X107244502Y-85105924D01*
X107459985Y-85201070D01*
X107459988Y-85201071D01*
X107459995Y-85201074D01*
X107854564Y-85333320D01*
X108259652Y-85428596D01*
X108671803Y-85486088D01*
X109087500Y-85505307D01*
X109503197Y-85486088D01*
X109915348Y-85428596D01*
X110320436Y-85333320D01*
X110715005Y-85201074D01*
X111095688Y-85032985D01*
X111459239Y-84830489D01*
X111802554Y-84595313D01*
X112122706Y-84329462D01*
X112220349Y-84231819D01*
X112281672Y-84198334D01*
X112308030Y-84195500D01*
X115806388Y-84195500D01*
X120907505Y-84195500D01*
X120974544Y-84215185D01*
X120995186Y-84231819D01*
X121768181Y-85004814D01*
X121801666Y-85066137D01*
X121804500Y-85092495D01*
X121804500Y-88848136D01*
X121798072Y-88887542D01*
X121666679Y-89279566D01*
X121571405Y-89684646D01*
X121571403Y-89684654D01*
X121513913Y-90096792D01*
X121513912Y-90096797D01*
X121513912Y-90096803D01*
X121494693Y-90512500D01*
X121513912Y-90928197D01*
X121513912Y-90928202D01*
X121513913Y-90928207D01*
X121571403Y-91340345D01*
X121571405Y-91340353D01*
X121666679Y-91745433D01*
X121798929Y-92140014D01*
X121967010Y-92520677D01*
X121967020Y-92520698D01*
X122169506Y-92884231D01*
X122169509Y-92884235D01*
X122169511Y-92884239D01*
X122404687Y-93227554D01*
X122404689Y-93227556D01*
X122404696Y-93227566D01*
X122670528Y-93547694D01*
X122670538Y-93547706D01*
X122964794Y-93841962D01*
X122964805Y-93841971D01*
X123284933Y-94107803D01*
X123284939Y-94107807D01*
X123284946Y-94107813D01*
X123628261Y-94342989D01*
X123991812Y-94545485D01*
X124182153Y-94629529D01*
X124372485Y-94713570D01*
X124372488Y-94713571D01*
X124372495Y-94713574D01*
X124767064Y-94845820D01*
X125172152Y-94941096D01*
X125584303Y-94998588D01*
X126000000Y-95017807D01*
X126415697Y-94998588D01*
X126827848Y-94941096D01*
X127232936Y-94845820D01*
X127627505Y-94713574D01*
X128008188Y-94545485D01*
X128371739Y-94342989D01*
X128715054Y-94107813D01*
X129035206Y-93841962D01*
X129329462Y-93547706D01*
X129595313Y-93227554D01*
X129830489Y-92884239D01*
X130032985Y-92520688D01*
X130201074Y-92140005D01*
X130333320Y-91745436D01*
X130428596Y-91340348D01*
X130486088Y-90928197D01*
X130505307Y-90512500D01*
X130486088Y-90096803D01*
X130428596Y-89684652D01*
X130333320Y-89279564D01*
X130201928Y-88887542D01*
X130195500Y-88848136D01*
X130195500Y-83512522D01*
X130195501Y-83512502D01*
X130195501Y-83097193D01*
X130195501Y-83097189D01*
X130155095Y-82686951D01*
X130143270Y-82627505D01*
X130140837Y-82615272D01*
X130074678Y-82282665D01*
X130074676Y-82282658D01*
X130074674Y-82282647D01*
X130057406Y-82225723D01*
X129955013Y-81888175D01*
X129842419Y-81616350D01*
X129797261Y-81507329D01*
X129785907Y-81486088D01*
X129682448Y-81292529D01*
X129602947Y-81143792D01*
X129602946Y-81143790D01*
X129602941Y-81143781D01*
X129393605Y-80830489D01*
X129386547Y-80819926D01*
X129373927Y-80801037D01*
X129373917Y-80801024D01*
X129112405Y-80482370D01*
X128949716Y-80319681D01*
X128916231Y-80258358D01*
X128921215Y-80188666D01*
X128963087Y-80132733D01*
X129028551Y-80108316D01*
X129037397Y-80108000D01*
X130688001Y-80108000D01*
X130755040Y-80127685D01*
X130800795Y-80180489D01*
X130812001Y-80232000D01*
X130812001Y-80606466D01*
X130818352Y-80751954D01*
X130829856Y-80830489D01*
X130869009Y-81097784D01*
X130959469Y-81435386D01*
X130959473Y-81435397D01*
X131088509Y-81760203D01*
X131088514Y-81760213D01*
X131088515Y-81760215D01*
X131254396Y-82067862D01*
X131454872Y-82354170D01*
X131454878Y-82354178D01*
X131687227Y-82615268D01*
X131687231Y-82615272D01*
X131948321Y-82847621D01*
X131948326Y-82847624D01*
X131948330Y-82847628D01*
X132234638Y-83048104D01*
X132542285Y-83213985D01*
X132542289Y-83213986D01*
X132542296Y-83213990D01*
X132747212Y-83295397D01*
X132867109Y-83343029D01*
X133204718Y-83433491D01*
X133550546Y-83484148D01*
X133696033Y-83490500D01*
X134634587Y-83490499D01*
X134701626Y-83510183D01*
X134703473Y-83511393D01*
X134840481Y-83602940D01*
X134840490Y-83602945D01*
X134840492Y-83602946D01*
X135204021Y-83797257D01*
X135204023Y-83797257D01*
X135204029Y-83797261D01*
X135584874Y-83955012D01*
X135979347Y-84074674D01*
X135979353Y-84074675D01*
X135979356Y-84074676D01*
X135979367Y-84074679D01*
X136232882Y-84125105D01*
X136383650Y-84155095D01*
X136793888Y-84195501D01*
X136793891Y-84195501D01*
X137209182Y-84195501D01*
X137209222Y-84195500D01*
X142823136Y-84195500D01*
X142862542Y-84201928D01*
X142992634Y-84245530D01*
X143254564Y-84333320D01*
X143659652Y-84428596D01*
X144071803Y-84486088D01*
X144487500Y-84505307D01*
X144903197Y-84486088D01*
X145315348Y-84428596D01*
X145720436Y-84333320D01*
X146115005Y-84201074D01*
X146495688Y-84032985D01*
X146859239Y-83830489D01*
X147202554Y-83595313D01*
X147522706Y-83329462D01*
X147816962Y-83035206D01*
X148082813Y-82715054D01*
X148317989Y-82371739D01*
X148520485Y-82008188D01*
X148688574Y-81627505D01*
X148820820Y-81232936D01*
X148916096Y-80827848D01*
X148973588Y-80415697D01*
X148992807Y-80000000D01*
X154582193Y-80000000D01*
X154601412Y-80415697D01*
X154601412Y-80415702D01*
X154601413Y-80415707D01*
X154658903Y-80827845D01*
X154658905Y-80827853D01*
X154754179Y-81232933D01*
X154886429Y-81627514D01*
X155054510Y-82008177D01*
X155054520Y-82008198D01*
X155257006Y-82371731D01*
X155257009Y-82371735D01*
X155257011Y-82371739D01*
X155492187Y-82715054D01*
X155492189Y-82715056D01*
X155492196Y-82715066D01*
X155735611Y-83008198D01*
X155758038Y-83035206D01*
X156052294Y-83329462D01*
X156068632Y-83343029D01*
X156372433Y-83595303D01*
X156372439Y-83595307D01*
X156372446Y-83595313D01*
X156715761Y-83830489D01*
X156715767Y-83830492D01*
X156715768Y-83830493D01*
X156890579Y-83927862D01*
X157079312Y-84032985D01*
X157269653Y-84117029D01*
X157459985Y-84201070D01*
X157459988Y-84201071D01*
X157459995Y-84201074D01*
X157854564Y-84333320D01*
X158259652Y-84428596D01*
X158671803Y-84486088D01*
X158719968Y-84488314D01*
X158761686Y-84497618D01*
X158888174Y-84550012D01*
X159282647Y-84669674D01*
X159282653Y-84669675D01*
X159282656Y-84669676D01*
X159282667Y-84669679D01*
X159536182Y-84720105D01*
X159686950Y-84750095D01*
X160097188Y-84790501D01*
X160097191Y-84790501D01*
X160512482Y-84790501D01*
X160512522Y-84790500D01*
X166781388Y-84790500D01*
X171847242Y-84790500D01*
X171894693Y-84799938D01*
X172269074Y-84955012D01*
X172663547Y-85074674D01*
X172788601Y-85099548D01*
X172810180Y-85105923D01*
X173054609Y-85203029D01*
X173392218Y-85293491D01*
X173738046Y-85344148D01*
X173883533Y-85350500D01*
X178116466Y-85350499D01*
X178261954Y-85344148D01*
X178607782Y-85293491D01*
X178945391Y-85203029D01*
X179200321Y-85101752D01*
X179270203Y-85073990D01*
X179270205Y-85073988D01*
X179270215Y-85073985D01*
X179577862Y-84908104D01*
X179864170Y-84707628D01*
X179967950Y-84615272D01*
X180125268Y-84475272D01*
X180125272Y-84475268D01*
X180357621Y-84214178D01*
X180357621Y-84214177D01*
X180357628Y-84214170D01*
X180558104Y-83927862D01*
X180723985Y-83620215D01*
X180853029Y-83295391D01*
X180943491Y-82957782D01*
X180994148Y-82611954D01*
X181000500Y-82466467D01*
X181000499Y-78233534D01*
X180994148Y-78088046D01*
X180943491Y-77742218D01*
X180853029Y-77404609D01*
X180772833Y-77202742D01*
X180723990Y-77079796D01*
X180723985Y-77079786D01*
X180723985Y-77079785D01*
X180558104Y-76772138D01*
X180357628Y-76485830D01*
X180357624Y-76485826D01*
X180357621Y-76485821D01*
X180125272Y-76224731D01*
X180125268Y-76224727D01*
X179864178Y-75992378D01*
X179864172Y-75992373D01*
X179864170Y-75992372D01*
X179577862Y-75791896D01*
X179564729Y-75784815D01*
X179270213Y-75626014D01*
X179270203Y-75626009D01*
X178945397Y-75496973D01*
X178945386Y-75496969D01*
X178607784Y-75406509D01*
X178492506Y-75389623D01*
X178261954Y-75355852D01*
X178116467Y-75349500D01*
X178116466Y-75349500D01*
X173883534Y-75349500D01*
X173749729Y-75355341D01*
X173738046Y-75355852D01*
X173624495Y-75372485D01*
X173392215Y-75406509D01*
X173054613Y-75496969D01*
X173054602Y-75496973D01*
X172729796Y-75626009D01*
X172729786Y-75626014D01*
X172422146Y-75791891D01*
X172422141Y-75791893D01*
X172422138Y-75791896D01*
X172231590Y-75925320D01*
X172135821Y-75992378D01*
X171874734Y-76224725D01*
X171874730Y-76224730D01*
X171756188Y-76357934D01*
X171696918Y-76394928D01*
X171663558Y-76399500D01*
X161903445Y-76399500D01*
X161844992Y-76384858D01*
X161526097Y-76214405D01*
X161514474Y-76207347D01*
X161459248Y-76169517D01*
X161459231Y-76169506D01*
X161095698Y-75967020D01*
X161095677Y-75967010D01*
X160715014Y-75798929D01*
X160320433Y-75666679D01*
X159915353Y-75571405D01*
X159915345Y-75571403D01*
X159503207Y-75513913D01*
X159503202Y-75513912D01*
X159503197Y-75513912D01*
X159087500Y-75494693D01*
X158671803Y-75513912D01*
X158671797Y-75513912D01*
X158671792Y-75513913D01*
X158259654Y-75571403D01*
X158259646Y-75571405D01*
X157854566Y-75666679D01*
X157459985Y-75798929D01*
X157079322Y-75967010D01*
X157079301Y-75967020D01*
X156715768Y-76169506D01*
X156715762Y-76169510D01*
X156372443Y-76404689D01*
X156372433Y-76404696D01*
X156052305Y-76670528D01*
X156052285Y-76670546D01*
X155758046Y-76964785D01*
X155758028Y-76964805D01*
X155492196Y-77284933D01*
X155492189Y-77284943D01*
X155257010Y-77628262D01*
X155257006Y-77628268D01*
X155054520Y-77991801D01*
X155054510Y-77991822D01*
X154886429Y-78372485D01*
X154754179Y-78767066D01*
X154658905Y-79172146D01*
X154658903Y-79172154D01*
X154601413Y-79584292D01*
X154601412Y-79584297D01*
X154601412Y-79584303D01*
X154582193Y-80000000D01*
X148992807Y-80000000D01*
X148973588Y-79584303D01*
X148916096Y-79172152D01*
X148820820Y-78767064D01*
X148688574Y-78372495D01*
X148649911Y-78284933D01*
X148563313Y-78088808D01*
X148520485Y-77991812D01*
X148438657Y-77844903D01*
X148317993Y-77628268D01*
X148317992Y-77628267D01*
X148317989Y-77628261D01*
X148082813Y-77284946D01*
X148082807Y-77284939D01*
X148082803Y-77284933D01*
X147816971Y-76964805D01*
X147816962Y-76964794D01*
X147522706Y-76670538D01*
X147469166Y-76626079D01*
X147202566Y-76404696D01*
X147202556Y-76404689D01*
X147202554Y-76404687D01*
X146859239Y-76169511D01*
X146859235Y-76169509D01*
X146859231Y-76169506D01*
X146495698Y-75967020D01*
X146495677Y-75967010D01*
X146115014Y-75798929D01*
X145720433Y-75666679D01*
X145315353Y-75571405D01*
X145315345Y-75571403D01*
X144903207Y-75513913D01*
X144903202Y-75513912D01*
X144903197Y-75513912D01*
X144487500Y-75494693D01*
X144071803Y-75513912D01*
X144071797Y-75513912D01*
X144071792Y-75513913D01*
X143659654Y-75571403D01*
X143659646Y-75571405D01*
X143254566Y-75666679D01*
X142862542Y-75798072D01*
X142823136Y-75804500D01*
X138789195Y-75804500D01*
X138722156Y-75784815D01*
X138701514Y-75768181D01*
X136027354Y-73094021D01*
X136027318Y-73093983D01*
X135733429Y-72800094D01*
X135414776Y-72538582D01*
X135072025Y-72309564D01*
X135072024Y-72309563D01*
X135072019Y-72309560D01*
X135072014Y-72309557D01*
X135072007Y-72309553D01*
X134708478Y-72115242D01*
X134708473Y-72115240D01*
X134327627Y-71957488D01*
X133933143Y-71837823D01*
X133933132Y-71837820D01*
X133528856Y-71757406D01*
X133528839Y-71757403D01*
X133218617Y-71726848D01*
X133118612Y-71716999D01*
X132706388Y-71716999D01*
X132703318Y-71716999D01*
X132703278Y-71717000D01*
X127664364Y-71717000D01*
X127624958Y-71710572D01*
X127232933Y-71579179D01*
X126827853Y-71483905D01*
X126827845Y-71483903D01*
X126415707Y-71426413D01*
X126415702Y-71426412D01*
X126415697Y-71426412D01*
X126000000Y-71407193D01*
X125584303Y-71426412D01*
X125584297Y-71426412D01*
X125584292Y-71426413D01*
X125172154Y-71483903D01*
X125172146Y-71483905D01*
X124767066Y-71579179D01*
X124372485Y-71711429D01*
X123991822Y-71879510D01*
X123991801Y-71879520D01*
X123628268Y-72082006D01*
X123628262Y-72082010D01*
X123284943Y-72317189D01*
X123284933Y-72317196D01*
X122964805Y-72583028D01*
X122964785Y-72583046D01*
X122670546Y-72877285D01*
X122670528Y-72877305D01*
X122404696Y-73197433D01*
X122404689Y-73197443D01*
X122169510Y-73540762D01*
X122169506Y-73540768D01*
X121967020Y-73904301D01*
X121967010Y-73904322D01*
X121798929Y-74284985D01*
X121666679Y-74679566D01*
X121571405Y-75084646D01*
X121571403Y-75084654D01*
X121531253Y-75372485D01*
X121513912Y-75496803D01*
X121513121Y-75513912D01*
X121505154Y-75686227D01*
X121482394Y-75752286D01*
X121427533Y-75795553D01*
X121381286Y-75804500D01*
X116218612Y-75804500D01*
X109534412Y-75804500D01*
X109122188Y-75804500D01*
X109029701Y-75813609D01*
X108711960Y-75844903D01*
X108711943Y-75844906D01*
X108307667Y-75925320D01*
X108307656Y-75925323D01*
X107913172Y-76044988D01*
X107532326Y-76202740D01*
X107532321Y-76202742D01*
X107168792Y-76397053D01*
X107168774Y-76397064D01*
X106826023Y-76626082D01*
X106507370Y-76887594D01*
X106215894Y-77179070D01*
X105954382Y-77497723D01*
X105725364Y-77840474D01*
X105725353Y-77840492D01*
X105531042Y-78204021D01*
X105531035Y-78204037D01*
X105510009Y-78254797D01*
X105493428Y-78282299D01*
X105493781Y-78282566D01*
X105493806Y-78282583D01*
X105493805Y-78282584D01*
X105493911Y-78282664D01*
X105492184Y-78284950D01*
X105257010Y-78628262D01*
X105257006Y-78628268D01*
X105054520Y-78991801D01*
X105054510Y-78991822D01*
X104886429Y-79372485D01*
X104754179Y-79767066D01*
X104658905Y-80172146D01*
X104658903Y-80172154D01*
X104601413Y-80584292D01*
X104601412Y-80584297D01*
X104601412Y-80584303D01*
X104582193Y-81000000D01*
X98992807Y-81000000D01*
X98973588Y-80584303D01*
X98916096Y-80172152D01*
X98820820Y-79767064D01*
X98688574Y-79372495D01*
X98520485Y-78991812D01*
X98317989Y-78628261D01*
X98082813Y-78284946D01*
X98082807Y-78284939D01*
X98082803Y-78284933D01*
X97839388Y-77991801D01*
X97816962Y-77964794D01*
X97522706Y-77670538D01*
X97469166Y-77626079D01*
X97202566Y-77404696D01*
X97202556Y-77404689D01*
X97202554Y-77404687D01*
X96859239Y-77169511D01*
X96859235Y-77169509D01*
X96859231Y-77169506D01*
X96495698Y-76967020D01*
X96495677Y-76967010D01*
X96115014Y-76798929D01*
X95720433Y-76666679D01*
X95315353Y-76571405D01*
X95315345Y-76571403D01*
X94903207Y-76513913D01*
X94903202Y-76513912D01*
X94903197Y-76513912D01*
X94487500Y-76494693D01*
X94071803Y-76513912D01*
X94071797Y-76513912D01*
X94071792Y-76513913D01*
X93659654Y-76571403D01*
X93659646Y-76571405D01*
X93254566Y-76666679D01*
X92859985Y-76798929D01*
X92479310Y-76967015D01*
X92434952Y-76991722D01*
X92410612Y-77002051D01*
X92269076Y-77044986D01*
X92057077Y-77132800D01*
X91888220Y-77202742D01*
X91761595Y-77270425D01*
X91524692Y-77397052D01*
X91524674Y-77397063D01*
X91346896Y-77515852D01*
X91346895Y-77515852D01*
X91181946Y-77626066D01*
X91181923Y-77626083D01*
X90998819Y-77776353D01*
X90934509Y-77803666D01*
X90920154Y-77804500D01*
X87789195Y-77804500D01*
X87722156Y-77784815D01*
X87701514Y-77768181D01*
X84114854Y-74181521D01*
X84114818Y-74181483D01*
X83820929Y-73887594D01*
X83502276Y-73626082D01*
X83159525Y-73397064D01*
X83159524Y-73397063D01*
X83159519Y-73397060D01*
X83159514Y-73397057D01*
X83159507Y-73397053D01*
X82795978Y-73202742D01*
X82795973Y-73202740D01*
X82783192Y-73197446D01*
X82684425Y-73156535D01*
X82415127Y-73044988D01*
X82020643Y-72925323D01*
X82020632Y-72925320D01*
X81616356Y-72844906D01*
X81616339Y-72844903D01*
X81306117Y-72814348D01*
X81206112Y-72804499D01*
X80793888Y-72804499D01*
X80790818Y-72804499D01*
X80790778Y-72804500D01*
X78664364Y-72804500D01*
X78624958Y-72798072D01*
X78232933Y-72666679D01*
X77827853Y-72571405D01*
X77827845Y-72571403D01*
X77415707Y-72513913D01*
X77415702Y-72513912D01*
X77415697Y-72513912D01*
X77000000Y-72494693D01*
X76584303Y-72513912D01*
X76584297Y-72513912D01*
X76584292Y-72513913D01*
X76172154Y-72571403D01*
X76172146Y-72571405D01*
X75767066Y-72666679D01*
X75372485Y-72798929D01*
X74991822Y-72967010D01*
X74991801Y-72967020D01*
X74628268Y-73169506D01*
X74628262Y-73169510D01*
X74284943Y-73404689D01*
X74284933Y-73404696D01*
X73964805Y-73670528D01*
X73964785Y-73670546D01*
X73670546Y-73964785D01*
X73670528Y-73964805D01*
X73404696Y-74284933D01*
X73404689Y-74284943D01*
X73169510Y-74628262D01*
X73169506Y-74628268D01*
X72967020Y-74991801D01*
X72967010Y-74991822D01*
X72798929Y-75372485D01*
X72666679Y-75767066D01*
X72571405Y-76172146D01*
X72571403Y-76172154D01*
X72513913Y-76584292D01*
X72513912Y-76584297D01*
X72513912Y-76584303D01*
X72494693Y-77000000D01*
X72513912Y-77415697D01*
X72513912Y-77415702D01*
X72513913Y-77415707D01*
X72571403Y-77827845D01*
X72571405Y-77827853D01*
X72603053Y-77962413D01*
X72599240Y-78032179D01*
X72558314Y-78088808D01*
X72493269Y-78114321D01*
X72434894Y-78105364D01*
X72394925Y-78088808D01*
X72391548Y-78087409D01*
X72001295Y-77969027D01*
X72001284Y-77969024D01*
X71601345Y-77889473D01*
X71601328Y-77889470D01*
X71294431Y-77859243D01*
X71195501Y-77849500D01*
X71195498Y-77849500D01*
X65664162Y-77849500D01*
X65639971Y-77847117D01*
X65628855Y-77844906D01*
X65628850Y-77844905D01*
X65628848Y-77844904D01*
X65628838Y-77844903D01*
X65327458Y-77815220D01*
X65218612Y-77804500D01*
X65218609Y-77804500D01*
X61001523Y-77804500D01*
X60934484Y-77784815D01*
X60893194Y-77740838D01*
X60830498Y-77628277D01*
X60830493Y-77628268D01*
X60830489Y-77628261D01*
X60595313Y-77284946D01*
X60595307Y-77284939D01*
X60595303Y-77284933D01*
X60329471Y-76964805D01*
X60329462Y-76964794D01*
X60035206Y-76670538D01*
X59981666Y-76626079D01*
X59715066Y-76404696D01*
X59715056Y-76404689D01*
X59715054Y-76404687D01*
X59371739Y-76169511D01*
X59371735Y-76169509D01*
X59371731Y-76169506D01*
X59008198Y-75967020D01*
X59008177Y-75967010D01*
X58627514Y-75798929D01*
X58232933Y-75666679D01*
X57827853Y-75571405D01*
X57827845Y-75571403D01*
X57415707Y-75513913D01*
X57415702Y-75513912D01*
X57415697Y-75513912D01*
X57000000Y-75494693D01*
X56584303Y-75513912D01*
X56584297Y-75513912D01*
X56584292Y-75513913D01*
X56172154Y-75571403D01*
X56172146Y-75571405D01*
X55767066Y-75666679D01*
X55372485Y-75798929D01*
X54991822Y-75967010D01*
X54991801Y-75967020D01*
X54628268Y-76169506D01*
X54628262Y-76169510D01*
X54284943Y-76404689D01*
X54284933Y-76404696D01*
X53964805Y-76670528D01*
X53964785Y-76670546D01*
X53670546Y-76964785D01*
X53670528Y-76964805D01*
X53404696Y-77284933D01*
X53404689Y-77284943D01*
X53169510Y-77628262D01*
X53169506Y-77628268D01*
X52967020Y-77991801D01*
X52967010Y-77991822D01*
X52798929Y-78372485D01*
X52666679Y-78767066D01*
X52571405Y-79172146D01*
X52571403Y-79172154D01*
X52513913Y-79584292D01*
X52513912Y-79584297D01*
X52513912Y-79584303D01*
X52494693Y-80000000D01*
X47152378Y-80000000D01*
X47190701Y-79610912D01*
X47190701Y-79198688D01*
X47190701Y-79195900D01*
X47190700Y-79195854D01*
X47190700Y-65236691D01*
X47150296Y-64826461D01*
X47150295Y-64826450D01*
X47148083Y-64815329D01*
X47145700Y-64791138D01*
X47145700Y-61712494D01*
X47165385Y-61645455D01*
X47182014Y-61624818D01*
X49239694Y-59567137D01*
X49295277Y-59535046D01*
X49545391Y-59468029D01*
X49781179Y-59374356D01*
X49870203Y-59338990D01*
X49870205Y-59338988D01*
X49870215Y-59338985D01*
X50177862Y-59173104D01*
X50464170Y-58972628D01*
X50725270Y-58740270D01*
X50896246Y-58548144D01*
X50955517Y-58511152D01*
X51025380Y-58512075D01*
X51081505Y-58548144D01*
X51274730Y-58765270D01*
X51274734Y-58765274D01*
X51535821Y-58997621D01*
X51535826Y-58997624D01*
X51535830Y-58997628D01*
X51822138Y-59198104D01*
X52129785Y-59363985D01*
X52129789Y-59363986D01*
X52129796Y-59363990D01*
X52370793Y-59459731D01*
X52454609Y-59493029D01*
X52792218Y-59583491D01*
X53138046Y-59634148D01*
X53283533Y-59640500D01*
X54496466Y-59640499D01*
X54641954Y-59634148D01*
X54987782Y-59583491D01*
X55325391Y-59493029D01*
X55561179Y-59399356D01*
X55650203Y-59363990D01*
X55650205Y-59363988D01*
X55650215Y-59363985D01*
X55957862Y-59198104D01*
X56244170Y-58997628D01*
X56244178Y-58997621D01*
X56505268Y-58765272D01*
X56505272Y-58765268D01*
X56737621Y-58504178D01*
X56737621Y-58504177D01*
X56737628Y-58504170D01*
X56938104Y-58217862D01*
X57103985Y-57910215D01*
X57118484Y-57873717D01*
X57161529Y-57818683D01*
X57227495Y-57795656D01*
X57233723Y-57795500D01*
X58335636Y-57795500D01*
X58375042Y-57801928D01*
X58425033Y-57818683D01*
X58767064Y-57933320D01*
X59172152Y-58028596D01*
X59264935Y-58041537D01*
X59283783Y-58045684D01*
X59379347Y-58074674D01*
X59783650Y-58155095D01*
X60193888Y-58195500D01*
X63999193Y-58195500D01*
X64066232Y-58215185D01*
X64100766Y-58248374D01*
X64262372Y-58479170D01*
X64262378Y-58479178D01*
X64494727Y-58740268D01*
X64494731Y-58740272D01*
X64755821Y-58972621D01*
X64755826Y-58972624D01*
X64755830Y-58972628D01*
X65042138Y-59173104D01*
X65349785Y-59338985D01*
X65349789Y-59338986D01*
X65349796Y-59338990D01*
X65590793Y-59434731D01*
X65674609Y-59468029D01*
X66012218Y-59558491D01*
X66358046Y-59609148D01*
X66503533Y-59615500D01*
X67716466Y-59615499D01*
X67861954Y-59609148D01*
X68207782Y-59558491D01*
X68545391Y-59468029D01*
X68781179Y-59374356D01*
X68870203Y-59338990D01*
X68870205Y-59338988D01*
X68870215Y-59338985D01*
X69177862Y-59173104D01*
X69464170Y-58972628D01*
X69725270Y-58740270D01*
X69896246Y-58548144D01*
X69955517Y-58511152D01*
X70025380Y-58512075D01*
X70081505Y-58548144D01*
X70274730Y-58765270D01*
X70274734Y-58765274D01*
X70535821Y-58997621D01*
X70535826Y-58997624D01*
X70535830Y-58997628D01*
X70822138Y-59198104D01*
X71129785Y-59363985D01*
X71129789Y-59363986D01*
X71129796Y-59363990D01*
X71370793Y-59459731D01*
X71454609Y-59493029D01*
X71792218Y-59583491D01*
X72138046Y-59634148D01*
X72283533Y-59640500D01*
X73496466Y-59640499D01*
X73641954Y-59634148D01*
X73987782Y-59583491D01*
X74325391Y-59493029D01*
X74561179Y-59399356D01*
X74650203Y-59363990D01*
X74650205Y-59363988D01*
X74650215Y-59363985D01*
X74957862Y-59198104D01*
X75244170Y-58997628D01*
X75244178Y-58997621D01*
X75505268Y-58765272D01*
X75505272Y-58765268D01*
X75737621Y-58504178D01*
X75737621Y-58504177D01*
X75737628Y-58504170D01*
X75938104Y-58217862D01*
X76103985Y-57910215D01*
X76233029Y-57585391D01*
X76323491Y-57247782D01*
X76374148Y-56901954D01*
X76380500Y-56756467D01*
X76380500Y-56274500D01*
X76400185Y-56207461D01*
X76452989Y-56161706D01*
X76504500Y-56150500D01*
X76658701Y-56150500D01*
X92605501Y-56150500D01*
X92672540Y-56170185D01*
X92718295Y-56222989D01*
X92729501Y-56274500D01*
X92729501Y-56731466D01*
X92735852Y-56876954D01*
X92766246Y-57084450D01*
X92786509Y-57222784D01*
X92876969Y-57560386D01*
X92876973Y-57560397D01*
X93006009Y-57885203D01*
X93006014Y-57885213D01*
X93083325Y-58028597D01*
X93171896Y-58192862D01*
X93372372Y-58479170D01*
X93372378Y-58479178D01*
X93604727Y-58740268D01*
X93604731Y-58740272D01*
X93865821Y-58972621D01*
X93865826Y-58972624D01*
X93865830Y-58972628D01*
X94152138Y-59173104D01*
X94459785Y-59338985D01*
X94459789Y-59338986D01*
X94459796Y-59338990D01*
X94700793Y-59434731D01*
X94784609Y-59468029D01*
X95122218Y-59558491D01*
X95468046Y-59609148D01*
X95613533Y-59615500D01*
X96826466Y-59615499D01*
X96971954Y-59609148D01*
X97317782Y-59558491D01*
X97655391Y-59468029D01*
X97891179Y-59374356D01*
X97980203Y-59338990D01*
X97980205Y-59338988D01*
X97980215Y-59338985D01*
X98287862Y-59173104D01*
X98574170Y-58972628D01*
X98835270Y-58740270D01*
X99006246Y-58548144D01*
X99065517Y-58511152D01*
X99135380Y-58512075D01*
X99191505Y-58548144D01*
X99384730Y-58765270D01*
X99384734Y-58765274D01*
X99645821Y-58997621D01*
X99645826Y-58997624D01*
X99645830Y-58997628D01*
X99932138Y-59198104D01*
X100239785Y-59363985D01*
X100239789Y-59363986D01*
X100239796Y-59363990D01*
X100480793Y-59459731D01*
X100564609Y-59493029D01*
X100902218Y-59583491D01*
X101248046Y-59634148D01*
X101393533Y-59640500D01*
X102606466Y-59640499D01*
X102751954Y-59634148D01*
X103097782Y-59583491D01*
X103435391Y-59493029D01*
X103671179Y-59399356D01*
X103760203Y-59363990D01*
X103760205Y-59363988D01*
X103760215Y-59363985D01*
X103999701Y-59234855D01*
X104058550Y-59220001D01*
X104233682Y-59220001D01*
X104233722Y-59220000D01*
X109790778Y-59220000D01*
X109790818Y-59220001D01*
X109793888Y-59220001D01*
X110206109Y-59220001D01*
X110206112Y-59220001D01*
X110448807Y-59196097D01*
X110460961Y-59195500D01*
X114218278Y-59195500D01*
X114218318Y-59195501D01*
X114221388Y-59195501D01*
X114633607Y-59195501D01*
X114633612Y-59195501D01*
X114976484Y-59161729D01*
X115045128Y-59174748D01*
X115047405Y-59175944D01*
X115349785Y-59338985D01*
X115349789Y-59338986D01*
X115349796Y-59338990D01*
X115590793Y-59434731D01*
X115674609Y-59468029D01*
X116012218Y-59558491D01*
X116358046Y-59609148D01*
X116503533Y-59615500D01*
X117716466Y-59615499D01*
X117861954Y-59609148D01*
X118207782Y-59558491D01*
X118545391Y-59468029D01*
X118781179Y-59374356D01*
X118870203Y-59338990D01*
X118870205Y-59338988D01*
X118870215Y-59338985D01*
X119177862Y-59173104D01*
X119464170Y-58972628D01*
X119725270Y-58740270D01*
X119896246Y-58548144D01*
X119955517Y-58511152D01*
X120025380Y-58512075D01*
X120081505Y-58548144D01*
X120274730Y-58765270D01*
X120274734Y-58765274D01*
X120535821Y-58997621D01*
X120535826Y-58997624D01*
X120535830Y-58997628D01*
X120822138Y-59198104D01*
X121129785Y-59363985D01*
X121129789Y-59363986D01*
X121129796Y-59363990D01*
X121370793Y-59459731D01*
X121454609Y-59493029D01*
X121792218Y-59583491D01*
X122138046Y-59634148D01*
X122283533Y-59640500D01*
X123496466Y-59640499D01*
X123641954Y-59634148D01*
X123987782Y-59583491D01*
X124325391Y-59493029D01*
X124561179Y-59399356D01*
X124650203Y-59363990D01*
X124650205Y-59363988D01*
X124650215Y-59363985D01*
X124957862Y-59198104D01*
X125244170Y-58997628D01*
X125244178Y-58997621D01*
X125505268Y-58765272D01*
X125505272Y-58765268D01*
X125737621Y-58504178D01*
X125737621Y-58504177D01*
X125737628Y-58504170D01*
X125938104Y-58217862D01*
X126103985Y-57910215D01*
X126233029Y-57585391D01*
X126323491Y-57247782D01*
X126364525Y-56967641D01*
X126393718Y-56904163D01*
X126418326Y-56882511D01*
X126502268Y-56826423D01*
X126502267Y-56826423D01*
X126502271Y-56826421D01*
X126820924Y-56564910D01*
X127112410Y-56273424D01*
X127373921Y-55954771D01*
X127602940Y-55612019D01*
X127797261Y-55248471D01*
X127955012Y-54867626D01*
X128074674Y-54473153D01*
X128074676Y-54473143D01*
X128074679Y-54473132D01*
X128115288Y-54268970D01*
X128155095Y-54068850D01*
X128195500Y-53658612D01*
X128195500Y-52709700D01*
X128215185Y-52642661D01*
X128267989Y-52596906D01*
X128319500Y-52585700D01*
X138457145Y-52585700D01*
X138524184Y-52605385D01*
X138544826Y-52622019D01*
X141693181Y-55770374D01*
X141726666Y-55831697D01*
X141729500Y-55858055D01*
X141729500Y-56731465D01*
X141730592Y-56756466D01*
X141735852Y-56876954D01*
X141766246Y-57084450D01*
X141786509Y-57222784D01*
X141876969Y-57560386D01*
X141876973Y-57560397D01*
X142006009Y-57885203D01*
X142006014Y-57885213D01*
X142083325Y-58028597D01*
X142171896Y-58192862D01*
X142372372Y-58479170D01*
X142372378Y-58479178D01*
X142604727Y-58740268D01*
X142604731Y-58740272D01*
X142865821Y-58972621D01*
X142865826Y-58972624D01*
X142865830Y-58972628D01*
X143152138Y-59173104D01*
X143459785Y-59338985D01*
X143459789Y-59338986D01*
X143459796Y-59338990D01*
X143700793Y-59434731D01*
X143784609Y-59468029D01*
X144122218Y-59558491D01*
X144468046Y-59609148D01*
X144613533Y-59615500D01*
X145826466Y-59615499D01*
X145971954Y-59609148D01*
X146317782Y-59558491D01*
X146655391Y-59468029D01*
X146891179Y-59374356D01*
X146980203Y-59338990D01*
X146980205Y-59338988D01*
X146980215Y-59338985D01*
X147287862Y-59173104D01*
X147574170Y-58972628D01*
X147835270Y-58740270D01*
X148006246Y-58548144D01*
X148065517Y-58511152D01*
X148135380Y-58512075D01*
X148191505Y-58548144D01*
X148384730Y-58765270D01*
X148384734Y-58765274D01*
X148645821Y-58997621D01*
X148645826Y-58997624D01*
X148645830Y-58997628D01*
X148932138Y-59198104D01*
X149239785Y-59363985D01*
X149239789Y-59363986D01*
X149239796Y-59363990D01*
X149480793Y-59459731D01*
X149564609Y-59493029D01*
X149902218Y-59583491D01*
X150248046Y-59634148D01*
X150393533Y-59640500D01*
X151606466Y-59640499D01*
X151751954Y-59634148D01*
X152097782Y-59583491D01*
X152435391Y-59493029D01*
X152671179Y-59399356D01*
X152760203Y-59363990D01*
X152760205Y-59363988D01*
X152760215Y-59363985D01*
X153067862Y-59198104D01*
X153354170Y-58997628D01*
X153354178Y-58997621D01*
X153615268Y-58765272D01*
X153615272Y-58765268D01*
X153847621Y-58504178D01*
X153847621Y-58504177D01*
X153847628Y-58504170D01*
X154048104Y-58217862D01*
X154213985Y-57910215D01*
X154343029Y-57585391D01*
X154433491Y-57247782D01*
X154484148Y-56901954D01*
X154490500Y-56756467D01*
X154490500Y-56113900D01*
X154510185Y-56046861D01*
X154562989Y-56001106D01*
X154614500Y-55989900D01*
X155098177Y-55989900D01*
X155165216Y-56009585D01*
X155177394Y-56018503D01*
X155284933Y-56107803D01*
X155284939Y-56107807D01*
X155284946Y-56107813D01*
X155628261Y-56342989D01*
X155991812Y-56545485D01*
X156182153Y-56629529D01*
X156372485Y-56713570D01*
X156372488Y-56713571D01*
X156372495Y-56713574D01*
X156767064Y-56845820D01*
X157172152Y-56941096D01*
X157584303Y-56998588D01*
X158000000Y-57017807D01*
X158415697Y-56998588D01*
X158827848Y-56941096D01*
X159232936Y-56845820D01*
X159627505Y-56713574D01*
X160008188Y-56545485D01*
X160371739Y-56342989D01*
X160715054Y-56107813D01*
X161035206Y-55841962D01*
X161329462Y-55547706D01*
X161487307Y-55357621D01*
X161584744Y-55240283D01*
X161642716Y-55201283D01*
X161680141Y-55195500D01*
X171906462Y-55195500D01*
X171973501Y-55215185D01*
X171988892Y-55226865D01*
X172135830Y-55357628D01*
X172422138Y-55558104D01*
X172729785Y-55723985D01*
X172729789Y-55723986D01*
X172729796Y-55723990D01*
X172846553Y-55770374D01*
X173054609Y-55853029D01*
X173392218Y-55943491D01*
X173738046Y-55994148D01*
X173883533Y-56000500D01*
X178116466Y-56000499D01*
X178261954Y-55994148D01*
X178607782Y-55943491D01*
X178945391Y-55853029D01*
X179181179Y-55759356D01*
X179270203Y-55723990D01*
X179270205Y-55723988D01*
X179270215Y-55723985D01*
X179577862Y-55558104D01*
X179864170Y-55357628D01*
X179986827Y-55248473D01*
X180125268Y-55125272D01*
X180125272Y-55125268D01*
X180357621Y-54864178D01*
X180357621Y-54864177D01*
X180357628Y-54864170D01*
X180558104Y-54577862D01*
X180723985Y-54270215D01*
X180853029Y-53945391D01*
X180943491Y-53607782D01*
X180994148Y-53261954D01*
X181000500Y-53116467D01*
X181000499Y-48883534D01*
X180994148Y-48738046D01*
X180943491Y-48392218D01*
X180853029Y-48054609D01*
X180771506Y-47849402D01*
X180723990Y-47729796D01*
X180723985Y-47729786D01*
X180723985Y-47729785D01*
X180558104Y-47422138D01*
X180357628Y-47135830D01*
X180357624Y-47135826D01*
X180357621Y-47135821D01*
X180125272Y-46874731D01*
X180125268Y-46874727D01*
X179864178Y-46642378D01*
X179864172Y-46642373D01*
X179864170Y-46642372D01*
X179577862Y-46441896D01*
X179270215Y-46276015D01*
X179270214Y-46276014D01*
X179270213Y-46276014D01*
X179270203Y-46276009D01*
X178945397Y-46146973D01*
X178945386Y-46146969D01*
X178607784Y-46056509D01*
X178492506Y-46039623D01*
X178261954Y-46005852D01*
X178116467Y-45999500D01*
X178116466Y-45999500D01*
X173883534Y-45999500D01*
X173749729Y-46005341D01*
X173738046Y-46005852D01*
X173599714Y-46026114D01*
X173392215Y-46056509D01*
X173054613Y-46146969D01*
X173054602Y-46146973D01*
X172729796Y-46276009D01*
X172729786Y-46276014D01*
X172422146Y-46441891D01*
X172422141Y-46441893D01*
X172422138Y-46441896D01*
X172135830Y-46642372D01*
X172135826Y-46642375D01*
X172108707Y-46666509D01*
X171988895Y-46773131D01*
X171925730Y-46802994D01*
X171906462Y-46804500D01*
X159003622Y-46804500D01*
X159003582Y-46804499D01*
X159000512Y-46804499D01*
X158588288Y-46804499D01*
X158215403Y-46841226D01*
X158215402Y-46841226D01*
X158178061Y-46844903D01*
X158178043Y-46844906D01*
X157773767Y-46925320D01*
X157773756Y-46925323D01*
X157379272Y-47044988D01*
X156998426Y-47202740D01*
X156998421Y-47202742D01*
X156634892Y-47397053D01*
X156634864Y-47397070D01*
X156364080Y-47578002D01*
X156297403Y-47598880D01*
X156295190Y-47598900D01*
X152898869Y-47598900D01*
X152840020Y-47584045D01*
X152760215Y-47541015D01*
X152760214Y-47541014D01*
X152760213Y-47541014D01*
X152760203Y-47541009D01*
X152435397Y-47411973D01*
X152435386Y-47411969D01*
X152097784Y-47321509D01*
X151982506Y-47304623D01*
X151751954Y-47270852D01*
X151606467Y-47264500D01*
X151606466Y-47264500D01*
X150393534Y-47264500D01*
X150259729Y-47270341D01*
X150248046Y-47270852D01*
X150111652Y-47290831D01*
X149902215Y-47321509D01*
X149564613Y-47411969D01*
X149564602Y-47411973D01*
X149239796Y-47541009D01*
X149239786Y-47541014D01*
X148932146Y-47706891D01*
X148932141Y-47706893D01*
X148932138Y-47706896D01*
X148756592Y-47829815D01*
X148645821Y-47907378D01*
X148384733Y-48139725D01*
X148213754Y-48331853D01*
X148154481Y-48368847D01*
X148084618Y-48367923D01*
X148028492Y-48331852D01*
X147835272Y-48114731D01*
X147835268Y-48114727D01*
X147574178Y-47882378D01*
X147574172Y-47882373D01*
X147574170Y-47882372D01*
X147287862Y-47681896D01*
X147133898Y-47598880D01*
X146980213Y-47516014D01*
X146980203Y-47516009D01*
X146655397Y-47386973D01*
X146655386Y-47386969D01*
X146317784Y-47296509D01*
X146202506Y-47279623D01*
X145971954Y-47245852D01*
X145826467Y-47239500D01*
X144953055Y-47239500D01*
X144886016Y-47219815D01*
X144865374Y-47203181D01*
X143018372Y-45356178D01*
X142703137Y-45097471D01*
X142703136Y-45097470D01*
X142703132Y-45097467D01*
X142567317Y-45006718D01*
X142364057Y-44870904D01*
X142364052Y-44870901D01*
X142364045Y-44870897D01*
X142085278Y-44721894D01*
X142004408Y-44678668D01*
X141990570Y-44672936D01*
X141627649Y-44522609D01*
X141241483Y-44405467D01*
X141237405Y-44404230D01*
X141237404Y-44404229D01*
X141237395Y-44404227D01*
X141237384Y-44404224D01*
X140837446Y-44324673D01*
X140837429Y-44324670D01*
X140530531Y-44294443D01*
X140431601Y-44284700D01*
X140431598Y-44284700D01*
X131056243Y-44284700D01*
X130989204Y-44265015D01*
X130943449Y-44212211D01*
X130933432Y-44143569D01*
X130964286Y-43922381D01*
X130973588Y-43855697D01*
X130992807Y-43440000D01*
X130973588Y-43024303D01*
X130916096Y-42612152D01*
X130820820Y-42207064D01*
X130688574Y-41812495D01*
X130520485Y-41431812D01*
X130317989Y-41068261D01*
X130082813Y-40724946D01*
X130082807Y-40724939D01*
X130082803Y-40724933D01*
X129816971Y-40404805D01*
X129816962Y-40404794D01*
X129522706Y-40110538D01*
X129522694Y-40110528D01*
X129202566Y-39844696D01*
X129202556Y-39844689D01*
X129202554Y-39844687D01*
X128859239Y-39609511D01*
X128859235Y-39609509D01*
X128859231Y-39609506D01*
X128495698Y-39407020D01*
X128495677Y-39407010D01*
X128115014Y-39238929D01*
X127720433Y-39106679D01*
X127315353Y-39011405D01*
X127315345Y-39011403D01*
X126903207Y-38953913D01*
X126903202Y-38953912D01*
X126903197Y-38953912D01*
X126487500Y-38934693D01*
X126071803Y-38953912D01*
X126071797Y-38953912D01*
X126071792Y-38953913D01*
X125659654Y-39011403D01*
X125659646Y-39011405D01*
X125254566Y-39106679D01*
X124859985Y-39238929D01*
X124479322Y-39407010D01*
X124479301Y-39407020D01*
X124115768Y-39609506D01*
X124115762Y-39609510D01*
X123772443Y-39844689D01*
X123772433Y-39844696D01*
X123452305Y-40110528D01*
X123452285Y-40110546D01*
X123158046Y-40404785D01*
X123158028Y-40404805D01*
X122892196Y-40724933D01*
X122892189Y-40724943D01*
X122657010Y-41068262D01*
X122657006Y-41068268D01*
X122454520Y-41431801D01*
X122454510Y-41431822D01*
X122378612Y-41603712D01*
X122352859Y-41641306D01*
X121680481Y-42313685D01*
X121680476Y-42313690D01*
X121388994Y-42605170D01*
X121227921Y-42801437D01*
X121227922Y-42801438D01*
X121127481Y-42923825D01*
X121127473Y-42923837D01*
X120898464Y-43266574D01*
X120898453Y-43266592D01*
X120704142Y-43630121D01*
X120704140Y-43630126D01*
X120546388Y-44010972D01*
X120426723Y-44405456D01*
X120426720Y-44405467D01*
X120346308Y-44809732D01*
X120346305Y-44809749D01*
X120321459Y-45061995D01*
X120307415Y-45108292D01*
X120202739Y-45304128D01*
X120202736Y-45304135D01*
X120044988Y-45684972D01*
X119925323Y-46079456D01*
X119925320Y-46079467D01*
X119844906Y-46483743D01*
X119844903Y-46483760D01*
X119817994Y-46756970D01*
X119805285Y-46886015D01*
X119804499Y-46893991D01*
X119804499Y-47309302D01*
X119804500Y-47309322D01*
X119804500Y-47908896D01*
X119784815Y-47975935D01*
X119732011Y-48021690D01*
X119662853Y-48031634D01*
X119599297Y-48002609D01*
X119598066Y-48001528D01*
X119492262Y-47907372D01*
X119464170Y-47882372D01*
X119177862Y-47681896D01*
X119023898Y-47598880D01*
X118870213Y-47516014D01*
X118870203Y-47516009D01*
X118545397Y-47386973D01*
X118545386Y-47386969D01*
X118207784Y-47296509D01*
X118092506Y-47279623D01*
X117861954Y-47245852D01*
X117716467Y-47239500D01*
X117716466Y-47239500D01*
X116503534Y-47239500D01*
X116369729Y-47245341D01*
X116358046Y-47245852D01*
X116230739Y-47264500D01*
X116012215Y-47296509D01*
X115674613Y-47386969D01*
X115674602Y-47386973D01*
X115349796Y-47516009D01*
X115349786Y-47516014D01*
X115042146Y-47681891D01*
X115042141Y-47681893D01*
X115042138Y-47681896D01*
X114851485Y-47815392D01*
X114755821Y-47882378D01*
X114494731Y-48114727D01*
X114494727Y-48114731D01*
X114262378Y-48375821D01*
X114262372Y-48375830D01*
X114061896Y-48662138D01*
X114061893Y-48662141D01*
X114061891Y-48662146D01*
X113896014Y-48969786D01*
X113896009Y-48969796D01*
X113766973Y-49294602D01*
X113766969Y-49294613D01*
X113676509Y-49632214D01*
X113635472Y-49912360D01*
X113606278Y-49975838D01*
X113581673Y-49997488D01*
X113497743Y-50053569D01*
X113497724Y-50053583D01*
X113259297Y-50249255D01*
X113221361Y-50280389D01*
X113211403Y-50288561D01*
X113147093Y-50315874D01*
X113078225Y-50304083D01*
X113045057Y-50280389D01*
X113035214Y-50270546D01*
X113035206Y-50270538D01*
X113035194Y-50270528D01*
X112715066Y-50004696D01*
X112715056Y-50004689D01*
X112715054Y-50004687D01*
X112371739Y-49769511D01*
X112371735Y-49769509D01*
X112371731Y-49769506D01*
X112008198Y-49567020D01*
X112008177Y-49567010D01*
X111627514Y-49398929D01*
X111232933Y-49266679D01*
X110827853Y-49171405D01*
X110827845Y-49171403D01*
X110415707Y-49113913D01*
X110415702Y-49113912D01*
X110415697Y-49113912D01*
X110000000Y-49094693D01*
X109584303Y-49113912D01*
X109584297Y-49113912D01*
X109584292Y-49113913D01*
X109172154Y-49171403D01*
X109172146Y-49171405D01*
X108767066Y-49266679D01*
X108372485Y-49398929D01*
X107991822Y-49567010D01*
X107991801Y-49567020D01*
X107628268Y-49769506D01*
X107628262Y-49769510D01*
X107284943Y-50004689D01*
X107284933Y-50004696D01*
X106964805Y-50270528D01*
X106964785Y-50270546D01*
X106670546Y-50564785D01*
X106670528Y-50564805D01*
X106488331Y-50784217D01*
X106430359Y-50823217D01*
X106392934Y-50829000D01*
X105813695Y-50829000D01*
X105746656Y-50809315D01*
X105726014Y-50792681D01*
X105526818Y-50593485D01*
X105493333Y-50532162D01*
X105490499Y-50505804D01*
X105490499Y-50148534D01*
X105484148Y-50003046D01*
X105433491Y-49657218D01*
X105343029Y-49319609D01*
X105309731Y-49235793D01*
X105213990Y-48994796D01*
X105213985Y-48994786D01*
X105213985Y-48994785D01*
X105048104Y-48687138D01*
X104847628Y-48400830D01*
X104847624Y-48400826D01*
X104847621Y-48400821D01*
X104615272Y-48139731D01*
X104615268Y-48139727D01*
X104354178Y-47907378D01*
X104354172Y-47907373D01*
X104354170Y-47907372D01*
X104067862Y-47706896D01*
X104021496Y-47681896D01*
X103867078Y-47598635D01*
X103760215Y-47541015D01*
X103760214Y-47541014D01*
X103760213Y-47541014D01*
X103760203Y-47541009D01*
X103435397Y-47411973D01*
X103435386Y-47411969D01*
X103097784Y-47321509D01*
X102982506Y-47304623D01*
X102751954Y-47270852D01*
X102606467Y-47264500D01*
X102606466Y-47264500D01*
X101393534Y-47264500D01*
X101259729Y-47270341D01*
X101248046Y-47270852D01*
X101111652Y-47290831D01*
X100902215Y-47321509D01*
X100564613Y-47411969D01*
X100564602Y-47411973D01*
X100239796Y-47541009D01*
X100239786Y-47541014D01*
X99932146Y-47706891D01*
X99932141Y-47706893D01*
X99932138Y-47706896D01*
X99756592Y-47829815D01*
X99645821Y-47907378D01*
X99384733Y-48139725D01*
X99213754Y-48331853D01*
X99154481Y-48368847D01*
X99084618Y-48367923D01*
X99028492Y-48331852D01*
X98835272Y-48114731D01*
X98835268Y-48114727D01*
X98574178Y-47882378D01*
X98574172Y-47882373D01*
X98574170Y-47882372D01*
X98287862Y-47681896D01*
X98133898Y-47598880D01*
X97980213Y-47516014D01*
X97980203Y-47516009D01*
X97655397Y-47386973D01*
X97655386Y-47386969D01*
X97317784Y-47296509D01*
X97202506Y-47279623D01*
X96971954Y-47245852D01*
X96826467Y-47239500D01*
X96826466Y-47239500D01*
X95613534Y-47239500D01*
X95479729Y-47245341D01*
X95468046Y-47245852D01*
X95340739Y-47264500D01*
X95122215Y-47296509D01*
X94784613Y-47386969D01*
X94784602Y-47386973D01*
X94459796Y-47516009D01*
X94459786Y-47516014D01*
X94152141Y-47681893D01*
X93944801Y-47827075D01*
X93878595Y-47849402D01*
X93873678Y-47849500D01*
X78882398Y-47849500D01*
X78815359Y-47829815D01*
X78769604Y-47777011D01*
X78759660Y-47707853D01*
X78788685Y-47644297D01*
X78794708Y-47637827D01*
X79087342Y-47345192D01*
X79114673Y-47324553D01*
X79211739Y-47270489D01*
X79555054Y-47035313D01*
X79875206Y-46769462D01*
X80169462Y-46475206D01*
X80435313Y-46155054D01*
X80670489Y-45811739D01*
X80872985Y-45448188D01*
X81041074Y-45067505D01*
X81173320Y-44672936D01*
X81268596Y-44267848D01*
X81326088Y-43855697D01*
X81345307Y-43440000D01*
X81326088Y-43024303D01*
X81268596Y-42612152D01*
X81173320Y-42207064D01*
X81041074Y-41812495D01*
X80872985Y-41431812D01*
X80670489Y-41068261D01*
X80435313Y-40724946D01*
X80435307Y-40724939D01*
X80435303Y-40724933D01*
X80169471Y-40404805D01*
X80169462Y-40404794D01*
X79875206Y-40110538D01*
X79875194Y-40110528D01*
X79555066Y-39844696D01*
X79555056Y-39844689D01*
X79555054Y-39844687D01*
X79211739Y-39609511D01*
X79211735Y-39609509D01*
X79211731Y-39609506D01*
X78848198Y-39407020D01*
X78848177Y-39407010D01*
X78467514Y-39238929D01*
X78072933Y-39106679D01*
X77667853Y-39011405D01*
X77667845Y-39011403D01*
X77255707Y-38953913D01*
X77255702Y-38953912D01*
X77255697Y-38953912D01*
X76840000Y-38934693D01*
X76424303Y-38953912D01*
X76424297Y-38953912D01*
X76424292Y-38953913D01*
X76012154Y-39011403D01*
X76012146Y-39011405D01*
X75607066Y-39106679D01*
X75212485Y-39238929D01*
X74831822Y-39407010D01*
X74831801Y-39407020D01*
X74468268Y-39609506D01*
X74468262Y-39609510D01*
X74124943Y-39844689D01*
X74124933Y-39844696D01*
X73804805Y-40110528D01*
X73804785Y-40110546D01*
X73510546Y-40404785D01*
X73510528Y-40404805D01*
X73244696Y-40724933D01*
X73244689Y-40724943D01*
X73009511Y-41068261D01*
X72955448Y-41165321D01*
X72934800Y-41192662D01*
X69948050Y-44179413D01*
X69679427Y-44448035D01*
X69679421Y-44448041D01*
X69679419Y-44448044D01*
X69553735Y-44597829D01*
X69435232Y-44739053D01*
X69217333Y-45050244D01*
X69217324Y-45050259D01*
X69027386Y-45379242D01*
X69027378Y-45379258D01*
X68866830Y-45723552D01*
X68834735Y-45811738D01*
X68834735Y-45811739D01*
X68766395Y-45999501D01*
X68736901Y-46080533D01*
X68716933Y-46155054D01*
X68638577Y-46447480D01*
X68638575Y-46447490D01*
X68584007Y-46756970D01*
X68584007Y-46756971D01*
X68572610Y-46821601D01*
X68539499Y-47200051D01*
X68539499Y-47223792D01*
X68519814Y-47290831D01*
X68467010Y-47336586D01*
X68397852Y-47346530D01*
X68383406Y-47343567D01*
X68207784Y-47296509D01*
X68092506Y-47279623D01*
X67861954Y-47245852D01*
X67716467Y-47239500D01*
X67716466Y-47239500D01*
X66503534Y-47239500D01*
X66369729Y-47245341D01*
X66358046Y-47245852D01*
X66230739Y-47264500D01*
X66012215Y-47296509D01*
X65674613Y-47386969D01*
X65674602Y-47386973D01*
X65349796Y-47516009D01*
X65349786Y-47516014D01*
X65042146Y-47681891D01*
X65042141Y-47681893D01*
X65042138Y-47681896D01*
X64851485Y-47815392D01*
X64755821Y-47882378D01*
X64494731Y-48114727D01*
X64494727Y-48114731D01*
X64262378Y-48375821D01*
X64262372Y-48375830D01*
X64061896Y-48662138D01*
X64061893Y-48662141D01*
X64061891Y-48662146D01*
X63896014Y-48969786D01*
X63896009Y-48969796D01*
X63766973Y-49294602D01*
X63766969Y-49294613D01*
X63676509Y-49632215D01*
X63666804Y-49698472D01*
X63637611Y-49761951D01*
X63578733Y-49799569D01*
X63544113Y-49804500D01*
X62461215Y-49804500D01*
X62394176Y-49784815D01*
X62391159Y-49782814D01*
X62371739Y-49769511D01*
X62371735Y-49769509D01*
X62371731Y-49769506D01*
X62008198Y-49567020D01*
X62008177Y-49567010D01*
X61627514Y-49398929D01*
X61232933Y-49266679D01*
X60827853Y-49171405D01*
X60827845Y-49171403D01*
X60415707Y-49113913D01*
X60415702Y-49113912D01*
X60415697Y-49113912D01*
X60000000Y-49094693D01*
X59584303Y-49113912D01*
X59584297Y-49113912D01*
X59584292Y-49113913D01*
X59172154Y-49171403D01*
X59172146Y-49171405D01*
X58767066Y-49266679D01*
X58375042Y-49398072D01*
X58335636Y-49404500D01*
X57350700Y-49404500D01*
X57283661Y-49384815D01*
X57237906Y-49332011D01*
X57233552Y-49320927D01*
X57233030Y-49319613D01*
X57233029Y-49319609D01*
X57169996Y-49160945D01*
X57103990Y-48994796D01*
X57103985Y-48994786D01*
X57103985Y-48994785D01*
X56938104Y-48687138D01*
X56737628Y-48400830D01*
X56737624Y-48400826D01*
X56737621Y-48400821D01*
X56505272Y-48139731D01*
X56505268Y-48139727D01*
X56244178Y-47907378D01*
X56244172Y-47907373D01*
X56244170Y-47907372D01*
X55957862Y-47706896D01*
X55911496Y-47681896D01*
X55757078Y-47598635D01*
X55650215Y-47541015D01*
X55650214Y-47541014D01*
X55650213Y-47541014D01*
X55650203Y-47541009D01*
X55325397Y-47411973D01*
X55325386Y-47411969D01*
X54987784Y-47321509D01*
X54872506Y-47304623D01*
X54641954Y-47270852D01*
X54496467Y-47264500D01*
X54496466Y-47264500D01*
X53283534Y-47264500D01*
X53149729Y-47270341D01*
X53138046Y-47270852D01*
X53039238Y-47285325D01*
X52792213Y-47321509D01*
X52461593Y-47410099D01*
X52391744Y-47408436D01*
X52333881Y-47369274D01*
X52306377Y-47305045D01*
X52305500Y-47290324D01*
X52305500Y-46537191D01*
X52296664Y-46447482D01*
X52265095Y-46126950D01*
X52202396Y-45811739D01*
X52184679Y-45722667D01*
X52184676Y-45722656D01*
X52184675Y-45722653D01*
X52184674Y-45722647D01*
X52065012Y-45328174D01*
X51907261Y-44947329D01*
X51833723Y-44809750D01*
X51712946Y-44583792D01*
X51712945Y-44583790D01*
X51712940Y-44583781D01*
X51483921Y-44241029D01*
X51483917Y-44241023D01*
X51222405Y-43922370D01*
X50930929Y-43630894D01*
X50612276Y-43369382D01*
X50269525Y-43140364D01*
X50269524Y-43140363D01*
X50269519Y-43140360D01*
X50269514Y-43140357D01*
X50269507Y-43140353D01*
X49905978Y-42946042D01*
X49905973Y-42946040D01*
X49852370Y-42923837D01*
X49794425Y-42899835D01*
X49525127Y-42788288D01*
X49130643Y-42668623D01*
X49130632Y-42668620D01*
X48726356Y-42588206D01*
X48726339Y-42588203D01*
X48416113Y-42557649D01*
X48316112Y-42547800D01*
X48316109Y-42547800D01*
X46325822Y-42547800D01*
X46325782Y-42547799D01*
X46322712Y-42547799D01*
X45910488Y-42547799D01*
X45817998Y-42556908D01*
X45500260Y-42588203D01*
X45500243Y-42588206D01*
X45095967Y-42668620D01*
X45095956Y-42668623D01*
X44701472Y-42788288D01*
X44320626Y-42946040D01*
X44320621Y-42946042D01*
X43957092Y-43140353D01*
X43957074Y-43140364D01*
X43614323Y-43369382D01*
X43295670Y-43630894D01*
X43004190Y-43922376D01*
X43004185Y-43922381D01*
X40278500Y-46648065D01*
X40217177Y-46681550D01*
X40158726Y-46680159D01*
X40107784Y-46666509D01*
X39981867Y-46648065D01*
X39761954Y-46615852D01*
X39616467Y-46609500D01*
X39616466Y-46609500D01*
X34383534Y-46609500D01*
X34249729Y-46615341D01*
X34238046Y-46615852D01*
X34099714Y-46636114D01*
X33892215Y-46666509D01*
X33554613Y-46756969D01*
X33554602Y-46756973D01*
X33229796Y-46886009D01*
X33229786Y-46886014D01*
X32922145Y-47051891D01*
X32922138Y-47051896D01*
X32695622Y-47210504D01*
X32629418Y-47232831D01*
X32561650Y-47215821D01*
X32513837Y-47164873D01*
X32500500Y-47108929D01*
X32500500Y-29624500D01*
X32520185Y-29557461D01*
X32572989Y-29511706D01*
X32624500Y-29500500D01*
X188375500Y-29500500D01*
X188442539Y-29520185D01*
G37*
%TD.AperFunction*%
%TD*%
M02*
