%TF.GenerationSoftware,KiCad,Pcbnew,8.0.6-8.0.6-0~ubuntu24.04.1*%
%TF.CreationDate,2024-11-25T14:47:18+01:00*%
%TF.ProjectId,diplexer,6469706c-6578-4657-922e-6b696361645f,rev?*%
%TF.SameCoordinates,Original*%
%TF.FileFunction,Soldermask,Top*%
%TF.FilePolarity,Negative*%
%FSLAX46Y46*%
G04 Gerber Fmt 4.6, Leading zero omitted, Abs format (unit mm)*
G04 Created by KiCad (PCBNEW 8.0.6-8.0.6-0~ubuntu24.04.1) date 2024-11-25 14:47:18*
%MOMM*%
%LPD*%
G01*
G04 APERTURE LIST*
G04 Aperture macros list*
%AMRoundRect*
0 Rectangle with rounded corners*
0 $1 Rounding radius*
0 $2 $3 $4 $5 $6 $7 $8 $9 X,Y pos of 4 corners*
0 Add a 4 corners polygon primitive as box body*
4,1,4,$2,$3,$4,$5,$6,$7,$8,$9,$2,$3,0*
0 Add four circle primitives for the rounded corners*
1,1,$1+$1,$2,$3*
1,1,$1+$1,$4,$5*
1,1,$1+$1,$6,$7*
1,1,$1+$1,$8,$9*
0 Add four rect primitives between the rounded corners*
20,1,$1+$1,$2,$3,$4,$5,0*
20,1,$1+$1,$4,$5,$6,$7,0*
20,1,$1+$1,$6,$7,$8,$9,0*
20,1,$1+$1,$8,$9,$2,$3,0*%
G04 Aperture macros list end*
%ADD10RoundRect,0.102000X-1.590000X0.595000X-1.590000X-0.595000X1.590000X-0.595000X1.590000X0.595000X0*%
%ADD11C,3.000000*%
%ADD12RoundRect,0.102000X1.590000X-0.595000X1.590000X0.595000X-1.590000X0.595000X-1.590000X-0.595000X0*%
%ADD13RoundRect,0.102000X-0.595000X-1.590000X0.595000X-1.590000X0.595000X1.590000X-0.595000X1.590000X0*%
%ADD14C,5.600000*%
%ADD15R,5.000000X5.000000*%
%ADD16R,4.000000X4.000000*%
G04 APERTURE END LIST*
D10*
%TO.C,C17*%
X90425000Y-99267000D03*
X90425000Y-102089000D03*
%TD*%
D11*
%TO.C,L10*%
X45225000Y-98075000D03*
X59825000Y-98075000D03*
%TD*%
D12*
%TO.C,C6*%
X65175000Y-101708000D03*
X65175000Y-98886000D03*
%TD*%
D13*
%TO.C,C14*%
X121339000Y-65775000D03*
X124161000Y-65775000D03*
%TD*%
%TO.C,C4*%
X121279000Y-70200000D03*
X124101000Y-70200000D03*
%TD*%
D14*
%TO.C,J5*%
X36500000Y-47500000D03*
%TD*%
D10*
%TO.C,C19*%
X140275000Y-99385000D03*
X140275000Y-102207000D03*
%TD*%
D11*
%TO.C,L2*%
X77340000Y-57940000D03*
X91940000Y-57940000D03*
%TD*%
D15*
%TO.C,J3*%
X186000000Y-94990000D03*
X186000000Y-104100000D03*
X186000000Y-85890000D03*
%TD*%
D11*
%TO.C,L4*%
X126987500Y-57940000D03*
X141587500Y-57940000D03*
%TD*%
D16*
%TO.C,J2*%
X177400000Y-63890000D03*
X186400000Y-57540000D03*
X186400000Y-70240000D03*
%TD*%
D13*
%TO.C,C13*%
X95603000Y-69764000D03*
X98425000Y-69764000D03*
%TD*%
D11*
%TO.C,L6*%
X144900000Y-98825000D03*
X159500000Y-98825000D03*
%TD*%
D14*
%TO.C,J7*%
X185500000Y-47500000D03*
%TD*%
D11*
%TO.C,L7*%
X128000000Y-105012500D03*
X128000000Y-90412500D03*
%TD*%
D13*
%TO.C,C1*%
X49125000Y-66122000D03*
X51947000Y-66122000D03*
%TD*%
D12*
%TO.C,C7*%
X85625000Y-101989000D03*
X85625000Y-99167000D03*
%TD*%
D11*
%TO.C,L9*%
X77500000Y-106100000D03*
X77500000Y-91500000D03*
%TD*%
D14*
%TO.C,J11*%
X185500000Y-79500000D03*
%TD*%
%TO.C,J10*%
X134500000Y-79500000D03*
%TD*%
%TO.C,J8*%
X50500000Y-79500000D03*
%TD*%
D11*
%TO.C,L8*%
X95250000Y-97875000D03*
X109850000Y-97875000D03*
%TD*%
D13*
%TO.C,C15*%
X145975000Y-69825000D03*
X148797000Y-69825000D03*
%TD*%
D10*
%TO.C,C20*%
X169900000Y-99003000D03*
X169900000Y-101825000D03*
%TD*%
D13*
%TO.C,C11*%
X49035000Y-70322000D03*
X51857000Y-70322000D03*
%TD*%
D11*
%TO.C,L1*%
X60500000Y-68100000D03*
X60500000Y-53500000D03*
%TD*%
D15*
%TO.C,J1*%
X35100000Y-80200000D03*
X35100000Y-71090000D03*
X35100000Y-89300000D03*
%TD*%
D13*
%TO.C,C5*%
X146050000Y-65250000D03*
X148872000Y-65250000D03*
%TD*%
D12*
%TO.C,C10*%
X165025000Y-101786000D03*
X165025000Y-98964000D03*
%TD*%
D14*
%TO.C,J6*%
X185500000Y-111500000D03*
%TD*%
D13*
%TO.C,C2*%
X71229000Y-70200000D03*
X74051000Y-70200000D03*
%TD*%
D10*
%TO.C,C18*%
X119575000Y-99339000D03*
X119575000Y-102161000D03*
%TD*%
D12*
%TO.C,C8*%
X114775000Y-101961000D03*
X114775000Y-99139000D03*
%TD*%
%TO.C,C9*%
X135500000Y-102186000D03*
X135500000Y-99364000D03*
%TD*%
D13*
%TO.C,C12*%
X71325000Y-65800000D03*
X74147000Y-65800000D03*
%TD*%
D11*
%TO.C,L5*%
X158500000Y-67012500D03*
X158500000Y-52412500D03*
%TD*%
D10*
%TO.C,C16*%
X69800000Y-98900000D03*
X69800000Y-101722000D03*
%TD*%
D11*
%TO.C,L3*%
X110500000Y-68100000D03*
X110500000Y-53500000D03*
%TD*%
D13*
%TO.C,C3*%
X95618000Y-65329000D03*
X98440000Y-65329000D03*
%TD*%
D14*
%TO.C,J4*%
X36500000Y-111500000D03*
%TD*%
%TO.C,J9*%
X96500000Y-79500000D03*
%TD*%
G36*
X188943039Y-28919685D02*
G01*
X188988794Y-28972489D01*
X189000000Y-29024000D01*
X189000000Y-36276000D01*
X188980315Y-36343039D01*
X188927511Y-36388794D01*
X188876000Y-36400000D01*
X32124000Y-36400000D01*
X32056961Y-36380315D01*
X32011206Y-36327511D01*
X32000000Y-36276000D01*
X32000000Y-29024000D01*
X32019685Y-28956961D01*
X32072489Y-28911206D01*
X32124000Y-28900000D01*
X188876000Y-28900000D01*
X188943039Y-28919685D01*
G37*
G36*
X188943039Y-122219685D02*
G01*
X188988794Y-122272489D01*
X189000000Y-122324000D01*
X189000000Y-129576000D01*
X188980315Y-129643039D01*
X188927511Y-129688794D01*
X188876000Y-129700000D01*
X32124000Y-129700000D01*
X32056961Y-129680315D01*
X32011206Y-129627511D01*
X32000000Y-129576000D01*
X32000000Y-122324000D01*
X32019685Y-122256961D01*
X32072489Y-122211206D01*
X32124000Y-122200000D01*
X188876000Y-122200000D01*
X188943039Y-122219685D01*
G37*
G36*
X187443039Y-77519685D02*
G01*
X187488794Y-77572489D01*
X187500000Y-77624000D01*
X187500000Y-81276089D01*
X187480315Y-81343128D01*
X187427511Y-81388883D01*
X187376089Y-81400089D01*
X48624089Y-81499910D01*
X48557036Y-81480274D01*
X48511243Y-81427503D01*
X48500000Y-81375910D01*
X48500000Y-77624000D01*
X48519685Y-77556961D01*
X48572489Y-77511206D01*
X48624000Y-77500000D01*
X187376000Y-77500000D01*
X187443039Y-77519685D01*
G37*
M02*
